{
    "asset" : {
        "copyright" : "Jeremy Edelblut",
        "generator" : "Khronos glTF Blender I/O v1.7.33",
        "version" : "2.0"
    },
    "scene" : 0,
    "scenes" : [
        {
            "name" : "Scene",
            "nodes" : [
                0,
                1,
                2
            ]
        }
    ],
    "nodes" : [
        {
            "mesh" : 0,
            "name" : "Circle.2516",
            "rotation" : [
                0,
                -0.7071068286895752,
                -0.7071068286895752,
                -1.1520232590100932e-07
            ],
            "scale" : [
                0.22808298468589783,
                0.26972001791000366,
                0.22808298468589783
            ]
        },
        {
            "mesh" : 1,
            "name" : "Cube.808",
            "scale" : [
                1.596664309501648,
                1.596664309501648,
                1.596664309501648
            ]
        },
        {
            "mesh" : 2,
            "name" : "Cylinder.473",
            "scale" : [
                1.596664309501648,
                1.596664309501648,
                1.596664309501648
            ]
        }
    ],
    "materials" : [
        {
            "doubleSided" : true,
            "name" : "color",
            "pbrMetallicRoughness" : {
                "baseColorTexture" : {
                    "index" : 0
                },
                "metallicFactor" : 0,
                "roughnessFactor" : 0.5
            }
        }
    ],
    "meshes" : [
        {
            "name" : "Circle.3109",
            "primitives" : [
                {
                    "attributes" : {
                        "POSITION" : 0,
                        "NORMAL" : 1,
                        "TEXCOORD_0" : 2
                    },
                    "indices" : 3,
                    "material" : 0
                }
            ]
        },
        {
            "name" : "Cube.952",
            "primitives" : [
                {
                    "attributes" : {
                        "POSITION" : 4,
                        "NORMAL" : 5,
                        "TEXCOORD_0" : 6
                    },
                    "indices" : 7,
                    "material" : 0
                }
            ]
        },
        {
            "name" : "Cylinder.474",
            "primitives" : [
                {
                    "attributes" : {
                        "POSITION" : 8,
                        "NORMAL" : 9,
                        "TEXCOORD_0" : 10
                    },
                    "indices" : 11,
                    "material" : 0
                }
            ]
        }
    ],
    "textures" : [
        {
            "sampler" : 0,
            "source" : 0
        }
    ],
    "images" : [
        {
            "bufferView" : 4,
            "mimeType" : "image/png",
            "name" : "tex"
        }
    ],
    "accessors" : [
        {
            "bufferView" : 0,
            "componentType" : 5126,
            "count" : 778,
            "max" : [
                3.0690574645996094,
                0.17631976306438446,
                1.118347406387329
            ],
            "min" : [
                -3.069058895111084,
                -0.1476953625679016,
                -5.019768714904785
            ],
            "type" : "VEC3"
        },
        {
            "bufferView" : 1,
            "componentType" : 5126,
            "count" : 778,
            "type" : "VEC3"
        },
        {
            "bufferView" : 2,
            "componentType" : 5126,
            "count" : 778,
            "type" : "VEC2"
        },
        {
            "bufferView" : 3,
            "componentType" : 5123,
            "count" : 2028,
            "type" : "SCALAR"
        },
        {
            "bufferView" : 5,
            "componentType" : 5126,
            "count" : 118,
            "max" : [
                0.31707561016082764,
                0.7152906060218811,
                0.03792682662606239
            ],
            "min" : [
                -0.38122764229774475,
                0.2571333646774292,
                -0.03960249945521355
            ],
            "type" : "VEC3"
        },
        {
            "bufferView" : 6,
            "componentType" : 5126,
            "count" : 118,
            "type" : "VEC3"
        },
        {
            "bufferView" : 7,
            "componentType" : 5126,
            "count" : 118,
            "type" : "VEC2"
        },
        {
            "bufferView" : 8,
            "componentType" : 5123,
            "count" : 300,
            "type" : "SCALAR"
        },
        {
            "bufferView" : 9,
            "componentType" : 5126,
            "count" : 628,
            "max" : [
                0.1747058928012848,
                0.3048758804798126,
                0.05564233660697937
            ],
            "min" : [
                -0.1747058928012848,
                0.12050264328718185,
                -0.05149933323264122
            ],
            "type" : "VEC3"
        },
        {
            "bufferView" : 10,
            "componentType" : 5126,
            "count" : 628,
            "type" : "VEC3"
        },
        {
            "bufferView" : 11,
            "componentType" : 5126,
            "count" : 628,
            "type" : "VEC2"
        },
        {
            "bufferView" : 12,
            "componentType" : 5123,
            "count" : 3252,
            "type" : "SCALAR"
        }
    ],
    "bufferViews" : [
        {
            "buffer" : 0,
            "byteLength" : 9336,
            "byteOffset" : 0
        },
        {
            "buffer" : 0,
            "byteLength" : 9336,
            "byteOffset" : 9336
        },
        {
            "buffer" : 0,
            "byteLength" : 6224,
            "byteOffset" : 18672
        },
        {
            "buffer" : 0,
            "byteLength" : 4056,
            "byteOffset" : 24896
        },
        {
            "buffer" : 0,
            "byteLength" : 11997,
            "byteOffset" : 28952
        },
        {
            "buffer" : 0,
            "byteLength" : 1416,
            "byteOffset" : 40952
        },
        {
            "buffer" : 0,
            "byteLength" : 1416,
            "byteOffset" : 42368
        },
        {
            "buffer" : 0,
            "byteLength" : 944,
            "byteOffset" : 43784
        },
        {
            "buffer" : 0,
            "byteLength" : 600,
            "byteOffset" : 44728
        },
        {
            "buffer" : 0,
            "byteLength" : 7536,
            "byteOffset" : 45328
        },
        {
            "buffer" : 0,
            "byteLength" : 7536,
            "byteOffset" : 52864
        },
        {
            "buffer" : 0,
            "byteLength" : 5024,
            "byteOffset" : 60400
        },
        {
            "buffer" : 0,
            "byteLength" : 6504,
            "byteOffset" : 65424
        }
    ],
    "samplers" : [
        {
            "magFilter" : 9729,
            "minFilter" : 9987
        }
    ],
    "buffers" : [
        {
            "byteLength" : 71928,
            "uri" : "data:application/octet-stream;base64,"
        }
    ]
}
