{
    "asset" : {
        "copyright" : "Jeremy Edelblut",
        "generator" : "Khronos glTF Blender I/O v1.6.16",
        "version" : "2.0"
    },
    "scene" : 0,
    "scenes" : [
        {
            "name" : "Scene",
            "nodes" : [
                0,
                1
            ]
        }
    ],
    "nodes" : [
        {
            "mesh" : 0,
            "name" : "Cube.798",
            "rotation" : [
                0.14771094918251038,
                0.911994993686676,
                0.0611838772892952,
                0.3777606785297394
            ],
            "scale" : [
                0.20636245608329773,
                0.20636245608329773,
                0.20636247098445892
            ],
            "translation" : [
                0.10000000149011612,
                0.3067651391029358,
                0.10000000149011612
            ]
        },
        {
            "mesh" : 1,
            "name" : "Cube.799",
            "rotation" : [
                0,
                0.9238796234130859,
                0,
                0.38268348574638367
            ],
            "scale" : [
                0.699999988079071,
                0.699999988079071,
                0.699999988079071
            ],
            "translation" : [
                0,
                -0.8246145844459534,
                0
            ]
        }
    ],
    "materials" : [
        {
            "doubleSided" : true,
            "name" : "Color",
            "pbrMetallicRoughness" : {
                "baseColorTexture" : {
                    "index" : 0
                },
                "metallicFactor" : 0,
                "roughnessFactor" : 0.5
            }
        }
    ],
    "meshes" : [
        {
            "name" : "Cube.7600",
            "primitives" : [
                {
                    "attributes" : {
                        "POSITION" : 0,
                        "NORMAL" : 1,
                        "TEXCOORD_0" : 2
                    },
                    "indices" : 3,
                    "material" : 0
                }
            ]
        },
        {
            "name" : "Cube.7601",
            "primitives" : [
                {
                    "attributes" : {
                        "POSITION" : 4,
                        "NORMAL" : 5,
                        "TEXCOORD_0" : 6
                    },
                    "indices" : 7,
                    "material" : 0
                }
            ]
        }
    ],
    "textures" : [
        {
            "sampler" : 0,
            "source" : 0
        }
    ],
    "images" : [
        {
            "bufferView" : 4,
            "mimeType" : "image/png",
            "name" : "tex"
        }
    ],
    "accessors" : [
        {
            "bufferView" : 0,
            "componentType" : 5126,
            "count" : 15002,
            "max" : [
                6.173271179199219,
                2.741886615753174,
                6.111774921417236
            ],
            "min" : [
                -5.576531410217285,
                -1.5090326070785522,
                -6.1117753982543945
            ],
            "type" : "VEC3"
        },
        {
            "bufferView" : 1,
            "componentType" : 5126,
            "count" : 15002,
            "type" : "VEC3"
        },
        {
            "bufferView" : 2,
            "componentType" : 5126,
            "count" : 15002,
            "type" : "VEC2"
        },
        {
            "bufferView" : 3,
            "componentType" : 5123,
            "count" : 55464,
            "type" : "SCALAR"
        },
        {
            "bufferView" : 5,
            "componentType" : 5126,
            "count" : 234,
            "max" : [
                1,
                0.05529838055372238,
                1
            ],
            "min" : [
                -1,
                -0.04912131652235985,
                -1
            ],
            "type" : "VEC3"
        },
        {
            "bufferView" : 6,
            "componentType" : 5126,
            "count" : 234,
            "type" : "VEC3"
        },
        {
            "bufferView" : 7,
            "componentType" : 5126,
            "count" : 234,
            "type" : "VEC2"
        },
        {
            "bufferView" : 8,
            "componentType" : 5123,
            "count" : 540,
            "type" : "SCALAR"
        }
    ],
    "bufferViews" : [
        {
            "buffer" : 0,
            "byteLength" : 180024,
            "byteOffset" : 0
        },
        {
            "buffer" : 0,
            "byteLength" : 180024,
            "byteOffset" : 180024
        },
        {
            "buffer" : 0,
            "byteLength" : 120016,
            "byteOffset" : 360048
        },
        {
            "buffer" : 0,
            "byteLength" : 110928,
            "byteOffset" : 480064
        },
        {
            "buffer" : 0,
            "byteLength" : 3214,
            "byteOffset" : 590992
        },
        {
            "buffer" : 0,
            "byteLength" : 2808,
            "byteOffset" : 594208
        },
        {
            "buffer" : 0,
            "byteLength" : 2808,
            "byteOffset" : 597016
        },
        {
            "buffer" : 0,
            "byteLength" : 1872,
            "byteOffset" : 599824
        },
        {
            "buffer" : 0,
            "byteLength" : 1080,
            "byteOffset" : 601696
        }
    ],
    "samplers" : [
        {
            "magFilter" : 9729,
            "minFilter" : 9987
        }
    ],
    "buffers" : [
        {
            "byteLength" : 602776,
            "uri" : "data:application/octet-stream;base64,"
        }
    ]
}
