{
    "asset" : {
        "copyright" : "Jeremy Edelblut",
        "generator" : "Khronos glTF Blender I/O v1.7.33",
        "version" : "2.0"
    },
    "scene" : 0,
    "scenes" : [
        {
            "name" : "Scene",
            "nodes" : [
                0,
                1,
                2,
                3,
                4,
                5,
                6
            ]
        }
    ],
    "nodes" : [
        {
            "mesh" : 0,
            "name" : "Circle.2379",
            "rotation" : [
                0,
                0.7071068286895752,
                -0.7071068286895752,
                -1.1520232590100932e-07
            ],
            "scale" : [
                0.2253922075033188,
                0.2253922075033188,
                0.2253922075033188
            ],
            "translation" : [
                -0.7156266570091248,
                -0.5544624924659729,
                0
            ]
        },
        {
            "mesh" : 1,
            "name" : "Cube.626",
            "scale" : [
                0.5865182280540466,
                0.5865182280540466,
                0.5865182280540466
            ],
            "translation" : [
                0.1019025519490242,
                -0.0459270253777504,
                0
            ]
        },
        {
            "mesh" : 2,
            "name" : "Cube.627",
            "scale" : [
                1.1730364561080933,
                1.1730364561080933,
                1.1730364561080933
            ],
            "translation" : [
                0.1019025519490242,
                -0.0459270253777504,
                0
            ]
        },
        {
            "mesh" : 3,
            "name" : "Cube.628",
            "scale" : [
                1.1730364561080933,
                1.1730364561080933,
                1.1730364561080933
            ],
            "translation" : [
                0.1019025519490242,
                -0.0459270253777504,
                0
            ]
        },
        {
            "mesh" : 4,
            "name" : "Cube.629",
            "scale" : [
                0.5865182280540466,
                0.5865182280540466,
                0.5865182280540466
            ],
            "translation" : [
                0.1019025519490242,
                -0.0459270253777504,
                0
            ]
        },
        {
            "mesh" : 5,
            "name" : "Cube.631",
            "scale" : [
                0.5865182280540466,
                0.5865182280540466,
                0.5865182280540466
            ],
            "translation" : [
                0.1019025519490242,
                -0.0459270253777504,
                0
            ]
        },
        {
            "mesh" : 6,
            "name" : "Cube.632"
        }
    ],
    "materials" : [
        {
            "doubleSided" : true,
            "name" : "color",
            "pbrMetallicRoughness" : {
                "baseColorTexture" : {
                    "index" : 0
                },
                "metallicFactor" : 0,
                "roughnessFactor" : 0.5
            }
        }
    ],
    "meshes" : [
        {
            "name" : "Circle.2930",
            "primitives" : [
                {
                    "attributes" : {
                        "POSITION" : 0,
                        "NORMAL" : 1,
                        "TEXCOORD_0" : 2
                    },
                    "indices" : 3,
                    "material" : 0
                }
            ]
        },
        {
            "name" : "Cube.7389",
            "primitives" : [
                {
                    "attributes" : {
                        "POSITION" : 4,
                        "NORMAL" : 5,
                        "TEXCOORD_0" : 6
                    },
                    "indices" : 7,
                    "material" : 0
                }
            ]
        },
        {
            "name" : "Cube.7390",
            "primitives" : [
                {
                    "attributes" : {
                        "POSITION" : 8,
                        "NORMAL" : 9,
                        "TEXCOORD_0" : 10
                    },
                    "indices" : 11,
                    "material" : 0
                }
            ]
        },
        {
            "name" : "Cube.7391",
            "primitives" : [
                {
                    "attributes" : {
                        "POSITION" : 12,
                        "NORMAL" : 13,
                        "TEXCOORD_0" : 14
                    },
                    "indices" : 15,
                    "material" : 0
                }
            ]
        },
        {
            "name" : "Cube.7392",
            "primitives" : [
                {
                    "attributes" : {
                        "POSITION" : 16,
                        "NORMAL" : 17,
                        "TEXCOORD_0" : 18
                    },
                    "indices" : 19,
                    "material" : 0
                }
            ]
        },
        {
            "name" : "Cube.7393",
            "primitives" : [
                {
                    "attributes" : {
                        "POSITION" : 20,
                        "NORMAL" : 21,
                        "TEXCOORD_0" : 22
                    },
                    "indices" : 23,
                    "material" : 0
                }
            ]
        },
        {
            "name" : "Cube.7398",
            "primitives" : [
                {
                    "attributes" : {
                        "POSITION" : 24,
                        "NORMAL" : 25,
                        "TEXCOORD_0" : 26
                    },
                    "indices" : 27,
                    "material" : 0
                }
            ]
        }
    ],
    "textures" : [
        {
            "sampler" : 0,
            "source" : 0
        }
    ],
    "images" : [
        {
            "bufferView" : 4,
            "mimeType" : "image/png",
            "name" : "tex"
        }
    ],
    "accessors" : [
        {
            "bufferView" : 0,
            "componentType" : 5126,
            "count" : 2308,
            "max" : [
                -0.01734006404876709,
                2.075194835662842,
                0.25898808240890503
            ],
            "min" : [
                -6.458773612976074,
                -2.0751945972442627,
                -1.4940837621688843
            ],
            "type" : "VEC3"
        },
        {
            "bufferView" : 1,
            "componentType" : 5126,
            "count" : 2308,
            "type" : "VEC3"
        },
        {
            "bufferView" : 2,
            "componentType" : 5126,
            "count" : 2308,
            "type" : "VEC2"
        },
        {
            "bufferView" : 3,
            "componentType" : 5123,
            "count" : 8448,
            "type" : "SCALAR"
        },
        {
            "bufferView" : 5,
            "componentType" : 5126,
            "count" : 1243,
            "max" : [
                1.5372231006622314,
                1.2880282402038574,
                0.9034565091133118
            ],
            "min" : [
                -1.888682246208191,
                -0.7082309722900391,
                -0.9034565091133118
            ],
            "type" : "VEC3"
        },
        {
            "bufferView" : 6,
            "componentType" : 5126,
            "count" : 1243,
            "type" : "VEC3"
        },
        {
            "bufferView" : 7,
            "componentType" : 5126,
            "count" : 1243,
            "type" : "VEC2"
        },
        {
            "bufferView" : 8,
            "componentType" : 5123,
            "count" : 4530,
            "type" : "SCALAR"
        },
        {
            "bufferView" : 9,
            "componentType" : 5126,
            "count" : 80,
            "max" : [
                -0.8601892590522766,
                -0.014300327748060226,
                0.3955036997795105
            ],
            "min" : [
                -0.9554619193077087,
                -0.10957294702529907,
                -0.3955036997795105
            ],
            "type" : "VEC3"
        },
        {
            "bufferView" : 10,
            "componentType" : 5126,
            "count" : 80,
            "type" : "VEC3"
        },
        {
            "bufferView" : 11,
            "componentType" : 5126,
            "count" : 80,
            "type" : "VEC2"
        },
        {
            "bufferView" : 12,
            "componentType" : 5123,
            "count" : 120,
            "type" : "SCALAR"
        },
        {
            "bufferView" : 13,
            "componentType" : 5126,
            "count" : 214,
            "max" : [
                -0.9123539328575134,
                -0.0687323808670044,
                0.19716547429561615
            ],
            "min" : [
                -0.9665008187294006,
                -0.20350950956344604,
                -0.19716547429561615
            ],
            "type" : "VEC3"
        },
        {
            "bufferView" : 14,
            "componentType" : 5126,
            "count" : 214,
            "type" : "VEC3"
        },
        {
            "bufferView" : 15,
            "componentType" : 5126,
            "count" : 214,
            "type" : "VEC2"
        },
        {
            "bufferView" : 16,
            "componentType" : 5123,
            "count" : 402,
            "type" : "SCALAR"
        },
        {
            "bufferView" : 17,
            "componentType" : 5126,
            "count" : 128,
            "max" : [
                1.5397722721099854,
                -0.5944216847419739,
                0.8596438765525818
            ],
            "min" : [
                -1.9221749305725098,
                -0.7463116645812988,
                -0.8596438765525818
            ],
            "type" : "VEC3"
        },
        {
            "bufferView" : 18,
            "componentType" : 5126,
            "count" : 128,
            "type" : "VEC3"
        },
        {
            "bufferView" : 19,
            "componentType" : 5126,
            "count" : 128,
            "type" : "VEC2"
        },
        {
            "bufferView" : 20,
            "componentType" : 5123,
            "count" : 300,
            "type" : "SCALAR"
        },
        {
            "bufferView" : 21,
            "componentType" : 5126,
            "count" : 24,
            "max" : [
                1.5402448177337646,
                -0.01077499520033598,
                0.542898416519165
            ],
            "min" : [
                1.4975923299789429,
                -0.1873154491186142,
                0.200906902551651
            ],
            "type" : "VEC3"
        },
        {
            "bufferView" : 22,
            "componentType" : 5126,
            "count" : 24,
            "type" : "VEC3"
        },
        {
            "bufferView" : 23,
            "componentType" : 5126,
            "count" : 24,
            "type" : "VEC2"
        },
        {
            "bufferView" : 24,
            "componentType" : 5123,
            "count" : 36,
            "type" : "SCALAR"
        },
        {
            "bufferView" : 25,
            "componentType" : 5126,
            "count" : 1026,
            "max" : [
                0.7462519407272339,
                0.7881367206573486,
                0.5379082560539246
            ],
            "min" : [
                -0.35526809096336365,
                0.04457768797874451,
                -0.5379082560539246
            ],
            "type" : "VEC3"
        },
        {
            "bufferView" : 26,
            "componentType" : 5126,
            "count" : 1026,
            "type" : "VEC3"
        },
        {
            "bufferView" : 27,
            "componentType" : 5126,
            "count" : 1026,
            "type" : "VEC2"
        },
        {
            "bufferView" : 28,
            "componentType" : 5123,
            "count" : 3276,
            "type" : "SCALAR"
        }
    ],
    "bufferViews" : [
        {
            "buffer" : 0,
            "byteLength" : 27696,
            "byteOffset" : 0
        },
        {
            "buffer" : 0,
            "byteLength" : 27696,
            "byteOffset" : 27696
        },
        {
            "buffer" : 0,
            "byteLength" : 18464,
            "byteOffset" : 55392
        },
        {
            "buffer" : 0,
            "byteLength" : 16896,
            "byteOffset" : 73856
        },
        {
            "buffer" : 0,
            "byteLength" : 11997,
            "byteOffset" : 90752
        },
        {
            "buffer" : 0,
            "byteLength" : 14916,
            "byteOffset" : 102752
        },
        {
            "buffer" : 0,
            "byteLength" : 14916,
            "byteOffset" : 117668
        },
        {
            "buffer" : 0,
            "byteLength" : 9944,
            "byteOffset" : 132584
        },
        {
            "buffer" : 0,
            "byteLength" : 9060,
            "byteOffset" : 142528
        },
        {
            "buffer" : 0,
            "byteLength" : 960,
            "byteOffset" : 151588
        },
        {
            "buffer" : 0,
            "byteLength" : 960,
            "byteOffset" : 152548
        },
        {
            "buffer" : 0,
            "byteLength" : 640,
            "byteOffset" : 153508
        },
        {
            "buffer" : 0,
            "byteLength" : 240,
            "byteOffset" : 154148
        },
        {
            "buffer" : 0,
            "byteLength" : 2568,
            "byteOffset" : 154388
        },
        {
            "buffer" : 0,
            "byteLength" : 2568,
            "byteOffset" : 156956
        },
        {
            "buffer" : 0,
            "byteLength" : 1712,
            "byteOffset" : 159524
        },
        {
            "buffer" : 0,
            "byteLength" : 804,
            "byteOffset" : 161236
        },
        {
            "buffer" : 0,
            "byteLength" : 1536,
            "byteOffset" : 162040
        },
        {
            "buffer" : 0,
            "byteLength" : 1536,
            "byteOffset" : 163576
        },
        {
            "buffer" : 0,
            "byteLength" : 1024,
            "byteOffset" : 165112
        },
        {
            "buffer" : 0,
            "byteLength" : 600,
            "byteOffset" : 166136
        },
        {
            "buffer" : 0,
            "byteLength" : 288,
            "byteOffset" : 166736
        },
        {
            "buffer" : 0,
            "byteLength" : 288,
            "byteOffset" : 167024
        },
        {
            "buffer" : 0,
            "byteLength" : 192,
            "byteOffset" : 167312
        },
        {
            "buffer" : 0,
            "byteLength" : 72,
            "byteOffset" : 167504
        },
        {
            "buffer" : 0,
            "byteLength" : 12312,
            "byteOffset" : 167576
        },
        {
            "buffer" : 0,
            "byteLength" : 12312,
            "byteOffset" : 179888
        },
        {
            "buffer" : 0,
            "byteLength" : 8208,
            "byteOffset" : 192200
        },
        {
            "buffer" : 0,
            "byteLength" : 6552,
            "byteOffset" : 200408
        }
    ],
    "samplers" : [
        {
            "magFilter" : 9729,
            "minFilter" : 9987
        }
    ],
    "buffers" : [
        {
            "byteLength" : 206960,
            "uri" : "data:application/octet-stream;base64,"
        }
    ]
}
