{
    "asset" : {
        "copyright" : "Jeremy Edelblut",
        "generator" : "Khronos glTF Blender I/O v1.6.16",
        "version" : "2.0"
    },
    "scene" : 0,
    "scenes" : [
        {
            "name" : "Scene",
            "nodes" : [
                0,
                1,
                2,
                3,
                4
            ]
        }
    ],
    "nodes" : [
        {
            "mesh" : 0,
            "name" : "Circle.279",
            "rotation" : [
                0.03521016985177994,
                -0.31900954246520996,
                -0.11248016357421875,
                0.9403942823410034
            ],
            "scale" : [
                0.12282677739858627,
                0.12282678484916687,
                0.12282680720090866
            ]
        },
        {
            "mesh" : 1,
            "name" : "Circle.280",
            "rotation" : [
                0.07363518327474594,
                -0.5605798959732056,
                -0.20967766642570496,
                -0.7977240085601807
            ],
            "scale" : [
                0.12282679975032806,
                0.12282679229974747,
                0.12282679229974747
            ]
        },
        {
            "mesh" : 2,
            "name" : "Circle.281",
            "rotation" : [
                0.13620735704898834,
                -0.9518868327140808,
                -0.062414560467004776,
                -0.26732656359672546
            ],
            "scale" : [
                0.12282679975032806,
                0.12282678484916687,
                0.12282679229974747
            ]
        },
        {
            "mesh" : 3,
            "name" : "Circle.282",
            "rotation" : [
                0,
                -0.7071068286895752,
                0,
                0.7071067094802856
            ]
        },
        {
            "mesh" : 4,
            "name" : "Sphere.024",
            "rotation" : [
                0,
                -0.7071068286895752,
                0,
                0.7071067094802856
            ],
            "scale" : [
                0.5461832284927368,
                0.699999988079071,
                0.699999988079071
            ]
        }
    ],
    "materials" : [
        {
            "doubleSided" : true,
            "name" : "dkblue",
            "pbrMetallicRoughness" : {
                "baseColorFactor" : [
                    0.015741879120469093,
                    0.18322162330150604,
                    0.8000000715255737,
                    1
                ],
                "metallicFactor" : 0,
                "roughnessFactor" : 0.5
            }
        },
        {
            "doubleSided" : true,
            "name" : "Red",
            "pbrMetallicRoughness" : {
                "baseColorFactor" : [
                    0.8000000715255737,
                    0.02731209248304367,
                    0.03797036036849022,
                    1
                ],
                "metallicFactor" : 0,
                "roughnessFactor" : 0.5
            }
        }
    ],
    "meshes" : [
        {
            "name" : "Circle.309",
            "primitives" : [
                {
                    "attributes" : {
                        "POSITION" : 0,
                        "NORMAL" : 1,
                        "TEXCOORD_0" : 2
                    },
                    "indices" : 3,
                    "material" : 0
                }
            ]
        },
        {
            "name" : "Circle.310",
            "primitives" : [
                {
                    "attributes" : {
                        "POSITION" : 4,
                        "NORMAL" : 5,
                        "TEXCOORD_0" : 6
                    },
                    "indices" : 7,
                    "material" : 0
                }
            ]
        },
        {
            "name" : "Circle.311",
            "primitives" : [
                {
                    "attributes" : {
                        "POSITION" : 8,
                        "NORMAL" : 9,
                        "TEXCOORD_0" : 10
                    },
                    "indices" : 11,
                    "material" : 1
                }
            ]
        },
        {
            "name" : "Circle.312",
            "primitives" : [
                {
                    "attributes" : {
                        "POSITION" : 12,
                        "NORMAL" : 13,
                        "TEXCOORD_0" : 14
                    },
                    "indices" : 15,
                    "material" : 0
                }
            ]
        },
        {
            "name" : "Sphere.023",
            "primitives" : [
                {
                    "attributes" : {
                        "POSITION" : 16,
                        "NORMAL" : 17,
                        "TEXCOORD_0" : 18
                    },
                    "indices" : 19,
                    "material" : 1
                }
            ]
        }
    ],
    "accessors" : [
        {
            "bufferView" : 0,
            "componentType" : 5126,
            "count" : 321,
            "max" : [
                2.118128776550293,
                7.785183906555176,
                1.5859639644622803
            ],
            "min" : [
                -3.66416072845459,
                3.2143101692199707,
                -0.7296346426010132
            ],
            "type" : "VEC3"
        },
        {
            "bufferView" : 1,
            "componentType" : 5126,
            "count" : 321,
            "type" : "VEC3"
        },
        {
            "bufferView" : 2,
            "componentType" : 5126,
            "count" : 321,
            "type" : "VEC2"
        },
        {
            "bufferView" : 3,
            "componentType" : 5123,
            "count" : 1488,
            "type" : "SCALAR"
        },
        {
            "bufferView" : 4,
            "componentType" : 5126,
            "count" : 354,
            "max" : [
                2.268787384033203,
                8.410539627075195,
                -1.4314450025558472
            ],
            "min" : [
                -1.249458909034729,
                4.1669721603393555,
                -3.335881233215332
            ],
            "type" : "VEC3"
        },
        {
            "bufferView" : 5,
            "componentType" : 5126,
            "count" : 354,
            "type" : "VEC3"
        },
        {
            "bufferView" : 6,
            "componentType" : 5126,
            "count" : 354,
            "type" : "VEC2"
        },
        {
            "bufferView" : 7,
            "componentType" : 5123,
            "count" : 1440,
            "type" : "SCALAR"
        },
        {
            "bufferView" : 8,
            "componentType" : 5126,
            "count" : 675,
            "max" : [
                0.543637752532959,
                9.126238822937012,
                2.8981051445007324
            ],
            "min" : [
                -2.3025317192077637,
                2.826695442199707,
                -3.1056132316589355
            ],
            "type" : "VEC3"
        },
        {
            "bufferView" : 9,
            "componentType" : 5126,
            "count" : 675,
            "type" : "VEC3"
        },
        {
            "bufferView" : 10,
            "componentType" : 5126,
            "count" : 675,
            "type" : "VEC2"
        },
        {
            "bufferView" : 11,
            "componentType" : 5123,
            "count" : 2928,
            "type" : "SCALAR"
        },
        {
            "bufferView" : 12,
            "componentType" : 5126,
            "count" : 501,
            "max" : [
                0.4828389585018158,
                0.5441732406616211,
                0.6395893096923828
            ],
            "min" : [
                -0.49791771173477173,
                0.14683222770690918,
                -0.46886903047561646
            ],
            "type" : "VEC3"
        },
        {
            "bufferView" : 13,
            "componentType" : 5126,
            "count" : 501,
            "type" : "VEC3"
        },
        {
            "bufferView" : 14,
            "componentType" : 5126,
            "count" : 501,
            "type" : "VEC2"
        },
        {
            "bufferView" : 15,
            "componentType" : 5123,
            "count" : 2736,
            "type" : "SCALAR"
        },
        {
            "bufferView" : 16,
            "componentType" : 5126,
            "count" : 559,
            "max" : [
                0.9823614358901978,
                0.7705523371696472,
                1.133499026298523
            ],
            "min" : [
                -1.0176386833190918,
                -1.3687782287597656,
                -0.8664276599884033
            ],
            "type" : "VEC3"
        },
        {
            "bufferView" : 17,
            "componentType" : 5126,
            "count" : 559,
            "type" : "VEC3"
        },
        {
            "bufferView" : 18,
            "componentType" : 5126,
            "count" : 559,
            "type" : "VEC2"
        },
        {
            "bufferView" : 19,
            "componentType" : 5123,
            "count" : 2880,
            "type" : "SCALAR"
        }
    ],
    "bufferViews" : [
        {
            "buffer" : 0,
            "byteLength" : 3852,
            "byteOffset" : 0
        },
        {
            "buffer" : 0,
            "byteLength" : 3852,
            "byteOffset" : 3852
        },
        {
            "buffer" : 0,
            "byteLength" : 2568,
            "byteOffset" : 7704
        },
        {
            "buffer" : 0,
            "byteLength" : 2976,
            "byteOffset" : 10272
        },
        {
            "buffer" : 0,
            "byteLength" : 4248,
            "byteOffset" : 13248
        },
        {
            "buffer" : 0,
            "byteLength" : 4248,
            "byteOffset" : 17496
        },
        {
            "buffer" : 0,
            "byteLength" : 2832,
            "byteOffset" : 21744
        },
        {
            "buffer" : 0,
            "byteLength" : 2880,
            "byteOffset" : 24576
        },
        {
            "buffer" : 0,
            "byteLength" : 8100,
            "byteOffset" : 27456
        },
        {
            "buffer" : 0,
            "byteLength" : 8100,
            "byteOffset" : 35556
        },
        {
            "buffer" : 0,
            "byteLength" : 5400,
            "byteOffset" : 43656
        },
        {
            "buffer" : 0,
            "byteLength" : 5856,
            "byteOffset" : 49056
        },
        {
            "buffer" : 0,
            "byteLength" : 6012,
            "byteOffset" : 54912
        },
        {
            "buffer" : 0,
            "byteLength" : 6012,
            "byteOffset" : 60924
        },
        {
            "buffer" : 0,
            "byteLength" : 4008,
            "byteOffset" : 66936
        },
        {
            "buffer" : 0,
            "byteLength" : 5472,
            "byteOffset" : 70944
        },
        {
            "buffer" : 0,
            "byteLength" : 6708,
            "byteOffset" : 76416
        },
        {
            "buffer" : 0,
            "byteLength" : 6708,
            "byteOffset" : 83124
        },
        {
            "buffer" : 0,
            "byteLength" : 4472,
            "byteOffset" : 89832
        },
        {
            "buffer" : 0,
            "byteLength" : 5760,
            "byteOffset" : 94304
        }
    ],
    "buffers" : [
        {
            "byteLength" : 100064,
            "uri" : "data:application/octet-stream;base64,"
        }
    ]
}
