{
    "asset" : {
        "copyright" : "Jeremy Edelblut",
        "generator" : "Khronos glTF Blender I/O v1.6.16",
        "version" : "2.0"
    },
    "scene" : 0,
    "scenes" : [
        {
            "name" : "Scene",
            "nodes" : [
                0,
                1,
                2,
                3,
                4,
                5,
                6,
                7,
                8
            ]
        }
    ],
    "nodes" : [
        {
            "mesh" : 0,
            "name" : "Circle.746",
            "rotation" : [
                0.7071068286895752,
                0,
                0,
                0.7071068286895752
            ],
            "scale" : [
                2.706974744796753,
                2.706974744796753,
                2.706974744796753
            ]
        },
        {
            "mesh" : 1,
            "name" : "Circle.747",
            "rotation" : [
                0.7071068286895752,
                0,
                0,
                0.7071068286895752
            ],
            "scale" : [
                2.706974744796753,
                2.706974744796753,
                2.706974744796753
            ]
        },
        {
            "mesh" : 2,
            "name" : "Cylinder.112",
            "rotation" : [
                0,
                -0.7071068286895752,
                0,
                0.7071068286895752
            ],
            "scale" : [
                0.7010374069213867,
                0.7010374069213867,
                0.7010374069213867
            ]
        },
        {
            "mesh" : 3,
            "name" : "Roundcube.135",
            "rotation" : [
                0,
                -0.7071068286895752,
                0,
                0.7071068286895752
            ],
            "scale" : [
                0.7010374069213867,
                0.7010374069213867,
                0.7010374069213867
            ]
        },
        {
            "mesh" : 4,
            "name" : "Circle.748",
            "rotation" : [
                0.7071068286895752,
                0,
                0,
                0.7071068286895752
            ]
        },
        {
            "mesh" : 5,
            "name" : "Cube.1672",
            "rotation" : [
                0.15383964776992798,
                -0.7492061257362366,
                -0.09783472120761871,
                0.636751115322113
            ],
            "scale" : [
                0.10293129086494446,
                0.10293138027191162,
                0.10293129831552505
            ]
        },
        {
            "mesh" : 6,
            "name" : "Sphere.094",
            "rotation" : [
                0,
                -0.7071068286895752,
                0,
                0.7071068286895752
            ],
            "scale" : [
                0.5,
                0.5,
                0.5
            ]
        },
        {
            "mesh" : 7,
            "name" : "Sphere.095",
            "rotation" : [
                0.044558461755514145,
                -0.7057015299797058,
                -0.044558458030223846,
                0.705701470375061
            ],
            "scale" : [
                1.087510347366333,
                1.055832028388977,
                1.087510347366333
            ]
        },
        {
            "mesh" : 8,
            "name" : "Sphere.096",
            "rotation" : [
                -0.13208556175231934,
                -0.6946606636047363,
                0.13208556175231934,
                0.6946606040000916
            ],
            "scale" : [
                1.0350313186645508,
                1.0350313186645508,
                1.0350313186645508
            ]
        }
    ],
    "materials" : [
        {
            "doubleSided" : true,
            "name" : "Color",
            "pbrMetallicRoughness" : {
                "baseColorTexture" : {
                    "index" : 0
                },
                "metallicFactor" : 0,
                "roughnessFactor" : 0.5
            }
        }
    ],
    "meshes" : [
        {
            "name" : "Circle.820",
            "primitives" : [
                {
                    "attributes" : {
                        "POSITION" : 0,
                        "NORMAL" : 1,
                        "TEXCOORD_0" : 2
                    },
                    "indices" : 3,
                    "material" : 0
                }
            ]
        },
        {
            "name" : "Circle.821",
            "primitives" : [
                {
                    "attributes" : {
                        "POSITION" : 4,
                        "NORMAL" : 5,
                        "TEXCOORD_0" : 6
                    },
                    "indices" : 7,
                    "material" : 0
                }
            ]
        },
        {
            "name" : "Cylinder.113",
            "primitives" : [
                {
                    "attributes" : {
                        "POSITION" : 8,
                        "NORMAL" : 9,
                        "TEXCOORD_0" : 10
                    },
                    "indices" : 11,
                    "material" : 0
                }
            ]
        },
        {
            "name" : "Roundcube.135",
            "primitives" : [
                {
                    "attributes" : {
                        "POSITION" : 12,
                        "NORMAL" : 13,
                        "TEXCOORD_0" : 14
                    },
                    "indices" : 15,
                    "material" : 0
                }
            ]
        },
        {
            "name" : "Circle.822",
            "primitives" : [
                {
                    "attributes" : {
                        "POSITION" : 16,
                        "NORMAL" : 17,
                        "TEXCOORD_0" : 18
                    },
                    "indices" : 19,
                    "material" : 0
                }
            ]
        },
        {
            "name" : "Cube.2028",
            "primitives" : [
                {
                    "attributes" : {
                        "POSITION" : 20,
                        "NORMAL" : 21,
                        "TEXCOORD_0" : 22
                    },
                    "indices" : 23,
                    "material" : 0
                }
            ]
        },
        {
            "name" : "Sphere.094",
            "primitives" : [
                {
                    "attributes" : {
                        "POSITION" : 24,
                        "NORMAL" : 25,
                        "TEXCOORD_0" : 26
                    },
                    "indices" : 27,
                    "material" : 0
                }
            ]
        },
        {
            "name" : "Sphere.095",
            "primitives" : [
                {
                    "attributes" : {
                        "POSITION" : 28,
                        "NORMAL" : 29,
                        "TEXCOORD_0" : 30
                    },
                    "indices" : 31,
                    "material" : 0
                }
            ]
        },
        {
            "name" : "Sphere.096",
            "primitives" : [
                {
                    "attributes" : {
                        "POSITION" : 32,
                        "NORMAL" : 33,
                        "TEXCOORD_0" : 34
                    },
                    "indices" : 35,
                    "material" : 0
                }
            ]
        }
    ],
    "textures" : [
        {
            "sampler" : 0,
            "source" : 0
        }
    ],
    "images" : [
        {
            "bufferView" : 4,
            "mimeType" : "image/png",
            "name" : "tex2"
        }
    ],
    "accessors" : [
        {
            "bufferView" : 0,
            "componentType" : 5126,
            "count" : 1448,
            "max" : [
                0.13105370104312897,
                0.2163577377796173,
                -0.026259208098053932
            ],
            "min" : [
                -0.13105370104312897,
                0.1790487915277481,
                -0.11766227334737778
            ],
            "type" : "VEC3"
        },
        {
            "bufferView" : 1,
            "componentType" : 5126,
            "count" : 1448,
            "type" : "VEC3"
        },
        {
            "bufferView" : 2,
            "componentType" : 5126,
            "count" : 1448,
            "type" : "VEC2"
        },
        {
            "bufferView" : 3,
            "componentType" : 5123,
            "count" : 6912,
            "type" : "SCALAR"
        },
        {
            "bufferView" : 5,
            "componentType" : 5126,
            "count" : 422,
            "max" : [
                0.025262437760829926,
                0.22202681005001068,
                0.007146526128053665
            ],
            "min" : [
                -0.02451690286397934,
                0.20889705419540405,
                -0.022025583311915398
            ],
            "type" : "VEC3"
        },
        {
            "bufferView" : 6,
            "componentType" : 5126,
            "count" : 422,
            "type" : "VEC3"
        },
        {
            "bufferView" : 7,
            "componentType" : 5126,
            "count" : 422,
            "type" : "VEC2"
        },
        {
            "bufferView" : 8,
            "componentType" : 5123,
            "count" : 1824,
            "type" : "SCALAR"
        },
        {
            "bufferView" : 9,
            "componentType" : 5126,
            "count" : 2402,
            "max" : [
                -0.14859741926193237,
                0.5575903654098511,
                1.2573885917663574
            ],
            "min" : [
                -0.5303949117660522,
                -0.09217178821563721,
                -1.257388710975647
            ],
            "type" : "VEC3"
        },
        {
            "bufferView" : 10,
            "componentType" : 5126,
            "count" : 2402,
            "type" : "VEC3"
        },
        {
            "bufferView" : 11,
            "componentType" : 5126,
            "count" : 2402,
            "type" : "VEC2"
        },
        {
            "bufferView" : 12,
            "componentType" : 5123,
            "count" : 11520,
            "type" : "SCALAR"
        },
        {
            "bufferView" : 13,
            "componentType" : 5126,
            "count" : 2010,
            "max" : [
                0.8239538669586182,
                1.2452303171157837,
                1.0290236473083496
            ],
            "min" : [
                -1.3394240140914917,
                -2.0029914379119873,
                -1.0156068801879883
            ],
            "type" : "VEC3"
        },
        {
            "bufferView" : 14,
            "componentType" : 5126,
            "count" : 2010,
            "type" : "VEC3"
        },
        {
            "bufferView" : 15,
            "componentType" : 5126,
            "count" : 2010,
            "type" : "VEC2"
        },
        {
            "bufferView" : 16,
            "componentType" : 5123,
            "count" : 7980,
            "type" : "SCALAR"
        },
        {
            "bufferView" : 17,
            "componentType" : 5126,
            "count" : 332,
            "max" : [
                0.41679543256759644,
                0.5354499816894531,
                -0.31042084097862244
            ],
            "min" : [
                -0.41679543256759644,
                0.41046303510665894,
                -0.4609616696834564
            ],
            "type" : "VEC3"
        },
        {
            "bufferView" : 18,
            "componentType" : 5126,
            "count" : 332,
            "type" : "VEC3"
        },
        {
            "bufferView" : 19,
            "componentType" : 5126,
            "count" : 332,
            "type" : "VEC2"
        },
        {
            "bufferView" : 20,
            "componentType" : 5123,
            "count" : 1152,
            "type" : "SCALAR"
        },
        {
            "bufferView" : 21,
            "componentType" : 5126,
            "count" : 1312,
            "max" : [
                5.014802932739258,
                10.377996444702148,
                7.861618995666504
            ],
            "min" : [
                -10.800312042236328,
                -2.503880500793457,
                -7.311230659484863
            ],
            "type" : "VEC3"
        },
        {
            "bufferView" : 22,
            "componentType" : 5126,
            "count" : 1312,
            "type" : "VEC3"
        },
        {
            "bufferView" : 23,
            "componentType" : 5126,
            "count" : 1312,
            "type" : "VEC2"
        },
        {
            "bufferView" : 24,
            "componentType" : 5123,
            "count" : 3132,
            "type" : "SCALAR"
        },
        {
            "bufferView" : 25,
            "componentType" : 5126,
            "count" : 1376,
            "max" : [
                0.2955232858657837,
                -0.6022806167602539,
                1.5000004768371582
            ],
            "min" : [
                -2.7257702350616455,
                -2.8067424297332764,
                -1.5000004768371582
            ],
            "type" : "VEC3"
        },
        {
            "bufferView" : 26,
            "componentType" : 5126,
            "count" : 1376,
            "type" : "VEC3"
        },
        {
            "bufferView" : 27,
            "componentType" : 5126,
            "count" : 1376,
            "type" : "VEC2"
        },
        {
            "bufferView" : 28,
            "componentType" : 5123,
            "count" : 4806,
            "type" : "SCALAR"
        },
        {
            "bufferView" : 29,
            "componentType" : 5126,
            "count" : 524,
            "max" : [
                0.4209318161010742,
                0.41116294264793396,
                0.9441415667533875
            ],
            "min" : [
                -1.286175012588501,
                -0.7839274406433105,
                -0.9390567541122437
            ],
            "type" : "VEC3"
        },
        {
            "bufferView" : 30,
            "componentType" : 5126,
            "count" : 524,
            "type" : "VEC3"
        },
        {
            "bufferView" : 31,
            "componentType" : 5126,
            "count" : 524,
            "type" : "VEC2"
        },
        {
            "bufferView" : 32,
            "componentType" : 5123,
            "count" : 2676,
            "type" : "SCALAR"
        },
        {
            "bufferView" : 33,
            "componentType" : 5126,
            "count" : 578,
            "max" : [
                -0.166115403175354,
                1.3520020246505737,
                1.0000003576278687
            ],
            "min" : [
                -1.1670951843261719,
                -0.6479979753494263,
                -0.9999999403953552
            ],
            "type" : "VEC3"
        },
        {
            "bufferView" : 34,
            "componentType" : 5126,
            "count" : 578,
            "type" : "VEC3"
        },
        {
            "bufferView" : 35,
            "componentType" : 5126,
            "count" : 578,
            "type" : "VEC2"
        },
        {
            "bufferView" : 36,
            "componentType" : 5123,
            "count" : 3072,
            "type" : "SCALAR"
        }
    ],
    "bufferViews" : [
        {
            "buffer" : 0,
            "byteLength" : 17376,
            "byteOffset" : 0
        },
        {
            "buffer" : 0,
            "byteLength" : 17376,
            "byteOffset" : 17376
        },
        {
            "buffer" : 0,
            "byteLength" : 11584,
            "byteOffset" : 34752
        },
        {
            "buffer" : 0,
            "byteLength" : 13824,
            "byteOffset" : 46336
        },
        {
            "buffer" : 0,
            "byteLength" : 6474,
            "byteOffset" : 60160
        },
        {
            "buffer" : 0,
            "byteLength" : 5064,
            "byteOffset" : 66636
        },
        {
            "buffer" : 0,
            "byteLength" : 5064,
            "byteOffset" : 71700
        },
        {
            "buffer" : 0,
            "byteLength" : 3376,
            "byteOffset" : 76764
        },
        {
            "buffer" : 0,
            "byteLength" : 3648,
            "byteOffset" : 80140
        },
        {
            "buffer" : 0,
            "byteLength" : 28824,
            "byteOffset" : 83788
        },
        {
            "buffer" : 0,
            "byteLength" : 28824,
            "byteOffset" : 112612
        },
        {
            "buffer" : 0,
            "byteLength" : 19216,
            "byteOffset" : 141436
        },
        {
            "buffer" : 0,
            "byteLength" : 23040,
            "byteOffset" : 160652
        },
        {
            "buffer" : 0,
            "byteLength" : 24120,
            "byteOffset" : 183692
        },
        {
            "buffer" : 0,
            "byteLength" : 24120,
            "byteOffset" : 207812
        },
        {
            "buffer" : 0,
            "byteLength" : 16080,
            "byteOffset" : 231932
        },
        {
            "buffer" : 0,
            "byteLength" : 15960,
            "byteOffset" : 248012
        },
        {
            "buffer" : 0,
            "byteLength" : 3984,
            "byteOffset" : 263972
        },
        {
            "buffer" : 0,
            "byteLength" : 3984,
            "byteOffset" : 267956
        },
        {
            "buffer" : 0,
            "byteLength" : 2656,
            "byteOffset" : 271940
        },
        {
            "buffer" : 0,
            "byteLength" : 2304,
            "byteOffset" : 274596
        },
        {
            "buffer" : 0,
            "byteLength" : 15744,
            "byteOffset" : 276900
        },
        {
            "buffer" : 0,
            "byteLength" : 15744,
            "byteOffset" : 292644
        },
        {
            "buffer" : 0,
            "byteLength" : 10496,
            "byteOffset" : 308388
        },
        {
            "buffer" : 0,
            "byteLength" : 6264,
            "byteOffset" : 318884
        },
        {
            "buffer" : 0,
            "byteLength" : 16512,
            "byteOffset" : 325148
        },
        {
            "buffer" : 0,
            "byteLength" : 16512,
            "byteOffset" : 341660
        },
        {
            "buffer" : 0,
            "byteLength" : 11008,
            "byteOffset" : 358172
        },
        {
            "buffer" : 0,
            "byteLength" : 9612,
            "byteOffset" : 369180
        },
        {
            "buffer" : 0,
            "byteLength" : 6288,
            "byteOffset" : 378792
        },
        {
            "buffer" : 0,
            "byteLength" : 6288,
            "byteOffset" : 385080
        },
        {
            "buffer" : 0,
            "byteLength" : 4192,
            "byteOffset" : 391368
        },
        {
            "buffer" : 0,
            "byteLength" : 5352,
            "byteOffset" : 395560
        },
        {
            "buffer" : 0,
            "byteLength" : 6936,
            "byteOffset" : 400912
        },
        {
            "buffer" : 0,
            "byteLength" : 6936,
            "byteOffset" : 407848
        },
        {
            "buffer" : 0,
            "byteLength" : 4624,
            "byteOffset" : 414784
        },
        {
            "buffer" : 0,
            "byteLength" : 6144,
            "byteOffset" : 419408
        }
    ],
    "samplers" : [
        {
            "magFilter" : 9729,
            "minFilter" : 9987
        }
    ],
    "buffers" : [
        {
            "byteLength" : 425552,
            "uri" : "data:application/octet-stream;base64,"
        }
    ]
}
