{
    "asset" : {
        "copyright" : "Jeremy Edelblut",
        "generator" : "Khronos glTF Blender I/O v1.6.16",
        "version" : "2.0"
    },
    "scene" : 0,
    "scenes" : [
        {
            "name" : "Scene",
            "nodes" : [
                0,
                1,
                2,
                3,
                4,
                5,
                6,
                7
            ]
        }
    ],
    "nodes" : [
        {
            "mesh" : 0,
            "name" : "Circle.288",
            "rotation" : [
                0.5796940326690674,
                -0.40491336584091187,
                -0.5796940326690674,
                0.40491336584091187
            ],
            "scale" : [
                0.14185146987438202,
                0.14185146987438202,
                0.14185142517089844
            ]
        },
        {
            "mesh" : 1,
            "name" : "Circle.289",
            "rotation" : [
                0.5796940326690674,
                -0.40491336584091187,
                -0.5796940326690674,
                0.40491336584091187
            ],
            "scale" : [
                0.14185146987438202,
                0.14185146987438202,
                0.14185142517089844
            ]
        },
        {
            "mesh" : 2,
            "name" : "Circle.290",
            "rotation" : [
                0.7071068286895752,
                0,
                0,
                0.7071068286895752
            ],
            "scale" : [
                2.706974744796753,
                2.706974744796753,
                2.706974744796753
            ]
        },
        {
            "mesh" : 3,
            "name" : "Circle.291",
            "rotation" : [
                0.7071068286895752,
                0,
                0,
                0.7071068286895752
            ],
            "scale" : [
                2.706974744796753,
                2.706974744796753,
                2.706974744796753
            ]
        },
        {
            "mesh" : 4,
            "name" : "Cube.108",
            "rotation" : [
                0.294895201921463,
                -0.886093020439148,
                0.015259445644915104,
                0.35727211833000183
            ],
            "scale" : [
                0.05593430623412132,
                0.05593433231115341,
                0.055934302508831024
            ]
        },
        {
            "mesh" : 5,
            "name" : "ears.002",
            "rotation" : [
                0,
                -0.7071068286895752,
                0,
                0.7071068286895752
            ],
            "scale" : [
                0.7010374069213867,
                0.7010374069213867,
                0.7010374069213867
            ]
        },
        {
            "mesh" : 6,
            "name" : "Roundcube.002",
            "rotation" : [
                0,
                -0.7071068286895752,
                0,
                0.7071068286895752
            ],
            "scale" : [
                0.7010374069213867,
                0.7010374069213867,
                0.7010374069213867
            ]
        },
        {
            "mesh" : 7,
            "name" : "3moji.org.050",
            "rotation" : [
                0.4354664385318756,
                0.5571070909500122,
                -0.435466468334198,
                -0.5571082830429077
            ],
            "scale" : [
                0.0025128868874162436,
                0.0025128868874162436,
                -0.002512887120246887
            ],
            "translation" : [
                0,
                -0.7691460251808167,
                -0.3967830538749695
            ]
        }
    ],
    "materials" : [
        {
            "doubleSided" : true,
            "name" : "Color",
            "pbrMetallicRoughness" : {
                "baseColorTexture" : {
                    "index" : 0
                },
                "metallicFactor" : 0,
                "roughnessFactor" : 0.5
            }
        }
    ],
    "meshes" : [
        {
            "name" : "Circle.318",
            "primitives" : [
                {
                    "attributes" : {
                        "POSITION" : 0,
                        "NORMAL" : 1,
                        "TEXCOORD_0" : 2
                    },
                    "indices" : 3,
                    "material" : 0
                }
            ]
        },
        {
            "name" : "Circle.319",
            "primitives" : [
                {
                    "attributes" : {
                        "POSITION" : 4,
                        "NORMAL" : 5,
                        "TEXCOORD_0" : 6
                    },
                    "indices" : 7
                }
            ]
        },
        {
            "name" : "Circle.320",
            "primitives" : [
                {
                    "attributes" : {
                        "POSITION" : 8,
                        "NORMAL" : 9,
                        "TEXCOORD_0" : 10
                    },
                    "indices" : 11,
                    "material" : 0
                }
            ]
        },
        {
            "name" : "Circle.321",
            "primitives" : [
                {
                    "attributes" : {
                        "POSITION" : 12,
                        "NORMAL" : 13,
                        "TEXCOORD_0" : 14
                    },
                    "indices" : 15,
                    "material" : 0
                }
            ]
        },
        {
            "name" : "Cube.224",
            "primitives" : [
                {
                    "attributes" : {
                        "POSITION" : 16,
                        "NORMAL" : 17,
                        "TEXCOORD_0" : 18
                    },
                    "indices" : 19,
                    "material" : 0
                }
            ]
        },
        {
            "name" : "Cylinder.011",
            "primitives" : [
                {
                    "attributes" : {
                        "POSITION" : 20,
                        "NORMAL" : 21,
                        "TEXCOORD_0" : 22
                    },
                    "indices" : 23,
                    "material" : 0
                }
            ]
        },
        {
            "name" : "Roundcube.001",
            "primitives" : [
                {
                    "attributes" : {
                        "POSITION" : 24,
                        "NORMAL" : 25,
                        "TEXCOORD_0" : 26
                    },
                    "indices" : 27,
                    "material" : 0
                }
            ]
        },
        {
            "name" : "Cube.357",
            "primitives" : [
                {
                    "attributes" : {
                        "POSITION" : 28,
                        "NORMAL" : 29,
                        "TEXCOORD_0" : 30
                    },
                    "indices" : 31,
                    "material" : 0
                }
            ]
        }
    ],
    "textures" : [
        {
            "sampler" : 0,
            "source" : 0
        }
    ],
    "images" : [
        {
            "bufferView" : 4,
            "mimeType" : "image/png",
            "name" : "tex2"
        }
    ],
    "accessors" : [
        {
            "bufferView" : 0,
            "componentType" : 5126,
            "count" : 192,
            "max" : [
                1.7134839296340942,
                4.871566295623779,
                1.0538663864135742
            ],
            "min" : [
                0.059328436851501465,
                4.25633430480957,
                -0.9875600337982178
            ],
            "type" : "VEC3"
        },
        {
            "bufferView" : 1,
            "componentType" : 5126,
            "count" : 192,
            "type" : "VEC3"
        },
        {
            "bufferView" : 2,
            "componentType" : 5126,
            "count" : 192,
            "type" : "VEC2"
        },
        {
            "bufferView" : 3,
            "componentType" : 5123,
            "count" : 660,
            "type" : "SCALAR"
        },
        {
            "bufferView" : 5,
            "componentType" : 5126,
            "count" : 512,
            "max" : [
                1.686734914779663,
                5.298975467681885,
                0.7447608113288879
            ],
            "min" : [
                0.7532135844230652,
                4.526523113250732,
                -0.6830693483352661
            ],
            "type" : "VEC3"
        },
        {
            "bufferView" : 6,
            "componentType" : 5126,
            "count" : 512,
            "type" : "VEC3"
        },
        {
            "bufferView" : 7,
            "componentType" : 5126,
            "count" : 512,
            "type" : "VEC2"
        },
        {
            "bufferView" : 8,
            "componentType" : 5123,
            "count" : 1536,
            "type" : "SCALAR"
        },
        {
            "bufferView" : 9,
            "componentType" : 5126,
            "count" : 452,
            "max" : [
                0.13130351901054382,
                0.2164182811975479,
                0.03634754195809364
            ],
            "min" : [
                -0.13130351901054382,
                0.17896683514118195,
                -0.055240701884031296
            ],
            "type" : "VEC3"
        },
        {
            "bufferView" : 10,
            "componentType" : 5126,
            "count" : 452,
            "type" : "VEC3"
        },
        {
            "bufferView" : 11,
            "componentType" : 5126,
            "count" : 452,
            "type" : "VEC2"
        },
        {
            "bufferView" : 12,
            "componentType" : 5123,
            "count" : 1920,
            "type" : "SCALAR"
        },
        {
            "bufferView" : 13,
            "componentType" : 5126,
            "count" : 426,
            "max" : [
                0.025262437760829926,
                0.22202681005001068,
                0.06963935494422913
            ],
            "min" : [
                -0.02451690286397934,
                0.20889705419540405,
                0.040467239916324615
            ],
            "type" : "VEC3"
        },
        {
            "bufferView" : 14,
            "componentType" : 5126,
            "count" : 426,
            "type" : "VEC3"
        },
        {
            "bufferView" : 15,
            "componentType" : 5126,
            "count" : 426,
            "type" : "VEC2"
        },
        {
            "bufferView" : 16,
            "componentType" : 5123,
            "count" : 1824,
            "type" : "SCALAR"
        },
        {
            "bufferView" : 17,
            "componentType" : 5126,
            "count" : 90,
            "max" : [
                0.3684420585632324,
                10.16581916809082,
                -2.5052361488342285
            ],
            "min" : [
                -8.040947914123535,
                7.151625633239746,
                -10.014253616333008
            ],
            "type" : "VEC3"
        },
        {
            "bufferView" : 18,
            "componentType" : 5126,
            "count" : 90,
            "type" : "VEC3"
        },
        {
            "bufferView" : 19,
            "componentType" : 5126,
            "count" : 90,
            "type" : "VEC2"
        },
        {
            "bufferView" : 20,
            "componentType" : 5123,
            "count" : 240,
            "type" : "SCALAR"
        },
        {
            "bufferView" : 21,
            "componentType" : 5126,
            "count" : 1092,
            "max" : [
                -0.15159989893436432,
                0.31007927656173706,
                1.2522509098052979
            ],
            "min" : [
                -0.527228593826294,
                -0.32727834582328796,
                -1.2522509098052979
            ],
            "type" : "VEC3"
        },
        {
            "bufferView" : 22,
            "componentType" : 5126,
            "count" : 1092,
            "type" : "VEC3"
        },
        {
            "bufferView" : 23,
            "componentType" : 5126,
            "count" : 1092,
            "type" : "VEC2"
        },
        {
            "bufferView" : 24,
            "componentType" : 5123,
            "count" : 4992,
            "type" : "SCALAR"
        },
        {
            "bufferView" : 25,
            "componentType" : 5126,
            "count" : 1007,
            "max" : [
                0.8239539265632629,
                1.0039212703704834,
                1.0290236473083496
            ],
            "min" : [
                -1.3394240140914917,
                -1.1708652973175049,
                -1.0156068801879883
            ],
            "type" : "VEC3"
        },
        {
            "bufferView" : 26,
            "componentType" : 5126,
            "count" : 1007,
            "type" : "VEC3"
        },
        {
            "bufferView" : 27,
            "componentType" : 5126,
            "count" : 1007,
            "type" : "VEC2"
        },
        {
            "bufferView" : 28,
            "componentType" : 5123,
            "count" : 5712,
            "type" : "SCALAR"
        },
        {
            "bufferView" : 29,
            "componentType" : 5126,
            "count" : 752,
            "max" : [
                1.2953357696533203,
                7.90000057220459,
                17.240537643432617
            ],
            "min" : [
                2.8697024390567094e-05,
                -1.8999989032745361,
                -19.159460067749023
            ],
            "type" : "VEC3"
        },
        {
            "bufferView" : 30,
            "componentType" : 5126,
            "count" : 752,
            "type" : "VEC3"
        },
        {
            "bufferView" : 31,
            "componentType" : 5126,
            "count" : 752,
            "type" : "VEC2"
        },
        {
            "bufferView" : 32,
            "componentType" : 5123,
            "count" : 1680,
            "type" : "SCALAR"
        }
    ],
    "bufferViews" : [
        {
            "buffer" : 0,
            "byteLength" : 2304,
            "byteOffset" : 0
        },
        {
            "buffer" : 0,
            "byteLength" : 2304,
            "byteOffset" : 2304
        },
        {
            "buffer" : 0,
            "byteLength" : 1536,
            "byteOffset" : 4608
        },
        {
            "buffer" : 0,
            "byteLength" : 1320,
            "byteOffset" : 6144
        },
        {
            "buffer" : 0,
            "byteLength" : 6474,
            "byteOffset" : 7464
        },
        {
            "buffer" : 0,
            "byteLength" : 6144,
            "byteOffset" : 13940
        },
        {
            "buffer" : 0,
            "byteLength" : 6144,
            "byteOffset" : 20084
        },
        {
            "buffer" : 0,
            "byteLength" : 4096,
            "byteOffset" : 26228
        },
        {
            "buffer" : 0,
            "byteLength" : 3072,
            "byteOffset" : 30324
        },
        {
            "buffer" : 0,
            "byteLength" : 5424,
            "byteOffset" : 33396
        },
        {
            "buffer" : 0,
            "byteLength" : 5424,
            "byteOffset" : 38820
        },
        {
            "buffer" : 0,
            "byteLength" : 3616,
            "byteOffset" : 44244
        },
        {
            "buffer" : 0,
            "byteLength" : 3840,
            "byteOffset" : 47860
        },
        {
            "buffer" : 0,
            "byteLength" : 5112,
            "byteOffset" : 51700
        },
        {
            "buffer" : 0,
            "byteLength" : 5112,
            "byteOffset" : 56812
        },
        {
            "buffer" : 0,
            "byteLength" : 3408,
            "byteOffset" : 61924
        },
        {
            "buffer" : 0,
            "byteLength" : 3648,
            "byteOffset" : 65332
        },
        {
            "buffer" : 0,
            "byteLength" : 1080,
            "byteOffset" : 68980
        },
        {
            "buffer" : 0,
            "byteLength" : 1080,
            "byteOffset" : 70060
        },
        {
            "buffer" : 0,
            "byteLength" : 720,
            "byteOffset" : 71140
        },
        {
            "buffer" : 0,
            "byteLength" : 480,
            "byteOffset" : 71860
        },
        {
            "buffer" : 0,
            "byteLength" : 13104,
            "byteOffset" : 72340
        },
        {
            "buffer" : 0,
            "byteLength" : 13104,
            "byteOffset" : 85444
        },
        {
            "buffer" : 0,
            "byteLength" : 8736,
            "byteOffset" : 98548
        },
        {
            "buffer" : 0,
            "byteLength" : 9984,
            "byteOffset" : 107284
        },
        {
            "buffer" : 0,
            "byteLength" : 12084,
            "byteOffset" : 117268
        },
        {
            "buffer" : 0,
            "byteLength" : 12084,
            "byteOffset" : 129352
        },
        {
            "buffer" : 0,
            "byteLength" : 8056,
            "byteOffset" : 141436
        },
        {
            "buffer" : 0,
            "byteLength" : 11424,
            "byteOffset" : 149492
        },
        {
            "buffer" : 0,
            "byteLength" : 9024,
            "byteOffset" : 160916
        },
        {
            "buffer" : 0,
            "byteLength" : 9024,
            "byteOffset" : 169940
        },
        {
            "buffer" : 0,
            "byteLength" : 6016,
            "byteOffset" : 178964
        },
        {
            "buffer" : 0,
            "byteLength" : 3360,
            "byteOffset" : 184980
        }
    ],
    "samplers" : [
        {
            "magFilter" : 9729,
            "minFilter" : 9987
        }
    ],
    "buffers" : [
        {
            "byteLength" : 188340,
            "uri" : "data:application/octet-stream;base64,"
        }
    ]
}
