{
    "asset" : {
        "copyright" : "Jeremy Edelblut",
        "generator" : "Khronos glTF Blender I/O v1.6.16",
        "version" : "2.0"
    },
    "scene" : 0,
    "scenes" : [
        {
            "name" : "Scene",
            "nodes" : [
                0,
                1,
                2,
                3,
                4,
                5,
                6,
                7
            ]
        }
    ],
    "nodes" : [
        {
            "mesh" : 0,
            "name" : "Circle.927",
            "rotation" : [
                0.7071068286895752,
                0,
                0,
                0.7071068286895752
            ],
            "scale" : [
                2.706974744796753,
                2.706974744796753,
                2.706974744796753
            ]
        },
        {
            "mesh" : 1,
            "name" : "Circle.928",
            "rotation" : [
                0.7071068286895752,
                0,
                0,
                0.7071068286895752
            ],
            "scale" : [
                2.706974744796753,
                2.706974744796753,
                2.706974744796753
            ]
        },
        {
            "mesh" : 2,
            "name" : "Cube.2268",
            "rotation" : [
                0.294895201921463,
                -0.886093020439148,
                0.015259445644915104,
                0.35727211833000183
            ],
            "scale" : [
                0.05593430623412132,
                0.05593433231115341,
                0.055934302508831024
            ]
        },
        {
            "mesh" : 3,
            "name" : "Cylinder.170",
            "rotation" : [
                0,
                -0.7071068286895752,
                0,
                0.7071068286895752
            ],
            "scale" : [
                0.7010374069213867,
                0.7010374069213867,
                0.7010374069213867
            ]
        },
        {
            "mesh" : 4,
            "name" : "Roundcube.191",
            "rotation" : [
                0,
                -0.7071068286895752,
                0,
                0.7071068286895752
            ],
            "scale" : [
                0.7010374069213867,
                0.7010374069213867,
                0.7010374069213867
            ]
        },
        {
            "mesh" : 5,
            "name" : "Circle.925",
            "rotation" : [
                0.7071068286895752,
                0,
                0,
                0.7071068286895752
            ]
        },
        {
            "mesh" : 6,
            "name" : "Circle.926",
            "rotation" : [
                -0.12528638541698456,
                -0.6959190964698792,
                0.12528638541698456,
                0.6959190964698792
            ],
            "scale" : [
                0.8799668550491333,
                0.8799668550491333,
                0.8799668550491333
            ]
        },
        {
            "mesh" : 7,
            "name" : "Cube.2269",
            "rotation" : [
                0,
                -0.7071068286895752,
                0,
                0.7071068286895752
            ],
            "scale" : [
                0.7018750905990601,
                0.7018750905990601,
                0.7018750905990601
            ]
        }
    ],
    "materials" : [
        {
            "doubleSided" : true,
            "name" : "DKBrown",
            "pbrMetallicRoughness" : {
                "baseColorFactor" : [
                    0.010021701455116272,
                    0.0023923655971884727,
                    0.0018060366855934262,
                    1
                ],
                "metallicFactor" : 0,
                "roughnessFactor" : 0.5
            }
        },
        {
            "doubleSided" : true,
            "name" : "Light_Brown",
            "pbrMetallicRoughness" : {
                "baseColorFactor" : [
                    0.3613067865371704,
                    0.15896087884902954,
                    0.013702086172997952,
                    1
                ],
                "metallicFactor" : 0,
                "roughnessFactor" : 0.5
            }
        },
        {
            "doubleSided" : true,
            "name" : "Brown",
            "pbrMetallicRoughness" : {
                "baseColorFactor" : [
                    0.07322511821985245,
                    0.02384052984416485,
                    0.021921303123235703,
                    1
                ],
                "metallicFactor" : 0,
                "roughnessFactor" : 0.5
            }
        },
        {
            "doubleSided" : true,
            "name" : "Yellow_body",
            "pbrMetallicRoughness" : {
                "baseColorTexture" : {
                    "index" : 0
                },
                "metallicFactor" : 0,
                "roughnessFactor" : 0.5
            }
        },
        {
            "doubleSided" : true,
            "name" : "Blue_body",
            "pbrMetallicRoughness" : {
                "baseColorTexture" : {
                    "index" : 1
                },
                "metallicFactor" : 0,
                "roughnessFactor" : 0.5
            }
        }
    ],
    "meshes" : [
        {
            "name" : "Circle.1024",
            "primitives" : [
                {
                    "attributes" : {
                        "POSITION" : 0,
                        "NORMAL" : 1,
                        "TEXCOORD_0" : 2
                    },
                    "indices" : 3,
                    "material" : 0
                }
            ]
        },
        {
            "name" : "Circle.1025",
            "primitives" : [
                {
                    "attributes" : {
                        "POSITION" : 4,
                        "NORMAL" : 5,
                        "TEXCOORD_0" : 6
                    },
                    "indices" : 7,
                    "material" : 1
                }
            ]
        },
        {
            "name" : "Cube.2725",
            "primitives" : [
                {
                    "attributes" : {
                        "POSITION" : 8,
                        "NORMAL" : 9
                    },
                    "indices" : 10,
                    "material" : 2
                }
            ]
        },
        {
            "name" : "Cylinder.178",
            "primitives" : [
                {
                    "attributes" : {
                        "POSITION" : 11,
                        "NORMAL" : 12
                    },
                    "indices" : 13,
                    "material" : 3
                }
            ]
        },
        {
            "name" : "Roundcube.196",
            "primitives" : [
                {
                    "attributes" : {
                        "POSITION" : 14,
                        "NORMAL" : 15,
                        "TEXCOORD_0" : 16
                    },
                    "indices" : 17,
                    "material" : 3
                },
                {
                    "attributes" : {
                        "POSITION" : 18,
                        "NORMAL" : 19,
                        "TEXCOORD_0" : 20
                    },
                    "indices" : 21,
                    "material" : 0
                }
            ]
        },
        {
            "name" : "Circle.1026",
            "primitives" : [
                {
                    "attributes" : {
                        "POSITION" : 22,
                        "NORMAL" : 23,
                        "TEXCOORD_0" : 24
                    },
                    "indices" : 25,
                    "material" : 2
                }
            ]
        },
        {
            "name" : "Circle.1028",
            "primitives" : [
                {
                    "attributes" : {
                        "POSITION" : 26,
                        "NORMAL" : 27,
                        "TEXCOORD_0" : 28
                    },
                    "indices" : 29,
                    "material" : 4
                }
            ]
        },
        {
            "name" : "Cube.2726",
            "primitives" : [
                {
                    "attributes" : {
                        "POSITION" : 30,
                        "NORMAL" : 31,
                        "TEXCOORD_0" : 32
                    },
                    "indices" : 33
                }
            ]
        }
    ],
    "textures" : [
        {
            "sampler" : 0,
            "source" : 0
        },
        {
            "sampler" : 0,
            "source" : 1
        }
    ],
    "images" : [
        {
            "bufferView" : 14,
            "mimeType" : "image/png",
            "name" : "Rectangle 863"
        },
        {
            "bufferView" : 31,
            "mimeType" : "image/png",
            "name" : "Rectangle 4"
        }
    ],
    "accessors" : [
        {
            "bufferView" : 0,
            "componentType" : 5126,
            "count" : 1476,
            "max" : [
                0.13105370104312897,
                0.21635772287845612,
                0.010682414285838604
            ],
            "min" : [
                -0.13105370104312897,
                0.17904886603355408,
                -0.08072065562009811
            ],
            "type" : "VEC3"
        },
        {
            "bufferView" : 1,
            "componentType" : 5126,
            "count" : 1476,
            "type" : "VEC3"
        },
        {
            "bufferView" : 2,
            "componentType" : 5126,
            "count" : 1476,
            "type" : "VEC2"
        },
        {
            "bufferView" : 3,
            "componentType" : 5123,
            "count" : 6912,
            "type" : "SCALAR"
        },
        {
            "bufferView" : 4,
            "componentType" : 5126,
            "count" : 442,
            "max" : [
                0.025262437760829926,
                0.22202681005001068,
                0.044088151305913925
            ],
            "min" : [
                -0.02451690286397934,
                0.20889708399772644,
                0.014916039071977139
            ],
            "type" : "VEC3"
        },
        {
            "bufferView" : 5,
            "componentType" : 5126,
            "count" : 442,
            "type" : "VEC3"
        },
        {
            "bufferView" : 6,
            "componentType" : 5126,
            "count" : 442,
            "type" : "VEC2"
        },
        {
            "bufferView" : 7,
            "componentType" : 5123,
            "count" : 1824,
            "type" : "SCALAR"
        },
        {
            "bufferView" : 8,
            "componentType" : 5126,
            "count" : 90,
            "max" : [
                -0.2643163204193115,
                11.186738967895508,
                -2.7992401123046875
            ],
            "min" : [
                -8.6737060546875,
                8.172545433044434,
                -10.308258056640625
            ],
            "type" : "VEC3"
        },
        {
            "bufferView" : 9,
            "componentType" : 5126,
            "count" : 90,
            "type" : "VEC3"
        },
        {
            "bufferView" : 10,
            "componentType" : 5123,
            "count" : 240,
            "type" : "SCALAR"
        },
        {
            "bufferView" : 11,
            "componentType" : 5126,
            "count" : 1924,
            "max" : [
                -0.14859741926193237,
                0.41494449973106384,
                1.2573885917663574
            ],
            "min" : [
                -0.5303949117660522,
                -0.23481765389442444,
                -1.257388710975647
            ],
            "type" : "VEC3"
        },
        {
            "bufferView" : 12,
            "componentType" : 5126,
            "count" : 1924,
            "type" : "VEC3"
        },
        {
            "bufferView" : 13,
            "componentType" : 5123,
            "count" : 11520,
            "type" : "SCALAR"
        },
        {
            "bufferView" : 15,
            "componentType" : 5126,
            "count" : 1298,
            "max" : [
                0.8239538669586182,
                1.1025844812393188,
                1.0290236473083496
            ],
            "min" : [
                -1.3394240140914917,
                -1.0722020864486694,
                -1.0156068801879883
            ],
            "type" : "VEC3"
        },
        {
            "bufferView" : 16,
            "componentType" : 5126,
            "count" : 1298,
            "type" : "VEC3"
        },
        {
            "bufferView" : 17,
            "componentType" : 5126,
            "count" : 1298,
            "type" : "VEC2"
        },
        {
            "bufferView" : 18,
            "componentType" : 5123,
            "count" : 6090,
            "type" : "SCALAR"
        },
        {
            "bufferView" : 19,
            "componentType" : 5126,
            "count" : 85,
            "max" : [
                0.7192064523696899,
                -0.29749596118927,
                0.2635459303855896
            ],
            "min" : [
                0.6705324649810791,
                -0.48805612325668335,
                -0.2582806646823883
            ],
            "type" : "VEC3"
        },
        {
            "bufferView" : 20,
            "componentType" : 5126,
            "count" : 85,
            "type" : "VEC3"
        },
        {
            "bufferView" : 21,
            "componentType" : 5126,
            "count" : 85,
            "type" : "VEC2"
        },
        {
            "bufferView" : 22,
            "componentType" : 5123,
            "count" : 384,
            "type" : "SCALAR"
        },
        {
            "bufferView" : 23,
            "componentType" : 5126,
            "count" : 300,
            "max" : [
                0.37428244948387146,
                0.4000976085662842,
                -0.08235983550548553
            ],
            "min" : [
                -0.37428244948387146,
                0.13913103938102722,
                -0.2968689501285553
            ],
            "type" : "VEC3"
        },
        {
            "bufferView" : 24,
            "componentType" : 5126,
            "count" : 300,
            "type" : "VEC3"
        },
        {
            "bufferView" : 25,
            "componentType" : 5126,
            "count" : 300,
            "type" : "VEC2"
        },
        {
            "bufferView" : 26,
            "componentType" : 5123,
            "count" : 1152,
            "type" : "SCALAR"
        },
        {
            "bufferView" : 27,
            "componentType" : 5126,
            "count" : 384,
            "max" : [
                0.9829069972038269,
                0.8133935332298279,
                1
            ],
            "min" : [
                -1.0170930624008179,
                0.7347080707550049,
                -1
            ],
            "type" : "VEC3"
        },
        {
            "bufferView" : 28,
            "componentType" : 5126,
            "count" : 384,
            "type" : "VEC3"
        },
        {
            "bufferView" : 29,
            "componentType" : 5126,
            "count" : 384,
            "type" : "VEC2"
        },
        {
            "bufferView" : 30,
            "componentType" : 5123,
            "count" : 2304,
            "type" : "SCALAR"
        },
        {
            "bufferView" : 32,
            "componentType" : 5126,
            "count" : 1434,
            "max" : [
                -0.649723470211029,
                -0.4054180383682251,
                1.6570804119110107
            ],
            "min" : [
                -1.095436453819275,
                -1.4029966592788696,
                -1.6570804119110107
            ],
            "type" : "VEC3"
        },
        {
            "bufferView" : 33,
            "componentType" : 5126,
            "count" : 1434,
            "type" : "VEC3"
        },
        {
            "bufferView" : 34,
            "componentType" : 5126,
            "count" : 1434,
            "type" : "VEC2"
        },
        {
            "bufferView" : 35,
            "componentType" : 5123,
            "count" : 3312,
            "type" : "SCALAR"
        }
    ],
    "bufferViews" : [
        {
            "buffer" : 0,
            "byteLength" : 17712,
            "byteOffset" : 0
        },
        {
            "buffer" : 0,
            "byteLength" : 17712,
            "byteOffset" : 17712
        },
        {
            "buffer" : 0,
            "byteLength" : 11808,
            "byteOffset" : 35424
        },
        {
            "buffer" : 0,
            "byteLength" : 13824,
            "byteOffset" : 47232
        },
        {
            "buffer" : 0,
            "byteLength" : 5304,
            "byteOffset" : 61056
        },
        {
            "buffer" : 0,
            "byteLength" : 5304,
            "byteOffset" : 66360
        },
        {
            "buffer" : 0,
            "byteLength" : 3536,
            "byteOffset" : 71664
        },
        {
            "buffer" : 0,
            "byteLength" : 3648,
            "byteOffset" : 75200
        },
        {
            "buffer" : 0,
            "byteLength" : 1080,
            "byteOffset" : 78848
        },
        {
            "buffer" : 0,
            "byteLength" : 1080,
            "byteOffset" : 79928
        },
        {
            "buffer" : 0,
            "byteLength" : 480,
            "byteOffset" : 81008
        },
        {
            "buffer" : 0,
            "byteLength" : 23088,
            "byteOffset" : 81488
        },
        {
            "buffer" : 0,
            "byteLength" : 23088,
            "byteOffset" : 104576
        },
        {
            "buffer" : 0,
            "byteLength" : 23040,
            "byteOffset" : 127664
        },
        {
            "buffer" : 0,
            "byteLength" : 85292,
            "byteOffset" : 150704
        },
        {
            "buffer" : 0,
            "byteLength" : 15576,
            "byteOffset" : 235996
        },
        {
            "buffer" : 0,
            "byteLength" : 15576,
            "byteOffset" : 251572
        },
        {
            "buffer" : 0,
            "byteLength" : 10384,
            "byteOffset" : 267148
        },
        {
            "buffer" : 0,
            "byteLength" : 12180,
            "byteOffset" : 277532
        },
        {
            "buffer" : 0,
            "byteLength" : 1020,
            "byteOffset" : 289712
        },
        {
            "buffer" : 0,
            "byteLength" : 1020,
            "byteOffset" : 290732
        },
        {
            "buffer" : 0,
            "byteLength" : 680,
            "byteOffset" : 291752
        },
        {
            "buffer" : 0,
            "byteLength" : 768,
            "byteOffset" : 292432
        },
        {
            "buffer" : 0,
            "byteLength" : 3600,
            "byteOffset" : 293200
        },
        {
            "buffer" : 0,
            "byteLength" : 3600,
            "byteOffset" : 296800
        },
        {
            "buffer" : 0,
            "byteLength" : 2400,
            "byteOffset" : 300400
        },
        {
            "buffer" : 0,
            "byteLength" : 2304,
            "byteOffset" : 302800
        },
        {
            "buffer" : 0,
            "byteLength" : 4608,
            "byteOffset" : 305104
        },
        {
            "buffer" : 0,
            "byteLength" : 4608,
            "byteOffset" : 309712
        },
        {
            "buffer" : 0,
            "byteLength" : 3072,
            "byteOffset" : 314320
        },
        {
            "buffer" : 0,
            "byteLength" : 4608,
            "byteOffset" : 317392
        },
        {
            "buffer" : 0,
            "byteLength" : 120652,
            "byteOffset" : 322000
        },
        {
            "buffer" : 0,
            "byteLength" : 17208,
            "byteOffset" : 442652
        },
        {
            "buffer" : 0,
            "byteLength" : 17208,
            "byteOffset" : 459860
        },
        {
            "buffer" : 0,
            "byteLength" : 11472,
            "byteOffset" : 477068
        },
        {
            "buffer" : 0,
            "byteLength" : 6624,
            "byteOffset" : 488540
        }
    ],
    "samplers" : [
        {
            "magFilter" : 9729,
            "minFilter" : 9987
        }
    ],
    "buffers" : [
        {
            "byteLength" : 495164,
            "uri" : "data:application/octet-stream;base64,"
        }
    ]
}
