{
    "asset" : {
        "copyright" : "Jeremy Edelblut",
        "generator" : "Khronos glTF Blender I/O v1.6.16",
        "version" : "2.0"
    },
    "scene" : 0,
    "scenes" : [
        {
            "name" : "Scene",
            "nodes" : [
                0,
                1
            ]
        }
    ],
    "nodes" : [
        {
            "mesh" : 0,
            "name" : "Cube.097"
        },
        {
            "mesh" : 1,
            "name" : "3moji.org.018",
            "rotation" : [
                0.5,
                0.5,
                0.4999999701976776,
                0.5
            ],
            "scale" : [
                0.001171264797449112,
                0.0011712644482031465,
                0.001171264797449112
            ],
            "translation" : [
                -0.0032723993062973022,
                0.8543390035629272,
                -0.003811849281191826
            ]
        }
    ],
    "materials" : [
        {
            "doubleSided" : true,
            "name" : "Color",
            "pbrMetallicRoughness" : {
                "baseColorTexture" : {
                    "index" : 0
                },
                "metallicFactor" : 0,
                "roughnessFactor" : 0.5
            }
        }
    ],
    "meshes" : [
        {
            "name" : "Cube.232",
            "primitives" : [
                {
                    "attributes" : {
                        "POSITION" : 0,
                        "NORMAL" : 1,
                        "TEXCOORD_0" : 2
                    },
                    "indices" : 3,
                    "material" : 0
                }
            ]
        },
        {
            "name" : "Cube.087",
            "primitives" : [
                {
                    "attributes" : {
                        "POSITION" : 4,
                        "NORMAL" : 5,
                        "TEXCOORD_0" : 6
                    },
                    "indices" : 7,
                    "material" : 0
                }
            ]
        }
    ],
    "textures" : [
        {
            "sampler" : 0,
            "source" : 0
        }
    ],
    "images" : [
        {
            "bufferView" : 4,
            "mimeType" : "image/png",
            "name" : "tex2"
        }
    ],
    "accessors" : [
        {
            "bufferView" : 0,
            "componentType" : 5126,
            "count" : 7798,
            "max" : [
                0.8561566472053528,
                0.8582044243812561,
                0.14166556298732758
            ],
            "min" : [
                -0.5374641418457031,
                -0.8919676542282104,
                -0.471919447183609
            ],
            "type" : "VEC3"
        },
        {
            "bufferView" : 1,
            "componentType" : 5126,
            "count" : 7798,
            "type" : "VEC3"
        },
        {
            "bufferView" : 2,
            "componentType" : 5126,
            "count" : 7798,
            "type" : "VEC2"
        },
        {
            "bufferView" : 3,
            "componentType" : 5123,
            "count" : 45504,
            "type" : "SCALAR"
        },
        {
            "bufferView" : 5,
            "componentType" : 5126,
            "count" : 752,
            "max" : [
                1.2953357696533203,
                7.90000057220459,
                17.240537643432617
            ],
            "min" : [
                2.8697024390567094e-05,
                -1.8999989032745361,
                -19.159460067749023
            ],
            "type" : "VEC3"
        },
        {
            "bufferView" : 6,
            "componentType" : 5126,
            "count" : 752,
            "type" : "VEC3"
        },
        {
            "bufferView" : 7,
            "componentType" : 5126,
            "count" : 752,
            "type" : "VEC2"
        },
        {
            "bufferView" : 8,
            "componentType" : 5123,
            "count" : 1680,
            "type" : "SCALAR"
        }
    ],
    "bufferViews" : [
        {
            "buffer" : 0,
            "byteLength" : 93576,
            "byteOffset" : 0
        },
        {
            "buffer" : 0,
            "byteLength" : 93576,
            "byteOffset" : 93576
        },
        {
            "buffer" : 0,
            "byteLength" : 62384,
            "byteOffset" : 187152
        },
        {
            "buffer" : 0,
            "byteLength" : 91008,
            "byteOffset" : 249536
        },
        {
            "buffer" : 0,
            "byteLength" : 6474,
            "byteOffset" : 340544
        },
        {
            "buffer" : 0,
            "byteLength" : 9024,
            "byteOffset" : 347020
        },
        {
            "buffer" : 0,
            "byteLength" : 9024,
            "byteOffset" : 356044
        },
        {
            "buffer" : 0,
            "byteLength" : 6016,
            "byteOffset" : 365068
        },
        {
            "buffer" : 0,
            "byteLength" : 3360,
            "byteOffset" : 371084
        }
    ],
    "samplers" : [
        {
            "magFilter" : 9729,
            "minFilter" : 9987
        }
    ],
    "buffers" : [
        {
            "byteLength" : 374444,
            "uri" : "data:application/octet-stream;base64,"
        }
    ]
}
