{
    "asset" : {
        "copyright" : "Jeremy Edelblut",
        "generator" : "Khronos glTF Blender I/O v1.7.33",
        "version" : "2.0"
    },
    "scene" : 0,
    "scenes" : [
        {
            "name" : "Scene",
            "nodes" : [
                0
            ]
        }
    ],
    "nodes" : [
        {
            "mesh" : 0,
            "name" : "Cube.093"
        }
    ],
    "materials" : [
        {
            "doubleSided" : true,
            "name" : "skin_tone_one",
            "pbrMetallicRoughness" : {
                "baseColorTexture" : {
                    "index" : 0
                },
                "metallicFactor" : 0,
                "roughnessFactor" : 0.5
            }
        },
        {
            "doubleSided" : true,
            "name" : "color",
            "pbrMetallicRoughness" : {
                "baseColorTexture" : {
                    "index" : 1
                },
                "metallicFactor" : 0,
                "roughnessFactor" : 0.5
            }
        }
    ],
    "meshes" : [
        {
            "name" : "Cube.228",
            "primitives" : [
                {
                    "attributes" : {
                        "POSITION" : 0,
                        "NORMAL" : 1,
                        "TEXCOORD_0" : 2
                    },
                    "indices" : 3,
                    "material" : 0
                },
                {
                    "attributes" : {
                        "POSITION" : 4,
                        "NORMAL" : 5,
                        "TEXCOORD_0" : 6
                    },
                    "indices" : 7,
                    "material" : 1
                }
            ]
        }
    ],
    "textures" : [
        {
            "sampler" : 0,
            "source" : 0
        },
        {
            "sampler" : 0,
            "source" : 0
        }
    ],
    "images" : [
        {
            "bufferView" : 4,
            "mimeType" : "image/png",
            "name" : "tex"
        }
    ],
    "accessors" : [
        {
            "bufferView" : 0,
            "componentType" : 5126,
            "count" : 5897,
            "max" : [
                0.8696784377098083,
                0.7453396916389465,
                0.1439136117696762
            ],
            "min" : [
                -0.9078575968742371,
                -0.6723489165306091,
                -0.47835296392440796
            ],
            "type" : "VEC3"
        },
        {
            "bufferView" : 1,
            "componentType" : 5126,
            "count" : 5897,
            "type" : "VEC3"
        },
        {
            "bufferView" : 2,
            "componentType" : 5126,
            "count" : 5897,
            "type" : "VEC2"
        },
        {
            "bufferView" : 3,
            "componentType" : 5123,
            "count" : 33600,
            "type" : "SCALAR"
        },
        {
            "bufferView" : 5,
            "componentType" : 5126,
            "count" : 752,
            "max" : [
                0.7739753723144531,
                -0.6197510361671448,
                0.008874681778252125
            ],
            "min" : [
                0.669689416885376,
                -0.6516173481941223,
                -0.019949473440647125
            ],
            "type" : "VEC3"
        },
        {
            "bufferView" : 6,
            "componentType" : 5126,
            "count" : 752,
            "type" : "VEC3"
        },
        {
            "bufferView" : 7,
            "componentType" : 5126,
            "count" : 752,
            "type" : "VEC2"
        },
        {
            "bufferView" : 8,
            "componentType" : 5123,
            "count" : 1680,
            "type" : "SCALAR"
        }
    ],
    "bufferViews" : [
        {
            "buffer" : 0,
            "byteLength" : 70764,
            "byteOffset" : 0
        },
        {
            "buffer" : 0,
            "byteLength" : 70764,
            "byteOffset" : 70764
        },
        {
            "buffer" : 0,
            "byteLength" : 47176,
            "byteOffset" : 141528
        },
        {
            "buffer" : 0,
            "byteLength" : 67200,
            "byteOffset" : 188704
        },
        {
            "buffer" : 0,
            "byteLength" : 11997,
            "byteOffset" : 255904
        },
        {
            "buffer" : 0,
            "byteLength" : 9024,
            "byteOffset" : 267904
        },
        {
            "buffer" : 0,
            "byteLength" : 9024,
            "byteOffset" : 276928
        },
        {
            "buffer" : 0,
            "byteLength" : 6016,
            "byteOffset" : 285952
        },
        {
            "buffer" : 0,
            "byteLength" : 3360,
            "byteOffset" : 291968
        }
    ],
    "samplers" : [
        {
            "magFilter" : 9729,
            "minFilter" : 9987
        }
    ],
    "buffers" : [
        {
            "byteLength" : 295328,
            "uri" : "data:application/octet-stream;base64,"
        }
    ]
}
