{
    "asset" : {
        "copyright" : "Jeremy Edelblut",
        "generator" : "Khronos glTF Blender I/O v1.7.33",
        "version" : "2.0"
    },
    "scene" : 0,
    "scenes" : [
        {
            "name" : "Scene",
            "nodes" : [
                0,
                1,
                2
            ]
        }
    ],
    "nodes" : [
        {
            "mesh" : 0,
            "name" : "Circle.1935",
            "rotation" : [
                0.6532815098762512,
                -0.27059808373451233,
                0.27059808373451233,
                0.6532814502716064
            ],
            "scale" : [
                1.152488350868225,
                1.152488350868225,
                1.152488350868225
            ],
            "translation" : [
                0.26874038577079773,
                -0.1365548074245453,
                -0.19338226318359375
            ]
        },
        {
            "mesh" : 1,
            "name" : "Plane.148",
            "rotation" : [
                0,
                -0.3826834559440613,
                0,
                0.9238795042037964
            ],
            "scale" : [
                1.152488350868225,
                1.152488350868225,
                1.152488350868225
            ],
            "translation" : [
                0.26874038577079773,
                -0.1365548074245453,
                -0.19338226318359375
            ]
        },
        {
            "mesh" : 2,
            "name" : "3moji.org.243",
            "rotation" : [
                -0.7015548348426819,
                0.6011440753936768,
                0.29059335589408875,
                -0.24900215864181519
            ],
            "scale" : [
                1.152488350868225,
                1.1524884700775146,
                1.152488350868225
            ],
            "translation" : [
                0.419091135263443,
                -0.4466671049594879,
                -0.3437331020832062
            ]
        }
    ],
    "materials" : [
        {
            "doubleSided" : true,
            "name" : "color",
            "pbrMetallicRoughness" : {
                "baseColorTexture" : {
                    "index" : 0
                },
                "metallicFactor" : 0,
                "roughnessFactor" : 0.5
            }
        }
    ],
    "meshes" : [
        {
            "name" : "Circle.2153",
            "primitives" : [
                {
                    "attributes" : {
                        "POSITION" : 0,
                        "NORMAL" : 1,
                        "TEXCOORD_0" : 2
                    },
                    "indices" : 3,
                    "material" : 0
                }
            ]
        },
        {
            "name" : "Plane.146",
            "primitives" : [
                {
                    "attributes" : {
                        "POSITION" : 4,
                        "NORMAL" : 5,
                        "TEXCOORD_0" : 6
                    },
                    "indices" : 7,
                    "material" : 0
                }
            ]
        },
        {
            "name" : "Cube.708",
            "primitives" : [
                {
                    "attributes" : {
                        "POSITION" : 8,
                        "NORMAL" : 9,
                        "TEXCOORD_0" : 10
                    },
                    "indices" : 11,
                    "material" : 0
                }
            ]
        }
    ],
    "textures" : [
        {
            "sampler" : 0,
            "source" : 0
        }
    ],
    "images" : [
        {
            "bufferView" : 4,
            "mimeType" : "image/png",
            "name" : "tex"
        }
    ],
    "accessors" : [
        {
            "bufferView" : 0,
            "componentType" : 5126,
            "count" : 224,
            "max" : [
                0.3249160945415497,
                0.9883960485458374,
                -0.4565783143043518
            ],
            "min" : [
                -0.3249160945415497,
                0.8841174244880676,
                -0.5738062262535095
            ],
            "type" : "VEC3"
        },
        {
            "bufferView" : 1,
            "componentType" : 5126,
            "count" : 224,
            "type" : "VEC3"
        },
        {
            "bufferView" : 2,
            "componentType" : 5126,
            "count" : 224,
            "type" : "VEC2"
        },
        {
            "bufferView" : 3,
            "componentType" : 5123,
            "count" : 840,
            "type" : "SCALAR"
        },
        {
            "bufferView" : 5,
            "componentType" : 5126,
            "count" : 754,
            "max" : [
                0.31491607427597046,
                0.8370625376701355,
                1.374017357826233
            ],
            "min" : [
                -0.31491607427597046,
                -0.5501962304115295,
                -0.7682420611381531
            ],
            "type" : "VEC3"
        },
        {
            "bufferView" : 6,
            "componentType" : 5126,
            "count" : 754,
            "type" : "VEC3"
        },
        {
            "bufferView" : 7,
            "componentType" : 5126,
            "count" : 754,
            "type" : "VEC2"
        },
        {
            "bufferView" : 8,
            "componentType" : 5123,
            "count" : 2202,
            "type" : "SCALAR"
        },
        {
            "bufferView" : 9,
            "componentType" : 5126,
            "count" : 752,
            "max" : [
                0.0070692696608603,
                0.04311409965157509,
                0.09408990293741226
            ],
            "min" : [
                1.56613452872989e-07,
                -0.01036920677870512,
                -0.10456238687038422
            ],
            "type" : "VEC3"
        },
        {
            "bufferView" : 10,
            "componentType" : 5126,
            "count" : 752,
            "type" : "VEC3"
        },
        {
            "bufferView" : 11,
            "componentType" : 5126,
            "count" : 752,
            "type" : "VEC2"
        },
        {
            "bufferView" : 12,
            "componentType" : 5123,
            "count" : 1680,
            "type" : "SCALAR"
        }
    ],
    "bufferViews" : [
        {
            "buffer" : 0,
            "byteLength" : 2688,
            "byteOffset" : 0
        },
        {
            "buffer" : 0,
            "byteLength" : 2688,
            "byteOffset" : 2688
        },
        {
            "buffer" : 0,
            "byteLength" : 1792,
            "byteOffset" : 5376
        },
        {
            "buffer" : 0,
            "byteLength" : 1680,
            "byteOffset" : 7168
        },
        {
            "buffer" : 0,
            "byteLength" : 11997,
            "byteOffset" : 8848
        },
        {
            "buffer" : 0,
            "byteLength" : 9048,
            "byteOffset" : 20848
        },
        {
            "buffer" : 0,
            "byteLength" : 9048,
            "byteOffset" : 29896
        },
        {
            "buffer" : 0,
            "byteLength" : 6032,
            "byteOffset" : 38944
        },
        {
            "buffer" : 0,
            "byteLength" : 4404,
            "byteOffset" : 44976
        },
        {
            "buffer" : 0,
            "byteLength" : 9024,
            "byteOffset" : 49380
        },
        {
            "buffer" : 0,
            "byteLength" : 9024,
            "byteOffset" : 58404
        },
        {
            "buffer" : 0,
            "byteLength" : 6016,
            "byteOffset" : 67428
        },
        {
            "buffer" : 0,
            "byteLength" : 3360,
            "byteOffset" : 73444
        }
    ],
    "samplers" : [
        {
            "magFilter" : 9729,
            "minFilter" : 9987
        }
    ],
    "buffers" : [
        {
            "byteLength" : 76804,
            "uri" : "data:application/octet-stream;base64,"
        }
    ]
}
