{
    "asset" : {
        "copyright" : "Jeremy Edelblut",
        "generator" : "Khronos glTF Blender I/O v1.6.16",
        "version" : "2.0"
    },
    "scene" : 0,
    "scenes" : [
        {
            "name" : "Scene",
            "nodes" : [
                0,
                1
            ]
        }
    ],
    "nodes" : [
        {
            "mesh" : 0,
            "name" : "Sphere.514",
            "rotation" : [
                -0.1007923036813736,
                0.6998863816261292,
                0.100792296230793,
                0.6998863220214844
            ],
            "scale" : [
                0.46173295378685,
                0.46173295378685,
                0.46173295378685
            ],
            "translation" : [
                -0.25398558378219604,
                0.688483715057373,
                0
            ]
        },
        {
            "mesh" : 1,
            "name" : "BezierCurve.006",
            "rotation" : [
                0,
                0,
                0.11435540020465851,
                0.9934399127960205
            ],
            "scale" : [
                1.0993642807006836,
                1.0993642807006836,
                1.099364161491394
            ],
            "translation" : [
                -0.08103835582733154,
                -0.05356874316930771,
                0
            ]
        }
    ],
    "materials" : [
        {
            "doubleSided" : true,
            "name" : "Color",
            "pbrMetallicRoughness" : {
                "baseColorTexture" : {
                    "index" : 0
                },
                "metallicFactor" : 0,
                "roughnessFactor" : 0.5
            }
        }
    ],
    "meshes" : [
        {
            "name" : "Sphere.532",
            "primitives" : [
                {
                    "attributes" : {
                        "POSITION" : 0,
                        "NORMAL" : 1,
                        "TEXCOORD_0" : 2
                    },
                    "indices" : 3,
                    "material" : 0
                }
            ]
        },
        {
            "name" : "BezierCurve.006",
            "primitives" : [
                {
                    "attributes" : {
                        "POSITION" : 4,
                        "NORMAL" : 5,
                        "TEXCOORD_0" : 6
                    },
                    "indices" : 7,
                    "material" : 0
                }
            ]
        }
    ],
    "textures" : [
        {
            "sampler" : 0,
            "source" : 0
        }
    ],
    "images" : [
        {
            "bufferView" : 4,
            "mimeType" : "image/png",
            "name" : "tex2"
        }
    ],
    "accessors" : [
        {
            "bufferView" : 0,
            "componentType" : 5126,
            "count" : 737,
            "max" : [
                0.9999997019767761,
                1,
                0.9999994039535522
            ],
            "min" : [
                -0.9999990463256836,
                -1.6433027982711792,
                -0.9999987483024597
            ],
            "type" : "VEC3"
        },
        {
            "bufferView" : 1,
            "componentType" : 5126,
            "count" : 737,
            "type" : "VEC3"
        },
        {
            "bufferView" : 2,
            "componentType" : 5126,
            "count" : 737,
            "type" : "VEC2"
        },
        {
            "bufferView" : 3,
            "componentType" : 5123,
            "count" : 3642,
            "type" : "SCALAR"
        },
        {
            "bufferView" : 5,
            "componentType" : 5126,
            "count" : 1152,
            "max" : [
                0.5684739351272583,
                0.057984013110399246,
                0.14718927443027496
            ],
            "min" : [
                -0.6374849677085876,
                -0.9797667264938354,
                -0.17201478779315948
            ],
            "type" : "VEC3"
        },
        {
            "bufferView" : 6,
            "componentType" : 5126,
            "count" : 1152,
            "type" : "VEC3"
        },
        {
            "bufferView" : 7,
            "componentType" : 5126,
            "count" : 1152,
            "type" : "VEC2"
        },
        {
            "bufferView" : 8,
            "componentType" : 5123,
            "count" : 6756,
            "type" : "SCALAR"
        }
    ],
    "bufferViews" : [
        {
            "buffer" : 0,
            "byteLength" : 8844,
            "byteOffset" : 0
        },
        {
            "buffer" : 0,
            "byteLength" : 8844,
            "byteOffset" : 8844
        },
        {
            "buffer" : 0,
            "byteLength" : 5896,
            "byteOffset" : 17688
        },
        {
            "buffer" : 0,
            "byteLength" : 7284,
            "byteOffset" : 23584
        },
        {
            "buffer" : 0,
            "byteLength" : 6474,
            "byteOffset" : 30868
        },
        {
            "buffer" : 0,
            "byteLength" : 13824,
            "byteOffset" : 37344
        },
        {
            "buffer" : 0,
            "byteLength" : 13824,
            "byteOffset" : 51168
        },
        {
            "buffer" : 0,
            "byteLength" : 9216,
            "byteOffset" : 64992
        },
        {
            "buffer" : 0,
            "byteLength" : 13512,
            "byteOffset" : 74208
        }
    ],
    "samplers" : [
        {
            "magFilter" : 9729,
            "minFilter" : 9987
        }
    ],
    "buffers" : [
        {
            "byteLength" : 87720,
            "uri" : "data:application/octet-stream;base64,"
        }
    ]
}
