{
    "asset" : {
        "copyright" : "Jeremy Edelblut",
        "generator" : "Khronos glTF Blender I/O v1.6.16",
        "version" : "2.0"
    },
    "scene" : 0,
    "scenes" : [
        {
            "name" : "Scene",
            "nodes" : [
                0,
                1
            ]
        }
    ],
    "nodes" : [
        {
            "mesh" : 0,
            "name" : "Sphere.360",
            "rotation" : [
                -0.05274277925491333,
                0.7051370143890381,
                0.7051370739936829,
                -0.052742887288331985
            ]
        },
        {
            "mesh" : 1,
            "name" : "Sphere.369",
            "rotation" : [
                0.057656869292259216,
                0.7047522664070129,
                0.7047522664070129,
                0.05765676498413086
            ]
        }
    ],
    "materials" : [
        {
            "doubleSided" : true,
            "name" : "Pink",
            "pbrMetallicRoughness" : {
                "baseColorFactor" : [
                    0.8000000715255737,
                    0.07068260759115219,
                    0.3145071268081665,
                    1
                ],
                "metallicFactor" : 0,
                "roughnessFactor" : 0.5
            }
        }
    ],
    "meshes" : [
        {
            "name" : "Sphere.355",
            "primitives" : [
                {
                    "attributes" : {
                        "POSITION" : 0,
                        "NORMAL" : 1,
                        "TEXCOORD_0" : 2
                    },
                    "indices" : 3,
                    "material" : 0
                }
            ]
        },
        {
            "name" : "Sphere.356",
            "primitives" : [
                {
                    "attributes" : {
                        "POSITION" : 4,
                        "NORMAL" : 5,
                        "TEXCOORD_0" : 6
                    },
                    "indices" : 7,
                    "material" : 0
                }
            ]
        }
    ],
    "accessors" : [
        {
            "bufferView" : 0,
            "componentType" : 5126,
            "count" : 512,
            "max" : [
                -0.059630341827869415,
                0.3415922522544861,
                0.9398481845855713
            ],
            "min" : [
                -0.6910507082939148,
                -0.010352746583521366,
                -0.6742693781852722
            ],
            "type" : "VEC3"
        },
        {
            "bufferView" : 1,
            "componentType" : 5126,
            "count" : 512,
            "type" : "VEC3"
        },
        {
            "bufferView" : 2,
            "componentType" : 5126,
            "count" : 512,
            "type" : "VEC2"
        },
        {
            "bufferView" : 3,
            "componentType" : 5123,
            "count" : 1926,
            "type" : "SCALAR"
        },
        {
            "bufferView" : 4,
            "componentType" : 5126,
            "count" : 512,
            "max" : [
                0.6291489005088806,
                0.34159207344055176,
                0.5807598233222961
            ],
            "min" : [
                -0.002271676668897271,
                -0.010352914221584797,
                -1.033358097076416
            ],
            "type" : "VEC3"
        },
        {
            "bufferView" : 5,
            "componentType" : 5126,
            "count" : 512,
            "type" : "VEC3"
        },
        {
            "bufferView" : 6,
            "componentType" : 5126,
            "count" : 512,
            "type" : "VEC2"
        },
        {
            "bufferView" : 7,
            "componentType" : 5123,
            "count" : 1926,
            "type" : "SCALAR"
        }
    ],
    "bufferViews" : [
        {
            "buffer" : 0,
            "byteLength" : 6144,
            "byteOffset" : 0
        },
        {
            "buffer" : 0,
            "byteLength" : 6144,
            "byteOffset" : 6144
        },
        {
            "buffer" : 0,
            "byteLength" : 4096,
            "byteOffset" : 12288
        },
        {
            "buffer" : 0,
            "byteLength" : 3852,
            "byteOffset" : 16384
        },
        {
            "buffer" : 0,
            "byteLength" : 6144,
            "byteOffset" : 20236
        },
        {
            "buffer" : 0,
            "byteLength" : 6144,
            "byteOffset" : 26380
        },
        {
            "buffer" : 0,
            "byteLength" : 4096,
            "byteOffset" : 32524
        },
        {
            "buffer" : 0,
            "byteLength" : 3852,
            "byteOffset" : 36620
        }
    ],
    "buffers" : [
        {
            "byteLength" : 40472,
            "uri" : "data:application/octet-stream;base64,"
        }
    ]
}
