{
    "asset" : {
        "copyright" : "Jeremy Edelblut",
        "generator" : "Khronos glTF Blender I/O v1.6.16",
        "version" : "2.0"
    },
    "scene" : 0,
    "scenes" : [
        {
            "name" : "Scene",
            "nodes" : [
                0,
                1
            ]
        }
    ],
    "nodes" : [
        {
            "mesh" : 0,
            "name" : "Sphere.360",
            "rotation" : [
                -0.05274277925491333,
                0.7051370143890381,
                0.7051370739936829,
                -0.052742887288331985
            ],
            "scale" : [
                1.1000001430511475,
                1.100000023841858,
                1.1000001430511475
            ]
        },
        {
            "mesh" : 1,
            "name" : "Sphere.369",
            "rotation" : [
                0.057656869292259216,
                0.7047522664070129,
                0.7047522664070129,
                0.05765676498413086
            ],
            "scale" : [
                1.1000001430511475,
                1.100000023841858,
                1.1000001430511475
            ]
        }
    ],
    "materials" : [
        {
            "doubleSided" : true,
            "name" : "Color",
            "pbrMetallicRoughness" : {
                "baseColorTexture" : {
                    "index" : 0
                },
                "metallicFactor" : 0,
                "roughnessFactor" : 0.5
            }
        }
    ],
    "meshes" : [
        {
            "name" : "Sphere.355",
            "primitives" : [
                {
                    "attributes" : {
                        "POSITION" : 0,
                        "NORMAL" : 1,
                        "TEXCOORD_0" : 2
                    },
                    "indices" : 3,
                    "material" : 0
                }
            ]
        },
        {
            "name" : "Sphere.356",
            "primitives" : [
                {
                    "attributes" : {
                        "POSITION" : 4,
                        "NORMAL" : 5,
                        "TEXCOORD_0" : 6
                    },
                    "indices" : 7,
                    "material" : 0
                }
            ]
        }
    ],
    "textures" : [
        {
            "sampler" : 0,
            "source" : 0
        }
    ],
    "images" : [
        {
            "bufferView" : 4,
            "mimeType" : "image/png",
            "name" : "tex"
        }
    ],
    "accessors" : [
        {
            "bufferView" : 0,
            "componentType" : 5126,
            "count" : 2180,
            "max" : [
                -0.06890756636857986,
                0.3383212387561798,
                0.9367148280143738
            ],
            "min" : [
                -0.6817734837532043,
                -0.00834092777222395,
                -0.6563059687614441
            ],
            "type" : "VEC3"
        },
        {
            "bufferView" : 1,
            "componentType" : 5126,
            "count" : 2180,
            "type" : "VEC3"
        },
        {
            "bufferView" : 2,
            "componentType" : 5126,
            "count" : 2180,
            "type" : "VEC2"
        },
        {
            "bufferView" : 3,
            "componentType" : 5123,
            "count" : 8592,
            "type" : "SCALAR"
        },
        {
            "bufferView" : 5,
            "componentType" : 5126,
            "count" : 2192,
            "max" : [
                0.6198717355728149,
                0.3383132815361023,
                0.5776265263557434
            ],
            "min" : [
                0.007005555089563131,
                -0.00834109541028738,
                -1.0153948068618774
            ],
            "type" : "VEC3"
        },
        {
            "bufferView" : 6,
            "componentType" : 5126,
            "count" : 2192,
            "type" : "VEC3"
        },
        {
            "bufferView" : 7,
            "componentType" : 5126,
            "count" : 2192,
            "type" : "VEC2"
        },
        {
            "bufferView" : 8,
            "componentType" : 5123,
            "count" : 8592,
            "type" : "SCALAR"
        }
    ],
    "bufferViews" : [
        {
            "buffer" : 0,
            "byteLength" : 26160,
            "byteOffset" : 0
        },
        {
            "buffer" : 0,
            "byteLength" : 26160,
            "byteOffset" : 26160
        },
        {
            "buffer" : 0,
            "byteLength" : 17440,
            "byteOffset" : 52320
        },
        {
            "buffer" : 0,
            "byteLength" : 17184,
            "byteOffset" : 69760
        },
        {
            "buffer" : 0,
            "byteLength" : 3214,
            "byteOffset" : 86944
        },
        {
            "buffer" : 0,
            "byteLength" : 26304,
            "byteOffset" : 90160
        },
        {
            "buffer" : 0,
            "byteLength" : 26304,
            "byteOffset" : 116464
        },
        {
            "buffer" : 0,
            "byteLength" : 17536,
            "byteOffset" : 142768
        },
        {
            "buffer" : 0,
            "byteLength" : 17184,
            "byteOffset" : 160304
        }
    ],
    "samplers" : [
        {
            "magFilter" : 9729,
            "minFilter" : 9987
        }
    ],
    "buffers" : [
        {
            "byteLength" : 177488,
            "uri" : "data:application/octet-stream;base64,"
        }
    ]
}
