{
    "asset" : {
        "copyright" : "Jeremy Edelblut",
        "generator" : "Khronos glTF Blender I/O v1.6.16",
        "version" : "2.0"
    },
    "scene" : 0,
    "scenes" : [
        {
            "name" : "Scene",
            "nodes" : [
                0,
                1,
                2,
                3
            ]
        }
    ],
    "nodes" : [
        {
            "mesh" : 0,
            "name" : "Circle.1924",
            "rotation" : [
                -0.7071068286895752,
                0,
                0,
                -0.7071068286895752
            ],
            "translation" : [
                -0.0004934737225994468,
                -0.12354795634746552,
                0
            ]
        },
        {
            "mesh" : 1,
            "name" : "Cube.6249",
            "rotation" : [
                0,
                0.70710688829422,
                0,
                0.7071067094802856
            ],
            "translation" : [
                0,
                -0.12587735056877136,
                0
            ]
        },
        {
            "mesh" : 2,
            "name" : "Cube.6250",
            "rotation" : [
                0,
                0.7071064710617065,
                0,
                -0.7071071863174438
            ],
            "translation" : [
                0,
                0.2228318154811859,
                0.07653630524873734
            ]
        },
        {
            "mesh" : 3,
            "name" : "3moji.org.234",
            "rotation" : [
                0,
                0.70710688829422,
                0,
                0.7071067094802856
            ],
            "translation" : [
                0,
                -0.2948131561279297,
                0.003557519055902958
            ]
        }
    ],
    "materials" : [
        {
            "doubleSided" : true,
            "name" : "Color",
            "pbrMetallicRoughness" : {
                "baseColorTexture" : {
                    "index" : 0
                },
                "metallicFactor" : 0,
                "roughnessFactor" : 0.5
            }
        }
    ],
    "meshes" : [
        {
            "name" : "Circle.2141",
            "primitives" : [
                {
                    "attributes" : {
                        "POSITION" : 0,
                        "NORMAL" : 1,
                        "TEXCOORD_0" : 2
                    },
                    "indices" : 3,
                    "material" : 0
                }
            ]
        },
        {
            "name" : "Cube.7309",
            "primitives" : [
                {
                    "attributes" : {
                        "POSITION" : 4,
                        "NORMAL" : 5,
                        "TEXCOORD_0" : 6
                    },
                    "indices" : 7,
                    "material" : 0
                }
            ]
        },
        {
            "name" : "Cube.7310",
            "primitives" : [
                {
                    "attributes" : {
                        "POSITION" : 8,
                        "NORMAL" : 9,
                        "TEXCOORD_0" : 10
                    },
                    "indices" : 11,
                    "material" : 0
                }
            ]
        },
        {
            "name" : "Cube.698",
            "primitives" : [
                {
                    "attributes" : {
                        "POSITION" : 12,
                        "NORMAL" : 13,
                        "TEXCOORD_0" : 14
                    },
                    "indices" : 15,
                    "material" : 0
                }
            ]
        }
    ],
    "textures" : [
        {
            "sampler" : 0,
            "source" : 0
        }
    ],
    "images" : [
        {
            "bufferView" : 4,
            "mimeType" : "image/png",
            "name" : "tex"
        }
    ],
    "accessors" : [
        {
            "bufferView" : 0,
            "componentType" : 5126,
            "count" : 224,
            "max" : [
                0.09471925348043442,
                0.08027896285057068,
                -0.38892388343811035
            ],
            "min" : [
                -0.09471925348043442,
                0.07027889043092728,
                -0.4503905773162842
            ],
            "type" : "VEC3"
        },
        {
            "bufferView" : 1,
            "componentType" : 5126,
            "count" : 224,
            "type" : "VEC3"
        },
        {
            "bufferView" : 2,
            "componentType" : 5126,
            "count" : 224,
            "type" : "VEC2"
        },
        {
            "bufferView" : 3,
            "componentType" : 5123,
            "count" : 840,
            "type" : "SCALAR"
        },
        {
            "bufferView" : 5,
            "componentType" : 5126,
            "count" : 653,
            "max" : [
                1.140479621852819e-08,
                0.8031449913978577,
                1.1837732791900635
            ],
            "min" : [
                -0.1198350265622139,
                -0.3604000210762024,
                -1.1837732791900635
            ],
            "type" : "VEC3"
        },
        {
            "bufferView" : 6,
            "componentType" : 5126,
            "count" : 653,
            "type" : "VEC3"
        },
        {
            "bufferView" : 7,
            "componentType" : 5126,
            "count" : 653,
            "type" : "VEC2"
        },
        {
            "bufferView" : 8,
            "componentType" : 5123,
            "count" : 1956,
            "type" : "SCALAR"
        },
        {
            "bufferView" : 9,
            "componentType" : 5126,
            "count" : 578,
            "max" : [
                0.013260435312986374,
                0.04599039629101753,
                0.053674958646297455
            ],
            "min" : [
                -0.008288498036563396,
                -0.048808641731739044,
                -0.053102754056453705
            ],
            "type" : "VEC3"
        },
        {
            "bufferView" : 10,
            "componentType" : 5126,
            "count" : 578,
            "type" : "VEC3"
        },
        {
            "bufferView" : 11,
            "componentType" : 5126,
            "count" : 578,
            "type" : "VEC2"
        },
        {
            "bufferView" : 12,
            "componentType" : 5123,
            "count" : 2418,
            "type" : "SCALAR"
        },
        {
            "bufferView" : 13,
            "componentType" : 5126,
            "count" : 752,
            "max" : [
                0.005434639286249876,
                0.03314480558037758,
                0.0723334476351738
            ],
            "min" : [
                1.2039964758514543e-07,
                -0.00797153078019619,
                -0.08038437366485596
            ],
            "type" : "VEC3"
        },
        {
            "bufferView" : 14,
            "componentType" : 5126,
            "count" : 752,
            "type" : "VEC3"
        },
        {
            "bufferView" : 15,
            "componentType" : 5126,
            "count" : 752,
            "type" : "VEC2"
        },
        {
            "bufferView" : 16,
            "componentType" : 5123,
            "count" : 1680,
            "type" : "SCALAR"
        }
    ],
    "bufferViews" : [
        {
            "buffer" : 0,
            "byteLength" : 2688,
            "byteOffset" : 0
        },
        {
            "buffer" : 0,
            "byteLength" : 2688,
            "byteOffset" : 2688
        },
        {
            "buffer" : 0,
            "byteLength" : 1792,
            "byteOffset" : 5376
        },
        {
            "buffer" : 0,
            "byteLength" : 1680,
            "byteOffset" : 7168
        },
        {
            "buffer" : 0,
            "byteLength" : 3214,
            "byteOffset" : 8848
        },
        {
            "buffer" : 0,
            "byteLength" : 7836,
            "byteOffset" : 12064
        },
        {
            "buffer" : 0,
            "byteLength" : 7836,
            "byteOffset" : 19900
        },
        {
            "buffer" : 0,
            "byteLength" : 5224,
            "byteOffset" : 27736
        },
        {
            "buffer" : 0,
            "byteLength" : 3912,
            "byteOffset" : 32960
        },
        {
            "buffer" : 0,
            "byteLength" : 6936,
            "byteOffset" : 36872
        },
        {
            "buffer" : 0,
            "byteLength" : 6936,
            "byteOffset" : 43808
        },
        {
            "buffer" : 0,
            "byteLength" : 4624,
            "byteOffset" : 50744
        },
        {
            "buffer" : 0,
            "byteLength" : 4836,
            "byteOffset" : 55368
        },
        {
            "buffer" : 0,
            "byteLength" : 9024,
            "byteOffset" : 60204
        },
        {
            "buffer" : 0,
            "byteLength" : 9024,
            "byteOffset" : 69228
        },
        {
            "buffer" : 0,
            "byteLength" : 6016,
            "byteOffset" : 78252
        },
        {
            "buffer" : 0,
            "byteLength" : 3360,
            "byteOffset" : 84268
        }
    ],
    "samplers" : [
        {
            "magFilter" : 9729,
            "minFilter" : 9987
        }
    ],
    "buffers" : [
        {
            "byteLength" : 87628,
            "uri" : "data:application/octet-stream;base64,"
        }
    ]
}
