{
    "asset" : {
        "copyright" : "Jeremy Edelblut",
        "generator" : "Khronos glTF Blender I/O v1.7.33",
        "version" : "2.0"
    },
    "scene" : 1,
    "scenes" : [
        {
            "name" : "FBX_Temp",
            "nodes" : [
                0
            ]
        },
        {
            "name" : "Scene",
            "nodes" : [
                1,
                2,
                3,
                4
            ]
        }
    ],
    "nodes" : [
        {
            "mesh" : 0,
            "name" : "3moji.064",
            "rotation" : [
                0,
                -0.7071068286895752,
                0,
                0.7071068286895752
            ]
        },
        {
            "mesh" : 1,
            "name" : "Circle.1924"
        },
        {
            "mesh" : 2,
            "name" : "Cube.6249"
        },
        {
            "mesh" : 3,
            "name" : "Cube.6250"
        },
        {
            "mesh" : 4,
            "name" : "3moji.org.234"
        }
    ],
    "materials" : [
        {
            "doubleSided" : true,
            "name" : "color",
            "pbrMetallicRoughness" : {
                "baseColorTexture" : {
                    "index" : 0
                },
                "metallicFactor" : 0,
                "roughnessFactor" : 0.5
            }
        }
    ],
    "meshes" : [
        {
            "name" : "Cube.417",
            "primitives" : [
                {
                    "attributes" : {
                        "POSITION" : 0,
                        "NORMAL" : 1,
                        "TEXCOORD_0" : 2
                    },
                    "indices" : 3,
                    "material" : 0
                }
            ]
        },
        {
            "name" : "Circle.2141",
            "primitives" : [
                {
                    "attributes" : {
                        "POSITION" : 4,
                        "NORMAL" : 5,
                        "TEXCOORD_0" : 6
                    },
                    "indices" : 7,
                    "material" : 0
                }
            ]
        },
        {
            "name" : "Cube.7309",
            "primitives" : [
                {
                    "attributes" : {
                        "POSITION" : 8,
                        "NORMAL" : 9,
                        "TEXCOORD_0" : 10
                    },
                    "indices" : 11,
                    "material" : 0
                }
            ]
        },
        {
            "name" : "Cube.7310",
            "primitives" : [
                {
                    "attributes" : {
                        "POSITION" : 12,
                        "NORMAL" : 13,
                        "TEXCOORD_0" : 14
                    },
                    "indices" : 15,
                    "material" : 0
                }
            ]
        },
        {
            "name" : "Cube.698",
            "primitives" : [
                {
                    "attributes" : {
                        "POSITION" : 16,
                        "NORMAL" : 17,
                        "TEXCOORD_0" : 18
                    },
                    "indices" : 19,
                    "material" : 0
                }
            ]
        }
    ],
    "textures" : [
        {
            "sampler" : 0,
            "source" : 0
        }
    ],
    "images" : [
        {
            "bufferView" : 4,
            "mimeType" : "image/png",
            "name" : "tex"
        }
    ],
    "accessors" : [
        {
            "bufferView" : 0,
            "componentType" : 5126,
            "count" : 752,
            "max" : [
                -0.8264395594596863,
                0.05719918757677078,
                0.13795676827430725
            ],
            "min" : [
                -0.8543609976768494,
                -0.014034310355782509,
                -0.12436223030090332
            ],
            "type" : "VEC3"
        },
        {
            "bufferView" : 1,
            "componentType" : 5126,
            "count" : 752,
            "type" : "VEC3"
        },
        {
            "bufferView" : 2,
            "componentType" : 5126,
            "count" : 752,
            "type" : "VEC2"
        },
        {
            "bufferView" : 3,
            "componentType" : 5123,
            "count" : 1680,
            "type" : "SCALAR"
        },
        {
            "bufferView" : 5,
            "componentType" : 5126,
            "count" : 224,
            "max" : [
                0.09422434866428375,
                0.32684266567230225,
                0.08027885109186172
            ],
            "min" : [
                -0.09422434866428375,
                0.2653759717941284,
                0.0702788233757019
            ],
            "type" : "VEC3"
        },
        {
            "bufferView" : 6,
            "componentType" : 5126,
            "count" : 224,
            "type" : "VEC3"
        },
        {
            "bufferView" : 7,
            "componentType" : 5126,
            "count" : 224,
            "type" : "VEC2"
        },
        {
            "bufferView" : 8,
            "componentType" : 5123,
            "count" : 840,
            "type" : "SCALAR"
        },
        {
            "bufferView" : 9,
            "componentType" : 5126,
            "count" : 653,
            "max" : [
                1.1837732791900635,
                0.6772676706314087,
                0.1198350265622139
            ],
            "min" : [
                -1.1837732791900635,
                -0.48627737164497375,
                -3.425315355798375e-07
            ],
            "type" : "VEC3"
        },
        {
            "bufferView" : 10,
            "componentType" : 5126,
            "count" : 653,
            "type" : "VEC3"
        },
        {
            "bufferView" : 11,
            "componentType" : 5126,
            "count" : 653,
            "type" : "VEC2"
        },
        {
            "bufferView" : 12,
            "componentType" : 5123,
            "count" : 1956,
            "type" : "SCALAR"
        },
        {
            "bufferView" : 13,
            "componentType" : 5126,
            "count" : 578,
            "max" : [
                0.0531027652323246,
                0.26882222294807434,
                0.08979678899049759
            ],
            "min" : [
                -0.05367494747042656,
                0.17402318120002747,
                0.06824777275323868
            ],
            "type" : "VEC3"
        },
        {
            "bufferView" : 14,
            "componentType" : 5126,
            "count" : 578,
            "type" : "VEC3"
        },
        {
            "bufferView" : 15,
            "componentType" : 5126,
            "count" : 578,
            "type" : "VEC2"
        },
        {
            "bufferView" : 16,
            "componentType" : 5123,
            "count" : 2418,
            "type" : "SCALAR"
        },
        {
            "bufferView" : 17,
            "componentType" : 5126,
            "count" : 752,
            "max" : [
                0.0723334476351738,
                -0.2616683542728424,
                0.0035574212670326233
            ],
            "min" : [
                -0.08038437366485596,
                -0.30278468132019043,
                -0.0018771407194435596
            ],
            "type" : "VEC3"
        },
        {
            "bufferView" : 18,
            "componentType" : 5126,
            "count" : 752,
            "type" : "VEC3"
        },
        {
            "bufferView" : 19,
            "componentType" : 5126,
            "count" : 752,
            "type" : "VEC2"
        },
        {
            "bufferView" : 20,
            "componentType" : 5123,
            "count" : 1680,
            "type" : "SCALAR"
        }
    ],
    "bufferViews" : [
        {
            "buffer" : 0,
            "byteLength" : 9024,
            "byteOffset" : 0
        },
        {
            "buffer" : 0,
            "byteLength" : 9024,
            "byteOffset" : 9024
        },
        {
            "buffer" : 0,
            "byteLength" : 6016,
            "byteOffset" : 18048
        },
        {
            "buffer" : 0,
            "byteLength" : 3360,
            "byteOffset" : 24064
        },
        {
            "buffer" : 0,
            "byteLength" : 11997,
            "byteOffset" : 27424
        },
        {
            "buffer" : 0,
            "byteLength" : 2688,
            "byteOffset" : 39424
        },
        {
            "buffer" : 0,
            "byteLength" : 2688,
            "byteOffset" : 42112
        },
        {
            "buffer" : 0,
            "byteLength" : 1792,
            "byteOffset" : 44800
        },
        {
            "buffer" : 0,
            "byteLength" : 1680,
            "byteOffset" : 46592
        },
        {
            "buffer" : 0,
            "byteLength" : 7836,
            "byteOffset" : 48272
        },
        {
            "buffer" : 0,
            "byteLength" : 7836,
            "byteOffset" : 56108
        },
        {
            "buffer" : 0,
            "byteLength" : 5224,
            "byteOffset" : 63944
        },
        {
            "buffer" : 0,
            "byteLength" : 3912,
            "byteOffset" : 69168
        },
        {
            "buffer" : 0,
            "byteLength" : 6936,
            "byteOffset" : 73080
        },
        {
            "buffer" : 0,
            "byteLength" : 6936,
            "byteOffset" : 80016
        },
        {
            "buffer" : 0,
            "byteLength" : 4624,
            "byteOffset" : 86952
        },
        {
            "buffer" : 0,
            "byteLength" : 4836,
            "byteOffset" : 91576
        },
        {
            "buffer" : 0,
            "byteLength" : 9024,
            "byteOffset" : 96412
        },
        {
            "buffer" : 0,
            "byteLength" : 9024,
            "byteOffset" : 105436
        },
        {
            "buffer" : 0,
            "byteLength" : 6016,
            "byteOffset" : 114460
        },
        {
            "buffer" : 0,
            "byteLength" : 3360,
            "byteOffset" : 120476
        }
    ],
    "samplers" : [
        {
            "magFilter" : 9729,
            "minFilter" : 9987
        }
    ],
    "buffers" : [
        {
            "byteLength" : 123836,
            "uri" : "data:application/octet-stream;base64,"
        }
    ]
}
