{
    "asset" : {
        "copyright" : "Jeremy Edelblut",
        "generator" : "Khronos glTF Blender I/O v1.6.16",
        "version" : "2.0"
    },
    "scene" : 0,
    "scenes" : [
        {
            "name" : "Scene",
            "nodes" : [
                0,
                1,
                2,
                3,
                4,
                5
            ]
        }
    ],
    "nodes" : [
        {
            "mesh" : 0,
            "name" : "Circle.1925",
            "rotation" : [
                0.7071068286895752,
                0,
                0,
                0.7071068286895752
            ],
            "scale" : [
                1.3000000715255737,
                1.3000000715255737,
                1.3000000715255737
            ],
            "translation" : [
                0.0015990401152521372,
                -0.06877575069665909,
                -0.6847890019416809
            ]
        },
        {
            "mesh" : 1,
            "name" : "Cube.6252",
            "rotation" : [
                0,
                -0.7071068286895752,
                0,
                0.7071068286895752
            ],
            "scale" : [
                1.3000000715255737,
                1.3000000715255737,
                1.3000000715255737
            ],
            "translation" : [
                -7.737046689726412e-05,
                -0.06877575069665909,
                -0.6847890019416809
            ]
        },
        {
            "mesh" : 2,
            "name" : "Cube.6254",
            "rotation" : [
                -0.7049938440322876,
                0.05462358891963959,
                -0.7049938440322876,
                0.05462302640080452
            ],
            "scale" : [
                1.2393406629562378,
                1.2393406629562378,
                1.2393405437469482
            ],
            "translation" : [
                -7.738257409073412e-05,
                -0.5560558438301086,
                0.1104494035243988
            ]
        },
        {
            "mesh" : 3,
            "name" : "Cube.6255",
            "rotation" : [
                0.6958518028259277,
                -0.1256595253944397,
                -0.695851743221283,
                0.1256595253944397
            ],
            "scale" : [
                0.11314541101455688,
                0.17074698209762573,
                0.2567994296550751
            ],
            "translation" : [
                -7.740920409560204e-05,
                -0.25802090764045715,
                0.605947732925415
            ]
        },
        {
            "mesh" : 4,
            "name" : "Cylinder.363",
            "rotation" : [
                0,
                -0.7071068286895752,
                0,
                0.7071068286895752
            ],
            "scale" : [
                1.3000000715255737,
                1.3000000715255737,
                1.3000000715255737
            ],
            "translation" : [
                -7.737046689726412e-05,
                -0.06877575069665909,
                -0.6847890019416809
            ]
        },
        {
            "mesh" : 5,
            "name" : "3moji.org.235",
            "rotation" : [
                0.03378169238567352,
                0.7062994837760925,
                0.03378169983625412,
                0.7062992453575134
            ],
            "scale" : [
                0.004751031287014484,
                0.004751031287014484,
                0.004751031287014484
            ],
            "translation" : [
                -0.0024158223532140255,
                -0.16473250091075897,
                -1.7659997940063477
            ]
        }
    ],
    "materials" : [
        {
            "doubleSided" : true,
            "name" : "DKBrown",
            "pbrMetallicRoughness" : {
                "baseColorFactor" : [
                    0.010021701455116272,
                    0.0023923655971884727,
                    0.0018060366855934262,
                    1
                ],
                "metallicFactor" : 0,
                "roughnessFactor" : 0.5
            }
        },
        {
            "doubleSided" : true,
            "name" : "Brown",
            "pbrMetallicRoughness" : {
                "baseColorFactor" : [
                    0.07322511821985245,
                    0.02384052984416485,
                    0.021921303123235703,
                    1
                ],
                "metallicFactor" : 0,
                "roughnessFactor" : 0.5
            }
        },
        {
            "doubleSided" : true,
            "name" : "Color",
            "pbrMetallicRoughness" : {
                "baseColorTexture" : {
                    "index" : 0
                },
                "metallicFactor" : 0,
                "roughnessFactor" : 0.5
            }
        }
    ],
    "meshes" : [
        {
            "name" : "Circle.2142",
            "primitives" : [
                {
                    "attributes" : {
                        "POSITION" : 0,
                        "NORMAL" : 1,
                        "TEXCOORD_0" : 2
                    },
                    "indices" : 3,
                    "material" : 0
                }
            ]
        },
        {
            "name" : "Cube.7312",
            "primitives" : [
                {
                    "attributes" : {
                        "POSITION" : 4,
                        "NORMAL" : 5,
                        "TEXCOORD_0" : 6
                    },
                    "indices" : 7,
                    "material" : 1
                }
            ]
        },
        {
            "name" : "Cube.7314",
            "primitives" : [
                {
                    "attributes" : {
                        "POSITION" : 8,
                        "NORMAL" : 9,
                        "TEXCOORD_0" : 10
                    },
                    "indices" : 11,
                    "material" : 2
                }
            ]
        },
        {
            "name" : "Cube.7315",
            "primitives" : [
                {
                    "attributes" : {
                        "POSITION" : 12,
                        "NORMAL" : 13,
                        "TEXCOORD_0" : 14
                    },
                    "indices" : 7,
                    "material" : 0
                }
            ]
        },
        {
            "name" : "Cylinder.307",
            "primitives" : [
                {
                    "attributes" : {
                        "POSITION" : 15,
                        "NORMAL" : 16,
                        "TEXCOORD_0" : 17
                    },
                    "indices" : 18,
                    "material" : 1
                },
                {
                    "attributes" : {
                        "POSITION" : 19,
                        "NORMAL" : 20,
                        "TEXCOORD_0" : 21
                    },
                    "indices" : 22,
                    "material" : 2
                }
            ]
        },
        {
            "name" : "Cube.699",
            "primitives" : [
                {
                    "attributes" : {
                        "POSITION" : 23,
                        "NORMAL" : 24,
                        "TEXCOORD_0" : 25
                    },
                    "indices" : 26,
                    "material" : 2
                }
            ]
        }
    ],
    "textures" : [
        {
            "sampler" : 0,
            "source" : 0
        }
    ],
    "images" : [
        {
            "bufferView" : 12,
            "mimeType" : "image/png",
            "name" : "tex2"
        }
    ],
    "accessors" : [
        {
            "bufferView" : 0,
            "componentType" : 5126,
            "count" : 752,
            "max" : [
                0.4176332652568817,
                0.7927348613739014,
                -0.09935794025659561
            ],
            "min" : [
                -0.4176332652568817,
                0.6609739065170288,
                -0.36537548899650574
            ],
            "type" : "VEC3"
        },
        {
            "bufferView" : 1,
            "componentType" : 5126,
            "count" : 752,
            "type" : "VEC3"
        },
        {
            "bufferView" : 2,
            "componentType" : 5126,
            "count" : 752,
            "type" : "VEC2"
        },
        {
            "bufferView" : 3,
            "componentType" : 5123,
            "count" : 2880,
            "type" : "SCALAR"
        },
        {
            "bufferView" : 4,
            "componentType" : 5126,
            "count" : 441,
            "max" : [
                0.8395062685012817,
                0.8395062685012817,
                0.8395062685012817
            ],
            "min" : [
                -0.8395062685012817,
                -0.8395062685012817,
                -0.8395062685012817
            ],
            "type" : "VEC3"
        },
        {
            "bufferView" : 5,
            "componentType" : 5126,
            "count" : 441,
            "type" : "VEC3"
        },
        {
            "bufferView" : 6,
            "componentType" : 5126,
            "count" : 441,
            "type" : "VEC2"
        },
        {
            "bufferView" : 7,
            "componentType" : 5123,
            "count" : 2304,
            "type" : "SCALAR"
        },
        {
            "bufferView" : 8,
            "componentType" : 5126,
            "count" : 288,
            "max" : [
                0.4343861937522888,
                0.18389034271240234,
                0.4341343939304352
            ],
            "min" : [
                0.04678597301244736,
                -0.44742682576179504,
                -0.43413451313972473
            ],
            "type" : "VEC3"
        },
        {
            "bufferView" : 9,
            "componentType" : 5126,
            "count" : 288,
            "type" : "VEC3"
        },
        {
            "bufferView" : 10,
            "componentType" : 5126,
            "count" : 288,
            "type" : "VEC2"
        },
        {
            "bufferView" : 11,
            "componentType" : 5123,
            "count" : 1536,
            "type" : "SCALAR"
        },
        {
            "bufferView" : 13,
            "componentType" : 5126,
            "count" : 441,
            "max" : [
                0.8395062685012817,
                0.8395062685012817,
                0.8395062685012817
            ],
            "min" : [
                -0.8395062685012817,
                -0.8395062685012817,
                -0.8395062685012817
            ],
            "type" : "VEC3"
        },
        {
            "bufferView" : 14,
            "componentType" : 5126,
            "count" : 441,
            "type" : "VEC3"
        },
        {
            "bufferView" : 15,
            "componentType" : 5126,
            "count" : 441,
            "type" : "VEC2"
        },
        {
            "bufferView" : 16,
            "componentType" : 5126,
            "count" : 302,
            "max" : [
                0.09892387688159943,
                0.9748409986495972,
                0.757483959197998
            ],
            "min" : [
                -0.10047221183776855,
                0.36600300669670105,
                -0.757483959197998
            ],
            "type" : "VEC3"
        },
        {
            "bufferView" : 17,
            "componentType" : 5126,
            "count" : 302,
            "type" : "VEC3"
        },
        {
            "bufferView" : 18,
            "componentType" : 5126,
            "count" : 302,
            "type" : "VEC2"
        },
        {
            "bufferView" : 19,
            "componentType" : 5123,
            "count" : 852,
            "type" : "SCALAR"
        },
        {
            "bufferView" : 20,
            "componentType" : 5126,
            "count" : 32,
            "max" : [
                0.04052095115184784,
                0.8786399364471436,
                0.6612828969955444
            ],
            "min" : [
                0.04052094370126724,
                0.46220409870147705,
                -0.6612828969955444
            ],
            "type" : "VEC3"
        },
        {
            "bufferView" : 21,
            "componentType" : 5126,
            "count" : 32,
            "type" : "VEC3"
        },
        {
            "bufferView" : 22,
            "componentType" : 5126,
            "count" : 32,
            "type" : "VEC2"
        },
        {
            "bufferView" : 23,
            "componentType" : 5123,
            "count" : 84,
            "type" : "SCALAR"
        },
        {
            "bufferView" : 24,
            "componentType" : 5126,
            "count" : 752,
            "max" : [
                1.2953357696533203,
                7.90000057220459,
                17.240537643432617
            ],
            "min" : [
                2.8697024390567094e-05,
                -1.8999989032745361,
                -19.159460067749023
            ],
            "type" : "VEC3"
        },
        {
            "bufferView" : 25,
            "componentType" : 5126,
            "count" : 752,
            "type" : "VEC3"
        },
        {
            "bufferView" : 26,
            "componentType" : 5126,
            "count" : 752,
            "type" : "VEC2"
        },
        {
            "bufferView" : 27,
            "componentType" : 5123,
            "count" : 1680,
            "type" : "SCALAR"
        }
    ],
    "bufferViews" : [
        {
            "buffer" : 0,
            "byteLength" : 9024,
            "byteOffset" : 0
        },
        {
            "buffer" : 0,
            "byteLength" : 9024,
            "byteOffset" : 9024
        },
        {
            "buffer" : 0,
            "byteLength" : 6016,
            "byteOffset" : 18048
        },
        {
            "buffer" : 0,
            "byteLength" : 5760,
            "byteOffset" : 24064
        },
        {
            "buffer" : 0,
            "byteLength" : 5292,
            "byteOffset" : 29824
        },
        {
            "buffer" : 0,
            "byteLength" : 5292,
            "byteOffset" : 35116
        },
        {
            "buffer" : 0,
            "byteLength" : 3528,
            "byteOffset" : 40408
        },
        {
            "buffer" : 0,
            "byteLength" : 4608,
            "byteOffset" : 43936
        },
        {
            "buffer" : 0,
            "byteLength" : 3456,
            "byteOffset" : 48544
        },
        {
            "buffer" : 0,
            "byteLength" : 3456,
            "byteOffset" : 52000
        },
        {
            "buffer" : 0,
            "byteLength" : 2304,
            "byteOffset" : 55456
        },
        {
            "buffer" : 0,
            "byteLength" : 3072,
            "byteOffset" : 57760
        },
        {
            "buffer" : 0,
            "byteLength" : 6474,
            "byteOffset" : 60832
        },
        {
            "buffer" : 0,
            "byteLength" : 5292,
            "byteOffset" : 67308
        },
        {
            "buffer" : 0,
            "byteLength" : 5292,
            "byteOffset" : 72600
        },
        {
            "buffer" : 0,
            "byteLength" : 3528,
            "byteOffset" : 77892
        },
        {
            "buffer" : 0,
            "byteLength" : 3624,
            "byteOffset" : 81420
        },
        {
            "buffer" : 0,
            "byteLength" : 3624,
            "byteOffset" : 85044
        },
        {
            "buffer" : 0,
            "byteLength" : 2416,
            "byteOffset" : 88668
        },
        {
            "buffer" : 0,
            "byteLength" : 1704,
            "byteOffset" : 91084
        },
        {
            "buffer" : 0,
            "byteLength" : 384,
            "byteOffset" : 92788
        },
        {
            "buffer" : 0,
            "byteLength" : 384,
            "byteOffset" : 93172
        },
        {
            "buffer" : 0,
            "byteLength" : 256,
            "byteOffset" : 93556
        },
        {
            "buffer" : 0,
            "byteLength" : 168,
            "byteOffset" : 93812
        },
        {
            "buffer" : 0,
            "byteLength" : 9024,
            "byteOffset" : 93980
        },
        {
            "buffer" : 0,
            "byteLength" : 9024,
            "byteOffset" : 103004
        },
        {
            "buffer" : 0,
            "byteLength" : 6016,
            "byteOffset" : 112028
        },
        {
            "buffer" : 0,
            "byteLength" : 3360,
            "byteOffset" : 118044
        }
    ],
    "samplers" : [
        {
            "magFilter" : 9729,
            "minFilter" : 9987
        }
    ],
    "buffers" : [
        {
            "byteLength" : 121404,
            "uri" : "data:application/octet-stream;base64,"
        }
    ]
}
