{
    "asset" : {
        "copyright" : "Jeremy Edelblut",
        "generator" : "Khronos glTF Blender I/O v1.6.16",
        "version" : "2.0"
    },
    "scene" : 0,
    "scenes" : [
        {
            "name" : "Scene",
            "nodes" : [
                0
            ]
        }
    ],
    "nodes" : [
        {
            "mesh" : 0,
            "name" : "Cube.236",
            "scale" : [
                0.800000011920929,
                0.800000011920929,
                0.800000011920929
            ],
            "translation" : [
                -0.04500579833984375,
                -0.0861259251832962,
                -0.00017964327707886696
            ]
        }
    ],
    "materials" : [
        {
            "doubleSided" : true,
            "name" : "Color",
            "pbrMetallicRoughness" : {
                "baseColorTexture" : {
                    "index" : 0
                },
                "metallicFactor" : 0,
                "roughnessFactor" : 0.5
            }
        }
    ],
    "meshes" : [
        {
            "name" : "Cube.7916",
            "primitives" : [
                {
                    "attributes" : {
                        "POSITION" : 0,
                        "NORMAL" : 1,
                        "TEXCOORD_0" : 2
                    },
                    "indices" : 3,
                    "material" : 0
                }
            ]
        }
    ],
    "textures" : [
        {
            "sampler" : 0,
            "source" : 0
        }
    ],
    "images" : [
        {
            "bufferView" : 4,
            "mimeType" : "image/png",
            "name" : "tex2"
        }
    ],
    "accessors" : [
        {
            "bufferView" : 0,
            "componentType" : 5126,
            "count" : 1867,
            "max" : [
                1.3235076665878296,
                0.6803227663040161,
                0.8837552666664124
            ],
            "min" : [
                -1.2078603506088257,
                -0.5699545741081238,
                -0.8840407133102417
            ],
            "type" : "VEC3"
        },
        {
            "bufferView" : 1,
            "componentType" : 5126,
            "count" : 1867,
            "type" : "VEC3"
        },
        {
            "bufferView" : 2,
            "componentType" : 5126,
            "count" : 1867,
            "type" : "VEC2"
        },
        {
            "bufferView" : 3,
            "componentType" : 5123,
            "count" : 7947,
            "type" : "SCALAR"
        }
    ],
    "bufferViews" : [
        {
            "buffer" : 0,
            "byteLength" : 22404,
            "byteOffset" : 0
        },
        {
            "buffer" : 0,
            "byteLength" : 22404,
            "byteOffset" : 22404
        },
        {
            "buffer" : 0,
            "byteLength" : 14936,
            "byteOffset" : 44808
        },
        {
            "buffer" : 0,
            "byteLength" : 15894,
            "byteOffset" : 59744
        },
        {
            "buffer" : 0,
            "byteLength" : 6474,
            "byteOffset" : 75640
        }
    ],
    "samplers" : [
        {
            "magFilter" : 9729,
            "minFilter" : 9987
        }
    ],
    "buffers" : [
        {
            "byteLength" : 82116,
            "uri" : "data:application/octet-stream;base64,"
        }
    ]
}
