{
    "asset" : {
        "copyright" : "Jeremy Edelblut",
        "generator" : "Khronos glTF Blender I/O v1.6.16",
        "version" : "2.0"
    },
    "scene" : 0,
    "scenes" : [
        {
            "name" : "Scene",
            "nodes" : [
                0
            ]
        }
    ],
    "nodes" : [
        {
            "mesh" : 0,
            "name" : "Sphere.484",
            "rotation" : [
                0,
                -0.5594282746315002,
                0,
                0.8288787603378296
            ],
            "scale" : [
                1.014267921447754,
                1.0142676830291748,
                1.014267921447754
            ],
            "translation" : [
                -0.009163415059447289,
                -0.12581805884838104,
                0
            ]
        }
    ],
    "materials" : [
        {
            "doubleSided" : true,
            "name" : "Color",
            "pbrMetallicRoughness" : {
                "baseColorTexture" : {
                    "index" : 0
                },
                "metallicFactor" : 0,
                "roughnessFactor" : 0.5
            }
        }
    ],
    "meshes" : [
        {
            "name" : "Sphere.480",
            "primitives" : [
                {
                    "attributes" : {
                        "POSITION" : 0,
                        "NORMAL" : 1,
                        "TEXCOORD_0" : 2
                    },
                    "indices" : 3,
                    "material" : 0
                }
            ]
        }
    ],
    "textures" : [
        {
            "sampler" : 0,
            "source" : 0
        }
    ],
    "images" : [
        {
            "bufferView" : 4,
            "mimeType" : "image/png",
            "name" : "tex2"
        }
    ],
    "accessors" : [
        {
            "bufferView" : 0,
            "componentType" : 5126,
            "count" : 2457,
            "max" : [
                0.8964318633079529,
                1.23802649974823,
                0.8964316248893738
            ],
            "min" : [
                -0.8964313268661499,
                -0.9321036338806152,
                -0.8964317440986633
            ],
            "type" : "VEC3"
        },
        {
            "bufferView" : 1,
            "componentType" : 5126,
            "count" : 2457,
            "type" : "VEC3"
        },
        {
            "bufferView" : 2,
            "componentType" : 5126,
            "count" : 2457,
            "type" : "VEC2"
        },
        {
            "bufferView" : 3,
            "componentType" : 5123,
            "count" : 13584,
            "type" : "SCALAR"
        }
    ],
    "bufferViews" : [
        {
            "buffer" : 0,
            "byteLength" : 29484,
            "byteOffset" : 0
        },
        {
            "buffer" : 0,
            "byteLength" : 29484,
            "byteOffset" : 29484
        },
        {
            "buffer" : 0,
            "byteLength" : 19656,
            "byteOffset" : 58968
        },
        {
            "buffer" : 0,
            "byteLength" : 27168,
            "byteOffset" : 78624
        },
        {
            "buffer" : 0,
            "byteLength" : 6474,
            "byteOffset" : 105792
        }
    ],
    "samplers" : [
        {
            "magFilter" : 9729,
            "minFilter" : 9987
        }
    ],
    "buffers" : [
        {
            "byteLength" : 112268,
            "uri" : "data:application/octet-stream;base64,"
        }
    ]
}
