{
    "asset" : {
        "copyright" : "Jeremy Edelblut",
        "generator" : "Khronos glTF Blender I/O v1.6.16",
        "version" : "2.0"
    },
    "scene" : 0,
    "scenes" : [
        {
            "name" : "Scene",
            "nodes" : [
                0,
                1,
                2
            ]
        }
    ],
    "nodes" : [
        {
            "mesh" : 0,
            "name" : "Circle.1884",
            "rotation" : [
                0.7071068286895752,
                0,
                0,
                0.7071068286895752
            ],
            "translation" : [
                0,
                0.7188584208488464,
                0.03750615194439888
            ]
        },
        {
            "mesh" : 1,
            "name" : "Cube.6222"
        },
        {
            "mesh" : 2,
            "name" : "Plane.116",
            "scale" : [
                1.4198987483978271,
                1.4198987483978271,
                1.4198987483978271
            ]
        }
    ],
    "materials" : [
        {
            "doubleSided" : true,
            "name" : "DKBrown",
            "pbrMetallicRoughness" : {
                "baseColorFactor" : [
                    0.010021701455116272,
                    0.0023923655971884727,
                    0.0018060366855934262,
                    1
                ],
                "metallicFactor" : 0,
                "roughnessFactor" : 0.5
            }
        },
        {
            "doubleSided" : true,
            "name" : "DKgray",
            "pbrMetallicRoughness" : {
                "baseColorFactor" : [
                    0.03682169318199158,
                    0.03446357324719429,
                    0.03740420565009117,
                    1
                ],
                "metallicFactor" : 0,
                "roughnessFactor" : 0.5
            }
        },
        {
            "doubleSided" : true,
            "name" : "Brown",
            "pbrMetallicRoughness" : {
                "baseColorFactor" : [
                    0.07322511821985245,
                    0.02384052984416485,
                    0.021921303123235703,
                    1
                ],
                "metallicFactor" : 0,
                "roughnessFactor" : 0.5
            }
        }
    ],
    "meshes" : [
        {
            "name" : "Circle.2100",
            "primitives" : [
                {
                    "attributes" : {
                        "POSITION" : 0,
                        "NORMAL" : 1,
                        "TEXCOORD_0" : 2
                    },
                    "indices" : 3,
                    "material" : 0
                }
            ]
        },
        {
            "name" : "Cube.7277",
            "primitives" : [
                {
                    "attributes" : {
                        "POSITION" : 4,
                        "NORMAL" : 5,
                        "TEXCOORD_0" : 6
                    },
                    "indices" : 7,
                    "material" : 1
                }
            ]
        },
        {
            "name" : "Plane.119",
            "primitives" : [
                {
                    "attributes" : {
                        "POSITION" : 8,
                        "NORMAL" : 9,
                        "TEXCOORD_0" : 10
                    },
                    "indices" : 11,
                    "material" : 2
                },
                {
                    "attributes" : {
                        "POSITION" : 12,
                        "NORMAL" : 13,
                        "TEXCOORD_0" : 14
                    },
                    "indices" : 15,
                    "material" : 1
                },
                {
                    "attributes" : {
                        "POSITION" : 16,
                        "NORMAL" : 17,
                        "TEXCOORD_0" : 18
                    },
                    "indices" : 19,
                    "material" : 0
                },
                {
                    "attributes" : {
                        "POSITION" : 20,
                        "NORMAL" : 21,
                        "TEXCOORD_0" : 22
                    },
                    "indices" : 23
                }
            ]
        }
    ],
    "accessors" : [
        {
            "bufferView" : 0,
            "componentType" : 5126,
            "count" : 660,
            "max" : [
                0.4133783280849457,
                2.1501049995422363,
                0.7129399180412292
            ],
            "min" : [
                -0.4133783280849457,
                1.879583716392517,
                0.44725102186203003
            ],
            "type" : "VEC3"
        },
        {
            "bufferView" : 1,
            "componentType" : 5126,
            "count" : 660,
            "type" : "VEC3"
        },
        {
            "bufferView" : 2,
            "componentType" : 5126,
            "count" : 660,
            "type" : "VEC2"
        },
        {
            "bufferView" : 3,
            "componentType" : 5123,
            "count" : 2352,
            "type" : "SCALAR"
        },
        {
            "bufferView" : 4,
            "componentType" : 5126,
            "count" : 208,
            "max" : [
                0.8254501819610596,
                1.5114235877990723,
                2.0878987312316895
            ],
            "min" : [
                -0.8254501819610596,
                0.5490801334381104,
                1.805672287940979
            ],
            "type" : "VEC3"
        },
        {
            "bufferView" : 5,
            "componentType" : 5126,
            "count" : 208,
            "type" : "VEC3"
        },
        {
            "bufferView" : 6,
            "componentType" : 5126,
            "count" : 208,
            "type" : "VEC2"
        },
        {
            "bufferView" : 7,
            "componentType" : 5123,
            "count" : 564,
            "type" : "SCALAR"
        },
        {
            "bufferView" : 8,
            "componentType" : 5126,
            "count" : 465,
            "max" : [
                0.5704275369644165,
                1.046128273010254,
                1.9803385734558105
            ],
            "min" : [
                -0.5704275369644165,
                -2.1721456050872803,
                -1.9075201749801636
            ],
            "type" : "VEC3"
        },
        {
            "bufferView" : 9,
            "componentType" : 5126,
            "count" : 465,
            "type" : "VEC3"
        },
        {
            "bufferView" : 10,
            "componentType" : 5126,
            "count" : 465,
            "type" : "VEC2"
        },
        {
            "bufferView" : 11,
            "componentType" : 5123,
            "count" : 1404,
            "type" : "SCALAR"
        },
        {
            "bufferView" : 12,
            "componentType" : 5126,
            "count" : 80,
            "max" : [
                0.5,
                -2.1338348388671875,
                0.9611805081367493
            ],
            "min" : [
                -0.5,
                -2.27781343460083,
                -1.574426531791687
            ],
            "type" : "VEC3"
        },
        {
            "bufferView" : 13,
            "componentType" : 5126,
            "count" : 80,
            "type" : "VEC3"
        },
        {
            "bufferView" : 14,
            "componentType" : 5126,
            "count" : 80,
            "type" : "VEC2"
        },
        {
            "bufferView" : 15,
            "componentType" : 5123,
            "count" : 120,
            "type" : "SCALAR"
        },
        {
            "bufferView" : 16,
            "componentType" : 5126,
            "count" : 60,
            "max" : [
                0.2770472764968872,
                -0.5944356918334961,
                1.9193798303604126
            ],
            "min" : [
                -0.2770472764968872,
                -0.8842702507972717,
                1.6403709650039673
            ],
            "type" : "VEC3"
        },
        {
            "bufferView" : 17,
            "componentType" : 5126,
            "count" : 60,
            "type" : "VEC3"
        },
        {
            "bufferView" : 18,
            "componentType" : 5126,
            "count" : 60,
            "type" : "VEC2"
        },
        {
            "bufferView" : 19,
            "componentType" : 5123,
            "count" : 120,
            "type" : "SCALAR"
        },
        {
            "bufferView" : 20,
            "componentType" : 5126,
            "count" : 428,
            "max" : [
                0.5704275369644165,
                1.3584368228912354,
                1.2121473550796509
            ],
            "min" : [
                -0.5704275369644165,
                -1.1369141340255737,
                -0.14063331484794617
            ],
            "type" : "VEC3"
        },
        {
            "bufferView" : 21,
            "componentType" : 5126,
            "count" : 428,
            "type" : "VEC3"
        },
        {
            "bufferView" : 22,
            "componentType" : 5126,
            "count" : 428,
            "type" : "VEC2"
        },
        {
            "bufferView" : 23,
            "componentType" : 5123,
            "count" : 1188,
            "type" : "SCALAR"
        }
    ],
    "bufferViews" : [
        {
            "buffer" : 0,
            "byteLength" : 7920,
            "byteOffset" : 0
        },
        {
            "buffer" : 0,
            "byteLength" : 7920,
            "byteOffset" : 7920
        },
        {
            "buffer" : 0,
            "byteLength" : 5280,
            "byteOffset" : 15840
        },
        {
            "buffer" : 0,
            "byteLength" : 4704,
            "byteOffset" : 21120
        },
        {
            "buffer" : 0,
            "byteLength" : 2496,
            "byteOffset" : 25824
        },
        {
            "buffer" : 0,
            "byteLength" : 2496,
            "byteOffset" : 28320
        },
        {
            "buffer" : 0,
            "byteLength" : 1664,
            "byteOffset" : 30816
        },
        {
            "buffer" : 0,
            "byteLength" : 1128,
            "byteOffset" : 32480
        },
        {
            "buffer" : 0,
            "byteLength" : 5580,
            "byteOffset" : 33608
        },
        {
            "buffer" : 0,
            "byteLength" : 5580,
            "byteOffset" : 39188
        },
        {
            "buffer" : 0,
            "byteLength" : 3720,
            "byteOffset" : 44768
        },
        {
            "buffer" : 0,
            "byteLength" : 2808,
            "byteOffset" : 48488
        },
        {
            "buffer" : 0,
            "byteLength" : 960,
            "byteOffset" : 51296
        },
        {
            "buffer" : 0,
            "byteLength" : 960,
            "byteOffset" : 52256
        },
        {
            "buffer" : 0,
            "byteLength" : 640,
            "byteOffset" : 53216
        },
        {
            "buffer" : 0,
            "byteLength" : 240,
            "byteOffset" : 53856
        },
        {
            "buffer" : 0,
            "byteLength" : 720,
            "byteOffset" : 54096
        },
        {
            "buffer" : 0,
            "byteLength" : 720,
            "byteOffset" : 54816
        },
        {
            "buffer" : 0,
            "byteLength" : 480,
            "byteOffset" : 55536
        },
        {
            "buffer" : 0,
            "byteLength" : 240,
            "byteOffset" : 56016
        },
        {
            "buffer" : 0,
            "byteLength" : 5136,
            "byteOffset" : 56256
        },
        {
            "buffer" : 0,
            "byteLength" : 5136,
            "byteOffset" : 61392
        },
        {
            "buffer" : 0,
            "byteLength" : 3424,
            "byteOffset" : 66528
        },
        {
            "buffer" : 0,
            "byteLength" : 2376,
            "byteOffset" : 69952
        }
    ],
    "buffers" : [
        {
            "byteLength" : 72328,
            "uri" : "data:application/octet-stream;base64,"
        }
    ]
}
