{
    "asset" : {
        "copyright" : "Jeremy Edelblut",
        "generator" : "Khronos glTF Blender I/O v1.6.16",
        "version" : "2.0"
    },
    "scene" : 0,
    "scenes" : [
        {
            "name" : "Scene",
            "nodes" : [
                0,
                1,
                2,
                3,
                4,
                5
            ]
        }
    ],
    "nodes" : [
        {
            "mesh" : 0,
            "name" : "Circle.296",
            "rotation" : [
                0.7071068286895752,
                0,
                0,
                0.7071068286895752
            ],
            "scale" : [
                2.706974744796753,
                2.706974744796753,
                2.706974744796753
            ]
        },
        {
            "mesh" : 1,
            "name" : "Circle.297",
            "rotation" : [
                0.7071068286895752,
                0,
                0,
                0.7071068286895752
            ],
            "scale" : [
                2.706974744796753,
                2.706974744796753,
                2.706974744796753
            ]
        },
        {
            "mesh" : 2,
            "name" : "Cylinder.013",
            "rotation" : [
                0,
                -0.7071068286895752,
                0,
                0.7071068286895752
            ],
            "scale" : [
                0.7010374069213867,
                0.7010374069213867,
                0.7010374069213867
            ]
        },
        {
            "mesh" : 3,
            "name" : "Roundcube.004",
            "rotation" : [
                0,
                -0.7071068286895752,
                0,
                0.7071068286895752
            ],
            "scale" : [
                0.7010374069213867,
                0.7010374069213867,
                0.7010374069213867
            ]
        },
        {
            "mesh" : 4,
            "name" : "Cube.155",
            "rotation" : [
                0.15383964776992798,
                -0.7492061257362366,
                -0.09783472120761871,
                0.636751115322113
            ],
            "scale" : [
                0.10076522827148438,
                0.10076525807380676,
                0.10076522082090378
            ]
        },
        {
            "mesh" : 5,
            "name" : "Circle.299",
            "rotation" : [
                0.7071068286895752,
                0,
                0,
                0.7071068286895752
            ]
        }
    ],
    "materials" : [
        {
            "doubleSided" : true,
            "name" : "DKBrown",
            "pbrMetallicRoughness" : {
                "baseColorFactor" : [
                    0.010021701455116272,
                    0.0023923655971884727,
                    0.0018060366855934262,
                    1
                ],
                "metallicFactor" : 0,
                "roughnessFactor" : 0.5
            }
        },
        {
            "doubleSided" : true,
            "name" : "Light_Brown",
            "pbrMetallicRoughness" : {
                "baseColorFactor" : [
                    0.3613067865371704,
                    0.15896087884902954,
                    0.013702086172997952,
                    1
                ],
                "metallicFactor" : 0,
                "roughnessFactor" : 0.5
            }
        },
        {
            "doubleSided" : true,
            "name" : "Yellow_body",
            "pbrMetallicRoughness" : {
                "baseColorTexture" : {
                    "index" : 0
                },
                "metallicFactor" : 0,
                "roughnessFactor" : 0.5
            }
        },
        {
            "doubleSided" : true,
            "name" : "Brown",
            "pbrMetallicRoughness" : {
                "baseColorFactor" : [
                    0.07322511821985245,
                    0.02384052984416485,
                    0.021921303123235703,
                    1
                ],
                "metallicFactor" : 0,
                "roughnessFactor" : 0.5
            }
        },
        {
            "doubleSided" : true,
            "name" : "Color",
            "pbrMetallicRoughness" : {
                "baseColorTexture" : {
                    "index" : 1
                },
                "metallicFactor" : 0,
                "roughnessFactor" : 0.5
            }
        }
    ],
    "meshes" : [
        {
            "name" : "Circle.322",
            "primitives" : [
                {
                    "attributes" : {
                        "POSITION" : 0,
                        "NORMAL" : 1,
                        "TEXCOORD_0" : 2
                    },
                    "indices" : 3,
                    "material" : 0
                }
            ]
        },
        {
            "name" : "Circle.323",
            "primitives" : [
                {
                    "attributes" : {
                        "POSITION" : 4,
                        "NORMAL" : 5,
                        "TEXCOORD_0" : 6
                    },
                    "indices" : 7,
                    "material" : 1
                }
            ]
        },
        {
            "name" : "Cylinder.013",
            "primitives" : [
                {
                    "attributes" : {
                        "POSITION" : 8,
                        "NORMAL" : 9,
                        "TEXCOORD_0" : 10
                    },
                    "indices" : 11,
                    "material" : 2
                }
            ]
        },
        {
            "name" : "Roundcube.004",
            "primitives" : [
                {
                    "attributes" : {
                        "POSITION" : 12,
                        "NORMAL" : 13,
                        "TEXCOORD_0" : 14
                    },
                    "indices" : 15,
                    "material" : 2
                },
                {
                    "attributes" : {
                        "POSITION" : 16,
                        "NORMAL" : 17,
                        "TEXCOORD_0" : 18
                    },
                    "indices" : 19,
                    "material" : 3
                },
                {
                    "attributes" : {
                        "POSITION" : 20,
                        "NORMAL" : 21,
                        "TEXCOORD_0" : 22
                    },
                    "indices" : 23,
                    "material" : 0
                }
            ]
        },
        {
            "name" : "Cube.280",
            "primitives" : [
                {
                    "attributes" : {
                        "POSITION" : 24,
                        "NORMAL" : 25,
                        "TEXCOORD_0" : 26
                    },
                    "indices" : 27,
                    "material" : 4
                }
            ]
        },
        {
            "name" : "Circle.328",
            "primitives" : [
                {
                    "attributes" : {
                        "POSITION" : 28,
                        "NORMAL" : 29,
                        "TEXCOORD_0" : 30
                    },
                    "indices" : 31,
                    "material" : 4
                }
            ]
        }
    ],
    "textures" : [
        {
            "sampler" : 0,
            "source" : 0
        },
        {
            "sampler" : 0,
            "source" : 1
        }
    ],
    "images" : [
        {
            "bufferView" : 12,
            "mimeType" : "image/png",
            "name" : "Rectangle 863"
        },
        {
            "bufferView" : 29,
            "mimeType" : "image/png",
            "name" : "tex2"
        }
    ],
    "accessors" : [
        {
            "bufferView" : 0,
            "componentType" : 5126,
            "count" : 452,
            "max" : [
                0.13130351901054382,
                0.2164182960987091,
                0.03634754195809364
            ],
            "min" : [
                -0.13130351901054382,
                0.17896686494350433,
                -0.055240701884031296
            ],
            "type" : "VEC3"
        },
        {
            "bufferView" : 1,
            "componentType" : 5126,
            "count" : 452,
            "type" : "VEC3"
        },
        {
            "bufferView" : 2,
            "componentType" : 5126,
            "count" : 452,
            "type" : "VEC2"
        },
        {
            "bufferView" : 3,
            "componentType" : 5123,
            "count" : 1920,
            "type" : "SCALAR"
        },
        {
            "bufferView" : 4,
            "componentType" : 5126,
            "count" : 422,
            "max" : [
                0.025262437760829926,
                0.2220267951488495,
                0.06963935494422913
            ],
            "min" : [
                -0.02451690286397934,
                0.20889705419540405,
                0.040467239916324615
            ],
            "type" : "VEC3"
        },
        {
            "bufferView" : 5,
            "componentType" : 5126,
            "count" : 422,
            "type" : "VEC3"
        },
        {
            "bufferView" : 6,
            "componentType" : 5126,
            "count" : 422,
            "type" : "VEC2"
        },
        {
            "bufferView" : 7,
            "componentType" : 5123,
            "count" : 1824,
            "type" : "SCALAR"
        },
        {
            "bufferView" : 8,
            "componentType" : 5126,
            "count" : 1924,
            "max" : [
                -0.14859741926193237,
                0.3162815272808075,
                1.2573885917663574
            ],
            "min" : [
                -0.5303949117660522,
                -0.3334805965423584,
                -1.257388710975647
            ],
            "type" : "VEC3"
        },
        {
            "bufferView" : 9,
            "componentType" : 5126,
            "count" : 1924,
            "type" : "VEC3"
        },
        {
            "bufferView" : 10,
            "componentType" : 5126,
            "count" : 1924,
            "type" : "VEC2"
        },
        {
            "bufferView" : 11,
            "componentType" : 5123,
            "count" : 11520,
            "type" : "SCALAR"
        },
        {
            "bufferView" : 13,
            "componentType" : 5126,
            "count" : 1644,
            "max" : [
                0.8239538669586182,
                0.605682373046875,
                1.0290236473083496
            ],
            "min" : [
                -1.2057507038116455,
                -1.1708650588989258,
                -1.0156068801879883
            ],
            "type" : "VEC3"
        },
        {
            "bufferView" : 14,
            "componentType" : 5126,
            "count" : 1644,
            "type" : "VEC3"
        },
        {
            "bufferView" : 15,
            "componentType" : 5126,
            "count" : 1644,
            "type" : "VEC2"
        },
        {
            "bufferView" : 16,
            "componentType" : 5123,
            "count" : 5544,
            "type" : "SCALAR"
        },
        {
            "bufferView" : 17,
            "componentType" : 5126,
            "count" : 414,
            "max" : [
                0.6046037673950195,
                1.0039215087890625,
                1.007284164428711
            ],
            "min" : [
                -1.3394240140914917,
                -0.5820736885070801,
                -0.9938674569129944
            ],
            "type" : "VEC3"
        },
        {
            "bufferView" : 18,
            "componentType" : 5126,
            "count" : 414,
            "type" : "VEC3"
        },
        {
            "bufferView" : 19,
            "componentType" : 5126,
            "count" : 414,
            "type" : "VEC2"
        },
        {
            "bufferView" : 20,
            "componentType" : 5123,
            "count" : 2286,
            "type" : "SCALAR"
        },
        {
            "bufferView" : 21,
            "componentType" : 5126,
            "count" : 85,
            "max" : [
                0.7026739120483398,
                -0.43742626905441284,
                0.24977214634418488
            ],
            "min" : [
                0.649232029914856,
                -0.6099166870117188,
                -0.25369149446487427
            ],
            "type" : "VEC3"
        },
        {
            "bufferView" : 22,
            "componentType" : 5126,
            "count" : 85,
            "type" : "VEC3"
        },
        {
            "bufferView" : 23,
            "componentType" : 5126,
            "count" : 85,
            "type" : "VEC2"
        },
        {
            "bufferView" : 24,
            "componentType" : 5123,
            "count" : 384,
            "type" : "SCALAR"
        },
        {
            "bufferView" : 25,
            "componentType" : 5126,
            "count" : 1346,
            "max" : [
                4.983165264129639,
                8.051353454589844,
                7.980403900146484
            ],
            "min" : [
                -10.505617141723633,
                -3.915403366088867,
                -7.393165588378906
            ],
            "type" : "VEC3"
        },
        {
            "bufferView" : 26,
            "componentType" : 5126,
            "count" : 1346,
            "type" : "VEC3"
        },
        {
            "bufferView" : 27,
            "componentType" : 5126,
            "count" : 1346,
            "type" : "VEC2"
        },
        {
            "bufferView" : 28,
            "componentType" : 5123,
            "count" : 3192,
            "type" : "SCALAR"
        },
        {
            "bufferView" : 30,
            "componentType" : 5126,
            "count" : 320,
            "max" : [
                0.41679131984710693,
                0.5354416370391846,
                -0.14123450219631195
            ],
            "min" : [
                -0.41679131984710693,
                0.4104820489883423,
                -0.29174479842185974
            ],
            "type" : "VEC3"
        },
        {
            "bufferView" : 31,
            "componentType" : 5126,
            "count" : 320,
            "type" : "VEC3"
        },
        {
            "bufferView" : 32,
            "componentType" : 5126,
            "count" : 320,
            "type" : "VEC2"
        },
        {
            "bufferView" : 33,
            "componentType" : 5123,
            "count" : 1152,
            "type" : "SCALAR"
        }
    ],
    "bufferViews" : [
        {
            "buffer" : 0,
            "byteLength" : 5424,
            "byteOffset" : 0
        },
        {
            "buffer" : 0,
            "byteLength" : 5424,
            "byteOffset" : 5424
        },
        {
            "buffer" : 0,
            "byteLength" : 3616,
            "byteOffset" : 10848
        },
        {
            "buffer" : 0,
            "byteLength" : 3840,
            "byteOffset" : 14464
        },
        {
            "buffer" : 0,
            "byteLength" : 5064,
            "byteOffset" : 18304
        },
        {
            "buffer" : 0,
            "byteLength" : 5064,
            "byteOffset" : 23368
        },
        {
            "buffer" : 0,
            "byteLength" : 3376,
            "byteOffset" : 28432
        },
        {
            "buffer" : 0,
            "byteLength" : 3648,
            "byteOffset" : 31808
        },
        {
            "buffer" : 0,
            "byteLength" : 23088,
            "byteOffset" : 35456
        },
        {
            "buffer" : 0,
            "byteLength" : 23088,
            "byteOffset" : 58544
        },
        {
            "buffer" : 0,
            "byteLength" : 15392,
            "byteOffset" : 81632
        },
        {
            "buffer" : 0,
            "byteLength" : 23040,
            "byteOffset" : 97024
        },
        {
            "buffer" : 0,
            "byteLength" : 85292,
            "byteOffset" : 120064
        },
        {
            "buffer" : 0,
            "byteLength" : 19728,
            "byteOffset" : 205356
        },
        {
            "buffer" : 0,
            "byteLength" : 19728,
            "byteOffset" : 225084
        },
        {
            "buffer" : 0,
            "byteLength" : 13152,
            "byteOffset" : 244812
        },
        {
            "buffer" : 0,
            "byteLength" : 11088,
            "byteOffset" : 257964
        },
        {
            "buffer" : 0,
            "byteLength" : 4968,
            "byteOffset" : 269052
        },
        {
            "buffer" : 0,
            "byteLength" : 4968,
            "byteOffset" : 274020
        },
        {
            "buffer" : 0,
            "byteLength" : 3312,
            "byteOffset" : 278988
        },
        {
            "buffer" : 0,
            "byteLength" : 4572,
            "byteOffset" : 282300
        },
        {
            "buffer" : 0,
            "byteLength" : 1020,
            "byteOffset" : 286872
        },
        {
            "buffer" : 0,
            "byteLength" : 1020,
            "byteOffset" : 287892
        },
        {
            "buffer" : 0,
            "byteLength" : 680,
            "byteOffset" : 288912
        },
        {
            "buffer" : 0,
            "byteLength" : 768,
            "byteOffset" : 289592
        },
        {
            "buffer" : 0,
            "byteLength" : 16152,
            "byteOffset" : 290360
        },
        {
            "buffer" : 0,
            "byteLength" : 16152,
            "byteOffset" : 306512
        },
        {
            "buffer" : 0,
            "byteLength" : 10768,
            "byteOffset" : 322664
        },
        {
            "buffer" : 0,
            "byteLength" : 6384,
            "byteOffset" : 333432
        },
        {
            "buffer" : 0,
            "byteLength" : 6474,
            "byteOffset" : 339816
        },
        {
            "buffer" : 0,
            "byteLength" : 3840,
            "byteOffset" : 346292
        },
        {
            "buffer" : 0,
            "byteLength" : 3840,
            "byteOffset" : 350132
        },
        {
            "buffer" : 0,
            "byteLength" : 2560,
            "byteOffset" : 353972
        },
        {
            "buffer" : 0,
            "byteLength" : 2304,
            "byteOffset" : 356532
        }
    ],
    "samplers" : [
        {
            "magFilter" : 9729,
            "minFilter" : 9987
        }
    ],
    "buffers" : [
        {
            "byteLength" : 358836,
            "uri" : "data:application/octet-stream;base64,"
        }
    ]
}
