{
    "asset" : {
        "copyright" : "Jeremy Edelblut",
        "generator" : "Khronos glTF Blender I/O v1.7.33",
        "version" : "2.0"
    },
    "scene" : 1,
    "scenes" : [
        {
            "name" : "FBX_Temp",
            "nodes" : [
                0
            ]
        },
        {
            "name" : "Scene",
            "nodes" : [
                1,
                2,
                3,
                4,
                5
            ]
        }
    ],
    "nodes" : [
        {
            "mesh" : 0,
            "name" : "3moji.064",
            "rotation" : [
                0,
                -0.7071068286895752,
                0,
                0.7071068286895752
            ]
        },
        {
            "mesh" : 1,
            "name" : "Circle.2366"
        },
        {
            "mesh" : 2,
            "name" : "Circle.2368"
        },
        {
            "mesh" : 3,
            "name" : "Circle.2369"
        },
        {
            "mesh" : 4,
            "name" : "Circle.2370"
        },
        {
            "mesh" : 5,
            "name" : "Cube.540"
        }
    ],
    "materials" : [
        {
            "doubleSided" : true,
            "name" : "color",
            "pbrMetallicRoughness" : {
                "baseColorTexture" : {
                    "index" : 0
                },
                "metallicFactor" : 0,
                "roughnessFactor" : 0.5
            }
        }
    ],
    "meshes" : [
        {
            "name" : "Cube.417",
            "primitives" : [
                {
                    "attributes" : {
                        "POSITION" : 0,
                        "NORMAL" : 1,
                        "TEXCOORD_0" : 2
                    },
                    "indices" : 3,
                    "material" : 0
                }
            ]
        },
        {
            "name" : "Circle.2910",
            "primitives" : [
                {
                    "attributes" : {
                        "POSITION" : 4,
                        "NORMAL" : 5,
                        "TEXCOORD_0" : 6
                    },
                    "indices" : 7,
                    "material" : 0
                }
            ]
        },
        {
            "name" : "Circle.2912",
            "primitives" : [
                {
                    "attributes" : {
                        "POSITION" : 8,
                        "NORMAL" : 9,
                        "TEXCOORD_0" : 10
                    },
                    "indices" : 11,
                    "material" : 0
                }
            ]
        },
        {
            "name" : "Circle.2913",
            "primitives" : [
                {
                    "attributes" : {
                        "POSITION" : 12,
                        "NORMAL" : 13,
                        "TEXCOORD_0" : 14
                    },
                    "indices" : 15,
                    "material" : 0
                }
            ]
        },
        {
            "name" : "Circle.2914",
            "primitives" : [
                {
                    "attributes" : {
                        "POSITION" : 16,
                        "NORMAL" : 17,
                        "TEXCOORD_0" : 18
                    },
                    "indices" : 19,
                    "material" : 0
                }
            ]
        },
        {
            "name" : "Cube.931",
            "primitives" : [
                {
                    "attributes" : {
                        "POSITION" : 20,
                        "NORMAL" : 21,
                        "TEXCOORD_0" : 22
                    },
                    "indices" : 23,
                    "material" : 0
                }
            ]
        }
    ],
    "textures" : [
        {
            "sampler" : 0,
            "source" : 0
        }
    ],
    "images" : [
        {
            "bufferView" : 4,
            "mimeType" : "image/png",
            "name" : "tex"
        }
    ],
    "accessors" : [
        {
            "bufferView" : 0,
            "componentType" : 5126,
            "count" : 752,
            "max" : [
                -0.8264395594596863,
                0.05719918757677078,
                0.13795676827430725
            ],
            "min" : [
                -0.8543609976768494,
                -0.014034310355782509,
                -0.12436223030090332
            ],
            "type" : "VEC3"
        },
        {
            "bufferView" : 1,
            "componentType" : 5126,
            "count" : 752,
            "type" : "VEC3"
        },
        {
            "bufferView" : 2,
            "componentType" : 5126,
            "count" : 752,
            "type" : "VEC2"
        },
        {
            "bufferView" : 3,
            "componentType" : 5123,
            "count" : 1680,
            "type" : "SCALAR"
        },
        {
            "bufferView" : 5,
            "componentType" : 5126,
            "count" : 172,
            "max" : [
                -0.19285385310649872,
                1.2035481929779053,
                -0.6707503795623779
            ],
            "min" : [
                -0.3468530476093292,
                1.049412727355957,
                -0.6983697414398193
            ],
            "type" : "VEC3"
        },
        {
            "bufferView" : 6,
            "componentType" : 5126,
            "count" : 172,
            "type" : "VEC3"
        },
        {
            "bufferView" : 7,
            "componentType" : 5126,
            "count" : 172,
            "type" : "VEC2"
        },
        {
            "bufferView" : 8,
            "componentType" : 5123,
            "count" : 480,
            "type" : "SCALAR"
        },
        {
            "bufferView" : 9,
            "componentType" : 5126,
            "count" : 172,
            "max" : [
                -0.930706262588501,
                0.7912148237228394,
                -0.6646467447280884
            ],
            "min" : [
                -1.1473742723464966,
                0.5664055347442627,
                -0.7044703960418701
            ],
            "type" : "VEC3"
        },
        {
            "bufferView" : 10,
            "componentType" : 5126,
            "count" : 172,
            "type" : "VEC3"
        },
        {
            "bufferView" : 11,
            "componentType" : 5126,
            "count" : 172,
            "type" : "VEC2"
        },
        {
            "bufferView" : 12,
            "componentType" : 5123,
            "count" : 480,
            "type" : "SCALAR"
        },
        {
            "bufferView" : 13,
            "componentType" : 5126,
            "count" : 172,
            "max" : [
                1.0987375974655151,
                0.8868597745895386,
                -0.6674104928970337
            ],
            "min" : [
                0.9084703326225281,
                0.6946737170219421,
                -0.7017083764076233
            ],
            "type" : "VEC3"
        },
        {
            "bufferView" : 14,
            "componentType" : 5126,
            "count" : 172,
            "type" : "VEC3"
        },
        {
            "bufferView" : 15,
            "componentType" : 5126,
            "count" : 172,
            "type" : "VEC2"
        },
        {
            "bufferView" : 16,
            "componentType" : 5123,
            "count" : 480,
            "type" : "SCALAR"
        },
        {
            "bufferView" : 17,
            "componentType" : 5126,
            "count" : 448,
            "max" : [
                1.1956418752670288,
                -0.5405305624008179,
                1.1956418752670288
            ],
            "min" : [
                -1.1956418752670288,
                -0.6813158392906189,
                -1.1956418752670288
            ],
            "type" : "VEC3"
        },
        {
            "bufferView" : 18,
            "componentType" : 5126,
            "count" : 448,
            "type" : "VEC3"
        },
        {
            "bufferView" : 19,
            "componentType" : 5126,
            "count" : 448,
            "type" : "VEC2"
        },
        {
            "bufferView" : 20,
            "componentType" : 5123,
            "count" : 1500,
            "type" : "SCALAR"
        },
        {
            "bufferView" : 21,
            "componentType" : 5126,
            "count" : 3184,
            "max" : [
                1.1717958450317383,
                0.5868489146232605,
                0.7255990505218506
            ],
            "min" : [
                -1.1693410873413086,
                -0.6356869339942932,
                -0.7267436385154724
            ],
            "type" : "VEC3"
        },
        {
            "bufferView" : 22,
            "componentType" : 5126,
            "count" : 3184,
            "type" : "VEC3"
        },
        {
            "bufferView" : 23,
            "componentType" : 5126,
            "count" : 3184,
            "type" : "VEC2"
        },
        {
            "bufferView" : 24,
            "componentType" : 5123,
            "count" : 5022,
            "type" : "SCALAR"
        }
    ],
    "bufferViews" : [
        {
            "buffer" : 0,
            "byteLength" : 9024,
            "byteOffset" : 0
        },
        {
            "buffer" : 0,
            "byteLength" : 9024,
            "byteOffset" : 9024
        },
        {
            "buffer" : 0,
            "byteLength" : 6016,
            "byteOffset" : 18048
        },
        {
            "buffer" : 0,
            "byteLength" : 3360,
            "byteOffset" : 24064
        },
        {
            "buffer" : 0,
            "byteLength" : 11997,
            "byteOffset" : 27424
        },
        {
            "buffer" : 0,
            "byteLength" : 2064,
            "byteOffset" : 39424
        },
        {
            "buffer" : 0,
            "byteLength" : 2064,
            "byteOffset" : 41488
        },
        {
            "buffer" : 0,
            "byteLength" : 1376,
            "byteOffset" : 43552
        },
        {
            "buffer" : 0,
            "byteLength" : 960,
            "byteOffset" : 44928
        },
        {
            "buffer" : 0,
            "byteLength" : 2064,
            "byteOffset" : 45888
        },
        {
            "buffer" : 0,
            "byteLength" : 2064,
            "byteOffset" : 47952
        },
        {
            "buffer" : 0,
            "byteLength" : 1376,
            "byteOffset" : 50016
        },
        {
            "buffer" : 0,
            "byteLength" : 960,
            "byteOffset" : 51392
        },
        {
            "buffer" : 0,
            "byteLength" : 2064,
            "byteOffset" : 52352
        },
        {
            "buffer" : 0,
            "byteLength" : 2064,
            "byteOffset" : 54416
        },
        {
            "buffer" : 0,
            "byteLength" : 1376,
            "byteOffset" : 56480
        },
        {
            "buffer" : 0,
            "byteLength" : 960,
            "byteOffset" : 57856
        },
        {
            "buffer" : 0,
            "byteLength" : 5376,
            "byteOffset" : 58816
        },
        {
            "buffer" : 0,
            "byteLength" : 5376,
            "byteOffset" : 64192
        },
        {
            "buffer" : 0,
            "byteLength" : 3584,
            "byteOffset" : 69568
        },
        {
            "buffer" : 0,
            "byteLength" : 3000,
            "byteOffset" : 73152
        },
        {
            "buffer" : 0,
            "byteLength" : 38208,
            "byteOffset" : 76152
        },
        {
            "buffer" : 0,
            "byteLength" : 38208,
            "byteOffset" : 114360
        },
        {
            "buffer" : 0,
            "byteLength" : 25472,
            "byteOffset" : 152568
        },
        {
            "buffer" : 0,
            "byteLength" : 10044,
            "byteOffset" : 178040
        }
    ],
    "samplers" : [
        {
            "magFilter" : 9729,
            "minFilter" : 9987
        }
    ],
    "buffers" : [
        {
            "byteLength" : 188084,
            "uri" : "data:application/octet-stream;base64,"
        }
    ]
}
