{
    "asset" : {
        "copyright" : "Jeremy Edelblut",
        "generator" : "Khronos glTF Blender I/O v1.6.16",
        "version" : "2.0"
    },
    "scene" : 0,
    "scenes" : [
        {
            "name" : "Scene",
            "nodes" : [
                0,
                1,
                2,
                3,
                4
            ]
        }
    ],
    "nodes" : [
        {
            "mesh" : 0,
            "name" : "Cube.561",
            "scale" : [
                0.5,
                0.5,
                0.5
            ],
            "translation" : [
                -0.43499985337257385,
                -0.05342044308781624,
                0
            ]
        },
        {
            "mesh" : 1,
            "name" : "Cube.562",
            "scale" : [
                0.30513790249824524,
                0.30513790249824524,
                0.30513790249824524
            ],
            "translation" : [
                0.26945826411247253,
                -0.14622832834720612,
                0
            ]
        },
        {
            "mesh" : 2,
            "name" : "Cube.563",
            "scale" : [
                0.5,
                0.5,
                0.5
            ],
            "translation" : [
                -0.43499985337257385,
                -0.05342044308781624,
                0
            ]
        },
        {
            "mesh" : 3,
            "name" : "Cube.564",
            "scale" : [
                0.6971238255500793,
                0.18534593284130096,
                0.18534593284130096
            ],
            "translation" : [
                0.2679749131202698,
                -0.4214683175086975,
                0
            ]
        },
        {
            "mesh" : 4,
            "name" : "Cube.565",
            "scale" : [
                0.6151022911071777,
                0.6151022911071777,
                0.6151022911071777
            ],
            "translation" : [
                -0.6218647956848145,
                0.10252737998962402,
                0
            ]
        }
    ],
    "materials" : [
        {
            "doubleSided" : true,
            "name" : "Color",
            "pbrMetallicRoughness" : {
                "baseColorTexture" : {
                    "index" : 0
                },
                "metallicFactor" : 0,
                "roughnessFactor" : 0.5
            }
        }
    ],
    "meshes" : [
        {
            "name" : "Cube.7371",
            "primitives" : [
                {
                    "attributes" : {
                        "POSITION" : 0,
                        "NORMAL" : 1,
                        "TEXCOORD_0" : 2
                    },
                    "indices" : 3,
                    "material" : 0
                }
            ]
        },
        {
            "name" : "Cube.7372",
            "primitives" : [
                {
                    "attributes" : {
                        "POSITION" : 4,
                        "NORMAL" : 5,
                        "TEXCOORD_0" : 6
                    },
                    "indices" : 7,
                    "material" : 0
                }
            ]
        },
        {
            "name" : "Cube.7373",
            "primitives" : [
                {
                    "attributes" : {
                        "POSITION" : 8,
                        "NORMAL" : 9,
                        "TEXCOORD_0" : 10
                    },
                    "indices" : 11,
                    "material" : 0
                }
            ]
        },
        {
            "name" : "Cube.7374",
            "primitives" : [
                {
                    "attributes" : {
                        "POSITION" : 12,
                        "NORMAL" : 13,
                        "TEXCOORD_0" : 14
                    },
                    "indices" : 15,
                    "material" : 0
                }
            ]
        },
        {
            "name" : "Cube.7375",
            "primitives" : [
                {
                    "attributes" : {
                        "POSITION" : 16,
                        "NORMAL" : 17,
                        "TEXCOORD_0" : 18
                    },
                    "indices" : 19,
                    "material" : 0
                }
            ]
        }
    ],
    "textures" : [
        {
            "sampler" : 0,
            "source" : 0
        }
    ],
    "images" : [
        {
            "bufferView" : 4,
            "mimeType" : "image/png",
            "name" : "tex"
        }
    ],
    "accessors" : [
        {
            "bufferView" : 0,
            "componentType" : 5126,
            "count" : 1117,
            "max" : [
                3.000000238418579,
                1.5366697311401367,
                0.9874085187911987
            ],
            "min" : [
                -1.459673523902893,
                -0.8809179067611694,
                -0.9874085187911987
            ],
            "type" : "VEC3"
        },
        {
            "bufferView" : 1,
            "componentType" : 5126,
            "count" : 1117,
            "type" : "VEC3"
        },
        {
            "bufferView" : 2,
            "componentType" : 5126,
            "count" : 1117,
            "type" : "VEC2"
        },
        {
            "bufferView" : 3,
            "componentType" : 5123,
            "count" : 5406,
            "type" : "SCALAR"
        },
        {
            "bufferView" : 5,
            "componentType" : 5126,
            "count" : 2048,
            "max" : [
                2.3228538036346436,
                -0.9395390748977661,
                0.8197029829025269
            ],
            "min" : [
                -2.3228535652160645,
                -1.667539119720459,
                -0.8197036981582642
            ],
            "type" : "VEC3"
        },
        {
            "bufferView" : 6,
            "componentType" : 5126,
            "count" : 2048,
            "type" : "VEC3"
        },
        {
            "bufferView" : 7,
            "componentType" : 5126,
            "count" : 2048,
            "type" : "VEC2"
        },
        {
            "bufferView" : 8,
            "componentType" : 5123,
            "count" : 6048,
            "type" : "SCALAR"
        },
        {
            "bufferView" : 9,
            "componentType" : 5126,
            "count" : 176,
            "max" : [
                2.9747941493988037,
                -0.671818733215332,
                0.5829552412033081
            ],
            "min" : [
                -0.8918314576148987,
                -1.1169185638427734,
                -0.5829552412033081
            ],
            "type" : "VEC3"
        },
        {
            "bufferView" : 10,
            "componentType" : 5126,
            "count" : 176,
            "type" : "VEC3"
        },
        {
            "bufferView" : 11,
            "componentType" : 5126,
            "count" : 176,
            "type" : "VEC2"
        },
        {
            "bufferView" : 12,
            "componentType" : 5123,
            "count" : 540,
            "type" : "SCALAR"
        },
        {
            "bufferView" : 13,
            "componentType" : 5126,
            "count" : 24,
            "max" : [
                1,
                0.05184972286224365,
                1
            ],
            "min" : [
                -1,
                -1,
                -1
            ],
            "type" : "VEC3"
        },
        {
            "bufferView" : 14,
            "componentType" : 5126,
            "count" : 24,
            "type" : "VEC3"
        },
        {
            "bufferView" : 15,
            "componentType" : 5126,
            "count" : 24,
            "type" : "VEC2"
        },
        {
            "bufferView" : 16,
            "componentType" : 5123,
            "count" : 36,
            "type" : "SCALAR"
        },
        {
            "bufferView" : 17,
            "componentType" : 5126,
            "count" : 204,
            "max" : [
                0.052108779549598694,
                0.2883486747741699,
                0.6474608778953552
            ],
            "min" : [
                -0.18569022417068481,
                0.08722084015607834,
                -0.6474608778953552
            ],
            "type" : "VEC3"
        },
        {
            "bufferView" : 18,
            "componentType" : 5126,
            "count" : 204,
            "type" : "VEC3"
        },
        {
            "bufferView" : 19,
            "componentType" : 5126,
            "count" : 204,
            "type" : "VEC2"
        },
        {
            "bufferView" : 20,
            "componentType" : 5123,
            "count" : 960,
            "type" : "SCALAR"
        }
    ],
    "bufferViews" : [
        {
            "buffer" : 0,
            "byteLength" : 13404,
            "byteOffset" : 0
        },
        {
            "buffer" : 0,
            "byteLength" : 13404,
            "byteOffset" : 13404
        },
        {
            "buffer" : 0,
            "byteLength" : 8936,
            "byteOffset" : 26808
        },
        {
            "buffer" : 0,
            "byteLength" : 10812,
            "byteOffset" : 35744
        },
        {
            "buffer" : 0,
            "byteLength" : 3214,
            "byteOffset" : 46556
        },
        {
            "buffer" : 0,
            "byteLength" : 24576,
            "byteOffset" : 49772
        },
        {
            "buffer" : 0,
            "byteLength" : 24576,
            "byteOffset" : 74348
        },
        {
            "buffer" : 0,
            "byteLength" : 16384,
            "byteOffset" : 98924
        },
        {
            "buffer" : 0,
            "byteLength" : 12096,
            "byteOffset" : 115308
        },
        {
            "buffer" : 0,
            "byteLength" : 2112,
            "byteOffset" : 127404
        },
        {
            "buffer" : 0,
            "byteLength" : 2112,
            "byteOffset" : 129516
        },
        {
            "buffer" : 0,
            "byteLength" : 1408,
            "byteOffset" : 131628
        },
        {
            "buffer" : 0,
            "byteLength" : 1080,
            "byteOffset" : 133036
        },
        {
            "buffer" : 0,
            "byteLength" : 288,
            "byteOffset" : 134116
        },
        {
            "buffer" : 0,
            "byteLength" : 288,
            "byteOffset" : 134404
        },
        {
            "buffer" : 0,
            "byteLength" : 192,
            "byteOffset" : 134692
        },
        {
            "buffer" : 0,
            "byteLength" : 72,
            "byteOffset" : 134884
        },
        {
            "buffer" : 0,
            "byteLength" : 2448,
            "byteOffset" : 134956
        },
        {
            "buffer" : 0,
            "byteLength" : 2448,
            "byteOffset" : 137404
        },
        {
            "buffer" : 0,
            "byteLength" : 1632,
            "byteOffset" : 139852
        },
        {
            "buffer" : 0,
            "byteLength" : 1920,
            "byteOffset" : 141484
        }
    ],
    "samplers" : [
        {
            "magFilter" : 9729,
            "minFilter" : 9987
        }
    ],
    "buffers" : [
        {
            "byteLength" : 143404,
            "uri" : "data:application/octet-stream;base64,"
        }
    ]
}
