{
    "asset" : {
        "copyright" : "Jeremy Edelblut",
        "generator" : "Khronos glTF Blender I/O v1.7.33",
        "version" : "2.0"
    },
    "scene" : 0,
    "scenes" : [
        {
            "name" : "Scene",
            "nodes" : [
                0,
                1,
                2,
                3,
                4
            ]
        }
    ],
    "nodes" : [
        {
            "mesh" : 0,
            "name" : "Cube.745",
            "scale" : [
                1.1199008226394653,
                1.1199008226394653,
                1.1199008226394653
            ],
            "translation" : [
                0,
                -0.02056683413684368,
                0
            ]
        },
        {
            "mesh" : 1,
            "name" : "Cube.746",
            "scale" : [
                1.1199008226394653,
                1.1199008226394653,
                1.1199008226394653
            ],
            "translation" : [
                -0.8385408520698547,
                0.8161331415176392,
                0
            ]
        },
        {
            "mesh" : 2,
            "name" : "Cube.747",
            "scale" : [
                1.1199008226394653,
                1.1199008226394653,
                1.1199008226394653
            ],
            "translation" : [
                -0.49979686737060547,
                0.8161331415176392,
                0
            ]
        },
        {
            "mesh" : 3,
            "name" : "Cube.748",
            "scale" : [
                1.1199008226394653,
                1.1199008226394653,
                1.1199008226394653
            ],
            "translation" : [
                0.6271445155143738,
                0.6065776944160461,
                0
            ]
        },
        {
            "mesh" : 4,
            "name" : "Cylinder.446",
            "scale" : [
                0.11199010908603668,
                0.11199010908603668,
                0.11199010908603668
            ],
            "translation" : [
                0,
                -0.02056683413684368,
                0
            ]
        }
    ],
    "materials" : [
        {
            "doubleSided" : true,
            "name" : "color",
            "pbrMetallicRoughness" : {
                "baseColorTexture" : {
                    "index" : 0
                },
                "metallicFactor" : 0,
                "roughnessFactor" : 0.5
            }
        }
    ],
    "meshes" : [
        {
            "name" : "Cube.7513",
            "primitives" : [
                {
                    "attributes" : {
                        "POSITION" : 0,
                        "NORMAL" : 1,
                        "TEXCOORD_0" : 2
                    },
                    "indices" : 3,
                    "material" : 0
                }
            ]
        },
        {
            "name" : "Cube.7514",
            "primitives" : [
                {
                    "attributes" : {
                        "POSITION" : 4,
                        "NORMAL" : 5,
                        "TEXCOORD_0" : 6
                    },
                    "indices" : 7,
                    "material" : 0
                }
            ]
        },
        {
            "name" : "Cube.7515",
            "primitives" : [
                {
                    "attributes" : {
                        "POSITION" : 8,
                        "NORMAL" : 9,
                        "TEXCOORD_0" : 10
                    },
                    "indices" : 7,
                    "material" : 0
                }
            ]
        },
        {
            "name" : "Cube.7516",
            "primitives" : [
                {
                    "attributes" : {
                        "POSITION" : 11,
                        "NORMAL" : 12,
                        "TEXCOORD_0" : 13
                    },
                    "indices" : 14,
                    "material" : 0
                }
            ]
        },
        {
            "name" : "Cylinder.448",
            "primitives" : [
                {
                    "attributes" : {
                        "POSITION" : 15,
                        "NORMAL" : 16,
                        "TEXCOORD_0" : 17
                    },
                    "indices" : 18,
                    "material" : 0
                }
            ]
        }
    ],
    "textures" : [
        {
            "sampler" : 0,
            "source" : 0
        }
    ],
    "images" : [
        {
            "bufferView" : 4,
            "mimeType" : "image/png",
            "name" : "tex"
        }
    ],
    "accessors" : [
        {
            "bufferView" : 0,
            "componentType" : 5126,
            "count" : 992,
            "max" : [
                0.8999999761581421,
                0.8999999761581421,
                0.05568724125623703
            ],
            "min" : [
                -1,
                -0.5999999642372131,
                -0.040000010281801224
            ],
            "type" : "VEC3"
        },
        {
            "bufferView" : 1,
            "componentType" : 5126,
            "count" : 992,
            "type" : "VEC3"
        },
        {
            "bufferView" : 2,
            "componentType" : 5126,
            "count" : 992,
            "type" : "VEC2"
        },
        {
            "bufferView" : 3,
            "componentType" : 5123,
            "count" : 1836,
            "type" : "SCALAR"
        },
        {
            "bufferView" : 5,
            "componentType" : 5126,
            "count" : 168,
            "max" : [
                0.13200004398822784,
                0.060000017285346985,
                0.07222824543714523
            ],
            "min" : [
                -0.13200004398822784,
                -1.068000316619873,
                0.02097356878221035
            ],
            "type" : "VEC3"
        },
        {
            "bufferView" : 6,
            "componentType" : 5126,
            "count" : 168,
            "type" : "VEC3"
        },
        {
            "bufferView" : 7,
            "componentType" : 5126,
            "count" : 168,
            "type" : "VEC2"
        },
        {
            "bufferView" : 8,
            "componentType" : 5123,
            "count" : 252,
            "type" : "SCALAR"
        },
        {
            "bufferView" : 9,
            "componentType" : 5126,
            "count" : 168,
            "max" : [
                0.13200004398822784,
                0.060000017285346985,
                0.07222824543714523
            ],
            "min" : [
                -0.13200004398822784,
                -1.068000316619873,
                0.02097356878221035
            ],
            "type" : "VEC3"
        },
        {
            "bufferView" : 10,
            "componentType" : 5126,
            "count" : 168,
            "type" : "VEC3"
        },
        {
            "bufferView" : 11,
            "componentType" : 5126,
            "count" : 168,
            "type" : "VEC2"
        },
        {
            "bufferView" : 12,
            "componentType" : 5126,
            "count" : 654,
            "max" : [
                0.2414824217557907,
                0.19999998807907104,
                0.06629233062267303
            ],
            "min" : [
                -0.2414824217557907,
                -1.007481336593628,
                0.0449463352560997
            ],
            "type" : "VEC3"
        },
        {
            "bufferView" : 13,
            "componentType" : 5126,
            "count" : 654,
            "type" : "VEC3"
        },
        {
            "bufferView" : 14,
            "componentType" : 5126,
            "count" : 654,
            "type" : "VEC2"
        },
        {
            "bufferView" : 15,
            "componentType" : 5123,
            "count" : 1296,
            "type" : "SCALAR"
        },
        {
            "bufferView" : 16,
            "componentType" : 5126,
            "count" : 256,
            "max" : [
                1.4332760572433472,
                10.952876091003418,
                1.4332759380340576
            ],
            "min" : [
                -1.433275818824768,
                -10.600001335144043,
                -1.4332759380340576
            ],
            "type" : "VEC3"
        },
        {
            "bufferView" : 17,
            "componentType" : 5126,
            "count" : 256,
            "type" : "VEC3"
        },
        {
            "bufferView" : 18,
            "componentType" : 5126,
            "count" : 256,
            "type" : "VEC2"
        },
        {
            "bufferView" : 19,
            "componentType" : 5123,
            "count" : 1044,
            "type" : "SCALAR"
        }
    ],
    "bufferViews" : [
        {
            "buffer" : 0,
            "byteLength" : 11904,
            "byteOffset" : 0
        },
        {
            "buffer" : 0,
            "byteLength" : 11904,
            "byteOffset" : 11904
        },
        {
            "buffer" : 0,
            "byteLength" : 7936,
            "byteOffset" : 23808
        },
        {
            "buffer" : 0,
            "byteLength" : 3672,
            "byteOffset" : 31744
        },
        {
            "buffer" : 0,
            "byteLength" : 11997,
            "byteOffset" : 35416
        },
        {
            "buffer" : 0,
            "byteLength" : 2016,
            "byteOffset" : 47416
        },
        {
            "buffer" : 0,
            "byteLength" : 2016,
            "byteOffset" : 49432
        },
        {
            "buffer" : 0,
            "byteLength" : 1344,
            "byteOffset" : 51448
        },
        {
            "buffer" : 0,
            "byteLength" : 504,
            "byteOffset" : 52792
        },
        {
            "buffer" : 0,
            "byteLength" : 2016,
            "byteOffset" : 53296
        },
        {
            "buffer" : 0,
            "byteLength" : 2016,
            "byteOffset" : 55312
        },
        {
            "buffer" : 0,
            "byteLength" : 1344,
            "byteOffset" : 57328
        },
        {
            "buffer" : 0,
            "byteLength" : 7848,
            "byteOffset" : 58672
        },
        {
            "buffer" : 0,
            "byteLength" : 7848,
            "byteOffset" : 66520
        },
        {
            "buffer" : 0,
            "byteLength" : 5232,
            "byteOffset" : 74368
        },
        {
            "buffer" : 0,
            "byteLength" : 2592,
            "byteOffset" : 79600
        },
        {
            "buffer" : 0,
            "byteLength" : 3072,
            "byteOffset" : 82192
        },
        {
            "buffer" : 0,
            "byteLength" : 3072,
            "byteOffset" : 85264
        },
        {
            "buffer" : 0,
            "byteLength" : 2048,
            "byteOffset" : 88336
        },
        {
            "buffer" : 0,
            "byteLength" : 2088,
            "byteOffset" : 90384
        }
    ],
    "samplers" : [
        {
            "magFilter" : 9729,
            "minFilter" : 9987
        }
    ],
    "buffers" : [
        {
            "byteLength" : 92472,
            "uri" : "data:application/octet-stream;base64,"
        }
    ]
}
