{
    "asset" : {
        "copyright" : "Jeremy Edelblut",
        "generator" : "Khronos glTF Blender I/O v1.6.16",
        "version" : "2.0"
    },
    "scene" : 0,
    "scenes" : [
        {
            "name" : "Scene",
            "nodes" : [
                0,
                1,
                2
            ]
        }
    ],
    "nodes" : [
        {
            "mesh" : 0,
            "name" : "Circle.1776",
            "rotation" : [
                0.5,
                -0.5,
                -0.4999999701976776,
                0.5
            ],
            "translation" : [
                0,
                0,
                -0.1818329393863678
            ]
        },
        {
            "mesh" : 1,
            "name" : "Circle.1777",
            "rotation" : [
                0.5,
                -0.5,
                -0.4999999701976776,
                0.5
            ],
            "translation" : [
                0,
                0,
                -0.1818329393863678
            ]
        },
        {
            "mesh" : 2,
            "name" : "blackonwe.001",
            "rotation" : [
                -0.5,
                0.5,
                -0.4999999701976776,
                0.5
            ],
            "scale" : [
                0.002672429895028472,
                0.0026724301278591156,
                0.0026724301278591156
            ],
            "translation" : [
                -0.24914363026618958,
                -0.7912197709083557,
                -0.03013692796230316
            ]
        }
    ],
    "materials" : [
        {
            "doubleSided" : true,
            "name" : "Color",
            "pbrMetallicRoughness" : {
                "baseColorTexture" : {
                    "index" : 0
                },
                "metallicFactor" : 0,
                "roughnessFactor" : 0.5
            }
        }
    ],
    "meshes" : [
        {
            "name" : "Circle.1965",
            "primitives" : [
                {
                    "attributes" : {
                        "POSITION" : 0,
                        "NORMAL" : 1,
                        "TEXCOORD_0" : 2
                    },
                    "indices" : 3,
                    "material" : 0
                }
            ]
        },
        {
            "name" : "Circle.1966",
            "primitives" : [
                {
                    "attributes" : {
                        "POSITION" : 4,
                        "NORMAL" : 5,
                        "TEXCOORD_0" : 6
                    },
                    "indices" : 3,
                    "material" : 0
                }
            ]
        },
        {
            "name" : "Cube.631",
            "primitives" : [
                {
                    "attributes" : {
                        "POSITION" : 7,
                        "NORMAL" : 8,
                        "TEXCOORD_0" : 9
                    },
                    "indices" : 10,
                    "material" : 0
                }
            ]
        }
    ],
    "textures" : [
        {
            "sampler" : 0,
            "source" : 0
        }
    ],
    "images" : [
        {
            "bufferView" : 4,
            "mimeType" : "image/png",
            "name" : "tex2"
        }
    ],
    "accessors" : [
        {
            "bufferView" : 0,
            "componentType" : 5126,
            "count" : 280,
            "max" : [
                0.7934728860855103,
                0.17277158796787262,
                1.1554911136627197
            ],
            "min" : [
                -0.7901834845542908,
                0.08168544620275497,
                -0.2914902865886688
            ],
            "type" : "VEC3"
        },
        {
            "bufferView" : 1,
            "componentType" : 5126,
            "count" : 280,
            "type" : "VEC3"
        },
        {
            "bufferView" : 2,
            "componentType" : 5126,
            "count" : 280,
            "type" : "VEC2"
        },
        {
            "bufferView" : 3,
            "componentType" : 5123,
            "count" : 768,
            "type" : "SCALAR"
        },
        {
            "bufferView" : 5,
            "componentType" : 5126,
            "count" : 280,
            "max" : [
                0.7934730052947998,
                0.30940067768096924,
                0.3357164263725281
            ],
            "min" : [
                -0.7901833653450012,
                0.2183145433664322,
                -1.1112648248672485
            ],
            "type" : "VEC3"
        },
        {
            "bufferView" : 6,
            "componentType" : 5126,
            "count" : 280,
            "type" : "VEC3"
        },
        {
            "bufferView" : 7,
            "componentType" : 5126,
            "count" : 280,
            "type" : "VEC2"
        },
        {
            "bufferView" : 8,
            "componentType" : 5126,
            "count" : 752,
            "max" : [
                1.2953357696533203,
                7.90000057220459,
                17.240537643432617
            ],
            "min" : [
                2.8697024390567094e-05,
                -1.8999989032745361,
                -19.159460067749023
            ],
            "type" : "VEC3"
        },
        {
            "bufferView" : 9,
            "componentType" : 5126,
            "count" : 752,
            "type" : "VEC3"
        },
        {
            "bufferView" : 10,
            "componentType" : 5126,
            "count" : 752,
            "type" : "VEC2"
        },
        {
            "bufferView" : 11,
            "componentType" : 5123,
            "count" : 1680,
            "type" : "SCALAR"
        }
    ],
    "bufferViews" : [
        {
            "buffer" : 0,
            "byteLength" : 3360,
            "byteOffset" : 0
        },
        {
            "buffer" : 0,
            "byteLength" : 3360,
            "byteOffset" : 3360
        },
        {
            "buffer" : 0,
            "byteLength" : 2240,
            "byteOffset" : 6720
        },
        {
            "buffer" : 0,
            "byteLength" : 1536,
            "byteOffset" : 8960
        },
        {
            "buffer" : 0,
            "byteLength" : 6474,
            "byteOffset" : 10496
        },
        {
            "buffer" : 0,
            "byteLength" : 3360,
            "byteOffset" : 16972
        },
        {
            "buffer" : 0,
            "byteLength" : 3360,
            "byteOffset" : 20332
        },
        {
            "buffer" : 0,
            "byteLength" : 2240,
            "byteOffset" : 23692
        },
        {
            "buffer" : 0,
            "byteLength" : 9024,
            "byteOffset" : 25932
        },
        {
            "buffer" : 0,
            "byteLength" : 9024,
            "byteOffset" : 34956
        },
        {
            "buffer" : 0,
            "byteLength" : 6016,
            "byteOffset" : 43980
        },
        {
            "buffer" : 0,
            "byteLength" : 3360,
            "byteOffset" : 49996
        }
    ],
    "samplers" : [
        {
            "magFilter" : 9729,
            "minFilter" : 9987
        }
    ],
    "buffers" : [
        {
            "byteLength" : 53356,
            "uri" : "data:application/octet-stream;base64,"
        }
    ]
}
