{
    "asset" : {
        "copyright" : "Jeremy Edelblut",
        "generator" : "Khronos glTF Blender I/O v1.6.16",
        "version" : "2.0"
    },
    "scene" : 0,
    "scenes" : [
        {
            "name" : "Scene",
            "nodes" : [
                0,
                1,
                2
            ]
        }
    ],
    "nodes" : [
        {
            "mesh" : 0,
            "name" : "Circle.1902",
            "rotation" : [
                0.653281569480896,
                -0.270597904920578,
                0.2705979347229004,
                0.6532815098762512
            ],
            "translation" : [
                -0.3827124536037445,
                0.5252285003662109,
                0.38271239399909973
            ]
        },
        {
            "mesh" : 1,
            "name" : "Plane.126",
            "rotation" : [
                0,
                0.3826834559440613,
                0,
                0.9238795042037964
            ],
            "translation" : [
                0.14944449067115784,
                0.24891939759254456,
                -0.14944446086883545
            ]
        },
        {
            "mesh" : 2,
            "name" : "3moji.org.219",
            "rotation" : [
                -0.20879201591014862,
                0.32070615887641907,
                -0.5040697455406189,
                0.7742527723312378
            ],
            "translation" : [
                0.4028826653957367,
                -0.17473620176315308,
                -0.4028826057910919
            ]
        }
    ],
    "materials" : [
        {
            "doubleSided" : true,
            "name" : "Color",
            "pbrMetallicRoughness" : {
                "baseColorTexture" : {
                    "index" : 0
                },
                "metallicFactor" : 0,
                "roughnessFactor" : 0.5
            }
        }
    ],
    "meshes" : [
        {
            "name" : "Circle.2118",
            "primitives" : [
                {
                    "attributes" : {
                        "POSITION" : 0,
                        "NORMAL" : 1,
                        "TEXCOORD_0" : 2
                    },
                    "indices" : 3,
                    "material" : 0
                }
            ]
        },
        {
            "name" : "Plane.127",
            "primitives" : [
                {
                    "attributes" : {
                        "POSITION" : 4,
                        "NORMAL" : 5,
                        "TEXCOORD_0" : 6
                    },
                    "indices" : 7,
                    "material" : 0
                }
            ]
        },
        {
            "name" : "Cube.680",
            "primitives" : [
                {
                    "attributes" : {
                        "POSITION" : 8,
                        "NORMAL" : 9,
                        "TEXCOORD_0" : 10
                    },
                    "indices" : 11,
                    "material" : 0
                }
            ]
        }
    ],
    "textures" : [
        {
            "sampler" : 0,
            "source" : 0
        }
    ],
    "images" : [
        {
            "bufferView" : 4,
            "mimeType" : "image/png",
            "name" : "tex2"
        }
    ],
    "accessors" : [
        {
            "bufferView" : 0,
            "componentType" : 5126,
            "count" : 644,
            "max" : [
                0.09244967252016068,
                0.23743851482868195,
                -0.3782716691493988
            ],
            "min" : [
                -0.09244967252016068,
                0.18171413242816925,
                -0.4442857801914215
            ],
            "type" : "VEC3"
        },
        {
            "bufferView" : 1,
            "componentType" : 5126,
            "count" : 644,
            "type" : "VEC3"
        },
        {
            "bufferView" : 2,
            "componentType" : 5126,
            "count" : 644,
            "type" : "VEC2"
        },
        {
            "bufferView" : 3,
            "componentType" : 5123,
            "count" : 2880,
            "type" : "SCALAR"
        },
        {
            "bufferView" : 5,
            "componentType" : 5126,
            "count" : 816,
            "max" : [
                0.7741443514823914,
                0.8195603489875793,
                0.18000000715255737
            ],
            "min" : [
                -1.2303568124771118,
                -1.2948721647262573,
                -0.1800002008676529
            ],
            "type" : "VEC3"
        },
        {
            "bufferView" : 6,
            "componentType" : 5126,
            "count" : 816,
            "type" : "VEC3"
        },
        {
            "bufferView" : 7,
            "componentType" : 5126,
            "count" : 816,
            "type" : "VEC2"
        },
        {
            "bufferView" : 8,
            "componentType" : 5123,
            "count" : 2196,
            "type" : "SCALAR"
        },
        {
            "bufferView" : 9,
            "componentType" : 5126,
            "count" : 752,
            "max" : [
                0.004670110065490007,
                0.028482092544436455,
                0.062157806009054184
            ],
            "min" : [
                1.0346217749201969e-07,
                -0.00685011874884367,
                -0.06907615065574646
            ],
            "type" : "VEC3"
        },
        {
            "bufferView" : 10,
            "componentType" : 5126,
            "count" : 752,
            "type" : "VEC3"
        },
        {
            "bufferView" : 11,
            "componentType" : 5126,
            "count" : 752,
            "type" : "VEC2"
        },
        {
            "bufferView" : 12,
            "componentType" : 5123,
            "count" : 1680,
            "type" : "SCALAR"
        }
    ],
    "bufferViews" : [
        {
            "buffer" : 0,
            "byteLength" : 7728,
            "byteOffset" : 0
        },
        {
            "buffer" : 0,
            "byteLength" : 7728,
            "byteOffset" : 7728
        },
        {
            "buffer" : 0,
            "byteLength" : 5152,
            "byteOffset" : 15456
        },
        {
            "buffer" : 0,
            "byteLength" : 5760,
            "byteOffset" : 20608
        },
        {
            "buffer" : 0,
            "byteLength" : 6474,
            "byteOffset" : 26368
        },
        {
            "buffer" : 0,
            "byteLength" : 9792,
            "byteOffset" : 32844
        },
        {
            "buffer" : 0,
            "byteLength" : 9792,
            "byteOffset" : 42636
        },
        {
            "buffer" : 0,
            "byteLength" : 6528,
            "byteOffset" : 52428
        },
        {
            "buffer" : 0,
            "byteLength" : 4392,
            "byteOffset" : 58956
        },
        {
            "buffer" : 0,
            "byteLength" : 9024,
            "byteOffset" : 63348
        },
        {
            "buffer" : 0,
            "byteLength" : 9024,
            "byteOffset" : 72372
        },
        {
            "buffer" : 0,
            "byteLength" : 6016,
            "byteOffset" : 81396
        },
        {
            "buffer" : 0,
            "byteLength" : 3360,
            "byteOffset" : 87412
        }
    ],
    "samplers" : [
        {
            "magFilter" : 9729,
            "minFilter" : 9987
        }
    ],
    "buffers" : [
        {
            "byteLength" : 90772,
            "uri" : "data:application/octet-stream;base64,"
        }
    ]
}
