{
    "asset" : {
        "copyright" : "Jeremy Edelblut",
        "generator" : "Khronos glTF Blender I/O v1.7.33",
        "version" : "2.0"
    },
    "scene" : 1,
    "scenes" : [
        {
            "name" : "FBX_Temp",
            "nodes" : [
                0
            ]
        },
        {
            "name" : "Scene",
            "nodes" : [
                1,
                2,
                3,
                4,
                5,
                6,
                7
            ]
        }
    ],
    "nodes" : [
        {
            "mesh" : 0,
            "name" : "3moji.064",
            "rotation" : [
                0,
                -0.7071068286895752,
                0,
                0.7071068286895752
            ]
        },
        {
            "mesh" : 1,
            "name" : "Circle.2512"
        },
        {
            "mesh" : 2,
            "name" : "Circle.2513"
        },
        {
            "mesh" : 3,
            "name" : "Cube.898"
        },
        {
            "mesh" : 4,
            "name" : "Cube.899"
        },
        {
            "mesh" : 5,
            "name" : "Cylinder.470"
        },
        {
            "mesh" : 6,
            "name" : "Sphere.517",
            "translation" : [
                0.14426642656326294,
                -0.1787269115447998,
                0
            ]
        },
        {
            "mesh" : 7,
            "name" : "Sphere.518",
            "translation" : [
                0.13592804968357086,
                0.5868383646011353,
                0
            ]
        }
    ],
    "materials" : [
        {
            "doubleSided" : true,
            "name" : "color",
            "pbrMetallicRoughness" : {
                "baseColorTexture" : {
                    "index" : 0
                },
                "metallicFactor" : 0,
                "roughnessFactor" : 0.5
            }
        }
    ],
    "meshes" : [
        {
            "name" : "Cube.417",
            "primitives" : [
                {
                    "attributes" : {
                        "POSITION" : 0,
                        "NORMAL" : 1,
                        "TEXCOORD_0" : 2
                    },
                    "indices" : 3,
                    "material" : 0
                }
            ]
        },
        {
            "name" : "Circle.3098",
            "primitives" : [
                {
                    "attributes" : {
                        "POSITION" : 4,
                        "NORMAL" : 5,
                        "TEXCOORD_0" : 6
                    },
                    "indices" : 7,
                    "material" : 0
                }
            ]
        },
        {
            "name" : "Circle.3101",
            "primitives" : [
                {
                    "attributes" : {
                        "POSITION" : 8,
                        "NORMAL" : 9,
                        "TEXCOORD_0" : 10
                    },
                    "indices" : 11,
                    "material" : 0
                }
            ]
        },
        {
            "name" : "Cube.140",
            "primitives" : [
                {
                    "attributes" : {
                        "POSITION" : 12,
                        "NORMAL" : 13,
                        "TEXCOORD_0" : 14
                    },
                    "indices" : 15,
                    "material" : 0
                }
            ]
        },
        {
            "name" : "Cube.7703",
            "primitives" : [
                {
                    "attributes" : {
                        "POSITION" : 16,
                        "NORMAL" : 17,
                        "TEXCOORD_0" : 18
                    },
                    "indices" : 19,
                    "material" : 0
                }
            ]
        },
        {
            "name" : "Cylinder.472",
            "primitives" : [
                {
                    "attributes" : {
                        "POSITION" : 20,
                        "NORMAL" : 21,
                        "TEXCOORD_0" : 22
                    },
                    "indices" : 23,
                    "material" : 0
                }
            ]
        },
        {
            "name" : "Sphere.516",
            "primitives" : [
                {
                    "attributes" : {
                        "POSITION" : 24,
                        "NORMAL" : 25,
                        "TEXCOORD_0" : 26
                    },
                    "indices" : 27,
                    "material" : 0
                }
            ]
        },
        {
            "name" : "Sphere.519",
            "primitives" : [
                {
                    "attributes" : {
                        "POSITION" : 28,
                        "NORMAL" : 29,
                        "TEXCOORD_0" : 30
                    },
                    "indices" : 31,
                    "material" : 0
                }
            ]
        }
    ],
    "textures" : [
        {
            "sampler" : 0,
            "source" : 0
        }
    ],
    "images" : [
        {
            "bufferView" : 4,
            "mimeType" : "image/png",
            "name" : "tex"
        }
    ],
    "accessors" : [
        {
            "bufferView" : 0,
            "componentType" : 5126,
            "count" : 752,
            "max" : [
                -0.8264395594596863,
                0.05719918757677078,
                0.13795676827430725
            ],
            "min" : [
                -0.8543609976768494,
                -0.014034310355782509,
                -0.12436223030090332
            ],
            "type" : "VEC3"
        },
        {
            "bufferView" : 1,
            "componentType" : 5126,
            "count" : 752,
            "type" : "VEC3"
        },
        {
            "bufferView" : 2,
            "componentType" : 5126,
            "count" : 752,
            "type" : "VEC2"
        },
        {
            "bufferView" : 3,
            "componentType" : 5123,
            "count" : 1680,
            "type" : "SCALAR"
        },
        {
            "bufferView" : 5,
            "componentType" : 5126,
            "count" : 2752,
            "max" : [
                0.38628488779067993,
                0.010479302145540714,
                0.18760737776756287
            ],
            "min" : [
                -0.5355916023254395,
                -0.4224667549133301,
                -0.18768596649169922
            ],
            "type" : "VEC3"
        },
        {
            "bufferView" : 6,
            "componentType" : 5126,
            "count" : 2752,
            "type" : "VEC3"
        },
        {
            "bufferView" : 7,
            "componentType" : 5126,
            "count" : 2752,
            "type" : "VEC2"
        },
        {
            "bufferView" : 8,
            "componentType" : 5123,
            "count" : 9360,
            "type" : "SCALAR"
        },
        {
            "bufferView" : 9,
            "componentType" : 5126,
            "count" : 2572,
            "max" : [
                0.3847132921218872,
                0.8216925859451294,
                0.1872081756591797
            ],
            "min" : [
                -0.536082923412323,
                0.3954218924045563,
                -0.18729501962661743
            ],
            "type" : "VEC3"
        },
        {
            "bufferView" : 10,
            "componentType" : 5126,
            "count" : 2572,
            "type" : "VEC3"
        },
        {
            "bufferView" : 11,
            "componentType" : 5126,
            "count" : 2572,
            "type" : "VEC2"
        },
        {
            "bufferView" : 12,
            "componentType" : 5123,
            "count" : 9360,
            "type" : "SCALAR"
        },
        {
            "bufferView" : 13,
            "componentType" : 5126,
            "count" : 56,
            "max" : [
                -0.7382308840751648,
                -0.1370697170495987,
                0.11221857368946075
            ],
            "min" : [
                -1.0469228029251099,
                -0.17210572957992554,
                -0.1111498698592186
            ],
            "type" : "VEC3"
        },
        {
            "bufferView" : 14,
            "componentType" : 5126,
            "count" : 56,
            "type" : "VEC3"
        },
        {
            "bufferView" : 15,
            "componentType" : 5126,
            "count" : 56,
            "type" : "VEC2"
        },
        {
            "bufferView" : 16,
            "componentType" : 5123,
            "count" : 84,
            "type" : "SCALAR"
        },
        {
            "bufferView" : 17,
            "componentType" : 5126,
            "count" : 56,
            "max" : [
                -0.738292396068573,
                0.5986744165420532,
                0.11221859604120255
            ],
            "min" : [
                -1.0469540357589722,
                0.5739479660987854,
                -0.11115004122257233
            ],
            "type" : "VEC3"
        },
        {
            "bufferView" : 18,
            "componentType" : 5126,
            "count" : 56,
            "type" : "VEC3"
        },
        {
            "bufferView" : 19,
            "componentType" : 5126,
            "count" : 56,
            "type" : "VEC2"
        },
        {
            "bufferView" : 20,
            "componentType" : 5123,
            "count" : 84,
            "type" : "SCALAR"
        },
        {
            "bufferView" : 21,
            "componentType" : 5126,
            "count" : 272,
            "max" : [
                -0.9423096179962158,
                1.155066728591919,
                0.10944072157144547
            ],
            "min" : [
                -1.1611909866333008,
                -1.1280428171157837,
                -0.10944072157144547
            ],
            "type" : "VEC3"
        },
        {
            "bufferView" : 22,
            "componentType" : 5126,
            "count" : 272,
            "type" : "VEC3"
        },
        {
            "bufferView" : 23,
            "componentType" : 5126,
            "count" : 272,
            "type" : "VEC2"
        },
        {
            "bufferView" : 24,
            "componentType" : 5123,
            "count" : 1140,
            "type" : "SCALAR"
        },
        {
            "bufferView" : 25,
            "componentType" : 5126,
            "count" : 1353,
            "max" : [
                1.0078020095825195,
                0.2820087671279907,
                0.18407776951789856
            ],
            "min" : [
                -0.9165109395980835,
                -0.34263283014297485,
                -0.18407772481441498
            ],
            "type" : "VEC3"
        },
        {
            "bufferView" : 26,
            "componentType" : 5126,
            "count" : 1353,
            "type" : "VEC3"
        },
        {
            "bufferView" : 27,
            "componentType" : 5126,
            "count" : 1353,
            "type" : "VEC2"
        },
        {
            "bufferView" : 28,
            "componentType" : 5123,
            "count" : 4224,
            "type" : "SCALAR"
        },
        {
            "bufferView" : 29,
            "componentType" : 5126,
            "count" : 1353,
            "max" : [
                0.9946502447128296,
                0.32892125844955444,
                0.18407773971557617
            ],
            "min" : [
                -0.9021865725517273,
                -0.2804611027240753,
                -0.1840776950120926
            ],
            "type" : "VEC3"
        },
        {
            "bufferView" : 30,
            "componentType" : 5126,
            "count" : 1353,
            "type" : "VEC3"
        },
        {
            "bufferView" : 31,
            "componentType" : 5126,
            "count" : 1353,
            "type" : "VEC2"
        },
        {
            "bufferView" : 32,
            "componentType" : 5123,
            "count" : 4224,
            "type" : "SCALAR"
        }
    ],
    "bufferViews" : [
        {
            "buffer" : 0,
            "byteLength" : 9024,
            "byteOffset" : 0
        },
        {
            "buffer" : 0,
            "byteLength" : 9024,
            "byteOffset" : 9024
        },
        {
            "buffer" : 0,
            "byteLength" : 6016,
            "byteOffset" : 18048
        },
        {
            "buffer" : 0,
            "byteLength" : 3360,
            "byteOffset" : 24064
        },
        {
            "buffer" : 0,
            "byteLength" : 11997,
            "byteOffset" : 27424
        },
        {
            "buffer" : 0,
            "byteLength" : 33024,
            "byteOffset" : 39424
        },
        {
            "buffer" : 0,
            "byteLength" : 33024,
            "byteOffset" : 72448
        },
        {
            "buffer" : 0,
            "byteLength" : 22016,
            "byteOffset" : 105472
        },
        {
            "buffer" : 0,
            "byteLength" : 18720,
            "byteOffset" : 127488
        },
        {
            "buffer" : 0,
            "byteLength" : 30864,
            "byteOffset" : 146208
        },
        {
            "buffer" : 0,
            "byteLength" : 30864,
            "byteOffset" : 177072
        },
        {
            "buffer" : 0,
            "byteLength" : 20576,
            "byteOffset" : 207936
        },
        {
            "buffer" : 0,
            "byteLength" : 18720,
            "byteOffset" : 228512
        },
        {
            "buffer" : 0,
            "byteLength" : 672,
            "byteOffset" : 247232
        },
        {
            "buffer" : 0,
            "byteLength" : 672,
            "byteOffset" : 247904
        },
        {
            "buffer" : 0,
            "byteLength" : 448,
            "byteOffset" : 248576
        },
        {
            "buffer" : 0,
            "byteLength" : 168,
            "byteOffset" : 249024
        },
        {
            "buffer" : 0,
            "byteLength" : 672,
            "byteOffset" : 249192
        },
        {
            "buffer" : 0,
            "byteLength" : 672,
            "byteOffset" : 249864
        },
        {
            "buffer" : 0,
            "byteLength" : 448,
            "byteOffset" : 250536
        },
        {
            "buffer" : 0,
            "byteLength" : 168,
            "byteOffset" : 250984
        },
        {
            "buffer" : 0,
            "byteLength" : 3264,
            "byteOffset" : 251152
        },
        {
            "buffer" : 0,
            "byteLength" : 3264,
            "byteOffset" : 254416
        },
        {
            "buffer" : 0,
            "byteLength" : 2176,
            "byteOffset" : 257680
        },
        {
            "buffer" : 0,
            "byteLength" : 2280,
            "byteOffset" : 259856
        },
        {
            "buffer" : 0,
            "byteLength" : 16236,
            "byteOffset" : 262136
        },
        {
            "buffer" : 0,
            "byteLength" : 16236,
            "byteOffset" : 278372
        },
        {
            "buffer" : 0,
            "byteLength" : 10824,
            "byteOffset" : 294608
        },
        {
            "buffer" : 0,
            "byteLength" : 8448,
            "byteOffset" : 305432
        },
        {
            "buffer" : 0,
            "byteLength" : 16236,
            "byteOffset" : 313880
        },
        {
            "buffer" : 0,
            "byteLength" : 16236,
            "byteOffset" : 330116
        },
        {
            "buffer" : 0,
            "byteLength" : 10824,
            "byteOffset" : 346352
        },
        {
            "buffer" : 0,
            "byteLength" : 8448,
            "byteOffset" : 357176
        }
    ],
    "samplers" : [
        {
            "magFilter" : 9729,
            "minFilter" : 9987
        }
    ],
    "buffers" : [
        {
            "byteLength" : 365624,
            "uri" : "data:application/octet-stream;base64,"
        }
    ]
}
