{
    "asset" : {
        "copyright" : "Jeremy Edelblut",
        "generator" : "Khronos glTF Blender I/O v1.6.16",
        "version" : "2.0"
    },
    "scene" : 0,
    "scenes" : [
        {
            "name" : "Scene",
            "nodes" : [
                0,
                1,
                2,
                3,
                4,
                5,
                6,
                7
            ]
        }
    ],
    "nodes" : [
        {
            "mesh" : 0,
            "name" : "Circle.1848",
            "rotation" : [
                0.7071068286895752,
                0,
                0,
                0.7071068286895752
            ],
            "translation" : [
                0,
                0.0060870349407196045,
                -0.0012895155232399702
            ]
        },
        {
            "mesh" : 1,
            "name" : "Cube.6190",
            "translation" : [
                0,
                0,
                0.04304773360490799
            ]
        },
        {
            "mesh" : 2,
            "name" : "Circle.1849",
            "rotation" : [
                0.7071068286895752,
                0,
                0,
                0.7071068286895752
            ],
            "translation" : [
                0,
                0.0060870349407196045,
                -0.0012895155232399702
            ]
        },
        {
            "mesh" : 3,
            "name" : "Circle.1851",
            "rotation" : [
                0.7071068286895752,
                0,
                0,
                0.7071068286895752
            ],
            "translation" : [
                0,
                0.0060870349407196045,
                -0.0012895155232399702
            ]
        },
        {
            "mesh" : 4,
            "name" : "Circle.1850",
            "rotation" : [
                0,
                0.70710688829422,
                0,
                0.7071067094802856
            ],
            "scale" : [
                0.47332763671875,
                0.47332763671875,
                0.47332763671875
            ],
            "translation" : [
                0,
                -0.14742672443389893,
                0.9001755714416504
            ]
        },
        {
            "mesh" : 5,
            "name" : "Cube.6191"
        },
        {
            "mesh" : 6,
            "name" : "Cube.6192",
            "rotation" : [
                -0.009268390014767647,
                0.7070461511611938,
                -0.009268390014767647,
                0.7070459127426147
            ],
            "scale" : [
                0.47332763671875,
                0.47332763671875,
                0.47332763671875
            ],
            "translation" : [
                0,
                -0.30022963881492615,
                0.9016106128692627
            ]
        },
        {
            "mesh" : 7,
            "name" : "3moji.002",
            "rotation" : [
                0,
                -0.7071068286895752,
                0,
                0.7071068286895752
            ],
            "scale" : [
                1.0502532720565796,
                1.0502532720565796,
                1.0502532720565796
            ],
            "translation" : [
                0,
                -1.4077871128392871e-05,
                0.05559144541621208
            ]
        }
    ],
    "materials" : [
        {
            "doubleSided" : true,
            "name" : "DKBrown",
            "pbrMetallicRoughness" : {
                "baseColorFactor" : [
                    0.010021701455116272,
                    0.0023923655971884727,
                    0.0018060366855934262,
                    1
                ],
                "metallicFactor" : 0,
                "roughnessFactor" : 0.5
            }
        },
        {
            "doubleSided" : true,
            "name" : "Color",
            "pbrMetallicRoughness" : {
                "baseColorTexture" : {
                    "index" : 0
                },
                "metallicFactor" : 0,
                "roughnessFactor" : 0.5
            }
        },
        {
            "doubleSided" : true,
            "name" : "Pink",
            "pbrMetallicRoughness" : {
                "baseColorFactor" : [
                    0.8000000715255737,
                    0.07068260759115219,
                    0.3145071268081665,
                    1
                ],
                "metallicFactor" : 0,
                "roughnessFactor" : 0.5
            }
        }
    ],
    "meshes" : [
        {
            "name" : "Circle.2057",
            "primitives" : [
                {
                    "attributes" : {
                        "POSITION" : 0,
                        "NORMAL" : 1,
                        "TEXCOORD_0" : 2
                    },
                    "indices" : 3,
                    "material" : 0
                }
            ]
        },
        {
            "name" : "Cube.7239",
            "primitives" : [
                {
                    "attributes" : {
                        "POSITION" : 4,
                        "NORMAL" : 5,
                        "TEXCOORD_0" : 6
                    },
                    "indices" : 7,
                    "material" : 1
                }
            ]
        },
        {
            "name" : "Circle.2058",
            "primitives" : [
                {
                    "attributes" : {
                        "POSITION" : 8,
                        "NORMAL" : 9,
                        "TEXCOORD_0" : 10
                    },
                    "indices" : 11,
                    "material" : 0
                }
            ]
        },
        {
            "name" : "Circle.2060",
            "primitives" : [
                {
                    "attributes" : {
                        "POSITION" : 12,
                        "NORMAL" : 13,
                        "TEXCOORD_0" : 14
                    },
                    "indices" : 15,
                    "material" : 1
                }
            ]
        },
        {
            "name" : "Circle.2059",
            "primitives" : [
                {
                    "attributes" : {
                        "POSITION" : 16,
                        "NORMAL" : 17
                    },
                    "indices" : 18,
                    "material" : 0
                }
            ]
        },
        {
            "name" : "Cube.7240",
            "primitives" : [
                {
                    "attributes" : {
                        "POSITION" : 19,
                        "NORMAL" : 20,
                        "TEXCOORD_0" : 21
                    },
                    "indices" : 22,
                    "material" : 1
                }
            ]
        },
        {
            "name" : "Cube.7241",
            "primitives" : [
                {
                    "attributes" : {
                        "POSITION" : 23,
                        "NORMAL" : 24,
                        "TEXCOORD_0" : 25
                    },
                    "indices" : 26,
                    "material" : 2
                }
            ]
        },
        {
            "name" : "Cube.653",
            "primitives" : [
                {
                    "attributes" : {
                        "POSITION" : 27,
                        "NORMAL" : 28,
                        "TEXCOORD_0" : 29
                    },
                    "indices" : 30,
                    "material" : 1
                }
            ]
        }
    ],
    "textures" : [
        {
            "sampler" : 0,
            "source" : 0
        }
    ],
    "images" : [
        {
            "bufferView" : 8,
            "mimeType" : "image/png",
            "name" : "tex2"
        }
    ],
    "accessors" : [
        {
            "bufferView" : 0,
            "componentType" : 5126,
            "count" : 224,
            "max" : [
                0.5001519322395325,
                0.8517519235610962,
                0.0032445224933326244
            ],
            "min" : [
                -0.5001519322395325,
                0.6808039546012878,
                -0.36023950576782227
            ],
            "type" : "VEC3"
        },
        {
            "bufferView" : 1,
            "componentType" : 5126,
            "count" : 224,
            "type" : "VEC3"
        },
        {
            "bufferView" : 2,
            "componentType" : 5126,
            "count" : 224,
            "type" : "VEC2"
        },
        {
            "bufferView" : 3,
            "componentType" : 5123,
            "count" : 840,
            "type" : "SCALAR"
        },
        {
            "bufferView" : 4,
            "componentType" : 5126,
            "count" : 744,
            "max" : [
                0.9064549207687378,
                1.0691052675247192,
                0.07669848203659058
            ],
            "min" : [
                -0.9064549207687378,
                0.18820247054100037,
                -0.3033410906791687
            ],
            "type" : "VEC3"
        },
        {
            "bufferView" : 5,
            "componentType" : 5126,
            "count" : 744,
            "type" : "VEC3"
        },
        {
            "bufferView" : 6,
            "componentType" : 5126,
            "count" : 744,
            "type" : "VEC2"
        },
        {
            "bufferView" : 7,
            "componentType" : 5123,
            "count" : 3504,
            "type" : "SCALAR"
        },
        {
            "bufferView" : 9,
            "componentType" : 5126,
            "count" : 112,
            "max" : [
                0.1331205517053604,
                0.9401232004165649,
                0.16558033227920532
            ],
            "min" : [
                -0.13312242925167084,
                0.8595321774482727,
                -0.00515814870595932
            ],
            "type" : "VEC3"
        },
        {
            "bufferView" : 10,
            "componentType" : 5126,
            "count" : 112,
            "type" : "VEC3"
        },
        {
            "bufferView" : 11,
            "componentType" : 5126,
            "count" : 112,
            "type" : "VEC2"
        },
        {
            "bufferView" : 12,
            "componentType" : 5123,
            "count" : 372,
            "type" : "SCALAR"
        },
        {
            "bufferView" : 13,
            "componentType" : 5126,
            "count" : 2028,
            "max" : [
                0.58275306224823,
                0.838350236415863,
                0.2365734577178955
            ],
            "min" : [
                -0.58275306224823,
                0.7016738057136536,
                0.055037908256053925
            ],
            "type" : "VEC3"
        },
        {
            "bufferView" : 14,
            "componentType" : 5126,
            "count" : 2028,
            "type" : "VEC3"
        },
        {
            "bufferView" : 15,
            "componentType" : 5126,
            "count" : 2028,
            "type" : "VEC2"
        },
        {
            "bufferView" : 16,
            "componentType" : 5123,
            "count" : 8640,
            "type" : "SCALAR"
        },
        {
            "bufferView" : 17,
            "componentType" : 5126,
            "count" : 310,
            "max" : [
                0.06828101724386215,
                0.0163763165473938,
                0.5016942620277405
            ],
            "min" : [
                -0.03077518753707409,
                -0.25448107719421387,
                -0.5016942620277405
            ],
            "type" : "VEC3"
        },
        {
            "bufferView" : 18,
            "componentType" : 5126,
            "count" : 310,
            "type" : "VEC3"
        },
        {
            "bufferView" : 19,
            "componentType" : 5123,
            "count" : 876,
            "type" : "SCALAR"
        },
        {
            "bufferView" : 20,
            "componentType" : 5126,
            "count" : 386,
            "max" : [
                0.981553852558136,
                0.839506208896637,
                0.9060388803482056
            ],
            "min" : [
                -0.981553852558136,
                -0.8395062685012817,
                -0.839506208896637
            ],
            "type" : "VEC3"
        },
        {
            "bufferView" : 21,
            "componentType" : 5126,
            "count" : 386,
            "type" : "VEC3"
        },
        {
            "bufferView" : 22,
            "componentType" : 5126,
            "count" : 386,
            "type" : "VEC2"
        },
        {
            "bufferView" : 23,
            "componentType" : 5123,
            "count" : 2304,
            "type" : "SCALAR"
        },
        {
            "bufferView" : 24,
            "componentType" : 5126,
            "count" : 118,
            "max" : [
                0.016430644318461418,
                0.23174791038036346,
                0.1511521339416504
            ],
            "min" : [
                -0.016430405899882317,
                -0.23174791038036346,
                -0.1511521339416504
            ],
            "type" : "VEC3"
        },
        {
            "bufferView" : 25,
            "componentType" : 5126,
            "count" : 118,
            "type" : "VEC3"
        },
        {
            "bufferView" : 26,
            "componentType" : 5126,
            "count" : 118,
            "type" : "VEC2"
        },
        {
            "bufferView" : 27,
            "componentType" : 5123,
            "count" : 216,
            "type" : "SCALAR"
        },
        {
            "bufferView" : 28,
            "componentType" : 5126,
            "count" : 752,
            "max" : [
                -0.8264395594596863,
                0.05719918757677078,
                0.13795676827430725
            ],
            "min" : [
                -0.8543609976768494,
                -0.014034310355782509,
                -0.12436223030090332
            ],
            "type" : "VEC3"
        },
        {
            "bufferView" : 29,
            "componentType" : 5126,
            "count" : 752,
            "type" : "VEC3"
        },
        {
            "bufferView" : 30,
            "componentType" : 5126,
            "count" : 752,
            "type" : "VEC2"
        },
        {
            "bufferView" : 31,
            "componentType" : 5123,
            "count" : 1680,
            "type" : "SCALAR"
        }
    ],
    "bufferViews" : [
        {
            "buffer" : 0,
            "byteLength" : 2688,
            "byteOffset" : 0
        },
        {
            "buffer" : 0,
            "byteLength" : 2688,
            "byteOffset" : 2688
        },
        {
            "buffer" : 0,
            "byteLength" : 1792,
            "byteOffset" : 5376
        },
        {
            "buffer" : 0,
            "byteLength" : 1680,
            "byteOffset" : 7168
        },
        {
            "buffer" : 0,
            "byteLength" : 8928,
            "byteOffset" : 8848
        },
        {
            "buffer" : 0,
            "byteLength" : 8928,
            "byteOffset" : 17776
        },
        {
            "buffer" : 0,
            "byteLength" : 5952,
            "byteOffset" : 26704
        },
        {
            "buffer" : 0,
            "byteLength" : 7008,
            "byteOffset" : 32656
        },
        {
            "buffer" : 0,
            "byteLength" : 6478,
            "byteOffset" : 39664
        },
        {
            "buffer" : 0,
            "byteLength" : 1344,
            "byteOffset" : 46144
        },
        {
            "buffer" : 0,
            "byteLength" : 1344,
            "byteOffset" : 47488
        },
        {
            "buffer" : 0,
            "byteLength" : 896,
            "byteOffset" : 48832
        },
        {
            "buffer" : 0,
            "byteLength" : 744,
            "byteOffset" : 49728
        },
        {
            "buffer" : 0,
            "byteLength" : 24336,
            "byteOffset" : 50472
        },
        {
            "buffer" : 0,
            "byteLength" : 24336,
            "byteOffset" : 74808
        },
        {
            "buffer" : 0,
            "byteLength" : 16224,
            "byteOffset" : 99144
        },
        {
            "buffer" : 0,
            "byteLength" : 17280,
            "byteOffset" : 115368
        },
        {
            "buffer" : 0,
            "byteLength" : 3720,
            "byteOffset" : 132648
        },
        {
            "buffer" : 0,
            "byteLength" : 3720,
            "byteOffset" : 136368
        },
        {
            "buffer" : 0,
            "byteLength" : 1752,
            "byteOffset" : 140088
        },
        {
            "buffer" : 0,
            "byteLength" : 4632,
            "byteOffset" : 141840
        },
        {
            "buffer" : 0,
            "byteLength" : 4632,
            "byteOffset" : 146472
        },
        {
            "buffer" : 0,
            "byteLength" : 3088,
            "byteOffset" : 151104
        },
        {
            "buffer" : 0,
            "byteLength" : 4608,
            "byteOffset" : 154192
        },
        {
            "buffer" : 0,
            "byteLength" : 1416,
            "byteOffset" : 158800
        },
        {
            "buffer" : 0,
            "byteLength" : 1416,
            "byteOffset" : 160216
        },
        {
            "buffer" : 0,
            "byteLength" : 944,
            "byteOffset" : 161632
        },
        {
            "buffer" : 0,
            "byteLength" : 432,
            "byteOffset" : 162576
        },
        {
            "buffer" : 0,
            "byteLength" : 9024,
            "byteOffset" : 163008
        },
        {
            "buffer" : 0,
            "byteLength" : 9024,
            "byteOffset" : 172032
        },
        {
            "buffer" : 0,
            "byteLength" : 6016,
            "byteOffset" : 181056
        },
        {
            "buffer" : 0,
            "byteLength" : 3360,
            "byteOffset" : 187072
        }
    ],
    "samplers" : [
        {
            "magFilter" : 9729,
            "minFilter" : 9987
        }
    ],
    "buffers" : [
        {
            "byteLength" : 190432,
            "uri" : "data:application/octet-stream;base64,"
        }
    ]
}
