{
    "asset" : {
        "copyright" : "Jeremy Edelblut",
        "generator" : "Khronos glTF Blender I/O v1.6.16",
        "version" : "2.0"
    },
    "scene" : 0,
    "scenes" : [
        {
            "name" : "Scene",
            "nodes" : [
                0,
                1
            ]
        }
    ],
    "nodes" : [
        {
            "mesh" : 0,
            "name" : "Circle.2027",
            "rotation" : [
                0,
                0,
                -0.7071067690849304,
                0.7071068286895752
            ],
            "scale" : [
                0.555571436882019,
                0.6501543521881104,
                0.555571436882019
            ],
            "translation" : [
                -0.043508078902959824,
                0,
                0
            ]
        },
        {
            "mesh" : 1,
            "name" : "Cube.171",
            "rotation" : [
                0.10613944381475449,
                0.10613936185836792,
                -0.6990954279899597,
                0.6990954279899597
            ],
            "scale" : [
                0.46680647134780884,
                0.33958637714385986,
                0.46680647134780884
            ]
        }
    ],
    "materials" : [
        {
            "doubleSided" : true,
            "name" : "white",
            "pbrMetallicRoughness" : {
                "baseColorFactor" : [
                    0.800000011920929,
                    0.800000011920929,
                    0.800000011920929,
                    1
                ],
                "metallicFactor" : 0,
                "roughnessFactor" : 0.5
            }
        },
        {
            "doubleSided" : true,
            "name" : "Pink",
            "pbrMetallicRoughness" : {
                "baseColorFactor" : [
                    0.8000000715255737,
                    0.07068260759115219,
                    0.3145071268081665,
                    1
                ],
                "metallicFactor" : 0,
                "roughnessFactor" : 0.5
            }
        }
    ],
    "meshes" : [
        {
            "name" : "Circle.2368",
            "primitives" : [
                {
                    "attributes" : {
                        "POSITION" : 0,
                        "NORMAL" : 1,
                        "TEXCOORD_0" : 2
                    },
                    "indices" : 3,
                    "material" : 0
                },
                {
                    "attributes" : {
                        "POSITION" : 4,
                        "NORMAL" : 5,
                        "TEXCOORD_0" : 6
                    },
                    "indices" : 7,
                    "material" : 1
                }
            ]
        },
        {
            "name" : "Cube.295",
            "primitives" : [
                {
                    "attributes" : {
                        "POSITION" : 8,
                        "NORMAL" : 9,
                        "TEXCOORD_0" : 10
                    },
                    "indices" : 11,
                    "material" : 1
                }
            ]
        }
    ],
    "accessors" : [
        {
            "bufferView" : 0,
            "componentType" : 5126,
            "count" : 866,
            "max" : [
                0.5116230845451355,
                0.8244152069091797,
                0.5116231441497803
            ],
            "min" : [
                -0.5116231441497803,
                0.038130324333906174,
                -0.5116231441497803
            ],
            "type" : "VEC3"
        },
        {
            "bufferView" : 1,
            "componentType" : 5126,
            "count" : 866,
            "type" : "VEC3"
        },
        {
            "bufferView" : 2,
            "componentType" : 5126,
            "count" : 866,
            "type" : "VEC2"
        },
        {
            "bufferView" : 3,
            "componentType" : 5123,
            "count" : 4416,
            "type" : "SCALAR"
        },
        {
            "bufferView" : 4,
            "componentType" : 5126,
            "count" : 791,
            "max" : [
                0.4786776006221771,
                0.8526700735092163,
                0.4554517865180969
            ],
            "min" : [
                -0.4063624143600464,
                0.7752060890197754,
                -0.4849225878715515
            ],
            "type" : "VEC3"
        },
        {
            "bufferView" : 5,
            "componentType" : 5126,
            "count" : 791,
            "type" : "VEC3"
        },
        {
            "bufferView" : 6,
            "componentType" : 5126,
            "count" : 791,
            "type" : "VEC2"
        },
        {
            "bufferView" : 7,
            "componentType" : 5123,
            "count" : 2352,
            "type" : "SCALAR"
        },
        {
            "bufferView" : 8,
            "componentType" : 5126,
            "count" : 2060,
            "max" : [
                2.0173726081848145,
                0.44391095638275146,
                1.8589186668395996
            ],
            "min" : [
                -2.018383502960205,
                0.140134796500206,
                -2.0275371074676514
            ],
            "type" : "VEC3"
        },
        {
            "bufferView" : 9,
            "componentType" : 5126,
            "count" : 2060,
            "type" : "VEC3"
        },
        {
            "bufferView" : 10,
            "componentType" : 5126,
            "count" : 2060,
            "type" : "VEC2"
        },
        {
            "bufferView" : 11,
            "componentType" : 5123,
            "count" : 8640,
            "type" : "SCALAR"
        }
    ],
    "bufferViews" : [
        {
            "buffer" : 0,
            "byteLength" : 10392,
            "byteOffset" : 0
        },
        {
            "buffer" : 0,
            "byteLength" : 10392,
            "byteOffset" : 10392
        },
        {
            "buffer" : 0,
            "byteLength" : 6928,
            "byteOffset" : 20784
        },
        {
            "buffer" : 0,
            "byteLength" : 8832,
            "byteOffset" : 27712
        },
        {
            "buffer" : 0,
            "byteLength" : 9492,
            "byteOffset" : 36544
        },
        {
            "buffer" : 0,
            "byteLength" : 9492,
            "byteOffset" : 46036
        },
        {
            "buffer" : 0,
            "byteLength" : 6328,
            "byteOffset" : 55528
        },
        {
            "buffer" : 0,
            "byteLength" : 4704,
            "byteOffset" : 61856
        },
        {
            "buffer" : 0,
            "byteLength" : 24720,
            "byteOffset" : 66560
        },
        {
            "buffer" : 0,
            "byteLength" : 24720,
            "byteOffset" : 91280
        },
        {
            "buffer" : 0,
            "byteLength" : 16480,
            "byteOffset" : 116000
        },
        {
            "buffer" : 0,
            "byteLength" : 17280,
            "byteOffset" : 132480
        }
    ],
    "buffers" : [
        {
            "byteLength" : 149760,
            "uri" : "data:application/octet-stream;base64,"
        }
    ]
}
