{
    "asset" : {
        "copyright" : "Jeremy Edelblut",
        "generator" : "Khronos glTF Blender I/O v1.6.16",
        "version" : "2.0"
    },
    "scene" : 0,
    "scenes" : [
        {
            "name" : "Scene",
            "nodes" : [
                0
            ]
        }
    ],
    "nodes" : [
        {
            "mesh" : 0,
            "name" : "Cube.171",
            "rotation" : [
                0.5693870782852173,
                -0.41928327083587646,
                -0.4192831814289093,
                0.5693869590759277
            ],
            "scale" : [
                0.5353590250015259,
                0.3894560933113098,
                0.5353590250015259
            ]
        }
    ],
    "materials" : [
        {
            "doubleSided" : true,
            "name" : "Color",
            "pbrMetallicRoughness" : {
                "baseColorTexture" : {
                    "index" : 0
                },
                "metallicFactor" : 0,
                "roughnessFactor" : 0.5
            }
        }
    ],
    "meshes" : [
        {
            "name" : "Cube.295",
            "primitives" : [
                {
                    "attributes" : {
                        "POSITION" : 0,
                        "NORMAL" : 1,
                        "TEXCOORD_0" : 2
                    },
                    "indices" : 3,
                    "material" : 0
                }
            ]
        }
    ],
    "textures" : [
        {
            "sampler" : 0,
            "source" : 0
        }
    ],
    "images" : [
        {
            "bufferView" : 4,
            "mimeType" : "image/png",
            "name" : "tex"
        }
    ],
    "accessors" : [
        {
            "bufferView" : 0,
            "componentType" : 5126,
            "count" : 3335,
            "max" : [
                2.0173726081848145,
                1.504356861114502,
                1.8589186668395996
            ],
            "min" : [
                -2.018383502960205,
                -0.05511850118637085,
                -2.0275371074676514
            ],
            "type" : "VEC3"
        },
        {
            "bufferView" : 1,
            "componentType" : 5126,
            "count" : 3335,
            "type" : "VEC3"
        },
        {
            "bufferView" : 2,
            "componentType" : 5126,
            "count" : 3335,
            "type" : "VEC2"
        },
        {
            "bufferView" : 3,
            "componentType" : 5123,
            "count" : 15408,
            "type" : "SCALAR"
        }
    ],
    "bufferViews" : [
        {
            "buffer" : 0,
            "byteLength" : 40020,
            "byteOffset" : 0
        },
        {
            "buffer" : 0,
            "byteLength" : 40020,
            "byteOffset" : 40020
        },
        {
            "buffer" : 0,
            "byteLength" : 26680,
            "byteOffset" : 80040
        },
        {
            "buffer" : 0,
            "byteLength" : 30816,
            "byteOffset" : 106720
        },
        {
            "buffer" : 0,
            "byteLength" : 3214,
            "byteOffset" : 137536
        }
    ],
    "samplers" : [
        {
            "magFilter" : 9729,
            "minFilter" : 9987
        }
    ],
    "buffers" : [
        {
            "byteLength" : 140752,
            "uri" : "data:application/octet-stream;base64,"
        }
    ]
}
