{
    "asset" : {
        "copyright" : "Jeremy Edelblut",
        "generator" : "Khronos glTF Blender I/O v1.7.33",
        "version" : "2.0"
    },
    "scene" : 0,
    "scenes" : [
        {
            "name" : "Scene",
            "nodes" : [
                0
            ]
        }
    ],
    "nodes" : [
        {
            "mesh" : 0,
            "name" : "Cube.6305",
            "rotation" : [
                0,
                0,
                -0.3826834559440613,
                0.9238795042037964
            ],
            "scale" : [
                0.8800000548362732,
                0.8800000548362732,
                0.8800000548362732
            ]
        }
    ],
    "materials" : [
        {
            "doubleSided" : true,
            "name" : "color",
            "pbrMetallicRoughness" : {
                "baseColorTexture" : {
                    "index" : 0
                },
                "metallicFactor" : 0,
                "roughnessFactor" : 0.5
            }
        }
    ],
    "meshes" : [
        {
            "name" : "Cube.7997",
            "primitives" : [
                {
                    "attributes" : {
                        "POSITION" : 0,
                        "NORMAL" : 1,
                        "TEXCOORD_0" : 2
                    },
                    "indices" : 3,
                    "material" : 0
                }
            ]
        }
    ],
    "textures" : [
        {
            "sampler" : 0,
            "source" : 0
        }
    ],
    "images" : [
        {
            "bufferView" : 4,
            "mimeType" : "image/png",
            "name" : "tex"
        }
    ],
    "accessors" : [
        {
            "bufferView" : 0,
            "componentType" : 5126,
            "count" : 927,
            "max" : [
                1,
                1,
                0.45454543828964233
            ],
            "min" : [
                -1,
                -1,
                -0.375
            ],
            "type" : "VEC3"
        },
        {
            "bufferView" : 1,
            "componentType" : 5126,
            "count" : 927,
            "type" : "VEC3"
        },
        {
            "bufferView" : 2,
            "componentType" : 5126,
            "count" : 927,
            "type" : "VEC2"
        },
        {
            "bufferView" : 3,
            "componentType" : 5123,
            "count" : 3360,
            "type" : "SCALAR"
        }
    ],
    "bufferViews" : [
        {
            "buffer" : 0,
            "byteLength" : 11124,
            "byteOffset" : 0
        },
        {
            "buffer" : 0,
            "byteLength" : 11124,
            "byteOffset" : 11124
        },
        {
            "buffer" : 0,
            "byteLength" : 7416,
            "byteOffset" : 22248
        },
        {
            "buffer" : 0,
            "byteLength" : 6720,
            "byteOffset" : 29664
        },
        {
            "buffer" : 0,
            "byteLength" : 11997,
            "byteOffset" : 36384
        }
    ],
    "samplers" : [
        {
            "magFilter" : 9729,
            "minFilter" : 9987
        }
    ],
    "buffers" : [
        {
            "byteLength" : 48384,
            "uri" : "data:application/octet-stream;base64,"
        }
    ]
}
