{
    "asset" : {
        "copyright" : "Jeremy Edelblut",
        "generator" : "Khronos glTF Blender I/O v1.6.16",
        "version" : "2.0"
    },
    "scene" : 0,
    "scenes" : [
        {
            "name" : "Scene",
            "nodes" : [
                0,
                1,
                2,
                3
            ]
        }
    ],
    "nodes" : [
        {
            "mesh" : 0,
            "name" : "Circle.1920",
            "rotation" : [
                0.653281569480896,
                -0.270597904920578,
                0.2705979347229004,
                0.6532815098762512
            ],
            "translation" : [
                -0.543485164642334,
                0.8625927567481995,
                0.5434850454330444
            ]
        },
        {
            "mesh" : 1,
            "name" : "Plane.141",
            "rotation" : [
                0,
                -0.3826834559440613,
                0,
                0.9238795042037964
            ],
            "translation" : [
                -0.14832796156406403,
                -0.36540111899375916,
                0.14832793176174164
            ]
        },
        {
            "mesh" : 2,
            "name" : "Sphere.382",
            "rotation" : [
                0.044561486691236496,
                -0.3822380602359772,
                0.01845797523856163,
                0.9228042364120483
            ],
            "scale" : [
                1.148868203163147,
                1.1488683223724365,
                1.148868441581726
            ],
            "translation" : [
                -0.5696485638618469,
                0.10684269666671753,
                0.5632065534591675
            ]
        },
        {
            "mesh" : 3,
            "name" : "3moji.org.231",
            "rotation" : [
                -0.2705981135368347,
                0.27059808373451233,
                -0.6532813906669617,
                0.6532815098762512
            ],
            "translation" : [
                -0.10609164088964462,
                -0.8604673743247986,
                0.10609147697687149
            ]
        }
    ],
    "materials" : [
        {
            "doubleSided" : true,
            "name" : "DKBrown",
            "pbrMetallicRoughness" : {
                "baseColorFactor" : [
                    0.010021701455116272,
                    0.0023923655971884727,
                    0.0018060366855934262,
                    1
                ],
                "metallicFactor" : 0,
                "roughnessFactor" : 0.5
            }
        },
        {
            "doubleSided" : true,
            "name" : "Color",
            "pbrMetallicRoughness" : {
                "baseColorTexture" : {
                    "index" : 0
                },
                "metallicFactor" : 0,
                "roughnessFactor" : 0.5
            }
        }
    ],
    "meshes" : [
        {
            "name" : "Circle.2137",
            "primitives" : [
                {
                    "attributes" : {
                        "POSITION" : 0,
                        "NORMAL" : 1,
                        "TEXCOORD_0" : 2
                    },
                    "indices" : 3,
                    "material" : 0
                }
            ]
        },
        {
            "name" : "Plane.141",
            "primitives" : [
                {
                    "attributes" : {
                        "POSITION" : 4,
                        "NORMAL" : 5,
                        "TEXCOORD_0" : 6
                    },
                    "indices" : 7,
                    "material" : 1
                }
            ]
        },
        {
            "name" : "Sphere.376",
            "primitives" : [
                {
                    "attributes" : {
                        "POSITION" : 8,
                        "NORMAL" : 9,
                        "TEXCOORD_0" : 10
                    },
                    "indices" : 11,
                    "material" : 1
                }
            ]
        },
        {
            "name" : "Cube.695",
            "primitives" : [
                {
                    "attributes" : {
                        "POSITION" : 12,
                        "NORMAL" : 13,
                        "TEXCOORD_0" : 14
                    },
                    "indices" : 15,
                    "material" : 1
                }
            ]
        }
    ],
    "textures" : [
        {
            "sampler" : 0,
            "source" : 0
        }
    ],
    "images" : [
        {
            "bufferView" : 8,
            "mimeType" : "image/png",
            "name" : "tex2"
        }
    ],
    "accessors" : [
        {
            "bufferView" : 0,
            "componentType" : 5126,
            "count" : 224,
            "max" : [
                0.27000024914741516,
                -0.3353499174118042,
                0.27640318870544434
            ],
            "min" : [
                -0.27000024914741516,
                -0.44503289461135864,
                0.14848339557647705
            ],
            "type" : "VEC3"
        },
        {
            "bufferView" : 1,
            "componentType" : 5126,
            "count" : 224,
            "type" : "VEC3"
        },
        {
            "bufferView" : 2,
            "componentType" : 5126,
            "count" : 224,
            "type" : "VEC2"
        },
        {
            "bufferView" : 3,
            "componentType" : 5123,
            "count" : 840,
            "type" : "SCALAR"
        },
        {
            "bufferView" : 4,
            "componentType" : 5126,
            "count" : 1900,
            "max" : [
                0.25,
                1.3322951793670654,
                0.7238221168518066
            ],
            "min" : [
                -0.25,
                -0.5,
                -1.2302532196044922
            ],
            "type" : "VEC3"
        },
        {
            "bufferView" : 5,
            "componentType" : 5126,
            "count" : 1900,
            "type" : "VEC3"
        },
        {
            "bufferView" : 6,
            "componentType" : 5126,
            "count" : 1900,
            "type" : "VEC2"
        },
        {
            "bufferView" : 7,
            "componentType" : 5123,
            "count" : 6672,
            "type" : "SCALAR"
        },
        {
            "bufferView" : 9,
            "componentType" : 5126,
            "count" : 1026,
            "max" : [
                0.20378196239471436,
                0.20203448832035065,
                0.20378200709819794
            ],
            "min" : [
                -0.2037818729877472,
                -0.21629966795444489,
                -0.20378196239471436
            ],
            "type" : "VEC3"
        },
        {
            "bufferView" : 10,
            "componentType" : 5126,
            "count" : 1026,
            "type" : "VEC3"
        },
        {
            "bufferView" : 11,
            "componentType" : 5126,
            "count" : 1026,
            "type" : "VEC2"
        },
        {
            "bufferView" : 12,
            "componentType" : 5123,
            "count" : 5184,
            "type" : "SCALAR"
        },
        {
            "bufferView" : 13,
            "componentType" : 5126,
            "count" : 752,
            "max" : [
                0.009370044805109501,
                0.05714607611298561,
                0.12471253424882889
            ],
            "min" : [
                2.0758510288487741e-07,
                -0.013743984512984753,
                -0.1385934054851532
            ],
            "type" : "VEC3"
        },
        {
            "bufferView" : 14,
            "componentType" : 5126,
            "count" : 752,
            "type" : "VEC3"
        },
        {
            "bufferView" : 15,
            "componentType" : 5126,
            "count" : 752,
            "type" : "VEC2"
        },
        {
            "bufferView" : 16,
            "componentType" : 5123,
            "count" : 1680,
            "type" : "SCALAR"
        }
    ],
    "bufferViews" : [
        {
            "buffer" : 0,
            "byteLength" : 2688,
            "byteOffset" : 0
        },
        {
            "buffer" : 0,
            "byteLength" : 2688,
            "byteOffset" : 2688
        },
        {
            "buffer" : 0,
            "byteLength" : 1792,
            "byteOffset" : 5376
        },
        {
            "buffer" : 0,
            "byteLength" : 1680,
            "byteOffset" : 7168
        },
        {
            "buffer" : 0,
            "byteLength" : 22800,
            "byteOffset" : 8848
        },
        {
            "buffer" : 0,
            "byteLength" : 22800,
            "byteOffset" : 31648
        },
        {
            "buffer" : 0,
            "byteLength" : 15200,
            "byteOffset" : 54448
        },
        {
            "buffer" : 0,
            "byteLength" : 13344,
            "byteOffset" : 69648
        },
        {
            "buffer" : 0,
            "byteLength" : 6474,
            "byteOffset" : 82992
        },
        {
            "buffer" : 0,
            "byteLength" : 12312,
            "byteOffset" : 89468
        },
        {
            "buffer" : 0,
            "byteLength" : 12312,
            "byteOffset" : 101780
        },
        {
            "buffer" : 0,
            "byteLength" : 8208,
            "byteOffset" : 114092
        },
        {
            "buffer" : 0,
            "byteLength" : 10368,
            "byteOffset" : 122300
        },
        {
            "buffer" : 0,
            "byteLength" : 9024,
            "byteOffset" : 132668
        },
        {
            "buffer" : 0,
            "byteLength" : 9024,
            "byteOffset" : 141692
        },
        {
            "buffer" : 0,
            "byteLength" : 6016,
            "byteOffset" : 150716
        },
        {
            "buffer" : 0,
            "byteLength" : 3360,
            "byteOffset" : 156732
        }
    ],
    "samplers" : [
        {
            "magFilter" : 9729,
            "minFilter" : 9987
        }
    ],
    "buffers" : [
        {
            "byteLength" : 160092,
            "uri" : "data:application/octet-stream;base64,"
        }
    ]
}
