{
    "asset" : {
        "copyright" : "Jeremy Edelblut",
        "generator" : "Khronos glTF Blender I/O v1.6.16",
        "version" : "2.0"
    },
    "scene" : 0,
    "scenes" : [
        {
            "name" : "Scene",
            "nodes" : [
                0,
                1,
                2,
                3
            ]
        }
    ],
    "nodes" : [
        {
            "mesh" : 0,
            "name" : "Circle.1920",
            "rotation" : [
                0.653281569480896,
                -0.270597904920578,
                0.2705979347229004,
                0.6532815098762512
            ],
            "scale" : [
                0.30000001192092896,
                0.30000001192092896,
                0.30000001192092896
            ],
            "translation" : [
                -0.543485164642334,
                0.8625927567481995,
                0.5434850454330444
            ]
        },
        {
            "mesh" : 1,
            "name" : "Plane.141",
            "rotation" : [
                0,
                -0.3826834559440613,
                0,
                0.9238795042037964
            ],
            "scale" : [
                0.5,
                0.5,
                0.5
            ],
            "translation" : [
                -0.14832796156406403,
                -0.36540111899375916,
                0.14832793176174164
            ]
        },
        {
            "mesh" : 2,
            "name" : "Sphere.382",
            "rotation" : [
                0.044561486691236496,
                -0.3822380602359772,
                0.01845797523856163,
                0.9228042364120483
            ],
            "scale" : [
                0.1867135763168335,
                0.1867135912179947,
                0.1867135912179947
            ],
            "translation" : [
                -0.5276085138320923,
                0.0414322130382061,
                0.5276083946228027
            ]
        },
        {
            "mesh" : 3,
            "name" : "3moji.org.231",
            "rotation" : [
                -0.2705981135368347,
                0.27059808373451233,
                -0.6532813906669617,
                0.6532815098762512
            ],
            "scale" : [
                0.007233680225908756,
                0.007233680225908756,
                0.007233680225908756
            ],
            "translation" : [
                -0.10609164088964462,
                -0.8604673743247986,
                0.10609147697687149
            ]
        }
    ],
    "materials" : [
        {
            "doubleSided" : true,
            "name" : "DKBrown",
            "pbrMetallicRoughness" : {
                "baseColorFactor" : [
                    0.010021701455116272,
                    0.0023923655971884727,
                    0.0018060366855934262,
                    1
                ],
                "metallicFactor" : 0,
                "roughnessFactor" : 0.5
            }
        },
        {
            "doubleSided" : true,
            "name" : "Color",
            "pbrMetallicRoughness" : {
                "baseColorTexture" : {
                    "index" : 0
                },
                "metallicFactor" : 0,
                "roughnessFactor" : 0.5
            }
        }
    ],
    "meshes" : [
        {
            "name" : "Circle.2137",
            "primitives" : [
                {
                    "attributes" : {
                        "POSITION" : 0,
                        "NORMAL" : 1,
                        "TEXCOORD_0" : 2
                    },
                    "indices" : 3,
                    "material" : 0
                }
            ]
        },
        {
            "name" : "Plane.141",
            "primitives" : [
                {
                    "attributes" : {
                        "POSITION" : 4,
                        "NORMAL" : 5,
                        "TEXCOORD_0" : 6
                    },
                    "indices" : 7,
                    "material" : 1
                }
            ]
        },
        {
            "name" : "Sphere.376",
            "primitives" : [
                {
                    "attributes" : {
                        "POSITION" : 8,
                        "NORMAL" : 9,
                        "TEXCOORD_0" : 10
                    },
                    "indices" : 11,
                    "material" : 1
                }
            ]
        },
        {
            "name" : "Cube.695",
            "primitives" : [
                {
                    "attributes" : {
                        "POSITION" : 12,
                        "NORMAL" : 13,
                        "TEXCOORD_0" : 14
                    },
                    "indices" : 15,
                    "material" : 1
                }
            ]
        }
    ],
    "textures" : [
        {
            "sampler" : 0,
            "source" : 0
        }
    ],
    "images" : [
        {
            "bufferView" : 8,
            "mimeType" : "image/png",
            "name" : "tex2"
        }
    ],
    "accessors" : [
        {
            "bufferView" : 0,
            "componentType" : 5126,
            "count" : 752,
            "max" : [
                0.8533340096473694,
                -0.8264979720115662,
                1.0284870862960815
            ],
            "min" : [
                -0.8533340096473694,
                -1.1916593313217163,
                0.613084614276886
            ],
            "type" : "VEC3"
        },
        {
            "bufferView" : 1,
            "componentType" : 5126,
            "count" : 752,
            "type" : "VEC3"
        },
        {
            "bufferView" : 2,
            "componentType" : 5126,
            "count" : 752,
            "type" : "VEC2"
        },
        {
            "bufferView" : 3,
            "componentType" : 5123,
            "count" : 2880,
            "type" : "SCALAR"
        },
        {
            "bufferView" : 4,
            "componentType" : 5126,
            "count" : 1889,
            "max" : [
                0.5,
                2.664590358734131,
                1.4476442337036133
            ],
            "min" : [
                -0.5,
                -1,
                -2.4605064392089844
            ],
            "type" : "VEC3"
        },
        {
            "bufferView" : 5,
            "componentType" : 5126,
            "count" : 1889,
            "type" : "VEC3"
        },
        {
            "bufferView" : 6,
            "componentType" : 5126,
            "count" : 1889,
            "type" : "VEC2"
        },
        {
            "bufferView" : 7,
            "componentType" : 5123,
            "count" : 6624,
            "type" : "SCALAR"
        },
        {
            "bufferView" : 9,
            "componentType" : 5126,
            "count" : 1026,
            "max" : [
                1.0914148092269897,
                1.0820555686950684,
                1.0914149284362793
            ],
            "min" : [
                -1.0914143323898315,
                -1.1584570407867432,
                -1.0914146900177002
            ],
            "type" : "VEC3"
        },
        {
            "bufferView" : 10,
            "componentType" : 5126,
            "count" : 1026,
            "type" : "VEC3"
        },
        {
            "bufferView" : 11,
            "componentType" : 5126,
            "count" : 1026,
            "type" : "VEC2"
        },
        {
            "bufferView" : 12,
            "componentType" : 5123,
            "count" : 5184,
            "type" : "SCALAR"
        },
        {
            "bufferView" : 13,
            "componentType" : 5126,
            "count" : 752,
            "max" : [
                1.2953357696533203,
                7.90000057220459,
                17.240537643432617
            ],
            "min" : [
                2.8697024390567094e-05,
                -1.8999989032745361,
                -19.159460067749023
            ],
            "type" : "VEC3"
        },
        {
            "bufferView" : 14,
            "componentType" : 5126,
            "count" : 752,
            "type" : "VEC3"
        },
        {
            "bufferView" : 15,
            "componentType" : 5126,
            "count" : 752,
            "type" : "VEC2"
        },
        {
            "bufferView" : 16,
            "componentType" : 5123,
            "count" : 1680,
            "type" : "SCALAR"
        }
    ],
    "bufferViews" : [
        {
            "buffer" : 0,
            "byteLength" : 9024,
            "byteOffset" : 0
        },
        {
            "buffer" : 0,
            "byteLength" : 9024,
            "byteOffset" : 9024
        },
        {
            "buffer" : 0,
            "byteLength" : 6016,
            "byteOffset" : 18048
        },
        {
            "buffer" : 0,
            "byteLength" : 5760,
            "byteOffset" : 24064
        },
        {
            "buffer" : 0,
            "byteLength" : 22668,
            "byteOffset" : 29824
        },
        {
            "buffer" : 0,
            "byteLength" : 22668,
            "byteOffset" : 52492
        },
        {
            "buffer" : 0,
            "byteLength" : 15112,
            "byteOffset" : 75160
        },
        {
            "buffer" : 0,
            "byteLength" : 13248,
            "byteOffset" : 90272
        },
        {
            "buffer" : 0,
            "byteLength" : 6474,
            "byteOffset" : 103520
        },
        {
            "buffer" : 0,
            "byteLength" : 12312,
            "byteOffset" : 109996
        },
        {
            "buffer" : 0,
            "byteLength" : 12312,
            "byteOffset" : 122308
        },
        {
            "buffer" : 0,
            "byteLength" : 8208,
            "byteOffset" : 134620
        },
        {
            "buffer" : 0,
            "byteLength" : 10368,
            "byteOffset" : 142828
        },
        {
            "buffer" : 0,
            "byteLength" : 9024,
            "byteOffset" : 153196
        },
        {
            "buffer" : 0,
            "byteLength" : 9024,
            "byteOffset" : 162220
        },
        {
            "buffer" : 0,
            "byteLength" : 6016,
            "byteOffset" : 171244
        },
        {
            "buffer" : 0,
            "byteLength" : 3360,
            "byteOffset" : 177260
        }
    ],
    "samplers" : [
        {
            "magFilter" : 9729,
            "minFilter" : 9987
        }
    ],
    "buffers" : [
        {
            "byteLength" : 180620,
            "uri" : "data:application/octet-stream;base64,"
        }
    ]
}
