{
    "asset" : {
        "copyright" : "Jeremy Edelblut",
        "generator" : "Khronos glTF Blender I/O v1.6.16",
        "version" : "2.0"
    },
    "scene" : 0,
    "scenes" : [
        {
            "name" : "Scene",
            "nodes" : [
                0,
                1
            ]
        }
    ],
    "nodes" : [
        {
            "mesh" : 0,
            "name" : "Circle.2317",
            "rotation" : [
                0,
                0,
                -0.4861082434654236,
                0.8738986253738403
            ],
            "scale" : [
                -1.1305686235427856,
                1.1305686235427856,
                1.130568504333496
            ],
            "translation" : [
                -0.018018051981925964,
                -0.33158937096595764,
                0
            ]
        },
        {
            "mesh" : 1,
            "name" : "Circle.2318",
            "rotation" : [
                0,
                0,
                -0.38578516244888306,
                0.9225886464118958
            ],
            "scale" : [
                -1.1305687427520752,
                1.130568504333496,
                1.130568504333496
            ],
            "translation" : [
                0.3894292414188385,
                -0.14229775965213776,
                0
            ]
        }
    ],
    "materials" : [
        {
            "doubleSided" : true,
            "name" : "Color",
            "pbrMetallicRoughness" : {
                "baseColorTexture" : {
                    "index" : 0
                },
                "metallicFactor" : 0,
                "roughnessFactor" : 0.5
            }
        }
    ],
    "meshes" : [
        {
            "name" : "Circle.2821",
            "primitives" : [
                {
                    "attributes" : {
                        "POSITION" : 0,
                        "NORMAL" : 1,
                        "TEXCOORD_0" : 2
                    },
                    "indices" : 3,
                    "material" : 0
                }
            ]
        },
        {
            "name" : "Circle.2822",
            "primitives" : [
                {
                    "attributes" : {
                        "POSITION" : 4,
                        "NORMAL" : 5,
                        "TEXCOORD_0" : 6
                    },
                    "indices" : 3,
                    "material" : 0
                }
            ]
        }
    ],
    "textures" : [
        {
            "sampler" : 0,
            "source" : 0
        }
    ],
    "images" : [
        {
            "bufferView" : 4,
            "mimeType" : "image/png",
            "name" : "tex2"
        }
    ],
    "accessors" : [
        {
            "bufferView" : 0,
            "componentType" : 5126,
            "count" : 242,
            "max" : [
                1.524082899093628,
                0.08898806571960449,
                0.055524807423353195
            ],
            "min" : [
                -0.8524001836776733,
                -0.08933448791503906,
                -0.05552462115883827
            ],
            "type" : "VEC3"
        },
        {
            "bufferView" : 1,
            "componentType" : 5126,
            "count" : 242,
            "type" : "VEC3"
        },
        {
            "bufferView" : 2,
            "componentType" : 5126,
            "count" : 242,
            "type" : "VEC2"
        },
        {
            "bufferView" : 3,
            "componentType" : 5123,
            "count" : 960,
            "type" : "SCALAR"
        },
        {
            "bufferView" : 5,
            "componentType" : 5126,
            "count" : 242,
            "max" : [
                1.5253026485443115,
                0.05323171615600586,
                0.0555247999727726
            ],
            "min" : [
                -0.8516308069229126,
                -0.058148860931396484,
                -0.05552462860941887
            ],
            "type" : "VEC3"
        },
        {
            "bufferView" : 6,
            "componentType" : 5126,
            "count" : 242,
            "type" : "VEC3"
        },
        {
            "bufferView" : 7,
            "componentType" : 5126,
            "count" : 242,
            "type" : "VEC2"
        }
    ],
    "bufferViews" : [
        {
            "buffer" : 0,
            "byteLength" : 2904,
            "byteOffset" : 0
        },
        {
            "buffer" : 0,
            "byteLength" : 2904,
            "byteOffset" : 2904
        },
        {
            "buffer" : 0,
            "byteLength" : 1936,
            "byteOffset" : 5808
        },
        {
            "buffer" : 0,
            "byteLength" : 1920,
            "byteOffset" : 7744
        },
        {
            "buffer" : 0,
            "byteLength" : 6474,
            "byteOffset" : 9664
        },
        {
            "buffer" : 0,
            "byteLength" : 2904,
            "byteOffset" : 16140
        },
        {
            "buffer" : 0,
            "byteLength" : 2904,
            "byteOffset" : 19044
        },
        {
            "buffer" : 0,
            "byteLength" : 1936,
            "byteOffset" : 21948
        }
    ],
    "samplers" : [
        {
            "magFilter" : 9729,
            "minFilter" : 9987
        }
    ],
    "buffers" : [
        {
            "byteLength" : 23884,
            "uri" : "data:application/octet-stream;base64,"
        }
    ]
}
