{
    "asset" : {
        "copyright" : "Jeremy Edelblut",
        "generator" : "Khronos glTF Blender I/O v1.6.16",
        "version" : "2.0"
    },
    "scene" : 0,
    "scenes" : [
        {
            "name" : "Scene",
            "nodes" : [
                0
            ]
        }
    ],
    "nodes" : [
        {
            "mesh" : 0,
            "name" : "Cube.971",
            "rotation" : [
                0,
                -0.3826834559440613,
                0,
                0.9238795042037964
            ],
            "scale" : [
                0.5619757175445557,
                0.5619757175445557,
                0.5619757175445557
            ],
            "translation" : [
                0,
                0.5347400307655334,
                0
            ]
        }
    ],
    "materials" : [
        {
            "doubleSided" : true,
            "name" : "Color",
            "pbrMetallicRoughness" : {
                "baseColorTexture" : {
                    "index" : 0
                },
                "metallicFactor" : 0,
                "roughnessFactor" : 0.5
            }
        }
    ],
    "meshes" : [
        {
            "name" : "Cube.7843",
            "primitives" : [
                {
                    "attributes" : {
                        "POSITION" : 0,
                        "NORMAL" : 1,
                        "TEXCOORD_0" : 2
                    },
                    "indices" : 3,
                    "material" : 0
                }
            ]
        }
    ],
    "textures" : [
        {
            "sampler" : 0,
            "source" : 0
        }
    ],
    "images" : [
        {
            "bufferView" : 4,
            "mimeType" : "image/png",
            "name" : "tex"
        }
    ],
    "accessors" : [
        {
            "bufferView" : 0,
            "componentType" : 5126,
            "count" : 352,
            "max" : [
                0.6561381816864014,
                0.4200049042701721,
                1.2622193098068237
            ],
            "min" : [
                -0.6465115547180176,
                -3,
                -1.2000000476837158
            ],
            "type" : "VEC3"
        },
        {
            "bufferView" : 1,
            "componentType" : 5126,
            "count" : 352,
            "type" : "VEC3"
        },
        {
            "bufferView" : 2,
            "componentType" : 5126,
            "count" : 352,
            "type" : "VEC2"
        },
        {
            "bufferView" : 3,
            "componentType" : 5123,
            "count" : 888,
            "type" : "SCALAR"
        }
    ],
    "bufferViews" : [
        {
            "buffer" : 0,
            "byteLength" : 4224,
            "byteOffset" : 0
        },
        {
            "buffer" : 0,
            "byteLength" : 4224,
            "byteOffset" : 4224
        },
        {
            "buffer" : 0,
            "byteLength" : 2816,
            "byteOffset" : 8448
        },
        {
            "buffer" : 0,
            "byteLength" : 1776,
            "byteOffset" : 11264
        },
        {
            "buffer" : 0,
            "byteLength" : 3214,
            "byteOffset" : 13040
        }
    ],
    "samplers" : [
        {
            "magFilter" : 9729,
            "minFilter" : 9987
        }
    ],
    "buffers" : [
        {
            "byteLength" : 16256,
            "uri" : "data:application/octet-stream;base64,"
        }
    ]
}
