{
    "asset" : {
        "copyright" : "Jeremy Edelblut",
        "generator" : "Khronos glTF Blender I/O v1.7.33",
        "version" : "2.0"
    },
    "scene" : 1,
    "scenes" : [
        {
            "name" : "FBX_Temp",
            "nodes" : [
                0
            ]
        },
        {
            "name" : "Scene",
            "nodes" : [
                1,
                2,
                3,
                4,
                5,
                6
            ]
        }
    ],
    "nodes" : [
        {
            "mesh" : 0,
            "name" : "3moji.064",
            "rotation" : [
                0,
                -0.7071068286895752,
                0,
                0.7071068286895752
            ]
        },
        {
            "mesh" : 1,
            "name" : "Circle.2003",
            "rotation" : [
                0.6675654053688049,
                -0.23314468562602997,
                -0.23314467072486877,
                0.6675654053688049
            ],
            "translation" : [
                -0.10825079679489136,
                -0.1408877819776535,
                0
            ]
        },
        {
            "mesh" : 2,
            "name" : "Cube.150",
            "rotation" : [
                0.6675654053688049,
                -0.23314468562602997,
                -0.23314467072486877,
                0.6675654053688049
            ],
            "translation" : [
                -0.07524413615465164,
                -0.09939739108085632,
                0
            ]
        },
        {
            "mesh" : 3,
            "name" : "Cube.151",
            "rotation" : [
                0.6675654053688049,
                -0.23314468562602997,
                -0.23314467072486877,
                0.6675654053688049
            ],
            "translation" : [
                0.13182339072227478,
                0.15286557376384735,
                0.40255311131477356
            ]
        },
        {
            "mesh" : 4,
            "name" : "Cube.152",
            "rotation" : [
                0.6675654053688049,
                -0.23314468562602997,
                -0.23314467072486877,
                0.6675654053688049
            ],
            "translation" : [
                -0.10825079679489136,
                -0.1408877819776535,
                0
            ]
        },
        {
            "mesh" : 5,
            "name" : "Sphere.387",
            "rotation" : [
                0.6675654053688049,
                -0.23314468562602997,
                -0.23314467072486877,
                0.6675654053688049
            ],
            "translation" : [
                -0.2835328280925751,
                -0.3612227141857147,
                0
            ]
        },
        {
            "mesh" : 6,
            "name" : "Cube.153",
            "rotation" : [
                0.6675654053688049,
                -0.23314468562602997,
                -0.23314467072486877,
                0.6675654053688049
            ],
            "translation" : [
                0.12459094077348709,
                0.15180155634880066,
                0.06412770599126816
            ]
        }
    ],
    "materials" : [
        {
            "doubleSided" : true,
            "name" : "color",
            "pbrMetallicRoughness" : {
                "baseColorTexture" : {
                    "index" : 0
                },
                "metallicFactor" : 0,
                "roughnessFactor" : 0.5
            }
        }
    ],
    "meshes" : [
        {
            "name" : "Cube.417",
            "primitives" : [
                {
                    "attributes" : {
                        "POSITION" : 0,
                        "NORMAL" : 1,
                        "TEXCOORD_0" : 2
                    },
                    "indices" : 3,
                    "material" : 0
                }
            ]
        },
        {
            "name" : "Circle.2329",
            "primitives" : [
                {
                    "attributes" : {
                        "POSITION" : 4,
                        "NORMAL" : 5,
                        "TEXCOORD_0" : 6
                    },
                    "indices" : 7,
                    "material" : 0
                }
            ]
        },
        {
            "name" : "Cube.270",
            "primitives" : [
                {
                    "attributes" : {
                        "POSITION" : 8,
                        "NORMAL" : 9,
                        "TEXCOORD_0" : 10
                    },
                    "indices" : 11,
                    "material" : 0
                }
            ]
        },
        {
            "name" : "Cube.271",
            "primitives" : [
                {
                    "attributes" : {
                        "POSITION" : 12,
                        "NORMAL" : 13,
                        "TEXCOORD_0" : 14
                    },
                    "indices" : 15,
                    "material" : 0
                }
            ]
        },
        {
            "name" : "Cube.272",
            "primitives" : [
                {
                    "attributes" : {
                        "POSITION" : 16,
                        "NORMAL" : 17,
                        "TEXCOORD_0" : 18
                    },
                    "indices" : 19,
                    "material" : 0
                }
            ]
        },
        {
            "name" : "Sphere.385",
            "primitives" : [
                {
                    "attributes" : {
                        "POSITION" : 20,
                        "NORMAL" : 21,
                        "TEXCOORD_0" : 22
                    },
                    "indices" : 23,
                    "material" : 0
                }
            ]
        },
        {
            "name" : "Cube.274",
            "primitives" : [
                {
                    "attributes" : {
                        "POSITION" : 24,
                        "NORMAL" : 25,
                        "TEXCOORD_0" : 26
                    },
                    "indices" : 27,
                    "material" : 0
                }
            ]
        }
    ],
    "textures" : [
        {
            "sampler" : 0,
            "source" : 0
        }
    ],
    "images" : [
        {
            "bufferView" : 4,
            "mimeType" : "image/png",
            "name" : "tex"
        }
    ],
    "accessors" : [
        {
            "bufferView" : 0,
            "componentType" : 5126,
            "count" : 752,
            "max" : [
                -0.8264395594596863,
                0.05719918757677078,
                0.13795676827430725
            ],
            "min" : [
                -0.8543609976768494,
                -0.014034310355782509,
                -0.12436223030090332
            ],
            "type" : "VEC3"
        },
        {
            "bufferView" : 1,
            "componentType" : 5126,
            "count" : 752,
            "type" : "VEC3"
        },
        {
            "bufferView" : 2,
            "componentType" : 5126,
            "count" : 752,
            "type" : "VEC2"
        },
        {
            "bufferView" : 3,
            "componentType" : 5123,
            "count" : 1680,
            "type" : "SCALAR"
        },
        {
            "bufferView" : 5,
            "componentType" : 5126,
            "count" : 664,
            "max" : [
                0.10689263790845871,
                0.14924634993076324,
                -0.476694792509079
            ],
            "min" : [
                -0.10689263790845871,
                0.09937433898448944,
                -0.5217496156692505
            ],
            "type" : "VEC3"
        },
        {
            "bufferView" : 6,
            "componentType" : 5126,
            "count" : 664,
            "type" : "VEC3"
        },
        {
            "bufferView" : 7,
            "componentType" : 5126,
            "count" : 664,
            "type" : "VEC2"
        },
        {
            "bufferView" : 8,
            "componentType" : 5123,
            "count" : 2880,
            "type" : "SCALAR"
        },
        {
            "bufferView" : 9,
            "componentType" : 5126,
            "count" : 300,
            "max" : [
                0.3050380051136017,
                0.29376694560050964,
                1.0802552700042725
            ],
            "min" : [
                -0.3050380051136017,
                -0.019795121625065804,
                -0.3235068917274475
            ],
            "type" : "VEC3"
        },
        {
            "bufferView" : 10,
            "componentType" : 5126,
            "count" : 300,
            "type" : "VEC3"
        },
        {
            "bufferView" : 11,
            "componentType" : 5126,
            "count" : 300,
            "type" : "VEC2"
        },
        {
            "bufferView" : 12,
            "componentType" : 5123,
            "count" : 1494,
            "type" : "SCALAR"
        },
        {
            "bufferView" : 13,
            "componentType" : 5126,
            "count" : 220,
            "max" : [
                0.808982253074646,
                -0.1752273291349411,
                -0.09961344301700592
            ],
            "min" : [
                -0.808982253074646,
                -0.2688383162021637,
                -0.7380265593528748
            ],
            "type" : "VEC3"
        },
        {
            "bufferView" : 14,
            "componentType" : 5126,
            "count" : 220,
            "type" : "VEC3"
        },
        {
            "bufferView" : 15,
            "componentType" : 5126,
            "count" : 220,
            "type" : "VEC2"
        },
        {
            "bufferView" : 16,
            "componentType" : 5123,
            "count" : 552,
            "type" : "SCALAR"
        },
        {
            "bufferView" : 17,
            "componentType" : 5126,
            "count" : 892,
            "max" : [
                0.6980175375938416,
                0.24907416105270386,
                0.830385148525238
            ],
            "min" : [
                -0.6980175375938416,
                -0.2426142394542694,
                -0.5709457993507385
            ],
            "type" : "VEC3"
        },
        {
            "bufferView" : 18,
            "componentType" : 5126,
            "count" : 892,
            "type" : "VEC3"
        },
        {
            "bufferView" : 19,
            "componentType" : 5126,
            "count" : 892,
            "type" : "VEC2"
        },
        {
            "bufferView" : 20,
            "componentType" : 5123,
            "count" : 2352,
            "type" : "SCALAR"
        },
        {
            "bufferView" : 21,
            "componentType" : 5126,
            "count" : 576,
            "max" : [
                0.31811898946762085,
                0.3295885920524597,
                0.8010829091072083
            ],
            "min" : [
                -0.3181188404560089,
                0.00781416054815054,
                -0.4107460081577301
            ],
            "type" : "VEC3"
        },
        {
            "bufferView" : 22,
            "componentType" : 5126,
            "count" : 576,
            "type" : "VEC3"
        },
        {
            "bufferView" : 23,
            "componentType" : 5126,
            "count" : 576,
            "type" : "VEC2"
        },
        {
            "bufferView" : 24,
            "componentType" : 5123,
            "count" : 2592,
            "type" : "SCALAR"
        },
        {
            "bufferView" : 25,
            "componentType" : 5126,
            "count" : 222,
            "max" : [
                0.14270545542240143,
                0.1260616034269333,
                0.03365061804652214
            ],
            "min" : [
                -0.14270545542240143,
                -0.03520555794239044,
                -0.1746833771467209
            ],
            "type" : "VEC3"
        },
        {
            "bufferView" : 26,
            "componentType" : 5126,
            "count" : 222,
            "type" : "VEC3"
        },
        {
            "bufferView" : 27,
            "componentType" : 5126,
            "count" : 222,
            "type" : "VEC2"
        },
        {
            "bufferView" : 28,
            "componentType" : 5123,
            "count" : 1128,
            "type" : "SCALAR"
        }
    ],
    "bufferViews" : [
        {
            "buffer" : 0,
            "byteLength" : 9024,
            "byteOffset" : 0
        },
        {
            "buffer" : 0,
            "byteLength" : 9024,
            "byteOffset" : 9024
        },
        {
            "buffer" : 0,
            "byteLength" : 6016,
            "byteOffset" : 18048
        },
        {
            "buffer" : 0,
            "byteLength" : 3360,
            "byteOffset" : 24064
        },
        {
            "buffer" : 0,
            "byteLength" : 11997,
            "byteOffset" : 27424
        },
        {
            "buffer" : 0,
            "byteLength" : 7968,
            "byteOffset" : 39424
        },
        {
            "buffer" : 0,
            "byteLength" : 7968,
            "byteOffset" : 47392
        },
        {
            "buffer" : 0,
            "byteLength" : 5312,
            "byteOffset" : 55360
        },
        {
            "buffer" : 0,
            "byteLength" : 5760,
            "byteOffset" : 60672
        },
        {
            "buffer" : 0,
            "byteLength" : 3600,
            "byteOffset" : 66432
        },
        {
            "buffer" : 0,
            "byteLength" : 3600,
            "byteOffset" : 70032
        },
        {
            "buffer" : 0,
            "byteLength" : 2400,
            "byteOffset" : 73632
        },
        {
            "buffer" : 0,
            "byteLength" : 2988,
            "byteOffset" : 76032
        },
        {
            "buffer" : 0,
            "byteLength" : 2640,
            "byteOffset" : 79020
        },
        {
            "buffer" : 0,
            "byteLength" : 2640,
            "byteOffset" : 81660
        },
        {
            "buffer" : 0,
            "byteLength" : 1760,
            "byteOffset" : 84300
        },
        {
            "buffer" : 0,
            "byteLength" : 1104,
            "byteOffset" : 86060
        },
        {
            "buffer" : 0,
            "byteLength" : 10704,
            "byteOffset" : 87164
        },
        {
            "buffer" : 0,
            "byteLength" : 10704,
            "byteOffset" : 97868
        },
        {
            "buffer" : 0,
            "byteLength" : 7136,
            "byteOffset" : 108572
        },
        {
            "buffer" : 0,
            "byteLength" : 4704,
            "byteOffset" : 115708
        },
        {
            "buffer" : 0,
            "byteLength" : 6912,
            "byteOffset" : 120412
        },
        {
            "buffer" : 0,
            "byteLength" : 6912,
            "byteOffset" : 127324
        },
        {
            "buffer" : 0,
            "byteLength" : 4608,
            "byteOffset" : 134236
        },
        {
            "buffer" : 0,
            "byteLength" : 5184,
            "byteOffset" : 138844
        },
        {
            "buffer" : 0,
            "byteLength" : 2664,
            "byteOffset" : 144028
        },
        {
            "buffer" : 0,
            "byteLength" : 2664,
            "byteOffset" : 146692
        },
        {
            "buffer" : 0,
            "byteLength" : 1776,
            "byteOffset" : 149356
        },
        {
            "buffer" : 0,
            "byteLength" : 2256,
            "byteOffset" : 151132
        }
    ],
    "samplers" : [
        {
            "magFilter" : 9729,
            "minFilter" : 9987
        }
    ],
    "buffers" : [
        {
            "byteLength" : 153388,
            "uri" : "data:application/octet-stream;base64,"
        }
    ]
}
