{
    "asset" : {
        "copyright" : "Jeremy Edelblut",
        "generator" : "Khronos glTF Blender I/O v1.7.33",
        "version" : "2.0"
    },
    "scene" : 1,
    "scenes" : [
        {
            "name" : "FBX_Temp",
            "nodes" : [
                0
            ]
        },
        {
            "name" : "Scene",
            "nodes" : [
                1,
                2,
                3,
                4,
                5,
                6,
                7,
                8,
                9,
                10,
                11
            ]
        }
    ],
    "nodes" : [
        {
            "mesh" : 0,
            "name" : "3moji.064",
            "rotation" : [
                0,
                -0.7071068286895752,
                0,
                0.7071068286895752
            ]
        },
        {
            "mesh" : 1,
            "name" : "Cube.890"
        },
        {
            "mesh" : 2,
            "name" : "Cube.891"
        },
        {
            "mesh" : 3,
            "name" : "Cube.892"
        },
        {
            "mesh" : 4,
            "name" : "Cube.893"
        },
        {
            "mesh" : 5,
            "name" : "Cube.894"
        },
        {
            "mesh" : 6,
            "name" : "Cube.895"
        },
        {
            "mesh" : 7,
            "name" : "Cube.896"
        },
        {
            "mesh" : 8,
            "name" : "Cube.897"
        },
        {
            "mesh" : 9,
            "name" : "Plane.302"
        },
        {
            "mesh" : 10,
            "name" : "Plane.303"
        },
        {
            "mesh" : 11,
            "name" : "Plane.304"
        }
    ],
    "materials" : [
        {
            "doubleSided" : true,
            "name" : "color",
            "pbrMetallicRoughness" : {
                "baseColorTexture" : {
                    "index" : 0
                },
                "metallicFactor" : 0,
                "roughnessFactor" : 0.5
            }
        }
    ],
    "meshes" : [
        {
            "name" : "Cube.417",
            "primitives" : [
                {
                    "attributes" : {
                        "POSITION" : 0,
                        "NORMAL" : 1,
                        "TEXCOORD_0" : 2
                    },
                    "indices" : 3,
                    "material" : 0
                }
            ]
        },
        {
            "name" : "Cube.7695",
            "primitives" : [
                {
                    "attributes" : {
                        "POSITION" : 4,
                        "NORMAL" : 5,
                        "TEXCOORD_0" : 6
                    },
                    "indices" : 7,
                    "material" : 0
                }
            ]
        },
        {
            "name" : "Cube.7696",
            "primitives" : [
                {
                    "attributes" : {
                        "POSITION" : 8,
                        "NORMAL" : 9,
                        "TEXCOORD_0" : 10
                    },
                    "indices" : 11,
                    "material" : 0
                }
            ]
        },
        {
            "name" : "Cube.7697",
            "primitives" : [
                {
                    "attributes" : {
                        "POSITION" : 12,
                        "NORMAL" : 13,
                        "TEXCOORD_0" : 14
                    },
                    "indices" : 15,
                    "material" : 0
                }
            ]
        },
        {
            "name" : "Cube.7698",
            "primitives" : [
                {
                    "attributes" : {
                        "POSITION" : 16,
                        "NORMAL" : 17,
                        "TEXCOORD_0" : 18
                    },
                    "indices" : 11,
                    "material" : 0
                }
            ]
        },
        {
            "name" : "Cube.7699",
            "primitives" : [
                {
                    "attributes" : {
                        "POSITION" : 19,
                        "NORMAL" : 20,
                        "TEXCOORD_0" : 21
                    },
                    "indices" : 22,
                    "material" : 0
                }
            ]
        },
        {
            "name" : "Cube.7700",
            "primitives" : [
                {
                    "attributes" : {
                        "POSITION" : 23,
                        "NORMAL" : 24,
                        "TEXCOORD_0" : 25
                    },
                    "indices" : 26,
                    "material" : 0
                }
            ]
        },
        {
            "name" : "Cube.7701",
            "primitives" : [
                {
                    "attributes" : {
                        "POSITION" : 27,
                        "NORMAL" : 28,
                        "TEXCOORD_0" : 29
                    },
                    "indices" : 30,
                    "material" : 0
                }
            ]
        },
        {
            "name" : "Cube.7702",
            "primitives" : [
                {
                    "attributes" : {
                        "POSITION" : 31,
                        "NORMAL" : 32,
                        "TEXCOORD_0" : 33
                    },
                    "indices" : 15,
                    "material" : 0
                }
            ]
        },
        {
            "name" : "Plane.249",
            "primitives" : [
                {
                    "attributes" : {
                        "POSITION" : 34,
                        "NORMAL" : 35,
                        "TEXCOORD_0" : 36
                    },
                    "indices" : 37,
                    "material" : 0
                }
            ]
        },
        {
            "name" : "Plane.250",
            "primitives" : [
                {
                    "attributes" : {
                        "POSITION" : 38,
                        "NORMAL" : 39,
                        "TEXCOORD_0" : 40
                    },
                    "indices" : 41,
                    "material" : 0
                }
            ]
        },
        {
            "name" : "Plane.256",
            "primitives" : [
                {
                    "attributes" : {
                        "POSITION" : 42,
                        "NORMAL" : 43,
                        "TEXCOORD_0" : 44
                    },
                    "indices" : 45,
                    "material" : 0
                }
            ]
        }
    ],
    "textures" : [
        {
            "sampler" : 0,
            "source" : 0
        }
    ],
    "images" : [
        {
            "bufferView" : 4,
            "mimeType" : "image/png",
            "name" : "tex"
        }
    ],
    "accessors" : [
        {
            "bufferView" : 0,
            "componentType" : 5126,
            "count" : 752,
            "max" : [
                -0.8264395594596863,
                0.05719918757677078,
                0.13795676827430725
            ],
            "min" : [
                -0.8543609976768494,
                -0.014034310355782509,
                -0.12436223030090332
            ],
            "type" : "VEC3"
        },
        {
            "bufferView" : 1,
            "componentType" : 5126,
            "count" : 752,
            "type" : "VEC3"
        },
        {
            "bufferView" : 2,
            "componentType" : 5126,
            "count" : 752,
            "type" : "VEC2"
        },
        {
            "bufferView" : 3,
            "componentType" : 5123,
            "count" : 1680,
            "type" : "SCALAR"
        },
        {
            "bufferView" : 5,
            "componentType" : 5126,
            "count" : 964,
            "max" : [
                1.0217748880386353,
                0.9936862587928772,
                0.5035159587860107
            ],
            "min" : [
                -1.0217337608337402,
                0.24889473617076874,
                -0.4744352400302887
            ],
            "type" : "VEC3"
        },
        {
            "bufferView" : 6,
            "componentType" : 5126,
            "count" : 964,
            "type" : "VEC3"
        },
        {
            "bufferView" : 7,
            "componentType" : 5126,
            "count" : 964,
            "type" : "VEC2"
        },
        {
            "bufferView" : 8,
            "componentType" : 5123,
            "count" : 4992,
            "type" : "SCALAR"
        },
        {
            "bufferView" : 9,
            "componentType" : 5126,
            "count" : 24,
            "max" : [
                0.8432740569114685,
                0.3489418625831604,
                0.27124089002609253
            ],
            "min" : [
                0.651028037071228,
                0.17330867052078247,
                0.14671902358531952
            ],
            "type" : "VEC3"
        },
        {
            "bufferView" : 10,
            "componentType" : 5126,
            "count" : 24,
            "type" : "VEC3"
        },
        {
            "bufferView" : 11,
            "componentType" : 5126,
            "count" : 24,
            "type" : "VEC2"
        },
        {
            "bufferView" : 12,
            "componentType" : 5123,
            "count" : 36,
            "type" : "SCALAR"
        },
        {
            "bufferView" : 13,
            "componentType" : 5126,
            "count" : 24,
            "max" : [
                0.3251665234565735,
                -0.012211637571454048,
                0.16018016636371613
            ],
            "min" : [
                0.10680921375751495,
                -0.22085559368133545,
                0.03565829619765282
            ],
            "type" : "VEC3"
        },
        {
            "bufferView" : 14,
            "componentType" : 5126,
            "count" : 24,
            "type" : "VEC3"
        },
        {
            "bufferView" : 15,
            "componentType" : 5126,
            "count" : 24,
            "type" : "VEC2"
        },
        {
            "bufferView" : 16,
            "componentType" : 5123,
            "count" : 36,
            "type" : "SCALAR"
        },
        {
            "bufferView" : 17,
            "componentType" : 5126,
            "count" : 24,
            "max" : [
                0.7395226359367371,
                -0.6868274211883545,
                0.4730352759361267
            ],
            "min" : [
                0.5674945116043091,
                -0.8504073619842529,
                0.38146093487739563
            ],
            "type" : "VEC3"
        },
        {
            "bufferView" : 18,
            "componentType" : 5126,
            "count" : 24,
            "type" : "VEC3"
        },
        {
            "bufferView" : 19,
            "componentType" : 5126,
            "count" : 24,
            "type" : "VEC2"
        },
        {
            "bufferView" : 20,
            "componentType" : 5126,
            "count" : 24,
            "max" : [
                0.1379099041223526,
                0.6602458357810974,
                0.6211946606636047
            ],
            "min" : [
                0.0006314211641438305,
                0.48602384328842163,
                0.4785853922367096
            ],
            "type" : "VEC3"
        },
        {
            "bufferView" : 21,
            "componentType" : 5126,
            "count" : 24,
            "type" : "VEC3"
        },
        {
            "bufferView" : 22,
            "componentType" : 5126,
            "count" : 24,
            "type" : "VEC2"
        },
        {
            "bufferView" : 23,
            "componentType" : 5123,
            "count" : 36,
            "type" : "SCALAR"
        },
        {
            "bufferView" : 24,
            "componentType" : 5126,
            "count" : 24,
            "max" : [
                -0.5767771005630493,
                0.06883567571640015,
                0.45900842547416687
            ],
            "min" : [
                -0.7487930655479431,
                -0.10102957487106323,
                0.3905811309814453
            ],
            "type" : "VEC3"
        },
        {
            "bufferView" : 25,
            "componentType" : 5126,
            "count" : 24,
            "type" : "VEC3"
        },
        {
            "bufferView" : 26,
            "componentType" : 5126,
            "count" : 24,
            "type" : "VEC2"
        },
        {
            "bufferView" : 27,
            "componentType" : 5123,
            "count" : 36,
            "type" : "SCALAR"
        },
        {
            "bufferView" : 28,
            "componentType" : 5126,
            "count" : 24,
            "max" : [
                -0.8262295722961426,
                0.4371432662010193,
                0.3707653880119324
            ],
            "min" : [
                -1.0185223817825317,
                0.24140097200870514,
                0.2786058783531189
            ],
            "type" : "VEC3"
        },
        {
            "bufferView" : 29,
            "componentType" : 5126,
            "count" : 24,
            "type" : "VEC3"
        },
        {
            "bufferView" : 30,
            "componentType" : 5126,
            "count" : 24,
            "type" : "VEC2"
        },
        {
            "bufferView" : 31,
            "componentType" : 5123,
            "count" : 36,
            "type" : "SCALAR"
        },
        {
            "bufferView" : 32,
            "componentType" : 5126,
            "count" : 24,
            "max" : [
                -0.19077636301517487,
                -0.5217428803443909,
                0.46361860632896423
            ],
            "min" : [
                -0.3270731270313263,
                -0.651655375957489,
                0.3883577585220337
            ],
            "type" : "VEC3"
        },
        {
            "bufferView" : 33,
            "componentType" : 5126,
            "count" : 24,
            "type" : "VEC3"
        },
        {
            "bufferView" : 34,
            "componentType" : 5126,
            "count" : 24,
            "type" : "VEC2"
        },
        {
            "bufferView" : 35,
            "componentType" : 5126,
            "count" : 224,
            "max" : [
                0.24053743481636047,
                0.3178156316280365,
                0.3370950520038605
            ],
            "min" : [
                -0.1943935602903366,
                -1.0690990686416626,
                -0.24735969305038452
            ],
            "type" : "VEC3"
        },
        {
            "bufferView" : 36,
            "componentType" : 5126,
            "count" : 224,
            "type" : "VEC3"
        },
        {
            "bufferView" : 37,
            "componentType" : 5126,
            "count" : 224,
            "type" : "VEC2"
        },
        {
            "bufferView" : 38,
            "componentType" : 5123,
            "count" : 636,
            "type" : "SCALAR"
        },
        {
            "bufferView" : 39,
            "componentType" : 5126,
            "count" : 224,
            "max" : [
                0.8132449388504028,
                0.42387986183166504,
                0.7000687718391418
            ],
            "min" : [
                0.3081313669681549,
                -0.6666054129600525,
                0.1329551786184311
            ],
            "type" : "VEC3"
        },
        {
            "bufferView" : 40,
            "componentType" : 5126,
            "count" : 224,
            "type" : "VEC3"
        },
        {
            "bufferView" : 41,
            "componentType" : 5126,
            "count" : 224,
            "type" : "VEC2"
        },
        {
            "bufferView" : 42,
            "componentType" : 5123,
            "count" : 636,
            "type" : "SCALAR"
        },
        {
            "bufferView" : 43,
            "componentType" : 5126,
            "count" : 224,
            "max" : [
                -0.36424651741981506,
                0.4636305868625641,
                0.19594015181064606
            ],
            "min" : [
                -1.0307509899139404,
                -0.7221418619155884,
                -0.2973526418209076
            ],
            "type" : "VEC3"
        },
        {
            "bufferView" : 44,
            "componentType" : 5126,
            "count" : 224,
            "type" : "VEC3"
        },
        {
            "bufferView" : 45,
            "componentType" : 5126,
            "count" : 224,
            "type" : "VEC2"
        },
        {
            "bufferView" : 46,
            "componentType" : 5123,
            "count" : 636,
            "type" : "SCALAR"
        }
    ],
    "bufferViews" : [
        {
            "buffer" : 0,
            "byteLength" : 9024,
            "byteOffset" : 0
        },
        {
            "buffer" : 0,
            "byteLength" : 9024,
            "byteOffset" : 9024
        },
        {
            "buffer" : 0,
            "byteLength" : 6016,
            "byteOffset" : 18048
        },
        {
            "buffer" : 0,
            "byteLength" : 3360,
            "byteOffset" : 24064
        },
        {
            "buffer" : 0,
            "byteLength" : 11997,
            "byteOffset" : 27424
        },
        {
            "buffer" : 0,
            "byteLength" : 11568,
            "byteOffset" : 39424
        },
        {
            "buffer" : 0,
            "byteLength" : 11568,
            "byteOffset" : 50992
        },
        {
            "buffer" : 0,
            "byteLength" : 7712,
            "byteOffset" : 62560
        },
        {
            "buffer" : 0,
            "byteLength" : 9984,
            "byteOffset" : 70272
        },
        {
            "buffer" : 0,
            "byteLength" : 288,
            "byteOffset" : 80256
        },
        {
            "buffer" : 0,
            "byteLength" : 288,
            "byteOffset" : 80544
        },
        {
            "buffer" : 0,
            "byteLength" : 192,
            "byteOffset" : 80832
        },
        {
            "buffer" : 0,
            "byteLength" : 72,
            "byteOffset" : 81024
        },
        {
            "buffer" : 0,
            "byteLength" : 288,
            "byteOffset" : 81096
        },
        {
            "buffer" : 0,
            "byteLength" : 288,
            "byteOffset" : 81384
        },
        {
            "buffer" : 0,
            "byteLength" : 192,
            "byteOffset" : 81672
        },
        {
            "buffer" : 0,
            "byteLength" : 72,
            "byteOffset" : 81864
        },
        {
            "buffer" : 0,
            "byteLength" : 288,
            "byteOffset" : 81936
        },
        {
            "buffer" : 0,
            "byteLength" : 288,
            "byteOffset" : 82224
        },
        {
            "buffer" : 0,
            "byteLength" : 192,
            "byteOffset" : 82512
        },
        {
            "buffer" : 0,
            "byteLength" : 288,
            "byteOffset" : 82704
        },
        {
            "buffer" : 0,
            "byteLength" : 288,
            "byteOffset" : 82992
        },
        {
            "buffer" : 0,
            "byteLength" : 192,
            "byteOffset" : 83280
        },
        {
            "buffer" : 0,
            "byteLength" : 72,
            "byteOffset" : 83472
        },
        {
            "buffer" : 0,
            "byteLength" : 288,
            "byteOffset" : 83544
        },
        {
            "buffer" : 0,
            "byteLength" : 288,
            "byteOffset" : 83832
        },
        {
            "buffer" : 0,
            "byteLength" : 192,
            "byteOffset" : 84120
        },
        {
            "buffer" : 0,
            "byteLength" : 72,
            "byteOffset" : 84312
        },
        {
            "buffer" : 0,
            "byteLength" : 288,
            "byteOffset" : 84384
        },
        {
            "buffer" : 0,
            "byteLength" : 288,
            "byteOffset" : 84672
        },
        {
            "buffer" : 0,
            "byteLength" : 192,
            "byteOffset" : 84960
        },
        {
            "buffer" : 0,
            "byteLength" : 72,
            "byteOffset" : 85152
        },
        {
            "buffer" : 0,
            "byteLength" : 288,
            "byteOffset" : 85224
        },
        {
            "buffer" : 0,
            "byteLength" : 288,
            "byteOffset" : 85512
        },
        {
            "buffer" : 0,
            "byteLength" : 192,
            "byteOffset" : 85800
        },
        {
            "buffer" : 0,
            "byteLength" : 2688,
            "byteOffset" : 85992
        },
        {
            "buffer" : 0,
            "byteLength" : 2688,
            "byteOffset" : 88680
        },
        {
            "buffer" : 0,
            "byteLength" : 1792,
            "byteOffset" : 91368
        },
        {
            "buffer" : 0,
            "byteLength" : 1272,
            "byteOffset" : 93160
        },
        {
            "buffer" : 0,
            "byteLength" : 2688,
            "byteOffset" : 94432
        },
        {
            "buffer" : 0,
            "byteLength" : 2688,
            "byteOffset" : 97120
        },
        {
            "buffer" : 0,
            "byteLength" : 1792,
            "byteOffset" : 99808
        },
        {
            "buffer" : 0,
            "byteLength" : 1272,
            "byteOffset" : 101600
        },
        {
            "buffer" : 0,
            "byteLength" : 2688,
            "byteOffset" : 102872
        },
        {
            "buffer" : 0,
            "byteLength" : 2688,
            "byteOffset" : 105560
        },
        {
            "buffer" : 0,
            "byteLength" : 1792,
            "byteOffset" : 108248
        },
        {
            "buffer" : 0,
            "byteLength" : 1272,
            "byteOffset" : 110040
        }
    ],
    "samplers" : [
        {
            "magFilter" : 9729,
            "minFilter" : 9987
        }
    ],
    "buffers" : [
        {
            "byteLength" : 111312,
            "uri" : "data:application/octet-stream;base64,"
        }
    ]
}
