{
    "asset" : {
        "copyright" : "Jeremy Edelblut",
        "generator" : "Khronos glTF Blender I/O v1.6.16",
        "version" : "2.0"
    },
    "scene" : 0,
    "scenes" : [
        {
            "name" : "Scene",
            "nodes" : [
                0
            ]
        }
    ],
    "nodes" : [
        {
            "mesh" : 0,
            "name" : "Confounded Face"
        }
    ],
    "materials" : [
        {
            "doubleSided" : true,
            "name" : "Yellow_body",
            "pbrMetallicRoughness" : {
                "baseColorTexture" : {
                    "index" : 0
                },
                "metallicFactor" : 0,
                "roughnessFactor" : 0.5
            }
        },
        {
            "doubleSided" : true,
            "name" : "Color",
            "pbrMetallicRoughness" : {
                "baseColorTexture" : {
                    "index" : 1
                },
                "metallicFactor" : 0,
                "roughnessFactor" : 0.5
            }
        }
    ],
    "meshes" : [
        {
            "name" : "Cube.110",
            "primitives" : [
                {
                    "attributes" : {
                        "POSITION" : 0,
                        "NORMAL" : 1,
                        "TEXCOORD_0" : 2
                    },
                    "indices" : 3,
                    "material" : 0
                },
                {
                    "attributes" : {
                        "POSITION" : 4,
                        "NORMAL" : 5,
                        "TEXCOORD_0" : 6
                    },
                    "indices" : 7,
                    "material" : 1
                }
            ]
        }
    ],
    "textures" : [
        {
            "sampler" : 0,
            "source" : 0
        },
        {
            "sampler" : 0,
            "source" : 1
        }
    ],
    "images" : [
        {
            "bufferView" : 4,
            "mimeType" : "image/png",
            "name" : "Rectangle 863"
        },
        {
            "bufferView" : 9,
            "mimeType" : "image/png",
            "name" : "tex"
        }
    ],
    "accessors" : [
        {
            "bufferView" : 0,
            "componentType" : 5126,
            "count" : 1599,
            "max" : [
                0.8446488380432129,
                0.8446488380432129,
                0.8446488380432129
            ],
            "min" : [
                -0.8446488380432129,
                -0.8446488380432129,
                -0.8446488380432129
            ],
            "type" : "VEC3"
        },
        {
            "bufferView" : 1,
            "componentType" : 5126,
            "count" : 1599,
            "type" : "VEC3"
        },
        {
            "bufferView" : 2,
            "componentType" : 5126,
            "count" : 1599,
            "type" : "VEC2"
        },
        {
            "bufferView" : 3,
            "componentType" : 5123,
            "count" : 9348,
            "type" : "SCALAR"
        },
        {
            "bufferView" : 5,
            "componentType" : 5126,
            "count" : 1800,
            "max" : [
                0.5236601233482361,
                0.46587464213371277,
                0.8338407874107361
            ],
            "min" : [
                -0.529829204082489,
                -0.42401570081710815,
                -0.8543609976768494
            ],
            "type" : "VEC3"
        },
        {
            "bufferView" : 6,
            "componentType" : 5126,
            "count" : 1800,
            "type" : "VEC3"
        },
        {
            "bufferView" : 7,
            "componentType" : 5126,
            "count" : 1800,
            "type" : "VEC2"
        },
        {
            "bufferView" : 8,
            "componentType" : 5123,
            "count" : 5742,
            "type" : "SCALAR"
        }
    ],
    "bufferViews" : [
        {
            "buffer" : 0,
            "byteLength" : 19188,
            "byteOffset" : 0
        },
        {
            "buffer" : 0,
            "byteLength" : 19188,
            "byteOffset" : 19188
        },
        {
            "buffer" : 0,
            "byteLength" : 12792,
            "byteOffset" : 38376
        },
        {
            "buffer" : 0,
            "byteLength" : 18696,
            "byteOffset" : 51168
        },
        {
            "buffer" : 0,
            "byteLength" : 85292,
            "byteOffset" : 69864
        },
        {
            "buffer" : 0,
            "byteLength" : 21600,
            "byteOffset" : 155156
        },
        {
            "buffer" : 0,
            "byteLength" : 21600,
            "byteOffset" : 176756
        },
        {
            "buffer" : 0,
            "byteLength" : 14400,
            "byteOffset" : 198356
        },
        {
            "buffer" : 0,
            "byteLength" : 11484,
            "byteOffset" : 212756
        },
        {
            "buffer" : 0,
            "byteLength" : 1322,
            "byteOffset" : 224240
        }
    ],
    "samplers" : [
        {
            "magFilter" : 9729,
            "minFilter" : 9987
        }
    ],
    "buffers" : [
        {
            "byteLength" : 225564,
            "uri" : "data:application/octet-stream;base64,"
        }
    ]
}
