{
    "asset" : {
        "copyright" : "Jeremy Edelblut",
        "generator" : "Khronos glTF Blender I/O v1.6.16",
        "version" : "2.0"
    },
    "scene" : 0,
    "scenes" : [
        {
            "name" : "Scene",
            "nodes" : [
                0,
                1,
                2,
                3,
                4,
                5
            ]
        }
    ],
    "nodes" : [
        {
            "mesh" : 0,
            "name" : "Circle.2002",
            "scale" : [
                0.05709920451045036,
                0.05709920451045036,
                0.05709920451045036
            ],
            "translation" : [
                0,
                -0.10958746820688248,
                -0.24163559079170227
            ]
        },
        {
            "mesh" : 1,
            "name" : "Cube.146",
            "scale" : [
                0.32459986209869385,
                0.386665403842926,
                0.7077991962432861
            ],
            "translation" : [
                0,
                -0.1320132613182068,
                -0.29634889960289
            ]
        },
        {
            "mesh" : 2,
            "name" : "Cube.148",
            "scale" : [
                0.25704145431518555,
                0.25704145431518555,
                0.25704145431518555
            ],
            "translation" : [
                0,
                0.33832240104675293,
                -0.6472854018211365
            ]
        },
        {
            "mesh" : 3,
            "name" : "Cube.149",
            "scale" : [
                0.25704145431518555,
                0.25704145431518555,
                0.25704145431518555
            ],
            "translation" : [
                0,
                -0.10958746820688248,
                -0.24163559079170227
            ]
        },
        {
            "mesh" : 4,
            "name" : "Sphere.386",
            "scale" : [
                0.37675467133522034,
                0.5080463290214539,
                0.8333866000175476
            ],
            "translation" : [
                0,
                -0.1320132613182068,
                0.048919785767793655
            ]
        },
        {
            "mesh" : 5,
            "name" : "Cube.147",
            "scale" : [
                0.8947663307189941,
                0.8947663307189941,
                0.8947663307189941
            ],
            "translation" : [
                0,
                -0.10958746820688248,
                -0.24163559079170227
            ]
        }
    ],
    "materials" : [
        {
            "doubleSided" : true,
            "name" : "DKgray",
            "pbrMetallicRoughness" : {
                "baseColorFactor" : [
                    0.03682169318199158,
                    0.03446357324719429,
                    0.03740420565009117,
                    1
                ],
                "metallicFactor" : 0,
                "roughnessFactor" : 0.5
            }
        },
        {
            "doubleSided" : true,
            "name" : "Brown",
            "pbrMetallicRoughness" : {
                "baseColorFactor" : [
                    0.07322511821985245,
                    0.02384052984416485,
                    0.021921303123235703,
                    1
                ],
                "metallicFactor" : 0,
                "roughnessFactor" : 0.5
            }
        }
    ],
    "meshes" : [
        {
            "name" : "Circle.2326",
            "primitives" : [
                {
                    "attributes" : {
                        "POSITION" : 0,
                        "NORMAL" : 1,
                        "TEXCOORD_0" : 2
                    },
                    "indices" : 3,
                    "material" : 0
                }
            ]
        },
        {
            "name" : "Cube.265",
            "primitives" : [
                {
                    "attributes" : {
                        "POSITION" : 4,
                        "NORMAL" : 5,
                        "TEXCOORD_0" : 6
                    },
                    "indices" : 7,
                    "material" : 1
                }
            ]
        },
        {
            "name" : "Cube.267",
            "primitives" : [
                {
                    "attributes" : {
                        "POSITION" : 8,
                        "NORMAL" : 9,
                        "TEXCOORD_0" : 10
                    },
                    "indices" : 11,
                    "material" : 1
                }
            ]
        },
        {
            "name" : "Cube.268",
            "primitives" : [
                {
                    "attributes" : {
                        "POSITION" : 12,
                        "NORMAL" : 13,
                        "TEXCOORD_0" : 14
                    },
                    "indices" : 15,
                    "material" : 1
                }
            ]
        },
        {
            "name" : "Sphere.384",
            "primitives" : [
                {
                    "attributes" : {
                        "POSITION" : 16,
                        "NORMAL" : 17,
                        "TEXCOORD_0" : 18
                    },
                    "indices" : 19,
                    "material" : 1
                }
            ]
        },
        {
            "name" : "Cube.269",
            "primitives" : [
                {
                    "attributes" : {
                        "POSITION" : 20,
                        "NORMAL" : 21,
                        "TEXCOORD_0" : 22
                    },
                    "indices" : 23,
                    "material" : 1
                }
            ]
        }
    ],
    "accessors" : [
        {
            "bufferView" : 0,
            "componentType" : 5126,
            "count" : 752,
            "max" : [
                1.6631134748458862,
                5.868157386779785,
                -7.179646015167236
            ],
            "min" : [
                -1.6631134748458862,
                4.425415515899658,
                -8.461299896240234
            ],
            "type" : "VEC3"
        },
        {
            "bufferView" : 1,
            "componentType" : 5126,
            "count" : 752,
            "type" : "VEC3"
        },
        {
            "bufferView" : 2,
            "componentType" : 5126,
            "count" : 752,
            "type" : "VEC2"
        },
        {
            "bufferView" : 3,
            "componentType" : 5123,
            "count" : 2880,
            "type" : "SCALAR"
        },
        {
            "bufferView" : 4,
            "componentType" : 5126,
            "count" : 345,
            "max" : [
                0.9697874188423157,
                0.9444853663444519,
                1.5750243663787842
            ],
            "min" : [
                -0.9697874188423157,
                -0.06364297866821289,
                -0.47167667746543884
            ],
            "type" : "VEC3"
        },
        {
            "bufferView" : 5,
            "componentType" : 5126,
            "count" : 345,
            "type" : "VEC3"
        },
        {
            "bufferView" : 6,
            "componentType" : 5126,
            "count" : 345,
            "type" : "VEC2"
        },
        {
            "bufferView" : 7,
            "componentType" : 5123,
            "count" : 1494,
            "type" : "SCALAR"
        },
        {
            "bufferView" : 8,
            "componentType" : 5126,
            "count" : 208,
            "max" : [
                0.5405149459838867,
                0.3659778833389282,
                0.2075148969888687
            ],
            "min" : [
                -0.5405149459838867,
                -0.45999032258987427,
                -0.15933212637901306
            ],
            "type" : "VEC3"
        },
        {
            "bufferView" : 9,
            "componentType" : 5126,
            "count" : 208,
            "type" : "VEC3"
        },
        {
            "bufferView" : 10,
            "componentType" : 5126,
            "count" : 208,
            "type" : "VEC2"
        },
        {
            "bufferView" : 11,
            "componentType" : 5123,
            "count" : 552,
            "type" : "SCALAR"
        },
        {
            "bufferView" : 12,
            "componentType" : 5126,
            "count" : 1000,
            "max" : [
                1.9024207592010498,
                0.9999919533729553,
                3.736921548843384
            ],
            "min" : [
                -1.9024207592010498,
                -0.845899760723114,
                -2.1689720153808594
            ],
            "type" : "VEC3"
        },
        {
            "bufferView" : 13,
            "componentType" : 5126,
            "count" : 1000,
            "type" : "VEC3"
        },
        {
            "bufferView" : 14,
            "componentType" : 5126,
            "count" : 1000,
            "type" : "VEC2"
        },
        {
            "bufferView" : 15,
            "componentType" : 5123,
            "count" : 2664,
            "type" : "SCALAR"
        },
        {
            "bufferView" : 16,
            "componentType" : 5126,
            "count" : 628,
            "max" : [
                0.8713686466217041,
                0.8064853549003601,
                0.9919776320457458
            ],
            "min" : [
                -0.8713682889938354,
                0.027098704129457474,
                -0.5086250901222229
            ],
            "type" : "VEC3"
        },
        {
            "bufferView" : 17,
            "componentType" : 5126,
            "count" : 628,
            "type" : "VEC3"
        },
        {
            "bufferView" : 18,
            "componentType" : 5126,
            "count" : 628,
            "type" : "VEC2"
        },
        {
            "bufferView" : 19,
            "componentType" : 5123,
            "count" : 2592,
            "type" : "SCALAR"
        },
        {
            "bufferView" : 20,
            "componentType" : 5126,
            "count" : 281,
            "max" : [
                0.09783508628606796,
                0.44803351163864136,
                -0.32123273611068726
            ],
            "min" : [
                -0.09783508628606796,
                0.10326115041971207,
                -0.6581189632415771
            ],
            "type" : "VEC3"
        },
        {
            "bufferView" : 21,
            "componentType" : 5126,
            "count" : 281,
            "type" : "VEC3"
        },
        {
            "bufferView" : 22,
            "componentType" : 5126,
            "count" : 281,
            "type" : "VEC2"
        },
        {
            "bufferView" : 23,
            "componentType" : 5123,
            "count" : 948,
            "type" : "SCALAR"
        }
    ],
    "bufferViews" : [
        {
            "buffer" : 0,
            "byteLength" : 9024,
            "byteOffset" : 0
        },
        {
            "buffer" : 0,
            "byteLength" : 9024,
            "byteOffset" : 9024
        },
        {
            "buffer" : 0,
            "byteLength" : 6016,
            "byteOffset" : 18048
        },
        {
            "buffer" : 0,
            "byteLength" : 5760,
            "byteOffset" : 24064
        },
        {
            "buffer" : 0,
            "byteLength" : 4140,
            "byteOffset" : 29824
        },
        {
            "buffer" : 0,
            "byteLength" : 4140,
            "byteOffset" : 33964
        },
        {
            "buffer" : 0,
            "byteLength" : 2760,
            "byteOffset" : 38104
        },
        {
            "buffer" : 0,
            "byteLength" : 2988,
            "byteOffset" : 40864
        },
        {
            "buffer" : 0,
            "byteLength" : 2496,
            "byteOffset" : 43852
        },
        {
            "buffer" : 0,
            "byteLength" : 2496,
            "byteOffset" : 46348
        },
        {
            "buffer" : 0,
            "byteLength" : 1664,
            "byteOffset" : 48844
        },
        {
            "buffer" : 0,
            "byteLength" : 1104,
            "byteOffset" : 50508
        },
        {
            "buffer" : 0,
            "byteLength" : 12000,
            "byteOffset" : 51612
        },
        {
            "buffer" : 0,
            "byteLength" : 12000,
            "byteOffset" : 63612
        },
        {
            "buffer" : 0,
            "byteLength" : 8000,
            "byteOffset" : 75612
        },
        {
            "buffer" : 0,
            "byteLength" : 5328,
            "byteOffset" : 83612
        },
        {
            "buffer" : 0,
            "byteLength" : 7536,
            "byteOffset" : 88940
        },
        {
            "buffer" : 0,
            "byteLength" : 7536,
            "byteOffset" : 96476
        },
        {
            "buffer" : 0,
            "byteLength" : 5024,
            "byteOffset" : 104012
        },
        {
            "buffer" : 0,
            "byteLength" : 5184,
            "byteOffset" : 109036
        },
        {
            "buffer" : 0,
            "byteLength" : 3372,
            "byteOffset" : 114220
        },
        {
            "buffer" : 0,
            "byteLength" : 3372,
            "byteOffset" : 117592
        },
        {
            "buffer" : 0,
            "byteLength" : 2248,
            "byteOffset" : 120964
        },
        {
            "buffer" : 0,
            "byteLength" : 1896,
            "byteOffset" : 123212
        }
    ],
    "buffers" : [
        {
            "byteLength" : 125108,
            "uri" : "data:application/octet-stream;base64,"
        }
    ]
}
