{
    "asset" : {
        "copyright" : "Jeremy Edelblut",
        "generator" : "Khronos glTF Blender I/O v1.6.16",
        "version" : "2.0"
    },
    "scene" : 0,
    "scenes" : [
        {
            "name" : "Scene",
            "nodes" : [
                0
            ]
        }
    ],
    "nodes" : [
        {
            "mesh" : 0,
            "name" : "Cube.043",
            "rotation" : [
                0,
                -0.3826834559440613,
                0,
                0.9238795042037964
            ],
            "scale" : [
                0.3766854703426361,
                0.3766854703426361,
                0.3766854703426361
            ],
            "translation" : [
                -0.6864588260650635,
                0,
                0.6641793847084045
            ]
        }
    ],
    "materials" : [
        {
            "doubleSided" : true,
            "name" : "Color",
            "pbrMetallicRoughness" : {
                "baseColorTexture" : {
                    "index" : 0
                },
                "metallicFactor" : 0,
                "roughnessFactor" : 0.5
            }
        }
    ],
    "meshes" : [
        {
            "name" : "Cube.209",
            "primitives" : [
                {
                    "attributes" : {
                        "POSITION" : 0,
                        "NORMAL" : 1,
                        "TEXCOORD_0" : 2
                    },
                    "indices" : 3,
                    "material" : 0
                }
            ]
        }
    ],
    "textures" : [
        {
            "sampler" : 0,
            "source" : 0
        }
    ],
    "images" : [
        {
            "bufferView" : 4,
            "mimeType" : "image/png",
            "name" : "tex"
        }
    ],
    "accessors" : [
        {
            "bufferView" : 0,
            "componentType" : 5126,
            "count" : 1502,
            "max" : [
                1.4934743642807007,
                0.4978679120540619,
                0.9999998211860657
            ],
            "min" : [
                -1.1919074058532715,
                -0.3062371015548706,
                -6.068386077880859
            ],
            "type" : "VEC3"
        },
        {
            "bufferView" : 1,
            "componentType" : 5126,
            "count" : 1502,
            "type" : "VEC3"
        },
        {
            "bufferView" : 2,
            "componentType" : 5126,
            "count" : 1502,
            "type" : "VEC2"
        },
        {
            "bufferView" : 3,
            "componentType" : 5123,
            "count" : 4740,
            "type" : "SCALAR"
        }
    ],
    "bufferViews" : [
        {
            "buffer" : 0,
            "byteLength" : 18024,
            "byteOffset" : 0
        },
        {
            "buffer" : 0,
            "byteLength" : 18024,
            "byteOffset" : 18024
        },
        {
            "buffer" : 0,
            "byteLength" : 12016,
            "byteOffset" : 36048
        },
        {
            "buffer" : 0,
            "byteLength" : 9480,
            "byteOffset" : 48064
        },
        {
            "buffer" : 0,
            "byteLength" : 3214,
            "byteOffset" : 57544
        }
    ],
    "samplers" : [
        {
            "magFilter" : 9729,
            "minFilter" : 9987
        }
    ],
    "buffers" : [
        {
            "byteLength" : 60760,
            "uri" : "data:application/octet-stream;base64,"
        }
    ]
}
