{
    "asset" : {
        "copyright" : "Jeremy Edelblut",
        "generator" : "Khronos glTF Blender I/O v1.6.16",
        "version" : "2.0"
    },
    "scene" : 0,
    "scenes" : [
        {
            "name" : "Scene",
            "nodes" : [
                0,
                1
            ]
        }
    ],
    "nodes" : [
        {
            "mesh" : 0,
            "name" : "Circle.2067",
            "rotation" : [
                0,
                -0.7071068286895752,
                0,
                0.7071068286895752
            ],
            "scale" : [
                0.12470033019781113,
                0.12470033019781113,
                0.12470033019781113
            ],
            "translation" : [
                0,
                -0.84627366065979,
                0
            ]
        },
        {
            "mesh" : 1,
            "name" : "Cube.176",
            "rotation" : [
                0,
                -0.7071068286895752,
                0,
                0.7071068286895752
            ],
            "scale" : [
                0.7484132051467896,
                0.7484132051467896,
                0.7484132051467896
            ],
            "translation" : [
                0,
                0.2139279842376709,
                0
            ]
        }
    ],
    "materials" : [
        {
            "doubleSided" : true,
            "name" : "Color",
            "pbrMetallicRoughness" : {
                "baseColorTexture" : {
                    "index" : 0
                },
                "metallicFactor" : 0,
                "roughnessFactor" : 0.5
            }
        }
    ],
    "meshes" : [
        {
            "name" : "Circle.2417",
            "primitives" : [
                {
                    "attributes" : {
                        "POSITION" : 0,
                        "NORMAL" : 1,
                        "TEXCOORD_0" : 2
                    },
                    "indices" : 3,
                    "material" : 0
                }
            ]
        },
        {
            "name" : "Cube.293",
            "primitives" : [
                {
                    "attributes" : {
                        "POSITION" : 4,
                        "NORMAL" : 5,
                        "TEXCOORD_0" : 6
                    },
                    "indices" : 7,
                    "material" : 0
                }
            ]
        }
    ],
    "textures" : [
        {
            "sampler" : 0,
            "source" : 0
        }
    ],
    "images" : [
        {
            "bufferView" : 4,
            "mimeType" : "image/png",
            "name" : "tex2"
        }
    ],
    "accessors" : [
        {
            "bufferView" : 0,
            "componentType" : 5126,
            "count" : 1768,
            "max" : [
                5.30592679977417,
                13.900890350341797,
                5.913143157958984
            ],
            "min" : [
                -4.719175338745117,
                4.770967960357666,
                -6.050846576690674
            ],
            "type" : "VEC3"
        },
        {
            "bufferView" : 1,
            "componentType" : 5126,
            "count" : 1768,
            "type" : "VEC3"
        },
        {
            "bufferView" : 2,
            "componentType" : 5126,
            "count" : 1768,
            "type" : "VEC2"
        },
        {
            "bufferView" : 3,
            "componentType" : 5123,
            "count" : 5016,
            "type" : "SCALAR"
        },
        {
            "bufferView" : 5,
            "componentType" : 5126,
            "count" : 915,
            "max" : [
                0.883711040019989,
                0.9146963953971863,
                1.0663217306137085
            ],
            "min" : [
                -0.884330153465271,
                -1.4166029691696167,
                -1.0637614727020264
            ],
            "type" : "VEC3"
        },
        {
            "bufferView" : 6,
            "componentType" : 5126,
            "count" : 915,
            "type" : "VEC3"
        },
        {
            "bufferView" : 7,
            "componentType" : 5126,
            "count" : 915,
            "type" : "VEC2"
        },
        {
            "bufferView" : 8,
            "componentType" : 5123,
            "count" : 5136,
            "type" : "SCALAR"
        }
    ],
    "bufferViews" : [
        {
            "buffer" : 0,
            "byteLength" : 21216,
            "byteOffset" : 0
        },
        {
            "buffer" : 0,
            "byteLength" : 21216,
            "byteOffset" : 21216
        },
        {
            "buffer" : 0,
            "byteLength" : 14144,
            "byteOffset" : 42432
        },
        {
            "buffer" : 0,
            "byteLength" : 10032,
            "byteOffset" : 56576
        },
        {
            "buffer" : 0,
            "byteLength" : 6474,
            "byteOffset" : 66608
        },
        {
            "buffer" : 0,
            "byteLength" : 10980,
            "byteOffset" : 73084
        },
        {
            "buffer" : 0,
            "byteLength" : 10980,
            "byteOffset" : 84064
        },
        {
            "buffer" : 0,
            "byteLength" : 7320,
            "byteOffset" : 95044
        },
        {
            "buffer" : 0,
            "byteLength" : 10272,
            "byteOffset" : 102364
        }
    ],
    "samplers" : [
        {
            "magFilter" : 9729,
            "minFilter" : 9987
        }
    ],
    "buffers" : [
        {
            "byteLength" : 112636,
            "uri" : "data:application/octet-stream;base64,"
        }
    ]
}
