{
    "asset" : {
        "copyright" : "Jeremy Edelblut",
        "generator" : "Khronos glTF Blender I/O v1.6.16",
        "version" : "2.0"
    },
    "scene" : 0,
    "scenes" : [
        {
            "name" : "Scene",
            "nodes" : [
                0,
                1,
                2,
                3,
                4
            ]
        }
    ],
    "nodes" : [
        {
            "mesh" : 0,
            "name" : "Circle.1883",
            "rotation" : [
                0.653281569480896,
                -0.270597904920578,
                0.2705979347229004,
                0.6532815098762512
            ],
            "translation" : [
                -0.3103007376194,
                0.12013303488492966,
                0.3103007376194
            ]
        },
        {
            "mesh" : 1,
            "name" : "Cube.6219",
            "rotation" : [
                0,
                -0.3826834559440613,
                0,
                0.9238795042037964
            ],
            "translation" : [
                -0.3465093970298767,
                0.06321142613887787,
                0.31174248456954956
            ]
        },
        {
            "mesh" : 2,
            "name" : "Plane.115",
            "rotation" : [
                0,
                -0.3826834559440613,
                0,
                0.9238795042037964
            ],
            "translation" : [
                -0.3005432188510895,
                -0.14434997737407684,
                0.3005432188510895
            ]
        },
        {
            "mesh" : 3,
            "name" : "Cube.6221",
            "rotation" : [
                0,
                -0.3826834559440613,
                0,
                0.9238795042037964
            ],
            "translation" : [
                -0.23612110316753387,
                -0.12465126067399979,
                0.23612110316753387
            ]
        },
        {
            "mesh" : 4,
            "name" : "3moji.org.206",
            "rotation" : [
                -0.274807333946228,
                0.2663222849369049,
                -0.6634435653686523,
                0.6429588198661804
            ],
            "translation" : [
                0.2588140070438385,
                -0.6452099084854126,
                -0.2714688777923584
            ]
        }
    ],
    "materials" : [
        {
            "doubleSided" : true,
            "name" : "Color",
            "pbrMetallicRoughness" : {
                "baseColorTexture" : {
                    "index" : 0
                },
                "metallicFactor" : 0,
                "roughnessFactor" : 0.5
            }
        }
    ],
    "meshes" : [
        {
            "name" : "Circle.2099",
            "primitives" : [
                {
                    "attributes" : {
                        "POSITION" : 0,
                        "NORMAL" : 1,
                        "TEXCOORD_0" : 2
                    },
                    "indices" : 3,
                    "material" : 0
                }
            ]
        },
        {
            "name" : "Cube.7274",
            "primitives" : [
                {
                    "attributes" : {
                        "POSITION" : 4,
                        "NORMAL" : 5,
                        "TEXCOORD_0" : 6
                    },
                    "indices" : 7,
                    "material" : 0
                }
            ]
        },
        {
            "name" : "Plane.116",
            "primitives" : [
                {
                    "attributes" : {
                        "POSITION" : 8,
                        "NORMAL" : 9,
                        "TEXCOORD_0" : 10
                    },
                    "indices" : 11,
                    "material" : 0
                }
            ]
        },
        {
            "name" : "Cube.7276",
            "primitives" : [
                {
                    "attributes" : {
                        "POSITION" : 12,
                        "NORMAL" : 13,
                        "TEXCOORD_0" : 14
                    },
                    "indices" : 15,
                    "material" : 0
                }
            ]
        },
        {
            "name" : "Cube.667",
            "primitives" : [
                {
                    "attributes" : {
                        "POSITION" : 16,
                        "NORMAL" : 17,
                        "TEXCOORD_0" : 18
                    },
                    "indices" : 19,
                    "material" : 0
                }
            ]
        }
    ],
    "textures" : [
        {
            "sampler" : 0,
            "source" : 0
        }
    ],
    "images" : [
        {
            "bufferView" : 4,
            "mimeType" : "image/png",
            "name" : "tex2"
        }
    ],
    "accessors" : [
        {
            "bufferView" : 0,
            "componentType" : 5126,
            "count" : 644,
            "max" : [
                0.14877228438854218,
                0.12602651119232178,
                -0.30200493335723877
            ],
            "min" : [
                -0.14877228438854218,
                0.029866084456443787,
                -0.41592997312545776
            ],
            "type" : "VEC3"
        },
        {
            "bufferView" : 1,
            "componentType" : 5126,
            "count" : 644,
            "type" : "VEC3"
        },
        {
            "bufferView" : 2,
            "componentType" : 5126,
            "count" : 644,
            "type" : "VEC2"
        },
        {
            "bufferView" : 3,
            "componentType" : 5123,
            "count" : 2880,
            "type" : "SCALAR"
        },
        {
            "bufferView" : 5,
            "componentType" : 5126,
            "count" : 1420,
            "max" : [
                0.27826496958732605,
                1.1107500791549683,
                0.1239791139960289
            ],
            "min" : [
                -0.27826496958732605,
                0.45994794368743896,
                -0.28490301966667175
            ],
            "type" : "VEC3"
        },
        {
            "bufferView" : 6,
            "componentType" : 5126,
            "count" : 1420,
            "type" : "VEC3"
        },
        {
            "bufferView" : 7,
            "componentType" : 5126,
            "count" : 1420,
            "type" : "VEC2"
        },
        {
            "bufferView" : 8,
            "componentType" : 5123,
            "count" : 4680,
            "type" : "SCALAR"
        },
        {
            "bufferView" : 9,
            "componentType" : 5126,
            "count" : 1144,
            "max" : [
                0.22922298312187195,
                0.7791867256164551,
                0.5005643367767334
            ],
            "min" : [
                -0.22922298312187195,
                -1.1721528768539429,
                -1.4850248098373413
            ],
            "type" : "VEC3"
        },
        {
            "bufferView" : 10,
            "componentType" : 5126,
            "count" : 1144,
            "type" : "VEC3"
        },
        {
            "bufferView" : 11,
            "componentType" : 5126,
            "count" : 1144,
            "type" : "VEC2"
        },
        {
            "bufferView" : 12,
            "componentType" : 5123,
            "count" : 3804,
            "type" : "SCALAR"
        },
        {
            "bufferView" : 13,
            "componentType" : 5126,
            "count" : 60,
            "max" : [
                0.07677096128463745,
                0.14907751977443695,
                -1.0753471851348877
            ],
            "min" : [
                -0.07677096128463745,
                -0.1901242733001709,
                -1.4849321842193604
            ],
            "type" : "VEC3"
        },
        {
            "bufferView" : 14,
            "componentType" : 5126,
            "count" : 60,
            "type" : "VEC3"
        },
        {
            "bufferView" : 15,
            "componentType" : 5126,
            "count" : 60,
            "type" : "VEC2"
        },
        {
            "bufferView" : 16,
            "componentType" : 5123,
            "count" : 144,
            "type" : "SCALAR"
        },
        {
            "bufferView" : 17,
            "componentType" : 5126,
            "count" : 752,
            "max" : [
                0.004451964050531387,
                0.027151664718985558,
                0.059254344552755356
            ],
            "min" : [
                9.86293500204738e-08,
                -0.006530142854899168,
                -0.06584952771663666
            ],
            "type" : "VEC3"
        },
        {
            "bufferView" : 18,
            "componentType" : 5126,
            "count" : 752,
            "type" : "VEC3"
        },
        {
            "bufferView" : 19,
            "componentType" : 5126,
            "count" : 752,
            "type" : "VEC2"
        },
        {
            "bufferView" : 20,
            "componentType" : 5123,
            "count" : 1680,
            "type" : "SCALAR"
        }
    ],
    "bufferViews" : [
        {
            "buffer" : 0,
            "byteLength" : 7728,
            "byteOffset" : 0
        },
        {
            "buffer" : 0,
            "byteLength" : 7728,
            "byteOffset" : 7728
        },
        {
            "buffer" : 0,
            "byteLength" : 5152,
            "byteOffset" : 15456
        },
        {
            "buffer" : 0,
            "byteLength" : 5760,
            "byteOffset" : 20608
        },
        {
            "buffer" : 0,
            "byteLength" : 6474,
            "byteOffset" : 26368
        },
        {
            "buffer" : 0,
            "byteLength" : 17040,
            "byteOffset" : 32844
        },
        {
            "buffer" : 0,
            "byteLength" : 17040,
            "byteOffset" : 49884
        },
        {
            "buffer" : 0,
            "byteLength" : 11360,
            "byteOffset" : 66924
        },
        {
            "buffer" : 0,
            "byteLength" : 9360,
            "byteOffset" : 78284
        },
        {
            "buffer" : 0,
            "byteLength" : 13728,
            "byteOffset" : 87644
        },
        {
            "buffer" : 0,
            "byteLength" : 13728,
            "byteOffset" : 101372
        },
        {
            "buffer" : 0,
            "byteLength" : 9152,
            "byteOffset" : 115100
        },
        {
            "buffer" : 0,
            "byteLength" : 7608,
            "byteOffset" : 124252
        },
        {
            "buffer" : 0,
            "byteLength" : 720,
            "byteOffset" : 131860
        },
        {
            "buffer" : 0,
            "byteLength" : 720,
            "byteOffset" : 132580
        },
        {
            "buffer" : 0,
            "byteLength" : 480,
            "byteOffset" : 133300
        },
        {
            "buffer" : 0,
            "byteLength" : 288,
            "byteOffset" : 133780
        },
        {
            "buffer" : 0,
            "byteLength" : 9024,
            "byteOffset" : 134068
        },
        {
            "buffer" : 0,
            "byteLength" : 9024,
            "byteOffset" : 143092
        },
        {
            "buffer" : 0,
            "byteLength" : 6016,
            "byteOffset" : 152116
        },
        {
            "buffer" : 0,
            "byteLength" : 3360,
            "byteOffset" : 158132
        }
    ],
    "samplers" : [
        {
            "magFilter" : 9729,
            "minFilter" : 9987
        }
    ],
    "buffers" : [
        {
            "byteLength" : 161492,
            "uri" : "data:application/octet-stream;base64,"
        }
    ]
}
