{
    "asset" : {
        "copyright" : "Jeremy Edelblut",
        "generator" : "Khronos glTF Blender I/O v1.6.16",
        "version" : "2.0"
    },
    "scene" : 0,
    "scenes" : [
        {
            "name" : "Scene",
            "nodes" : [
                0
            ]
        }
    ],
    "nodes" : [
        {
            "mesh" : 0,
            "name" : "Sphere.531",
            "rotation" : [
                0,
                -0.7071068286895752,
                0,
                0.7071068286895752
            ],
            "scale" : [
                0.8100000619888306,
                0.8100000619888306,
                0.8100000619888306
            ]
        }
    ],
    "materials" : [
        {
            "doubleSided" : true,
            "name" : "Color",
            "pbrMetallicRoughness" : {
                "baseColorTexture" : {
                    "index" : 0
                },
                "metallicFactor" : 0,
                "roughnessFactor" : 0.5
            }
        }
    ],
    "meshes" : [
        {
            "name" : "Sphere.556",
            "primitives" : [
                {
                    "attributes" : {
                        "POSITION" : 0,
                        "NORMAL" : 1,
                        "TEXCOORD_0" : 2
                    },
                    "indices" : 3,
                    "material" : 0
                },
                {
                    "attributes" : {
                        "POSITION" : 4,
                        "NORMAL" : 5,
                        "TEXCOORD_0" : 6
                    },
                    "indices" : 7
                }
            ]
        }
    ],
    "textures" : [
        {
            "sampler" : 0,
            "source" : 0
        }
    ],
    "images" : [
        {
            "bufferView" : 4,
            "mimeType" : "image/png",
            "name" : "tex"
        }
    ],
    "accessors" : [
        {
            "bufferView" : 0,
            "componentType" : 5126,
            "count" : 2192,
            "max" : [
                0.827168345451355,
                0.8295049071311951,
                1.329850196838379
            ],
            "min" : [
                -0.8273265957832336,
                -0.9735114574432373,
                -1.375662088394165
            ],
            "type" : "VEC3"
        },
        {
            "bufferView" : 1,
            "componentType" : 5126,
            "count" : 2192,
            "type" : "VEC3"
        },
        {
            "bufferView" : 2,
            "componentType" : 5126,
            "count" : 2192,
            "type" : "VEC2"
        },
        {
            "bufferView" : 3,
            "componentType" : 5123,
            "count" : 10719,
            "type" : "SCALAR"
        },
        {
            "bufferView" : 5,
            "componentType" : 5126,
            "count" : 1379,
            "max" : [
                0.07574796676635742,
                1.0932872295379639,
                1.443221092224121
            ],
            "min" : [
                -0.06139519065618515,
                0.43196454644203186,
                0.9841387271881104
            ],
            "type" : "VEC3"
        },
        {
            "bufferView" : 6,
            "componentType" : 5126,
            "count" : 1379,
            "type" : "VEC3"
        },
        {
            "bufferView" : 7,
            "componentType" : 5126,
            "count" : 1379,
            "type" : "VEC2"
        },
        {
            "bufferView" : 8,
            "componentType" : 5123,
            "count" : 7776,
            "type" : "SCALAR"
        }
    ],
    "bufferViews" : [
        {
            "buffer" : 0,
            "byteLength" : 26304,
            "byteOffset" : 0
        },
        {
            "buffer" : 0,
            "byteLength" : 26304,
            "byteOffset" : 26304
        },
        {
            "buffer" : 0,
            "byteLength" : 17536,
            "byteOffset" : 52608
        },
        {
            "buffer" : 0,
            "byteLength" : 21438,
            "byteOffset" : 70144
        },
        {
            "buffer" : 0,
            "byteLength" : 3214,
            "byteOffset" : 91584
        },
        {
            "buffer" : 0,
            "byteLength" : 16548,
            "byteOffset" : 94800
        },
        {
            "buffer" : 0,
            "byteLength" : 16548,
            "byteOffset" : 111348
        },
        {
            "buffer" : 0,
            "byteLength" : 11032,
            "byteOffset" : 127896
        },
        {
            "buffer" : 0,
            "byteLength" : 15552,
            "byteOffset" : 138928
        }
    ],
    "samplers" : [
        {
            "magFilter" : 9729,
            "minFilter" : 9987
        }
    ],
    "buffers" : [
        {
            "byteLength" : 154480,
            "uri" : "data:application/octet-stream;base64,"
        }
    ]
}
