{
    "asset" : {
        "copyright" : "Jeremy Edelblut",
        "generator" : "Khronos glTF Blender I/O v1.6.16",
        "version" : "2.0"
    },
    "scene" : 0,
    "scenes" : [
        {
            "name" : "Scene",
            "nodes" : [
                0
            ]
        }
    ],
    "nodes" : [
        {
            "mesh" : 0,
            "name" : "Plane.345",
            "rotation" : [
                -0.1464466005563736,
                -0.3535533845424652,
                -0.3535533547401428,
                0.8535534143447876
            ],
            "scale" : [
                0.26296037435531616,
                0.2629603147506714,
                0.26296037435531616
            ]
        }
    ],
    "materials" : [
        {
            "doubleSided" : true,
            "name" : "Color",
            "pbrMetallicRoughness" : {
                "baseColorTexture" : {
                    "index" : 0
                },
                "metallicFactor" : 0,
                "roughnessFactor" : 0.5
            }
        }
    ],
    "meshes" : [
        {
            "name" : "Plane.337",
            "primitives" : [
                {
                    "attributes" : {
                        "POSITION" : 0,
                        "NORMAL" : 1,
                        "TEXCOORD_0" : 2
                    },
                    "indices" : 3,
                    "material" : 0
                }
            ]
        }
    ],
    "textures" : [
        {
            "sampler" : 0,
            "source" : 0
        }
    ],
    "images" : [
        {
            "bufferView" : 4,
            "mimeType" : "image/png",
            "name" : "tex2"
        }
    ],
    "accessors" : [
        {
            "bufferView" : 0,
            "componentType" : 5126,
            "count" : 1040,
            "max" : [
                1.66770339012146,
                4.1801958084106445,
                1.6676732301712036
            ],
            "min" : [
                -1.66770339012146,
                -4.1801958084106445,
                -1.6676732301712036
            ],
            "type" : "VEC3"
        },
        {
            "bufferView" : 1,
            "componentType" : 5126,
            "count" : 1040,
            "type" : "VEC3"
        },
        {
            "bufferView" : 2,
            "componentType" : 5126,
            "count" : 1040,
            "type" : "VEC2"
        },
        {
            "bufferView" : 3,
            "componentType" : 5123,
            "count" : 3768,
            "type" : "SCALAR"
        }
    ],
    "bufferViews" : [
        {
            "buffer" : 0,
            "byteLength" : 12480,
            "byteOffset" : 0
        },
        {
            "buffer" : 0,
            "byteLength" : 12480,
            "byteOffset" : 12480
        },
        {
            "buffer" : 0,
            "byteLength" : 8320,
            "byteOffset" : 24960
        },
        {
            "buffer" : 0,
            "byteLength" : 7536,
            "byteOffset" : 33280
        },
        {
            "buffer" : 0,
            "byteLength" : 6474,
            "byteOffset" : 40816
        }
    ],
    "samplers" : [
        {
            "magFilter" : 9729,
            "minFilter" : 9987
        }
    ],
    "buffers" : [
        {
            "byteLength" : 47292,
            "uri" : "data:application/octet-stream;base64,"
        }
    ]
}
