{
    "asset" : {
        "copyright" : "Jeremy Edelblut",
        "generator" : "Khronos glTF Blender I/O v1.7.33",
        "version" : "2.0"
    },
    "scene" : 0,
    "scenes" : [
        {
            "name" : "Scene",
            "nodes" : [
                0,
                1,
                2,
                3
            ]
        }
    ],
    "nodes" : [
        {
            "mesh" : 0,
            "name" : "Circle.010",
            "rotation" : [
                0,
                -0.3826834559440613,
                0,
                0.9238795042037964
            ],
            "translation" : [
                0.13046015799045563,
                0,
                -0.020780719816684723
            ]
        },
        {
            "mesh" : 1,
            "name" : "Cube",
            "rotation" : [
                0.0527566596865654,
                0.3790295422077179,
                0.1273658573627472,
                0.9150581955909729
            ],
            "translation" : [
                0.1096794381737709,
                0,
                0
            ]
        },
        {
            "mesh" : 2,
            "name" : "Plane",
            "rotation" : [
                0,
                -0.3826834559440613,
                0,
                0.9238795042037964
            ],
            "translation" : [
                0.10967943072319031,
                0,
                0
            ]
        },
        {
            "mesh" : 3,
            "name" : "3moji.org.189",
            "rotation" : [
                -0.686843752861023,
                0.6143000721931458,
                -0.28902608156204224,
                0.2595091760158539
            ],
            "translation" : [
                0.15638452768325806,
                -0.37750890851020813,
                0.07068762183189392
            ]
        }
    ],
    "materials" : [
        {
            "doubleSided" : true,
            "name" : "color",
            "pbrMetallicRoughness" : {
                "baseColorTexture" : {
                    "index" : 0
                },
                "metallicFactor" : 0,
                "roughnessFactor" : 0.5
            }
        }
    ],
    "meshes" : [
        {
            "name" : "Circle.011",
            "primitives" : [
                {
                    "attributes" : {
                        "POSITION" : 0,
                        "NORMAL" : 1,
                        "TEXCOORD_0" : 2
                    },
                    "indices" : 3,
                    "material" : 0
                }
            ]
        },
        {
            "name" : "Cube",
            "primitives" : [
                {
                    "attributes" : {
                        "POSITION" : 4,
                        "NORMAL" : 5,
                        "TEXCOORD_0" : 6
                    },
                    "indices" : 7,
                    "material" : 0
                }
            ]
        },
        {
            "name" : "Plane",
            "primitives" : [
                {
                    "attributes" : {
                        "POSITION" : 8,
                        "NORMAL" : 9,
                        "TEXCOORD_0" : 10
                    },
                    "indices" : 11,
                    "material" : 0
                }
            ]
        },
        {
            "name" : "Cube.645",
            "primitives" : [
                {
                    "attributes" : {
                        "POSITION" : 12,
                        "NORMAL" : 13,
                        "TEXCOORD_0" : 14
                    },
                    "indices" : 15,
                    "material" : 0
                }
            ]
        }
    ],
    "textures" : [
        {
            "sampler" : 0,
            "source" : 0
        }
    ],
    "images" : [
        {
            "bufferView" : 4,
            "mimeType" : "image/png",
            "name" : "tex"
        }
    ],
    "accessors" : [
        {
            "bufferView" : 0,
            "componentType" : 5126,
            "count" : 224,
            "max" : [
                0.2725032567977905,
                0.6026338934898376,
                0.9745475053787231
            ],
            "min" : [
                -0.2725032567977905,
                0.5119507312774658,
                0.8940389752388
            ],
            "type" : "VEC3"
        },
        {
            "bufferView" : 1,
            "componentType" : 5126,
            "count" : 224,
            "type" : "VEC3"
        },
        {
            "bufferView" : 2,
            "componentType" : 5126,
            "count" : 224,
            "type" : "VEC2"
        },
        {
            "bufferView" : 3,
            "componentType" : 5123,
            "count" : 840,
            "type" : "SCALAR"
        },
        {
            "bufferView" : 5,
            "componentType" : 5126,
            "count" : 76,
            "max" : [
                -0.862332284450531,
                0.6663169860839844,
                0.06521341949701309
            ],
            "min" : [
                -1.1913734674453735,
                0.6487404704093933,
                -0.06521384418010712
            ],
            "type" : "VEC3"
        },
        {
            "bufferView" : 6,
            "componentType" : 5126,
            "count" : 76,
            "type" : "VEC3"
        },
        {
            "bufferView" : 7,
            "componentType" : 5126,
            "count" : 76,
            "type" : "VEC2"
        },
        {
            "bufferView" : 8,
            "componentType" : 5123,
            "count" : 204,
            "type" : "SCALAR"
        },
        {
            "bufferView" : 9,
            "componentType" : 5126,
            "count" : 1211,
            "max" : [
                0.27922239899635315,
                1.0179555416107178,
                1.329344391822815
            ],
            "min" : [
                -0.27922239899635315,
                -0.8959623575210571,
                -1.3597838878631592
            ],
            "type" : "VEC3"
        },
        {
            "bufferView" : 10,
            "componentType" : 5126,
            "count" : 1211,
            "type" : "VEC3"
        },
        {
            "bufferView" : 11,
            "componentType" : 5126,
            "count" : 1211,
            "type" : "VEC2"
        },
        {
            "bufferView" : 12,
            "componentType" : 5123,
            "count" : 3816,
            "type" : "SCALAR"
        },
        {
            "bufferView" : 13,
            "componentType" : 5126,
            "count" : 752,
            "max" : [
                0.008008395321667194,
                0.04884164035320282,
                0.10658936202526093
            ],
            "min" : [
                1.7741893998390879e-07,
                -0.011746715754270554,
                -0.11845307052135468
            ],
            "type" : "VEC3"
        },
        {
            "bufferView" : 14,
            "componentType" : 5126,
            "count" : 752,
            "type" : "VEC3"
        },
        {
            "bufferView" : 15,
            "componentType" : 5126,
            "count" : 752,
            "type" : "VEC2"
        },
        {
            "bufferView" : 16,
            "componentType" : 5123,
            "count" : 1680,
            "type" : "SCALAR"
        }
    ],
    "bufferViews" : [
        {
            "buffer" : 0,
            "byteLength" : 2688,
            "byteOffset" : 0
        },
        {
            "buffer" : 0,
            "byteLength" : 2688,
            "byteOffset" : 2688
        },
        {
            "buffer" : 0,
            "byteLength" : 1792,
            "byteOffset" : 5376
        },
        {
            "buffer" : 0,
            "byteLength" : 1680,
            "byteOffset" : 7168
        },
        {
            "buffer" : 0,
            "byteLength" : 11997,
            "byteOffset" : 8848
        },
        {
            "buffer" : 0,
            "byteLength" : 912,
            "byteOffset" : 20848
        },
        {
            "buffer" : 0,
            "byteLength" : 912,
            "byteOffset" : 21760
        },
        {
            "buffer" : 0,
            "byteLength" : 608,
            "byteOffset" : 22672
        },
        {
            "buffer" : 0,
            "byteLength" : 408,
            "byteOffset" : 23280
        },
        {
            "buffer" : 0,
            "byteLength" : 14532,
            "byteOffset" : 23688
        },
        {
            "buffer" : 0,
            "byteLength" : 14532,
            "byteOffset" : 38220
        },
        {
            "buffer" : 0,
            "byteLength" : 9688,
            "byteOffset" : 52752
        },
        {
            "buffer" : 0,
            "byteLength" : 7632,
            "byteOffset" : 62440
        },
        {
            "buffer" : 0,
            "byteLength" : 9024,
            "byteOffset" : 70072
        },
        {
            "buffer" : 0,
            "byteLength" : 9024,
            "byteOffset" : 79096
        },
        {
            "buffer" : 0,
            "byteLength" : 6016,
            "byteOffset" : 88120
        },
        {
            "buffer" : 0,
            "byteLength" : 3360,
            "byteOffset" : 94136
        }
    ],
    "samplers" : [
        {
            "magFilter" : 9729,
            "minFilter" : 9987
        }
    ],
    "buffers" : [
        {
            "byteLength" : 97496,
            "uri" : "data:application/octet-stream;base64,"
        }
    ]
}
