{
    "asset" : {
        "copyright" : "Jeremy Edelblut",
        "generator" : "Khronos glTF Blender I/O v1.7.33",
        "version" : "2.0"
    },
    "scene" : 0,
    "scenes" : [
        {
            "name" : "Scene",
            "nodes" : [
                0,
                1,
                2,
                3,
                4,
                5,
                6
            ]
        }
    ],
    "nodes" : [
        {
            "mesh" : 0,
            "name" : "Cube.086",
            "rotation" : [
                0,
                0.3826834559440613,
                0,
                0.9238795042037964
            ],
            "scale" : [
                1.205381989479065,
                1.2053818702697754,
                1.205381989479065
            ]
        },
        {
            "mesh" : 1,
            "name" : "Cylinder.154",
            "rotation" : [
                -0.27059808373451233,
                0.27059805393218994,
                -0.6532814502716064,
                0.6532815098762512
            ],
            "scale" : [
                4.560544967651367,
                4.560544967651367,
                4.560544967651367
            ]
        },
        {
            "mesh" : 2,
            "name" : "Cube.087",
            "rotation" : [
                0,
                0.3826834559440613,
                0,
                0.9238795042037964
            ],
            "scale" : [
                1.205381989479065,
                1.2053818702697754,
                1.205381989479065
            ]
        },
        {
            "mesh" : 3,
            "name" : "Plane.162",
            "rotation" : [
                -0.5000000596046448,
                0,
                -0.49999991059303284,
                0.7071068286895752
            ],
            "scale" : [
                0.507623016834259,
                0.507623016834259,
                0.507623016834259
            ]
        },
        {
            "mesh" : 4,
            "name" : "Cube.047",
            "rotation" : [
                0,
                0.3826834559440613,
                0,
                0.9238795042037964
            ],
            "scale" : [
                4.560544967651367,
                4.560544967651367,
                4.560544967651367
            ]
        },
        {
            "mesh" : 5,
            "name" : "Cylinder.155",
            "rotation" : [
                -0.27059808373451233,
                0.27059805393218994,
                -0.6532814502716064,
                0.6532815098762512
            ],
            "scale" : [
                4.560544967651367,
                4.560544967651367,
                4.560544967651367
            ]
        },
        {
            "mesh" : 6,
            "name" : "Cube.088",
            "rotation" : [
                0,
                0.3826834559440613,
                0,
                0.9238795042037964
            ],
            "scale" : [
                4.560544967651367,
                4.560544967651367,
                4.560544967651367
            ]
        }
    ],
    "materials" : [
        {
            "doubleSided" : true,
            "name" : "color",
            "pbrMetallicRoughness" : {
                "baseColorTexture" : {
                    "index" : 0
                },
                "metallicFactor" : 0,
                "roughnessFactor" : 0.5
            }
        }
    ],
    "meshes" : [
        {
            "name" : "Cube.242",
            "primitives" : [
                {
                    "attributes" : {
                        "POSITION" : 0,
                        "NORMAL" : 1,
                        "TEXCOORD_0" : 2
                    },
                    "indices" : 3,
                    "material" : 0
                }
            ]
        },
        {
            "name" : "Cylinder.366",
            "primitives" : [
                {
                    "attributes" : {
                        "POSITION" : 4,
                        "NORMAL" : 5,
                        "TEXCOORD_0" : 6
                    },
                    "indices" : 7,
                    "material" : 0
                }
            ]
        },
        {
            "name" : "Cube.244",
            "primitives" : [
                {
                    "attributes" : {
                        "POSITION" : 8,
                        "NORMAL" : 9,
                        "TEXCOORD_0" : 10
                    },
                    "indices" : 11,
                    "material" : 0
                }
            ]
        },
        {
            "name" : "Plane.160",
            "primitives" : [
                {
                    "attributes" : {
                        "POSITION" : 12,
                        "NORMAL" : 13,
                        "TEXCOORD_0" : 14
                    },
                    "indices" : 15,
                    "material" : 0
                }
            ]
        },
        {
            "name" : "Cube.243",
            "primitives" : [
                {
                    "attributes" : {
                        "POSITION" : 16,
                        "NORMAL" : 17,
                        "TEXCOORD_0" : 18
                    },
                    "indices" : 19,
                    "material" : 0
                }
            ]
        },
        {
            "name" : "Cylinder.371",
            "primitives" : [
                {
                    "attributes" : {
                        "POSITION" : 20,
                        "NORMAL" : 21,
                        "TEXCOORD_0" : 22
                    },
                    "indices" : 23,
                    "material" : 0
                }
            ]
        },
        {
            "name" : "Cube.248",
            "primitives" : [
                {
                    "attributes" : {
                        "POSITION" : 24,
                        "NORMAL" : 25,
                        "TEXCOORD_0" : 26
                    },
                    "indices" : 27,
                    "material" : 0
                }
            ]
        }
    ],
    "textures" : [
        {
            "sampler" : 0,
            "source" : 0
        }
    ],
    "images" : [
        {
            "bufferView" : 4,
            "mimeType" : "image/png",
            "name" : "tex"
        }
    ],
    "accessors" : [
        {
            "bufferView" : 0,
            "componentType" : 5126,
            "count" : 589,
            "max" : [
                0.29484426975250244,
                0.6925114393234253,
                0.9707753658294678
            ],
            "min" : [
                -0.29484426975250244,
                -0.885344386100769,
                -0.761826753616333
            ],
            "type" : "VEC3"
        },
        {
            "bufferView" : 1,
            "componentType" : 5126,
            "count" : 589,
            "type" : "VEC3"
        },
        {
            "bufferView" : 2,
            "componentType" : 5126,
            "count" : 589,
            "type" : "VEC2"
        },
        {
            "bufferView" : 3,
            "componentType" : 5123,
            "count" : 1836,
            "type" : "SCALAR"
        },
        {
            "bufferView" : 5,
            "componentType" : 5126,
            "count" : 54,
            "max" : [
                -0.06323021650314331,
                0.08021550625562668,
                0.04459170997142792
            ],
            "min" : [
                -0.09096884727478027,
                -0.08021538704633713,
                0.004866644740104675
            ],
            "type" : "VEC3"
        },
        {
            "bufferView" : 6,
            "componentType" : 5126,
            "count" : 54,
            "type" : "VEC3"
        },
        {
            "bufferView" : 7,
            "componentType" : 5126,
            "count" : 54,
            "type" : "VEC2"
        },
        {
            "bufferView" : 8,
            "componentType" : 5123,
            "count" : 96,
            "type" : "SCALAR"
        },
        {
            "bufferView" : 9,
            "componentType" : 5126,
            "count" : 144,
            "max" : [
                0.03871631622314453,
                0.8795887231826782,
                0.2344653606414795
            ],
            "min" : [
                -0.038716502487659454,
                -0.880655825138092,
                -0.9619402885437012
            ],
            "type" : "VEC3"
        },
        {
            "bufferView" : 10,
            "componentType" : 5126,
            "count" : 144,
            "type" : "VEC3"
        },
        {
            "bufferView" : 11,
            "componentType" : 5126,
            "count" : 144,
            "type" : "VEC2"
        },
        {
            "bufferView" : 12,
            "componentType" : 5123,
            "count" : 264,
            "type" : "SCALAR"
        },
        {
            "bufferView" : 13,
            "componentType" : 5126,
            "count" : 1489,
            "max" : [
                1.0210965871810913,
                0.7401258945465088,
                -0.6596491932868958
            ],
            "min" : [
                -0.9615858793258667,
                -0.7401260733604431,
                -2.443573474884033
            ],
            "type" : "VEC3"
        },
        {
            "bufferView" : 14,
            "componentType" : 5126,
            "count" : 1489,
            "type" : "VEC3"
        },
        {
            "bufferView" : 15,
            "componentType" : 5126,
            "count" : 1489,
            "type" : "VEC2"
        },
        {
            "bufferView" : 16,
            "componentType" : 5123,
            "count" : 2304,
            "type" : "SCALAR"
        },
        {
            "bufferView" : 17,
            "componentType" : 5126,
            "count" : 128,
            "max" : [
                0.07434025406837463,
                -0.0617903470993042,
                0.21521228551864624
            ],
            "min" : [
                -0.07434025406837463,
                -0.10525089502334595,
                0.16153037548065186
            ],
            "type" : "VEC3"
        },
        {
            "bufferView" : 18,
            "componentType" : 5126,
            "count" : 128,
            "type" : "VEC3"
        },
        {
            "bufferView" : 19,
            "componentType" : 5126,
            "count" : 128,
            "type" : "VEC2"
        },
        {
            "bufferView" : 20,
            "componentType" : 5123,
            "count" : 324,
            "type" : "SCALAR"
        },
        {
            "bufferView" : 21,
            "componentType" : 5126,
            "count" : 68,
            "max" : [
                -0.07372164726257324,
                0.08021549135446548,
                0.05971013009548187
            ],
            "min" : [
                -0.12318187952041626,
                -0.08021538704633713,
                -0.007380038499832153
            ],
            "type" : "VEC3"
        },
        {
            "bufferView" : 22,
            "componentType" : 5126,
            "count" : 68,
            "type" : "VEC3"
        },
        {
            "bufferView" : 23,
            "componentType" : 5126,
            "count" : 68,
            "type" : "VEC2"
        },
        {
            "bufferView" : 24,
            "componentType" : 5123,
            "count" : 132,
            "type" : "SCALAR"
        },
        {
            "bufferView" : 25,
            "componentType" : 5126,
            "count" : 128,
            "max" : [
                0.06790634989738464,
                0.2270573079586029,
                0.11177019029855728
            ],
            "min" : [
                -0.06790634989738464,
                0.12008804827928543,
                0.04932701960206032
            ],
            "type" : "VEC3"
        },
        {
            "bufferView" : 26,
            "componentType" : 5126,
            "count" : 128,
            "type" : "VEC3"
        },
        {
            "bufferView" : 27,
            "componentType" : 5126,
            "count" : 128,
            "type" : "VEC2"
        },
        {
            "bufferView" : 28,
            "componentType" : 5123,
            "count" : 324,
            "type" : "SCALAR"
        }
    ],
    "bufferViews" : [
        {
            "buffer" : 0,
            "byteLength" : 7068,
            "byteOffset" : 0
        },
        {
            "buffer" : 0,
            "byteLength" : 7068,
            "byteOffset" : 7068
        },
        {
            "buffer" : 0,
            "byteLength" : 4712,
            "byteOffset" : 14136
        },
        {
            "buffer" : 0,
            "byteLength" : 3672,
            "byteOffset" : 18848
        },
        {
            "buffer" : 0,
            "byteLength" : 11997,
            "byteOffset" : 22520
        },
        {
            "buffer" : 0,
            "byteLength" : 648,
            "byteOffset" : 34520
        },
        {
            "buffer" : 0,
            "byteLength" : 648,
            "byteOffset" : 35168
        },
        {
            "buffer" : 0,
            "byteLength" : 432,
            "byteOffset" : 35816
        },
        {
            "buffer" : 0,
            "byteLength" : 192,
            "byteOffset" : 36248
        },
        {
            "buffer" : 0,
            "byteLength" : 1728,
            "byteOffset" : 36440
        },
        {
            "buffer" : 0,
            "byteLength" : 1728,
            "byteOffset" : 38168
        },
        {
            "buffer" : 0,
            "byteLength" : 1152,
            "byteOffset" : 39896
        },
        {
            "buffer" : 0,
            "byteLength" : 528,
            "byteOffset" : 41048
        },
        {
            "buffer" : 0,
            "byteLength" : 17868,
            "byteOffset" : 41576
        },
        {
            "buffer" : 0,
            "byteLength" : 17868,
            "byteOffset" : 59444
        },
        {
            "buffer" : 0,
            "byteLength" : 11912,
            "byteOffset" : 77312
        },
        {
            "buffer" : 0,
            "byteLength" : 4608,
            "byteOffset" : 89224
        },
        {
            "buffer" : 0,
            "byteLength" : 1536,
            "byteOffset" : 93832
        },
        {
            "buffer" : 0,
            "byteLength" : 1536,
            "byteOffset" : 95368
        },
        {
            "buffer" : 0,
            "byteLength" : 1024,
            "byteOffset" : 96904
        },
        {
            "buffer" : 0,
            "byteLength" : 648,
            "byteOffset" : 97928
        },
        {
            "buffer" : 0,
            "byteLength" : 816,
            "byteOffset" : 98576
        },
        {
            "buffer" : 0,
            "byteLength" : 816,
            "byteOffset" : 99392
        },
        {
            "buffer" : 0,
            "byteLength" : 544,
            "byteOffset" : 100208
        },
        {
            "buffer" : 0,
            "byteLength" : 264,
            "byteOffset" : 100752
        },
        {
            "buffer" : 0,
            "byteLength" : 1536,
            "byteOffset" : 101016
        },
        {
            "buffer" : 0,
            "byteLength" : 1536,
            "byteOffset" : 102552
        },
        {
            "buffer" : 0,
            "byteLength" : 1024,
            "byteOffset" : 104088
        },
        {
            "buffer" : 0,
            "byteLength" : 648,
            "byteOffset" : 105112
        }
    ],
    "samplers" : [
        {
            "magFilter" : 9729,
            "minFilter" : 9987
        }
    ],
    "buffers" : [
        {
            "byteLength" : 105760,
            "uri" : "data:application/octet-stream;base64,"
        }
    ]
}
