{
    "asset" : {
        "copyright" : "Jeremy Edelblut",
        "generator" : "Khronos glTF Blender I/O v1.6.16",
        "version" : "2.0"
    },
    "scene" : 0,
    "scenes" : [
        {
            "name" : "Scene",
            "nodes" : [
                0,
                1,
                2
            ]
        }
    ],
    "nodes" : [
        {
            "mesh" : 0,
            "name" : "Circle.204",
            "rotation" : [
                0,
                0.7071068286895752,
                0,
                0.7071068286895752
            ],
            "scale" : [
                0.36607468128204346,
                0.36607468128204346,
                0.36607468128204346
            ],
            "translation" : [
                0,
                -0.5608283281326294,
                0.050749991089105606
            ]
        },
        {
            "mesh" : 1,
            "name" : "Cube.116",
            "scale" : [
                0.36607468128204346,
                0.36607468128204346,
                0.36607468128204346
            ],
            "translation" : [
                0,
                -0.5608283281326294,
                0.050749991089105606
            ]
        },
        {
            "mesh" : 2,
            "name" : "Cube.117",
            "rotation" : [
                0,
                0,
                0,
                -1
            ],
            "scale" : [
                0.1464298665523529,
                0.1464298665523529,
                0.1464298665523529
            ],
            "translation" : [
                0,
                -0.5608283281326294,
                0.050749991089105606
            ]
        }
    ],
    "materials" : [
        {
            "doubleSided" : true,
            "name" : "DKBrown",
            "pbrMetallicRoughness" : {
                "baseColorFactor" : [
                    0.010021701455116272,
                    0.0023923655971884727,
                    0.0018060366855934262,
                    1
                ],
                "metallicFactor" : 0,
                "roughnessFactor" : 0.5
            }
        },
        {
            "doubleSided" : true,
            "name" : "Brown",
            "pbrMetallicRoughness" : {
                "baseColorFactor" : [
                    0.07322511821985245,
                    0.02384052984416485,
                    0.021921303123235703,
                    1
                ],
                "metallicFactor" : 0,
                "roughnessFactor" : 0.5
            }
        },
        {
            "doubleSided" : true,
            "name" : "blond",
            "pbrMetallicRoughness" : {
                "baseColorFactor" : [
                    0.7873942852020264,
                    0.5489762425422668,
                    0.04593009129166603,
                    1
                ],
                "metallicFactor" : 0,
                "roughnessFactor" : 0.5
            }
        },
        {
            "doubleSided" : true,
            "name" : "white",
            "pbrMetallicRoughness" : {
                "baseColorFactor" : [
                    0.800000011920929,
                    0.800000011920929,
                    0.800000011920929,
                    1
                ],
                "metallicFactor" : 0,
                "roughnessFactor" : 0.5
            }
        },
        {
            "doubleSided" : true,
            "name" : "DKgray",
            "pbrMetallicRoughness" : {
                "baseColorFactor" : [
                    0.03682169318199158,
                    0.03446357324719429,
                    0.03740420565009117,
                    1
                ],
                "metallicFactor" : 0,
                "roughnessFactor" : 0.5
            }
        }
    ],
    "meshes" : [
        {
            "name" : "Circle.107",
            "primitives" : [
                {
                    "attributes" : {
                        "POSITION" : 0,
                        "NORMAL" : 1,
                        "TEXCOORD_0" : 2
                    },
                    "indices" : 3,
                    "material" : 0
                }
            ]
        },
        {
            "name" : "Cube.134",
            "primitives" : [
                {
                    "attributes" : {
                        "POSITION" : 4,
                        "NORMAL" : 5,
                        "TEXCOORD_0" : 6
                    },
                    "indices" : 7,
                    "material" : 1
                },
                {
                    "attributes" : {
                        "POSITION" : 8,
                        "NORMAL" : 9,
                        "TEXCOORD_0" : 10
                    },
                    "indices" : 11,
                    "material" : 2
                },
                {
                    "attributes" : {
                        "POSITION" : 12,
                        "NORMAL" : 13,
                        "TEXCOORD_0" : 14
                    },
                    "indices" : 15,
                    "material" : 3
                }
            ]
        },
        {
            "name" : "Cube.137",
            "primitives" : [
                {
                    "attributes" : {
                        "POSITION" : 16,
                        "NORMAL" : 17,
                        "TEXCOORD_0" : 18
                    },
                    "indices" : 19,
                    "material" : 4
                }
            ]
        }
    ],
    "accessors" : [
        {
            "bufferView" : 0,
            "componentType" : 5126,
            "count" : 192,
            "max" : [
                -1.4989410638809204,
                1.21308171749115,
                0.28505802154541016
            ],
            "min" : [
                -1.6089701652526855,
                1.1030524969100952,
                -0.28505802154541016
            ],
            "type" : "VEC3"
        },
        {
            "bufferView" : 1,
            "componentType" : 5126,
            "count" : 192,
            "type" : "VEC3"
        },
        {
            "bufferView" : 2,
            "componentType" : 5126,
            "count" : 192,
            "type" : "VEC2"
        },
        {
            "bufferView" : 3,
            "componentType" : 5123,
            "count" : 360,
            "type" : "SCALAR"
        },
        {
            "bufferView" : 4,
            "componentType" : 5126,
            "count" : 784,
            "max" : [
                0.4049319624900818,
                4.655379295349121,
                1.335811972618103
            ],
            "min" : [
                -0.3543154001235962,
                -0.7240308523178101,
                -1.616270661354065
            ],
            "type" : "VEC3"
        },
        {
            "bufferView" : 5,
            "componentType" : 5126,
            "count" : 784,
            "type" : "VEC3"
        },
        {
            "bufferView" : 6,
            "componentType" : 5126,
            "count" : 784,
            "type" : "VEC2"
        },
        {
            "bufferView" : 7,
            "componentType" : 5123,
            "count" : 1518,
            "type" : "SCALAR"
        },
        {
            "bufferView" : 8,
            "componentType" : 5126,
            "count" : 228,
            "max" : [
                0.12368177622556686,
                1.2694354057312012,
                2.1226840019226074
            ],
            "min" : [
                -0.10822153836488724,
                0.9032919406890869,
                1.6858159303665161
            ],
            "type" : "VEC3"
        },
        {
            "bufferView" : 9,
            "componentType" : 5126,
            "count" : 228,
            "type" : "VEC3"
        },
        {
            "bufferView" : 10,
            "componentType" : 5126,
            "count" : 228,
            "type" : "VEC2"
        },
        {
            "bufferView" : 11,
            "componentType" : 5123,
            "count" : 408,
            "type" : "SCALAR"
        },
        {
            "bufferView" : 12,
            "componentType" : 5126,
            "count" : 332,
            "max" : [
                1.0025193691253662,
                1.4416307210922241,
                1.8086718320846558
            ],
            "min" : [
                -0.8772042989730835,
                0.48122668266296387,
                -2.6218714714050293
            ],
            "type" : "VEC3"
        },
        {
            "bufferView" : 13,
            "componentType" : 5126,
            "count" : 332,
            "type" : "VEC3"
        },
        {
            "bufferView" : 14,
            "componentType" : 5126,
            "count" : 332,
            "type" : "VEC2"
        },
        {
            "bufferView" : 15,
            "componentType" : 5123,
            "count" : 570,
            "type" : "SCALAR"
        },
        {
            "bufferView" : 16,
            "componentType" : 5126,
            "count" : 920,
            "max" : [
                1.1754975318908691,
                -0.6848316192626953,
                3.81266713142395
            ],
            "min" : [
                -1.1754975318908691,
                -3.0186681747436523,
                0.7088110446929932
            ],
            "type" : "VEC3"
        },
        {
            "bufferView" : 17,
            "componentType" : 5126,
            "count" : 920,
            "type" : "VEC3"
        },
        {
            "bufferView" : 18,
            "componentType" : 5126,
            "count" : 920,
            "type" : "VEC2"
        },
        {
            "bufferView" : 19,
            "componentType" : 5123,
            "count" : 1464,
            "type" : "SCALAR"
        }
    ],
    "bufferViews" : [
        {
            "buffer" : 0,
            "byteLength" : 2304,
            "byteOffset" : 0
        },
        {
            "buffer" : 0,
            "byteLength" : 2304,
            "byteOffset" : 2304
        },
        {
            "buffer" : 0,
            "byteLength" : 1536,
            "byteOffset" : 4608
        },
        {
            "buffer" : 0,
            "byteLength" : 720,
            "byteOffset" : 6144
        },
        {
            "buffer" : 0,
            "byteLength" : 9408,
            "byteOffset" : 6864
        },
        {
            "buffer" : 0,
            "byteLength" : 9408,
            "byteOffset" : 16272
        },
        {
            "buffer" : 0,
            "byteLength" : 6272,
            "byteOffset" : 25680
        },
        {
            "buffer" : 0,
            "byteLength" : 3036,
            "byteOffset" : 31952
        },
        {
            "buffer" : 0,
            "byteLength" : 2736,
            "byteOffset" : 34988
        },
        {
            "buffer" : 0,
            "byteLength" : 2736,
            "byteOffset" : 37724
        },
        {
            "buffer" : 0,
            "byteLength" : 1824,
            "byteOffset" : 40460
        },
        {
            "buffer" : 0,
            "byteLength" : 816,
            "byteOffset" : 42284
        },
        {
            "buffer" : 0,
            "byteLength" : 3984,
            "byteOffset" : 43100
        },
        {
            "buffer" : 0,
            "byteLength" : 3984,
            "byteOffset" : 47084
        },
        {
            "buffer" : 0,
            "byteLength" : 2656,
            "byteOffset" : 51068
        },
        {
            "buffer" : 0,
            "byteLength" : 1140,
            "byteOffset" : 53724
        },
        {
            "buffer" : 0,
            "byteLength" : 11040,
            "byteOffset" : 54864
        },
        {
            "buffer" : 0,
            "byteLength" : 11040,
            "byteOffset" : 65904
        },
        {
            "buffer" : 0,
            "byteLength" : 7360,
            "byteOffset" : 76944
        },
        {
            "buffer" : 0,
            "byteLength" : 2928,
            "byteOffset" : 84304
        }
    ],
    "buffers" : [
        {
            "byteLength" : 87232,
            "uri" : "data:application/octet-stream;base64,"
        }
    ]
}
