{
    "asset" : {
        "copyright" : "Jeremy Edelblut",
        "generator" : "Khronos glTF Blender I/O v1.7.33",
        "version" : "2.0"
    },
    "scene" : 1,
    "scenes" : [
        {
            "name" : "FBX_Temp",
            "nodes" : [
                0
            ]
        },
        {
            "name" : "Scene",
            "nodes" : [
                1,
                2,
                3,
                4,
                5
            ]
        }
    ],
    "nodes" : [
        {
            "mesh" : 0,
            "name" : "3moji.064",
            "rotation" : [
                0,
                -0.7071068286895752,
                0,
                0.7071068286895752
            ]
        },
        {
            "mesh" : 1,
            "name" : "Circle.1910",
            "rotation" : [
                0.653281569480896,
                -0.270597904920578,
                0.2705979347229004,
                0.6532815098762512
            ],
            "translation" : [
                -0.6368385553359985,
                0.5230221748352051,
                0.7835288643836975
            ]
        },
        {
            "mesh" : 2,
            "name" : "Cube.6238",
            "rotation" : [
                0,
                -0.3826834559440613,
                0,
                0.9238795042037964
            ],
            "translation" : [
                0.29180821776390076,
                0.04084567353129387,
                -0.14511771500110626
            ]
        },
        {
            "mesh" : 3,
            "name" : "Plane.132",
            "rotation" : [
                0,
                -0.3826834559440613,
                0,
                0.9238795042037964
            ],
            "translation" : [
                0.29180821776390076,
                0.04084567353129387,
                -0.14511771500110626
            ]
        },
        {
            "mesh" : 4,
            "name" : "Plane.133",
            "rotation" : [
                0,
                -0.3826834559440613,
                0,
                0.9238795042037964
            ],
            "translation" : [
                0.29180821776390076,
                0.04084567353129387,
                -0.14511771500110626
            ]
        },
        {
            "mesh" : 5,
            "name" : "3moji.org.223",
            "rotation" : [
                -0.27192431688308716,
                0.2692648470401764,
                -0.6564846634864807,
                0.6500626802444458
            ],
            "translation" : [
                0.33385226130485535,
                -0.4673924744129181,
                -0.18473577499389648
            ]
        }
    ],
    "materials" : [
        {
            "doubleSided" : true,
            "name" : "color",
            "pbrMetallicRoughness" : {
                "baseColorTexture" : {
                    "index" : 0
                },
                "metallicFactor" : 0,
                "roughnessFactor" : 0.5
            }
        }
    ],
    "meshes" : [
        {
            "name" : "Cube.417",
            "primitives" : [
                {
                    "attributes" : {
                        "POSITION" : 0,
                        "NORMAL" : 1,
                        "TEXCOORD_0" : 2
                    },
                    "indices" : 3,
                    "material" : 0
                }
            ]
        },
        {
            "name" : "Circle.2126",
            "primitives" : [
                {
                    "attributes" : {
                        "POSITION" : 4,
                        "NORMAL" : 5,
                        "TEXCOORD_0" : 6
                    },
                    "indices" : 7,
                    "material" : 0
                }
            ]
        },
        {
            "name" : "Cube.7296",
            "primitives" : [
                {
                    "attributes" : {
                        "POSITION" : 8,
                        "NORMAL" : 9,
                        "TEXCOORD_0" : 10
                    },
                    "indices" : 11,
                    "material" : 0
                }
            ]
        },
        {
            "name" : "Plane.132",
            "primitives" : [
                {
                    "attributes" : {
                        "POSITION" : 12,
                        "NORMAL" : 13,
                        "TEXCOORD_0" : 14
                    },
                    "indices" : 15,
                    "material" : 0
                }
            ]
        },
        {
            "name" : "Plane.133",
            "primitives" : [
                {
                    "attributes" : {
                        "POSITION" : 16,
                        "NORMAL" : 17,
                        "TEXCOORD_0" : 18
                    },
                    "indices" : 19,
                    "material" : 0
                }
            ]
        },
        {
            "name" : "Cube.684",
            "primitives" : [
                {
                    "attributes" : {
                        "POSITION" : 20,
                        "NORMAL" : 21,
                        "TEXCOORD_0" : 22
                    },
                    "indices" : 23,
                    "material" : 0
                }
            ]
        }
    ],
    "textures" : [
        {
            "sampler" : 0,
            "source" : 0
        }
    ],
    "images" : [
        {
            "bufferView" : 4,
            "mimeType" : "image/png",
            "name" : "tex"
        }
    ],
    "accessors" : [
        {
            "bufferView" : 0,
            "componentType" : 5126,
            "count" : 752,
            "max" : [
                -0.8264395594596863,
                0.05719918757677078,
                0.13795676827430725
            ],
            "min" : [
                -0.8543609976768494,
                -0.014034310355782509,
                -0.12436223030090332
            ],
            "type" : "VEC3"
        },
        {
            "bufferView" : 1,
            "componentType" : 5126,
            "count" : 752,
            "type" : "VEC3"
        },
        {
            "bufferView" : 2,
            "componentType" : 5126,
            "count" : 752,
            "type" : "VEC2"
        },
        {
            "bufferView" : 3,
            "componentType" : 5123,
            "count" : 1680,
            "type" : "SCALAR"
        },
        {
            "bufferView" : 5,
            "componentType" : 5126,
            "count" : 644,
            "max" : [
                0.2914310693740845,
                -0.15637274086475372,
                0.22100023925304413
            ],
            "min" : [
                -0.2914310693740845,
                -0.2415846288204193,
                0.12005008012056351
            ],
            "type" : "VEC3"
        },
        {
            "bufferView" : 6,
            "componentType" : 5126,
            "count" : 644,
            "type" : "VEC3"
        },
        {
            "bufferView" : 7,
            "componentType" : 5126,
            "count" : 644,
            "type" : "VEC2"
        },
        {
            "bufferView" : 8,
            "componentType" : 5123,
            "count" : 2880,
            "type" : "SCALAR"
        },
        {
            "bufferView" : 9,
            "componentType" : 5126,
            "count" : 176,
            "max" : [
                0.32415804266929626,
                0.1045682430267334,
                1.591131567955017
            ],
            "min" : [
                -0.32415804266929626,
                -0.3187888562679291,
                1.0209858417510986
            ],
            "type" : "VEC3"
        },
        {
            "bufferView" : 10,
            "componentType" : 5126,
            "count" : 176,
            "type" : "VEC3"
        },
        {
            "bufferView" : 11,
            "componentType" : 5126,
            "count" : 176,
            "type" : "VEC2"
        },
        {
            "bufferView" : 12,
            "componentType" : 5123,
            "count" : 456,
            "type" : "SCALAR"
        },
        {
            "bufferView" : 13,
            "componentType" : 5126,
            "count" : 594,
            "max" : [
                0.402062326669693,
                0.8683115839958191,
                1.4172354936599731
            ],
            "min" : [
                -0.402062326669693,
                -1.074537992477417,
                -1.0712051391601562
            ],
            "type" : "VEC3"
        },
        {
            "bufferView" : 14,
            "componentType" : 5126,
            "count" : 594,
            "type" : "VEC3"
        },
        {
            "bufferView" : 15,
            "componentType" : 5126,
            "count" : 594,
            "type" : "VEC2"
        },
        {
            "bufferView" : 16,
            "componentType" : 5123,
            "count" : 1884,
            "type" : "SCALAR"
        },
        {
            "bufferView" : 17,
            "componentType" : 5126,
            "count" : 204,
            "max" : [
                0.6735222935676575,
                0.8521360754966736,
                1.0635346174240112
            ],
            "min" : [
                -0.6735222935676575,
                -0.2803482711315155,
                0.3276424705982208
            ],
            "type" : "VEC3"
        },
        {
            "bufferView" : 18,
            "componentType" : 5126,
            "count" : 204,
            "type" : "VEC3"
        },
        {
            "bufferView" : 19,
            "componentType" : 5126,
            "count" : 204,
            "type" : "VEC2"
        },
        {
            "bufferView" : 20,
            "componentType" : 5123,
            "count" : 696,
            "type" : "SCALAR"
        },
        {
            "bufferView" : 21,
            "componentType" : 5126,
            "count" : 752,
            "max" : [
                0.0036303410306572914,
                0.0221407413482666,
                0.04831880331039429
            ],
            "min" : [
                8.042701438171207e-08,
                -0.005324984900653362,
                -0.053696826100349426
            ],
            "type" : "VEC3"
        },
        {
            "bufferView" : 22,
            "componentType" : 5126,
            "count" : 752,
            "type" : "VEC3"
        },
        {
            "bufferView" : 23,
            "componentType" : 5126,
            "count" : 752,
            "type" : "VEC2"
        },
        {
            "bufferView" : 24,
            "componentType" : 5123,
            "count" : 1680,
            "type" : "SCALAR"
        }
    ],
    "bufferViews" : [
        {
            "buffer" : 0,
            "byteLength" : 9024,
            "byteOffset" : 0
        },
        {
            "buffer" : 0,
            "byteLength" : 9024,
            "byteOffset" : 9024
        },
        {
            "buffer" : 0,
            "byteLength" : 6016,
            "byteOffset" : 18048
        },
        {
            "buffer" : 0,
            "byteLength" : 3360,
            "byteOffset" : 24064
        },
        {
            "buffer" : 0,
            "byteLength" : 11997,
            "byteOffset" : 27424
        },
        {
            "buffer" : 0,
            "byteLength" : 7728,
            "byteOffset" : 39424
        },
        {
            "buffer" : 0,
            "byteLength" : 7728,
            "byteOffset" : 47152
        },
        {
            "buffer" : 0,
            "byteLength" : 5152,
            "byteOffset" : 54880
        },
        {
            "buffer" : 0,
            "byteLength" : 5760,
            "byteOffset" : 60032
        },
        {
            "buffer" : 0,
            "byteLength" : 2112,
            "byteOffset" : 65792
        },
        {
            "buffer" : 0,
            "byteLength" : 2112,
            "byteOffset" : 67904
        },
        {
            "buffer" : 0,
            "byteLength" : 1408,
            "byteOffset" : 70016
        },
        {
            "buffer" : 0,
            "byteLength" : 912,
            "byteOffset" : 71424
        },
        {
            "buffer" : 0,
            "byteLength" : 7128,
            "byteOffset" : 72336
        },
        {
            "buffer" : 0,
            "byteLength" : 7128,
            "byteOffset" : 79464
        },
        {
            "buffer" : 0,
            "byteLength" : 4752,
            "byteOffset" : 86592
        },
        {
            "buffer" : 0,
            "byteLength" : 3768,
            "byteOffset" : 91344
        },
        {
            "buffer" : 0,
            "byteLength" : 2448,
            "byteOffset" : 95112
        },
        {
            "buffer" : 0,
            "byteLength" : 2448,
            "byteOffset" : 97560
        },
        {
            "buffer" : 0,
            "byteLength" : 1632,
            "byteOffset" : 100008
        },
        {
            "buffer" : 0,
            "byteLength" : 1392,
            "byteOffset" : 101640
        },
        {
            "buffer" : 0,
            "byteLength" : 9024,
            "byteOffset" : 103032
        },
        {
            "buffer" : 0,
            "byteLength" : 9024,
            "byteOffset" : 112056
        },
        {
            "buffer" : 0,
            "byteLength" : 6016,
            "byteOffset" : 121080
        },
        {
            "buffer" : 0,
            "byteLength" : 3360,
            "byteOffset" : 127096
        }
    ],
    "samplers" : [
        {
            "magFilter" : 9729,
            "minFilter" : 9987
        }
    ],
    "buffers" : [
        {
            "byteLength" : 130456,
            "uri" : "data:application/octet-stream;base64,"
        }
    ]
}
