{
    "asset" : {
        "copyright" : "Jeremy Edelblut",
        "generator" : "Khronos glTF Blender I/O v1.7.33",
        "version" : "2.0"
    },
    "scene" : 1,
    "scenes" : [
        {
            "name" : "FBX_Temp",
            "nodes" : [
                0
            ]
        },
        {
            "name" : "Scene",
            "nodes" : [
                1,
                2,
                3,
                4,
                5,
                6,
                7,
                8
            ]
        }
    ],
    "nodes" : [
        {
            "mesh" : 0,
            "name" : "3moji.064",
            "rotation" : [
                0,
                -0.7071068286895752,
                0,
                0.7071068286895752
            ]
        },
        {
            "mesh" : 1,
            "name" : "Circle.1059",
            "rotation" : [
                0.7071068286895752,
                0,
                0,
                0.7071068286895752
            ],
            "scale" : [
                2.706974744796753,
                2.706974744796753,
                2.706974744796753
            ]
        },
        {
            "mesh" : 2,
            "name" : "Circle.1060",
            "rotation" : [
                0.7071068286895752,
                0,
                0,
                0.7071068286895752
            ],
            "scale" : [
                2.706974744796753,
                2.706974744796753,
                2.706974744796753
            ]
        },
        {
            "mesh" : 3,
            "name" : "Cylinder.191",
            "rotation" : [
                0,
                -0.7071068286895752,
                0,
                0.7071068286895752
            ],
            "scale" : [
                0.7010374069213867,
                0.7010374069213867,
                0.7010374069213867
            ]
        },
        {
            "mesh" : 4,
            "name" : "Roundcube.225",
            "rotation" : [
                0,
                -0.7071068286895752,
                0,
                0.7071068286895752
            ],
            "scale" : [
                0.7010374069213867,
                0.7010374069213867,
                0.7010374069213867
            ]
        },
        {
            "mesh" : 5,
            "name" : "Circle.1061",
            "rotation" : [
                0.7071068286895752,
                0,
                0,
                0.7071068286895752
            ]
        },
        {
            "mesh" : 6,
            "name" : "Sphere.178",
            "rotation" : [
                0,
                -0.7071068286895752,
                0,
                0.7071068286895752
            ],
            "scale" : [
                0.5,
                0.5,
                0.5
            ]
        },
        {
            "mesh" : 7,
            "name" : "Roundcube.226",
            "rotation" : [
                0,
                -0.7071068286895752,
                0,
                0.7071068286895752
            ],
            "scale" : [
                0.7162042856216431,
                0.6782614588737488,
                0.7162042856216431
            ]
        },
        {
            "mesh" : 8,
            "name" : "Circle.1062",
            "rotation" : [
                -0.08203231543302536,
                -0.7023323178291321,
                0.08203231543302536,
                0.7023323178291321
            ],
            "scale" : [
                0.8456419706344604,
                0.8456419706344604,
                0.8456419110298157
            ]
        }
    ],
    "materials" : [
        {
            "doubleSided" : true,
            "name" : "color",
            "pbrMetallicRoughness" : {
                "baseColorTexture" : {
                    "index" : 0
                },
                "metallicFactor" : 0,
                "roughnessFactor" : 0.5
            }
        },
        {
            "doubleSided" : true,
            "name" : "skin_tone_one",
            "pbrMetallicRoughness" : {
                "baseColorTexture" : {
                    "index" : 1
                },
                "metallicFactor" : 0,
                "roughnessFactor" : 0.5
            }
        }
    ],
    "meshes" : [
        {
            "name" : "Cube.417",
            "primitives" : [
                {
                    "attributes" : {
                        "POSITION" : 0,
                        "NORMAL" : 1,
                        "TEXCOORD_0" : 2
                    },
                    "indices" : 3,
                    "material" : 0
                }
            ]
        },
        {
            "name" : "Circle.1045",
            "primitives" : [
                {
                    "attributes" : {
                        "POSITION" : 4,
                        "NORMAL" : 5,
                        "TEXCOORD_0" : 6
                    },
                    "indices" : 7,
                    "material" : 0
                }
            ]
        },
        {
            "name" : "Circle.1046",
            "primitives" : [
                {
                    "attributes" : {
                        "POSITION" : 8,
                        "NORMAL" : 9,
                        "TEXCOORD_0" : 10
                    },
                    "indices" : 11,
                    "material" : 1
                }
            ]
        },
        {
            "name" : "Cylinder.162",
            "primitives" : [
                {
                    "attributes" : {
                        "POSITION" : 12,
                        "NORMAL" : 13,
                        "TEXCOORD_0" : 14
                    },
                    "indices" : 15,
                    "material" : 1
                }
            ]
        },
        {
            "name" : "Roundcube.200",
            "primitives" : [
                {
                    "attributes" : {
                        "POSITION" : 16,
                        "NORMAL" : 17,
                        "TEXCOORD_0" : 18
                    },
                    "indices" : 19,
                    "material" : 0
                },
                {
                    "attributes" : {
                        "POSITION" : 20,
                        "NORMAL" : 21,
                        "TEXCOORD_0" : 22
                    },
                    "indices" : 23,
                    "material" : 1
                }
            ]
        },
        {
            "name" : "Circle.1047",
            "primitives" : [
                {
                    "attributes" : {
                        "POSITION" : 24,
                        "NORMAL" : 25,
                        "TEXCOORD_0" : 26
                    },
                    "indices" : 27,
                    "material" : 0
                }
            ]
        },
        {
            "name" : "Sphere.158",
            "primitives" : [
                {
                    "attributes" : {
                        "POSITION" : 28,
                        "NORMAL" : 29,
                        "TEXCOORD_0" : 30
                    },
                    "indices" : 31,
                    "material" : 0
                }
            ]
        },
        {
            "name" : "Roundcube.226",
            "primitives" : [
                {
                    "attributes" : {
                        "POSITION" : 32,
                        "NORMAL" : 33,
                        "TEXCOORD_0" : 34
                    },
                    "indices" : 35,
                    "material" : 0
                }
            ]
        },
        {
            "name" : "Circle.1153",
            "primitives" : [
                {
                    "attributes" : {
                        "POSITION" : 36,
                        "NORMAL" : 37,
                        "TEXCOORD_0" : 38
                    },
                    "indices" : 39,
                    "material" : 0
                }
            ]
        }
    ],
    "textures" : [
        {
            "sampler" : 0,
            "source" : 0
        },
        {
            "sampler" : 0,
            "source" : 0
        }
    ],
    "images" : [
        {
            "bufferView" : 4,
            "mimeType" : "image/png",
            "name" : "tex"
        }
    ],
    "accessors" : [
        {
            "bufferView" : 0,
            "componentType" : 5126,
            "count" : 752,
            "max" : [
                -0.8264395594596863,
                0.05719918757677078,
                0.13795676827430725
            ],
            "min" : [
                -0.8543609976768494,
                -0.014034310355782509,
                -0.12436223030090332
            ],
            "type" : "VEC3"
        },
        {
            "bufferView" : 1,
            "componentType" : 5126,
            "count" : 752,
            "type" : "VEC3"
        },
        {
            "bufferView" : 2,
            "componentType" : 5126,
            "count" : 752,
            "type" : "VEC2"
        },
        {
            "bufferView" : 3,
            "componentType" : 5123,
            "count" : 1680,
            "type" : "SCALAR"
        },
        {
            "bufferView" : 5,
            "componentType" : 5126,
            "count" : 1448,
            "max" : [
                0.13123200833797455,
                0.21667300164699554,
                -0.026242921128869057
            ],
            "min" : [
                -0.13123200833797455,
                0.17979565262794495,
                -0.11764391511678696
            ],
            "type" : "VEC3"
        },
        {
            "bufferView" : 6,
            "componentType" : 5126,
            "count" : 1448,
            "type" : "VEC3"
        },
        {
            "bufferView" : 7,
            "componentType" : 5126,
            "count" : 1448,
            "type" : "VEC2"
        },
        {
            "bufferView" : 8,
            "componentType" : 5123,
            "count" : 6912,
            "type" : "SCALAR"
        },
        {
            "bufferView" : 9,
            "componentType" : 5126,
            "count" : 142,
            "max" : [
                0.025681521743535995,
                0.22220318019390106,
                0.007366259582340717
            ],
            "min" : [
                -0.02493892051279545,
                0.2089833915233612,
                -0.022072527557611465
            ],
            "type" : "VEC3"
        },
        {
            "bufferView" : 10,
            "componentType" : 5126,
            "count" : 142,
            "type" : "VEC3"
        },
        {
            "bufferView" : 11,
            "componentType" : 5126,
            "count" : 142,
            "type" : "VEC2"
        },
        {
            "bufferView" : 12,
            "componentType" : 5123,
            "count" : 528,
            "type" : "SCALAR"
        },
        {
            "bufferView" : 13,
            "componentType" : 5126,
            "count" : 1138,
            "max" : [
                -0.15159989893436432,
                0.6865950226783752,
                1.3168379068374634
            ],
            "min" : [
                -0.527228593826294,
                -0.08596953004598618,
                -1.3168379068374634
            ],
            "type" : "VEC3"
        },
        {
            "bufferView" : 14,
            "componentType" : 5126,
            "count" : 1138,
            "type" : "VEC3"
        },
        {
            "bufferView" : 15,
            "componentType" : 5126,
            "count" : 1138,
            "type" : "VEC2"
        },
        {
            "bufferView" : 16,
            "componentType" : 5123,
            "count" : 4992,
            "type" : "SCALAR"
        },
        {
            "bufferView" : 17,
            "componentType" : 5126,
            "count" : 1218,
            "max" : [
                0.7026739120483398,
                1.2452303171157837,
                1.0155786275863647
            ],
            "min" : [
                -1.3394240140914917,
                -1.9980814456939697,
                -1.0155786275863647
            ],
            "type" : "VEC3"
        },
        {
            "bufferView" : 18,
            "componentType" : 5126,
            "count" : 1218,
            "type" : "VEC3"
        },
        {
            "bufferView" : 19,
            "componentType" : 5126,
            "count" : 1218,
            "type" : "VEC2"
        },
        {
            "bufferView" : 20,
            "componentType" : 5123,
            "count" : 4152,
            "type" : "SCALAR"
        },
        {
            "bufferView" : 21,
            "componentType" : 5126,
            "count" : 792,
            "max" : [
                0.8239538669586182,
                1.128677487373352,
                1.022315263748169
            ],
            "min" : [
                -1.2057507038116455,
                -1.151817798614502,
                -1.022315263748169
            ],
            "type" : "VEC3"
        },
        {
            "bufferView" : 22,
            "componentType" : 5126,
            "count" : 792,
            "type" : "VEC3"
        },
        {
            "bufferView" : 23,
            "componentType" : 5126,
            "count" : 792,
            "type" : "VEC2"
        },
        {
            "bufferView" : 24,
            "componentType" : 5123,
            "count" : 3828,
            "type" : "SCALAR"
        },
        {
            "bufferView" : 25,
            "componentType" : 5126,
            "count" : 364,
            "max" : [
                0.41686490178108215,
                0.5363622903823853,
                -0.31168559193611145
            ],
            "min" : [
                -0.41686490178108215,
                0.4130605459213257,
                -0.46141988039016724
            ],
            "type" : "VEC3"
        },
        {
            "bufferView" : 26,
            "componentType" : 5126,
            "count" : 364,
            "type" : "VEC3"
        },
        {
            "bufferView" : 27,
            "componentType" : 5126,
            "count" : 364,
            "type" : "VEC2"
        },
        {
            "bufferView" : 28,
            "componentType" : 5123,
            "count" : 1152,
            "type" : "SCALAR"
        },
        {
            "bufferView" : 29,
            "componentType" : 5126,
            "count" : 589,
            "max" : [
                0.10192406177520752,
                -1.1795148849487305,
                1.5000004768371582
            ],
            "min" : [
                -1.8980764150619507,
                -2.7983813285827637,
                -1.5000004768371582
            ],
            "type" : "VEC3"
        },
        {
            "bufferView" : 30,
            "componentType" : 5126,
            "count" : 589,
            "type" : "VEC3"
        },
        {
            "bufferView" : 31,
            "componentType" : 5126,
            "count" : 589,
            "type" : "VEC2"
        },
        {
            "bufferView" : 32,
            "componentType" : 5123,
            "count" : 2754,
            "type" : "SCALAR"
        },
        {
            "bufferView" : 33,
            "componentType" : 5126,
            "count" : 1454,
            "max" : [
                0.8751912713050842,
                1.476298213005066,
                1.2192280292510986
            ],
            "min" : [
                -1.4843029975891113,
                -1.8537213802337646,
                -1.2060954570770264
            ],
            "type" : "VEC3"
        },
        {
            "bufferView" : 34,
            "componentType" : 5126,
            "count" : 1454,
            "type" : "VEC3"
        },
        {
            "bufferView" : 35,
            "componentType" : 5126,
            "count" : 1454,
            "type" : "VEC2"
        },
        {
            "bufferView" : 36,
            "componentType" : 5123,
            "count" : 7836,
            "type" : "SCALAR"
        },
        {
            "bufferView" : 37,
            "componentType" : 5126,
            "count" : 268,
            "max" : [
                0.8848408460617065,
                0.7120254039764404,
                1.0000001192092896
            ],
            "min" : [
                -1.1151591539382935,
                0.41487425565719604,
                -0.9999999403953552
            ],
            "type" : "VEC3"
        },
        {
            "bufferView" : 38,
            "componentType" : 5126,
            "count" : 268,
            "type" : "VEC3"
        },
        {
            "bufferView" : 39,
            "componentType" : 5126,
            "count" : 268,
            "type" : "VEC2"
        },
        {
            "bufferView" : 40,
            "componentType" : 5123,
            "count" : 768,
            "type" : "SCALAR"
        }
    ],
    "bufferViews" : [
        {
            "buffer" : 0,
            "byteLength" : 9024,
            "byteOffset" : 0
        },
        {
            "buffer" : 0,
            "byteLength" : 9024,
            "byteOffset" : 9024
        },
        {
            "buffer" : 0,
            "byteLength" : 6016,
            "byteOffset" : 18048
        },
        {
            "buffer" : 0,
            "byteLength" : 3360,
            "byteOffset" : 24064
        },
        {
            "buffer" : 0,
            "byteLength" : 11997,
            "byteOffset" : 27424
        },
        {
            "buffer" : 0,
            "byteLength" : 17376,
            "byteOffset" : 39424
        },
        {
            "buffer" : 0,
            "byteLength" : 17376,
            "byteOffset" : 56800
        },
        {
            "buffer" : 0,
            "byteLength" : 11584,
            "byteOffset" : 74176
        },
        {
            "buffer" : 0,
            "byteLength" : 13824,
            "byteOffset" : 85760
        },
        {
            "buffer" : 0,
            "byteLength" : 1704,
            "byteOffset" : 99584
        },
        {
            "buffer" : 0,
            "byteLength" : 1704,
            "byteOffset" : 101288
        },
        {
            "buffer" : 0,
            "byteLength" : 1136,
            "byteOffset" : 102992
        },
        {
            "buffer" : 0,
            "byteLength" : 1056,
            "byteOffset" : 104128
        },
        {
            "buffer" : 0,
            "byteLength" : 13656,
            "byteOffset" : 105184
        },
        {
            "buffer" : 0,
            "byteLength" : 13656,
            "byteOffset" : 118840
        },
        {
            "buffer" : 0,
            "byteLength" : 9104,
            "byteOffset" : 132496
        },
        {
            "buffer" : 0,
            "byteLength" : 9984,
            "byteOffset" : 141600
        },
        {
            "buffer" : 0,
            "byteLength" : 14616,
            "byteOffset" : 151584
        },
        {
            "buffer" : 0,
            "byteLength" : 14616,
            "byteOffset" : 166200
        },
        {
            "buffer" : 0,
            "byteLength" : 9744,
            "byteOffset" : 180816
        },
        {
            "buffer" : 0,
            "byteLength" : 8304,
            "byteOffset" : 190560
        },
        {
            "buffer" : 0,
            "byteLength" : 9504,
            "byteOffset" : 198864
        },
        {
            "buffer" : 0,
            "byteLength" : 9504,
            "byteOffset" : 208368
        },
        {
            "buffer" : 0,
            "byteLength" : 6336,
            "byteOffset" : 217872
        },
        {
            "buffer" : 0,
            "byteLength" : 7656,
            "byteOffset" : 224208
        },
        {
            "buffer" : 0,
            "byteLength" : 4368,
            "byteOffset" : 231864
        },
        {
            "buffer" : 0,
            "byteLength" : 4368,
            "byteOffset" : 236232
        },
        {
            "buffer" : 0,
            "byteLength" : 2912,
            "byteOffset" : 240600
        },
        {
            "buffer" : 0,
            "byteLength" : 2304,
            "byteOffset" : 243512
        },
        {
            "buffer" : 0,
            "byteLength" : 7068,
            "byteOffset" : 245816
        },
        {
            "buffer" : 0,
            "byteLength" : 7068,
            "byteOffset" : 252884
        },
        {
            "buffer" : 0,
            "byteLength" : 4712,
            "byteOffset" : 259952
        },
        {
            "buffer" : 0,
            "byteLength" : 5508,
            "byteOffset" : 264664
        },
        {
            "buffer" : 0,
            "byteLength" : 17448,
            "byteOffset" : 270172
        },
        {
            "buffer" : 0,
            "byteLength" : 17448,
            "byteOffset" : 287620
        },
        {
            "buffer" : 0,
            "byteLength" : 11632,
            "byteOffset" : 305068
        },
        {
            "buffer" : 0,
            "byteLength" : 15672,
            "byteOffset" : 316700
        },
        {
            "buffer" : 0,
            "byteLength" : 3216,
            "byteOffset" : 332372
        },
        {
            "buffer" : 0,
            "byteLength" : 3216,
            "byteOffset" : 335588
        },
        {
            "buffer" : 0,
            "byteLength" : 2144,
            "byteOffset" : 338804
        },
        {
            "buffer" : 0,
            "byteLength" : 1536,
            "byteOffset" : 340948
        }
    ],
    "samplers" : [
        {
            "magFilter" : 9729,
            "minFilter" : 9987
        }
    ],
    "buffers" : [
        {
            "byteLength" : 342484,
            "uri" : "data:application/octet-stream;base64,"
        }
    ]
}
