{
    "asset" : {
        "copyright" : "Jeremy Edelblut",
        "generator" : "Khronos glTF Blender I/O v1.6.16",
        "version" : "2.0"
    },
    "scene" : 0,
    "scenes" : [
        {
            "name" : "Scene",
            "nodes" : [
                0
            ]
        }
    ],
    "nodes" : [
        {
            "mesh" : 0,
            "name" : "Circle.2066",
            "scale" : [
                0.7056031227111816,
                0.7056031227111816,
                0.7056031227111816
            ],
            "translation" : [
                0,
                -0.6289675831794739,
                0
            ]
        }
    ],
    "materials" : [
        {
            "doubleSided" : true,
            "name" : "Color",
            "pbrMetallicRoughness" : {
                "baseColorTexture" : {
                    "index" : 0
                },
                "metallicFactor" : 0,
                "roughnessFactor" : 0.5
            }
        }
    ],
    "meshes" : [
        {
            "name" : "Circle.2415",
            "primitives" : [
                {
                    "attributes" : {
                        "POSITION" : 0,
                        "NORMAL" : 1,
                        "TEXCOORD_0" : 2
                    },
                    "indices" : 3,
                    "material" : 0
                }
            ]
        }
    ],
    "textures" : [
        {
            "sampler" : 0,
            "source" : 0
        }
    ],
    "images" : [
        {
            "bufferView" : 4,
            "mimeType" : "image/png",
            "name" : "tex"
        }
    ],
    "accessors" : [
        {
            "bufferView" : 0,
            "componentType" : 5126,
            "count" : 1313,
            "max" : [
                0.8855509161949158,
                2.2140705585479736,
                0.8855509161949158
            ],
            "min" : [
                -0.8855509161949158,
                -0.3160451650619507,
                -0.8955321311950684
            ],
            "type" : "VEC3"
        },
        {
            "bufferView" : 1,
            "componentType" : 5126,
            "count" : 1313,
            "type" : "VEC3"
        },
        {
            "bufferView" : 2,
            "componentType" : 5126,
            "count" : 1313,
            "type" : "VEC2"
        },
        {
            "bufferView" : 3,
            "componentType" : 5123,
            "count" : 5628,
            "type" : "SCALAR"
        }
    ],
    "bufferViews" : [
        {
            "buffer" : 0,
            "byteLength" : 15756,
            "byteOffset" : 0
        },
        {
            "buffer" : 0,
            "byteLength" : 15756,
            "byteOffset" : 15756
        },
        {
            "buffer" : 0,
            "byteLength" : 10504,
            "byteOffset" : 31512
        },
        {
            "buffer" : 0,
            "byteLength" : 11256,
            "byteOffset" : 42016
        },
        {
            "buffer" : 0,
            "byteLength" : 1322,
            "byteOffset" : 53272
        }
    ],
    "samplers" : [
        {
            "magFilter" : 9729,
            "minFilter" : 9987
        }
    ],
    "buffers" : [
        {
            "byteLength" : 54596,
            "uri" : "data:application/octet-stream;base64,"
        }
    ]
}
