{
    "asset" : {
        "copyright" : "Jeremy Edelblut",
        "generator" : "Khronos glTF Blender I/O v1.6.16",
        "version" : "2.0"
    },
    "scene" : 0,
    "scenes" : [
        {
            "name" : "Scene",
            "nodes" : [
                0
            ]
        }
    ],
    "nodes" : [
        {
            "mesh" : 0,
            "name" : "Ball.030",
            "rotation" : [
                0,
                -0.7071068286895752,
                0,
                0.7071068286895752
            ]
        }
    ],
    "materials" : [
        {
            "doubleSided" : true,
            "name" : "Yellow_body",
            "pbrMetallicRoughness" : {
                "baseColorTexture" : {
                    "index" : 0
                },
                "metallicFactor" : 0,
                "roughnessFactor" : 0.5
            }
        },
        {
            "doubleSided" : true,
            "name" : "Color",
            "pbrMetallicRoughness" : {
                "baseColorTexture" : {
                    "index" : 1
                },
                "metallicFactor" : 0,
                "roughnessFactor" : 0.5
            }
        },
        {
            "alphaMode" : "BLEND",
            "doubleSided" : true,
            "name" : "Cheeks",
            "pbrMetallicRoughness" : {
                "baseColorTexture" : {
                    "index" : 2
                },
                "metallicFactor" : 0,
                "roughnessFactor" : 0.5
            }
        }
    ],
    "meshes" : [
        {
            "name" : "Cube.063",
            "primitives" : [
                {
                    "attributes" : {
                        "POSITION" : 0,
                        "NORMAL" : 1,
                        "TEXCOORD_0" : 2
                    },
                    "indices" : 3,
                    "material" : 0
                },
                {
                    "attributes" : {
                        "POSITION" : 4,
                        "NORMAL" : 5,
                        "TEXCOORD_0" : 6
                    },
                    "indices" : 7,
                    "material" : 1
                },
                {
                    "attributes" : {
                        "POSITION" : 8,
                        "NORMAL" : 9,
                        "TEXCOORD_0" : 10
                    },
                    "indices" : 11,
                    "material" : 2
                }
            ]
        }
    ],
    "textures" : [
        {
            "sampler" : 0,
            "source" : 0
        },
        {
            "sampler" : 0,
            "source" : 1
        },
        {
            "sampler" : 0,
            "source" : 2
        }
    ],
    "images" : [
        {
            "bufferView" : 4,
            "mimeType" : "image/png",
            "name" : "Rectangle 863"
        },
        {
            "bufferView" : 9,
            "mimeType" : "image/png",
            "name" : "tex2"
        },
        {
            "bufferView" : 14,
            "mimeType" : "image/png",
            "name" : "cheeks"
        }
    ],
    "accessors" : [
        {
            "bufferView" : 0,
            "componentType" : 5126,
            "count" : 3237,
            "max" : [
                1.0677677392959595,
                0.8446488380432129,
                0.8446488380432129
            ],
            "min" : [
                -0.8446488380432129,
                -0.8446488380432129,
                -0.8446488380432129
            ],
            "type" : "VEC3"
        },
        {
            "bufferView" : 1,
            "componentType" : 5126,
            "count" : 3237,
            "type" : "VEC3"
        },
        {
            "bufferView" : 2,
            "componentType" : 5126,
            "count" : 3237,
            "type" : "VEC2"
        },
        {
            "bufferView" : 3,
            "componentType" : 5123,
            "count" : 17508,
            "type" : "SCALAR"
        },
        {
            "bufferView" : 5,
            "componentType" : 5126,
            "count" : 1575,
            "max" : [
                0.8342358469963074,
                0.3850186765193939,
                0.5363540053367615
            ],
            "min" : [
                -0.8543609976768494,
                -0.38927656412124634,
                -0.5389329791069031
            ],
            "type" : "VEC3"
        },
        {
            "bufferView" : 6,
            "componentType" : 5126,
            "count" : 1575,
            "type" : "VEC3"
        },
        {
            "bufferView" : 7,
            "componentType" : 5126,
            "count" : 1575,
            "type" : "VEC2"
        },
        {
            "bufferView" : 8,
            "componentType" : 5123,
            "count" : 4968,
            "type" : "SCALAR"
        },
        {
            "bufferView" : 10,
            "componentType" : 5126,
            "count" : 2136,
            "max" : [
                0.7677884101867676,
                0.3023776113986969,
                0.7929697036743164
            ],
            "min" : [
                0.29429876804351807,
                -0.343687504529953,
                -0.795548677444458
            ],
            "type" : "VEC3"
        },
        {
            "bufferView" : 11,
            "componentType" : 5126,
            "count" : 2136,
            "type" : "VEC3"
        },
        {
            "bufferView" : 12,
            "componentType" : 5126,
            "count" : 2136,
            "type" : "VEC2"
        },
        {
            "bufferView" : 13,
            "componentType" : 5123,
            "count" : 10368,
            "type" : "SCALAR"
        }
    ],
    "bufferViews" : [
        {
            "buffer" : 0,
            "byteLength" : 38844,
            "byteOffset" : 0
        },
        {
            "buffer" : 0,
            "byteLength" : 38844,
            "byteOffset" : 38844
        },
        {
            "buffer" : 0,
            "byteLength" : 25896,
            "byteOffset" : 77688
        },
        {
            "buffer" : 0,
            "byteLength" : 35016,
            "byteOffset" : 103584
        },
        {
            "buffer" : 0,
            "byteLength" : 85292,
            "byteOffset" : 138600
        },
        {
            "buffer" : 0,
            "byteLength" : 18900,
            "byteOffset" : 223892
        },
        {
            "buffer" : 0,
            "byteLength" : 18900,
            "byteOffset" : 242792
        },
        {
            "buffer" : 0,
            "byteLength" : 12600,
            "byteOffset" : 261692
        },
        {
            "buffer" : 0,
            "byteLength" : 9936,
            "byteOffset" : 274292
        },
        {
            "buffer" : 0,
            "byteLength" : 6474,
            "byteOffset" : 284228
        },
        {
            "buffer" : 0,
            "byteLength" : 25632,
            "byteOffset" : 290704
        },
        {
            "buffer" : 0,
            "byteLength" : 25632,
            "byteOffset" : 316336
        },
        {
            "buffer" : 0,
            "byteLength" : 17088,
            "byteOffset" : 341968
        },
        {
            "buffer" : 0,
            "byteLength" : 20736,
            "byteOffset" : 359056
        },
        {
            "buffer" : 0,
            "byteLength" : 112399,
            "byteOffset" : 379792
        }
    ],
    "samplers" : [
        {
            "magFilter" : 9729,
            "minFilter" : 9987
        }
    ],
    "buffers" : [
        {
            "byteLength" : 492192,
            "uri" : "data:application/octet-stream;base64,"
        }
    ]
}
