{
    "asset" : {
        "copyright" : "Jeremy Edelblut",
        "generator" : "Khronos glTF Blender I/O v1.6.16",
        "version" : "2.0"
    },
    "scene" : 0,
    "scenes" : [
        {
            "name" : "Scene",
            "nodes" : [
                0
            ]
        }
    ],
    "nodes" : [
        {
            "mesh" : 0,
            "name" : "Face with Thermometer",
            "rotation" : [
                0,
                -0.7071068286895752,
                0,
                0.7071068286895752
            ],
            "translation" : [
                0,
                -1.4077871128392871e-05,
                0
            ]
        }
    ],
    "materials" : [
        {
            "doubleSided" : true,
            "name" : "Color",
            "pbrMetallicRoughness" : {
                "baseColorTexture" : {
                    "index" : 0
                },
                "metallicFactor" : 0,
                "roughnessFactor" : 0.5
            }
        },
        {
            "alphaMode" : "BLEND",
            "doubleSided" : true,
            "name" : "Cheeks",
            "pbrMetallicRoughness" : {
                "baseColorTexture" : {
                    "index" : 1
                },
                "metallicFactor" : 0,
                "roughnessFactor" : 0.5
            }
        }
    ],
    "meshes" : [
        {
            "name" : "Cube.049",
            "primitives" : [
                {
                    "attributes" : {
                        "POSITION" : 0,
                        "NORMAL" : 1,
                        "TEXCOORD_0" : 2
                    },
                    "indices" : 3,
                    "material" : 0
                },
                {
                    "attributes" : {
                        "POSITION" : 4,
                        "NORMAL" : 5,
                        "TEXCOORD_0" : 6
                    },
                    "indices" : 7,
                    "material" : 1
                }
            ]
        }
    ],
    "textures" : [
        {
            "sampler" : 0,
            "source" : 0
        },
        {
            "sampler" : 0,
            "source" : 1
        }
    ],
    "images" : [
        {
            "bufferView" : 4,
            "mimeType" : "image/png",
            "name" : "tex2"
        },
        {
            "bufferView" : 9,
            "mimeType" : "image/png",
            "name" : "cheeks"
        }
    ],
    "accessors" : [
        {
            "bufferView" : 0,
            "componentType" : 5126,
            "count" : 4442,
            "max" : [
                1.0704280138015747,
                0.8446488380432129,
                0.8446488380432129
            ],
            "min" : [
                -0.8543609976768494,
                -0.8446488380432129,
                -0.8446488380432129
            ],
            "type" : "VEC3"
        },
        {
            "bufferView" : 1,
            "componentType" : 5126,
            "count" : 4442,
            "type" : "VEC3"
        },
        {
            "bufferView" : 2,
            "componentType" : 5126,
            "count" : 4442,
            "type" : "VEC2"
        },
        {
            "bufferView" : 3,
            "componentType" : 5123,
            "count" : 19992,
            "type" : "SCALAR"
        },
        {
            "bufferView" : 5,
            "componentType" : 5126,
            "count" : 450,
            "max" : [
                0.7691224217414856,
                0.3029126524925232,
                0.7964296340942383
            ],
            "min" : [
                0.29410621523857117,
                -0.3444702923297882,
                -0.7964296340942383
            ],
            "type" : "VEC3"
        },
        {
            "bufferView" : 6,
            "componentType" : 5126,
            "count" : 450,
            "type" : "VEC3"
        },
        {
            "bufferView" : 7,
            "componentType" : 5126,
            "count" : 450,
            "type" : "VEC2"
        },
        {
            "bufferView" : 8,
            "componentType" : 5123,
            "count" : 2496,
            "type" : "SCALAR"
        }
    ],
    "bufferViews" : [
        {
            "buffer" : 0,
            "byteLength" : 53304,
            "byteOffset" : 0
        },
        {
            "buffer" : 0,
            "byteLength" : 53304,
            "byteOffset" : 53304
        },
        {
            "buffer" : 0,
            "byteLength" : 35536,
            "byteOffset" : 106608
        },
        {
            "buffer" : 0,
            "byteLength" : 39984,
            "byteOffset" : 142144
        },
        {
            "buffer" : 0,
            "byteLength" : 6474,
            "byteOffset" : 182128
        },
        {
            "buffer" : 0,
            "byteLength" : 5400,
            "byteOffset" : 188604
        },
        {
            "buffer" : 0,
            "byteLength" : 5400,
            "byteOffset" : 194004
        },
        {
            "buffer" : 0,
            "byteLength" : 3600,
            "byteOffset" : 199404
        },
        {
            "buffer" : 0,
            "byteLength" : 4992,
            "byteOffset" : 203004
        },
        {
            "buffer" : 0,
            "byteLength" : 112399,
            "byteOffset" : 207996
        }
    ],
    "samplers" : [
        {
            "magFilter" : 9729,
            "minFilter" : 9987
        }
    ],
    "buffers" : [
        {
            "byteLength" : 320396,
            "uri" : "data:application/octet-stream;base64,"
        }
    ]
}
