{
    "asset" : {
        "copyright" : "Jeremy Edelblut",
        "generator" : "Khronos glTF Blender I/O v1.6.16",
        "version" : "2.0"
    },
    "scene" : 0,
    "scenes" : [
        {
            "name" : "Scene",
            "nodes" : [
                0,
                1,
                2
            ]
        }
    ],
    "nodes" : [
        {
            "mesh" : 0,
            "name" : "Circle.2093",
            "rotation" : [
                0.12910360097885132,
                0.37704867124557495,
                -0.7421159744262695,
                0.5389159917831421
            ],
            "scale" : [
                0.38710206747055054,
                0.3871020972728729,
                0.3871019780635834
            ],
            "translation" : [
                0,
                -0.13317853212356567,
                0.013589603826403618
            ]
        },
        {
            "mesh" : 1,
            "name" : "Circle.2094",
            "rotation" : [
                0.048026442527770996,
                -0.035556819289922714,
                -0.4164729714393616,
                0.9071821570396423
            ],
            "scale" : [
                0.27047568559646606,
                0.27047571539878845,
                0.27047568559646606
            ],
            "translation" : [
                0,
                0.5435857176780701,
                0.16307535767555237
            ]
        },
        {
            "mesh" : 2,
            "name" : "Circle.2095",
            "rotation" : [
                0.6682944297790527,
                -0.5146764516830444,
                0.2230081409215927,
                0.4886287450790405
            ],
            "scale" : [
                0.27047568559646606,
                0.27047571539878845,
                0.27047568559646606
            ],
            "translation" : [
                0,
                0.3207155466079712,
                -0.5191231369972229
            ]
        }
    ],
    "materials" : [
        {
            "doubleSided" : true,
            "name" : "Color",
            "pbrMetallicRoughness" : {
                "baseColorTexture" : {
                    "index" : 0
                },
                "metallicFactor" : 0,
                "roughnessFactor" : 0.5
            }
        }
    ],
    "meshes" : [
        {
            "name" : "Circle.2463",
            "primitives" : [
                {
                    "attributes" : {
                        "POSITION" : 0,
                        "NORMAL" : 1,
                        "TEXCOORD_0" : 2
                    },
                    "indices" : 3,
                    "material" : 0
                }
            ]
        },
        {
            "name" : "Circle.2468",
            "primitives" : [
                {
                    "attributes" : {
                        "POSITION" : 4,
                        "NORMAL" : 5,
                        "TEXCOORD_0" : 6
                    },
                    "indices" : 3,
                    "material" : 0
                }
            ]
        },
        {
            "name" : "Circle.2469",
            "primitives" : [
                {
                    "attributes" : {
                        "POSITION" : 7,
                        "NORMAL" : 8,
                        "TEXCOORD_0" : 9
                    },
                    "indices" : 3,
                    "material" : 0
                }
            ]
        }
    ],
    "textures" : [
        {
            "sampler" : 0,
            "source" : 0
        }
    ],
    "images" : [
        {
            "bufferView" : 4,
            "mimeType" : "image/png",
            "name" : "tex"
        }
    ],
    "accessors" : [
        {
            "bufferView" : 0,
            "componentType" : 5126,
            "count" : 860,
            "max" : [
                0.9954927563667297,
                0.10968339443206787,
                2.675983428955078
            ],
            "min" : [
                -0.9954928159713745,
                -0.5203490853309631,
                -1.3222827911376953
            ],
            "type" : "VEC3"
        },
        {
            "bufferView" : 1,
            "componentType" : 5126,
            "count" : 860,
            "type" : "VEC3"
        },
        {
            "bufferView" : 2,
            "componentType" : 5126,
            "count" : 860,
            "type" : "VEC2"
        },
        {
            "bufferView" : 3,
            "componentType" : 5123,
            "count" : 2700,
            "type" : "SCALAR"
        },
        {
            "bufferView" : 5,
            "componentType" : 5126,
            "count" : 860,
            "max" : [
                0.9954927563667297,
                0.10968339443206787,
                2.675983428955078
            ],
            "min" : [
                -0.9954928159713745,
                -0.5203490853309631,
                -1.3222827911376953
            ],
            "type" : "VEC3"
        },
        {
            "bufferView" : 6,
            "componentType" : 5126,
            "count" : 860,
            "type" : "VEC3"
        },
        {
            "bufferView" : 7,
            "componentType" : 5126,
            "count" : 860,
            "type" : "VEC2"
        },
        {
            "bufferView" : 8,
            "componentType" : 5126,
            "count" : 860,
            "max" : [
                0.9954927563667297,
                0.10968339443206787,
                2.675983428955078
            ],
            "min" : [
                -0.9954928159713745,
                -0.5203490853309631,
                -1.3222827911376953
            ],
            "type" : "VEC3"
        },
        {
            "bufferView" : 9,
            "componentType" : 5126,
            "count" : 860,
            "type" : "VEC3"
        },
        {
            "bufferView" : 10,
            "componentType" : 5126,
            "count" : 860,
            "type" : "VEC2"
        }
    ],
    "bufferViews" : [
        {
            "buffer" : 0,
            "byteLength" : 10320,
            "byteOffset" : 0
        },
        {
            "buffer" : 0,
            "byteLength" : 10320,
            "byteOffset" : 10320
        },
        {
            "buffer" : 0,
            "byteLength" : 6880,
            "byteOffset" : 20640
        },
        {
            "buffer" : 0,
            "byteLength" : 5400,
            "byteOffset" : 27520
        },
        {
            "buffer" : 0,
            "byteLength" : 1322,
            "byteOffset" : 32920
        },
        {
            "buffer" : 0,
            "byteLength" : 10320,
            "byteOffset" : 34244
        },
        {
            "buffer" : 0,
            "byteLength" : 10320,
            "byteOffset" : 44564
        },
        {
            "buffer" : 0,
            "byteLength" : 6880,
            "byteOffset" : 54884
        },
        {
            "buffer" : 0,
            "byteLength" : 10320,
            "byteOffset" : 61764
        },
        {
            "buffer" : 0,
            "byteLength" : 10320,
            "byteOffset" : 72084
        },
        {
            "buffer" : 0,
            "byteLength" : 6880,
            "byteOffset" : 82404
        }
    ],
    "samplers" : [
        {
            "magFilter" : 9729,
            "minFilter" : 9987
        }
    ],
    "buffers" : [
        {
            "byteLength" : 89284,
            "uri" : "data:application/octet-stream;base64,"
        }
    ]
}
