{
    "asset" : {
        "copyright" : "Jeremy Edelblut",
        "generator" : "Khronos glTF Blender I/O v1.7.33",
        "version" : "2.0"
    },
    "scene" : 0,
    "scenes" : [
        {
            "name" : "Scene",
            "nodes" : [
                0
            ]
        }
    ],
    "nodes" : [
        {
            "mesh" : 0,
            "name" : "Cube.924",
            "rotation" : [
                0.42261824011802673,
                0,
                0,
                0.9063078165054321
            ],
            "scale" : [
                0.8763422966003418,
                0.8763422966003418,
                0.8763422966003418
            ],
            "translation" : [
                0.16610325872898102,
                -0.27846768498420715,
                0
            ]
        }
    ],
    "materials" : [
        {
            "doubleSided" : true,
            "name" : "color",
            "pbrMetallicRoughness" : {
                "baseColorTexture" : {
                    "index" : 0
                },
                "metallicFactor" : 0,
                "roughnessFactor" : 0.5
            }
        }
    ],
    "meshes" : [
        {
            "name" : "Cube.7757",
            "primitives" : [
                {
                    "attributes" : {
                        "POSITION" : 0,
                        "NORMAL" : 1,
                        "TEXCOORD_0" : 2
                    },
                    "indices" : 3,
                    "material" : 0
                }
            ]
        }
    ],
    "textures" : [
        {
            "sampler" : 0,
            "source" : 0
        }
    ],
    "images" : [
        {
            "bufferView" : 4,
            "mimeType" : "image/png",
            "name" : "tex"
        }
    ],
    "accessors" : [
        {
            "bufferView" : 0,
            "componentType" : 5126,
            "count" : 1403,
            "max" : [
                1,
                1.094237208366394,
                0.8875917792320251
            ],
            "min" : [
                -1.438172698020935,
                -0.25558674335479736,
                -1.1568256616592407
            ],
            "type" : "VEC3"
        },
        {
            "bufferView" : 1,
            "componentType" : 5126,
            "count" : 1403,
            "type" : "VEC3"
        },
        {
            "bufferView" : 2,
            "componentType" : 5126,
            "count" : 1403,
            "type" : "VEC2"
        },
        {
            "bufferView" : 3,
            "componentType" : 5123,
            "count" : 3660,
            "type" : "SCALAR"
        }
    ],
    "bufferViews" : [
        {
            "buffer" : 0,
            "byteLength" : 16836,
            "byteOffset" : 0
        },
        {
            "buffer" : 0,
            "byteLength" : 16836,
            "byteOffset" : 16836
        },
        {
            "buffer" : 0,
            "byteLength" : 11224,
            "byteOffset" : 33672
        },
        {
            "buffer" : 0,
            "byteLength" : 7320,
            "byteOffset" : 44896
        },
        {
            "buffer" : 0,
            "byteLength" : 11997,
            "byteOffset" : 52216
        }
    ],
    "samplers" : [
        {
            "magFilter" : 9729,
            "minFilter" : 9987
        }
    ],
    "buffers" : [
        {
            "byteLength" : 64216,
            "uri" : "data:application/octet-stream;base64,"
        }
    ]
}
