{
    "asset" : {
        "copyright" : "Jeremy Edelblut",
        "generator" : "Khronos glTF Blender I/O v1.7.33",
        "version" : "2.0"
    },
    "scene" : 0,
    "scenes" : [
        {
            "name" : "Scene",
            "nodes" : [
                0
            ]
        }
    ],
    "nodes" : [
        {
            "mesh" : 0,
            "name" : "flag_us_virgin_islands"
        }
    ],
    "materials" : [
        {
            "doubleSided" : true,
            "emissiveFactor" : [
                0.20000000298023224,
                0.20000000298023224,
                0.20000000298023224
            ],
            "emissiveTexture" : {
                "index" : 0
            },
            "name" : "color",
            "pbrMetallicRoughness" : {
                "baseColorTexture" : {
                    "index" : 1
                },
                "metallicFactor" : 0,
                "roughnessFactor" : 0.5
            }
        }
    ],
    "meshes" : [
        {
            "name" : "Plane.632",
            "primitives" : [
                {
                    "attributes" : {
                        "POSITION" : 0,
                        "NORMAL" : 1,
                        "TEXCOORD_0" : 2
                    },
                    "indices" : 3,
                    "material" : 0
                },
                {
                    "attributes" : {
                        "POSITION" : 4,
                        "NORMAL" : 5,
                        "TEXCOORD_0" : 6
                    },
                    "indices" : 7
                }
            ]
        }
    ],
    "textures" : [
        {
            "sampler" : 0,
            "source" : 0
        },
        {
            "sampler" : 0,
            "source" : 0
        }
    ],
    "images" : [
        {
            "bufferView" : 4,
            "mimeType" : "image/png",
            "name" : "tex"
        }
    ],
    "accessors" : [
        {
            "bufferView" : 0,
            "componentType" : 5126,
            "count" : 4980,
            "max" : [
                1.0945518016815186,
                0.7757099270820618,
                0.16157905757427216
            ],
            "min" : [
                -1.0895172357559204,
                -0.8030083775520325,
                -0.17569726705551147
            ],
            "type" : "VEC3"
        },
        {
            "bufferView" : 1,
            "componentType" : 5126,
            "count" : 4980,
            "type" : "VEC3"
        },
        {
            "bufferView" : 2,
            "componentType" : 5126,
            "count" : 4980,
            "type" : "VEC2"
        },
        {
            "bufferView" : 3,
            "componentType" : 5123,
            "count" : 15141,
            "type" : "SCALAR"
        },
        {
            "bufferView" : 5,
            "componentType" : 5126,
            "count" : 648,
            "max" : [
                -0.9406864047050476,
                -0.6562423706054688,
                0.0742403119802475
            ],
            "min" : [
                -1.0870933532714844,
                -0.7064183950424194,
                0.017222469672560692
            ],
            "type" : "VEC3"
        },
        {
            "bufferView" : 6,
            "componentType" : 5126,
            "count" : 648,
            "type" : "VEC3"
        },
        {
            "bufferView" : 7,
            "componentType" : 5126,
            "count" : 648,
            "type" : "VEC2"
        },
        {
            "bufferView" : 8,
            "componentType" : 5123,
            "count" : 1368,
            "type" : "SCALAR"
        }
    ],
    "bufferViews" : [
        {
            "buffer" : 0,
            "byteLength" : 59760,
            "byteOffset" : 0
        },
        {
            "buffer" : 0,
            "byteLength" : 59760,
            "byteOffset" : 59760
        },
        {
            "buffer" : 0,
            "byteLength" : 39840,
            "byteOffset" : 119520
        },
        {
            "buffer" : 0,
            "byteLength" : 30282,
            "byteOffset" : 159360
        },
        {
            "buffer" : 0,
            "byteLength" : 11997,
            "byteOffset" : 189644
        },
        {
            "buffer" : 0,
            "byteLength" : 7776,
            "byteOffset" : 201644
        },
        {
            "buffer" : 0,
            "byteLength" : 7776,
            "byteOffset" : 209420
        },
        {
            "buffer" : 0,
            "byteLength" : 5184,
            "byteOffset" : 217196
        },
        {
            "buffer" : 0,
            "byteLength" : 2736,
            "byteOffset" : 222380
        }
    ],
    "samplers" : [
        {
            "magFilter" : 9729,
            "minFilter" : 9987
        }
    ],
    "buffers" : [
        {
            "byteLength" : 225116,
            "uri" : "data:application/octet-stream;base64,"
        }
    ]
}
