{
    "asset" : {
        "copyright" : "Jeremy Edelblut",
        "generator" : "Khronos glTF Blender I/O v1.6.16",
        "version" : "2.0"
    },
    "scene" : 0,
    "scenes" : [
        {
            "name" : "Scene",
            "nodes" : [
                0
            ]
        }
    ],
    "nodes" : [
        {
            "mesh" : 0,
            "name" : "Sphere.368",
            "rotation" : [
                -0.1464465856552124,
                -0.3535534143447876,
                -0.3535533547401428,
                0.8535534143447876
            ],
            "scale" : [
                0.5,
                0.5,
                0.5
            ],
            "translation" : [
                0.2573426067829132,
                -0.31643807888031006,
                -0.2990003228187561
            ]
        }
    ],
    "materials" : [
        {
            "doubleSided" : true,
            "name" : "dkblue",
            "pbrMetallicRoughness" : {
                "baseColorFactor" : [
                    0.015741879120469093,
                    0.18322162330150604,
                    0.8000000715255737,
                    1
                ],
                "metallicFactor" : 0,
                "roughnessFactor" : 0.5
            }
        },
        {
            "doubleSided" : true,
            "name" : "white",
            "pbrMetallicRoughness" : {
                "baseColorFactor" : [
                    0.800000011920929,
                    0.800000011920929,
                    0.800000011920929,
                    1
                ],
                "metallicFactor" : 0,
                "roughnessFactor" : 0.5
            }
        }
    ],
    "meshes" : [
        {
            "name" : "Sphere.352",
            "primitives" : [
                {
                    "attributes" : {
                        "POSITION" : 0,
                        "NORMAL" : 1,
                        "TEXCOORD_0" : 2
                    },
                    "indices" : 3,
                    "material" : 0
                },
                {
                    "attributes" : {
                        "POSITION" : 4,
                        "NORMAL" : 5,
                        "TEXCOORD_0" : 6
                    },
                    "indices" : 7,
                    "material" : 1
                }
            ]
        }
    ],
    "accessors" : [
        {
            "bufferView" : 0,
            "componentType" : 5126,
            "count" : 291,
            "max" : [
                0.8034098148345947,
                0.8539804220199585,
                3.0038180351257324
            ],
            "min" : [
                -0.8034096360206604,
                0.04548095166683197,
                -1.0888996124267578
            ],
            "type" : "VEC3"
        },
        {
            "bufferView" : 1,
            "componentType" : 5126,
            "count" : 291,
            "type" : "VEC3"
        },
        {
            "bufferView" : 2,
            "componentType" : 5126,
            "count" : 291,
            "type" : "VEC2"
        },
        {
            "bufferView" : 3,
            "componentType" : 5123,
            "count" : 1209,
            "type" : "SCALAR"
        },
        {
            "bufferView" : 4,
            "componentType" : 5126,
            "count" : 75,
            "max" : [
                0.8034098148345947,
                0.10382030159235,
                3.0099668502807617
            ],
            "min" : [
                -0.8034096360206604,
                -0.025952158495783806,
                -1.0888996124267578
            ],
            "type" : "VEC3"
        },
        {
            "bufferView" : 5,
            "componentType" : 5126,
            "count" : 75,
            "type" : "VEC3"
        },
        {
            "bufferView" : 6,
            "componentType" : 5126,
            "count" : 75,
            "type" : "VEC2"
        },
        {
            "bufferView" : 7,
            "componentType" : 5123,
            "count" : 201,
            "type" : "SCALAR"
        }
    ],
    "bufferViews" : [
        {
            "buffer" : 0,
            "byteLength" : 3492,
            "byteOffset" : 0
        },
        {
            "buffer" : 0,
            "byteLength" : 3492,
            "byteOffset" : 3492
        },
        {
            "buffer" : 0,
            "byteLength" : 2328,
            "byteOffset" : 6984
        },
        {
            "buffer" : 0,
            "byteLength" : 2418,
            "byteOffset" : 9312
        },
        {
            "buffer" : 0,
            "byteLength" : 900,
            "byteOffset" : 11732
        },
        {
            "buffer" : 0,
            "byteLength" : 900,
            "byteOffset" : 12632
        },
        {
            "buffer" : 0,
            "byteLength" : 600,
            "byteOffset" : 13532
        },
        {
            "buffer" : 0,
            "byteLength" : 402,
            "byteOffset" : 14132
        }
    ],
    "buffers" : [
        {
            "byteLength" : 14536,
            "uri" : "data:application/octet-stream;base64,"
        }
    ]
}
