{
    "asset" : {
        "copyright" : "Jeremy Edelblut - 3moji.org",
        "generator" : "Khronos glTF Blender I/O v1.6.16",
        "version" : "2.0"
    },
    "scene" : 0,
    "scenes" : [
        {
            "name" : "Scene",
            "nodes" : [
                0
            ]
        }
    ],
    "nodes" : [
        {
            "mesh" : 0,
            "name" : "Flushed Face",
            "rotation" : [
                0,
                -0.7071068286895752,
                0,
                0.7071068286895752
            ]
        }
    ],
    "materials" : [
        {
            "doubleSided" : true,
            "name" : "Yellow_body",
            "pbrMetallicRoughness" : {
                "baseColorTexture" : {
                    "index" : 0
                },
                "metallicFactor" : 0,
                "roughnessFactor" : 0.5
            }
        },
        {
            "doubleSided" : true,
            "name" : "Color",
            "pbrMetallicRoughness" : {
                "baseColorTexture" : {
                    "index" : 1
                },
                "metallicFactor" : 0,
                "roughnessFactor" : 0.5
            }
        },
        {
            "alphaMode" : "BLEND",
            "doubleSided" : true,
            "name" : "Cheeks",
            "pbrMetallicRoughness" : {
                "baseColorTexture" : {
                    "index" : 2
                },
                "metallicFactor" : 0,
                "roughnessFactor" : 0.5
            }
        }
    ],
    "meshes" : [
        {
            "name" : "Cube.100",
            "primitives" : [
                {
                    "attributes" : {
                        "POSITION" : 0,
                        "NORMAL" : 1,
                        "TEXCOORD_0" : 2
                    },
                    "indices" : 3,
                    "material" : 0
                },
                {
                    "attributes" : {
                        "POSITION" : 4,
                        "NORMAL" : 5,
                        "TEXCOORD_0" : 6
                    },
                    "indices" : 7,
                    "material" : 1
                },
                {
                    "attributes" : {
                        "POSITION" : 8,
                        "NORMAL" : 9,
                        "TEXCOORD_0" : 10
                    },
                    "indices" : 11,
                    "material" : 2
                }
            ]
        }
    ],
    "textures" : [
        {
            "sampler" : 0,
            "source" : 0
        },
        {
            "sampler" : 0,
            "source" : 1
        },
        {
            "sampler" : 0,
            "source" : 2
        }
    ],
    "images" : [
        {
            "bufferView" : 4,
            "mimeType" : "image/png",
            "name" : "Rectangle 863"
        },
        {
            "bufferView" : 9,
            "mimeType" : "image/png",
            "name" : "tex2"
        },
        {
            "bufferView" : 14,
            "mimeType" : "image/png",
            "name" : "cheeks"
        }
    ],
    "accessors" : [
        {
            "bufferView" : 0,
            "componentType" : 5126,
            "count" : 1569,
            "max" : [
                0.8446488380432129,
                0.8446488380432129,
                0.8446488380432129
            ],
            "min" : [
                -0.8446488380432129,
                -0.8446488380432129,
                -0.8446488380432129
            ],
            "type" : "VEC3"
        },
        {
            "bufferView" : 1,
            "componentType" : 5126,
            "count" : 1569,
            "type" : "VEC3"
        },
        {
            "bufferView" : 2,
            "componentType" : 5126,
            "count" : 1569,
            "type" : "VEC2"
        },
        {
            "bufferView" : 3,
            "componentType" : 5123,
            "count" : 9300,
            "type" : "SCALAR"
        },
        {
            "bufferView" : 5,
            "componentType" : 5126,
            "count" : 2666,
            "max" : [
                0.8375489115715027,
                0.49172255396842957,
                0.5584533214569092
            ],
            "min" : [
                -0.8543609976768494,
                -0.39182597398757935,
                -0.5610322952270508
            ],
            "type" : "VEC3"
        },
        {
            "bufferView" : 6,
            "componentType" : 5126,
            "count" : 2666,
            "type" : "VEC3"
        },
        {
            "bufferView" : 7,
            "componentType" : 5126,
            "count" : 2666,
            "type" : "VEC2"
        },
        {
            "bufferView" : 8,
            "componentType" : 5123,
            "count" : 10962,
            "type" : "SCALAR"
        },
        {
            "bufferView" : 10,
            "componentType" : 5126,
            "count" : 450,
            "max" : [
                0.8295739889144897,
                0.21367107331752777,
                0.728455126285553
            ],
            "min" : [
                0.4160672128200531,
                -0.46589669585227966,
                -0.7310341000556946
            ],
            "type" : "VEC3"
        },
        {
            "bufferView" : 11,
            "componentType" : 5126,
            "count" : 450,
            "type" : "VEC3"
        },
        {
            "bufferView" : 12,
            "componentType" : 5126,
            "count" : 450,
            "type" : "VEC2"
        },
        {
            "bufferView" : 13,
            "componentType" : 5123,
            "count" : 2496,
            "type" : "SCALAR"
        }
    ],
    "bufferViews" : [
        {
            "buffer" : 0,
            "byteLength" : 18828,
            "byteOffset" : 0
        },
        {
            "buffer" : 0,
            "byteLength" : 18828,
            "byteOffset" : 18828
        },
        {
            "buffer" : 0,
            "byteLength" : 12552,
            "byteOffset" : 37656
        },
        {
            "buffer" : 0,
            "byteLength" : 18600,
            "byteOffset" : 50208
        },
        {
            "buffer" : 0,
            "byteLength" : 85292,
            "byteOffset" : 68808
        },
        {
            "buffer" : 0,
            "byteLength" : 31992,
            "byteOffset" : 154100
        },
        {
            "buffer" : 0,
            "byteLength" : 31992,
            "byteOffset" : 186092
        },
        {
            "buffer" : 0,
            "byteLength" : 21328,
            "byteOffset" : 218084
        },
        {
            "buffer" : 0,
            "byteLength" : 21924,
            "byteOffset" : 239412
        },
        {
            "buffer" : 0,
            "byteLength" : 6478,
            "byteOffset" : 261336
        },
        {
            "buffer" : 0,
            "byteLength" : 5400,
            "byteOffset" : 267816
        },
        {
            "buffer" : 0,
            "byteLength" : 5400,
            "byteOffset" : 273216
        },
        {
            "buffer" : 0,
            "byteLength" : 3600,
            "byteOffset" : 278616
        },
        {
            "buffer" : 0,
            "byteLength" : 4992,
            "byteOffset" : 282216
        },
        {
            "buffer" : 0,
            "byteLength" : 112399,
            "byteOffset" : 287208
        }
    ],
    "samplers" : [
        {
            "magFilter" : 9729,
            "minFilter" : 9987
        }
    ],
    "buffers" : [
        {
            "byteLength" : 399608,
            "uri" : "data:application/octet-stream;base64,"
        }
    ]
}
