{
    "asset" : {
        "copyright" : "Jeremy Edelblut",
        "generator" : "Khronos glTF Blender I/O v1.7.33",
        "version" : "2.0"
    },
    "scene" : 0,
    "scenes" : [
        {
            "name" : "Scene",
            "nodes" : [
                0,
                1
            ]
        }
    ],
    "nodes" : [
        {
            "mesh" : 0,
            "name" : "Circle.2518",
            "rotation" : [
                0.3764520287513733,
                0.06877852976322174,
                0.16604605317115784,
                0.9088355898857117
            ],
            "scale" : [
                1.0852094888687134,
                1.0852092504501343,
                1.0852092504501343
            ],
            "translation" : [
                0.013270333409309387,
                0.08662986755371094,
                0
            ]
        },
        {
            "mesh" : 1,
            "name" : "Circle.2519",
            "rotation" : [
                0.3764520287513733,
                0.06877852976322174,
                0.16604605317115784,
                0.9088355898857117
            ],
            "scale" : [
                1.3625667095184326,
                0.4308880865573883,
                1.3625667095184326
            ],
            "translation" : [
                0.013270333409309387,
                0.08662986755371094,
                0
            ]
        }
    ],
    "materials" : [
        {
            "doubleSided" : true,
            "name" : "color",
            "pbrMetallicRoughness" : {
                "baseColorTexture" : {
                    "index" : 0
                },
                "metallicFactor" : 0,
                "roughnessFactor" : 0.5
            }
        }
    ],
    "meshes" : [
        {
            "name" : "Circle.309",
            "primitives" : [
                {
                    "attributes" : {
                        "POSITION" : 0,
                        "NORMAL" : 1,
                        "TEXCOORD_0" : 2
                    },
                    "indices" : 3,
                    "material" : 0
                }
            ]
        },
        {
            "name" : "Circle.312",
            "primitives" : [
                {
                    "attributes" : {
                        "POSITION" : 4,
                        "NORMAL" : 5,
                        "TEXCOORD_0" : 6
                    },
                    "indices" : 7,
                    "material" : 0
                }
            ]
        }
    ],
    "textures" : [
        {
            "sampler" : 0,
            "source" : 0
        }
    ],
    "images" : [
        {
            "bufferView" : 4,
            "mimeType" : "image/png",
            "name" : "tex"
        }
    ],
    "accessors" : [
        {
            "bufferView" : 0,
            "componentType" : 5126,
            "count" : 1256,
            "max" : [
                0.9914990663528442,
                0.11068946123123169,
                0.9914990663528442
            ],
            "min" : [
                -0.9914990663528442,
                -0.09204462915658951,
                -0.9914990663528442
            ],
            "type" : "VEC3"
        },
        {
            "bufferView" : 1,
            "componentType" : 5126,
            "count" : 1256,
            "type" : "VEC3"
        },
        {
            "bufferView" : 2,
            "componentType" : 5126,
            "count" : 1256,
            "type" : "VEC2"
        },
        {
            "bufferView" : 3,
            "componentType" : 5123,
            "count" : 5760,
            "type" : "SCALAR"
        },
        {
            "bufferView" : 5,
            "componentType" : 5126,
            "count" : 296,
            "max" : [
                0.7476052641868591,
                -0.014595437794923782,
                0.9632115364074707
            ],
            "min" : [
                -0.8671591877937317,
                -0.05667572468519211,
                -0.9210219383239746
            ],
            "type" : "VEC3"
        },
        {
            "bufferView" : 6,
            "componentType" : 5126,
            "count" : 296,
            "type" : "VEC3"
        },
        {
            "bufferView" : 7,
            "componentType" : 5126,
            "count" : 296,
            "type" : "VEC2"
        },
        {
            "bufferView" : 8,
            "componentType" : 5123,
            "count" : 780,
            "type" : "SCALAR"
        }
    ],
    "bufferViews" : [
        {
            "buffer" : 0,
            "byteLength" : 15072,
            "byteOffset" : 0
        },
        {
            "buffer" : 0,
            "byteLength" : 15072,
            "byteOffset" : 15072
        },
        {
            "buffer" : 0,
            "byteLength" : 10048,
            "byteOffset" : 30144
        },
        {
            "buffer" : 0,
            "byteLength" : 11520,
            "byteOffset" : 40192
        },
        {
            "buffer" : 0,
            "byteLength" : 11997,
            "byteOffset" : 51712
        },
        {
            "buffer" : 0,
            "byteLength" : 3552,
            "byteOffset" : 63712
        },
        {
            "buffer" : 0,
            "byteLength" : 3552,
            "byteOffset" : 67264
        },
        {
            "buffer" : 0,
            "byteLength" : 2368,
            "byteOffset" : 70816
        },
        {
            "buffer" : 0,
            "byteLength" : 1560,
            "byteOffset" : 73184
        }
    ],
    "samplers" : [
        {
            "magFilter" : 9729,
            "minFilter" : 9987
        }
    ],
    "buffers" : [
        {
            "byteLength" : 74744,
            "uri" : "data:application/octet-stream;base64,"
        }
    ]
}
