{
    "asset" : {
        "copyright" : "Jeremy Edelblut",
        "generator" : "Khronos glTF Blender I/O v1.6.16",
        "version" : "2.0"
    },
    "scene" : 0,
    "scenes" : [
        {
            "name" : "Scene",
            "nodes" : [
                0,
                1
            ]
        }
    ],
    "nodes" : [
        {
            "mesh" : 0,
            "name" : "Cube.042",
            "rotation" : [
                0,
                0,
                0.08715573698282242,
                0.9961947202682495
            ],
            "translation" : [
                -0.5,
                0,
                0
            ]
        },
        {
            "mesh" : 1,
            "name" : "Sphere.357"
        }
    ],
    "materials" : [
        {
            "doubleSided" : true,
            "name" : "DKgreen",
            "pbrMetallicRoughness" : {
                "baseColorFactor" : [
                    0.009797311387956142,
                    0.11926732957363129,
                    0.05048948526382446,
                    1
                ],
                "metallicFactor" : 0,
                "roughnessFactor" : 0.5
            }
        },
        {
            "doubleSided" : true,
            "name" : "Red",
            "pbrMetallicRoughness" : {
                "baseColorFactor" : [
                    0.8000000715255737,
                    0.02731209248304367,
                    0.03797036036849022,
                    1
                ],
                "metallicFactor" : 0,
                "roughnessFactor" : 0.5
            }
        },
        {
            "doubleSided" : true,
            "name" : "dkPink",
            "pbrMetallicRoughness" : {
                "baseColorFactor" : [
                    0.3423771858215332,
                    0.0336165577173233,
                    0.13858771324157715,
                    1
                ],
                "metallicFactor" : 0,
                "roughnessFactor" : 0.5
            }
        },
        {
            "doubleSided" : true,
            "name" : "DKBrown",
            "pbrMetallicRoughness" : {
                "baseColorFactor" : [
                    0.010021701455116272,
                    0.0023923655971884727,
                    0.0018060366855934262,
                    1
                ],
                "metallicFactor" : 0,
                "roughnessFactor" : 0.5
            }
        },
        {
            "doubleSided" : true,
            "name" : "blond",
            "pbrMetallicRoughness" : {
                "baseColorFactor" : [
                    0.7873942852020264,
                    0.5489762425422668,
                    0.04593009129166603,
                    1
                ],
                "metallicFactor" : 0,
                "roughnessFactor" : 0.5
            }
        }
    ],
    "meshes" : [
        {
            "name" : "Cube.152",
            "primitives" : [
                {
                    "attributes" : {
                        "POSITION" : 0,
                        "NORMAL" : 1,
                        "TEXCOORD_0" : 2
                    },
                    "indices" : 3,
                    "material" : 0
                },
                {
                    "attributes" : {
                        "POSITION" : 4,
                        "NORMAL" : 5,
                        "TEXCOORD_0" : 6
                    },
                    "indices" : 7
                },
                {
                    "attributes" : {
                        "POSITION" : 8,
                        "NORMAL" : 9,
                        "TEXCOORD_0" : 10
                    },
                    "indices" : 11,
                    "material" : 1
                },
                {
                    "attributes" : {
                        "POSITION" : 12,
                        "NORMAL" : 13,
                        "TEXCOORD_0" : 14
                    },
                    "indices" : 15,
                    "material" : 2
                },
                {
                    "attributes" : {
                        "POSITION" : 16,
                        "NORMAL" : 17,
                        "TEXCOORD_0" : 18
                    },
                    "indices" : 19,
                    "material" : 3
                }
            ]
        },
        {
            "name" : "Sphere.298",
            "primitives" : [
                {
                    "attributes" : {
                        "POSITION" : 20,
                        "NORMAL" : 21,
                        "TEXCOORD_0" : 22
                    },
                    "indices" : 23,
                    "material" : 0
                },
                {
                    "attributes" : {
                        "POSITION" : 24,
                        "NORMAL" : 25,
                        "TEXCOORD_0" : 26
                    },
                    "indices" : 27,
                    "material" : 4
                },
                {
                    "attributes" : {
                        "POSITION" : 28,
                        "NORMAL" : 29,
                        "TEXCOORD_0" : 30
                    },
                    "indices" : 31,
                    "material" : 3
                }
            ]
        }
    ],
    "accessors" : [
        {
            "bufferView" : 0,
            "componentType" : 5126,
            "count" : 376,
            "max" : [
                1.2229773998260498,
                0.503703773021698,
                0.8395062685012817
            ],
            "min" : [
                -0.02297729253768921,
                -5.7114690754644926e-09,
                -0.8395062685012817
            ],
            "type" : "VEC3"
        },
        {
            "bufferView" : 1,
            "componentType" : 5126,
            "count" : 376,
            "type" : "VEC3"
        },
        {
            "bufferView" : 2,
            "componentType" : 5126,
            "count" : 376,
            "type" : "VEC2"
        },
        {
            "bufferView" : 3,
            "componentType" : 5123,
            "count" : 1476,
            "type" : "SCALAR"
        },
        {
            "bufferView" : 4,
            "componentType" : 5126,
            "count" : 237,
            "max" : [
                1.2043977975845337,
                0.00398996751755476,
                0.8395062685012817
            ],
            "min" : [
                -0.024479737505316734,
                -0.4704969525337219,
                -0.8395062685012817
            ],
            "type" : "VEC3"
        },
        {
            "bufferView" : 5,
            "componentType" : 5126,
            "count" : 237,
            "type" : "VEC3"
        },
        {
            "bufferView" : 6,
            "componentType" : 5126,
            "count" : 237,
            "type" : "VEC2"
        },
        {
            "bufferView" : 7,
            "componentType" : 5123,
            "count" : 1152,
            "type" : "SCALAR"
        },
        {
            "bufferView" : 8,
            "componentType" : 5126,
            "count" : 64,
            "max" : [
                1.2229773998260498,
                0.00398996751755476,
                0.8395062685012817
            ],
            "min" : [
                -0.02297729253768921,
                -0.21236781775951385,
                -0.8395062685012817
            ],
            "type" : "VEC3"
        },
        {
            "bufferView" : 9,
            "componentType" : 5126,
            "count" : 64,
            "type" : "VEC3"
        },
        {
            "bufferView" : 10,
            "componentType" : 5126,
            "count" : 64,
            "type" : "VEC2"
        },
        {
            "bufferView" : 11,
            "componentType" : 5123,
            "count" : 180,
            "type" : "SCALAR"
        },
        {
            "bufferView" : 12,
            "componentType" : 5126,
            "count" : 128,
            "max" : [
                0.8782133460044861,
                -0.004260803572833538,
                0.5384947061538696
            ],
            "min" : [
                0.08659184724092484,
                -0.16887646913528442,
                -0.5384947061538696
            ],
            "type" : "VEC3"
        },
        {
            "bufferView" : 13,
            "componentType" : 5126,
            "count" : 128,
            "type" : "VEC3"
        },
        {
            "bufferView" : 14,
            "componentType" : 5126,
            "count" : 128,
            "type" : "VEC2"
        },
        {
            "bufferView" : 15,
            "componentType" : 5123,
            "count" : 372,
            "type" : "SCALAR"
        },
        {
            "bufferView" : 16,
            "componentType" : 5126,
            "count" : 32,
            "max" : [
                1.1477081775665283,
                0.23095038533210754,
                0.28921812772750854
            ],
            "min" : [
                1.0968105792999268,
                0.1406630575656891,
                -0.28921812772750854
            ],
            "type" : "VEC3"
        },
        {
            "bufferView" : 17,
            "componentType" : 5126,
            "count" : 32,
            "type" : "VEC3"
        },
        {
            "bufferView" : 18,
            "componentType" : 5126,
            "count" : 32,
            "type" : "VEC2"
        },
        {
            "bufferView" : 19,
            "componentType" : 5123,
            "count" : 84,
            "type" : "SCALAR"
        },
        {
            "bufferView" : 20,
            "componentType" : 5126,
            "count" : 724,
            "max" : [
                0.21140748262405396,
                0.8772375583648682,
                0.4602804481983185
            ],
            "min" : [
                -0.041714780032634735,
                0.44841834902763367,
                -0.4602804481983185
            ],
            "type" : "VEC3"
        },
        {
            "bufferView" : 21,
            "componentType" : 5126,
            "count" : 724,
            "type" : "VEC3"
        },
        {
            "bufferView" : 22,
            "componentType" : 5126,
            "count" : 724,
            "type" : "VEC2"
        },
        {
            "bufferView" : 23,
            "componentType" : 5123,
            "count" : 3264,
            "type" : "SCALAR"
        },
        {
            "bufferView" : 24,
            "componentType" : 5126,
            "count" : 396,
            "max" : [
                0.35560107231140137,
                0.8559503555297852,
                0.4386778175830841
            ],
            "min" : [
                0.14910772442817688,
                0.4726763963699341,
                -0.4386778175830841
            ],
            "type" : "VEC3"
        },
        {
            "bufferView" : 25,
            "componentType" : 5126,
            "count" : 396,
            "type" : "VEC3"
        },
        {
            "bufferView" : 26,
            "componentType" : 5126,
            "count" : 396,
            "type" : "VEC2"
        },
        {
            "bufferView" : 27,
            "componentType" : 5123,
            "count" : 1920,
            "type" : "SCALAR"
        },
        {
            "bufferView" : 28,
            "componentType" : 5126,
            "count" : 262,
            "max" : [
                0.3727526068687439,
                0.7893014550209045,
                0.37063536047935486
            ],
            "min" : [
                0.3209891617298126,
                0.5768218636512756,
                -0.37063536047935486
            ],
            "type" : "VEC3"
        },
        {
            "bufferView" : 29,
            "componentType" : 5126,
            "count" : 262,
            "type" : "VEC3"
        },
        {
            "bufferView" : 30,
            "componentType" : 5126,
            "count" : 262,
            "type" : "VEC2"
        },
        {
            "bufferView" : 31,
            "componentType" : 5123,
            "count" : 960,
            "type" : "SCALAR"
        }
    ],
    "bufferViews" : [
        {
            "buffer" : 0,
            "byteLength" : 4512,
            "byteOffset" : 0
        },
        {
            "buffer" : 0,
            "byteLength" : 4512,
            "byteOffset" : 4512
        },
        {
            "buffer" : 0,
            "byteLength" : 3008,
            "byteOffset" : 9024
        },
        {
            "buffer" : 0,
            "byteLength" : 2952,
            "byteOffset" : 12032
        },
        {
            "buffer" : 0,
            "byteLength" : 2844,
            "byteOffset" : 14984
        },
        {
            "buffer" : 0,
            "byteLength" : 2844,
            "byteOffset" : 17828
        },
        {
            "buffer" : 0,
            "byteLength" : 1896,
            "byteOffset" : 20672
        },
        {
            "buffer" : 0,
            "byteLength" : 2304,
            "byteOffset" : 22568
        },
        {
            "buffer" : 0,
            "byteLength" : 768,
            "byteOffset" : 24872
        },
        {
            "buffer" : 0,
            "byteLength" : 768,
            "byteOffset" : 25640
        },
        {
            "buffer" : 0,
            "byteLength" : 512,
            "byteOffset" : 26408
        },
        {
            "buffer" : 0,
            "byteLength" : 360,
            "byteOffset" : 26920
        },
        {
            "buffer" : 0,
            "byteLength" : 1536,
            "byteOffset" : 27280
        },
        {
            "buffer" : 0,
            "byteLength" : 1536,
            "byteOffset" : 28816
        },
        {
            "buffer" : 0,
            "byteLength" : 1024,
            "byteOffset" : 30352
        },
        {
            "buffer" : 0,
            "byteLength" : 744,
            "byteOffset" : 31376
        },
        {
            "buffer" : 0,
            "byteLength" : 384,
            "byteOffset" : 32120
        },
        {
            "buffer" : 0,
            "byteLength" : 384,
            "byteOffset" : 32504
        },
        {
            "buffer" : 0,
            "byteLength" : 256,
            "byteOffset" : 32888
        },
        {
            "buffer" : 0,
            "byteLength" : 168,
            "byteOffset" : 33144
        },
        {
            "buffer" : 0,
            "byteLength" : 8688,
            "byteOffset" : 33312
        },
        {
            "buffer" : 0,
            "byteLength" : 8688,
            "byteOffset" : 42000
        },
        {
            "buffer" : 0,
            "byteLength" : 5792,
            "byteOffset" : 50688
        },
        {
            "buffer" : 0,
            "byteLength" : 6528,
            "byteOffset" : 56480
        },
        {
            "buffer" : 0,
            "byteLength" : 4752,
            "byteOffset" : 63008
        },
        {
            "buffer" : 0,
            "byteLength" : 4752,
            "byteOffset" : 67760
        },
        {
            "buffer" : 0,
            "byteLength" : 3168,
            "byteOffset" : 72512
        },
        {
            "buffer" : 0,
            "byteLength" : 3840,
            "byteOffset" : 75680
        },
        {
            "buffer" : 0,
            "byteLength" : 3144,
            "byteOffset" : 79520
        },
        {
            "buffer" : 0,
            "byteLength" : 3144,
            "byteOffset" : 82664
        },
        {
            "buffer" : 0,
            "byteLength" : 2096,
            "byteOffset" : 85808
        },
        {
            "buffer" : 0,
            "byteLength" : 1920,
            "byteOffset" : 87904
        }
    ],
    "buffers" : [
        {
            "byteLength" : 89824,
            "uri" : "data:application/octet-stream;base64,"
        }
    ]
}
