{
    "asset" : {
        "copyright" : "Jeremy Edelblut",
        "generator" : "Khronos glTF Blender I/O v1.6.16",
        "version" : "2.0"
    },
    "scene" : 0,
    "scenes" : [
        {
            "name" : "Scene",
            "nodes" : [
                0,
                1,
                2
            ]
        }
    ],
    "nodes" : [
        {
            "mesh" : 0,
            "name" : "Cube.042",
            "rotation" : [
                -0.04361938312649727,
                0,
                0,
                0.9990482330322266
            ],
            "scale" : [
                1.5648283958435059,
                1.5648280382156372,
                1.5648280382156372
            ],
            "translation" : [
                0,
                -0.30333438515663147,
                -0.4530928432941437
            ]
        },
        {
            "mesh" : 1,
            "name" : "Cube.112",
            "rotation" : [
                0,
                0.04361938312649727,
                -0.9990482330322266,
                -2.824808120749367e-07
            ],
            "scale" : [
                1.5648283958435059,
                0.9388969540596008,
                1.5648280382156372
            ],
            "translation" : [
                0,
                -0.30333438515663147,
                -0.4530928432941437
            ]
        },
        {
            "mesh" : 2,
            "name" : "Sphere.355",
            "scale" : [
                1.036255121231079,
                1.036255121231079,
                1.036255121231079
            ],
            "translation" : [
                0,
                -0.04294439032673836,
                0
            ]
        }
    ],
    "materials" : [
        {
            "doubleSided" : true,
            "name" : "Color",
            "pbrMetallicRoughness" : {
                "baseColorTexture" : {
                    "index" : 0
                },
                "metallicFactor" : 0,
                "roughnessFactor" : 0.5
            }
        }
    ],
    "meshes" : [
        {
            "name" : "Cube.115",
            "primitives" : [
                {
                    "attributes" : {
                        "POSITION" : 0,
                        "NORMAL" : 1,
                        "TEXCOORD_0" : 2
                    },
                    "indices" : 3,
                    "material" : 0
                }
            ]
        },
        {
            "name" : "Cube.141",
            "primitives" : [
                {
                    "attributes" : {
                        "POSITION" : 4,
                        "NORMAL" : 5,
                        "TEXCOORD_0" : 6
                    },
                    "indices" : 7,
                    "material" : 0
                }
            ]
        },
        {
            "name" : "Sphere.287",
            "primitives" : [
                {
                    "attributes" : {
                        "POSITION" : 8,
                        "NORMAL" : 9,
                        "TEXCOORD_0" : 10
                    },
                    "indices" : 11,
                    "material" : 0
                }
            ]
        }
    ],
    "textures" : [
        {
            "sampler" : 0,
            "source" : 0
        }
    ],
    "images" : [
        {
            "bufferView" : 4,
            "mimeType" : "image/png",
            "name" : "tex2"
        }
    ],
    "accessors" : [
        {
            "bufferView" : 0,
            "componentType" : 5126,
            "count" : 468,
            "max" : [
                0.5521634221076965,
                0.5521634221076965,
                1.102163553237915
            ],
            "min" : [
                -0.5521634221076965,
                -2.3245211977496183e-08,
                -0.0021633654832839966
            ],
            "type" : "VEC3"
        },
        {
            "bufferView" : 1,
            "componentType" : 5126,
            "count" : 468,
            "type" : "VEC3"
        },
        {
            "bufferView" : 2,
            "componentType" : 5126,
            "count" : 468,
            "type" : "VEC2"
        },
        {
            "bufferView" : 3,
            "componentType" : 5123,
            "count" : 1830,
            "type" : "SCALAR"
        },
        {
            "bufferView" : 5,
            "componentType" : 5126,
            "count" : 323,
            "max" : [
                0.5521634221076965,
                0.5521634221076965,
                1.102163553237915
            ],
            "min" : [
                -0.5521634221076965,
                -2.3245211977496183e-08,
                -0.0021633654832839966
            ],
            "type" : "VEC3"
        },
        {
            "bufferView" : 6,
            "componentType" : 5126,
            "count" : 323,
            "type" : "VEC3"
        },
        {
            "bufferView" : 7,
            "componentType" : 5126,
            "count" : 323,
            "type" : "VEC2"
        },
        {
            "bufferView" : 8,
            "componentType" : 5123,
            "count" : 1440,
            "type" : "SCALAR"
        },
        {
            "bufferView" : 9,
            "componentType" : 5126,
            "count" : 1292,
            "max" : [
                0.9088489413261414,
                0.9518439769744873,
                0.7280810475349426
            ],
            "min" : [
                -0.9088489413261414,
                0.2557857632637024,
                0.0743877962231636
            ],
            "type" : "VEC3"
        },
        {
            "bufferView" : 10,
            "componentType" : 5126,
            "count" : 1292,
            "type" : "VEC3"
        },
        {
            "bufferView" : 11,
            "componentType" : 5126,
            "count" : 1292,
            "type" : "VEC2"
        },
        {
            "bufferView" : 12,
            "componentType" : 5123,
            "count" : 6144,
            "type" : "SCALAR"
        }
    ],
    "bufferViews" : [
        {
            "buffer" : 0,
            "byteLength" : 5616,
            "byteOffset" : 0
        },
        {
            "buffer" : 0,
            "byteLength" : 5616,
            "byteOffset" : 5616
        },
        {
            "buffer" : 0,
            "byteLength" : 3744,
            "byteOffset" : 11232
        },
        {
            "buffer" : 0,
            "byteLength" : 3660,
            "byteOffset" : 14976
        },
        {
            "buffer" : 0,
            "byteLength" : 6474,
            "byteOffset" : 18636
        },
        {
            "buffer" : 0,
            "byteLength" : 3876,
            "byteOffset" : 25112
        },
        {
            "buffer" : 0,
            "byteLength" : 3876,
            "byteOffset" : 28988
        },
        {
            "buffer" : 0,
            "byteLength" : 2584,
            "byteOffset" : 32864
        },
        {
            "buffer" : 0,
            "byteLength" : 2880,
            "byteOffset" : 35448
        },
        {
            "buffer" : 0,
            "byteLength" : 15504,
            "byteOffset" : 38328
        },
        {
            "buffer" : 0,
            "byteLength" : 15504,
            "byteOffset" : 53832
        },
        {
            "buffer" : 0,
            "byteLength" : 10336,
            "byteOffset" : 69336
        },
        {
            "buffer" : 0,
            "byteLength" : 12288,
            "byteOffset" : 79672
        }
    ],
    "samplers" : [
        {
            "magFilter" : 9729,
            "minFilter" : 9987
        }
    ],
    "buffers" : [
        {
            "byteLength" : 91960,
            "uri" : "data:application/octet-stream;base64,"
        }
    ]
}
