{
    "asset" : {
        "copyright" : "Jeremy Edelblut",
        "generator" : "Khronos glTF Blender I/O v1.6.16",
        "version" : "2.0"
    },
    "scene" : 0,
    "scenes" : [
        {
            "name" : "Scene",
            "nodes" : [
                0,
                1,
                2,
                3,
                4
            ]
        }
    ],
    "nodes" : [
        {
            "mesh" : 0,
            "name" : "Circle.1946",
            "rotation" : [
                -0.5,
                0.5,
                -0.4999999701976776,
                0.5
            ],
            "scale" : [
                0.3999999761581421,
                0.3999999761581421,
                0.3999999761581421
            ],
            "translation" : [
                0.440000057220459,
                0.3277987241744995,
                0
            ]
        },
        {
            "mesh" : 1,
            "name" : "Circle.1947",
            "rotation" : [
                -0.5,
                0.5,
                -0.4999999701976776,
                0.5
            ],
            "scale" : [
                0.3999999761581421,
                0.3999999761581421,
                0.3999999761581421
            ],
            "translation" : [
                0.440000057220459,
                0.3277987241744995,
                0
            ]
        },
        {
            "mesh" : 2,
            "name" : "Cube.6285",
            "rotation" : [
                0,
                0.7071068286895752,
                0,
                0.7071068286895752
            ],
            "scale" : [
                0.3999999761581421,
                0.3999999761581421,
                0.3999999761581421
            ],
            "translation" : [
                0,
                0.5277987122535706,
                0
            ]
        },
        {
            "mesh" : 3,
            "name" : "Cube.6286",
            "rotation" : [
                0,
                0.7071068286895752,
                0,
                0.7071068286895752
            ],
            "scale" : [
                0.23999999463558197,
                0.23999999463558197,
                0.23999999463558197
            ],
            "translation" : [
                0.36000001430511475,
                0.5277987122535706,
                0
            ]
        },
        {
            "mesh" : 4,
            "name" : "Cube.6287",
            "rotation" : [
                0,
                0.7071068286895752,
                0,
                0.7071068286895752
            ],
            "scale" : [
                0.3999999761581421,
                0.3999999761581421,
                0.3999999761581421
            ],
            "translation" : [
                0,
                0.5277987122535706,
                0
            ]
        }
    ],
    "materials" : [
        {
            "doubleSided" : true,
            "name" : "DKBrown",
            "pbrMetallicRoughness" : {
                "baseColorFactor" : [
                    0.010021701455116272,
                    0.0023923655971884727,
                    0.0018060366855934262,
                    1
                ],
                "metallicFactor" : 0,
                "roughnessFactor" : 0.5
            }
        },
        {
            "doubleSided" : true,
            "name" : "blond",
            "pbrMetallicRoughness" : {
                "baseColorFactor" : [
                    0.7873942852020264,
                    0.5489762425422668,
                    0.04593009129166603,
                    1
                ],
                "metallicFactor" : 0,
                "roughnessFactor" : 0.5
            }
        },
        {
            "doubleSided" : true,
            "name" : "white",
            "pbrMetallicRoughness" : {
                "baseColorFactor" : [
                    0.800000011920929,
                    0.800000011920929,
                    0.800000011920929,
                    1
                ],
                "metallicFactor" : 0,
                "roughnessFactor" : 0.5
            }
        },
        {
            "doubleSided" : true,
            "name" : "Red_body",
            "pbrMetallicRoughness" : {
                "baseColorTexture" : {
                    "index" : 0
                },
                "metallicFactor" : 0,
                "roughnessFactor" : 0.5
            }
        }
    ],
    "meshes" : [
        {
            "name" : "Circle.2165",
            "primitives" : [
                {
                    "attributes" : {
                        "POSITION" : 0,
                        "NORMAL" : 1,
                        "TEXCOORD_0" : 2
                    },
                    "indices" : 3,
                    "material" : 0
                },
                {
                    "attributes" : {
                        "POSITION" : 4,
                        "NORMAL" : 5,
                        "TEXCOORD_0" : 6
                    },
                    "indices" : 7,
                    "material" : 1
                }
            ]
        },
        {
            "name" : "Circle.2166",
            "primitives" : [
                {
                    "attributes" : {
                        "POSITION" : 8,
                        "NORMAL" : 9,
                        "TEXCOORD_0" : 10
                    },
                    "indices" : 11,
                    "material" : 2
                }
            ]
        },
        {
            "name" : "Cube.7347",
            "primitives" : [
                {
                    "attributes" : {
                        "POSITION" : 12,
                        "NORMAL" : 13,
                        "TEXCOORD_0" : 14
                    },
                    "indices" : 15,
                    "material" : 1
                }
            ]
        },
        {
            "name" : "Cube.7348",
            "primitives" : [
                {
                    "attributes" : {
                        "POSITION" : 16,
                        "NORMAL" : 17,
                        "TEXCOORD_0" : 18
                    },
                    "indices" : 19,
                    "material" : 3
                }
            ]
        },
        {
            "name" : "Cube.7349",
            "primitives" : [
                {
                    "attributes" : {
                        "POSITION" : 20,
                        "NORMAL" : 21,
                        "TEXCOORD_0" : 22
                    },
                    "indices" : 23,
                    "material" : 3
                }
            ]
        }
    ],
    "textures" : [
        {
            "sampler" : 0,
            "source" : 0
        }
    ],
    "images" : [
        {
            "bufferView" : 20,
            "mimeType" : "image/png",
            "name" : "Rectangle 2"
        }
    ],
    "accessors" : [
        {
            "bufferView" : 0,
            "componentType" : 5126,
            "count" : 192,
            "max" : [
                -0.520626962184906,
                0.6873205900192261,
                -0.07627081871032715
            ],
            "min" : [
                -0.8361582159996033,
                -0.6873205900192261,
                -0.1518096625804901
            ],
            "type" : "VEC3"
        },
        {
            "bufferView" : 1,
            "componentType" : 5126,
            "count" : 192,
            "type" : "VEC3"
        },
        {
            "bufferView" : 2,
            "componentType" : 5126,
            "count" : 192,
            "type" : "VEC2"
        },
        {
            "bufferView" : 3,
            "componentType" : 5123,
            "count" : 564,
            "type" : "SCALAR"
        },
        {
            "bufferView" : 4,
            "componentType" : 5126,
            "count" : 132,
            "max" : [
                1.9855337142944336,
                2.2534704208374023,
                -1.5017133951187134
            ],
            "min" : [
                0.27353233098983765,
                -2.2534704208374023,
                -2.2247753143310547
            ],
            "type" : "VEC3"
        },
        {
            "bufferView" : 5,
            "componentType" : 5126,
            "count" : 132,
            "type" : "VEC3"
        },
        {
            "bufferView" : 6,
            "componentType" : 5126,
            "count" : 132,
            "type" : "VEC2"
        },
        {
            "bufferView" : 7,
            "componentType" : 5123,
            "count" : 336,
            "type" : "SCALAR"
        },
        {
            "bufferView" : 8,
            "componentType" : 5126,
            "count" : 512,
            "max" : [
                -0.5616508722305298,
                0.6382310390472412,
                -0.06877250969409943
            ],
            "min" : [
                -0.8032082319259644,
                -0.6343553066253662,
                -0.1076914519071579
            ],
            "type" : "VEC3"
        },
        {
            "bufferView" : 9,
            "componentType" : 5126,
            "count" : 512,
            "type" : "VEC3"
        },
        {
            "bufferView" : 10,
            "componentType" : 5126,
            "count" : 512,
            "type" : "VEC2"
        },
        {
            "bufferView" : 11,
            "componentType" : 5123,
            "count" : 1488,
            "type" : "SCALAR"
        },
        {
            "bufferView" : 12,
            "componentType" : 5126,
            "count" : 178,
            "max" : [
                0.9000000357627869,
                0.9999998807907104,
                0.9999999403953552
            ],
            "min" : [
                -0.9000000357627869,
                -2.811533212661743,
                -3.2024128437042236
            ],
            "type" : "VEC3"
        },
        {
            "bufferView" : 13,
            "componentType" : 5126,
            "count" : 178,
            "type" : "VEC3"
        },
        {
            "bufferView" : 14,
            "componentType" : 5126,
            "count" : 178,
            "type" : "VEC2"
        },
        {
            "bufferView" : 15,
            "componentType" : 5123,
            "count" : 504,
            "type" : "SCALAR"
        },
        {
            "bufferView" : 16,
            "componentType" : 5126,
            "count" : 70,
            "max" : [
                0.30000001192092896,
                0.2565896809101105,
                0.800000011920929
            ],
            "min" : [
                -0.30000001192092896,
                -0.2565896809101105,
                0
            ],
            "type" : "VEC3"
        },
        {
            "bufferView" : 17,
            "componentType" : 5126,
            "count" : 70,
            "type" : "VEC3"
        },
        {
            "bufferView" : 18,
            "componentType" : 5126,
            "count" : 70,
            "type" : "VEC2"
        },
        {
            "bufferView" : 19,
            "componentType" : 5123,
            "count" : 120,
            "type" : "SCALAR"
        },
        {
            "bufferView" : 21,
            "componentType" : 5126,
            "count" : 890,
            "max" : [
                0.8137674331665039,
                -2.325914144515991,
                -0.10678696632385254
            ],
            "min" : [
                -0.8137674331665039,
                -3.928807020187378,
                -1.156166672706604
            ],
            "type" : "VEC3"
        },
        {
            "bufferView" : 22,
            "componentType" : 5126,
            "count" : 890,
            "type" : "VEC3"
        },
        {
            "bufferView" : 23,
            "componentType" : 5126,
            "count" : 890,
            "type" : "VEC2"
        },
        {
            "bufferView" : 24,
            "componentType" : 5123,
            "count" : 1416,
            "type" : "SCALAR"
        }
    ],
    "bufferViews" : [
        {
            "buffer" : 0,
            "byteLength" : 2304,
            "byteOffset" : 0
        },
        {
            "buffer" : 0,
            "byteLength" : 2304,
            "byteOffset" : 2304
        },
        {
            "buffer" : 0,
            "byteLength" : 1536,
            "byteOffset" : 4608
        },
        {
            "buffer" : 0,
            "byteLength" : 1128,
            "byteOffset" : 6144
        },
        {
            "buffer" : 0,
            "byteLength" : 1584,
            "byteOffset" : 7272
        },
        {
            "buffer" : 0,
            "byteLength" : 1584,
            "byteOffset" : 8856
        },
        {
            "buffer" : 0,
            "byteLength" : 1056,
            "byteOffset" : 10440
        },
        {
            "buffer" : 0,
            "byteLength" : 672,
            "byteOffset" : 11496
        },
        {
            "buffer" : 0,
            "byteLength" : 6144,
            "byteOffset" : 12168
        },
        {
            "buffer" : 0,
            "byteLength" : 6144,
            "byteOffset" : 18312
        },
        {
            "buffer" : 0,
            "byteLength" : 4096,
            "byteOffset" : 24456
        },
        {
            "buffer" : 0,
            "byteLength" : 2976,
            "byteOffset" : 28552
        },
        {
            "buffer" : 0,
            "byteLength" : 2136,
            "byteOffset" : 31528
        },
        {
            "buffer" : 0,
            "byteLength" : 2136,
            "byteOffset" : 33664
        },
        {
            "buffer" : 0,
            "byteLength" : 1424,
            "byteOffset" : 35800
        },
        {
            "buffer" : 0,
            "byteLength" : 1008,
            "byteOffset" : 37224
        },
        {
            "buffer" : 0,
            "byteLength" : 840,
            "byteOffset" : 38232
        },
        {
            "buffer" : 0,
            "byteLength" : 840,
            "byteOffset" : 39072
        },
        {
            "buffer" : 0,
            "byteLength" : 560,
            "byteOffset" : 39912
        },
        {
            "buffer" : 0,
            "byteLength" : 240,
            "byteOffset" : 40472
        },
        {
            "buffer" : 0,
            "byteLength" : 102120,
            "byteOffset" : 40712
        },
        {
            "buffer" : 0,
            "byteLength" : 10680,
            "byteOffset" : 142832
        },
        {
            "buffer" : 0,
            "byteLength" : 10680,
            "byteOffset" : 153512
        },
        {
            "buffer" : 0,
            "byteLength" : 7120,
            "byteOffset" : 164192
        },
        {
            "buffer" : 0,
            "byteLength" : 2832,
            "byteOffset" : 171312
        }
    ],
    "samplers" : [
        {
            "magFilter" : 9729,
            "minFilter" : 9987
        }
    ],
    "buffers" : [
        {
            "byteLength" : 174144,
            "uri" : "data:application/octet-stream;base64,"
        }
    ]
}
