{
    "asset" : {
        "copyright" : "Jeremy Edelblut",
        "generator" : "Khronos glTF Blender I/O v1.6.16",
        "version" : "2.0"
    },
    "scene" : 0,
    "scenes" : [
        {
            "name" : "Scene",
            "nodes" : [
                0,
                1
            ]
        }
    ],
    "nodes" : [
        {
            "mesh" : 0,
            "name" : "Icosphere.009",
            "rotation" : [
                -0.6026170253753662,
                -0.36993616819381714,
                0.36993616819381714,
                -0.6026169657707214
            ]
        },
        {
            "mesh" : 1,
            "name" : "Circle.2110",
            "rotation" : [
                0.7071068286895752,
                0,
                0,
                0.7071068286895752
            ],
            "translation" : [
                0.0012895155232399702,
                -1.4077871128392871e-05,
                0
            ]
        }
    ],
    "materials" : [
        {
            "doubleSided" : true,
            "name" : "Color",
            "pbrMetallicRoughness" : {
                "baseColorTexture" : {
                    "index" : 0
                },
                "metallicFactor" : 0,
                "roughnessFactor" : 0.5
            }
        },
        {
            "doubleSided" : true,
            "name" : "DKBrown",
            "pbrMetallicRoughness" : {
                "baseColorFactor" : [
                    0.010021701455116272,
                    0.0023923655971884727,
                    0.0018060366855934262,
                    1
                ],
                "metallicFactor" : 0,
                "roughnessFactor" : 0.5
            }
        }
    ],
    "meshes" : [
        {
            "name" : "Icosphere.010",
            "primitives" : [
                {
                    "attributes" : {
                        "POSITION" : 0,
                        "NORMAL" : 1,
                        "TEXCOORD_0" : 2
                    },
                    "indices" : 3,
                    "material" : 0
                }
            ]
        },
        {
            "name" : "Circle.2495",
            "primitives" : [
                {
                    "attributes" : {
                        "POSITION" : 4,
                        "NORMAL" : 5,
                        "TEXCOORD_0" : 6
                    },
                    "indices" : 7,
                    "material" : 1
                }
            ]
        }
    ],
    "textures" : [
        {
            "sampler" : 0,
            "source" : 0
        }
    ],
    "images" : [
        {
            "bufferView" : 4,
            "mimeType" : "image/png",
            "name" : "tex"
        }
    ],
    "accessors" : [
        {
            "bufferView" : 0,
            "componentType" : 5126,
            "count" : 991,
            "max" : [
                1.013635516166687,
                1.0435622930526733,
                1.0371819734573364
            ],
            "min" : [
                -0.9999999403953552,
                -1,
                -0.9999999403953552
            ],
            "type" : "VEC3"
        },
        {
            "bufferView" : 1,
            "componentType" : 5126,
            "count" : 991,
            "type" : "VEC3"
        },
        {
            "bufferView" : 2,
            "componentType" : 5126,
            "count" : 991,
            "type" : "VEC2"
        },
        {
            "bufferView" : 3,
            "componentType" : 5123,
            "count" : 2994,
            "type" : "SCALAR"
        },
        {
            "bufferView" : 5,
            "componentType" : 5126,
            "count" : 452,
            "max" : [
                0.36459049582481384,
                0.9915751218795776,
                -0.03439629450440407
            ],
            "min" : [
                -0.36459049582481384,
                0.8962885141372681,
                -0.31976374983787537
            ],
            "type" : "VEC3"
        },
        {
            "bufferView" : 6,
            "componentType" : 5126,
            "count" : 452,
            "type" : "VEC3"
        },
        {
            "bufferView" : 7,
            "componentType" : 5126,
            "count" : 452,
            "type" : "VEC2"
        },
        {
            "bufferView" : 8,
            "componentType" : 5123,
            "count" : 1920,
            "type" : "SCALAR"
        }
    ],
    "bufferViews" : [
        {
            "buffer" : 0,
            "byteLength" : 11892,
            "byteOffset" : 0
        },
        {
            "buffer" : 0,
            "byteLength" : 11892,
            "byteOffset" : 11892
        },
        {
            "buffer" : 0,
            "byteLength" : 7928,
            "byteOffset" : 23784
        },
        {
            "buffer" : 0,
            "byteLength" : 5988,
            "byteOffset" : 31712
        },
        {
            "buffer" : 0,
            "byteLength" : 1322,
            "byteOffset" : 37700
        },
        {
            "buffer" : 0,
            "byteLength" : 5424,
            "byteOffset" : 39024
        },
        {
            "buffer" : 0,
            "byteLength" : 5424,
            "byteOffset" : 44448
        },
        {
            "buffer" : 0,
            "byteLength" : 3616,
            "byteOffset" : 49872
        },
        {
            "buffer" : 0,
            "byteLength" : 3840,
            "byteOffset" : 53488
        }
    ],
    "samplers" : [
        {
            "magFilter" : 9729,
            "minFilter" : 9987
        }
    ],
    "buffers" : [
        {
            "byteLength" : 57328,
            "uri" : "data:application/octet-stream;base64,"
        }
    ]
}
