{
    "asset" : {
        "copyright" : "Jeremy Edelblut",
        "generator" : "Khronos glTF Blender I/O v1.7.33",
        "version" : "2.0"
    },
    "scene" : 2,
    "scenes" : [
        {
            "name" : "FBX_Temp",
            "nodes" : [
                0
            ]
        },
        {
            "name" : "FBX_Temp.001",
            "nodes" : [
                1
            ]
        },
        {
            "name" : "Scene",
            "nodes" : [
                2,
                3,
                4,
                5,
                6,
                7,
                8,
                9
            ]
        }
    ],
    "nodes" : [
        {
            "mesh" : 0,
            "name" : "3moji.064",
            "rotation" : [
                0,
                -0.7071068286895752,
                0,
                0.7071068286895752
            ]
        },
        {
            "mesh" : 1,
            "name" : "3moji.org.002",
            "rotation" : [
                -0.5,
                0.5,
                -0.4999999701976776,
                0.5
            ],
            "scale" : [
                0.010577797889709473,
                0.010577797889709473,
                0.010577797889709473
            ],
            "translation" : [
                0.007795508019626141,
                -0.920851469039917,
                0
            ]
        },
        {
            "mesh" : 2,
            "name" : "Circle.292"
        },
        {
            "mesh" : 3,
            "name" : "Circle.298"
        },
        {
            "mesh" : 4,
            "name" : "Roundcube.005"
        },
        {
            "mesh" : 5,
            "name" : "Cube.179"
        },
        {
            "mesh" : 6,
            "name" : "Circle.300"
        },
        {
            "mesh" : 7,
            "name" : "Cube.197"
        },
        {
            "mesh" : 8,
            "name" : "Cube.198"
        },
        {
            "mesh" : 9,
            "name" : "ears.003"
        }
    ],
    "materials" : [
        {
            "doubleSided" : true,
            "name" : "color",
            "pbrMetallicRoughness" : {
                "baseColorTexture" : {
                    "index" : 0
                },
                "metallicFactor" : 0,
                "roughnessFactor" : 0.5
            }
        },
        {
            "doubleSided" : true,
            "name" : "skin_tone_one",
            "pbrMetallicRoughness" : {
                "baseColorTexture" : {
                    "index" : 1
                },
                "metallicFactor" : 0,
                "roughnessFactor" : 0.5
            }
        }
    ],
    "meshes" : [
        {
            "name" : "Cube.417",
            "primitives" : [
                {
                    "attributes" : {
                        "POSITION" : 0,
                        "NORMAL" : 1,
                        "TEXCOORD_0" : 2
                    },
                    "indices" : 3,
                    "material" : 0
                }
            ]
        },
        {
            "name" : "Cube.056",
            "primitives" : [
                {
                    "attributes" : {
                        "POSITION" : 4,
                        "NORMAL" : 5,
                        "TEXCOORD_0" : 6
                    },
                    "indices" : 7
                }
            ]
        },
        {
            "name" : "Circle.329",
            "primitives" : [
                {
                    "attributes" : {
                        "POSITION" : 8,
                        "NORMAL" : 9,
                        "TEXCOORD_0" : 10
                    },
                    "indices" : 11,
                    "material" : 0
                }
            ]
        },
        {
            "name" : "Circle.330",
            "primitives" : [
                {
                    "attributes" : {
                        "POSITION" : 12,
                        "NORMAL" : 13,
                        "TEXCOORD_0" : 14
                    },
                    "indices" : 15,
                    "material" : 1
                }
            ]
        },
        {
            "name" : "Roundcube.005",
            "primitives" : [
                {
                    "attributes" : {
                        "POSITION" : 16,
                        "NORMAL" : 17,
                        "TEXCOORD_0" : 18
                    },
                    "indices" : 19,
                    "material" : 0
                },
                {
                    "attributes" : {
                        "POSITION" : 20,
                        "NORMAL" : 21,
                        "TEXCOORD_0" : 22
                    },
                    "indices" : 23,
                    "material" : 1
                }
            ]
        },
        {
            "name" : "Cube.315",
            "primitives" : [
                {
                    "attributes" : {
                        "POSITION" : 24,
                        "NORMAL" : 25,
                        "TEXCOORD_0" : 26
                    },
                    "indices" : 27,
                    "material" : 1
                }
            ]
        },
        {
            "name" : "Circle.331",
            "primitives" : [
                {
                    "attributes" : {
                        "POSITION" : 28,
                        "NORMAL" : 29,
                        "TEXCOORD_0" : 30
                    },
                    "indices" : 31,
                    "material" : 1
                }
            ]
        },
        {
            "name" : "Cube.333",
            "primitives" : [
                {
                    "attributes" : {
                        "POSITION" : 32,
                        "NORMAL" : 33,
                        "TEXCOORD_0" : 34
                    },
                    "indices" : 35,
                    "material" : 1
                }
            ]
        },
        {
            "name" : "Cube.335",
            "primitives" : [
                {
                    "attributes" : {
                        "POSITION" : 36,
                        "NORMAL" : 37,
                        "TEXCOORD_0" : 38
                    },
                    "indices" : 39,
                    "material" : 0
                }
            ]
        },
        {
            "name" : "Cylinder.243",
            "primitives" : [
                {
                    "attributes" : {
                        "POSITION" : 40,
                        "NORMAL" : 41,
                        "TEXCOORD_0" : 42
                    },
                    "indices" : 43,
                    "material" : 1
                }
            ]
        }
    ],
    "textures" : [
        {
            "sampler" : 0,
            "source" : 0
        },
        {
            "sampler" : 0,
            "source" : 0
        }
    ],
    "images" : [
        {
            "bufferView" : 4,
            "mimeType" : "image/png",
            "name" : "tex"
        }
    ],
    "accessors" : [
        {
            "bufferView" : 0,
            "componentType" : 5126,
            "count" : 752,
            "max" : [
                -0.8264395594596863,
                0.05719918757677078,
                0.13795676827430725
            ],
            "min" : [
                -0.8543609976768494,
                -0.014034310355782509,
                -0.12436223030090332
            ],
            "type" : "VEC3"
        },
        {
            "bufferView" : 1,
            "componentType" : 5126,
            "count" : 752,
            "type" : "VEC3"
        },
        {
            "bufferView" : 2,
            "componentType" : 5126,
            "count" : 752,
            "type" : "VEC2"
        },
        {
            "bufferView" : 3,
            "componentType" : 5123,
            "count" : 1680,
            "type" : "SCALAR"
        },
        {
            "bufferView" : 5,
            "componentType" : 5126,
            "count" : 752,
            "max" : [
                2.8738752007484436e-05,
                7.90000057220459,
                17.240537643432617
            ],
            "min" : [
                -2.0099713802337646,
                -1.8999989032745361,
                -19.159460067749023
            ],
            "type" : "VEC3"
        },
        {
            "bufferView" : 6,
            "componentType" : 5126,
            "count" : 752,
            "type" : "VEC3"
        },
        {
            "bufferView" : 7,
            "componentType" : 5126,
            "count" : 752,
            "type" : "VEC2"
        },
        {
            "bufferView" : 8,
            "componentType" : 5123,
            "count" : 1680,
            "type" : "SCALAR"
        },
        {
            "bufferView" : 9,
            "componentType" : 5126,
            "count" : 452,
            "max" : [
                0.3528904318809509,
                0.14827841520309448,
                0.5797369480133057
            ],
            "min" : [
                -0.3528904318809509,
                -0.09811244904994965,
                0.4864511489868164
            ],
            "type" : "VEC3"
        },
        {
            "bufferView" : 10,
            "componentType" : 5126,
            "count" : 452,
            "type" : "VEC3"
        },
        {
            "bufferView" : 11,
            "componentType" : 5126,
            "count" : 452,
            "type" : "VEC2"
        },
        {
            "bufferView" : 12,
            "componentType" : 5123,
            "count" : 1920,
            "type" : "SCALAR"
        },
        {
            "bufferView" : 13,
            "componentType" : 5126,
            "count" : 142,
            "max" : [
                0.06909900158643723,
                -0.1094161868095398,
                0.5944318771362305
            ],
            "min" : [
                -0.06708785146474838,
                -0.18801085650920868,
                0.565708577632904
            ],
            "type" : "VEC3"
        },
        {
            "bufferView" : 14,
            "componentType" : 5126,
            "count" : 142,
            "type" : "VEC3"
        },
        {
            "bufferView" : 15,
            "componentType" : 5126,
            "count" : 142,
            "type" : "VEC2"
        },
        {
            "bufferView" : 16,
            "componentType" : 5123,
            "count" : 528,
            "type" : "SCALAR"
        },
        {
            "bufferView" : 17,
            "componentType" : 5126,
            "count" : 85,
            "max" : [
                0.18247844278812408,
                -0.3066522479057312,
                0.4926007390022278
            ],
            "min" : [
                -0.17046840488910675,
                -0.42757448554039,
                0.45513594150543213
            ],
            "type" : "VEC3"
        },
        {
            "bufferView" : 18,
            "componentType" : 5126,
            "count" : 85,
            "type" : "VEC3"
        },
        {
            "bufferView" : 19,
            "componentType" : 5126,
            "count" : 85,
            "type" : "VEC2"
        },
        {
            "bufferView" : 20,
            "componentType" : 5123,
            "count" : 384,
            "type" : "SCALAR"
        },
        {
            "bufferView" : 21,
            "componentType" : 5126,
            "count" : 1892,
            "max" : [
                0.7166095972061157,
                0.7037864923477173,
                0.5776224732398987
            ],
            "min" : [
                -0.7167528867721558,
                -0.8208202719688416,
                -0.9389863610267639
            ],
            "type" : "VEC3"
        },
        {
            "bufferView" : 22,
            "componentType" : 5126,
            "count" : 1892,
            "type" : "VEC3"
        },
        {
            "bufferView" : 23,
            "componentType" : 5126,
            "count" : 1892,
            "type" : "VEC2"
        },
        {
            "bufferView" : 24,
            "componentType" : 5123,
            "count" : 7740,
            "type" : "SCALAR"
        },
        {
            "bufferView" : 25,
            "componentType" : 5126,
            "count" : 1984,
            "max" : [
                0.8221715688705444,
                0.8331032395362854,
                0.679538905620575
            ],
            "min" : [
                -0.9047801494598389,
                -0.4591439962387085,
                -1.1388622522354126
            ],
            "type" : "VEC3"
        },
        {
            "bufferView" : 26,
            "componentType" : 5126,
            "count" : 1984,
            "type" : "VEC3"
        },
        {
            "bufferView" : 27,
            "componentType" : 5126,
            "count" : 1984,
            "type" : "VEC2"
        },
        {
            "bufferView" : 28,
            "componentType" : 5123,
            "count" : 4710,
            "type" : "SCALAR"
        },
        {
            "bufferView" : 29,
            "componentType" : 5126,
            "count" : 300,
            "max" : [
                0.41738611459732056,
                0.293071985244751,
                0.5376541614532471
            ],
            "min" : [
                -0.41738611459732056,
                0.14261150360107422,
                0.4138912856578827
            ],
            "type" : "VEC3"
        },
        {
            "bufferView" : 30,
            "componentType" : 5126,
            "count" : 300,
            "type" : "VEC3"
        },
        {
            "bufferView" : 31,
            "componentType" : 5126,
            "count" : 300,
            "type" : "VEC2"
        },
        {
            "bufferView" : 32,
            "componentType" : 5123,
            "count" : 1152,
            "type" : "SCALAR"
        },
        {
            "bufferView" : 33,
            "componentType" : 5126,
            "count" : 230,
            "max" : [
                1.0228294134140015,
                -0.31469303369522095,
                -0.5597680807113647
            ],
            "min" : [
                -1.022829532623291,
                -0.8752714395523071,
                -0.9878503680229187
            ],
            "type" : "VEC3"
        },
        {
            "bufferView" : 34,
            "componentType" : 5126,
            "count" : 230,
            "type" : "VEC3"
        },
        {
            "bufferView" : 35,
            "componentType" : 5126,
            "count" : 230,
            "type" : "VEC2"
        },
        {
            "bufferView" : 36,
            "componentType" : 5123,
            "count" : 672,
            "type" : "SCALAR"
        },
        {
            "bufferView" : 37,
            "componentType" : 5126,
            "count" : 256,
            "max" : [
                0.7436456084251404,
                -0.25001704692840576,
                -0.5237953066825867
            ],
            "min" : [
                -0.7436454892158508,
                -0.5070642828941345,
                -0.8515173196792603
            ],
            "type" : "VEC3"
        },
        {
            "bufferView" : 38,
            "componentType" : 5126,
            "count" : 256,
            "type" : "VEC3"
        },
        {
            "bufferView" : 39,
            "componentType" : 5126,
            "count" : 256,
            "type" : "VEC2"
        },
        {
            "bufferView" : 40,
            "componentType" : 5123,
            "count" : 768,
            "type" : "SCALAR"
        },
        {
            "bufferView" : 41,
            "componentType" : 5126,
            "count" : 1181,
            "max" : [
                0.8778747320175171,
                0.21737711131572723,
                -0.10627720504999161
            ],
            "min" : [
                -0.8778746724128723,
                -0.22943444550037384,
                -0.36960697174072266
            ],
            "type" : "VEC3"
        },
        {
            "bufferView" : 42,
            "componentType" : 5126,
            "count" : 1181,
            "type" : "VEC3"
        },
        {
            "bufferView" : 43,
            "componentType" : 5126,
            "count" : 1181,
            "type" : "VEC2"
        },
        {
            "bufferView" : 44,
            "componentType" : 5123,
            "count" : 4992,
            "type" : "SCALAR"
        }
    ],
    "bufferViews" : [
        {
            "buffer" : 0,
            "byteLength" : 9024,
            "byteOffset" : 0
        },
        {
            "buffer" : 0,
            "byteLength" : 9024,
            "byteOffset" : 9024
        },
        {
            "buffer" : 0,
            "byteLength" : 6016,
            "byteOffset" : 18048
        },
        {
            "buffer" : 0,
            "byteLength" : 3360,
            "byteOffset" : 24064
        },
        {
            "buffer" : 0,
            "byteLength" : 11997,
            "byteOffset" : 27424
        },
        {
            "buffer" : 0,
            "byteLength" : 9024,
            "byteOffset" : 39424
        },
        {
            "buffer" : 0,
            "byteLength" : 9024,
            "byteOffset" : 48448
        },
        {
            "buffer" : 0,
            "byteLength" : 6016,
            "byteOffset" : 57472
        },
        {
            "buffer" : 0,
            "byteLength" : 3360,
            "byteOffset" : 63488
        },
        {
            "buffer" : 0,
            "byteLength" : 5424,
            "byteOffset" : 66848
        },
        {
            "buffer" : 0,
            "byteLength" : 5424,
            "byteOffset" : 72272
        },
        {
            "buffer" : 0,
            "byteLength" : 3616,
            "byteOffset" : 77696
        },
        {
            "buffer" : 0,
            "byteLength" : 3840,
            "byteOffset" : 81312
        },
        {
            "buffer" : 0,
            "byteLength" : 1704,
            "byteOffset" : 85152
        },
        {
            "buffer" : 0,
            "byteLength" : 1704,
            "byteOffset" : 86856
        },
        {
            "buffer" : 0,
            "byteLength" : 1136,
            "byteOffset" : 88560
        },
        {
            "buffer" : 0,
            "byteLength" : 1056,
            "byteOffset" : 89696
        },
        {
            "buffer" : 0,
            "byteLength" : 1020,
            "byteOffset" : 90752
        },
        {
            "buffer" : 0,
            "byteLength" : 1020,
            "byteOffset" : 91772
        },
        {
            "buffer" : 0,
            "byteLength" : 680,
            "byteOffset" : 92792
        },
        {
            "buffer" : 0,
            "byteLength" : 768,
            "byteOffset" : 93472
        },
        {
            "buffer" : 0,
            "byteLength" : 22704,
            "byteOffset" : 94240
        },
        {
            "buffer" : 0,
            "byteLength" : 22704,
            "byteOffset" : 116944
        },
        {
            "buffer" : 0,
            "byteLength" : 15136,
            "byteOffset" : 139648
        },
        {
            "buffer" : 0,
            "byteLength" : 15480,
            "byteOffset" : 154784
        },
        {
            "buffer" : 0,
            "byteLength" : 23808,
            "byteOffset" : 170264
        },
        {
            "buffer" : 0,
            "byteLength" : 23808,
            "byteOffset" : 194072
        },
        {
            "buffer" : 0,
            "byteLength" : 15872,
            "byteOffset" : 217880
        },
        {
            "buffer" : 0,
            "byteLength" : 9420,
            "byteOffset" : 233752
        },
        {
            "buffer" : 0,
            "byteLength" : 3600,
            "byteOffset" : 243172
        },
        {
            "buffer" : 0,
            "byteLength" : 3600,
            "byteOffset" : 246772
        },
        {
            "buffer" : 0,
            "byteLength" : 2400,
            "byteOffset" : 250372
        },
        {
            "buffer" : 0,
            "byteLength" : 2304,
            "byteOffset" : 252772
        },
        {
            "buffer" : 0,
            "byteLength" : 2760,
            "byteOffset" : 255076
        },
        {
            "buffer" : 0,
            "byteLength" : 2760,
            "byteOffset" : 257836
        },
        {
            "buffer" : 0,
            "byteLength" : 1840,
            "byteOffset" : 260596
        },
        {
            "buffer" : 0,
            "byteLength" : 1344,
            "byteOffset" : 262436
        },
        {
            "buffer" : 0,
            "byteLength" : 3072,
            "byteOffset" : 263780
        },
        {
            "buffer" : 0,
            "byteLength" : 3072,
            "byteOffset" : 266852
        },
        {
            "buffer" : 0,
            "byteLength" : 2048,
            "byteOffset" : 269924
        },
        {
            "buffer" : 0,
            "byteLength" : 1536,
            "byteOffset" : 271972
        },
        {
            "buffer" : 0,
            "byteLength" : 14172,
            "byteOffset" : 273508
        },
        {
            "buffer" : 0,
            "byteLength" : 14172,
            "byteOffset" : 287680
        },
        {
            "buffer" : 0,
            "byteLength" : 9448,
            "byteOffset" : 301852
        },
        {
            "buffer" : 0,
            "byteLength" : 9984,
            "byteOffset" : 311300
        }
    ],
    "samplers" : [
        {
            "magFilter" : 9729,
            "minFilter" : 9987
        }
    ],
    "buffers" : [
        {
            "byteLength" : 321284,
            "uri" : "data:application/octet-stream;base64,"
        }
    ]
}
