{
    "asset" : {
        "copyright" : "Jeremy Edelblut",
        "generator" : "Khronos glTF Blender I/O v1.6.16",
        "version" : "2.0"
    },
    "scene" : 0,
    "scenes" : [
        {
            "name" : "Scene",
            "nodes" : [
                0,
                1
            ]
        }
    ],
    "nodes" : [
        {
            "mesh" : 0,
            "name" : "Cube.6107",
            "rotation" : [
                0,
                0,
                0.7071067094802856,
                0.7071068286895752
            ],
            "scale" : [
                0.43157312273979187,
                0.43157312273979187,
                0.43157312273979187
            ],
            "translation" : [
                0.133242666721344,
                -0.2871224880218506,
                0.008138986304402351
            ]
        },
        {
            "mesh" : 1,
            "name" : "Cube.6108",
            "rotation" : [
                -0.10352795571088791,
                0.10352795571088791,
                0.6994869112968445,
                0.6994869709014893
            ],
            "scale" : [
                0.43157312273979187,
                0.43157312273979187,
                0.43157312273979187
            ],
            "translation" : [
                0.3355692923069,
                -0.37137967348098755,
                -0.24108532071113586
            ]
        }
    ],
    "materials" : [
        {
            "doubleSided" : true,
            "name" : "Lightblue",
            "pbrMetallicRoughness" : {
                "baseColorFactor" : [
                    0.14018823206424713,
                    0.3480164408683777,
                    0.8000000715255737,
                    1
                ],
                "metallicFactor" : 0,
                "roughnessFactor" : 0.5
            }
        }
    ],
    "meshes" : [
        {
            "name" : "Cube.7135",
            "primitives" : [
                {
                    "attributes" : {
                        "POSITION" : 0,
                        "NORMAL" : 1,
                        "TEXCOORD_0" : 2
                    },
                    "indices" : 3,
                    "material" : 0
                }
            ]
        },
        {
            "name" : "Cube.7137",
            "primitives" : [
                {
                    "attributes" : {
                        "POSITION" : 4,
                        "NORMAL" : 5,
                        "TEXCOORD_0" : 6
                    },
                    "indices" : 3,
                    "material" : 0
                }
            ]
        }
    ],
    "accessors" : [
        {
            "bufferView" : 0,
            "componentType" : 5126,
            "count" : 4838,
            "max" : [
                2.9563486576080322,
                0.10990570485591888,
                1.9938042163848877
            ],
            "min" : [
                -1.1743900775909424,
                -0.10990568995475769,
                -0.9958741664886475
            ],
            "type" : "VEC3"
        },
        {
            "bufferView" : 1,
            "componentType" : 5126,
            "count" : 4838,
            "type" : "VEC3"
        },
        {
            "bufferView" : 2,
            "componentType" : 5126,
            "count" : 4838,
            "type" : "VEC2"
        },
        {
            "bufferView" : 3,
            "componentType" : 5123,
            "count" : 25872,
            "type" : "SCALAR"
        },
        {
            "bufferView" : 4,
            "componentType" : 5126,
            "count" : 4838,
            "max" : [
                2.9563486576080322,
                0.10990570485591888,
                1.9938042163848877
            ],
            "min" : [
                -1.1743900775909424,
                -0.10990568995475769,
                -0.9958741664886475
            ],
            "type" : "VEC3"
        },
        {
            "bufferView" : 5,
            "componentType" : 5126,
            "count" : 4838,
            "type" : "VEC3"
        },
        {
            "bufferView" : 6,
            "componentType" : 5126,
            "count" : 4838,
            "type" : "VEC2"
        }
    ],
    "bufferViews" : [
        {
            "buffer" : 0,
            "byteLength" : 58056,
            "byteOffset" : 0
        },
        {
            "buffer" : 0,
            "byteLength" : 58056,
            "byteOffset" : 58056
        },
        {
            "buffer" : 0,
            "byteLength" : 38704,
            "byteOffset" : 116112
        },
        {
            "buffer" : 0,
            "byteLength" : 51744,
            "byteOffset" : 154816
        },
        {
            "buffer" : 0,
            "byteLength" : 58056,
            "byteOffset" : 206560
        },
        {
            "buffer" : 0,
            "byteLength" : 58056,
            "byteOffset" : 264616
        },
        {
            "buffer" : 0,
            "byteLength" : 38704,
            "byteOffset" : 322672
        }
    ],
    "buffers" : [
        {
            "byteLength" : 361376,
            "uri" : "data:application/octet-stream;base64,"
        }
    ]
}
