{
    "asset" : {
        "copyright" : "Jeremy Edelblut",
        "generator" : "Khronos glTF Blender I/O v1.6.16",
        "version" : "2.0"
    },
    "scene" : 0,
    "scenes" : [
        {
            "name" : "Scene",
            "nodes" : [
                0,
                1
            ]
        }
    ],
    "nodes" : [
        {
            "name" : "Cube.022",
            "rotation" : [
                0,
                -0.7071068286895752,
                0,
                0.7071068286895752
            ],
            "scale" : [
                0.15855468809604645,
                0.15855468809604645,
                0.15855468809604645
            ],
            "translation" : [
                0,
                0.04403064772486687,
                0.7637249827384949
            ]
        },
        {
            "mesh" : 0,
            "name" : "Ball.104",
            "rotation" : [
                0,
                -0.7071068286895752,
                0,
                0.7071068286895752
            ],
            "scale" : [
                0.6923636794090271,
                1.1307408809661865,
                1
            ],
            "translation" : [
                0,
                -1.4077871128392871e-05,
                0.16041934490203857
            ]
        }
    ],
    "materials" : [
        {
            "doubleSided" : true,
            "name" : "Color",
            "pbrMetallicRoughness" : {
                "baseColorTexture" : {
                    "index" : 0
                },
                "metallicFactor" : 0,
                "roughnessFactor" : 0.5
            }
        }
    ],
    "meshes" : [
        {
            "name" : "Cube.161",
            "primitives" : [
                {
                    "attributes" : {
                        "POSITION" : 0,
                        "NORMAL" : 1,
                        "TEXCOORD_0" : 2
                    },
                    "indices" : 3,
                    "material" : 0
                }
            ]
        }
    ],
    "textures" : [
        {
            "sampler" : 0,
            "source" : 0
        }
    ],
    "images" : [
        {
            "bufferView" : 4,
            "mimeType" : "image/png",
            "name" : "tex2"
        }
    ],
    "accessors" : [
        {
            "bufferView" : 0,
            "componentType" : 5126,
            "count" : 3437,
            "max" : [
                1.9224956035614014,
                0.8446488380432129,
                0.8446488380432129
            ],
            "min" : [
                -0.009631172753870487,
                -0.8446488380432129,
                -0.8446488380432129
            ],
            "type" : "VEC3"
        },
        {
            "bufferView" : 1,
            "componentType" : 5126,
            "count" : 3437,
            "type" : "VEC3"
        },
        {
            "bufferView" : 2,
            "componentType" : 5126,
            "count" : 3437,
            "type" : "VEC2"
        },
        {
            "bufferView" : 3,
            "componentType" : 5123,
            "count" : 13812,
            "type" : "SCALAR"
        }
    ],
    "bufferViews" : [
        {
            "buffer" : 0,
            "byteLength" : 41244,
            "byteOffset" : 0
        },
        {
            "buffer" : 0,
            "byteLength" : 41244,
            "byteOffset" : 41244
        },
        {
            "buffer" : 0,
            "byteLength" : 27496,
            "byteOffset" : 82488
        },
        {
            "buffer" : 0,
            "byteLength" : 27624,
            "byteOffset" : 109984
        },
        {
            "buffer" : 0,
            "byteLength" : 6474,
            "byteOffset" : 137608
        }
    ],
    "samplers" : [
        {
            "magFilter" : 9729,
            "minFilter" : 9987
        }
    ],
    "buffers" : [
        {
            "byteLength" : 144084,
            "uri" : "data:application/octet-stream;base64,"
        }
    ]
}
