{
    "asset" : {
        "copyright" : "Jeremy Edelblut",
        "generator" : "Khronos glTF Blender I/O v1.6.16",
        "version" : "2.0"
    },
    "scene" : 0,
    "scenes" : [
        {
            "name" : "Scene",
            "nodes" : [
                0
            ]
        }
    ],
    "nodes" : [
        {
            "mesh" : 0,
            "name" : "Plane.103",
            "rotation" : [
                0.1328611522912979,
                -0.5612747073173523,
                -0.13286113739013672,
                0.8060189485549927
            ]
        }
    ],
    "materials" : [
        {
            "doubleSided" : true,
            "name" : "Color",
            "pbrMetallicRoughness" : {
                "baseColorTexture" : {
                    "index" : 0
                },
                "metallicFactor" : 0,
                "roughnessFactor" : 0.5
            }
        }
    ],
    "meshes" : [
        {
            "name" : "Plane.104",
            "primitives" : [
                {
                    "attributes" : {
                        "POSITION" : 0,
                        "NORMAL" : 1,
                        "TEXCOORD_0" : 2
                    },
                    "indices" : 3,
                    "material" : 0
                }
            ]
        }
    ],
    "textures" : [
        {
            "sampler" : 0,
            "source" : 0
        }
    ],
    "images" : [
        {
            "bufferView" : 4,
            "mimeType" : "image/png",
            "name" : "tex2"
        }
    ],
    "accessors" : [
        {
            "bufferView" : 0,
            "componentType" : 5126,
            "count" : 754,
            "max" : [
                0.8304282426834106,
                0.5514518618583679,
                0.9996492266654968
            ],
            "min" : [
                -1.746868371963501,
                -0.27085375785827637,
                -0.9210541248321533
            ],
            "type" : "VEC3"
        },
        {
            "bufferView" : 1,
            "componentType" : 5126,
            "count" : 754,
            "type" : "VEC3"
        },
        {
            "bufferView" : 2,
            "componentType" : 5126,
            "count" : 754,
            "type" : "VEC2"
        },
        {
            "bufferView" : 3,
            "componentType" : 5123,
            "count" : 2052,
            "type" : "SCALAR"
        }
    ],
    "bufferViews" : [
        {
            "buffer" : 0,
            "byteLength" : 9048,
            "byteOffset" : 0
        },
        {
            "buffer" : 0,
            "byteLength" : 9048,
            "byteOffset" : 9048
        },
        {
            "buffer" : 0,
            "byteLength" : 6032,
            "byteOffset" : 18096
        },
        {
            "buffer" : 0,
            "byteLength" : 4104,
            "byteOffset" : 24128
        },
        {
            "buffer" : 0,
            "byteLength" : 6474,
            "byteOffset" : 28232
        }
    ],
    "samplers" : [
        {
            "magFilter" : 9729,
            "minFilter" : 9987
        }
    ],
    "buffers" : [
        {
            "byteLength" : 34708,
            "uri" : "data:application/octet-stream;base64,"
        }
    ]
}
