{
    "asset" : {
        "copyright" : "Jeremy Edelblut",
        "generator" : "Khronos glTF Blender I/O v1.6.16",
        "version" : "2.0"
    },
    "scene" : 0,
    "scenes" : [
        {
            "name" : "Scene",
            "nodes" : [
                0,
                1
            ]
        }
    ],
    "nodes" : [
        {
            "mesh" : 0,
            "name" : "Sphere.009",
            "scale" : [
                1.2000000476837158,
                1.2000000476837158,
                1.2000000476837158
            ],
            "translation" : [
                0,
                -0.03452833369374275,
                0
            ]
        },
        {
            "mesh" : 1,
            "name" : "Circle.036",
            "rotation" : [
                -0.54143226146698,
                0.38263607025146484,
                -0.4204834997653961,
                0.6193822622299194
            ],
            "scale" : [
                0.22387827932834625,
                0.22387821972370148,
                0.22387829422950745
            ],
            "translation" : [
                0.02546994574368,
                0.5453304648399353,
                0.0070165060460567474
            ]
        }
    ],
    "materials" : [
        {
            "doubleSided" : true,
            "name" : "Color",
            "pbrMetallicRoughness" : {
                "baseColorTexture" : {
                    "index" : 0
                },
                "metallicFactor" : 0,
                "roughnessFactor" : 0.5
            }
        }
    ],
    "meshes" : [
        {
            "name" : "Sphere.475",
            "primitives" : [
                {
                    "attributes" : {
                        "POSITION" : 0,
                        "NORMAL" : 1,
                        "TEXCOORD_0" : 2
                    },
                    "indices" : 3,
                    "material" : 0
                }
            ]
        },
        {
            "name" : "Circle.052",
            "primitives" : [
                {
                    "attributes" : {
                        "POSITION" : 4,
                        "NORMAL" : 5,
                        "TEXCOORD_0" : 6
                    },
                    "indices" : 7,
                    "material" : 0
                }
            ]
        }
    ],
    "textures" : [
        {
            "sampler" : 0,
            "source" : 0
        }
    ],
    "images" : [
        {
            "bufferView" : 4,
            "mimeType" : "image/png",
            "name" : "tex"
        }
    ],
    "accessors" : [
        {
            "bufferView" : 0,
            "componentType" : 5126,
            "count" : 1448,
            "max" : [
                0.8827948570251465,
                0.7709127068519592,
                0.8761798739433289
            ],
            "min" : [
                -0.8827943205833435,
                -0.7921507954597473,
                -0.8761798143386841
            ],
            "type" : "VEC3"
        },
        {
            "bufferView" : 1,
            "componentType" : 5126,
            "count" : 1448,
            "type" : "VEC3"
        },
        {
            "bufferView" : 2,
            "componentType" : 5126,
            "count" : 1448,
            "type" : "VEC2"
        },
        {
            "bufferView" : 3,
            "componentType" : 5123,
            "count" : 7284,
            "type" : "SCALAR"
        },
        {
            "bufferView" : 5,
            "componentType" : 5126,
            "count" : 588,
            "max" : [
                0.01929970271885395,
                1.0017426013946533,
                4.3060221672058105
            ],
            "min" : [
                -0.8919965624809265,
                -0.9982576370239258,
                0.006993054877966642
            ],
            "type" : "VEC3"
        },
        {
            "bufferView" : 6,
            "componentType" : 5126,
            "count" : 588,
            "type" : "VEC3"
        },
        {
            "bufferView" : 7,
            "componentType" : 5126,
            "count" : 588,
            "type" : "VEC2"
        },
        {
            "bufferView" : 8,
            "componentType" : 5123,
            "count" : 2640,
            "type" : "SCALAR"
        }
    ],
    "bufferViews" : [
        {
            "buffer" : 0,
            "byteLength" : 17376,
            "byteOffset" : 0
        },
        {
            "buffer" : 0,
            "byteLength" : 17376,
            "byteOffset" : 17376
        },
        {
            "buffer" : 0,
            "byteLength" : 11584,
            "byteOffset" : 34752
        },
        {
            "buffer" : 0,
            "byteLength" : 14568,
            "byteOffset" : 46336
        },
        {
            "buffer" : 0,
            "byteLength" : 3214,
            "byteOffset" : 60904
        },
        {
            "buffer" : 0,
            "byteLength" : 7056,
            "byteOffset" : 64120
        },
        {
            "buffer" : 0,
            "byteLength" : 7056,
            "byteOffset" : 71176
        },
        {
            "buffer" : 0,
            "byteLength" : 4704,
            "byteOffset" : 78232
        },
        {
            "buffer" : 0,
            "byteLength" : 5280,
            "byteOffset" : 82936
        }
    ],
    "samplers" : [
        {
            "magFilter" : 9729,
            "minFilter" : 9987
        }
    ],
    "buffers" : [
        {
            "byteLength" : 88216,
            "uri" : "data:application/octet-stream;base64,"
        }
    ]
}
