{
    "asset" : {
        "copyright" : "Jeremy Edelblut",
        "generator" : "Khronos glTF Blender I/O v1.7.33",
        "version" : "2.0"
    },
    "scene" : 0,
    "scenes" : [
        {
            "name" : "Scene",
            "nodes" : [
                0,
                1,
                2,
                3,
                4,
                5,
                6,
                7,
                8,
                9,
                10
            ]
        }
    ],
    "nodes" : [
        {
            "mesh" : 0,
            "name" : "Circle.802"
        },
        {
            "mesh" : 1,
            "name" : "Circle.803"
        },
        {
            "mesh" : 2,
            "name" : "Cylinder.124"
        },
        {
            "mesh" : 3,
            "name" : "Roundcube.151"
        },
        {
            "mesh" : 4,
            "name" : "Circle.804"
        },
        {
            "mesh" : 5,
            "name" : "Cube.1929"
        },
        {
            "mesh" : 6,
            "name" : "Sphere.121"
        },
        {
            "mesh" : 7,
            "name" : "Circle.805"
        },
        {
            "mesh" : 8,
            "name" : "Sphere.122"
        },
        {
            "mesh" : 9,
            "name" : "Cube.1937"
        },
        {
            "mesh" : 10,
            "name" : "Cylinder.125"
        }
    ],
    "materials" : [
        {
            "doubleSided" : true,
            "name" : "color",
            "pbrMetallicRoughness" : {
                "baseColorTexture" : {
                    "index" : 0
                },
                "metallicFactor" : 0,
                "roughnessFactor" : 0.5
            }
        },
        {
            "doubleSided" : true,
            "name" : "skin_tone_one",
            "pbrMetallicRoughness" : {
                "baseColorTexture" : {
                    "index" : 1
                },
                "metallicFactor" : 0,
                "roughnessFactor" : 0.5
            }
        }
    ],
    "meshes" : [
        {
            "name" : "Circle.871",
            "primitives" : [
                {
                    "attributes" : {
                        "POSITION" : 0,
                        "NORMAL" : 1,
                        "TEXCOORD_0" : 2
                    },
                    "indices" : 3,
                    "material" : 0
                }
            ]
        },
        {
            "name" : "Circle.872",
            "primitives" : [
                {
                    "attributes" : {
                        "POSITION" : 4,
                        "NORMAL" : 5,
                        "TEXCOORD_0" : 6
                    },
                    "indices" : 7,
                    "material" : 1
                }
            ]
        },
        {
            "name" : "Cylinder.124",
            "primitives" : [
                {
                    "attributes" : {
                        "POSITION" : 8,
                        "NORMAL" : 9,
                        "TEXCOORD_0" : 10
                    },
                    "indices" : 11,
                    "material" : 1
                }
            ]
        },
        {
            "name" : "Roundcube.151",
            "primitives" : [
                {
                    "attributes" : {
                        "POSITION" : 12,
                        "NORMAL" : 13,
                        "TEXCOORD_0" : 14
                    },
                    "indices" : 15,
                    "material" : 0
                },
                {
                    "attributes" : {
                        "POSITION" : 16,
                        "NORMAL" : 17,
                        "TEXCOORD_0" : 18
                    },
                    "indices" : 19,
                    "material" : 1
                }
            ]
        },
        {
            "name" : "Circle.873",
            "primitives" : [
                {
                    "attributes" : {
                        "POSITION" : 20,
                        "NORMAL" : 21,
                        "TEXCOORD_0" : 22
                    },
                    "indices" : 23,
                    "material" : 1
                }
            ]
        },
        {
            "name" : "Cube.2313",
            "primitives" : [
                {
                    "attributes" : {
                        "POSITION" : 24,
                        "NORMAL" : 25,
                        "TEXCOORD_0" : 26
                    },
                    "indices" : 27,
                    "material" : 1
                }
            ]
        },
        {
            "name" : "Sphere.121",
            "primitives" : [
                {
                    "attributes" : {
                        "POSITION" : 28,
                        "NORMAL" : 29,
                        "TEXCOORD_0" : 30
                    },
                    "indices" : 31,
                    "material" : 0
                }
            ]
        },
        {
            "name" : "Circle.874",
            "primitives" : [
                {
                    "attributes" : {
                        "POSITION" : 32,
                        "NORMAL" : 33,
                        "TEXCOORD_0" : 34
                    },
                    "indices" : 35,
                    "material" : 0
                }
            ]
        },
        {
            "name" : "Sphere.122",
            "primitives" : [
                {
                    "attributes" : {
                        "POSITION" : 36,
                        "NORMAL" : 37,
                        "TEXCOORD_0" : 38
                    },
                    "indices" : 39,
                    "material" : 0
                }
            ]
        },
        {
            "name" : "Cube.2321",
            "primitives" : [
                {
                    "attributes" : {
                        "POSITION" : 40,
                        "NORMAL" : 41,
                        "TEXCOORD_0" : 42
                    },
                    "indices" : 43,
                    "material" : 0
                }
            ]
        },
        {
            "name" : "Cylinder.125",
            "primitives" : [
                {
                    "attributes" : {
                        "POSITION" : 44,
                        "NORMAL" : 45,
                        "TEXCOORD_0" : 46
                    },
                    "indices" : 47,
                    "material" : 0
                }
            ]
        }
    ],
    "textures" : [
        {
            "sampler" : 0,
            "source" : 0
        },
        {
            "sampler" : 0,
            "source" : 0
        }
    ],
    "images" : [
        {
            "bufferView" : 4,
            "mimeType" : "image/png",
            "name" : "tex"
        }
    ],
    "accessors" : [
        {
            "bufferView" : 0,
            "componentType" : 5126,
            "count" : 1448,
            "max" : [
                0.26903900504112244,
                -0.15267185866832733,
                0.39136043190956116
            ],
            "min" : [
                -0.26903900504112244,
                -0.3397499620914459,
                0.3249666094779968
            ],
            "type" : "VEC3"
        },
        {
            "bufferView" : 1,
            "componentType" : 5126,
            "count" : 1448,
            "type" : "VEC3"
        },
        {
            "bufferView" : 2,
            "componentType" : 5126,
            "count" : 1448,
            "type" : "VEC2"
        },
        {
            "bufferView" : 3,
            "componentType" : 5123,
            "count" : 6912,
            "type" : "SCALAR"
        },
        {
            "bufferView" : 5,
            "componentType" : 5126,
            "count" : 142,
            "max" : [
                0.05452762171626091,
                -0.3488340675830841,
                0.40286341309547424
            ],
            "min" : [
                -0.04906272888183594,
                -0.4081542193889618,
                0.38618624210357666
            ],
            "type" : "VEC3"
        },
        {
            "bufferView" : 6,
            "componentType" : 5126,
            "count" : 142,
            "type" : "VEC3"
        },
        {
            "bufferView" : 7,
            "componentType" : 5126,
            "count" : 142,
            "type" : "VEC2"
        },
        {
            "bufferView" : 8,
            "componentType" : 5123,
            "count" : 528,
            "type" : "SCALAR"
        },
        {
            "bufferView" : 9,
            "componentType" : 5126,
            "count" : 1135,
            "max" : [
                0.6698336005210876,
                -0.0987691730260849,
                -0.12793877720832825
            ],
            "min" : [
                -0.6698336005210876,
                -0.4406932294368744,
                -0.3294527530670166
            ],
            "type" : "VEC3"
        },
        {
            "bufferView" : 10,
            "componentType" : 5126,
            "count" : 1135,
            "type" : "VEC3"
        },
        {
            "bufferView" : 11,
            "componentType" : 5126,
            "count" : 1135,
            "type" : "VEC2"
        },
        {
            "bufferView" : 12,
            "componentType" : 5123,
            "count" : 4992,
            "type" : "SCALAR"
        },
        {
            "bufferView" : 13,
            "componentType" : 5126,
            "count" : 837,
            "max" : [
                0.14016252756118774,
                -0.499784380197525,
                0.33035457134246826
            ],
            "min" : [
                -0.13046349585056305,
                -1.3902686834335327,
                -0.4377938508987427
            ],
            "type" : "VEC3"
        },
        {
            "bufferView" : 14,
            "componentType" : 5126,
            "count" : 837,
            "type" : "VEC3"
        },
        {
            "bufferView" : 15,
            "componentType" : 5126,
            "count" : 837,
            "type" : "VEC2"
        },
        {
            "bufferView" : 16,
            "componentType" : 5123,
            "count" : 2064,
            "type" : "SCALAR"
        },
        {
            "bufferView" : 17,
            "componentType" : 5126,
            "count" : 1173,
            "max" : [
                0.5483759641647339,
                0.27345725893974304,
                0.39541780948638916
            ],
            "min" : [
                -0.5485095381736755,
                -1.012490153312683,
                -0.7651722431182861
            ],
            "type" : "VEC3"
        },
        {
            "bufferView" : 18,
            "componentType" : 5126,
            "count" : 1173,
            "type" : "VEC3"
        },
        {
            "bufferView" : 19,
            "componentType" : 5126,
            "count" : 1173,
            "type" : "VEC2"
        },
        {
            "bufferView" : 20,
            "componentType" : 5123,
            "count" : 5916,
            "type" : "SCALAR"
        },
        {
            "bufferView" : 21,
            "componentType" : 5126,
            "count" : 316,
            "max" : [
                0.32345083355903625,
                -0.039691146463155746,
                0.3678511381149292
            ],
            "min" : [
                -0.32345083355903625,
                -0.15660852193832397,
                0.26837295293807983
            ],
            "type" : "VEC3"
        },
        {
            "bufferView" : 22,
            "componentType" : 5126,
            "count" : 316,
            "type" : "VEC3"
        },
        {
            "bufferView" : 23,
            "componentType" : 5126,
            "count" : 316,
            "type" : "VEC2"
        },
        {
            "bufferView" : 24,
            "componentType" : 5123,
            "count" : 1152,
            "type" : "SCALAR"
        },
        {
            "bufferView" : 25,
            "componentType" : 5126,
            "count" : 1310,
            "max" : [
                0.5918474197387695,
                0.4273022711277008,
                0.5227346420288086
            ],
            "min" : [
                -0.6080864667892456,
                -0.38097214698791504,
                -0.8082741498947144
            ],
            "type" : "VEC3"
        },
        {
            "bufferView" : 26,
            "componentType" : 5126,
            "count" : 1310,
            "type" : "VEC3"
        },
        {
            "bufferView" : 27,
            "componentType" : 5126,
            "count" : 1310,
            "type" : "VEC2"
        },
        {
            "bufferView" : 28,
            "componentType" : 5123,
            "count" : 3132,
            "type" : "SCALAR"
        },
        {
            "bufferView" : 29,
            "componentType" : 5126,
            "count" : 509,
            "max" : [
                0.5759031772613525,
                -0.8740059733390808,
                0.00984340813010931
            ],
            "min" : [
                -0.5719773173332214,
                -1.3887829780578613,
                -0.772864580154419
            ],
            "type" : "VEC3"
        },
        {
            "bufferView" : 30,
            "componentType" : 5126,
            "count" : 509,
            "type" : "VEC3"
        },
        {
            "bufferView" : 31,
            "componentType" : 5126,
            "count" : 509,
            "type" : "VEC2"
        },
        {
            "bufferView" : 32,
            "componentType" : 5123,
            "count" : 2526,
            "type" : "SCALAR"
        },
        {
            "bufferView" : 33,
            "componentType" : 5126,
            "count" : 476,
            "max" : [
                0.20268402993679047,
                -0.7942809462547302,
                -0.09590031951665878
            ],
            "min" : [
                -0.1987581104040146,
                -1.069336175918579,
                -0.5454871654510498
            ],
            "type" : "VEC3"
        },
        {
            "bufferView" : 34,
            "componentType" : 5126,
            "count" : 476,
            "type" : "VEC3"
        },
        {
            "bufferView" : 35,
            "componentType" : 5126,
            "count" : 476,
            "type" : "VEC2"
        },
        {
            "bufferView" : 36,
            "componentType" : 5123,
            "count" : 1392,
            "type" : "SCALAR"
        },
        {
            "bufferView" : 37,
            "componentType" : 5126,
            "count" : 192,
            "max" : [
                0.46622923016548157,
                -1.0998939275741577,
                -0.0017570198979228735
            ],
            "min" : [
                -0.46230337023735046,
                -1.181985855102539,
                -0.15080417692661285
            ],
            "type" : "VEC3"
        },
        {
            "bufferView" : 38,
            "componentType" : 5126,
            "count" : 192,
            "type" : "VEC3"
        },
        {
            "bufferView" : 39,
            "componentType" : 5126,
            "count" : 192,
            "type" : "VEC2"
        },
        {
            "bufferView" : 40,
            "componentType" : 5123,
            "count" : 504,
            "type" : "SCALAR"
        },
        {
            "bufferView" : 41,
            "componentType" : 5126,
            "count" : 552,
            "max" : [
                0.5445587038993835,
                -0.8783354759216309,
                -0.23837479948997498
            ],
            "min" : [
                -0.5445587038993835,
                -1.0990257263183594,
                -0.5325414538383484
            ],
            "type" : "VEC3"
        },
        {
            "bufferView" : 42,
            "componentType" : 5126,
            "count" : 552,
            "type" : "VEC3"
        },
        {
            "bufferView" : 43,
            "componentType" : 5126,
            "count" : 552,
            "type" : "VEC2"
        },
        {
            "bufferView" : 44,
            "componentType" : 5123,
            "count" : 1944,
            "type" : "SCALAR"
        },
        {
            "bufferView" : 45,
            "componentType" : 5126,
            "count" : 552,
            "max" : [
                0.7361800670623779,
                1.2426629066467285,
                0.46298202872276306
            ],
            "min" : [
                -0.732254147529602,
                -0.8677130341529846,
                -1.2214213609695435
            ],
            "type" : "VEC3"
        },
        {
            "bufferView" : 46,
            "componentType" : 5126,
            "count" : 552,
            "type" : "VEC3"
        },
        {
            "bufferView" : 47,
            "componentType" : 5126,
            "count" : 552,
            "type" : "VEC2"
        },
        {
            "bufferView" : 48,
            "componentType" : 5123,
            "count" : 2298,
            "type" : "SCALAR"
        }
    ],
    "bufferViews" : [
        {
            "buffer" : 0,
            "byteLength" : 17376,
            "byteOffset" : 0
        },
        {
            "buffer" : 0,
            "byteLength" : 17376,
            "byteOffset" : 17376
        },
        {
            "buffer" : 0,
            "byteLength" : 11584,
            "byteOffset" : 34752
        },
        {
            "buffer" : 0,
            "byteLength" : 13824,
            "byteOffset" : 46336
        },
        {
            "buffer" : 0,
            "byteLength" : 11997,
            "byteOffset" : 60160
        },
        {
            "buffer" : 0,
            "byteLength" : 1704,
            "byteOffset" : 72160
        },
        {
            "buffer" : 0,
            "byteLength" : 1704,
            "byteOffset" : 73864
        },
        {
            "buffer" : 0,
            "byteLength" : 1136,
            "byteOffset" : 75568
        },
        {
            "buffer" : 0,
            "byteLength" : 1056,
            "byteOffset" : 76704
        },
        {
            "buffer" : 0,
            "byteLength" : 13620,
            "byteOffset" : 77760
        },
        {
            "buffer" : 0,
            "byteLength" : 13620,
            "byteOffset" : 91380
        },
        {
            "buffer" : 0,
            "byteLength" : 9080,
            "byteOffset" : 105000
        },
        {
            "buffer" : 0,
            "byteLength" : 9984,
            "byteOffset" : 114080
        },
        {
            "buffer" : 0,
            "byteLength" : 10044,
            "byteOffset" : 124064
        },
        {
            "buffer" : 0,
            "byteLength" : 10044,
            "byteOffset" : 134108
        },
        {
            "buffer" : 0,
            "byteLength" : 6696,
            "byteOffset" : 144152
        },
        {
            "buffer" : 0,
            "byteLength" : 4128,
            "byteOffset" : 150848
        },
        {
            "buffer" : 0,
            "byteLength" : 14076,
            "byteOffset" : 154976
        },
        {
            "buffer" : 0,
            "byteLength" : 14076,
            "byteOffset" : 169052
        },
        {
            "buffer" : 0,
            "byteLength" : 9384,
            "byteOffset" : 183128
        },
        {
            "buffer" : 0,
            "byteLength" : 11832,
            "byteOffset" : 192512
        },
        {
            "buffer" : 0,
            "byteLength" : 3792,
            "byteOffset" : 204344
        },
        {
            "buffer" : 0,
            "byteLength" : 3792,
            "byteOffset" : 208136
        },
        {
            "buffer" : 0,
            "byteLength" : 2528,
            "byteOffset" : 211928
        },
        {
            "buffer" : 0,
            "byteLength" : 2304,
            "byteOffset" : 214456
        },
        {
            "buffer" : 0,
            "byteLength" : 15720,
            "byteOffset" : 216760
        },
        {
            "buffer" : 0,
            "byteLength" : 15720,
            "byteOffset" : 232480
        },
        {
            "buffer" : 0,
            "byteLength" : 10480,
            "byteOffset" : 248200
        },
        {
            "buffer" : 0,
            "byteLength" : 6264,
            "byteOffset" : 258680
        },
        {
            "buffer" : 0,
            "byteLength" : 6108,
            "byteOffset" : 264944
        },
        {
            "buffer" : 0,
            "byteLength" : 6108,
            "byteOffset" : 271052
        },
        {
            "buffer" : 0,
            "byteLength" : 4072,
            "byteOffset" : 277160
        },
        {
            "buffer" : 0,
            "byteLength" : 5052,
            "byteOffset" : 281232
        },
        {
            "buffer" : 0,
            "byteLength" : 5712,
            "byteOffset" : 286284
        },
        {
            "buffer" : 0,
            "byteLength" : 5712,
            "byteOffset" : 291996
        },
        {
            "buffer" : 0,
            "byteLength" : 3808,
            "byteOffset" : 297708
        },
        {
            "buffer" : 0,
            "byteLength" : 2784,
            "byteOffset" : 301516
        },
        {
            "buffer" : 0,
            "byteLength" : 2304,
            "byteOffset" : 304300
        },
        {
            "buffer" : 0,
            "byteLength" : 2304,
            "byteOffset" : 306604
        },
        {
            "buffer" : 0,
            "byteLength" : 1536,
            "byteOffset" : 308908
        },
        {
            "buffer" : 0,
            "byteLength" : 1008,
            "byteOffset" : 310444
        },
        {
            "buffer" : 0,
            "byteLength" : 6624,
            "byteOffset" : 311452
        },
        {
            "buffer" : 0,
            "byteLength" : 6624,
            "byteOffset" : 318076
        },
        {
            "buffer" : 0,
            "byteLength" : 4416,
            "byteOffset" : 324700
        },
        {
            "buffer" : 0,
            "byteLength" : 3888,
            "byteOffset" : 329116
        },
        {
            "buffer" : 0,
            "byteLength" : 6624,
            "byteOffset" : 333004
        },
        {
            "buffer" : 0,
            "byteLength" : 6624,
            "byteOffset" : 339628
        },
        {
            "buffer" : 0,
            "byteLength" : 4416,
            "byteOffset" : 346252
        },
        {
            "buffer" : 0,
            "byteLength" : 4596,
            "byteOffset" : 350668
        }
    ],
    "samplers" : [
        {
            "magFilter" : 9729,
            "minFilter" : 9987
        }
    ],
    "buffers" : [
        {
            "byteLength" : 355264,
            "uri" : "data:application/octet-stream;base64,"
        }
    ]
}
