{
    "asset" : {
        "copyright" : "Jeremy Edelblut - 3moji.org",
        "generator" : "Khronos glTF Blender I/O v1.7.33",
        "version" : "2.0"
    },
    "scene" : 1,
    "scenes" : [
        {
            "name" : "FBX_Temp",
            "nodes" : [
                0
            ]
        },
        {
            "name" : "Scene",
            "nodes" : [
                1,
                2,
                3,
                4,
                5,
                6
            ]
        }
    ],
    "nodes" : [
        {
            "mesh" : 0,
            "name" : "3moji.064",
            "rotation" : [
                0,
                -0.7071068286895752,
                0,
                0.7071068286895752
            ]
        },
        {
            "mesh" : 1,
            "name" : "Circle.1917"
        },
        {
            "mesh" : 2,
            "name" : "Cube.6244"
        },
        {
            "mesh" : 3,
            "name" : "Cube.6245"
        },
        {
            "mesh" : 4,
            "name" : "Cylinder.360"
        },
        {
            "mesh" : 5,
            "name" : "Sphere.001"
        },
        {
            "mesh" : 6,
            "name" : "Sphere.002"
        }
    ],
    "materials" : [
        {
            "doubleSided" : true,
            "name" : "color",
            "pbrMetallicRoughness" : {
                "baseColorTexture" : {
                    "index" : 0
                },
                "metallicFactor" : 0,
                "roughnessFactor" : 0.5
            }
        }
    ],
    "meshes" : [
        {
            "name" : "Cube.417",
            "primitives" : [
                {
                    "attributes" : {
                        "POSITION" : 0,
                        "NORMAL" : 1,
                        "TEXCOORD_0" : 2
                    },
                    "indices" : 3,
                    "material" : 0
                }
            ]
        },
        {
            "name" : "Circle.2133",
            "primitives" : [
                {
                    "attributes" : {
                        "POSITION" : 4,
                        "NORMAL" : 5,
                        "TEXCOORD_0" : 6
                    },
                    "indices" : 7,
                    "material" : 0
                }
            ]
        },
        {
            "name" : "Cube.7303",
            "primitives" : [
                {
                    "attributes" : {
                        "POSITION" : 8,
                        "NORMAL" : 9,
                        "TEXCOORD_0" : 10
                    },
                    "indices" : 11,
                    "material" : 0
                }
            ]
        },
        {
            "name" : "Cube.7304",
            "primitives" : [
                {
                    "attributes" : {
                        "POSITION" : 12,
                        "NORMAL" : 13,
                        "TEXCOORD_0" : 14
                    },
                    "indices" : 15,
                    "material" : 0
                }
            ]
        },
        {
            "name" : "Cylinder.341",
            "primitives" : [
                {
                    "attributes" : {
                        "POSITION" : 16,
                        "NORMAL" : 17,
                        "TEXCOORD_0" : 18
                    },
                    "indices" : 19,
                    "material" : 0
                }
            ]
        },
        {
            "name" : "Sphere.001",
            "primitives" : [
                {
                    "attributes" : {
                        "POSITION" : 20,
                        "NORMAL" : 21,
                        "TEXCOORD_0" : 22
                    },
                    "indices" : 23,
                    "material" : 0
                }
            ]
        },
        {
            "name" : "Sphere.002",
            "primitives" : [
                {
                    "attributes" : {
                        "POSITION" : 24,
                        "NORMAL" : 25,
                        "TEXCOORD_0" : 26
                    },
                    "indices" : 27,
                    "material" : 0
                }
            ]
        }
    ],
    "textures" : [
        {
            "sampler" : 0,
            "source" : 0
        }
    ],
    "images" : [
        {
            "bufferView" : 4,
            "mimeType" : "image/png",
            "name" : "tex"
        }
    ],
    "accessors" : [
        {
            "bufferView" : 0,
            "componentType" : 5126,
            "count" : 752,
            "max" : [
                -0.8264395594596863,
                0.05719918757677078,
                0.13795676827430725
            ],
            "min" : [
                -0.8543609976768494,
                -0.014034310355782509,
                -0.12436223030090332
            ],
            "type" : "VEC3"
        },
        {
            "bufferView" : 1,
            "componentType" : 5126,
            "count" : 752,
            "type" : "VEC3"
        },
        {
            "bufferView" : 2,
            "componentType" : 5126,
            "count" : 752,
            "type" : "VEC2"
        },
        {
            "bufferView" : 3,
            "componentType" : 5123,
            "count" : 1680,
            "type" : "SCALAR"
        },
        {
            "bufferView" : 5,
            "componentType" : 5126,
            "count" : 224,
            "max" : [
                0.5240353941917419,
                0.3060891032218933,
                0.8149484992027283
            ],
            "min" : [
                -0.5240353941917419,
                -0.1768125295639038,
                0.606461763381958
            ],
            "type" : "VEC3"
        },
        {
            "bufferView" : 6,
            "componentType" : 5126,
            "count" : 224,
            "type" : "VEC3"
        },
        {
            "bufferView" : 7,
            "componentType" : 5126,
            "count" : 224,
            "type" : "VEC2"
        },
        {
            "bufferView" : 8,
            "componentType" : 5123,
            "count" : 840,
            "type" : "SCALAR"
        },
        {
            "bufferView" : 9,
            "componentType" : 5126,
            "count" : 386,
            "max" : [
                0.2009911984205246,
                -0.3385363817214966,
                1.0341876745224
            ],
            "min" : [
                -0.2008489966392517,
                -0.6605710387229919,
                0.7784447073936462
            ],
            "type" : "VEC3"
        },
        {
            "bufferView" : 10,
            "componentType" : 5126,
            "count" : 386,
            "type" : "VEC3"
        },
        {
            "bufferView" : 11,
            "componentType" : 5126,
            "count" : 386,
            "type" : "VEC2"
        },
        {
            "bufferView" : 12,
            "componentType" : 5123,
            "count" : 2304,
            "type" : "SCALAR"
        },
        {
            "bufferView" : 13,
            "componentType" : 5126,
            "count" : 624,
            "max" : [
                0.8212164044380188,
                -0.3328981399536133,
                0.9314857721328735
            ],
            "min" : [
                -0.8212164044380188,
                -0.7269527316093445,
                0.7349221706390381
            ],
            "type" : "VEC3"
        },
        {
            "bufferView" : 14,
            "componentType" : 5126,
            "count" : 624,
            "type" : "VEC3"
        },
        {
            "bufferView" : 15,
            "componentType" : 5126,
            "count" : 624,
            "type" : "VEC2"
        },
        {
            "bufferView" : 16,
            "componentType" : 5123,
            "count" : 936,
            "type" : "SCALAR"
        },
        {
            "bufferView" : 17,
            "componentType" : 5126,
            "count" : 706,
            "max" : [
                0.9557375311851501,
                1.035406231880188,
                -0.08578146994113922
            ],
            "min" : [
                -0.9555956721305847,
                0.38814204931259155,
                -0.25859534740448
            ],
            "type" : "VEC3"
        },
        {
            "bufferView" : 18,
            "componentType" : 5126,
            "count" : 706,
            "type" : "VEC3"
        },
        {
            "bufferView" : 19,
            "componentType" : 5126,
            "count" : 706,
            "type" : "VEC2"
        },
        {
            "bufferView" : 20,
            "componentType" : 5123,
            "count" : 2676,
            "type" : "SCALAR"
        },
        {
            "bufferView" : 21,
            "componentType" : 5126,
            "count" : 1942,
            "max" : [
                0.9704694747924805,
                0.8323907256126404,
                0.8314220905303955
            ],
            "min" : [
                -0.9703274369239807,
                -0.9280143976211548,
                -0.6408551335334778
            ],
            "type" : "VEC3"
        },
        {
            "bufferView" : 22,
            "componentType" : 5126,
            "count" : 1942,
            "type" : "VEC3"
        },
        {
            "bufferView" : 23,
            "componentType" : 5126,
            "count" : 1942,
            "type" : "VEC2"
        },
        {
            "bufferView" : 24,
            "componentType" : 5123,
            "count" : 8808,
            "type" : "SCALAR"
        },
        {
            "bufferView" : 25,
            "componentType" : 5126,
            "count" : 1012,
            "max" : [
                0.9407204985618591,
                0.8465923070907593,
                0.7211161255836487
            ],
            "min" : [
                -0.1283435970544815,
                -0.32729390263557434,
                -0.6508477926254272
            ],
            "type" : "VEC3"
        },
        {
            "bufferView" : 26,
            "componentType" : 5126,
            "count" : 1012,
            "type" : "VEC3"
        },
        {
            "bufferView" : 27,
            "componentType" : 5126,
            "count" : 1012,
            "type" : "VEC2"
        },
        {
            "bufferView" : 28,
            "componentType" : 5123,
            "count" : 4860,
            "type" : "SCALAR"
        }
    ],
    "bufferViews" : [
        {
            "buffer" : 0,
            "byteLength" : 9024,
            "byteOffset" : 0
        },
        {
            "buffer" : 0,
            "byteLength" : 9024,
            "byteOffset" : 9024
        },
        {
            "buffer" : 0,
            "byteLength" : 6016,
            "byteOffset" : 18048
        },
        {
            "buffer" : 0,
            "byteLength" : 3360,
            "byteOffset" : 24064
        },
        {
            "buffer" : 0,
            "byteLength" : 11997,
            "byteOffset" : 27424
        },
        {
            "buffer" : 0,
            "byteLength" : 2688,
            "byteOffset" : 39424
        },
        {
            "buffer" : 0,
            "byteLength" : 2688,
            "byteOffset" : 42112
        },
        {
            "buffer" : 0,
            "byteLength" : 1792,
            "byteOffset" : 44800
        },
        {
            "buffer" : 0,
            "byteLength" : 1680,
            "byteOffset" : 46592
        },
        {
            "buffer" : 0,
            "byteLength" : 4632,
            "byteOffset" : 48272
        },
        {
            "buffer" : 0,
            "byteLength" : 4632,
            "byteOffset" : 52904
        },
        {
            "buffer" : 0,
            "byteLength" : 3088,
            "byteOffset" : 57536
        },
        {
            "buffer" : 0,
            "byteLength" : 4608,
            "byteOffset" : 60624
        },
        {
            "buffer" : 0,
            "byteLength" : 7488,
            "byteOffset" : 65232
        },
        {
            "buffer" : 0,
            "byteLength" : 7488,
            "byteOffset" : 72720
        },
        {
            "buffer" : 0,
            "byteLength" : 4992,
            "byteOffset" : 80208
        },
        {
            "buffer" : 0,
            "byteLength" : 1872,
            "byteOffset" : 85200
        },
        {
            "buffer" : 0,
            "byteLength" : 8472,
            "byteOffset" : 87072
        },
        {
            "buffer" : 0,
            "byteLength" : 8472,
            "byteOffset" : 95544
        },
        {
            "buffer" : 0,
            "byteLength" : 5648,
            "byteOffset" : 104016
        },
        {
            "buffer" : 0,
            "byteLength" : 5352,
            "byteOffset" : 109664
        },
        {
            "buffer" : 0,
            "byteLength" : 23304,
            "byteOffset" : 115016
        },
        {
            "buffer" : 0,
            "byteLength" : 23304,
            "byteOffset" : 138320
        },
        {
            "buffer" : 0,
            "byteLength" : 15536,
            "byteOffset" : 161624
        },
        {
            "buffer" : 0,
            "byteLength" : 17616,
            "byteOffset" : 177160
        },
        {
            "buffer" : 0,
            "byteLength" : 12144,
            "byteOffset" : 194776
        },
        {
            "buffer" : 0,
            "byteLength" : 12144,
            "byteOffset" : 206920
        },
        {
            "buffer" : 0,
            "byteLength" : 8096,
            "byteOffset" : 219064
        },
        {
            "buffer" : 0,
            "byteLength" : 9720,
            "byteOffset" : 227160
        }
    ],
    "samplers" : [
        {
            "magFilter" : 9729,
            "minFilter" : 9987
        }
    ],
    "buffers" : [
        {
            "byteLength" : 236880,
            "uri" : "data:application/octet-stream;base64,"
        }
    ]
}
