{
    "asset" : {
        "copyright" : "Jeremy Edelblut 2021",
        "generator" : "Khronos glTF Blender I/O v1.6.16",
        "version" : "2.0"
    },
    "scene" : 0,
    "scenes" : [
        {
            "name" : "Scene",
            "nodes" : [
                0,
                1,
                2
            ]
        }
    ],
    "nodes" : [
        {
            "mesh" : 0,
            "name" : "3moji.org.060",
            "rotation" : [
                -0.12431260198354721,
                0.696093738079071,
                -0.1243126392364502,
                0.6960935592651367
            ],
            "scale" : [
                0.003616840112954378,
                0.003616840112954378,
                0.003616840112954378
            ],
            "translation" : [
                0,
                -0.699999988079071,
                -0.09363175183534622
            ]
        },
        {
            "mesh" : 1,
            "name" : "hfdjkslfjkds.016",
            "rotation" : [
                0.5,
                -0.4999999701976776,
                0.5000000596046448,
                0.4999999403953552
            ],
            "scale" : [
                3.3980872631073,
                3.3980872631073,
                3.3980872631073
            ]
        },
        {
            "mesh" : 2,
            "name" : "Plane.010",
            "rotation" : [
                -0.5,
                0.5,
                -0.4999999701976776,
                0.5
            ],
            "scale" : [
                1.545430064201355,
                1.545430064201355,
                1.545430064201355
            ],
            "translation" : [
                0,
                0.2303732931613922,
                0.008954595774412155
            ]
        }
    ],
    "materials" : [
        {
            "doubleSided" : true,
            "name" : "Color",
            "pbrMetallicRoughness" : {
                "baseColorTexture" : {
                    "index" : 0
                },
                "metallicFactor" : 0,
                "roughnessFactor" : 0.5
            }
        }
    ],
    "meshes" : [
        {
            "name" : "Cube.383",
            "primitives" : [
                {
                    "attributes" : {
                        "POSITION" : 0,
                        "NORMAL" : 1,
                        "TEXCOORD_0" : 2
                    },
                    "indices" : 3,
                    "material" : 0
                }
            ]
        },
        {
            "name" : "hfdjkslfjkds.030",
            "primitives" : [
                {
                    "attributes" : {
                        "POSITION" : 4,
                        "NORMAL" : 5,
                        "TEXCOORD_0" : 6
                    },
                    "indices" : 7,
                    "material" : 0
                }
            ]
        },
        {
            "name" : "Plane.015",
            "primitives" : [
                {
                    "attributes" : {
                        "POSITION" : 8,
                        "NORMAL" : 9,
                        "TEXCOORD_0" : 10
                    },
                    "indices" : 11,
                    "material" : 0
                }
            ]
        }
    ],
    "textures" : [
        {
            "sampler" : 0,
            "source" : 0
        }
    ],
    "images" : [
        {
            "bufferView" : 4,
            "mimeType" : "image/png",
            "name" : "tex2"
        }
    ],
    "accessors" : [
        {
            "bufferView" : 0,
            "componentType" : 5126,
            "count" : 752,
            "max" : [
                1.2953357696533203,
                7.90000057220459,
                17.240537643432617
            ],
            "min" : [
                2.8697024390567094e-05,
                -1.8999989032745361,
                -19.159460067749023
            ],
            "type" : "VEC3"
        },
        {
            "bufferView" : 1,
            "componentType" : 5126,
            "count" : 752,
            "type" : "VEC3"
        },
        {
            "bufferView" : 2,
            "componentType" : 5126,
            "count" : 752,
            "type" : "VEC2"
        },
        {
            "bufferView" : 3,
            "componentType" : 5123,
            "count" : 1680,
            "type" : "SCALAR"
        },
        {
            "bufferView" : 5,
            "componentType" : 5126,
            "count" : 2928,
            "max" : [
                0.08766008168458939,
                0.274747371673584,
                0.25559547543525696
            ],
            "min" : [
                -0.08762311190366745,
                -0.2712416648864746,
                -0.23851872980594635
            ],
            "type" : "VEC3"
        },
        {
            "bufferView" : 6,
            "componentType" : 5126,
            "count" : 2928,
            "type" : "VEC3"
        },
        {
            "bufferView" : 7,
            "componentType" : 5126,
            "count" : 2928,
            "type" : "VEC2"
        },
        {
            "bufferView" : 8,
            "componentType" : 5123,
            "count" : 16164,
            "type" : "SCALAR"
        },
        {
            "bufferView" : 9,
            "componentType" : 5126,
            "count" : 4264,
            "max" : [
                0.6477146744728088,
                0.09191234409809113,
                0.6552076935768127
            ],
            "min" : [
                -0.5187488198280334,
                -0.19693131744861603,
                -0.6326171159744263
            ],
            "type" : "VEC3"
        },
        {
            "bufferView" : 10,
            "componentType" : 5126,
            "count" : 4264,
            "type" : "VEC3"
        },
        {
            "bufferView" : 11,
            "componentType" : 5126,
            "count" : 4264,
            "type" : "VEC2"
        },
        {
            "bufferView" : 12,
            "componentType" : 5123,
            "count" : 13344,
            "type" : "SCALAR"
        }
    ],
    "bufferViews" : [
        {
            "buffer" : 0,
            "byteLength" : 9024,
            "byteOffset" : 0
        },
        {
            "buffer" : 0,
            "byteLength" : 9024,
            "byteOffset" : 9024
        },
        {
            "buffer" : 0,
            "byteLength" : 6016,
            "byteOffset" : 18048
        },
        {
            "buffer" : 0,
            "byteLength" : 3360,
            "byteOffset" : 24064
        },
        {
            "buffer" : 0,
            "byteLength" : 6478,
            "byteOffset" : 27424
        },
        {
            "buffer" : 0,
            "byteLength" : 35136,
            "byteOffset" : 33904
        },
        {
            "buffer" : 0,
            "byteLength" : 35136,
            "byteOffset" : 69040
        },
        {
            "buffer" : 0,
            "byteLength" : 23424,
            "byteOffset" : 104176
        },
        {
            "buffer" : 0,
            "byteLength" : 32328,
            "byteOffset" : 127600
        },
        {
            "buffer" : 0,
            "byteLength" : 51168,
            "byteOffset" : 159928
        },
        {
            "buffer" : 0,
            "byteLength" : 51168,
            "byteOffset" : 211096
        },
        {
            "buffer" : 0,
            "byteLength" : 34112,
            "byteOffset" : 262264
        },
        {
            "buffer" : 0,
            "byteLength" : 26688,
            "byteOffset" : 296376
        }
    ],
    "samplers" : [
        {
            "magFilter" : 9729,
            "minFilter" : 9987
        }
    ],
    "buffers" : [
        {
            "byteLength" : 323064,
            "uri" : "data:application/octet-stream;base64,"
        }
    ]
}
