{
    "asset" : {
        "copyright" : "Jeremy Edelblut",
        "generator" : "Khronos glTF Blender I/O v1.7.33",
        "version" : "2.0"
    },
    "scene" : 1,
    "scenes" : [
        {
            "name" : "FBX_Temp",
            "nodes" : [
                0
            ]
        },
        {
            "name" : "Scene",
            "nodes" : [
                1,
                2,
                3,
                4,
                5
            ]
        }
    ],
    "nodes" : [
        {
            "mesh" : 0,
            "name" : "3moji.064",
            "rotation" : [
                0,
                -0.7071068286895752,
                0,
                0.7071068286895752
            ]
        },
        {
            "mesh" : 1,
            "name" : "3moji.org.051",
            "scale" : [
                0.003616840112954378,
                0.003616840112954378,
                0.003616840112954378
            ]
        },
        {
            "mesh" : 2,
            "name" : "Cube.010"
        },
        {
            "mesh" : 3,
            "name" : "hfdjkslfjkds.003"
        },
        {
            "mesh" : 4,
            "name" : "Plane.007"
        },
        {
            "mesh" : 5,
            "name" : "3moji.org.052",
            "scale" : [
                0.003616840112954378,
                0.003616840112954378,
                0.003616840112954378
            ]
        }
    ],
    "materials" : [
        {
            "doubleSided" : true,
            "name" : "color",
            "pbrMetallicRoughness" : {
                "baseColorTexture" : {
                    "index" : 0
                },
                "metallicFactor" : 0,
                "roughnessFactor" : 0.5
            }
        }
    ],
    "meshes" : [
        {
            "name" : "Cube.417",
            "primitives" : [
                {
                    "attributes" : {
                        "POSITION" : 0,
                        "NORMAL" : 1,
                        "TEXCOORD_0" : 2
                    },
                    "indices" : 3,
                    "material" : 0
                }
            ]
        },
        {
            "name" : "Cube.363",
            "primitives" : [
                {
                    "attributes" : {
                        "POSITION" : 4,
                        "NORMAL" : 5,
                        "TEXCOORD_0" : 6
                    },
                    "indices" : 7,
                    "material" : 0
                }
            ]
        },
        {
            "name" : "Cube.364",
            "primitives" : [
                {
                    "attributes" : {
                        "POSITION" : 8,
                        "NORMAL" : 9,
                        "TEXCOORD_0" : 10
                    },
                    "indices" : 11,
                    "material" : 0
                }
            ]
        },
        {
            "name" : "hfdjkslfjkds.003",
            "primitives" : [
                {
                    "attributes" : {
                        "POSITION" : 12,
                        "NORMAL" : 13,
                        "TEXCOORD_0" : 14
                    },
                    "indices" : 15,
                    "material" : 0
                }
            ]
        },
        {
            "name" : "Plane.009",
            "primitives" : [
                {
                    "attributes" : {
                        "POSITION" : 16,
                        "NORMAL" : 17,
                        "TEXCOORD_0" : 18
                    },
                    "indices" : 19,
                    "material" : 0
                }
            ]
        },
        {
            "name" : "Cube.365",
            "primitives" : [
                {
                    "attributes" : {
                        "POSITION" : 20,
                        "NORMAL" : 21,
                        "TEXCOORD_0" : 22
                    },
                    "indices" : 7,
                    "material" : 0
                }
            ]
        }
    ],
    "textures" : [
        {
            "sampler" : 0,
            "source" : 0
        }
    ],
    "images" : [
        {
            "bufferView" : 4,
            "mimeType" : "image/png",
            "name" : "tex"
        }
    ],
    "accessors" : [
        {
            "bufferView" : 0,
            "componentType" : 5126,
            "count" : 752,
            "max" : [
                -0.8264395594596863,
                0.05719918757677078,
                0.13795676827430725
            ],
            "min" : [
                -0.8543609976768494,
                -0.014034310355782509,
                -0.12436223030090332
            ],
            "type" : "VEC3"
        },
        {
            "bufferView" : 1,
            "componentType" : 5126,
            "count" : 752,
            "type" : "VEC3"
        },
        {
            "bufferView" : 2,
            "componentType" : 5126,
            "count" : 752,
            "type" : "VEC2"
        },
        {
            "bufferView" : 3,
            "componentType" : 5123,
            "count" : 1680,
            "type" : "SCALAR"
        },
        {
            "bufferView" : 5,
            "componentType" : 5126,
            "count" : 752,
            "max" : [
                17.240537643432617,
                7.411654949188232,
                0.6576299071311951
            ],
            "min" : [
                -19.159460067749023,
                -2.230910062789917,
                -3.9497196674346924
            ],
            "type" : "VEC3"
        },
        {
            "bufferView" : 6,
            "componentType" : 5126,
            "count" : 752,
            "type" : "VEC3"
        },
        {
            "bufferView" : 7,
            "componentType" : 5126,
            "count" : 752,
            "type" : "VEC2"
        },
        {
            "bufferView" : 8,
            "componentType" : 5123,
            "count" : 1680,
            "type" : "SCALAR"
        },
        {
            "bufferView" : 9,
            "componentType" : 5126,
            "count" : 408,
            "max" : [
                -0.14561405777931213,
                0.13410964608192444,
                0.42784541845321655
            ],
            "min" : [
                -0.8344129323959351,
                -0.5111783146858215,
                0.287521094083786
            ],
            "type" : "VEC3"
        },
        {
            "bufferView" : 10,
            "componentType" : 5126,
            "count" : 408,
            "type" : "VEC3"
        },
        {
            "bufferView" : 11,
            "componentType" : 5126,
            "count" : 408,
            "type" : "VEC2"
        },
        {
            "bufferView" : 12,
            "componentType" : 5123,
            "count" : 1032,
            "type" : "SCALAR"
        },
        {
            "bufferView" : 13,
            "componentType" : 5126,
            "count" : 2928,
            "max" : [
                0.9217029213905334,
                0.8105074167251587,
                0.29787659645080566
            ],
            "min" : [
                -0.9336155652999878,
                -0.8685358762741089,
                -0.2977510094642639
            ],
            "type" : "VEC3"
        },
        {
            "bufferView" : 14,
            "componentType" : 5126,
            "count" : 2928,
            "type" : "VEC3"
        },
        {
            "bufferView" : 15,
            "componentType" : 5126,
            "count" : 2928,
            "type" : "VEC2"
        },
        {
            "bufferView" : 16,
            "componentType" : 5123,
            "count" : 16164,
            "type" : "SCALAR"
        },
        {
            "bufferView" : 17,
            "componentType" : 5126,
            "count" : 308,
            "max" : [
                0.8999996781349182,
                0.10000002384185791,
                0.30000001192092896
            ],
            "min" : [
                -0.909999668598175,
                -0.10000002384185791,
                -0.30000001192092896
            ],
            "type" : "VEC3"
        },
        {
            "bufferView" : 18,
            "componentType" : 5126,
            "count" : 308,
            "type" : "VEC3"
        },
        {
            "bufferView" : 19,
            "componentType" : 5126,
            "count" : 308,
            "type" : "VEC2"
        },
        {
            "bufferView" : 20,
            "componentType" : 5123,
            "count" : 1584,
            "type" : "SCALAR"
        },
        {
            "bufferView" : 21,
            "componentType" : 5126,
            "count" : 752,
            "max" : [
                17.240537643432617,
                7.411654949188232,
                0.6576299071311951
            ],
            "min" : [
                -19.159460067749023,
                -2.230910062789917,
                -3.9497196674346924
            ],
            "type" : "VEC3"
        },
        {
            "bufferView" : 22,
            "componentType" : 5126,
            "count" : 752,
            "type" : "VEC3"
        },
        {
            "bufferView" : 23,
            "componentType" : 5126,
            "count" : 752,
            "type" : "VEC2"
        }
    ],
    "bufferViews" : [
        {
            "buffer" : 0,
            "byteLength" : 9024,
            "byteOffset" : 0
        },
        {
            "buffer" : 0,
            "byteLength" : 9024,
            "byteOffset" : 9024
        },
        {
            "buffer" : 0,
            "byteLength" : 6016,
            "byteOffset" : 18048
        },
        {
            "buffer" : 0,
            "byteLength" : 3360,
            "byteOffset" : 24064
        },
        {
            "buffer" : 0,
            "byteLength" : 11997,
            "byteOffset" : 27424
        },
        {
            "buffer" : 0,
            "byteLength" : 9024,
            "byteOffset" : 39424
        },
        {
            "buffer" : 0,
            "byteLength" : 9024,
            "byteOffset" : 48448
        },
        {
            "buffer" : 0,
            "byteLength" : 6016,
            "byteOffset" : 57472
        },
        {
            "buffer" : 0,
            "byteLength" : 3360,
            "byteOffset" : 63488
        },
        {
            "buffer" : 0,
            "byteLength" : 4896,
            "byteOffset" : 66848
        },
        {
            "buffer" : 0,
            "byteLength" : 4896,
            "byteOffset" : 71744
        },
        {
            "buffer" : 0,
            "byteLength" : 3264,
            "byteOffset" : 76640
        },
        {
            "buffer" : 0,
            "byteLength" : 2064,
            "byteOffset" : 79904
        },
        {
            "buffer" : 0,
            "byteLength" : 35136,
            "byteOffset" : 81968
        },
        {
            "buffer" : 0,
            "byteLength" : 35136,
            "byteOffset" : 117104
        },
        {
            "buffer" : 0,
            "byteLength" : 23424,
            "byteOffset" : 152240
        },
        {
            "buffer" : 0,
            "byteLength" : 32328,
            "byteOffset" : 175664
        },
        {
            "buffer" : 0,
            "byteLength" : 3696,
            "byteOffset" : 207992
        },
        {
            "buffer" : 0,
            "byteLength" : 3696,
            "byteOffset" : 211688
        },
        {
            "buffer" : 0,
            "byteLength" : 2464,
            "byteOffset" : 215384
        },
        {
            "buffer" : 0,
            "byteLength" : 3168,
            "byteOffset" : 217848
        },
        {
            "buffer" : 0,
            "byteLength" : 9024,
            "byteOffset" : 221016
        },
        {
            "buffer" : 0,
            "byteLength" : 9024,
            "byteOffset" : 230040
        },
        {
            "buffer" : 0,
            "byteLength" : 6016,
            "byteOffset" : 239064
        }
    ],
    "samplers" : [
        {
            "magFilter" : 9729,
            "minFilter" : 9987
        }
    ],
    "buffers" : [
        {
            "byteLength" : 245080,
            "uri" : "data:application/octet-stream;base64,"
        }
    ]
}
