{
    "asset" : {
        "copyright" : "Jeremy Edelblut",
        "generator" : "Khronos glTF Blender I/O v1.7.33",
        "version" : "2.0"
    },
    "scene" : 0,
    "scenes" : [
        {
            "name" : "Scene",
            "nodes" : [
                0
            ]
        }
    ],
    "nodes" : [
        {
            "mesh" : 0,
            "name" : "Cube.505",
            "scale" : [
                0.7507688999176025,
                0.7507688999176025,
                0.7507688999176025
            ],
            "translation" : [
                0,
                -0.974757730960846,
                0
            ]
        }
    ],
    "materials" : [
        {
            "doubleSided" : true,
            "name" : "color",
            "pbrMetallicRoughness" : {
                "baseColorTexture" : {
                    "index" : 0
                },
                "metallicFactor" : 0,
                "roughnessFactor" : 0.5
            }
        }
    ],
    "meshes" : [
        {
            "name" : "Cube.883",
            "primitives" : [
                {
                    "attributes" : {
                        "POSITION" : 0,
                        "NORMAL" : 1,
                        "TEXCOORD_0" : 2
                    },
                    "indices" : 3,
                    "material" : 0
                }
            ]
        }
    ],
    "textures" : [
        {
            "sampler" : 0,
            "source" : 0
        }
    ],
    "images" : [
        {
            "bufferView" : 4,
            "mimeType" : "image/png",
            "name" : "tex"
        }
    ],
    "accessors" : [
        {
            "bufferView" : 0,
            "componentType" : 5126,
            "count" : 1273,
            "max" : [
                1.3150913715362549,
                2.7642221450805664,
                1.3150913715362549
            ],
            "min" : [
                -1.3150913715362549,
                0,
                -1.3150913715362549
            ],
            "type" : "VEC3"
        },
        {
            "bufferView" : 1,
            "componentType" : 5126,
            "count" : 1273,
            "type" : "VEC3"
        },
        {
            "bufferView" : 2,
            "componentType" : 5126,
            "count" : 1273,
            "type" : "VEC2"
        },
        {
            "bufferView" : 3,
            "componentType" : 5123,
            "count" : 2934,
            "type" : "SCALAR"
        }
    ],
    "bufferViews" : [
        {
            "buffer" : 0,
            "byteLength" : 15276,
            "byteOffset" : 0
        },
        {
            "buffer" : 0,
            "byteLength" : 15276,
            "byteOffset" : 15276
        },
        {
            "buffer" : 0,
            "byteLength" : 10184,
            "byteOffset" : 30552
        },
        {
            "buffer" : 0,
            "byteLength" : 5868,
            "byteOffset" : 40736
        },
        {
            "buffer" : 0,
            "byteLength" : 11997,
            "byteOffset" : 46604
        }
    ],
    "samplers" : [
        {
            "magFilter" : 9729,
            "minFilter" : 9987
        }
    ],
    "buffers" : [
        {
            "byteLength" : 58604,
            "uri" : "data:application/octet-stream;base64,"
        }
    ]
}
