{
    "asset" : {
        "copyright" : "Jeremy Edelblut",
        "generator" : "Khronos glTF Blender I/O v1.6.16",
        "version" : "2.0"
    },
    "scene" : 0,
    "scenes" : [
        {
            "name" : "Scene",
            "nodes" : [
                0,
                1,
                2
            ]
        }
    ],
    "nodes" : [
        {
            "mesh" : 0,
            "name" : "Circle.1913",
            "rotation" : [
                0.7071068286895752,
                0,
                0,
                0.7071068286895752
            ],
            "scale" : [
                0.2847156226634979,
                0.2847156226634979,
                0.2847156226634979
            ],
            "translation" : [
                0,
                0.36421072483062744,
                0.6326526999473572
            ]
        },
        {
            "mesh" : 1,
            "name" : "Plane.137",
            "scale" : [
                0.4745260179042816,
                0.4745260179042816,
                0.4745260179042816
            ],
            "translation" : [
                0,
                0,
                -0.3593483865261078
            ]
        },
        {
            "mesh" : 2,
            "name" : "Cube.6241",
            "scale" : [
                0.4745260179042816,
                0.4745260179042816,
                0.4745260179042816
            ],
            "translation" : [
                0,
                0,
                -0.3593483865261078
            ]
        }
    ],
    "materials" : [
        {
            "doubleSided" : true,
            "name" : "DKBrown",
            "pbrMetallicRoughness" : {
                "baseColorFactor" : [
                    0.010021701455116272,
                    0.0023923655971884727,
                    0.0018060366855934262,
                    1
                ],
                "metallicFactor" : 0,
                "roughnessFactor" : 0.5
            }
        },
        {
            "doubleSided" : true,
            "name" : "gray",
            "pbrMetallicRoughness" : {
                "baseColorFactor" : [
                    0.10474124550819397,
                    0.09742098301649094,
                    0.10653529316186905,
                    1
                ],
                "metallicFactor" : 0,
                "roughnessFactor" : 0.5
            }
        },
        {
            "doubleSided" : true,
            "name" : "Lightgray",
            "pbrMetallicRoughness" : {
                "baseColorFactor" : [
                    0.4124824106693268,
                    0.38176509737968445,
                    0.42002442479133606,
                    1
                ],
                "metallicFactor" : 0,
                "roughnessFactor" : 0.5
            }
        },
        {
            "doubleSided" : true,
            "name" : "DKgray",
            "pbrMetallicRoughness" : {
                "baseColorFactor" : [
                    0.03682169318199158,
                    0.03446357324719429,
                    0.03740420565009117,
                    1
                ],
                "metallicFactor" : 0,
                "roughnessFactor" : 0.5
            }
        }
    ],
    "meshes" : [
        {
            "name" : "Circle.2129",
            "primitives" : [
                {
                    "attributes" : {
                        "POSITION" : 0,
                        "NORMAL" : 1,
                        "TEXCOORD_0" : 2
                    },
                    "indices" : 3,
                    "material" : 0
                }
            ]
        },
        {
            "name" : "Plane.137",
            "primitives" : [
                {
                    "attributes" : {
                        "POSITION" : 4,
                        "NORMAL" : 5,
                        "TEXCOORD_0" : 6
                    },
                    "indices" : 7,
                    "material" : 1
                },
                {
                    "attributes" : {
                        "POSITION" : 8,
                        "NORMAL" : 9,
                        "TEXCOORD_0" : 10
                    },
                    "indices" : 11,
                    "material" : 2
                },
                {
                    "attributes" : {
                        "POSITION" : 12,
                        "NORMAL" : 13,
                        "TEXCOORD_0" : 14
                    },
                    "indices" : 15,
                    "material" : 3
                }
            ]
        },
        {
            "name" : "Cube.7299",
            "primitives" : [
                {
                    "attributes" : {
                        "POSITION" : 16,
                        "NORMAL" : 17,
                        "TEXCOORD_0" : 18
                    },
                    "indices" : 19,
                    "material" : 1
                },
                {
                    "attributes" : {
                        "POSITION" : 20,
                        "NORMAL" : 21,
                        "TEXCOORD_0" : 22
                    },
                    "indices" : 23,
                    "material" : 2
                }
            ]
        }
    ],
    "accessors" : [
        {
            "bufferView" : 0,
            "componentType" : 5126,
            "count" : 752,
            "max" : [
                0.6492528319358826,
                0.14889542758464813,
                0.21074387431144714
            ],
            "min" : [
                -0.6492528319358826,
                -0.05106980353593826,
                -0.01848558895289898
            ],
            "type" : "VEC3"
        },
        {
            "bufferView" : 1,
            "componentType" : 5126,
            "count" : 752,
            "type" : "VEC3"
        },
        {
            "bufferView" : 2,
            "componentType" : 5126,
            "count" : 752,
            "type" : "VEC2"
        },
        {
            "bufferView" : 3,
            "componentType" : 5123,
            "count" : 2880,
            "type" : "SCALAR"
        },
        {
            "bufferView" : 4,
            "componentType" : 5126,
            "count" : 784,
            "max" : [
                0.675000011920929,
                1.0958645343780518,
                3.1307554244995117
            ],
            "min" : [
                -0.675000011920929,
                -1.3229330778121948,
                -1.527675747871399
            ],
            "type" : "VEC3"
        },
        {
            "bufferView" : 5,
            "componentType" : 5126,
            "count" : 784,
            "type" : "VEC3"
        },
        {
            "bufferView" : 6,
            "componentType" : 5126,
            "count" : 784,
            "type" : "VEC2"
        },
        {
            "bufferView" : 7,
            "componentType" : 5123,
            "count" : 1944,
            "type" : "SCALAR"
        },
        {
            "bufferView" : 8,
            "componentType" : 5126,
            "count" : 59,
            "max" : [
                0.675000011920929,
                0.13223931193351746,
                2.9682562351226807
            ],
            "min" : [
                -0.675000011920929,
                -0.6555600166320801,
                -1.2634339332580566
            ],
            "type" : "VEC3"
        },
        {
            "bufferView" : 9,
            "componentType" : 5126,
            "count" : 59,
            "type" : "VEC3"
        },
        {
            "bufferView" : 10,
            "componentType" : 5126,
            "count" : 59,
            "type" : "VEC2"
        },
        {
            "bufferView" : 11,
            "componentType" : 5123,
            "count" : 222,
            "type" : "SCALAR"
        },
        {
            "bufferView" : 12,
            "componentType" : 5126,
            "count" : 64,
            "max" : [
                0.20543450117111206,
                0.6950141191482544,
                2.9941532611846924
            ],
            "min" : [
                -0.20543450117111206,
                0.623126745223999,
                2.861401319503784
            ],
            "type" : "VEC3"
        },
        {
            "bufferView" : 13,
            "componentType" : 5126,
            "count" : 64,
            "type" : "VEC3"
        },
        {
            "bufferView" : 14,
            "componentType" : 5126,
            "count" : 64,
            "type" : "VEC2"
        },
        {
            "bufferView" : 15,
            "componentType" : 5123,
            "count" : 180,
            "type" : "SCALAR"
        },
        {
            "bufferView" : 16,
            "componentType" : 5126,
            "count" : 108,
            "max" : [
                0.5620712041854858,
                0.9324745535850525,
                2.028364419937134
            ],
            "min" : [
                -0.5620712041854858,
                0.7995656728744507,
                1.9652568101882935
            ],
            "type" : "VEC3"
        },
        {
            "bufferView" : 17,
            "componentType" : 5126,
            "count" : 108,
            "type" : "VEC3"
        },
        {
            "bufferView" : 18,
            "componentType" : 5126,
            "count" : 108,
            "type" : "VEC2"
        },
        {
            "bufferView" : 19,
            "componentType" : 5123,
            "count" : 264,
            "type" : "SCALAR"
        },
        {
            "bufferView" : 20,
            "componentType" : 5126,
            "count" : 30,
            "max" : [
                0.5620712041854858,
                0.9266566634178162,
                2.028364419937134
            ],
            "min" : [
                -0.5620712041854858,
                0.7995656728744507,
                1.9850045442581177
            ],
            "type" : "VEC3"
        },
        {
            "bufferView" : 21,
            "componentType" : 5126,
            "count" : 30,
            "type" : "VEC3"
        },
        {
            "bufferView" : 22,
            "componentType" : 5126,
            "count" : 30,
            "type" : "VEC2"
        },
        {
            "bufferView" : 23,
            "componentType" : 5123,
            "count" : 96,
            "type" : "SCALAR"
        }
    ],
    "bufferViews" : [
        {
            "buffer" : 0,
            "byteLength" : 9024,
            "byteOffset" : 0
        },
        {
            "buffer" : 0,
            "byteLength" : 9024,
            "byteOffset" : 9024
        },
        {
            "buffer" : 0,
            "byteLength" : 6016,
            "byteOffset" : 18048
        },
        {
            "buffer" : 0,
            "byteLength" : 5760,
            "byteOffset" : 24064
        },
        {
            "buffer" : 0,
            "byteLength" : 9408,
            "byteOffset" : 29824
        },
        {
            "buffer" : 0,
            "byteLength" : 9408,
            "byteOffset" : 39232
        },
        {
            "buffer" : 0,
            "byteLength" : 6272,
            "byteOffset" : 48640
        },
        {
            "buffer" : 0,
            "byteLength" : 3888,
            "byteOffset" : 54912
        },
        {
            "buffer" : 0,
            "byteLength" : 708,
            "byteOffset" : 58800
        },
        {
            "buffer" : 0,
            "byteLength" : 708,
            "byteOffset" : 59508
        },
        {
            "buffer" : 0,
            "byteLength" : 472,
            "byteOffset" : 60216
        },
        {
            "buffer" : 0,
            "byteLength" : 444,
            "byteOffset" : 60688
        },
        {
            "buffer" : 0,
            "byteLength" : 768,
            "byteOffset" : 61132
        },
        {
            "buffer" : 0,
            "byteLength" : 768,
            "byteOffset" : 61900
        },
        {
            "buffer" : 0,
            "byteLength" : 512,
            "byteOffset" : 62668
        },
        {
            "buffer" : 0,
            "byteLength" : 360,
            "byteOffset" : 63180
        },
        {
            "buffer" : 0,
            "byteLength" : 1296,
            "byteOffset" : 63540
        },
        {
            "buffer" : 0,
            "byteLength" : 1296,
            "byteOffset" : 64836
        },
        {
            "buffer" : 0,
            "byteLength" : 864,
            "byteOffset" : 66132
        },
        {
            "buffer" : 0,
            "byteLength" : 528,
            "byteOffset" : 66996
        },
        {
            "buffer" : 0,
            "byteLength" : 360,
            "byteOffset" : 67524
        },
        {
            "buffer" : 0,
            "byteLength" : 360,
            "byteOffset" : 67884
        },
        {
            "buffer" : 0,
            "byteLength" : 240,
            "byteOffset" : 68244
        },
        {
            "buffer" : 0,
            "byteLength" : 192,
            "byteOffset" : 68484
        }
    ],
    "buffers" : [
        {
            "byteLength" : 68676,
            "uri" : "data:application/octet-stream;base64,"
        }
    ]
}
