{
    "asset" : {
        "copyright" : "Jeremy Edelblut - 3moji.org",
        "generator" : "Khronos glTF Blender I/O v1.6.16",
        "version" : "2.0"
    },
    "scene" : 0,
    "scenes" : [
        {
            "name" : "Scene",
            "nodes" : [
                0,
                1,
                2
            ]
        }
    ],
    "nodes" : [
        {
            "mesh" : 0,
            "name" : "Circle.1996",
            "rotation" : [
                0.5,
                -0.5,
                0.5,
                0.4999999701976776
            ],
            "translation" : [
                0.08589336276054382,
                -0.6932420134544373,
                0
            ]
        },
        {
            "mesh" : 1,
            "name" : "Circle.1997",
            "rotation" : [
                0,
                -0.7071068286895752,
                0,
                0.7071068286895752
            ],
            "scale" : [
                0.36283865571022034,
                0.36283865571022034,
                0.36283865571022034
            ],
            "translation" : [
                0.06931768357753754,
                -0.35879504680633545,
                0
            ]
        },
        {
            "mesh" : 2,
            "name" : "Cube.137",
            "rotation" : [
                0,
                -0.7071068286895752,
                0,
                0.7071068286895752
            ],
            "scale" : [
                0.3903081715106964,
                0.3903081715106964,
                0.3903081715106964
            ],
            "translation" : [
                0,
                -0.3693642318248749,
                0
            ]
        }
    ],
    "materials" : [
        {
            "doubleSided" : true,
            "name" : "DKBrown",
            "pbrMetallicRoughness" : {
                "baseColorFactor" : [
                    0.010021701455116272,
                    0.0023923655971884727,
                    0.0018060366855934262,
                    1
                ],
                "metallicFactor" : 0,
                "roughnessFactor" : 0.5
            }
        },
        {
            "alphaMode" : "BLEND",
            "doubleSided" : true,
            "name" : "Transpatent",
            "pbrMetallicRoughness" : {
                "baseColorFactor" : [
                    0.9072647094726562,
                    0.9472811222076416,
                    1,
                    1
                ],
                "metallicFactor" : 0,
                "roughnessFactor" : 0.12272727489471436
            }
        },
        {
            "doubleSided" : true,
            "name" : "blond",
            "pbrMetallicRoughness" : {
                "baseColorFactor" : [
                    0.7873942852020264,
                    0.5489762425422668,
                    0.04593009129166603,
                    1
                ],
                "metallicFactor" : 0,
                "roughnessFactor" : 0.5
            }
        }
    ],
    "meshes" : [
        {
            "name" : "Circle.2320",
            "primitives" : [
                {
                    "attributes" : {
                        "POSITION" : 0,
                        "NORMAL" : 1,
                        "TEXCOORD_0" : 2
                    },
                    "indices" : 3,
                    "material" : 0
                }
            ]
        },
        {
            "name" : "Circle.2321",
            "primitives" : [
                {
                    "attributes" : {
                        "POSITION" : 4,
                        "NORMAL" : 5,
                        "TEXCOORD_0" : 6
                    },
                    "indices" : 7,
                    "material" : 1
                }
            ]
        },
        {
            "name" : "Cube.256",
            "primitives" : [
                {
                    "attributes" : {
                        "POSITION" : 8,
                        "NORMAL" : 9,
                        "TEXCOORD_0" : 10
                    },
                    "indices" : 11,
                    "material" : 2
                },
                {
                    "attributes" : {
                        "POSITION" : 12,
                        "NORMAL" : 13,
                        "TEXCOORD_0" : 14
                    },
                    "indices" : 15,
                    "material" : 0
                }
            ]
        }
    ],
    "accessors" : [
        {
            "bufferView" : 0,
            "componentType" : 5126,
            "count" : 224,
            "max" : [
                0.21100695431232452,
                -0.2400582879781723,
                -0.26088470220565796
            ],
            "min" : [
                -0.21100695431232452,
                -0.4976580739021301,
                -0.5506479740142822
            ],
            "type" : "VEC3"
        },
        {
            "bufferView" : 1,
            "componentType" : 5126,
            "count" : 224,
            "type" : "VEC3"
        },
        {
            "bufferView" : 2,
            "componentType" : 5126,
            "count" : 224,
            "type" : "VEC2"
        },
        {
            "bufferView" : 3,
            "componentType" : 5123,
            "count" : 840,
            "type" : "SCALAR"
        },
        {
            "bufferView" : 4,
            "componentType" : 5126,
            "count" : 640,
            "max" : [
                0.19527606666088104,
                3.3434720039367676,
                1.7958108186721802
            ],
            "min" : [
                -0.1912817806005478,
                0.8175428509712219,
                -1.2788081169128418
            ],
            "type" : "VEC3"
        },
        {
            "bufferView" : 5,
            "componentType" : 5126,
            "count" : 640,
            "type" : "VEC3"
        },
        {
            "bufferView" : 6,
            "componentType" : 5126,
            "count" : 640,
            "type" : "VEC2"
        },
        {
            "bufferView" : 7,
            "componentType" : 5123,
            "count" : 3816,
            "type" : "SCALAR"
        },
        {
            "bufferView" : 8,
            "componentType" : 5126,
            "count" : 164,
            "max" : [
                0.46375393867492676,
                1,
                1.8000000715255737
            ],
            "min" : [
                -0.46375393867492676,
                -1,
                -1.8000000715255737
            ],
            "type" : "VEC3"
        },
        {
            "bufferView" : 9,
            "componentType" : 5126,
            "count" : 164,
            "type" : "VEC3"
        },
        {
            "bufferView" : 10,
            "componentType" : 5126,
            "count" : 164,
            "type" : "VEC2"
        },
        {
            "bufferView" : 11,
            "componentType" : 5123,
            "count" : 438,
            "type" : "SCALAR"
        },
        {
            "bufferView" : 12,
            "componentType" : 5126,
            "count" : 30,
            "max" : [
                0.46375393867492676,
                1,
                1.9783072471618652
            ],
            "min" : [
                -0.46375393867492676,
                -1,
                -0.6000000238418579
            ],
            "type" : "VEC3"
        },
        {
            "bufferView" : 13,
            "componentType" : 5126,
            "count" : 30,
            "type" : "VEC3"
        },
        {
            "bufferView" : 14,
            "componentType" : 5126,
            "count" : 30,
            "type" : "VEC2"
        },
        {
            "bufferView" : 15,
            "componentType" : 5123,
            "count" : 42,
            "type" : "SCALAR"
        }
    ],
    "bufferViews" : [
        {
            "buffer" : 0,
            "byteLength" : 2688,
            "byteOffset" : 0
        },
        {
            "buffer" : 0,
            "byteLength" : 2688,
            "byteOffset" : 2688
        },
        {
            "buffer" : 0,
            "byteLength" : 1792,
            "byteOffset" : 5376
        },
        {
            "buffer" : 0,
            "byteLength" : 1680,
            "byteOffset" : 7168
        },
        {
            "buffer" : 0,
            "byteLength" : 7680,
            "byteOffset" : 8848
        },
        {
            "buffer" : 0,
            "byteLength" : 7680,
            "byteOffset" : 16528
        },
        {
            "buffer" : 0,
            "byteLength" : 5120,
            "byteOffset" : 24208
        },
        {
            "buffer" : 0,
            "byteLength" : 7632,
            "byteOffset" : 29328
        },
        {
            "buffer" : 0,
            "byteLength" : 1968,
            "byteOffset" : 36960
        },
        {
            "buffer" : 0,
            "byteLength" : 1968,
            "byteOffset" : 38928
        },
        {
            "buffer" : 0,
            "byteLength" : 1312,
            "byteOffset" : 40896
        },
        {
            "buffer" : 0,
            "byteLength" : 876,
            "byteOffset" : 42208
        },
        {
            "buffer" : 0,
            "byteLength" : 360,
            "byteOffset" : 43084
        },
        {
            "buffer" : 0,
            "byteLength" : 360,
            "byteOffset" : 43444
        },
        {
            "buffer" : 0,
            "byteLength" : 240,
            "byteOffset" : 43804
        },
        {
            "buffer" : 0,
            "byteLength" : 84,
            "byteOffset" : 44044
        }
    ],
    "buffers" : [
        {
            "byteLength" : 44128,
            "uri" : "data:application/octet-stream;base64,"
        }
    ]
}
