{
    "asset" : {
        "copyright" : "Jeremy Edelblut",
        "generator" : "Khronos glTF Blender I/O v1.6.16",
        "version" : "2.0"
    },
    "scene" : 0,
    "scenes" : [
        {
            "name" : "Scene",
            "nodes" : [
                0,
                1
            ]
        }
    ],
    "nodes" : [
        {
            "mesh" : 0,
            "name" : "Circle.1996",
            "rotation" : [
                -0.2705981135368347,
                -0.6532814502716064,
                0.6532814502716064,
                -0.2705981135368347
            ],
            "scale" : [
                1.3000001907348633,
                1.3000001907348633,
                1.3000000715255737
            ],
            "translation" : [
                -0.07895652204751968,
                -0.901214599609375,
                0.07895650714635849
            ]
        },
        {
            "mesh" : 1,
            "name" : "Cube.137",
            "rotation" : [
                0,
                -0.9238795042037964,
                0,
                -0.38268351554870605
            ],
            "scale" : [
                0.507400631904602,
                0.507400631904602,
                0.507400631904602
            ],
            "translation" : [
                0,
                -0.4801734983921051,
                0
            ]
        }
    ],
    "materials" : [
        {
            "doubleSided" : true,
            "name" : "Color",
            "pbrMetallicRoughness" : {
                "baseColorTexture" : {
                    "index" : 0
                },
                "metallicFactor" : 0,
                "roughnessFactor" : 0.5
            }
        },
        {
            "alphaMode" : "BLEND",
            "doubleSided" : true,
            "name" : "Transparent",
            "pbrMetallicRoughness" : {
                "baseColorFactor" : [
                    0.9072647094726562,
                    0.9472811222076416,
                    1,
                    0.10000000149011612
                ],
                "metallicFactor" : 0,
                "roughnessFactor" : 0.05000000447034836
            }
        }
    ],
    "meshes" : [
        {
            "name" : "Circle.2320",
            "primitives" : [
                {
                    "attributes" : {
                        "POSITION" : 0,
                        "NORMAL" : 1,
                        "TEXCOORD_0" : 2
                    },
                    "indices" : 3,
                    "material" : 0
                }
            ]
        },
        {
            "name" : "Cube.256",
            "primitives" : [
                {
                    "attributes" : {
                        "POSITION" : 4,
                        "NORMAL" : 5,
                        "TEXCOORD_0" : 6
                    },
                    "indices" : 7,
                    "material" : 0
                },
                {
                    "attributes" : {
                        "POSITION" : 8,
                        "NORMAL" : 9,
                        "TEXCOORD_0" : 10
                    },
                    "indices" : 11,
                    "material" : 1
                }
            ]
        }
    ],
    "textures" : [
        {
            "sampler" : 0,
            "source" : 0
        }
    ],
    "images" : [
        {
            "bufferView" : 4,
            "mimeType" : "image/png",
            "name" : "tex"
        }
    ],
    "accessors" : [
        {
            "bufferView" : 0,
            "componentType" : 5126,
            "count" : 224,
            "max" : [
                0.21100695431232452,
                -0.24005833268165588,
                -0.26088470220565796
            ],
            "min" : [
                -0.21100695431232452,
                -0.4976580739021301,
                -0.5506479740142822
            ],
            "type" : "VEC3"
        },
        {
            "bufferView" : 1,
            "componentType" : 5126,
            "count" : 224,
            "type" : "VEC3"
        },
        {
            "bufferView" : 2,
            "componentType" : 5126,
            "count" : 224,
            "type" : "VEC2"
        },
        {
            "bufferView" : 3,
            "componentType" : 5123,
            "count" : 840,
            "type" : "SCALAR"
        },
        {
            "bufferView" : 5,
            "componentType" : 5126,
            "count" : 190,
            "max" : [
                0.46375393867492676,
                1,
                1.9783072471618652
            ],
            "min" : [
                -0.46375393867492676,
                -1,
                -1.8000000715255737
            ],
            "type" : "VEC3"
        },
        {
            "bufferView" : 6,
            "componentType" : 5126,
            "count" : 190,
            "type" : "VEC3"
        },
        {
            "bufferView" : 7,
            "componentType" : 5126,
            "count" : 190,
            "type" : "VEC2"
        },
        {
            "bufferView" : 8,
            "componentType" : 5123,
            "count" : 480,
            "type" : "SCALAR"
        },
        {
            "bufferView" : 9,
            "componentType" : 5126,
            "count" : 524,
            "max" : [
                0.6572235822677612,
                3.0079164505004883,
                1.14778733253479
            ],
            "min" : [
                -0.6572235822677612,
                0.7185682654380798,
                -0.4533948302268982
            ],
            "type" : "VEC3"
        },
        {
            "bufferView" : 10,
            "componentType" : 5126,
            "count" : 524,
            "type" : "VEC3"
        },
        {
            "bufferView" : 11,
            "componentType" : 5126,
            "count" : 524,
            "type" : "VEC2"
        },
        {
            "bufferView" : 12,
            "componentType" : 5123,
            "count" : 2280,
            "type" : "SCALAR"
        }
    ],
    "bufferViews" : [
        {
            "buffer" : 0,
            "byteLength" : 2688,
            "byteOffset" : 0
        },
        {
            "buffer" : 0,
            "byteLength" : 2688,
            "byteOffset" : 2688
        },
        {
            "buffer" : 0,
            "byteLength" : 1792,
            "byteOffset" : 5376
        },
        {
            "buffer" : 0,
            "byteLength" : 1680,
            "byteOffset" : 7168
        },
        {
            "buffer" : 0,
            "byteLength" : 3214,
            "byteOffset" : 8848
        },
        {
            "buffer" : 0,
            "byteLength" : 2280,
            "byteOffset" : 12064
        },
        {
            "buffer" : 0,
            "byteLength" : 2280,
            "byteOffset" : 14344
        },
        {
            "buffer" : 0,
            "byteLength" : 1520,
            "byteOffset" : 16624
        },
        {
            "buffer" : 0,
            "byteLength" : 960,
            "byteOffset" : 18144
        },
        {
            "buffer" : 0,
            "byteLength" : 6288,
            "byteOffset" : 19104
        },
        {
            "buffer" : 0,
            "byteLength" : 6288,
            "byteOffset" : 25392
        },
        {
            "buffer" : 0,
            "byteLength" : 4192,
            "byteOffset" : 31680
        },
        {
            "buffer" : 0,
            "byteLength" : 4560,
            "byteOffset" : 35872
        }
    ],
    "samplers" : [
        {
            "magFilter" : 9729,
            "minFilter" : 9987
        }
    ],
    "buffers" : [
        {
            "byteLength" : 40432,
            "uri" : "data:application/octet-stream;base64,"
        }
    ]
}
