{
    "asset" : {
        "copyright" : "Jeremy Edelblut",
        "generator" : "Khronos glTF Blender I/O v1.7.33",
        "version" : "2.0"
    },
    "scene" : 0,
    "scenes" : [
        {
            "name" : "Scene",
            "nodes" : [
                0,
                1,
                2,
                3,
                4
            ]
        }
    ],
    "nodes" : [
        {
            "mesh" : 0,
            "name" : "Circle.1879",
            "rotation" : [
                0.6248971819877625,
                -0.3309132754802704,
                0.3309132754802704,
                0.6248971819877625
            ],
            "translation" : [
                -0.013027537614107132,
                -0.48127710819244385,
                0.06305846571922302
            ]
        },
        {
            "mesh" : 1,
            "name" : "Cube.6209",
            "rotation" : [
                0,
                -0.4679822027683258,
                0,
                0.8837378621101379
            ],
            "translation" : [
                0.010452574118971825,
                -0.5225877165794373,
                0.04710545763373375
            ]
        },
        {
            "mesh" : 2,
            "name" : "Cube.6210",
            "rotation" : [
                0,
                -0.4679822027683258,
                0,
                0.8837378621101379
            ],
            "translation" : [
                -0.01649675890803337,
                -0.5225877165794373,
                0.06541553884744644
            ]
        },
        {
            "mesh" : 3,
            "name" : "Plane.110",
            "rotation" : [
                0,
                -0.4679822027683258,
                0,
                0.8837378621101379
            ],
            "translation" : [
                0.010452574118971825,
                -0.5225877165794373,
                0.04710545763373375
            ]
        },
        {
            "mesh" : 4,
            "name" : "3moji.org.202",
            "rotation" : [
                0.25182271003723145,
                0.14942491054534912,
                0.8234723806381226,
                0.4859537184238434
            ],
            "translation" : [
                0.3563902974128723,
                -0.869222104549408,
                -0.17307527363300323
            ]
        }
    ],
    "materials" : [
        {
            "doubleSided" : true,
            "name" : "color",
            "pbrMetallicRoughness" : {
                "baseColorTexture" : {
                    "index" : 0
                },
                "metallicFactor" : 0,
                "roughnessFactor" : 0.5
            }
        }
    ],
    "meshes" : [
        {
            "name" : "Circle.2095",
            "primitives" : [
                {
                    "attributes" : {
                        "POSITION" : 0,
                        "NORMAL" : 1,
                        "TEXCOORD_0" : 2
                    },
                    "indices" : 3,
                    "material" : 0
                }
            ]
        },
        {
            "name" : "Cube.7264",
            "primitives" : [
                {
                    "attributes" : {
                        "POSITION" : 4,
                        "NORMAL" : 5,
                        "TEXCOORD_0" : 6
                    },
                    "indices" : 7,
                    "material" : 0
                }
            ]
        },
        {
            "name" : "Cube.7265",
            "primitives" : [
                {
                    "attributes" : {
                        "POSITION" : 8,
                        "NORMAL" : 9,
                        "TEXCOORD_0" : 10
                    },
                    "indices" : 11,
                    "material" : 0
                }
            ]
        },
        {
            "name" : "Plane.111",
            "primitives" : [
                {
                    "attributes" : {
                        "POSITION" : 12,
                        "NORMAL" : 13,
                        "TEXCOORD_0" : 14
                    },
                    "indices" : 15,
                    "material" : 0
                }
            ]
        },
        {
            "name" : "Cube.661",
            "primitives" : [
                {
                    "attributes" : {
                        "POSITION" : 16,
                        "NORMAL" : 17,
                        "TEXCOORD_0" : 18
                    },
                    "indices" : 19,
                    "material" : 0
                }
            ]
        }
    ],
    "textures" : [
        {
            "sampler" : 0,
            "source" : 0
        }
    ],
    "images" : [
        {
            "bufferView" : 4,
            "mimeType" : "image/png",
            "name" : "tex"
        }
    ],
    "accessors" : [
        {
            "bufferView" : 0,
            "componentType" : 5126,
            "count" : 644,
            "max" : [
                0.2849007546901703,
                0.25925227999687195,
                -0.6212620735168457
            ],
            "min" : [
                -0.2849007546901703,
                0.061438269913196564,
                -0.8556200265884399
            ],
            "type" : "VEC3"
        },
        {
            "bufferView" : 1,
            "componentType" : 5126,
            "count" : 644,
            "type" : "VEC3"
        },
        {
            "bufferView" : 2,
            "componentType" : 5126,
            "count" : 644,
            "type" : "VEC2"
        },
        {
            "bufferView" : 3,
            "componentType" : 5123,
            "count" : 2880,
            "type" : "SCALAR"
        },
        {
            "bufferView" : 5,
            "componentType" : 5126,
            "count" : 260,
            "max" : [
                0.09455148875713348,
                1.5972219705581665,
                0.5707303285598755
            ],
            "min" : [
                -0.09455148875713348,
                -0.1342320591211319,
                -1.354013204574585
            ],
            "type" : "VEC3"
        },
        {
            "bufferView" : 6,
            "componentType" : 5126,
            "count" : 260,
            "type" : "VEC3"
        },
        {
            "bufferView" : 7,
            "componentType" : 5126,
            "count" : 260,
            "type" : "VEC2"
        },
        {
            "bufferView" : 8,
            "componentType" : 5123,
            "count" : 768,
            "type" : "SCALAR"
        },
        {
            "bufferView" : 9,
            "componentType" : 5126,
            "count" : 744,
            "max" : [
                0.38830336928367615,
                1.5326663255691528,
                0.02120685949921608
            ],
            "min" : [
                -0.38830336928367615,
                1.120344638824463,
                -0.15192317962646484
            ],
            "type" : "VEC3"
        },
        {
            "bufferView" : 10,
            "componentType" : 5126,
            "count" : 744,
            "type" : "VEC3"
        },
        {
            "bufferView" : 11,
            "componentType" : 5126,
            "count" : 744,
            "type" : "VEC2"
        },
        {
            "bufferView" : 12,
            "componentType" : 5123,
            "count" : 3504,
            "type" : "SCALAR"
        },
        {
            "bufferView" : 13,
            "componentType" : 5126,
            "count" : 648,
            "max" : [
                0.26490071415901184,
                1.320284366607666,
                1.1404333114624023
            ],
            "min" : [
                -0.26490074396133423,
                -0.5539470314979553,
                -1.112154245376587
            ],
            "type" : "VEC3"
        },
        {
            "bufferView" : 14,
            "componentType" : 5126,
            "count" : 648,
            "type" : "VEC3"
        },
        {
            "bufferView" : 15,
            "componentType" : 5126,
            "count" : 648,
            "type" : "VEC2"
        },
        {
            "bufferView" : 16,
            "componentType" : 5123,
            "count" : 2496,
            "type" : "SCALAR"
        },
        {
            "bufferView" : 17,
            "componentType" : 5126,
            "count" : 752,
            "max" : [
                0.008494154550135136,
                0.05180417746305466,
                0.11305468529462814
            ],
            "min" : [
                1.8818052183178224e-07,
                -0.012459224089980125,
                -0.12563800811767578
            ],
            "type" : "VEC3"
        },
        {
            "bufferView" : 18,
            "componentType" : 5126,
            "count" : 752,
            "type" : "VEC3"
        },
        {
            "bufferView" : 19,
            "componentType" : 5126,
            "count" : 752,
            "type" : "VEC2"
        },
        {
            "bufferView" : 20,
            "componentType" : 5123,
            "count" : 1680,
            "type" : "SCALAR"
        }
    ],
    "bufferViews" : [
        {
            "buffer" : 0,
            "byteLength" : 7728,
            "byteOffset" : 0
        },
        {
            "buffer" : 0,
            "byteLength" : 7728,
            "byteOffset" : 7728
        },
        {
            "buffer" : 0,
            "byteLength" : 5152,
            "byteOffset" : 15456
        },
        {
            "buffer" : 0,
            "byteLength" : 5760,
            "byteOffset" : 20608
        },
        {
            "buffer" : 0,
            "byteLength" : 11997,
            "byteOffset" : 26368
        },
        {
            "buffer" : 0,
            "byteLength" : 3120,
            "byteOffset" : 38368
        },
        {
            "buffer" : 0,
            "byteLength" : 3120,
            "byteOffset" : 41488
        },
        {
            "buffer" : 0,
            "byteLength" : 2080,
            "byteOffset" : 44608
        },
        {
            "buffer" : 0,
            "byteLength" : 1536,
            "byteOffset" : 46688
        },
        {
            "buffer" : 0,
            "byteLength" : 8928,
            "byteOffset" : 48224
        },
        {
            "buffer" : 0,
            "byteLength" : 8928,
            "byteOffset" : 57152
        },
        {
            "buffer" : 0,
            "byteLength" : 5952,
            "byteOffset" : 66080
        },
        {
            "buffer" : 0,
            "byteLength" : 7008,
            "byteOffset" : 72032
        },
        {
            "buffer" : 0,
            "byteLength" : 7776,
            "byteOffset" : 79040
        },
        {
            "buffer" : 0,
            "byteLength" : 7776,
            "byteOffset" : 86816
        },
        {
            "buffer" : 0,
            "byteLength" : 5184,
            "byteOffset" : 94592
        },
        {
            "buffer" : 0,
            "byteLength" : 4992,
            "byteOffset" : 99776
        },
        {
            "buffer" : 0,
            "byteLength" : 9024,
            "byteOffset" : 104768
        },
        {
            "buffer" : 0,
            "byteLength" : 9024,
            "byteOffset" : 113792
        },
        {
            "buffer" : 0,
            "byteLength" : 6016,
            "byteOffset" : 122816
        },
        {
            "buffer" : 0,
            "byteLength" : 3360,
            "byteOffset" : 128832
        }
    ],
    "samplers" : [
        {
            "magFilter" : 9729,
            "minFilter" : 9987
        }
    ],
    "buffers" : [
        {
            "byteLength" : 132192,
            "uri" : "data:application/octet-stream;base64,"
        }
    ]
}
