{
    "asset" : {
        "copyright" : "Jeremy Edelblut - 3moji.org",
        "generator" : "Khronos glTF Blender I/O v1.7.33",
        "version" : "2.0"
    },
    "scene" : 1,
    "scenes" : [
        {
            "name" : "FBX_Temp",
            "nodes" : [
                0
            ]
        },
        {
            "name" : "Scene",
            "nodes" : [
                1,
                2,
                3,
                4,
                5
            ]
        }
    ],
    "nodes" : [
        {
            "mesh" : 0,
            "name" : "3moji.064",
            "rotation" : [
                0,
                -0.7071068286895752,
                0,
                0.7071068286895752
            ]
        },
        {
            "mesh" : 1,
            "name" : "Circle.1880",
            "rotation" : [
                0,
                -0.3826834559440613,
                0,
                0.9238795042037964
            ]
        },
        {
            "mesh" : 2,
            "name" : "Cube.6211",
            "rotation" : [
                0,
                -0.3826834559440613,
                0,
                0.9238795042037964
            ]
        },
        {
            "mesh" : 3,
            "name" : "Cube.6212",
            "rotation" : [
                0,
                -0.3826834559440613,
                0,
                0.9238795042037964
            ]
        },
        {
            "mesh" : 4,
            "name" : "Plane.111",
            "rotation" : [
                0,
                -0.3826834559440613,
                0,
                0.9238795042037964
            ]
        },
        {
            "mesh" : 5,
            "name" : "Plane.112",
            "rotation" : [
                0,
                -0.3826834559440613,
                0,
                0.9238795042037964
            ]
        }
    ],
    "materials" : [
        {
            "doubleSided" : true,
            "name" : "color",
            "pbrMetallicRoughness" : {
                "baseColorTexture" : {
                    "index" : 0
                },
                "metallicFactor" : 0,
                "roughnessFactor" : 0.5
            }
        }
    ],
    "meshes" : [
        {
            "name" : "Cube.417",
            "primitives" : [
                {
                    "attributes" : {
                        "POSITION" : 0,
                        "NORMAL" : 1,
                        "TEXCOORD_0" : 2
                    },
                    "indices" : 3,
                    "material" : 0
                }
            ]
        },
        {
            "name" : "Circle.2096",
            "primitives" : [
                {
                    "attributes" : {
                        "POSITION" : 4,
                        "NORMAL" : 5,
                        "TEXCOORD_0" : 6
                    },
                    "indices" : 7,
                    "material" : 0
                }
            ]
        },
        {
            "name" : "Cube.7266",
            "primitives" : [
                {
                    "attributes" : {
                        "POSITION" : 8,
                        "NORMAL" : 9,
                        "TEXCOORD_0" : 10
                    },
                    "indices" : 11,
                    "material" : 0
                }
            ]
        },
        {
            "name" : "Cube.7267",
            "primitives" : [
                {
                    "attributes" : {
                        "POSITION" : 12,
                        "NORMAL" : 13,
                        "TEXCOORD_0" : 14
                    },
                    "indices" : 15,
                    "material" : 0
                }
            ]
        },
        {
            "name" : "Plane.112",
            "primitives" : [
                {
                    "attributes" : {
                        "POSITION" : 16,
                        "NORMAL" : 17,
                        "TEXCOORD_0" : 18
                    },
                    "indices" : 19,
                    "material" : 0
                }
            ]
        },
        {
            "name" : "Plane.113",
            "primitives" : [
                {
                    "attributes" : {
                        "POSITION" : 20,
                        "NORMAL" : 21,
                        "TEXCOORD_0" : 22
                    },
                    "indices" : 23,
                    "material" : 0
                }
            ]
        }
    ],
    "textures" : [
        {
            "sampler" : 0,
            "source" : 0
        }
    ],
    "images" : [
        {
            "bufferView" : 4,
            "mimeType" : "image/png",
            "name" : "tex"
        }
    ],
    "accessors" : [
        {
            "bufferView" : 0,
            "componentType" : 5126,
            "count" : 752,
            "max" : [
                -0.8264395594596863,
                0.05719918757677078,
                0.13795676827430725
            ],
            "min" : [
                -0.8543609976768494,
                -0.014034310355782509,
                -0.12436223030090332
            ],
            "type" : "VEC3"
        },
        {
            "bufferView" : 1,
            "componentType" : 5126,
            "count" : 752,
            "type" : "VEC3"
        },
        {
            "bufferView" : 2,
            "componentType" : 5126,
            "count" : 752,
            "type" : "VEC2"
        },
        {
            "bufferView" : 3,
            "componentType" : 5123,
            "count" : 1680,
            "type" : "SCALAR"
        },
        {
            "bufferView" : 5,
            "componentType" : 5126,
            "count" : 648,
            "max" : [
                0.17374572157859802,
                0.753841757774353,
                0.7142593860626221
            ],
            "min" : [
                -0.17381012439727783,
                0.6177942156791687,
                0.599425733089447
            ],
            "type" : "VEC3"
        },
        {
            "bufferView" : 6,
            "componentType" : 5126,
            "count" : 648,
            "type" : "VEC3"
        },
        {
            "bufferView" : 7,
            "componentType" : 5126,
            "count" : 648,
            "type" : "VEC2"
        },
        {
            "bufferView" : 8,
            "componentType" : 5123,
            "count" : 2880,
            "type" : "SCALAR"
        },
        {
            "bufferView" : 9,
            "componentType" : 5126,
            "count" : 258,
            "max" : [
                0.054856106638908386,
                1.1043572425842285,
                0.945379376411438
            ],
            "min" : [
                -0.054920464754104614,
                0.03244622051715851,
                -0.2387387454509735
            ],
            "type" : "VEC3"
        },
        {
            "bufferView" : 10,
            "componentType" : 5126,
            "count" : 258,
            "type" : "VEC3"
        },
        {
            "bufferView" : 11,
            "componentType" : 5126,
            "count" : 258,
            "type" : "VEC2"
        },
        {
            "bufferView" : 12,
            "componentType" : 5123,
            "count" : 768,
            "type" : "SCALAR"
        },
        {
            "bufferView" : 13,
            "componentType" : 5126,
            "count" : 748,
            "max" : [
                0.23460833728313446,
                1.0477123260498047,
                0.5795333385467529
            ],
            "min" : [
                -0.2346726357936859,
                0.8132020235061646,
                0.4780017137527466
            ],
            "type" : "VEC3"
        },
        {
            "bufferView" : 14,
            "componentType" : 5126,
            "count" : 748,
            "type" : "VEC3"
        },
        {
            "bufferView" : 15,
            "componentType" : 5126,
            "count" : 748,
            "type" : "VEC2"
        },
        {
            "bufferView" : 16,
            "componentType" : 5123,
            "count" : 3504,
            "type" : "SCALAR"
        },
        {
            "bufferView" : 17,
            "componentType" : 5126,
            "count" : 2230,
            "max" : [
                0.26731017231941223,
                0.9220494031906128,
                1.224395751953125
            ],
            "min" : [
                -0.26737427711486816,
                -1.2893974781036377,
                -1.2261124849319458
            ],
            "type" : "VEC3"
        },
        {
            "bufferView" : 18,
            "componentType" : 5126,
            "count" : 2230,
            "type" : "VEC3"
        },
        {
            "bufferView" : 19,
            "componentType" : 5126,
            "count" : 2230,
            "type" : "VEC2"
        },
        {
            "bufferView" : 20,
            "componentType" : 5123,
            "count" : 7314,
            "type" : "SCALAR"
        },
        {
            "bufferView" : 21,
            "componentType" : 5126,
            "count" : 146,
            "max" : [
                0.05237388610839844,
                0.2915918529033661,
                -1.0040127038955688
            ],
            "min" : [
                -0.052437931299209595,
                -0.1805681735277176,
                -1.731587290763855
            ],
            "type" : "VEC3"
        },
        {
            "bufferView" : 22,
            "componentType" : 5126,
            "count" : 146,
            "type" : "VEC3"
        },
        {
            "bufferView" : 23,
            "componentType" : 5126,
            "count" : 146,
            "type" : "VEC2"
        },
        {
            "bufferView" : 24,
            "componentType" : 5123,
            "count" : 492,
            "type" : "SCALAR"
        }
    ],
    "bufferViews" : [
        {
            "buffer" : 0,
            "byteLength" : 9024,
            "byteOffset" : 0
        },
        {
            "buffer" : 0,
            "byteLength" : 9024,
            "byteOffset" : 9024
        },
        {
            "buffer" : 0,
            "byteLength" : 6016,
            "byteOffset" : 18048
        },
        {
            "buffer" : 0,
            "byteLength" : 3360,
            "byteOffset" : 24064
        },
        {
            "buffer" : 0,
            "byteLength" : 11997,
            "byteOffset" : 27424
        },
        {
            "buffer" : 0,
            "byteLength" : 7776,
            "byteOffset" : 39424
        },
        {
            "buffer" : 0,
            "byteLength" : 7776,
            "byteOffset" : 47200
        },
        {
            "buffer" : 0,
            "byteLength" : 5184,
            "byteOffset" : 54976
        },
        {
            "buffer" : 0,
            "byteLength" : 5760,
            "byteOffset" : 60160
        },
        {
            "buffer" : 0,
            "byteLength" : 3096,
            "byteOffset" : 65920
        },
        {
            "buffer" : 0,
            "byteLength" : 3096,
            "byteOffset" : 69016
        },
        {
            "buffer" : 0,
            "byteLength" : 2064,
            "byteOffset" : 72112
        },
        {
            "buffer" : 0,
            "byteLength" : 1536,
            "byteOffset" : 74176
        },
        {
            "buffer" : 0,
            "byteLength" : 8976,
            "byteOffset" : 75712
        },
        {
            "buffer" : 0,
            "byteLength" : 8976,
            "byteOffset" : 84688
        },
        {
            "buffer" : 0,
            "byteLength" : 5984,
            "byteOffset" : 93664
        },
        {
            "buffer" : 0,
            "byteLength" : 7008,
            "byteOffset" : 99648
        },
        {
            "buffer" : 0,
            "byteLength" : 26760,
            "byteOffset" : 106656
        },
        {
            "buffer" : 0,
            "byteLength" : 26760,
            "byteOffset" : 133416
        },
        {
            "buffer" : 0,
            "byteLength" : 17840,
            "byteOffset" : 160176
        },
        {
            "buffer" : 0,
            "byteLength" : 14628,
            "byteOffset" : 178016
        },
        {
            "buffer" : 0,
            "byteLength" : 1752,
            "byteOffset" : 192644
        },
        {
            "buffer" : 0,
            "byteLength" : 1752,
            "byteOffset" : 194396
        },
        {
            "buffer" : 0,
            "byteLength" : 1168,
            "byteOffset" : 196148
        },
        {
            "buffer" : 0,
            "byteLength" : 984,
            "byteOffset" : 197316
        }
    ],
    "samplers" : [
        {
            "magFilter" : 9729,
            "minFilter" : 9987
        }
    ],
    "buffers" : [
        {
            "byteLength" : 198300,
            "uri" : "data:application/octet-stream;base64,"
        }
    ]
}
