{
    "asset" : {
        "copyright" : "Jeremy Edelblut",
        "generator" : "Khronos glTF Blender I/O v1.6.16",
        "version" : "2.0"
    },
    "scene" : 0,
    "scenes" : [
        {
            "name" : "Scene",
            "nodes" : [
                0
            ]
        }
    ],
    "nodes" : [
        {
            "mesh" : 0,
            "name" : "Circle.2198",
            "rotation" : [
                0.13524095714092255,
                -0.6940532326698303,
                0.13524095714092255,
                0.6940532326698303
            ],
            "scale" : [
                1.3070075511932373,
                1.3070082664489746,
                1.3070082664489746
            ],
            "translation" : [
                -0.3011896312236786,
                -0.49672770500183105,
                0
            ]
        }
    ],
    "materials" : [
        {
            "doubleSided" : true,
            "name" : "Color",
            "pbrMetallicRoughness" : {
                "baseColorTexture" : {
                    "index" : 0
                },
                "metallicFactor" : 0,
                "roughnessFactor" : 0.5
            }
        }
    ],
    "meshes" : [
        {
            "name" : "Circle.2628",
            "primitives" : [
                {
                    "attributes" : {
                        "POSITION" : 0,
                        "NORMAL" : 1,
                        "TEXCOORD_0" : 2
                    },
                    "indices" : 3,
                    "material" : 0
                }
            ]
        }
    ],
    "textures" : [
        {
            "sampler" : 0,
            "source" : 0
        }
    ],
    "images" : [
        {
            "bufferView" : 4,
            "mimeType" : "image/png",
            "name" : "tex2"
        }
    ],
    "accessors" : [
        {
            "bufferView" : 0,
            "componentType" : 5126,
            "count" : 1632,
            "max" : [
                0.21897612512111664,
                1.331534504890442,
                0.2077006995677948
            ],
            "min" : [
                -0.21648259460926056,
                -0.6358882188796997,
                -0.9369305372238159
            ],
            "type" : "VEC3"
        },
        {
            "bufferView" : 1,
            "componentType" : 5126,
            "count" : 1632,
            "type" : "VEC3"
        },
        {
            "bufferView" : 2,
            "componentType" : 5126,
            "count" : 1632,
            "type" : "VEC2"
        },
        {
            "bufferView" : 3,
            "componentType" : 5123,
            "count" : 8310,
            "type" : "SCALAR"
        }
    ],
    "bufferViews" : [
        {
            "buffer" : 0,
            "byteLength" : 19584,
            "byteOffset" : 0
        },
        {
            "buffer" : 0,
            "byteLength" : 19584,
            "byteOffset" : 19584
        },
        {
            "buffer" : 0,
            "byteLength" : 13056,
            "byteOffset" : 39168
        },
        {
            "buffer" : 0,
            "byteLength" : 16620,
            "byteOffset" : 52224
        },
        {
            "buffer" : 0,
            "byteLength" : 6474,
            "byteOffset" : 68844
        }
    ],
    "samplers" : [
        {
            "magFilter" : 9729,
            "minFilter" : 9987
        }
    ],
    "buffers" : [
        {
            "byteLength" : 75320,
            "uri" : "data:application/octet-stream;base64,"
        }
    ]
}
