{
    "asset" : {
        "copyright" : "Jeremy Edelblut",
        "generator" : "Khronos glTF Blender I/O v1.6.16",
        "version" : "2.0"
    },
    "scene" : 0,
    "scenes" : [
        {
            "name" : "Scene",
            "nodes" : [
                0
            ]
        }
    ],
    "nodes" : [
        {
            "mesh" : 0,
            "name" : "hot_face",
            "rotation" : [
                0,
                -0.7071068286895752,
                0,
                0.7071068286895752
            ]
        }
    ],
    "materials" : [
        {
            "doubleSided" : true,
            "name" : "Red_body",
            "pbrMetallicRoughness" : {
                "baseColorTexture" : {
                    "index" : 0
                },
                "metallicFactor" : 0,
                "roughnessFactor" : 0.5
            }
        },
        {
            "doubleSided" : true,
            "name" : "Color",
            "pbrMetallicRoughness" : {
                "baseColorTexture" : {
                    "index" : 1
                },
                "metallicFactor" : 0,
                "roughnessFactor" : 0.5
            }
        },
        {
            "alphaMode" : "BLEND",
            "doubleSided" : true,
            "name" : "Cheeks",
            "pbrMetallicRoughness" : {
                "baseColorTexture" : {
                    "index" : 2
                },
                "metallicFactor" : 0,
                "roughnessFactor" : 0.5
            }
        }
    ],
    "meshes" : [
        {
            "name" : "Cube.084",
            "primitives" : [
                {
                    "attributes" : {
                        "POSITION" : 0,
                        "NORMAL" : 1,
                        "TEXCOORD_0" : 2
                    },
                    "indices" : 3,
                    "material" : 0
                },
                {
                    "attributes" : {
                        "POSITION" : 4,
                        "NORMAL" : 5,
                        "TEXCOORD_0" : 6
                    },
                    "indices" : 7,
                    "material" : 1
                },
                {
                    "attributes" : {
                        "POSITION" : 8,
                        "NORMAL" : 9,
                        "TEXCOORD_0" : 10
                    },
                    "indices" : 11,
                    "material" : 2
                }
            ]
        }
    ],
    "textures" : [
        {
            "sampler" : 0,
            "source" : 0
        },
        {
            "sampler" : 0,
            "source" : 1
        },
        {
            "sampler" : 0,
            "source" : 2
        }
    ],
    "images" : [
        {
            "bufferView" : 4,
            "mimeType" : "image/png",
            "name" : "Rectangle 2"
        },
        {
            "bufferView" : 9,
            "mimeType" : "image/png",
            "name" : "tex"
        },
        {
            "bufferView" : 14,
            "mimeType" : "image/png",
            "name" : "cheeks"
        }
    ],
    "accessors" : [
        {
            "bufferView" : 0,
            "componentType" : 5126,
            "count" : 1568,
            "max" : [
                0.8446488380432129,
                0.8446488380432129,
                0.8446488380432129
            ],
            "min" : [
                -0.8446488380432129,
                -0.8446488380432129,
                -0.8446488380432129
            ],
            "type" : "VEC3"
        },
        {
            "bufferView" : 1,
            "componentType" : 5126,
            "count" : 1568,
            "type" : "VEC3"
        },
        {
            "bufferView" : 2,
            "componentType" : 5126,
            "count" : 1568,
            "type" : "VEC2"
        },
        {
            "bufferView" : 3,
            "componentType" : 5123,
            "count" : 9234,
            "type" : "SCALAR"
        },
        {
            "bufferView" : 5,
            "componentType" : 5126,
            "count" : 3675,
            "max" : [
                0.9084463715553284,
                0.7733414173126221,
                0.9005838632583618
            ],
            "min" : [
                -0.8543609976768494,
                -0.7281663417816162,
                -0.7489946484565735
            ],
            "type" : "VEC3"
        },
        {
            "bufferView" : 6,
            "componentType" : 5126,
            "count" : 3675,
            "type" : "VEC3"
        },
        {
            "bufferView" : 7,
            "componentType" : 5126,
            "count" : 3675,
            "type" : "VEC2"
        },
        {
            "bufferView" : 8,
            "componentType" : 5123,
            "count" : 16902,
            "type" : "SCALAR"
        },
        {
            "bufferView" : 10,
            "componentType" : 5126,
            "count" : 450,
            "max" : [
                0.7636631727218628,
                0.09801549464464188,
                0.7461112141609192
            ],
            "min" : [
                0.37522467970848083,
                -0.43370145559310913,
                -0.7461112141609192
            ],
            "type" : "VEC3"
        },
        {
            "bufferView" : 11,
            "componentType" : 5126,
            "count" : 450,
            "type" : "VEC3"
        },
        {
            "bufferView" : 12,
            "componentType" : 5126,
            "count" : 450,
            "type" : "VEC2"
        },
        {
            "bufferView" : 13,
            "componentType" : 5123,
            "count" : 2496,
            "type" : "SCALAR"
        }
    ],
    "bufferViews" : [
        {
            "buffer" : 0,
            "byteLength" : 18816,
            "byteOffset" : 0
        },
        {
            "buffer" : 0,
            "byteLength" : 18816,
            "byteOffset" : 18816
        },
        {
            "buffer" : 0,
            "byteLength" : 12544,
            "byteOffset" : 37632
        },
        {
            "buffer" : 0,
            "byteLength" : 18468,
            "byteOffset" : 50176
        },
        {
            "buffer" : 0,
            "byteLength" : 102120,
            "byteOffset" : 68644
        },
        {
            "buffer" : 0,
            "byteLength" : 44100,
            "byteOffset" : 170764
        },
        {
            "buffer" : 0,
            "byteLength" : 44100,
            "byteOffset" : 214864
        },
        {
            "buffer" : 0,
            "byteLength" : 29400,
            "byteOffset" : 258964
        },
        {
            "buffer" : 0,
            "byteLength" : 33804,
            "byteOffset" : 288364
        },
        {
            "buffer" : 0,
            "byteLength" : 1322,
            "byteOffset" : 322168
        },
        {
            "buffer" : 0,
            "byteLength" : 5400,
            "byteOffset" : 323492
        },
        {
            "buffer" : 0,
            "byteLength" : 5400,
            "byteOffset" : 328892
        },
        {
            "buffer" : 0,
            "byteLength" : 3600,
            "byteOffset" : 334292
        },
        {
            "buffer" : 0,
            "byteLength" : 4992,
            "byteOffset" : 337892
        },
        {
            "buffer" : 0,
            "byteLength" : 112399,
            "byteOffset" : 342884
        }
    ],
    "samplers" : [
        {
            "magFilter" : 9729,
            "minFilter" : 9987
        }
    ],
    "buffers" : [
        {
            "byteLength" : 455284,
            "uri" : "data:application/octet-stream;base64,"
        }
    ]
}
