{
    "asset" : {
        "copyright" : "Jeremy Edelblut 2021",
        "generator" : "Khronos glTF Blender I/O v1.6.16",
        "version" : "2.0"
    },
    "scene" : 0,
    "scenes" : [
        {
            "name" : "Scene",
            "nodes" : [
                0
            ]
        }
    ],
    "nodes" : [
        {
            "mesh" : 0,
            "name" : "Hugging Face"
        }
    ],
    "materials" : [
        {
            "doubleSided" : true,
            "name" : "Yellow_body",
            "pbrMetallicRoughness" : {
                "baseColorTexture" : {
                    "index" : 0
                },
                "metallicFactor" : 0,
                "roughnessFactor" : 0.5
            }
        },
        {
            "doubleSided" : true,
            "name" : "Color",
            "pbrMetallicRoughness" : {
                "baseColorTexture" : {
                    "index" : 1
                },
                "metallicFactor" : 0,
                "roughnessFactor" : 0.5
            }
        },
        {
            "alphaMode" : "BLEND",
            "doubleSided" : true,
            "name" : "Cheeks",
            "pbrMetallicRoughness" : {
                "baseColorTexture" : {
                    "index" : 2
                },
                "metallicFactor" : 0,
                "roughnessFactor" : 0.5
            }
        }
    ],
    "meshes" : [
        {
            "name" : "Cube.062",
            "primitives" : [
                {
                    "attributes" : {
                        "POSITION" : 0,
                        "NORMAL" : 1,
                        "TEXCOORD_0" : 2
                    },
                    "indices" : 3,
                    "material" : 0
                },
                {
                    "attributes" : {
                        "POSITION" : 4,
                        "NORMAL" : 5,
                        "TEXCOORD_0" : 6
                    },
                    "indices" : 7,
                    "material" : 1
                },
                {
                    "attributes" : {
                        "POSITION" : 8,
                        "NORMAL" : 9,
                        "TEXCOORD_0" : 10
                    },
                    "indices" : 11,
                    "material" : 2
                }
            ]
        }
    ],
    "textures" : [
        {
            "sampler" : 0,
            "source" : 0
        },
        {
            "sampler" : 0,
            "source" : 1
        },
        {
            "sampler" : 0,
            "source" : 2
        }
    ],
    "images" : [
        {
            "bufferView" : 4,
            "mimeType" : "image/png",
            "name" : "Rectangle 863"
        },
        {
            "bufferView" : 9,
            "mimeType" : "image/png",
            "name" : "tex2"
        },
        {
            "bufferView" : 14,
            "mimeType" : "image/png",
            "name" : "cheeks"
        }
    ],
    "accessors" : [
        {
            "bufferView" : 0,
            "componentType" : 5126,
            "count" : 4883,
            "max" : [
                0.8641496896743774,
                0.8445303440093994,
                0.8822243809700012
            ],
            "min" : [
                -0.8641494512557983,
                -0.8445303440093994,
                -0.8445303440093994
            ],
            "type" : "VEC3"
        },
        {
            "bufferView" : 1,
            "componentType" : 5126,
            "count" : 4883,
            "type" : "VEC3"
        },
        {
            "bufferView" : 2,
            "componentType" : 5126,
            "count" : 4883,
            "type" : "VEC2"
        },
        {
            "bufferView" : 3,
            "componentType" : 5123,
            "count" : 25668,
            "type" : "SCALAR"
        },
        {
            "bufferView" : 5,
            "componentType" : 5126,
            "count" : 1575,
            "max" : [
                0.5398208498954773,
                0.5586093068122864,
                0.8407569527626038
            ],
            "min" : [
                -0.5372418761253357,
                -0.18182922899723053,
                -0.8543610572814941
            ],
            "type" : "VEC3"
        },
        {
            "bufferView" : 6,
            "componentType" : 5126,
            "count" : 1575,
            "type" : "VEC3"
        },
        {
            "bufferView" : 7,
            "componentType" : 5126,
            "count" : 1575,
            "type" : "VEC2"
        },
        {
            "bufferView" : 8,
            "componentType" : 5123,
            "count" : 4968,
            "type" : "SCALAR"
        },
        {
            "bufferView" : 10,
            "componentType" : 5126,
            "count" : 2136,
            "max" : [
                0.7957596778869629,
                0.4376915693283081,
                0.7599202990531921
            ],
            "min" : [
                -0.7931807041168213,
                -0.20145350694656372,
                0.2772654592990875
            ],
            "type" : "VEC3"
        },
        {
            "bufferView" : 11,
            "componentType" : 5126,
            "count" : 2136,
            "type" : "VEC3"
        },
        {
            "bufferView" : 12,
            "componentType" : 5126,
            "count" : 2136,
            "type" : "VEC2"
        },
        {
            "bufferView" : 13,
            "componentType" : 5123,
            "count" : 10368,
            "type" : "SCALAR"
        }
    ],
    "bufferViews" : [
        {
            "buffer" : 0,
            "byteLength" : 58596,
            "byteOffset" : 0
        },
        {
            "buffer" : 0,
            "byteLength" : 58596,
            "byteOffset" : 58596
        },
        {
            "buffer" : 0,
            "byteLength" : 39064,
            "byteOffset" : 117192
        },
        {
            "buffer" : 0,
            "byteLength" : 51336,
            "byteOffset" : 156256
        },
        {
            "buffer" : 0,
            "byteLength" : 85292,
            "byteOffset" : 207592
        },
        {
            "buffer" : 0,
            "byteLength" : 18900,
            "byteOffset" : 292884
        },
        {
            "buffer" : 0,
            "byteLength" : 18900,
            "byteOffset" : 311784
        },
        {
            "buffer" : 0,
            "byteLength" : 12600,
            "byteOffset" : 330684
        },
        {
            "buffer" : 0,
            "byteLength" : 9936,
            "byteOffset" : 343284
        },
        {
            "buffer" : 0,
            "byteLength" : 6478,
            "byteOffset" : 353220
        },
        {
            "buffer" : 0,
            "byteLength" : 25632,
            "byteOffset" : 359700
        },
        {
            "buffer" : 0,
            "byteLength" : 25632,
            "byteOffset" : 385332
        },
        {
            "buffer" : 0,
            "byteLength" : 17088,
            "byteOffset" : 410964
        },
        {
            "buffer" : 0,
            "byteLength" : 20736,
            "byteOffset" : 428052
        },
        {
            "buffer" : 0,
            "byteLength" : 112399,
            "byteOffset" : 448788
        }
    ],
    "samplers" : [
        {
            "magFilter" : 9729,
            "minFilter" : 9987
        }
    ],
    "buffers" : [
        {
            "byteLength" : 561188,
            "uri" : "data:application/octet-stream;base64,"
        }
    ]
}
