{
    "asset" : {
        "copyright" : "Jeremy Edelblut",
        "generator" : "Khronos glTF Blender I/O v1.6.16",
        "version" : "2.0"
    },
    "scene" : 0,
    "scenes" : [
        {
            "name" : "Scene",
            "nodes" : [
                0
            ]
        }
    ],
    "nodes" : [
        {
            "mesh" : 0,
            "name" : "Circle.1781",
            "rotation" : [
                0,
                -0.7071068286895752,
                0,
                0.7071068286895752
            ]
        }
    ],
    "materials" : [
        {
            "doubleSided" : true,
            "name" : "Color",
            "pbrMetallicRoughness" : {
                "baseColorTexture" : {
                    "index" : 0
                },
                "metallicFactor" : 0,
                "roughnessFactor" : 0.5
            }
        }
    ],
    "meshes" : [
        {
            "name" : "Circle.1971",
            "primitives" : [
                {
                    "attributes" : {
                        "POSITION" : 0,
                        "NORMAL" : 1,
                        "TEXCOORD_0" : 2
                    },
                    "indices" : 3,
                    "material" : 0
                }
            ]
        }
    ],
    "textures" : [
        {
            "sampler" : 0,
            "source" : 0
        }
    ],
    "images" : [
        {
            "bufferView" : 4,
            "mimeType" : "image/png",
            "name" : "tex"
        }
    ],
    "accessors" : [
        {
            "bufferView" : 0,
            "componentType" : 5126,
            "count" : 1897,
            "max" : [
                1.1623529195785522,
                0.9915469884872437,
                1.154288411140442
            ],
            "min" : [
                -1.1550978422164917,
                -0.6882724761962891,
                -1.154262900352478
            ],
            "type" : "VEC3"
        },
        {
            "bufferView" : 1,
            "componentType" : 5126,
            "count" : 1897,
            "type" : "VEC3"
        },
        {
            "bufferView" : 2,
            "componentType" : 5126,
            "count" : 1897,
            "type" : "VEC2"
        },
        {
            "bufferView" : 3,
            "componentType" : 5123,
            "count" : 6552,
            "type" : "SCALAR"
        }
    ],
    "bufferViews" : [
        {
            "buffer" : 0,
            "byteLength" : 22764,
            "byteOffset" : 0
        },
        {
            "buffer" : 0,
            "byteLength" : 22764,
            "byteOffset" : 22764
        },
        {
            "buffer" : 0,
            "byteLength" : 15176,
            "byteOffset" : 45528
        },
        {
            "buffer" : 0,
            "byteLength" : 13104,
            "byteOffset" : 60704
        },
        {
            "buffer" : 0,
            "byteLength" : 3214,
            "byteOffset" : 73808
        }
    ],
    "samplers" : [
        {
            "magFilter" : 9729,
            "minFilter" : 9987
        }
    ],
    "buffers" : [
        {
            "byteLength" : 77024,
            "uri" : "data:application/octet-stream;base64,"
        }
    ]
}
