{
    "asset" : {
        "copyright" : "Jeremy Edelblut",
        "generator" : "Khronos glTF Blender I/O v1.6.16",
        "version" : "2.0"
    },
    "scene" : 0,
    "scenes" : [
        {
            "name" : "Scene",
            "nodes" : [
                0,
                1
            ]
        }
    ],
    "nodes" : [
        {
            "mesh" : 0,
            "name" : "Cube.6653",
            "scale" : [
                1.100000023841858,
                1.100000023841858,
                1.100000023841858
            ]
        },
        {
            "mesh" : 1,
            "name" : "Plane.362",
            "rotation" : [
                0.7071068286895752,
                0,
                0,
                0.7071068286895752
            ],
            "scale" : [
                0.08100002259016037,
                0.08100002259016037,
                0.08100002259016037
            ],
            "translation" : [
                0,
                0,
                0.4000000059604645
            ]
        }
    ],
    "materials" : [
        {
            "doubleSided" : true,
            "name" : "Color",
            "pbrMetallicRoughness" : {
                "baseColorTexture" : {
                    "index" : 0
                },
                "metallicFactor" : 0,
                "roughnessFactor" : 0.5
            }
        }
    ],
    "meshes" : [
        {
            "name" : "Cube.8606",
            "primitives" : [
                {
                    "attributes" : {
                        "POSITION" : 0,
                        "NORMAL" : 1,
                        "TEXCOORD_0" : 2
                    },
                    "indices" : 3,
                    "material" : 0
                }
            ]
        },
        {
            "name" : "Plane.446",
            "primitives" : [
                {
                    "attributes" : {
                        "POSITION" : 4,
                        "NORMAL" : 5,
                        "TEXCOORD_0" : 6
                    },
                    "indices" : 7,
                    "material" : 0
                }
            ]
        }
    ],
    "textures" : [
        {
            "sampler" : 0,
            "source" : 0
        }
    ],
    "images" : [
        {
            "bufferView" : 4,
            "mimeType" : "image/png",
            "name" : "tex"
        }
    ],
    "accessors" : [
        {
            "bufferView" : 0,
            "componentType" : 5126,
            "count" : 389,
            "max" : [
                1,
                1,
                0.30000001192092896
            ],
            "min" : [
                -1,
                -1,
                -0.30000001192092896
            ],
            "type" : "VEC3"
        },
        {
            "bufferView" : 1,
            "componentType" : 5126,
            "count" : 389,
            "type" : "VEC3"
        },
        {
            "bufferView" : 2,
            "componentType" : 5126,
            "count" : 389,
            "type" : "VEC2"
        },
        {
            "bufferView" : 3,
            "componentType" : 5123,
            "count" : 2004,
            "type" : "SCALAR"
        },
        {
            "bufferView" : 5,
            "componentType" : 5126,
            "count" : 607,
            "max" : [
                9.092869758605957,
                3.49691077872194e-07,
                9
            ],
            "min" : [
                -8.165947914123535,
                -2.4691357612609863,
                -9.466535568237305
            ],
            "type" : "VEC3"
        },
        {
            "bufferView" : 6,
            "componentType" : 5126,
            "count" : 607,
            "type" : "VEC3"
        },
        {
            "bufferView" : 7,
            "componentType" : 5126,
            "count" : 607,
            "type" : "VEC2"
        },
        {
            "bufferView" : 8,
            "componentType" : 5123,
            "count" : 1056,
            "type" : "SCALAR"
        }
    ],
    "bufferViews" : [
        {
            "buffer" : 0,
            "byteLength" : 4668,
            "byteOffset" : 0
        },
        {
            "buffer" : 0,
            "byteLength" : 4668,
            "byteOffset" : 4668
        },
        {
            "buffer" : 0,
            "byteLength" : 3112,
            "byteOffset" : 9336
        },
        {
            "buffer" : 0,
            "byteLength" : 4008,
            "byteOffset" : 12448
        },
        {
            "buffer" : 0,
            "byteLength" : 3214,
            "byteOffset" : 16456
        },
        {
            "buffer" : 0,
            "byteLength" : 7284,
            "byteOffset" : 19672
        },
        {
            "buffer" : 0,
            "byteLength" : 7284,
            "byteOffset" : 26956
        },
        {
            "buffer" : 0,
            "byteLength" : 4856,
            "byteOffset" : 34240
        },
        {
            "buffer" : 0,
            "byteLength" : 2112,
            "byteOffset" : 39096
        }
    ],
    "samplers" : [
        {
            "magFilter" : 9729,
            "minFilter" : 9987
        }
    ],
    "buffers" : [
        {
            "byteLength" : 41208,
            "uri" : "data:application/octet-stream;base64,"
        }
    ]
}
