{
    "asset" : {
        "copyright" : "Jeremy Edelblut",
        "generator" : "Khronos glTF Blender I/O v1.7.33",
        "version" : "2.0"
    },
    "scene" : 1,
    "scenes" : [
        {
            "name" : "FBX_Temp",
            "nodes" : [
                0
            ]
        },
        {
            "name" : "Scene",
            "nodes" : [
                1,
                2,
                3,
                4,
                5,
                6,
                7,
                8,
                9
            ]
        }
    ],
    "nodes" : [
        {
            "mesh" : 0,
            "name" : "3moji.064",
            "rotation" : [
                0,
                -0.7071068286895752,
                0,
                0.7071068286895752
            ]
        },
        {
            "mesh" : 1,
            "name" : "Circle.577",
            "rotation" : [
                0.7071068286895752,
                0,
                0,
                0.7071068286895752
            ],
            "scale" : [
                2.706974744796753,
                2.706974744796753,
                2.706974744796753
            ]
        },
        {
            "mesh" : 2,
            "name" : "Circle.578",
            "rotation" : [
                0.7071068286895752,
                0,
                0,
                0.7071068286895752
            ],
            "scale" : [
                2.706974744796753,
                2.706974744796753,
                2.706974744796753
            ]
        },
        {
            "mesh" : 3,
            "name" : "Cylinder.076",
            "rotation" : [
                0,
                -0.7071068286895752,
                0,
                0.7071068286895752
            ],
            "scale" : [
                0.7010374069213867,
                0.7010374069213867,
                0.7010374069213867
            ]
        },
        {
            "mesh" : 4,
            "name" : "Roundcube.085",
            "rotation" : [
                0,
                -0.7071068286895752,
                0,
                0.7071068286895752
            ],
            "scale" : [
                0.7010374069213867,
                0.7010374069213867,
                0.7010374069213867
            ]
        },
        {
            "mesh" : 5,
            "name" : "Circle.579",
            "rotation" : [
                0.7071068286895752,
                0,
                0,
                0.7071068286895752
            ]
        },
        {
            "mesh" : 6,
            "name" : "Cube.1065",
            "rotation" : [
                -0.007871223613619804,
                -0.9874671101570129,
                0.12478626519441605,
                0.09630779176950455
            ],
            "scale" : [
                0.10504752397537231,
                0.10504752397537231,
                0.10504751652479172
            ]
        },
        {
            "mesh" : 7,
            "name" : "Sphere.043",
            "rotation" : [
                0,
                -0.7071068286895752,
                0,
                0.7071068286895752
            ],
            "scale" : [
                0.5,
                0.5,
                0.5
            ]
        },
        {
            "mesh" : 8,
            "name" : "Plane.038",
            "rotation" : [
                0,
                -0.7071068286895752,
                0,
                0.7071068286895752
            ]
        },
        {
            "mesh" : 9,
            "name" : "Cylinder.077",
            "rotation" : [
                -0.40676745772361755,
                -0.5783945322036743,
                -0.40676748752593994,
                0.5783945322036743
            ],
            "scale" : [
                0.1030544713139534,
                0.1030544713139534,
                0.1030544713139534
            ]
        }
    ],
    "materials" : [
        {
            "doubleSided" : true,
            "name" : "color",
            "pbrMetallicRoughness" : {
                "baseColorTexture" : {
                    "index" : 0
                },
                "metallicFactor" : 0,
                "roughnessFactor" : 0.5
            }
        },
        {
            "doubleSided" : true,
            "name" : "skin_tone_one",
            "pbrMetallicRoughness" : {
                "baseColorTexture" : {
                    "index" : 1
                },
                "metallicFactor" : 0,
                "roughnessFactor" : 0.5
            }
        }
    ],
    "meshes" : [
        {
            "name" : "Cube.417",
            "primitives" : [
                {
                    "attributes" : {
                        "POSITION" : 0,
                        "NORMAL" : 1,
                        "TEXCOORD_0" : 2
                    },
                    "indices" : 3,
                    "material" : 0
                }
            ]
        },
        {
            "name" : "Circle.643",
            "primitives" : [
                {
                    "attributes" : {
                        "POSITION" : 4,
                        "NORMAL" : 5,
                        "TEXCOORD_0" : 6
                    },
                    "indices" : 7,
                    "material" : 0
                }
            ]
        },
        {
            "name" : "Circle.644",
            "primitives" : [
                {
                    "attributes" : {
                        "POSITION" : 8,
                        "NORMAL" : 9,
                        "TEXCOORD_0" : 10
                    },
                    "indices" : 11,
                    "material" : 1
                }
            ]
        },
        {
            "name" : "Cylinder.076",
            "primitives" : [
                {
                    "attributes" : {
                        "POSITION" : 12,
                        "NORMAL" : 13,
                        "TEXCOORD_0" : 14
                    },
                    "indices" : 15,
                    "material" : 1
                }
            ]
        },
        {
            "name" : "Roundcube.085",
            "primitives" : [
                {
                    "attributes" : {
                        "POSITION" : 16,
                        "NORMAL" : 17,
                        "TEXCOORD_0" : 18
                    },
                    "indices" : 19,
                    "material" : 0
                },
                {
                    "attributes" : {
                        "POSITION" : 20,
                        "NORMAL" : 21,
                        "TEXCOORD_0" : 22
                    },
                    "indices" : 23,
                    "material" : 1
                }
            ]
        },
        {
            "name" : "Circle.645",
            "primitives" : [
                {
                    "attributes" : {
                        "POSITION" : 24,
                        "NORMAL" : 25,
                        "TEXCOORD_0" : 26
                    },
                    "indices" : 27,
                    "material" : 1
                }
            ]
        },
        {
            "name" : "Cube.1256",
            "primitives" : [
                {
                    "attributes" : {
                        "POSITION" : 28,
                        "NORMAL" : 29,
                        "TEXCOORD_0" : 30
                    },
                    "indices" : 31,
                    "material" : 1
                }
            ]
        },
        {
            "name" : "Sphere.043",
            "primitives" : [
                {
                    "attributes" : {
                        "POSITION" : 32,
                        "NORMAL" : 33,
                        "TEXCOORD_0" : 34
                    },
                    "indices" : 35,
                    "material" : 0
                }
            ]
        },
        {
            "name" : "Plane.040",
            "primitives" : [
                {
                    "attributes" : {
                        "POSITION" : 36,
                        "NORMAL" : 37,
                        "TEXCOORD_0" : 38
                    },
                    "indices" : 39,
                    "material" : 0
                }
            ]
        },
        {
            "name" : "Cylinder.078",
            "primitives" : [
                {
                    "attributes" : {
                        "POSITION" : 40,
                        "NORMAL" : 41,
                        "TEXCOORD_0" : 42
                    },
                    "indices" : 43,
                    "material" : 0
                }
            ]
        }
    ],
    "textures" : [
        {
            "sampler" : 0,
            "source" : 0
        },
        {
            "sampler" : 0,
            "source" : 0
        }
    ],
    "images" : [
        {
            "bufferView" : 4,
            "mimeType" : "image/png",
            "name" : "tex"
        }
    ],
    "accessors" : [
        {
            "bufferView" : 0,
            "componentType" : 5126,
            "count" : 752,
            "max" : [
                -0.8264395594596863,
                0.05719918757677078,
                0.13795676827430725
            ],
            "min" : [
                -0.8543609976768494,
                -0.014034310355782509,
                -0.12436223030090332
            ],
            "type" : "VEC3"
        },
        {
            "bufferView" : 1,
            "componentType" : 5126,
            "count" : 752,
            "type" : "VEC3"
        },
        {
            "bufferView" : 2,
            "componentType" : 5126,
            "count" : 752,
            "type" : "VEC2"
        },
        {
            "bufferView" : 3,
            "componentType" : 5123,
            "count" : 1680,
            "type" : "SCALAR"
        },
        {
            "bufferView" : 5,
            "componentType" : 5126,
            "count" : 1448,
            "max" : [
                0.13123171031475067,
                0.21667298674583435,
                -0.026242921128869057
            ],
            "min" : [
                -0.13123171031475067,
                0.17979563772678375,
                -0.11764391511678696
            ],
            "type" : "VEC3"
        },
        {
            "bufferView" : 6,
            "componentType" : 5126,
            "count" : 1448,
            "type" : "VEC3"
        },
        {
            "bufferView" : 7,
            "componentType" : 5126,
            "count" : 1448,
            "type" : "VEC2"
        },
        {
            "bufferView" : 8,
            "componentType" : 5123,
            "count" : 6912,
            "type" : "SCALAR"
        },
        {
            "bufferView" : 9,
            "componentType" : 5126,
            "count" : 142,
            "max" : [
                0.025681521743535995,
                0.22220316529273987,
                0.007366257254034281
            ],
            "min" : [
                -0.024938572198152542,
                0.2089833766222,
                -0.022072529420256615
            ],
            "type" : "VEC3"
        },
        {
            "bufferView" : 10,
            "componentType" : 5126,
            "count" : 142,
            "type" : "VEC3"
        },
        {
            "bufferView" : 11,
            "componentType" : 5126,
            "count" : 142,
            "type" : "VEC2"
        },
        {
            "bufferView" : 12,
            "componentType" : 5123,
            "count" : 528,
            "type" : "SCALAR"
        },
        {
            "bufferView" : 13,
            "componentType" : 5126,
            "count" : 1135,
            "max" : [
                -0.15159989893436432,
                0.5513880848884583,
                1.2522509098052979
            ],
            "min" : [
                -0.527228593826294,
                -0.08596953004598618,
                -1.2522509098052979
            ],
            "type" : "VEC3"
        },
        {
            "bufferView" : 14,
            "componentType" : 5126,
            "count" : 1135,
            "type" : "VEC3"
        },
        {
            "bufferView" : 15,
            "componentType" : 5126,
            "count" : 1135,
            "type" : "VEC2"
        },
        {
            "bufferView" : 16,
            "componentType" : 5123,
            "count" : 4992,
            "type" : "SCALAR"
        },
        {
            "bufferView" : 17,
            "componentType" : 5126,
            "count" : 837,
            "max" : [
                0.7026739120483398,
                -0.19611746072769165,
                0.2430637925863266
            ],
            "min" : [
                -0.6892665028572083,
                -1.9305734634399414,
                -0.26039984822273254
            ],
            "type" : "VEC3"
        },
        {
            "bufferView" : 18,
            "componentType" : 5126,
            "count" : 837,
            "type" : "VEC3"
        },
        {
            "bufferView" : 19,
            "componentType" : 5126,
            "count" : 837,
            "type" : "VEC2"
        },
        {
            "bufferView" : 20,
            "componentType" : 5123,
            "count" : 2064,
            "type" : "SCALAR"
        },
        {
            "bufferView" : 21,
            "componentType" : 5126,
            "count" : 1173,
            "max" : [
                0.8239538669586182,
                1.2452303171157837,
                1.022315263748169
            ],
            "min" : [
                -1.3394240140914917,
                -1.151817798614502,
                -1.022315263748169
            ],
            "type" : "VEC3"
        },
        {
            "bufferView" : 22,
            "componentType" : 5126,
            "count" : 1173,
            "type" : "VEC3"
        },
        {
            "bufferView" : 23,
            "componentType" : 5126,
            "count" : 1173,
            "type" : "VEC2"
        },
        {
            "bufferView" : 24,
            "componentType" : 5123,
            "count" : 5916,
            "type" : "SCALAR"
        },
        {
            "bufferView" : 25,
            "componentType" : 5126,
            "count" : 316,
            "max" : [
                0.4168662428855896,
                0.5363613367080688,
                -0.3116849362850189
            ],
            "min" : [
                -0.4168662428855896,
                0.4130629897117615,
                -0.4614255130290985
            ],
            "type" : "VEC3"
        },
        {
            "bufferView" : 26,
            "componentType" : 5126,
            "count" : 316,
            "type" : "VEC3"
        },
        {
            "bufferView" : 27,
            "componentType" : 5126,
            "count" : 316,
            "type" : "VEC2"
        },
        {
            "bufferView" : 28,
            "componentType" : 5123,
            "count" : 1152,
            "type" : "SCALAR"
        },
        {
            "bufferView" : 29,
            "componentType" : 5126,
            "count" : 1310,
            "max" : [
                7.472661972045898,
                10.750223159790039,
                8.361637115478516
            ],
            "min" : [
                -7.877488136291504,
                1.6260234117507935,
                -8.532402038574219
            ],
            "type" : "VEC3"
        },
        {
            "bufferView" : 30,
            "componentType" : 5126,
            "count" : 1310,
            "type" : "VEC3"
        },
        {
            "bufferView" : 31,
            "componentType" : 5126,
            "count" : 1310,
            "type" : "VEC2"
        },
        {
            "bufferView" : 32,
            "componentType" : 5123,
            "count" : 3132,
            "type" : "SCALAR"
        },
        {
            "bufferView" : 33,
            "componentType" : 5126,
            "count" : 757,
            "max" : [
                0.10192406177520752,
                -1.253004550933838,
                1.5000004768371582
            ],
            "min" : [
                -1.8980764150619507,
                -2.698381185531616,
                -1.5000004768371582
            ],
            "type" : "VEC3"
        },
        {
            "bufferView" : 34,
            "componentType" : 5126,
            "count" : 757,
            "type" : "VEC3"
        },
        {
            "bufferView" : 35,
            "componentType" : 5126,
            "count" : 757,
            "type" : "VEC2"
        },
        {
            "bufferView" : 36,
            "componentType" : 5123,
            "count" : 3378,
            "type" : "SCALAR"
        },
        {
            "bufferView" : 37,
            "componentType" : 5126,
            "count" : 298,
            "max" : [
                -0.10834086686372757,
                -0.5373476147651672,
                0.2494862824678421
            ],
            "min" : [
                -0.6623148918151855,
                -0.7910402417182922,
                -0.2494862824678421
            ],
            "type" : "VEC3"
        },
        {
            "bufferView" : 38,
            "componentType" : 5126,
            "count" : 298,
            "type" : "VEC3"
        },
        {
            "bufferView" : 39,
            "componentType" : 5126,
            "count" : 298,
            "type" : "VEC2"
        },
        {
            "bufferView" : 40,
            "componentType" : 5123,
            "count" : 900,
            "type" : "SCALAR"
        },
        {
            "bufferView" : 41,
            "componentType" : 5126,
            "count" : 353,
            "max" : [
                2.084867238998413,
                -5.521400451660156,
                -4.367283821105957
            ],
            "min" : [
                -0.2354763150215149,
                -8.67292308807373,
                -11.636465072631836
            ],
            "type" : "VEC3"
        },
        {
            "bufferView" : 42,
            "componentType" : 5126,
            "count" : 353,
            "type" : "VEC3"
        },
        {
            "bufferView" : 43,
            "componentType" : 5126,
            "count" : 353,
            "type" : "VEC2"
        },
        {
            "bufferView" : 44,
            "componentType" : 5123,
            "count" : 1188,
            "type" : "SCALAR"
        }
    ],
    "bufferViews" : [
        {
            "buffer" : 0,
            "byteLength" : 9024,
            "byteOffset" : 0
        },
        {
            "buffer" : 0,
            "byteLength" : 9024,
            "byteOffset" : 9024
        },
        {
            "buffer" : 0,
            "byteLength" : 6016,
            "byteOffset" : 18048
        },
        {
            "buffer" : 0,
            "byteLength" : 3360,
            "byteOffset" : 24064
        },
        {
            "buffer" : 0,
            "byteLength" : 11997,
            "byteOffset" : 27424
        },
        {
            "buffer" : 0,
            "byteLength" : 17376,
            "byteOffset" : 39424
        },
        {
            "buffer" : 0,
            "byteLength" : 17376,
            "byteOffset" : 56800
        },
        {
            "buffer" : 0,
            "byteLength" : 11584,
            "byteOffset" : 74176
        },
        {
            "buffer" : 0,
            "byteLength" : 13824,
            "byteOffset" : 85760
        },
        {
            "buffer" : 0,
            "byteLength" : 1704,
            "byteOffset" : 99584
        },
        {
            "buffer" : 0,
            "byteLength" : 1704,
            "byteOffset" : 101288
        },
        {
            "buffer" : 0,
            "byteLength" : 1136,
            "byteOffset" : 102992
        },
        {
            "buffer" : 0,
            "byteLength" : 1056,
            "byteOffset" : 104128
        },
        {
            "buffer" : 0,
            "byteLength" : 13620,
            "byteOffset" : 105184
        },
        {
            "buffer" : 0,
            "byteLength" : 13620,
            "byteOffset" : 118804
        },
        {
            "buffer" : 0,
            "byteLength" : 9080,
            "byteOffset" : 132424
        },
        {
            "buffer" : 0,
            "byteLength" : 9984,
            "byteOffset" : 141504
        },
        {
            "buffer" : 0,
            "byteLength" : 10044,
            "byteOffset" : 151488
        },
        {
            "buffer" : 0,
            "byteLength" : 10044,
            "byteOffset" : 161532
        },
        {
            "buffer" : 0,
            "byteLength" : 6696,
            "byteOffset" : 171576
        },
        {
            "buffer" : 0,
            "byteLength" : 4128,
            "byteOffset" : 178272
        },
        {
            "buffer" : 0,
            "byteLength" : 14076,
            "byteOffset" : 182400
        },
        {
            "buffer" : 0,
            "byteLength" : 14076,
            "byteOffset" : 196476
        },
        {
            "buffer" : 0,
            "byteLength" : 9384,
            "byteOffset" : 210552
        },
        {
            "buffer" : 0,
            "byteLength" : 11832,
            "byteOffset" : 219936
        },
        {
            "buffer" : 0,
            "byteLength" : 3792,
            "byteOffset" : 231768
        },
        {
            "buffer" : 0,
            "byteLength" : 3792,
            "byteOffset" : 235560
        },
        {
            "buffer" : 0,
            "byteLength" : 2528,
            "byteOffset" : 239352
        },
        {
            "buffer" : 0,
            "byteLength" : 2304,
            "byteOffset" : 241880
        },
        {
            "buffer" : 0,
            "byteLength" : 15720,
            "byteOffset" : 244184
        },
        {
            "buffer" : 0,
            "byteLength" : 15720,
            "byteOffset" : 259904
        },
        {
            "buffer" : 0,
            "byteLength" : 10480,
            "byteOffset" : 275624
        },
        {
            "buffer" : 0,
            "byteLength" : 6264,
            "byteOffset" : 286104
        },
        {
            "buffer" : 0,
            "byteLength" : 9084,
            "byteOffset" : 292368
        },
        {
            "buffer" : 0,
            "byteLength" : 9084,
            "byteOffset" : 301452
        },
        {
            "buffer" : 0,
            "byteLength" : 6056,
            "byteOffset" : 310536
        },
        {
            "buffer" : 0,
            "byteLength" : 6756,
            "byteOffset" : 316592
        },
        {
            "buffer" : 0,
            "byteLength" : 3576,
            "byteOffset" : 323348
        },
        {
            "buffer" : 0,
            "byteLength" : 3576,
            "byteOffset" : 326924
        },
        {
            "buffer" : 0,
            "byteLength" : 2384,
            "byteOffset" : 330500
        },
        {
            "buffer" : 0,
            "byteLength" : 1800,
            "byteOffset" : 332884
        },
        {
            "buffer" : 0,
            "byteLength" : 4236,
            "byteOffset" : 334684
        },
        {
            "buffer" : 0,
            "byteLength" : 4236,
            "byteOffset" : 338920
        },
        {
            "buffer" : 0,
            "byteLength" : 2824,
            "byteOffset" : 343156
        },
        {
            "buffer" : 0,
            "byteLength" : 2376,
            "byteOffset" : 345980
        }
    ],
    "samplers" : [
        {
            "magFilter" : 9729,
            "minFilter" : 9987
        }
    ],
    "buffers" : [
        {
            "byteLength" : 348356,
            "uri" : "data:application/octet-stream;base64,"
        }
    ]
}
