{
    "asset" : {
        "copyright" : "Jeremy Edelblut",
        "generator" : "Khronos glTF Blender I/O v1.6.16",
        "version" : "2.0"
    },
    "scene" : 0,
    "scenes" : [
        {
            "name" : "Scene",
            "nodes" : [
                0,
                1
            ]
        }
    ],
    "nodes" : [
        {
            "mesh" : 0,
            "name" : "Kiss Mark",
            "rotation" : [
                0.6556180119514465,
                0.26488685607910156,
                0.26488685607910156,
                0.6556179523468018
            ],
            "scale" : [
                1,
                0.4651486277580261,
                1
            ],
            "translation" : [
                0.06200173869729042,
                -1.4077871128392871e-05,
                0
            ]
        },
        {
            "mesh" : 1,
            "name" : "3moji.org.065",
            "rotation" : [
                -0.2708052694797516,
                0.6531956791877747,
                0.2708052098751068,
                0.6531955599784851
            ],
            "scale" : [
                0.002507369965314865,
                0.002507369965314865,
                0.002507369965314865
            ],
            "translation" : [
                -0.6290055513381958,
                -0.6145246624946594,
                0.0022161458618938923
            ]
        }
    ],
    "materials" : [
        {
            "doubleSided" : true,
            "name" : "Red",
            "pbrMetallicRoughness" : {
                "baseColorFactor" : [
                    0.8000000715255737,
                    0.02731209248304367,
                    0.03797036036849022,
                    1
                ],
                "metallicFactor" : 0,
                "roughnessFactor" : 0.5
            }
        },
        {
            "doubleSided" : true,
            "name" : "Color",
            "pbrMetallicRoughness" : {
                "baseColorTexture" : {
                    "index" : 0
                },
                "metallicFactor" : 0,
                "roughnessFactor" : 0.5
            }
        }
    ],
    "meshes" : [
        {
            "name" : "Plane.024",
            "primitives" : [
                {
                    "attributes" : {
                        "POSITION" : 0,
                        "NORMAL" : 1,
                        "TEXCOORD_0" : 2
                    },
                    "indices" : 3,
                    "material" : 0
                }
            ]
        },
        {
            "name" : "Cube.406",
            "primitives" : [
                {
                    "attributes" : {
                        "POSITION" : 4,
                        "NORMAL" : 5,
                        "TEXCOORD_0" : 6
                    },
                    "indices" : 7,
                    "material" : 1
                }
            ]
        }
    ],
    "textures" : [
        {
            "sampler" : 0,
            "source" : 0
        }
    ],
    "images" : [
        {
            "bufferView" : 8,
            "mimeType" : "image/png",
            "name" : "tex2"
        }
    ],
    "accessors" : [
        {
            "bufferView" : 0,
            "componentType" : 5126,
            "count" : 538,
            "max" : [
                0.9996352195739746,
                0.30865955352783203,
                0.520048201084137
            ],
            "min" : [
                -0.9996352195739746,
                7.450580152834618e-09,
                -0.755984902381897
            ],
            "type" : "VEC3"
        },
        {
            "bufferView" : 1,
            "componentType" : 5126,
            "count" : 538,
            "type" : "VEC3"
        },
        {
            "bufferView" : 2,
            "componentType" : 5126,
            "count" : 538,
            "type" : "VEC2"
        },
        {
            "bufferView" : 3,
            "componentType" : 5123,
            "count" : 1536,
            "type" : "SCALAR"
        },
        {
            "bufferView" : 4,
            "componentType" : 5126,
            "count" : 752,
            "max" : [
                1.2953357696533203,
                7.90000057220459,
                17.240537643432617
            ],
            "min" : [
                2.8697024390567094e-05,
                -1.8999989032745361,
                -19.159460067749023
            ],
            "type" : "VEC3"
        },
        {
            "bufferView" : 5,
            "componentType" : 5126,
            "count" : 752,
            "type" : "VEC3"
        },
        {
            "bufferView" : 6,
            "componentType" : 5126,
            "count" : 752,
            "type" : "VEC2"
        },
        {
            "bufferView" : 7,
            "componentType" : 5123,
            "count" : 1680,
            "type" : "SCALAR"
        }
    ],
    "bufferViews" : [
        {
            "buffer" : 0,
            "byteLength" : 6456,
            "byteOffset" : 0
        },
        {
            "buffer" : 0,
            "byteLength" : 6456,
            "byteOffset" : 6456
        },
        {
            "buffer" : 0,
            "byteLength" : 4304,
            "byteOffset" : 12912
        },
        {
            "buffer" : 0,
            "byteLength" : 3072,
            "byteOffset" : 17216
        },
        {
            "buffer" : 0,
            "byteLength" : 9024,
            "byteOffset" : 20288
        },
        {
            "buffer" : 0,
            "byteLength" : 9024,
            "byteOffset" : 29312
        },
        {
            "buffer" : 0,
            "byteLength" : 6016,
            "byteOffset" : 38336
        },
        {
            "buffer" : 0,
            "byteLength" : 3360,
            "byteOffset" : 44352
        },
        {
            "buffer" : 0,
            "byteLength" : 6474,
            "byteOffset" : 47712
        }
    ],
    "samplers" : [
        {
            "magFilter" : 9729,
            "minFilter" : 9987
        }
    ],
    "buffers" : [
        {
            "byteLength" : 54188,
            "uri" : "data:application/octet-stream;base64,"
        }
    ]
}
