{
    "asset" : {
        "copyright" : "Jeremy Edelblut",
        "generator" : "Khronos glTF Blender I/O v1.6.16",
        "version" : "2.0"
    },
    "scene" : 0,
    "scenes" : [
        {
            "name" : "Scene",
            "nodes" : [
                0,
                1,
                2
            ]
        }
    ],
    "nodes" : [
        {
            "mesh" : 0,
            "name" : "Cube.832",
            "rotation" : [
                0.7876794934272766,
                -0.04322844371199608,
                0.28792181611061096,
                0.5429487228393555
            ],
            "scale" : [
                1.1501224040985107,
                1.1501225233078003,
                1.1501226425170898
            ],
            "translation" : [
                0.19983962178230286,
                -0.0635828822851181,
                0.26528364419937134
            ]
        },
        {
            "mesh" : 1,
            "name" : "Plane.310",
            "rotation" : [
                0.7876794934272766,
                -0.04322844371199608,
                0.28792181611061096,
                0.5429487228393555
            ],
            "scale" : [
                0.7206493020057678,
                0.7206493020057678,
                0.720649242401123
            ],
            "translation" : [
                0.3125710189342499,
                -0.3076072633266449,
                0.1974695771932602
            ]
        },
        {
            "mesh" : 2,
            "name" : "Plane.311",
            "rotation" : [
                0.6258466243743896,
                0.45637398958206177,
                0.5501411557197571,
                0.3120632767677307
            ],
            "scale" : [
                0.07569308578968048,
                0.07569309324026108,
                0.07569310814142227
            ],
            "translation" : [
                0.5535355806350708,
                -0.9644170999526978,
                0.05583856999874115
            ]
        }
    ],
    "materials" : [
        {
            "doubleSided" : true,
            "name" : "Color",
            "pbrMetallicRoughness" : {
                "baseColorTexture" : {
                    "index" : 0
                },
                "metallicFactor" : 0,
                "roughnessFactor" : 0.5
            }
        }
    ],
    "meshes" : [
        {
            "name" : "Cube.983",
            "primitives" : [
                {
                    "attributes" : {
                        "POSITION" : 0,
                        "NORMAL" : 1,
                        "TEXCOORD_0" : 2
                    },
                    "indices" : 3
                }
            ]
        },
        {
            "name" : "Plane.265",
            "primitives" : [
                {
                    "attributes" : {
                        "POSITION" : 4,
                        "NORMAL" : 5,
                        "TEXCOORD_0" : 6
                    },
                    "indices" : 7,
                    "material" : 0
                }
            ]
        },
        {
            "name" : "Plane.315",
            "primitives" : [
                {
                    "attributes" : {
                        "POSITION" : 8,
                        "NORMAL" : 9,
                        "TEXCOORD_0" : 10
                    },
                    "indices" : 11,
                    "material" : 0
                }
            ]
        }
    ],
    "textures" : [
        {
            "sampler" : 0,
            "source" : 0
        }
    ],
    "images" : [
        {
            "bufferView" : 8,
            "mimeType" : "image/png",
            "name" : "tex2"
        }
    ],
    "accessors" : [
        {
            "bufferView" : 0,
            "componentType" : 5126,
            "count" : 80,
            "max" : [
                0.008712642826139927,
                1.3151881694793701,
                0.12318325787782669
            ],
            "min" : [
                -0.008712642826139927,
                0.027000192552804947,
                -0.805839478969574
            ],
            "type" : "VEC3"
        },
        {
            "bufferView" : 1,
            "componentType" : 5126,
            "count" : 80,
            "type" : "VEC3"
        },
        {
            "bufferView" : 2,
            "componentType" : 5126,
            "count" : 80,
            "type" : "VEC2"
        },
        {
            "bufferView" : 3,
            "componentType" : 5123,
            "count" : 144,
            "type" : "SCALAR"
        },
        {
            "bufferView" : 4,
            "componentType" : 5126,
            "count" : 224,
            "max" : [
                1.0456410646438599,
                0.06928850710391998,
                1.0477350950241089
            ],
            "min" : [
                -1.0456410646438599,
                0.02988949418067932,
                -2.1018905639648438
            ],
            "type" : "VEC3"
        },
        {
            "bufferView" : 5,
            "componentType" : 5126,
            "count" : 224,
            "type" : "VEC3"
        },
        {
            "bufferView" : 6,
            "componentType" : 5126,
            "count" : 224,
            "type" : "VEC2"
        },
        {
            "bufferView" : 7,
            "componentType" : 5123,
            "count" : 348,
            "type" : "SCALAR"
        },
        {
            "bufferView" : 9,
            "componentType" : 5126,
            "count" : 142,
            "max" : [
                0.12331116199493408,
                1.5720826387405396,
                0.922940731048584
            ],
            "min" : [
                -1.7614883184432983,
                -0.5824421644210815,
                -5.579174041748047
            ],
            "type" : "VEC3"
        },
        {
            "bufferView" : 10,
            "componentType" : 5126,
            "count" : 142,
            "type" : "VEC3"
        },
        {
            "bufferView" : 11,
            "componentType" : 5126,
            "count" : 142,
            "type" : "VEC2"
        },
        {
            "bufferView" : 12,
            "componentType" : 5123,
            "count" : 456,
            "type" : "SCALAR"
        }
    ],
    "bufferViews" : [
        {
            "buffer" : 0,
            "byteLength" : 960,
            "byteOffset" : 0
        },
        {
            "buffer" : 0,
            "byteLength" : 960,
            "byteOffset" : 960
        },
        {
            "buffer" : 0,
            "byteLength" : 640,
            "byteOffset" : 1920
        },
        {
            "buffer" : 0,
            "byteLength" : 288,
            "byteOffset" : 2560
        },
        {
            "buffer" : 0,
            "byteLength" : 2688,
            "byteOffset" : 2848
        },
        {
            "buffer" : 0,
            "byteLength" : 2688,
            "byteOffset" : 5536
        },
        {
            "buffer" : 0,
            "byteLength" : 1792,
            "byteOffset" : 8224
        },
        {
            "buffer" : 0,
            "byteLength" : 696,
            "byteOffset" : 10016
        },
        {
            "buffer" : 0,
            "byteLength" : 6474,
            "byteOffset" : 10712
        },
        {
            "buffer" : 0,
            "byteLength" : 1704,
            "byteOffset" : 17188
        },
        {
            "buffer" : 0,
            "byteLength" : 1704,
            "byteOffset" : 18892
        },
        {
            "buffer" : 0,
            "byteLength" : 1136,
            "byteOffset" : 20596
        },
        {
            "buffer" : 0,
            "byteLength" : 912,
            "byteOffset" : 21732
        }
    ],
    "samplers" : [
        {
            "magFilter" : 9729,
            "minFilter" : 9987
        }
    ],
    "buffers" : [
        {
            "byteLength" : 22644,
            "uri" : "data:application/octet-stream;base64,"
        }
    ]
}
