{
    "asset" : {
        "copyright" : "Jeremy Edelblut",
        "generator" : "Khronos glTF Blender I/O v1.7.33",
        "version" : "2.0"
    },
    "scene" : 0,
    "scenes" : [
        {
            "name" : "Scene",
            "nodes" : [
                0,
                1
            ]
        }
    ],
    "nodes" : [
        {
            "mesh" : 0,
            "name" : "Circle.2096",
            "rotation" : [
                0.6522499918937683,
                -0.16930633783340454,
                -0.40299805998802185,
                0.6192720532417297
            ],
            "scale" : [
                0.5392979979515076,
                0.5392980575561523,
                0.539297878742218
            ],
            "translation" : [
                0.05740412324666977,
                -0.11465577781200409,
                0
            ]
        },
        {
            "mesh" : 1,
            "name" : "Plane.181",
            "rotation" : [
                0,
                -0.5318397879600525,
                0,
                0.8468450307846069
            ],
            "scale" : [
                1.3931676149368286,
                1.393167495727539,
                1.3931676149368286
            ]
        }
    ],
    "materials" : [
        {
            "doubleSided" : true,
            "name" : "color",
            "pbrMetallicRoughness" : {
                "baseColorTexture" : {
                    "index" : 0
                },
                "metallicFactor" : 0,
                "roughnessFactor" : 0.5
            }
        }
    ],
    "meshes" : [
        {
            "name" : "Circle.2470",
            "primitives" : [
                {
                    "attributes" : {
                        "POSITION" : 0,
                        "NORMAL" : 1,
                        "TEXCOORD_0" : 2
                    },
                    "indices" : 3,
                    "material" : 0
                }
            ]
        },
        {
            "name" : "Plane.178",
            "primitives" : [
                {
                    "attributes" : {
                        "POSITION" : 4,
                        "NORMAL" : 5,
                        "TEXCOORD_0" : 6
                    },
                    "indices" : 7,
                    "material" : 0
                }
            ]
        }
    ],
    "textures" : [
        {
            "sampler" : 0,
            "source" : 0
        }
    ],
    "images" : [
        {
            "bufferView" : 4,
            "mimeType" : "image/png",
            "name" : "tex"
        }
    ],
    "accessors" : [
        {
            "bufferView" : 0,
            "componentType" : 5126,
            "count" : 878,
            "max" : [
                0.9954243898391724,
                0.10968339443206787,
                2.6805074214935303
            ],
            "min" : [
                -0.9954243898391724,
                -0.5206063985824585,
                -1.2691556215286255
            ],
            "type" : "VEC3"
        },
        {
            "bufferView" : 1,
            "componentType" : 5126,
            "count" : 878,
            "type" : "VEC3"
        },
        {
            "bufferView" : 2,
            "componentType" : 5126,
            "count" : 878,
            "type" : "VEC2"
        },
        {
            "bufferView" : 3,
            "componentType" : 5123,
            "count" : 2700,
            "type" : "SCALAR"
        },
        {
            "bufferView" : 5,
            "componentType" : 5126,
            "count" : 400,
            "max" : [
                0.04926843196153641,
                0.5802297592163086,
                -0.4263889789581299
            ],
            "min" : [
                -0.00573289580643177,
                -0.08801952004432678,
                -0.7731895446777344
            ],
            "type" : "VEC3"
        },
        {
            "bufferView" : 6,
            "componentType" : 5126,
            "count" : 400,
            "type" : "VEC3"
        },
        {
            "bufferView" : 7,
            "componentType" : 5126,
            "count" : 400,
            "type" : "VEC2"
        },
        {
            "bufferView" : 8,
            "componentType" : 5123,
            "count" : 1176,
            "type" : "SCALAR"
        }
    ],
    "bufferViews" : [
        {
            "buffer" : 0,
            "byteLength" : 10536,
            "byteOffset" : 0
        },
        {
            "buffer" : 0,
            "byteLength" : 10536,
            "byteOffset" : 10536
        },
        {
            "buffer" : 0,
            "byteLength" : 7024,
            "byteOffset" : 21072
        },
        {
            "buffer" : 0,
            "byteLength" : 5400,
            "byteOffset" : 28096
        },
        {
            "buffer" : 0,
            "byteLength" : 11997,
            "byteOffset" : 33496
        },
        {
            "buffer" : 0,
            "byteLength" : 4800,
            "byteOffset" : 45496
        },
        {
            "buffer" : 0,
            "byteLength" : 4800,
            "byteOffset" : 50296
        },
        {
            "buffer" : 0,
            "byteLength" : 3200,
            "byteOffset" : 55096
        },
        {
            "buffer" : 0,
            "byteLength" : 2352,
            "byteOffset" : 58296
        }
    ],
    "samplers" : [
        {
            "magFilter" : 9729,
            "minFilter" : 9987
        }
    ],
    "buffers" : [
        {
            "byteLength" : 60648,
            "uri" : "data:application/octet-stream;base64,"
        }
    ]
}
