{
    "asset" : {
        "copyright" : "Jeremy Edelblut",
        "generator" : "Khronos glTF Blender I/O v1.6.16",
        "version" : "2.0"
    },
    "scene" : 0,
    "scenes" : [
        {
            "name" : "Scene",
            "nodes" : [
                0,
                1
            ]
        }
    ],
    "nodes" : [
        {
            "mesh" : 0,
            "name" : "Circle.025",
            "rotation" : [
                0,
                0.7071068286895752,
                -0.7071068286895752,
                -1.1520232590100932e-07
            ]
        },
        {
            "mesh" : 1,
            "name" : "3moji.org.081",
            "rotation" : [
                0,
                0,
                0.8817200064659119,
                -0.4717731177806854
            ],
            "scale" : [
                0.001737293554469943,
                -0.0017372940201312304,
                -0.0017372936708852649
            ]
        }
    ],
    "materials" : [
        {
            "doubleSided" : true,
            "name" : "Color",
            "pbrMetallicRoughness" : {
                "baseColorTexture" : {
                    "index" : 0
                },
                "metallicFactor" : 0,
                "roughnessFactor" : 0.5
            }
        }
    ],
    "meshes" : [
        {
            "name" : "Circle.032",
            "primitives" : [
                {
                    "attributes" : {
                        "POSITION" : 0,
                        "NORMAL" : 1,
                        "TEXCOORD_0" : 2
                    },
                    "indices" : 3,
                    "material" : 0
                }
            ]
        },
        {
            "name" : "Cube.418",
            "primitives" : [
                {
                    "attributes" : {
                        "POSITION" : 4,
                        "NORMAL" : 5,
                        "TEXCOORD_0" : 6
                    },
                    "indices" : 7
                }
            ]
        }
    ],
    "textures" : [
        {
            "sampler" : 0,
            "source" : 0
        }
    ],
    "images" : [
        {
            "bufferView" : 4,
            "mimeType" : "image/png",
            "name" : "tex2"
        }
    ],
    "accessors" : [
        {
            "bufferView" : 0,
            "componentType" : 5126,
            "count" : 436,
            "max" : [
                1.0012661218643188,
                0.13503208756446838,
                0.8998149633407593
            ],
            "min" : [
                -1.0242999792099,
                -0.10000000149011612,
                -0.8023546934127808
            ],
            "type" : "VEC3"
        },
        {
            "bufferView" : 1,
            "componentType" : 5126,
            "count" : 436,
            "type" : "VEC3"
        },
        {
            "bufferView" : 2,
            "componentType" : 5126,
            "count" : 436,
            "type" : "VEC2"
        },
        {
            "bufferView" : 3,
            "componentType" : 5123,
            "count" : 2556,
            "type" : "SCALAR"
        },
        {
            "bufferView" : 5,
            "componentType" : 5126,
            "count" : 752,
            "max" : [
                141.37644958496094,
                -483.7005310058594,
                27.076658248901367
            ],
            "min" : [
                140.08114624023438,
                -493.5005187988281,
                -9.323339462280273
            ],
            "type" : "VEC3"
        },
        {
            "bufferView" : 6,
            "componentType" : 5126,
            "count" : 752,
            "type" : "VEC3"
        },
        {
            "bufferView" : 7,
            "componentType" : 5126,
            "count" : 752,
            "type" : "VEC2"
        },
        {
            "bufferView" : 8,
            "componentType" : 5123,
            "count" : 1680,
            "type" : "SCALAR"
        }
    ],
    "bufferViews" : [
        {
            "buffer" : 0,
            "byteLength" : 5232,
            "byteOffset" : 0
        },
        {
            "buffer" : 0,
            "byteLength" : 5232,
            "byteOffset" : 5232
        },
        {
            "buffer" : 0,
            "byteLength" : 3488,
            "byteOffset" : 10464
        },
        {
            "buffer" : 0,
            "byteLength" : 5112,
            "byteOffset" : 13952
        },
        {
            "buffer" : 0,
            "byteLength" : 6474,
            "byteOffset" : 19064
        },
        {
            "buffer" : 0,
            "byteLength" : 9024,
            "byteOffset" : 25540
        },
        {
            "buffer" : 0,
            "byteLength" : 9024,
            "byteOffset" : 34564
        },
        {
            "buffer" : 0,
            "byteLength" : 6016,
            "byteOffset" : 43588
        },
        {
            "buffer" : 0,
            "byteLength" : 3360,
            "byteOffset" : 49604
        }
    ],
    "samplers" : [
        {
            "magFilter" : 9729,
            "minFilter" : 9987
        }
    ],
    "buffers" : [
        {
            "byteLength" : 52964,
            "uri" : "data:application/octet-stream;base64,"
        }
    ]
}
