{
    "asset" : {
        "copyright" : "Jeremy Edelblut",
        "generator" : "Khronos glTF Blender I/O v1.6.16",
        "version" : "2.0"
    },
    "scene" : 0,
    "scenes" : [
        {
            "name" : "Scene",
            "nodes" : [
                0,
                1
            ]
        }
    ],
    "nodes" : [
        {
            "mesh" : 0,
            "name" : "hand.019"
        },
        {
            "mesh" : 1,
            "name" : "3moji.org.024",
            "rotation" : [
                0,
                0.008870636112987995,
                0,
                -0.9999606609344482
            ],
            "scale" : [
                0.0020866089034825563,
                0.0020866089034825563,
                0.0020866089034825563
            ],
            "translation" : [
                0.8311711549758911,
                0.14858275651931763,
                -0.0170257780700922
            ]
        }
    ],
    "materials" : [
        {
            "doubleSided" : true,
            "name" : "Color",
            "pbrMetallicRoughness" : {
                "baseColorTexture" : {
                    "index" : 0
                },
                "metallicFactor" : 0,
                "roughnessFactor" : 0.5
            }
        }
    ],
    "meshes" : [
        {
            "name" : "Circle.278",
            "primitives" : [
                {
                    "attributes" : {
                        "POSITION" : 0,
                        "NORMAL" : 1,
                        "TEXCOORD_0" : 2
                    },
                    "indices" : 3,
                    "material" : 0
                }
            ]
        },
        {
            "name" : "Cube.121",
            "primitives" : [
                {
                    "attributes" : {
                        "POSITION" : 4,
                        "NORMAL" : 5,
                        "TEXCOORD_0" : 6
                    },
                    "indices" : 7,
                    "material" : 0
                }
            ]
        }
    ],
    "textures" : [
        {
            "sampler" : 0,
            "source" : 0
        }
    ],
    "images" : [
        {
            "bufferView" : 4,
            "mimeType" : "image/png",
            "name" : "tex2"
        }
    ],
    "accessors" : [
        {
            "bufferView" : 0,
            "componentType" : 5126,
            "count" : 2421,
            "max" : [
                0.8332127928733826,
                0.47779518365859985,
                0.7050508260726929
            ],
            "min" : [
                -0.8320841193199158,
                -0.6691766977310181,
                -0.734180748462677
            ],
            "type" : "VEC3"
        },
        {
            "bufferView" : 1,
            "componentType" : 5126,
            "count" : 2421,
            "type" : "VEC3"
        },
        {
            "bufferView" : 2,
            "componentType" : 5126,
            "count" : 2421,
            "type" : "VEC2"
        },
        {
            "bufferView" : 3,
            "componentType" : 5123,
            "count" : 13320,
            "type" : "SCALAR"
        },
        {
            "bufferView" : 5,
            "componentType" : 5126,
            "count" : 752,
            "max" : [
                1.2953357696533203,
                7.90000057220459,
                17.240537643432617
            ],
            "min" : [
                2.8697024390567094e-05,
                -1.8999989032745361,
                -19.159460067749023
            ],
            "type" : "VEC3"
        },
        {
            "bufferView" : 6,
            "componentType" : 5126,
            "count" : 752,
            "type" : "VEC3"
        },
        {
            "bufferView" : 7,
            "componentType" : 5126,
            "count" : 752,
            "type" : "VEC2"
        },
        {
            "bufferView" : 8,
            "componentType" : 5123,
            "count" : 1680,
            "type" : "SCALAR"
        }
    ],
    "bufferViews" : [
        {
            "buffer" : 0,
            "byteLength" : 29052,
            "byteOffset" : 0
        },
        {
            "buffer" : 0,
            "byteLength" : 29052,
            "byteOffset" : 29052
        },
        {
            "buffer" : 0,
            "byteLength" : 19368,
            "byteOffset" : 58104
        },
        {
            "buffer" : 0,
            "byteLength" : 26640,
            "byteOffset" : 77472
        },
        {
            "buffer" : 0,
            "byteLength" : 6474,
            "byteOffset" : 104112
        },
        {
            "buffer" : 0,
            "byteLength" : 9024,
            "byteOffset" : 110588
        },
        {
            "buffer" : 0,
            "byteLength" : 9024,
            "byteOffset" : 119612
        },
        {
            "buffer" : 0,
            "byteLength" : 6016,
            "byteOffset" : 128636
        },
        {
            "buffer" : 0,
            "byteLength" : 3360,
            "byteOffset" : 134652
        }
    ],
    "samplers" : [
        {
            "magFilter" : 9729,
            "minFilter" : 9987
        }
    ],
    "buffers" : [
        {
            "byteLength" : 138012,
            "uri" : "data:application/octet-stream;base64,"
        }
    ]
}
