{
    "asset" : {
        "copyright" : "Jeremy Edelblut",
        "generator" : "Khronos glTF Blender I/O v1.7.33",
        "version" : "2.0"
    },
    "scene" : 0,
    "scenes" : [
        {
            "name" : "Scene",
            "nodes" : [
                0
            ]
        }
    ],
    "nodes" : [
        {
            "mesh" : 0,
            "name" : "Cube.575"
        }
    ],
    "materials" : [
        {
            "doubleSided" : true,
            "emissiveFactor" : [
                0.20000000298023224,
                0.20000000298023224,
                0.20000000298023224
            ],
            "emissiveTexture" : {
                "index" : 0
            },
            "name" : "color",
            "pbrMetallicRoughness" : {
                "baseColorTexture" : {
                    "index" : 1
                },
                "metallicFactor" : 0,
                "roughnessFactor" : 0.5
            }
        }
    ],
    "meshes" : [
        {
            "name" : "Cube.864",
            "primitives" : [
                {
                    "attributes" : {
                        "POSITION" : 0,
                        "NORMAL" : 1,
                        "TEXCOORD_0" : 2
                    },
                    "indices" : 3,
                    "material" : 0
                }
            ]
        }
    ],
    "textures" : [
        {
            "sampler" : 0,
            "source" : 0
        },
        {
            "sampler" : 0,
            "source" : 0
        }
    ],
    "images" : [
        {
            "bufferView" : 4,
            "mimeType" : "image/png",
            "name" : "tex"
        }
    ],
    "accessors" : [
        {
            "bufferView" : 0,
            "componentType" : 5126,
            "count" : 3916,
            "max" : [
                1.0552058219909668,
                0.49709561467170715,
                0.5028176307678223
            ],
            "min" : [
                -1.1334936618804932,
                -0.6369005441665649,
                -0.5028187036514282
            ],
            "type" : "VEC3"
        },
        {
            "bufferView" : 1,
            "componentType" : 5126,
            "count" : 3916,
            "type" : "VEC3"
        },
        {
            "bufferView" : 2,
            "componentType" : 5126,
            "count" : 3916,
            "type" : "VEC2"
        },
        {
            "bufferView" : 3,
            "componentType" : 5123,
            "count" : 11790,
            "type" : "SCALAR"
        }
    ],
    "bufferViews" : [
        {
            "buffer" : 0,
            "byteLength" : 46992,
            "byteOffset" : 0
        },
        {
            "buffer" : 0,
            "byteLength" : 46992,
            "byteOffset" : 46992
        },
        {
            "buffer" : 0,
            "byteLength" : 31328,
            "byteOffset" : 93984
        },
        {
            "buffer" : 0,
            "byteLength" : 23580,
            "byteOffset" : 125312
        },
        {
            "buffer" : 0,
            "byteLength" : 11997,
            "byteOffset" : 148892
        }
    ],
    "samplers" : [
        {
            "magFilter" : 9729,
            "minFilter" : 9987
        }
    ],
    "buffers" : [
        {
            "byteLength" : 160892,
            "uri" : "data:application/octet-stream;base64,"
        }
    ]
}
