{
    "asset" : {
        "copyright" : "Jeremy Edelblut",
        "generator" : "Khronos glTF Blender I/O v1.7.33",
        "version" : "2.0"
    },
    "scene" : 0,
    "scenes" : [
        {
            "name" : "Scene",
            "nodes" : [
                0,
                1
            ]
        }
    ],
    "nodes" : [
        {
            "mesh" : 0,
            "name" : "Circle.2573"
        },
        {
            "mesh" : 1,
            "name" : "Circle.2574"
        }
    ],
    "materials" : [
        {
            "doubleSided" : true,
            "name" : "color",
            "pbrMetallicRoughness" : {
                "baseColorTexture" : {
                    "index" : 0
                },
                "metallicFactor" : 0,
                "roughnessFactor" : 0.5
            }
        }
    ],
    "meshes" : [
        {
            "name" : "Circle.3229",
            "primitives" : [
                {
                    "attributes" : {
                        "POSITION" : 0,
                        "NORMAL" : 1,
                        "TEXCOORD_0" : 2
                    },
                    "indices" : 3,
                    "material" : 0
                }
            ]
        },
        {
            "name" : "Circle.3230",
            "primitives" : [
                {
                    "attributes" : {
                        "POSITION" : 4,
                        "NORMAL" : 5,
                        "TEXCOORD_0" : 6
                    },
                    "indices" : 7,
                    "material" : 0
                }
            ]
        }
    ],
    "textures" : [
        {
            "sampler" : 0,
            "source" : 0
        }
    ],
    "images" : [
        {
            "bufferView" : 4,
            "mimeType" : "image/png",
            "name" : "tex"
        }
    ],
    "accessors" : [
        {
            "bufferView" : 0,
            "componentType" : 5126,
            "count" : 1552,
            "max" : [
                1.1867725849151611,
                0.8778999447822571,
                0.24336238205432892
            ],
            "min" : [
                -0.12559384107589722,
                -0.7073966264724731,
                -0.1175001710653305
            ],
            "type" : "VEC3"
        },
        {
            "bufferView" : 1,
            "componentType" : 5126,
            "count" : 1552,
            "type" : "VEC3"
        },
        {
            "bufferView" : 2,
            "componentType" : 5126,
            "count" : 1552,
            "type" : "VEC2"
        },
        {
            "bufferView" : 3,
            "componentType" : 5123,
            "count" : 6516,
            "type" : "SCALAR"
        },
        {
            "bufferView" : 5,
            "componentType" : 5126,
            "count" : 880,
            "max" : [
                0.26797041296958923,
                0.7497894763946533,
                0.450298935174942
            ],
            "min" : [
                -1.13756263256073,
                -0.7237625122070312,
                -0.0078740194439888
            ],
            "type" : "VEC3"
        },
        {
            "bufferView" : 6,
            "componentType" : 5126,
            "count" : 880,
            "type" : "VEC3"
        },
        {
            "bufferView" : 7,
            "componentType" : 5126,
            "count" : 880,
            "type" : "VEC2"
        },
        {
            "bufferView" : 8,
            "componentType" : 5123,
            "count" : 5076,
            "type" : "SCALAR"
        }
    ],
    "bufferViews" : [
        {
            "buffer" : 0,
            "byteLength" : 18624,
            "byteOffset" : 0
        },
        {
            "buffer" : 0,
            "byteLength" : 18624,
            "byteOffset" : 18624
        },
        {
            "buffer" : 0,
            "byteLength" : 12416,
            "byteOffset" : 37248
        },
        {
            "buffer" : 0,
            "byteLength" : 13032,
            "byteOffset" : 49664
        },
        {
            "buffer" : 0,
            "byteLength" : 11997,
            "byteOffset" : 62696
        },
        {
            "buffer" : 0,
            "byteLength" : 10560,
            "byteOffset" : 74696
        },
        {
            "buffer" : 0,
            "byteLength" : 10560,
            "byteOffset" : 85256
        },
        {
            "buffer" : 0,
            "byteLength" : 7040,
            "byteOffset" : 95816
        },
        {
            "buffer" : 0,
            "byteLength" : 10152,
            "byteOffset" : 102856
        }
    ],
    "samplers" : [
        {
            "magFilter" : 9729,
            "minFilter" : 9987
        }
    ],
    "buffers" : [
        {
            "byteLength" : 113008,
            "uri" : "data:application/octet-stream;base64,"
        }
    ]
}
