{
    "asset" : {
        "copyright" : "Jeremy Edelblut",
        "generator" : "Khronos glTF Blender I/O v1.7.33",
        "version" : "2.0"
    },
    "scene" : 1,
    "scenes" : [
        {
            "name" : "FBX_Temp",
            "nodes" : [
                0
            ]
        },
        {
            "name" : "Scene",
            "nodes" : [
                1,
                2,
                3,
                4,
                5,
                6,
                7,
                8,
                9
            ]
        }
    ],
    "nodes" : [
        {
            "mesh" : 0,
            "name" : "3moji.064",
            "rotation" : [
                0,
                -0.7071068286895752,
                0,
                0.7071068286895752
            ]
        },
        {
            "mesh" : 1,
            "name" : "Circle.1860",
            "rotation" : [
                0.7071068286895752,
                0,
                0,
                0.7071068286895752
            ],
            "translation" : [
                0,
                0.056982506066560745,
                -0.0009665596880950034
            ]
        },
        {
            "mesh" : 2,
            "name" : "Cube.6201",
            "translation" : [
                0,
                0.052419956773519516,
                0.1337694674730301
            ]
        },
        {
            "mesh" : 3,
            "name" : "Circle.1862",
            "rotation" : [
                0.7071068286895752,
                0,
                0,
                0.7071068286895752
            ],
            "translation" : [
                0,
                0.056982506066560745,
                -0.0009665596880950034
            ]
        },
        {
            "mesh" : 4,
            "name" : "Cube.6202",
            "translation" : [
                0,
                0.052419956773519516,
                0
            ]
        },
        {
            "mesh" : 5,
            "name" : "Circle.1864",
            "rotation" : [
                -0.07418819516897202,
                0,
                0,
                0.9972443580627441
            ],
            "translation" : [
                0,
                0.052419956773519516,
                0.07512806355953217
            ]
        },
        {
            "mesh" : 6,
            "name" : "Cube.6268",
            "rotation" : [
                0.054623305797576904,
                -0.7049939036369324,
                -0.054623302072286606,
                0.7049938440322876
            ],
            "translation" : [
                0,
                -0.055542804300785065,
                0.5619185566902161
            ]
        },
        {
            "mesh" : 7,
            "name" : "Cube.6269",
            "rotation" : [
                -0.7049939036369324,
                0.05462375283241272,
                -0.7049938440322876,
                0.05462285503745079
            ],
            "translation" : [
                0,
                -0.16730773448944092,
                0.5640161037445068
            ]
        },
        {
            "mesh" : 8,
            "name" : "Cube.6270",
            "rotation" : [
                0.6958518028259277,
                -0.1256595253944397,
                -0.695851743221283,
                0.1256595253944397
            ],
            "translation" : [
                0,
                0.03213580325245857,
                0.8367247581481934
            ]
        },
        {
            "mesh" : 9,
            "name" : "3moji.org.198",
            "rotation" : [
                -0.07197782397270203,
                0.7034339904785156,
                -0.07197784632444382,
                0.7034338116645813
            ],
            "translation" : [
                -0.0025868371594697237,
                0.02414562739431858,
                -0.24065515398979187
            ]
        }
    ],
    "materials" : [
        {
            "doubleSided" : true,
            "name" : "color",
            "pbrMetallicRoughness" : {
                "baseColorTexture" : {
                    "index" : 0
                },
                "metallicFactor" : 0,
                "roughnessFactor" : 0.5
            }
        }
    ],
    "meshes" : [
        {
            "name" : "Cube.417",
            "primitives" : [
                {
                    "attributes" : {
                        "POSITION" : 0,
                        "NORMAL" : 1,
                        "TEXCOORD_0" : 2
                    },
                    "indices" : 3,
                    "material" : 0
                }
            ]
        },
        {
            "name" : "Circle.2073",
            "primitives" : [
                {
                    "attributes" : {
                        "POSITION" : 4,
                        "NORMAL" : 5,
                        "TEXCOORD_0" : 6
                    },
                    "indices" : 7,
                    "material" : 0
                }
            ]
        },
        {
            "name" : "Cube.7253",
            "primitives" : [
                {
                    "attributes" : {
                        "POSITION" : 8,
                        "NORMAL" : 9,
                        "TEXCOORD_0" : 10
                    },
                    "indices" : 11,
                    "material" : 0
                }
            ]
        },
        {
            "name" : "Circle.2075",
            "primitives" : [
                {
                    "attributes" : {
                        "POSITION" : 12,
                        "NORMAL" : 13,
                        "TEXCOORD_0" : 14
                    },
                    "indices" : 15,
                    "material" : 0
                }
            ]
        },
        {
            "name" : "Cube.7254",
            "primitives" : [
                {
                    "attributes" : {
                        "POSITION" : 16,
                        "NORMAL" : 17,
                        "TEXCOORD_0" : 18
                    },
                    "indices" : 19,
                    "material" : 0
                }
            ]
        },
        {
            "name" : "Circle.2078",
            "primitives" : [
                {
                    "attributes" : {
                        "POSITION" : 20,
                        "NORMAL" : 21,
                        "TEXCOORD_0" : 22
                    },
                    "indices" : 23,
                    "material" : 0
                }
            ]
        },
        {
            "name" : "Cube.7328",
            "primitives" : [
                {
                    "attributes" : {
                        "POSITION" : 24,
                        "NORMAL" : 25,
                        "TEXCOORD_0" : 26
                    },
                    "indices" : 27,
                    "material" : 0
                }
            ]
        },
        {
            "name" : "Cube.7329",
            "primitives" : [
                {
                    "attributes" : {
                        "POSITION" : 28,
                        "NORMAL" : 29,
                        "TEXCOORD_0" : 30
                    },
                    "indices" : 31,
                    "material" : 0
                }
            ]
        },
        {
            "name" : "Cube.7330",
            "primitives" : [
                {
                    "attributes" : {
                        "POSITION" : 32,
                        "NORMAL" : 33,
                        "TEXCOORD_0" : 34
                    },
                    "indices" : 35,
                    "material" : 0
                }
            ]
        },
        {
            "name" : "Cube.655",
            "primitives" : [
                {
                    "attributes" : {
                        "POSITION" : 36,
                        "NORMAL" : 37,
                        "TEXCOORD_0" : 38
                    },
                    "indices" : 39,
                    "material" : 0
                }
            ]
        }
    ],
    "textures" : [
        {
            "sampler" : 0,
            "source" : 0
        }
    ],
    "images" : [
        {
            "bufferView" : 4,
            "mimeType" : "image/png",
            "name" : "tex"
        }
    ],
    "accessors" : [
        {
            "bufferView" : 0,
            "componentType" : 5126,
            "count" : 752,
            "max" : [
                -0.8264395594596863,
                0.05719918757677078,
                0.13795676827430725
            ],
            "min" : [
                -0.8543609976768494,
                -0.014034310355782509,
                -0.12436223030090332
            ],
            "type" : "VEC3"
        },
        {
            "bufferView" : 1,
            "componentType" : 5126,
            "count" : 752,
            "type" : "VEC3"
        },
        {
            "bufferView" : 2,
            "componentType" : 5126,
            "count" : 752,
            "type" : "VEC2"
        },
        {
            "bufferView" : 3,
            "componentType" : 5123,
            "count" : 1680,
            "type" : "SCALAR"
        },
        {
            "bufferView" : 5,
            "componentType" : 5126,
            "count" : 644,
            "max" : [
                0.3493688404560089,
                0.633561909198761,
                -0.04059740528464317
            ],
            "min" : [
                -0.3493688404560089,
                0.5179176926612854,
                -0.26791244745254517
            ],
            "type" : "VEC3"
        },
        {
            "bufferView" : 6,
            "componentType" : 5126,
            "count" : 644,
            "type" : "VEC3"
        },
        {
            "bufferView" : 7,
            "componentType" : 5126,
            "count" : 644,
            "type" : "VEC2"
        },
        {
            "bufferView" : 8,
            "componentType" : 5123,
            "count" : 2880,
            "type" : "SCALAR"
        },
        {
            "bufferView" : 9,
            "componentType" : 5126,
            "count" : 740,
            "max" : [
                0.6788773536682129,
                0.7207500338554382,
                0.07204367965459824
            ],
            "min" : [
                -0.6788773536682129,
                0.14106765389442444,
                -0.16710731387138367
            ],
            "type" : "VEC3"
        },
        {
            "bufferView" : 10,
            "componentType" : 5126,
            "count" : 740,
            "type" : "VEC3"
        },
        {
            "bufferView" : 11,
            "componentType" : 5126,
            "count" : 740,
            "type" : "VEC2"
        },
        {
            "bufferView" : 12,
            "componentType" : 5123,
            "count" : 3504,
            "type" : "SCALAR"
        },
        {
            "bufferView" : 13,
            "componentType" : 5126,
            "count" : 2028,
            "max" : [
                0.4382938742637634,
                0.6307860016822815,
                0.17814061045646667
            ],
            "min" : [
                -0.4382938742637634,
                0.5259413123130798,
                0.04117897152900696
            ],
            "type" : "VEC3"
        },
        {
            "bufferView" : 14,
            "componentType" : 5126,
            "count" : 2028,
            "type" : "VEC3"
        },
        {
            "bufferView" : 15,
            "componentType" : 5126,
            "count" : 2028,
            "type" : "VEC2"
        },
        {
            "bufferView" : 16,
            "componentType" : 5123,
            "count" : 8640,
            "type" : "SCALAR"
        },
        {
            "bufferView" : 17,
            "componentType" : 5126,
            "count" : 241,
            "max" : [
                0.7357262969017029,
                0.6292541027069092,
                0.6791238188743591
            ],
            "min" : [
                -0.7357262969017029,
                -0.6292541027069092,
                -0.12751001119613647
            ],
            "type" : "VEC3"
        },
        {
            "bufferView" : 18,
            "componentType" : 5126,
            "count" : 241,
            "type" : "VEC3"
        },
        {
            "bufferView" : 19,
            "componentType" : 5126,
            "count" : 241,
            "type" : "VEC2"
        },
        {
            "bufferView" : 20,
            "componentType" : 5123,
            "count" : 1344,
            "type" : "SCALAR"
        },
        {
            "bufferView" : 21,
            "componentType" : 5126,
            "count" : 344,
            "max" : [
                1.222038745880127,
                1.0431303977966309,
                0.026518847793340683
            ],
            "min" : [
                -1.3044443130493164,
                -1.0766786336898804,
                -0.354188472032547
            ],
            "type" : "VEC3"
        },
        {
            "bufferView" : 22,
            "componentType" : 5126,
            "count" : 344,
            "type" : "VEC3"
        },
        {
            "bufferView" : 23,
            "componentType" : 5126,
            "count" : 344,
            "type" : "VEC2"
        },
        {
            "bufferView" : 24,
            "componentType" : 5123,
            "count" : 924,
            "type" : "SCALAR"
        },
        {
            "bufferView" : 25,
            "componentType" : 5126,
            "count" : 209,
            "max" : [
                0.32343125343322754,
                0.204309344291687,
                0.26118963956832886
            ],
            "min" : [
                0.016733840107917786,
                -0.18793049454689026,
                -0.26118963956832886
            ],
            "type" : "VEC3"
        },
        {
            "bufferView" : 26,
            "componentType" : 5126,
            "count" : 209,
            "type" : "VEC3"
        },
        {
            "bufferView" : 27,
            "componentType" : 5126,
            "count" : 209,
            "type" : "VEC2"
        },
        {
            "bufferView" : 28,
            "componentType" : 5123,
            "count" : 1152,
            "type" : "SCALAR"
        },
        {
            "bufferView" : 29,
            "componentType" : 5126,
            "count" : 79,
            "max" : [
                0.20348916947841644,
                0.13176457583904266,
                0.13488668203353882
            ],
            "min" : [
                0.04989810287952423,
                0.017177632078528404,
                -0.13488668203353882
            ],
            "type" : "VEC3"
        },
        {
            "bufferView" : 30,
            "componentType" : 5126,
            "count" : 79,
            "type" : "VEC3"
        },
        {
            "bufferView" : 31,
            "componentType" : 5126,
            "count" : 79,
            "type" : "VEC2"
        },
        {
            "bufferView" : 32,
            "componentType" : 5123,
            "count" : 384,
            "type" : "SCALAR"
        },
        {
            "bufferView" : 33,
            "componentType" : 5126,
            "count" : 386,
            "max" : [
                0.06198148429393768,
                0.12729482352733612,
                0.10969043523073196
            ],
            "min" : [
                -0.03562769293785095,
                -0.04952229559421539,
                -0.10969043523073196
            ],
            "type" : "VEC3"
        },
        {
            "bufferView" : 34,
            "componentType" : 5126,
            "count" : 386,
            "type" : "VEC3"
        },
        {
            "bufferView" : 35,
            "componentType" : 5126,
            "count" : 386,
            "type" : "VEC2"
        },
        {
            "bufferView" : 36,
            "componentType" : 5123,
            "count" : 2304,
            "type" : "SCALAR"
        },
        {
            "bufferView" : 37,
            "componentType" : 5126,
            "count" : 752,
            "max" : [
                0.007883083075284958,
                0.04807738587260246,
                0.10492149740457535
            ],
            "min" : [
                1.7464276425016578e-07,
                -0.011562908068299294,
                -0.11659956723451614
            ],
            "type" : "VEC3"
        },
        {
            "bufferView" : 38,
            "componentType" : 5126,
            "count" : 752,
            "type" : "VEC3"
        },
        {
            "bufferView" : 39,
            "componentType" : 5126,
            "count" : 752,
            "type" : "VEC2"
        },
        {
            "bufferView" : 40,
            "componentType" : 5123,
            "count" : 1680,
            "type" : "SCALAR"
        }
    ],
    "bufferViews" : [
        {
            "buffer" : 0,
            "byteLength" : 9024,
            "byteOffset" : 0
        },
        {
            "buffer" : 0,
            "byteLength" : 9024,
            "byteOffset" : 9024
        },
        {
            "buffer" : 0,
            "byteLength" : 6016,
            "byteOffset" : 18048
        },
        {
            "buffer" : 0,
            "byteLength" : 3360,
            "byteOffset" : 24064
        },
        {
            "buffer" : 0,
            "byteLength" : 11997,
            "byteOffset" : 27424
        },
        {
            "buffer" : 0,
            "byteLength" : 7728,
            "byteOffset" : 39424
        },
        {
            "buffer" : 0,
            "byteLength" : 7728,
            "byteOffset" : 47152
        },
        {
            "buffer" : 0,
            "byteLength" : 5152,
            "byteOffset" : 54880
        },
        {
            "buffer" : 0,
            "byteLength" : 5760,
            "byteOffset" : 60032
        },
        {
            "buffer" : 0,
            "byteLength" : 8880,
            "byteOffset" : 65792
        },
        {
            "buffer" : 0,
            "byteLength" : 8880,
            "byteOffset" : 74672
        },
        {
            "buffer" : 0,
            "byteLength" : 5920,
            "byteOffset" : 83552
        },
        {
            "buffer" : 0,
            "byteLength" : 7008,
            "byteOffset" : 89472
        },
        {
            "buffer" : 0,
            "byteLength" : 24336,
            "byteOffset" : 96480
        },
        {
            "buffer" : 0,
            "byteLength" : 24336,
            "byteOffset" : 120816
        },
        {
            "buffer" : 0,
            "byteLength" : 16224,
            "byteOffset" : 145152
        },
        {
            "buffer" : 0,
            "byteLength" : 17280,
            "byteOffset" : 161376
        },
        {
            "buffer" : 0,
            "byteLength" : 2892,
            "byteOffset" : 178656
        },
        {
            "buffer" : 0,
            "byteLength" : 2892,
            "byteOffset" : 181548
        },
        {
            "buffer" : 0,
            "byteLength" : 1928,
            "byteOffset" : 184440
        },
        {
            "buffer" : 0,
            "byteLength" : 2688,
            "byteOffset" : 186368
        },
        {
            "buffer" : 0,
            "byteLength" : 4128,
            "byteOffset" : 189056
        },
        {
            "buffer" : 0,
            "byteLength" : 4128,
            "byteOffset" : 193184
        },
        {
            "buffer" : 0,
            "byteLength" : 2752,
            "byteOffset" : 197312
        },
        {
            "buffer" : 0,
            "byteLength" : 1848,
            "byteOffset" : 200064
        },
        {
            "buffer" : 0,
            "byteLength" : 2508,
            "byteOffset" : 201912
        },
        {
            "buffer" : 0,
            "byteLength" : 2508,
            "byteOffset" : 204420
        },
        {
            "buffer" : 0,
            "byteLength" : 1672,
            "byteOffset" : 206928
        },
        {
            "buffer" : 0,
            "byteLength" : 2304,
            "byteOffset" : 208600
        },
        {
            "buffer" : 0,
            "byteLength" : 948,
            "byteOffset" : 210904
        },
        {
            "buffer" : 0,
            "byteLength" : 948,
            "byteOffset" : 211852
        },
        {
            "buffer" : 0,
            "byteLength" : 632,
            "byteOffset" : 212800
        },
        {
            "buffer" : 0,
            "byteLength" : 768,
            "byteOffset" : 213432
        },
        {
            "buffer" : 0,
            "byteLength" : 4632,
            "byteOffset" : 214200
        },
        {
            "buffer" : 0,
            "byteLength" : 4632,
            "byteOffset" : 218832
        },
        {
            "buffer" : 0,
            "byteLength" : 3088,
            "byteOffset" : 223464
        },
        {
            "buffer" : 0,
            "byteLength" : 4608,
            "byteOffset" : 226552
        },
        {
            "buffer" : 0,
            "byteLength" : 9024,
            "byteOffset" : 231160
        },
        {
            "buffer" : 0,
            "byteLength" : 9024,
            "byteOffset" : 240184
        },
        {
            "buffer" : 0,
            "byteLength" : 6016,
            "byteOffset" : 249208
        },
        {
            "buffer" : 0,
            "byteLength" : 3360,
            "byteOffset" : 255224
        }
    ],
    "samplers" : [
        {
            "magFilter" : 9729,
            "minFilter" : 9987
        }
    ],
    "buffers" : [
        {
            "byteLength" : 258584,
            "uri" : "data:application/octet-stream;base64,"
        }
    ]
}
