{
    "asset" : {
        "copyright" : "Jeremy Edelblut",
        "generator" : "Khronos glTF Blender I/O v1.7.33",
        "version" : "2.0"
    },
    "scene" : 0,
    "scenes" : [
        {
            "name" : "Scene",
            "nodes" : [
                0,
                1,
                2
            ]
        }
    ],
    "nodes" : [
        {
            "mesh" : 0,
            "name" : "Circle.1908",
            "rotation" : [
                0.653281569480896,
                -0.270597904920578,
                0.2705979347229004,
                0.6532815098762512
            ],
            "scale" : [
                1.2396780252456665,
                1.2396780252456665,
                1.2396780252456665
            ],
            "translation" : [
                -0.5066189169883728,
                0.05284995585680008,
                0.5066189169883728
            ]
        },
        {
            "mesh" : 1,
            "name" : "Plane.130",
            "rotation" : [
                0,
                -0.3826834559440613,
                0,
                0.9238795042037964
            ],
            "scale" : [
                1.239677906036377,
                1.2396780252456665,
                1.239677906036377
            ],
            "translation" : [
                0,
                -0.21019919216632843,
                0
            ]
        },
        {
            "mesh" : 2,
            "name" : "3moji.org.221",
            "rotation" : [
                -0.2615569531917572,
                0.2793463468551636,
                -0.6314556002616882,
                0.6744015216827393
            ],
            "scale" : [
                1.239678144454956,
                1.2396780252456665,
                1.239678144454956
            ],
            "translation" : [
                0.184307262301445,
                -0.5001310110092163,
                -0.184307262301445
            ]
        }
    ],
    "materials" : [
        {
            "doubleSided" : true,
            "name" : "color",
            "pbrMetallicRoughness" : {
                "baseColorTexture" : {
                    "index" : 0
                },
                "metallicFactor" : 0,
                "roughnessFactor" : 0.5
            }
        }
    ],
    "meshes" : [
        {
            "name" : "Circle.2124",
            "primitives" : [
                {
                    "attributes" : {
                        "POSITION" : 0,
                        "NORMAL" : 1,
                        "TEXCOORD_0" : 2
                    },
                    "indices" : 3,
                    "material" : 0
                }
            ]
        },
        {
            "name" : "Plane.118",
            "primitives" : [
                {
                    "attributes" : {
                        "POSITION" : 4,
                        "NORMAL" : 5,
                        "TEXCOORD_0" : 6
                    },
                    "indices" : 7,
                    "material" : 0
                }
            ]
        },
        {
            "name" : "Cube.682",
            "primitives" : [
                {
                    "attributes" : {
                        "POSITION" : 8,
                        "NORMAL" : 9,
                        "TEXCOORD_0" : 10
                    },
                    "indices" : 11,
                    "material" : 0
                }
            ]
        }
    ],
    "textures" : [
        {
            "sampler" : 0,
            "source" : 0
        }
    ],
    "images" : [
        {
            "bufferView" : 4,
            "mimeType" : "image/png",
            "name" : "tex"
        }
    ],
    "accessors" : [
        {
            "bufferView" : 0,
            "componentType" : 5126,
            "count" : 644,
            "max" : [
                0.08740939199924469,
                -0.12901195883750916,
                -0.5938597321510315
            ],
            "min" : [
                -0.08740939199924469,
                -0.19158139824867249,
                -0.6679820418357849
            ],
            "type" : "VEC3"
        },
        {
            "bufferView" : 1,
            "componentType" : 5126,
            "count" : 644,
            "type" : "VEC3"
        },
        {
            "bufferView" : 2,
            "componentType" : 5126,
            "count" : 644,
            "type" : "VEC2"
        },
        {
            "bufferView" : 3,
            "componentType" : 5123,
            "count" : 2880,
            "type" : "SCALAR"
        },
        {
            "bufferView" : 5,
            "componentType" : 5126,
            "count" : 775,
            "max" : [
                0.16382019221782684,
                1.0606566667556763,
                0.6628272533416748
            ],
            "min" : [
                -0.16382020711898804,
                -0.7388994097709656,
                -0.6466088891029358
            ],
            "type" : "VEC3"
        },
        {
            "bufferView" : 6,
            "componentType" : 5126,
            "count" : 775,
            "type" : "VEC3"
        },
        {
            "bufferView" : 7,
            "componentType" : 5126,
            "count" : 775,
            "type" : "VEC2"
        },
        {
            "bufferView" : 8,
            "componentType" : 5123,
            "count" : 2262,
            "type" : "SCALAR"
        },
        {
            "bufferView" : 9,
            "componentType" : 5126,
            "count" : 752,
            "max" : [
                0.00392864691093564,
                0.0239600520581007,
                0.05228915065526962
            ],
            "min" : [
                8.70357155235979e-08,
                -0.005762540735304356,
                -0.058109086006879807
            ],
            "type" : "VEC3"
        },
        {
            "bufferView" : 10,
            "componentType" : 5126,
            "count" : 752,
            "type" : "VEC3"
        },
        {
            "bufferView" : 11,
            "componentType" : 5126,
            "count" : 752,
            "type" : "VEC2"
        },
        {
            "bufferView" : 12,
            "componentType" : 5123,
            "count" : 1680,
            "type" : "SCALAR"
        }
    ],
    "bufferViews" : [
        {
            "buffer" : 0,
            "byteLength" : 7728,
            "byteOffset" : 0
        },
        {
            "buffer" : 0,
            "byteLength" : 7728,
            "byteOffset" : 7728
        },
        {
            "buffer" : 0,
            "byteLength" : 5152,
            "byteOffset" : 15456
        },
        {
            "buffer" : 0,
            "byteLength" : 5760,
            "byteOffset" : 20608
        },
        {
            "buffer" : 0,
            "byteLength" : 11997,
            "byteOffset" : 26368
        },
        {
            "buffer" : 0,
            "byteLength" : 9300,
            "byteOffset" : 38368
        },
        {
            "buffer" : 0,
            "byteLength" : 9300,
            "byteOffset" : 47668
        },
        {
            "buffer" : 0,
            "byteLength" : 6200,
            "byteOffset" : 56968
        },
        {
            "buffer" : 0,
            "byteLength" : 4524,
            "byteOffset" : 63168
        },
        {
            "buffer" : 0,
            "byteLength" : 9024,
            "byteOffset" : 67692
        },
        {
            "buffer" : 0,
            "byteLength" : 9024,
            "byteOffset" : 76716
        },
        {
            "buffer" : 0,
            "byteLength" : 6016,
            "byteOffset" : 85740
        },
        {
            "buffer" : 0,
            "byteLength" : 3360,
            "byteOffset" : 91756
        }
    ],
    "samplers" : [
        {
            "magFilter" : 9729,
            "minFilter" : 9987
        }
    ],
    "buffers" : [
        {
            "byteLength" : 95116,
            "uri" : "data:application/octet-stream;base64,"
        }
    ]
}
