{
    "asset" : {
        "copyright" : "Jeremy Edelblut",
        "generator" : "Khronos glTF Blender I/O v1.6.16",
        "version" : "2.0"
    },
    "scene" : 0,
    "scenes" : [
        {
            "name" : "Scene",
            "nodes" : [
                0,
                1,
                2,
                3,
                4,
                5
            ]
        }
    ],
    "nodes" : [
        {
            "mesh" : 0,
            "name" : "Circle.2100",
            "rotation" : [
                -0.5000001192092896,
                -0.5000000596046448,
                0.49999988079071045,
                -0.4999999701976776
            ],
            "scale" : [
                0.06526362895965576,
                0.06526362895965576,
                0.06526362895965576
            ],
            "translation" : [
                -0.11249040067195892,
                -0.36700552701950073,
                0
            ]
        },
        {
            "mesh" : 1,
            "name" : "Cube.183",
            "rotation" : [
                -0.4999999403953552,
                -0.5000002384185791,
                0.5000000596046448,
                -0.4999997913837433
            ],
            "scale" : [
                0.4322790503501892,
                0.4322790503501892,
                0.4322790503501892
            ],
            "translation" : [
                0.11306256800889969,
                -0.7341135740280151,
                0
            ]
        },
        {
            "mesh" : 2,
            "name" : "Plane.183",
            "rotation" : [
                0,
                1,
                0,
                1.1322983295338623e-13
            ],
            "scale" : [
                1.4154462814331055,
                1.4154462814331055,
                1.4154462814331055
            ],
            "translation" : [
                0.007070343010127544,
                -0.24829062819480896,
                0
            ]
        },
        {
            "mesh" : 3,
            "name" : "Cube.184",
            "scale" : [
                1.4154462814331055,
                1.4154462814331055,
                1.4154462814331055
            ],
            "translation" : [
                -0.0004237793618813157,
                -0.5776808857917786,
                0
            ]
        },
        {
            "mesh" : 4,
            "name" : "Cube.185",
            "scale" : [
                1.4154462814331055,
                1.4154462814331055,
                1.4154462814331055
            ],
            "translation" : [
                -0.0004237793618813157,
                -0.5776808857917786,
                0
            ]
        },
        {
            "mesh" : 5,
            "name" : "Plane.184",
            "rotation" : [
                0,
                0,
                -0.7071067690849304,
                0.7071068286895752
            ]
        }
    ],
    "materials" : [
        {
            "doubleSided" : true,
            "name" : "DKgray",
            "pbrMetallicRoughness" : {
                "baseColorFactor" : [
                    0.03682169318199158,
                    0.03446357324719429,
                    0.03740420565009117,
                    1
                ],
                "metallicFactor" : 0,
                "roughnessFactor" : 0.5
            }
        },
        {
            "doubleSided" : true,
            "name" : "Color",
            "pbrMetallicRoughness" : {
                "baseColorTexture" : {
                    "index" : 0
                },
                "metallicFactor" : 0,
                "roughnessFactor" : 0.5
            }
        }
    ],
    "meshes" : [
        {
            "name" : "Circle.2480",
            "primitives" : [
                {
                    "attributes" : {
                        "POSITION" : 0,
                        "NORMAL" : 1,
                        "TEXCOORD_0" : 2
                    },
                    "indices" : 3,
                    "material" : 0
                }
            ]
        },
        {
            "name" : "Cube.292",
            "primitives" : [
                {
                    "attributes" : {
                        "POSITION" : 4,
                        "NORMAL" : 5,
                        "TEXCOORD_0" : 6
                    },
                    "indices" : 7,
                    "material" : 1
                }
            ]
        },
        {
            "name" : "Plane.182",
            "primitives" : [
                {
                    "attributes" : {
                        "POSITION" : 8,
                        "NORMAL" : 9,
                        "TEXCOORD_0" : 10
                    },
                    "indices" : 11,
                    "material" : 1
                }
            ]
        },
        {
            "name" : "Cube.294",
            "primitives" : [
                {
                    "attributes" : {
                        "POSITION" : 12,
                        "NORMAL" : 13,
                        "TEXCOORD_0" : 14
                    },
                    "indices" : 15,
                    "material" : 1
                }
            ]
        },
        {
            "name" : "Cube.296",
            "primitives" : [
                {
                    "attributes" : {
                        "POSITION" : 16,
                        "NORMAL" : 17,
                        "TEXCOORD_0" : 18
                    },
                    "indices" : 19,
                    "material" : 1
                }
            ]
        },
        {
            "name" : "Plane.183",
            "primitives" : [
                {
                    "attributes" : {
                        "POSITION" : 20,
                        "NORMAL" : 21,
                        "TEXCOORD_0" : 22
                    },
                    "indices" : 23,
                    "material" : 1
                }
            ]
        }
    ],
    "textures" : [
        {
            "sampler" : 0,
            "source" : 0
        }
    ],
    "images" : [
        {
            "bufferView" : 8,
            "mimeType" : "image/png",
            "name" : "tex"
        }
    ],
    "accessors" : [
        {
            "bufferView" : 0,
            "componentType" : 5126,
            "count" : 752,
            "max" : [
                2.2654435634613037,
                3.0906708240509033,
                -3.429266929626465
            ],
            "min" : [
                -2.2654435634613037,
                1.6236653327941895,
                -5.013245105743408
            ],
            "type" : "VEC3"
        },
        {
            "bufferView" : 1,
            "componentType" : 5126,
            "count" : 752,
            "type" : "VEC3"
        },
        {
            "bufferView" : 2,
            "componentType" : 5126,
            "count" : 752,
            "type" : "VEC2"
        },
        {
            "bufferView" : 3,
            "componentType" : 5123,
            "count" : 2880,
            "type" : "SCALAR"
        },
        {
            "bufferView" : 4,
            "componentType" : 5126,
            "count" : 1736,
            "max" : [
                1.799169898033142,
                -0.4112245440483093,
                1.5645004510879517
            ],
            "min" : [
                -1.799169898033142,
                -0.5817562341690063,
                -3.0426464080810547
            ],
            "type" : "VEC3"
        },
        {
            "bufferView" : 5,
            "componentType" : 5126,
            "count" : 1736,
            "type" : "VEC3"
        },
        {
            "bufferView" : 6,
            "componentType" : 5126,
            "count" : 1736,
            "type" : "VEC2"
        },
        {
            "bufferView" : 7,
            "componentType" : 5123,
            "count" : 4632,
            "type" : "SCALAR"
        },
        {
            "bufferView" : 9,
            "componentType" : 5126,
            "count" : 718,
            "max" : [
                0.09410448372364044,
                0.4566316306591034,
                0.6680445075035095
            ],
            "min" : [
                0.014749526977539062,
                -0.24951431155204773,
                -0.6680445075035095
            ],
            "type" : "VEC3"
        },
        {
            "bufferView" : 10,
            "componentType" : 5126,
            "count" : 718,
            "type" : "VEC3"
        },
        {
            "bufferView" : 11,
            "componentType" : 5126,
            "count" : 718,
            "type" : "VEC2"
        },
        {
            "bufferView" : 12,
            "componentType" : 5123,
            "count" : 1992,
            "type" : "SCALAR"
        },
        {
            "bufferView" : 13,
            "componentType" : 5126,
            "count" : 558,
            "max" : [
                0.1446066051721573,
                0.40787285566329956,
                0.2215331643819809
            ],
            "min" : [
                -0.27696752548217773,
                -0.834179699420929,
                -0.2215331643819809
            ],
            "type" : "VEC3"
        },
        {
            "bufferView" : 14,
            "componentType" : 5126,
            "count" : 558,
            "type" : "VEC3"
        },
        {
            "bufferView" : 15,
            "componentType" : 5126,
            "count" : 558,
            "type" : "VEC2"
        },
        {
            "bufferView" : 16,
            "componentType" : 5123,
            "count" : 2880,
            "type" : "SCALAR"
        },
        {
            "bufferView" : 17,
            "componentType" : 5126,
            "count" : 408,
            "max" : [
                0.1340460181236267,
                -0.0649634599685669,
                0.20857349038124084
            ],
            "min" : [
                -0.22971977293491364,
                -0.6454967260360718,
                -0.20857347548007965
            ],
            "type" : "VEC3"
        },
        {
            "bufferView" : 18,
            "componentType" : 5126,
            "count" : 408,
            "type" : "VEC3"
        },
        {
            "bufferView" : 19,
            "componentType" : 5126,
            "count" : 408,
            "type" : "VEC2"
        },
        {
            "bufferView" : 20,
            "componentType" : 5123,
            "count" : 1728,
            "type" : "SCALAR"
        },
        {
            "bufferView" : 21,
            "componentType" : 5126,
            "count" : 1920,
            "max" : [
                1.9455054998397827,
                -0.2322646677494049,
                0.38224518299102783
            ],
            "min" : [
                1.485994577407837,
                -0.4297634959220886,
                -0.38224560022354126
            ],
            "type" : "VEC3"
        },
        {
            "bufferView" : 22,
            "componentType" : 5126,
            "count" : 1920,
            "type" : "VEC3"
        },
        {
            "bufferView" : 23,
            "componentType" : 5126,
            "count" : 1920,
            "type" : "VEC2"
        },
        {
            "bufferView" : 24,
            "componentType" : 5123,
            "count" : 2880,
            "type" : "SCALAR"
        }
    ],
    "bufferViews" : [
        {
            "buffer" : 0,
            "byteLength" : 9024,
            "byteOffset" : 0
        },
        {
            "buffer" : 0,
            "byteLength" : 9024,
            "byteOffset" : 9024
        },
        {
            "buffer" : 0,
            "byteLength" : 6016,
            "byteOffset" : 18048
        },
        {
            "buffer" : 0,
            "byteLength" : 5760,
            "byteOffset" : 24064
        },
        {
            "buffer" : 0,
            "byteLength" : 20832,
            "byteOffset" : 29824
        },
        {
            "buffer" : 0,
            "byteLength" : 20832,
            "byteOffset" : 50656
        },
        {
            "buffer" : 0,
            "byteLength" : 13888,
            "byteOffset" : 71488
        },
        {
            "buffer" : 0,
            "byteLength" : 9264,
            "byteOffset" : 85376
        },
        {
            "buffer" : 0,
            "byteLength" : 1322,
            "byteOffset" : 94640
        },
        {
            "buffer" : 0,
            "byteLength" : 8616,
            "byteOffset" : 95964
        },
        {
            "buffer" : 0,
            "byteLength" : 8616,
            "byteOffset" : 104580
        },
        {
            "buffer" : 0,
            "byteLength" : 5744,
            "byteOffset" : 113196
        },
        {
            "buffer" : 0,
            "byteLength" : 3984,
            "byteOffset" : 118940
        },
        {
            "buffer" : 0,
            "byteLength" : 6696,
            "byteOffset" : 122924
        },
        {
            "buffer" : 0,
            "byteLength" : 6696,
            "byteOffset" : 129620
        },
        {
            "buffer" : 0,
            "byteLength" : 4464,
            "byteOffset" : 136316
        },
        {
            "buffer" : 0,
            "byteLength" : 5760,
            "byteOffset" : 140780
        },
        {
            "buffer" : 0,
            "byteLength" : 4896,
            "byteOffset" : 146540
        },
        {
            "buffer" : 0,
            "byteLength" : 4896,
            "byteOffset" : 151436
        },
        {
            "buffer" : 0,
            "byteLength" : 3264,
            "byteOffset" : 156332
        },
        {
            "buffer" : 0,
            "byteLength" : 3456,
            "byteOffset" : 159596
        },
        {
            "buffer" : 0,
            "byteLength" : 23040,
            "byteOffset" : 163052
        },
        {
            "buffer" : 0,
            "byteLength" : 23040,
            "byteOffset" : 186092
        },
        {
            "buffer" : 0,
            "byteLength" : 15360,
            "byteOffset" : 209132
        },
        {
            "buffer" : 0,
            "byteLength" : 5760,
            "byteOffset" : 224492
        }
    ],
    "samplers" : [
        {
            "magFilter" : 9729,
            "minFilter" : 9987
        }
    ],
    "buffers" : [
        {
            "byteLength" : 230252,
            "uri" : "data:application/octet-stream;base64,"
        }
    ]
}
