{
    "asset" : {
        "copyright" : "Jeremy Edelblut",
        "generator" : "Khronos glTF Blender I/O v1.6.16",
        "version" : "2.0"
    },
    "scene" : 0,
    "scenes" : [
        {
            "name" : "Scene",
            "nodes" : [
                0,
                1,
                2,
                3,
                4,
                5
            ]
        }
    ],
    "nodes" : [
        {
            "mesh" : 0,
            "name" : "Circle.2100",
            "rotation" : [
                -0.7071068286895752,
                0,
                0,
                -0.7071068286895752
            ],
            "scale" : [
                0.058737266808748245,
                0.058737266808748245,
                0.058737266808748245
            ],
            "translation" : [
                0,
                0.25840243697166443,
                -0.10124136507511139
            ]
        },
        {
            "mesh" : 1,
            "name" : "Cube.183",
            "rotation" : [
                -0.7071068286895752,
                0,
                0,
                -0.7071068286895752
            ],
            "scale" : [
                0.3890511691570282,
                0.3890511691570282,
                0.3890511691570282
            ],
            "translation" : [
                0,
                -0.07199478149414062,
                0.10175631195306778
            ]
        },
        {
            "mesh" : 2,
            "name" : "Plane.183",
            "rotation" : [
                0,
                0.7071068286895752,
                0,
                0.7071068286895752
            ],
            "scale" : [
                1.2739015817642212,
                1.2739015817642212,
                1.2739015817642212
            ],
            "translation" : [
                0,
                0.36524584889411926,
                0.006363308988511562
            ]
        },
        {
            "mesh" : 3,
            "name" : "Cube.184",
            "rotation" : [
                0,
                -0.7071068286895752,
                0,
                0.7071068286895752
            ],
            "scale" : [
                1.2739015817642212,
                1.2739015817642212,
                1.2739015817642212
            ],
            "translation" : [
                0,
                0.06879463791847229,
                -0.0003814014489762485
            ]
        },
        {
            "mesh" : 4,
            "name" : "Cube.185",
            "rotation" : [
                0,
                -0.7071068286895752,
                0,
                0.7071068286895752
            ],
            "scale" : [
                1.2739015817642212,
                1.2739015817642212,
                1.2739015817642212
            ],
            "translation" : [
                0,
                0.06879463791847229,
                -0.0003814014489762485
            ]
        },
        {
            "mesh" : 5,
            "name" : "Plane.184",
            "rotation" : [
                0.5,
                -0.5,
                -0.4999999701976776,
                0.5
            ],
            "scale" : [
                0.9000000357627869,
                0.9000000357627869,
                0.9000000357627869
            ],
            "translation" : [
                0,
                0.5887073874473572,
                0
            ]
        }
    ],
    "materials" : [
        {
            "doubleSided" : true,
            "name" : "Color",
            "pbrMetallicRoughness" : {
                "baseColorTexture" : {
                    "index" : 0
                },
                "metallicFactor" : 0,
                "roughnessFactor" : 0.5
            }
        }
    ],
    "meshes" : [
        {
            "name" : "Circle.2480",
            "primitives" : [
                {
                    "attributes" : {
                        "POSITION" : 0,
                        "NORMAL" : 1,
                        "TEXCOORD_0" : 2
                    },
                    "indices" : 3
                }
            ]
        },
        {
            "name" : "Cube.292",
            "primitives" : [
                {
                    "attributes" : {
                        "POSITION" : 4,
                        "NORMAL" : 5,
                        "TEXCOORD_0" : 6
                    },
                    "indices" : 7,
                    "material" : 0
                }
            ]
        },
        {
            "name" : "Plane.182",
            "primitives" : [
                {
                    "attributes" : {
                        "POSITION" : 8,
                        "NORMAL" : 9,
                        "TEXCOORD_0" : 10
                    },
                    "indices" : 11,
                    "material" : 0
                }
            ]
        },
        {
            "name" : "Cube.294",
            "primitives" : [
                {
                    "attributes" : {
                        "POSITION" : 12,
                        "NORMAL" : 13,
                        "TEXCOORD_0" : 14
                    },
                    "indices" : 15,
                    "material" : 0
                }
            ]
        },
        {
            "name" : "Cube.296",
            "primitives" : [
                {
                    "attributes" : {
                        "POSITION" : 16,
                        "NORMAL" : 17,
                        "TEXCOORD_0" : 18
                    },
                    "indices" : 19,
                    "material" : 0
                }
            ]
        },
        {
            "name" : "Plane.183",
            "primitives" : [
                {
                    "attributes" : {
                        "POSITION" : 20,
                        "NORMAL" : 21,
                        "TEXCOORD_0" : 22
                    },
                    "indices" : 23,
                    "material" : 0
                }
            ]
        }
    ],
    "textures" : [
        {
            "sampler" : 0,
            "source" : 0
        }
    ],
    "images" : [
        {
            "bufferView" : 8,
            "mimeType" : "image/png",
            "name" : "tex2"
        }
    ],
    "accessors" : [
        {
            "bufferView" : 0,
            "componentType" : 5126,
            "count" : 752,
            "max" : [
                2.265443801879883,
                3.0906662940979004,
                -3.4292664527893066
            ],
            "min" : [
                -2.265443801879883,
                1.6236646175384521,
                -5.013245582580566
            ],
            "type" : "VEC3"
        },
        {
            "bufferView" : 1,
            "componentType" : 5126,
            "count" : 752,
            "type" : "VEC3"
        },
        {
            "bufferView" : 2,
            "componentType" : 5126,
            "count" : 752,
            "type" : "VEC2"
        },
        {
            "bufferView" : 3,
            "componentType" : 5123,
            "count" : 2880,
            "type" : "SCALAR"
        },
        {
            "bufferView" : 4,
            "componentType" : 5126,
            "count" : 1736,
            "max" : [
                1.799169898033142,
                -0.4112245440483093,
                1.5645004510879517
            ],
            "min" : [
                -1.799169898033142,
                -0.5817562341690063,
                -3.0426464080810547
            ],
            "type" : "VEC3"
        },
        {
            "bufferView" : 5,
            "componentType" : 5126,
            "count" : 1736,
            "type" : "VEC3"
        },
        {
            "bufferView" : 6,
            "componentType" : 5126,
            "count" : 1736,
            "type" : "VEC2"
        },
        {
            "bufferView" : 7,
            "componentType" : 5123,
            "count" : 4632,
            "type" : "SCALAR"
        },
        {
            "bufferView" : 9,
            "componentType" : 5126,
            "count" : 718,
            "max" : [
                0.09410448372364044,
                0.4566316306591034,
                0.6680445075035095
            ],
            "min" : [
                0.014749526977539062,
                -0.24951431155204773,
                -0.6680445075035095
            ],
            "type" : "VEC3"
        },
        {
            "bufferView" : 10,
            "componentType" : 5126,
            "count" : 718,
            "type" : "VEC3"
        },
        {
            "bufferView" : 11,
            "componentType" : 5126,
            "count" : 718,
            "type" : "VEC2"
        },
        {
            "bufferView" : 12,
            "componentType" : 5123,
            "count" : 1992,
            "type" : "SCALAR"
        },
        {
            "bufferView" : 13,
            "componentType" : 5126,
            "count" : 558,
            "max" : [
                0.1446066051721573,
                0.40787285566329956,
                0.2215331643819809
            ],
            "min" : [
                -0.27696752548217773,
                -0.834179699420929,
                -0.2215331643819809
            ],
            "type" : "VEC3"
        },
        {
            "bufferView" : 14,
            "componentType" : 5126,
            "count" : 558,
            "type" : "VEC3"
        },
        {
            "bufferView" : 15,
            "componentType" : 5126,
            "count" : 558,
            "type" : "VEC2"
        },
        {
            "bufferView" : 16,
            "componentType" : 5123,
            "count" : 2880,
            "type" : "SCALAR"
        },
        {
            "bufferView" : 17,
            "componentType" : 5126,
            "count" : 408,
            "max" : [
                0.1340460181236267,
                -0.0649634599685669,
                0.20857349038124084
            ],
            "min" : [
                -0.22971977293491364,
                -0.6454967260360718,
                -0.20857347548007965
            ],
            "type" : "VEC3"
        },
        {
            "bufferView" : 18,
            "componentType" : 5126,
            "count" : 408,
            "type" : "VEC3"
        },
        {
            "bufferView" : 19,
            "componentType" : 5126,
            "count" : 408,
            "type" : "VEC2"
        },
        {
            "bufferView" : 20,
            "componentType" : 5123,
            "count" : 1728,
            "type" : "SCALAR"
        },
        {
            "bufferView" : 21,
            "componentType" : 5126,
            "count" : 1920,
            "max" : [
                1.9455054998397827,
                -0.2322646677494049,
                0.38224518299102783
            ],
            "min" : [
                1.485994577407837,
                -0.4297634959220886,
                -0.38224560022354126
            ],
            "type" : "VEC3"
        },
        {
            "bufferView" : 22,
            "componentType" : 5126,
            "count" : 1920,
            "type" : "VEC3"
        },
        {
            "bufferView" : 23,
            "componentType" : 5126,
            "count" : 1920,
            "type" : "VEC2"
        },
        {
            "bufferView" : 24,
            "componentType" : 5123,
            "count" : 2880,
            "type" : "SCALAR"
        }
    ],
    "bufferViews" : [
        {
            "buffer" : 0,
            "byteLength" : 9024,
            "byteOffset" : 0
        },
        {
            "buffer" : 0,
            "byteLength" : 9024,
            "byteOffset" : 9024
        },
        {
            "buffer" : 0,
            "byteLength" : 6016,
            "byteOffset" : 18048
        },
        {
            "buffer" : 0,
            "byteLength" : 5760,
            "byteOffset" : 24064
        },
        {
            "buffer" : 0,
            "byteLength" : 20832,
            "byteOffset" : 29824
        },
        {
            "buffer" : 0,
            "byteLength" : 20832,
            "byteOffset" : 50656
        },
        {
            "buffer" : 0,
            "byteLength" : 13888,
            "byteOffset" : 71488
        },
        {
            "buffer" : 0,
            "byteLength" : 9264,
            "byteOffset" : 85376
        },
        {
            "buffer" : 0,
            "byteLength" : 6474,
            "byteOffset" : 94640
        },
        {
            "buffer" : 0,
            "byteLength" : 8616,
            "byteOffset" : 101116
        },
        {
            "buffer" : 0,
            "byteLength" : 8616,
            "byteOffset" : 109732
        },
        {
            "buffer" : 0,
            "byteLength" : 5744,
            "byteOffset" : 118348
        },
        {
            "buffer" : 0,
            "byteLength" : 3984,
            "byteOffset" : 124092
        },
        {
            "buffer" : 0,
            "byteLength" : 6696,
            "byteOffset" : 128076
        },
        {
            "buffer" : 0,
            "byteLength" : 6696,
            "byteOffset" : 134772
        },
        {
            "buffer" : 0,
            "byteLength" : 4464,
            "byteOffset" : 141468
        },
        {
            "buffer" : 0,
            "byteLength" : 5760,
            "byteOffset" : 145932
        },
        {
            "buffer" : 0,
            "byteLength" : 4896,
            "byteOffset" : 151692
        },
        {
            "buffer" : 0,
            "byteLength" : 4896,
            "byteOffset" : 156588
        },
        {
            "buffer" : 0,
            "byteLength" : 3264,
            "byteOffset" : 161484
        },
        {
            "buffer" : 0,
            "byteLength" : 3456,
            "byteOffset" : 164748
        },
        {
            "buffer" : 0,
            "byteLength" : 23040,
            "byteOffset" : 168204
        },
        {
            "buffer" : 0,
            "byteLength" : 23040,
            "byteOffset" : 191244
        },
        {
            "buffer" : 0,
            "byteLength" : 15360,
            "byteOffset" : 214284
        },
        {
            "buffer" : 0,
            "byteLength" : 5760,
            "byteOffset" : 229644
        }
    ],
    "samplers" : [
        {
            "magFilter" : 9729,
            "minFilter" : 9987
        }
    ],
    "buffers" : [
        {
            "byteLength" : 235404,
            "uri" : "data:application/octet-stream;base64,"
        }
    ]
}
