{
    "asset" : {
        "copyright" : "Jeremy Edelblut",
        "generator" : "Khronos glTF Blender I/O v1.6.16",
        "version" : "2.0"
    },
    "scene" : 0,
    "scenes" : [
        {
            "name" : "Scene",
            "nodes" : [
                0,
                1,
                2
            ]
        }
    ],
    "nodes" : [
        {
            "mesh" : 0,
            "name" : "Circle.2579",
            "rotation" : [
                0,
                1,
                0,
                -1.6292068494294654e-07
            ],
            "translation" : [
                0,
                -1.100000023841858,
                0
            ]
        },
        {
            "mesh" : 1,
            "name" : "Cylinder.510",
            "rotation" : [
                -0.02061506174504757,
                0.04976918175816536,
                -0.3821277618408203,
                0.9225380420684814
            ],
            "scale" : [
                0.29153338074684143,
                0.29153338074684143,
                0.29153332114219666
            ],
            "translation" : [
                0,
                0,
                0.6112949848175049
            ]
        },
        {
            "mesh" : 2,
            "name" : "Cylinder.511",
            "rotation" : [
                -0.02061506174504757,
                0.04976918175816536,
                -0.3821277618408203,
                0.9225380420684814
            ],
            "scale" : [
                0.29153338074684143,
                0.29153338074684143,
                0.29153332114219666
            ],
            "translation" : [
                0,
                0,
                0.6112949848175049
            ]
        }
    ],
    "materials" : [
        {
            "doubleSided" : true,
            "name" : "Color",
            "pbrMetallicRoughness" : {
                "baseColorTexture" : {
                    "index" : 0
                },
                "metallicFactor" : 0,
                "roughnessFactor" : 0.5
            }
        }
    ],
    "meshes" : [
        {
            "name" : "Circle.3236",
            "primitives" : [
                {
                    "attributes" : {
                        "POSITION" : 0,
                        "NORMAL" : 1,
                        "TEXCOORD_0" : 2
                    },
                    "indices" : 3,
                    "material" : 0
                }
            ]
        },
        {
            "name" : "Cylinder.514",
            "primitives" : [
                {
                    "attributes" : {
                        "POSITION" : 4,
                        "NORMAL" : 5,
                        "TEXCOORD_0" : 6
                    },
                    "indices" : 7,
                    "material" : 0
                }
            ]
        },
        {
            "name" : "Cylinder.515",
            "primitives" : [
                {
                    "attributes" : {
                        "POSITION" : 8,
                        "NORMAL" : 9,
                        "TEXCOORD_0" : 10
                    },
                    "indices" : 11,
                    "material" : 0
                }
            ]
        }
    ],
    "textures" : [
        {
            "sampler" : 0,
            "source" : 0
        }
    ],
    "images" : [
        {
            "bufferView" : 4,
            "mimeType" : "image/png",
            "name" : "tex2"
        }
    ],
    "accessors" : [
        {
            "bufferView" : 0,
            "componentType" : 5126,
            "count" : 1284,
            "max" : [
                0.7999999523162842,
                2.133258104324341,
                0.40000003576278687
            ],
            "min" : [
                -0.7999999523162842,
                -0.036000002175569534,
                -0.3999999761581421
            ],
            "type" : "VEC3"
        },
        {
            "bufferView" : 1,
            "componentType" : 5126,
            "count" : 1284,
            "type" : "VEC3"
        },
        {
            "bufferView" : 2,
            "componentType" : 5126,
            "count" : 1284,
            "type" : "VEC2"
        },
        {
            "bufferView" : 3,
            "componentType" : 5123,
            "count" : 5826,
            "type" : "SCALAR"
        },
        {
            "bufferView" : 5,
            "componentType" : 5126,
            "count" : 1259,
            "max" : [
                0.6314157247543335,
                3.945099353790283,
                0.6188666224479675
            ],
            "min" : [
                -0.6314159035682678,
                -3.880925178527832,
                -0.6196343302726746
            ],
            "type" : "VEC3"
        },
        {
            "bufferView" : 6,
            "componentType" : 5126,
            "count" : 1259,
            "type" : "VEC3"
        },
        {
            "bufferView" : 7,
            "componentType" : 5126,
            "count" : 1259,
            "type" : "VEC2"
        },
        {
            "bufferView" : 8,
            "componentType" : 5123,
            "count" : 5400,
            "type" : "SCALAR"
        },
        {
            "bufferView" : 9,
            "componentType" : 5126,
            "count" : 158,
            "max" : [
                -0.5551503300666809,
                3.3552989959716797,
                0.08189612627029419
            ],
            "min" : [
                -0.8990567326545715,
                0.9174342155456543,
                -0.08189606666564941
            ],
            "type" : "VEC3"
        },
        {
            "bufferView" : 10,
            "componentType" : 5126,
            "count" : 158,
            "type" : "VEC3"
        },
        {
            "bufferView" : 11,
            "componentType" : 5126,
            "count" : 158,
            "type" : "VEC2"
        },
        {
            "bufferView" : 12,
            "componentType" : 5123,
            "count" : 252,
            "type" : "SCALAR"
        }
    ],
    "bufferViews" : [
        {
            "buffer" : 0,
            "byteLength" : 15408,
            "byteOffset" : 0
        },
        {
            "buffer" : 0,
            "byteLength" : 15408,
            "byteOffset" : 15408
        },
        {
            "buffer" : 0,
            "byteLength" : 10272,
            "byteOffset" : 30816
        },
        {
            "buffer" : 0,
            "byteLength" : 11652,
            "byteOffset" : 41088
        },
        {
            "buffer" : 0,
            "byteLength" : 6474,
            "byteOffset" : 52740
        },
        {
            "buffer" : 0,
            "byteLength" : 15108,
            "byteOffset" : 59216
        },
        {
            "buffer" : 0,
            "byteLength" : 15108,
            "byteOffset" : 74324
        },
        {
            "buffer" : 0,
            "byteLength" : 10072,
            "byteOffset" : 89432
        },
        {
            "buffer" : 0,
            "byteLength" : 10800,
            "byteOffset" : 99504
        },
        {
            "buffer" : 0,
            "byteLength" : 1896,
            "byteOffset" : 110304
        },
        {
            "buffer" : 0,
            "byteLength" : 1896,
            "byteOffset" : 112200
        },
        {
            "buffer" : 0,
            "byteLength" : 1264,
            "byteOffset" : 114096
        },
        {
            "buffer" : 0,
            "byteLength" : 504,
            "byteOffset" : 115360
        }
    ],
    "samplers" : [
        {
            "magFilter" : 9729,
            "minFilter" : 9987
        }
    ],
    "buffers" : [
        {
            "byteLength" : 115864,
            "uri" : "data:application/octet-stream;base64,"
        }
    ]
}
