{
    "asset" : {
        "copyright" : "Jeremy Edelblut",
        "generator" : "Khronos glTF Blender I/O v1.7.33",
        "version" : "2.0"
    },
    "scene" : 0,
    "scenes" : [
        {
            "name" : "Scene",
            "nodes" : [
                0
            ]
        }
    ],
    "nodes" : [
        {
            "mesh" : 0,
            "name" : "BezierCurve.001",
            "rotation" : [
                0.6475557684898376,
                0.2682263255119324,
                0.27294909954071045,
                0.6589574813842773
            ],
            "scale" : [
                2.792964220046997,
                2.792963981628418,
                2.792964220046997
            ],
            "translation" : [
                -0.40662431716918945,
                0.441229909658432,
                0
            ]
        }
    ],
    "materials" : [
        {
            "doubleSided" : true,
            "name" : "color",
            "pbrMetallicRoughness" : {
                "baseColorTexture" : {
                    "index" : 0
                },
                "metallicFactor" : 0,
                "roughnessFactor" : 0.5
            }
        }
    ],
    "meshes" : [
        {
            "name" : "BezierCurve.001",
            "primitives" : [
                {
                    "attributes" : {
                        "POSITION" : 0,
                        "NORMAL" : 1,
                        "TEXCOORD_0" : 2
                    },
                    "indices" : 3,
                    "material" : 0
                }
            ]
        }
    ],
    "textures" : [
        {
            "sampler" : 0,
            "source" : 0
        }
    ],
    "images" : [
        {
            "bufferView" : 4,
            "mimeType" : "image/png",
            "name" : "tex"
        }
    ],
    "accessors" : [
        {
            "bufferView" : 0,
            "componentType" : 5126,
            "count" : 2308,
            "max" : [
                0.24062147736549377,
                0.040000010281801224,
                0.7764064073562622
            ],
            "min" : [
                -0.27885982394218445,
                -0.040000006556510925,
                -0.2446022629737854
            ],
            "type" : "VEC3"
        },
        {
            "bufferView" : 1,
            "componentType" : 5126,
            "count" : 2308,
            "type" : "VEC3"
        },
        {
            "bufferView" : 2,
            "componentType" : 5126,
            "count" : 2308,
            "type" : "VEC2"
        },
        {
            "bufferView" : 3,
            "componentType" : 5123,
            "count" : 8232,
            "type" : "SCALAR"
        }
    ],
    "bufferViews" : [
        {
            "buffer" : 0,
            "byteLength" : 27696,
            "byteOffset" : 0
        },
        {
            "buffer" : 0,
            "byteLength" : 27696,
            "byteOffset" : 27696
        },
        {
            "buffer" : 0,
            "byteLength" : 18464,
            "byteOffset" : 55392
        },
        {
            "buffer" : 0,
            "byteLength" : 16464,
            "byteOffset" : 73856
        },
        {
            "buffer" : 0,
            "byteLength" : 11997,
            "byteOffset" : 90320
        }
    ],
    "samplers" : [
        {
            "magFilter" : 9729,
            "minFilter" : 9987
        }
    ],
    "buffers" : [
        {
            "byteLength" : 102320,
            "uri" : "data:application/octet-stream;base64,"
        }
    ]
}
