{
    "asset" : {
        "copyright" : "Jeremy Edelblut",
        "generator" : "Khronos glTF Blender I/O v1.7.33",
        "version" : "2.0"
    },
    "scene" : 0,
    "scenes" : [
        {
            "name" : "Scene",
            "nodes" : [
                0
            ]
        }
    ],
    "nodes" : [
        {
            "mesh" : 0,
            "name" : "Cylinder.496",
            "rotation" : [
                0.14644663035869598,
                -0.3535534143447876,
                -0.3535534143447876,
                0.8535534739494324
            ],
            "scale" : [
                0.7699999809265137,
                0.7699999809265137,
                0.7699999809265137
            ],
            "translation" : [
                0.07328097522258759,
                0.10363494604825974,
                0.07328097522258759
            ]
        }
    ],
    "materials" : [
        {
            "doubleSided" : true,
            "name" : "color",
            "pbrMetallicRoughness" : {
                "baseColorTexture" : {
                    "index" : 0
                },
                "metallicFactor" : 0,
                "roughnessFactor" : 0.5
            }
        }
    ],
    "meshes" : [
        {
            "name" : "Cylinder.502",
            "primitives" : [
                {
                    "attributes" : {
                        "POSITION" : 0,
                        "NORMAL" : 1,
                        "TEXCOORD_0" : 2
                    },
                    "indices" : 3,
                    "material" : 0
                }
            ]
        }
    ],
    "textures" : [
        {
            "sampler" : 0,
            "source" : 0
        }
    ],
    "images" : [
        {
            "bufferView" : 4,
            "mimeType" : "image/png",
            "name" : "tex"
        }
    ],
    "accessors" : [
        {
            "bufferView" : 0,
            "componentType" : 5126,
            "count" : 1376,
            "max" : [
                0.8797284364700317,
                1.1280999183654785,
                0.8797284364700317
            ],
            "min" : [
                -0.8797284364700317,
                -1.5541311502456665,
                -0.8797284364700317
            ],
            "type" : "VEC3"
        },
        {
            "bufferView" : 1,
            "componentType" : 5126,
            "count" : 1376,
            "type" : "VEC3"
        },
        {
            "bufferView" : 2,
            "componentType" : 5126,
            "count" : 1376,
            "type" : "VEC2"
        },
        {
            "bufferView" : 3,
            "componentType" : 5123,
            "count" : 3252,
            "type" : "SCALAR"
        }
    ],
    "bufferViews" : [
        {
            "buffer" : 0,
            "byteLength" : 16512,
            "byteOffset" : 0
        },
        {
            "buffer" : 0,
            "byteLength" : 16512,
            "byteOffset" : 16512
        },
        {
            "buffer" : 0,
            "byteLength" : 11008,
            "byteOffset" : 33024
        },
        {
            "buffer" : 0,
            "byteLength" : 6504,
            "byteOffset" : 44032
        },
        {
            "buffer" : 0,
            "byteLength" : 11997,
            "byteOffset" : 50536
        }
    ],
    "samplers" : [
        {
            "magFilter" : 9729,
            "minFilter" : 9987
        }
    ],
    "buffers" : [
        {
            "byteLength" : 62536,
            "uri" : "data:application/octet-stream;base64,"
        }
    ]
}
