{
    "asset" : {
        "copyright" : "Jeremy Edelblut",
        "generator" : "Khronos glTF Blender I/O v1.7.33",
        "version" : "2.0"
    },
    "scene" : 0,
    "scenes" : [
        {
            "name" : "Scene",
            "nodes" : [
                0,
                1
            ]
        }
    ],
    "nodes" : [
        {
            "mesh" : 0,
            "name" : "Cube.090"
        },
        {
            "mesh" : 1,
            "name" : "3moji.org.011",
            "rotation" : [
                -0.5000000596046448,
                0.49999985098838806,
                0.49999991059303284,
                -0.5000001192092896
            ],
            "scale" : [
                0.001731273252516985,
                0.001731273252516985,
                0.001731273252516985
            ],
            "translation" : [
                -0.12213936448097229,
                -0.8786710500717163,
                -0.004463589284569025
            ]
        }
    ],
    "materials" : [
        {
            "doubleSided" : true,
            "name" : "skin_tone_one",
            "pbrMetallicRoughness" : {
                "baseColorTexture" : {
                    "index" : 0
                },
                "metallicFactor" : 0,
                "roughnessFactor" : 0.5
            }
        },
        {
            "doubleSided" : true,
            "name" : "color",
            "pbrMetallicRoughness" : {
                "baseColorTexture" : {
                    "index" : 1
                },
                "metallicFactor" : 0,
                "roughnessFactor" : 0.5
            }
        }
    ],
    "meshes" : [
        {
            "name" : "Cube.225",
            "primitives" : [
                {
                    "attributes" : {
                        "POSITION" : 0,
                        "NORMAL" : 1,
                        "TEXCOORD_0" : 2
                    },
                    "indices" : 3,
                    "material" : 0
                }
            ]
        },
        {
            "name" : "Cube.069",
            "primitives" : [
                {
                    "attributes" : {
                        "POSITION" : 4,
                        "NORMAL" : 5,
                        "TEXCOORD_0" : 6
                    },
                    "indices" : 7,
                    "material" : 1
                }
            ]
        }
    ],
    "textures" : [
        {
            "sampler" : 0,
            "source" : 0
        },
        {
            "sampler" : 0,
            "source" : 0
        }
    ],
    "images" : [
        {
            "bufferView" : 4,
            "mimeType" : "image/png",
            "name" : "tex"
        }
    ],
    "accessors" : [
        {
            "bufferView" : 0,
            "componentType" : 5126,
            "count" : 5011,
            "max" : [
                0.8595832586288452,
                1.0065433979034424,
                0.5092455148696899
            ],
            "min" : [
                -0.6778521537780762,
                -0.8832586407661438,
                -0.15923772752285004
            ],
            "type" : "VEC3"
        },
        {
            "bufferView" : 1,
            "componentType" : 5126,
            "count" : 5011,
            "type" : "VEC3"
        },
        {
            "bufferView" : 2,
            "componentType" : 5126,
            "count" : 5011,
            "type" : "VEC2"
        },
        {
            "bufferView" : 3,
            "componentType" : 5123,
            "count" : 29856,
            "type" : "SCALAR"
        },
        {
            "bufferView" : 5,
            "componentType" : 5126,
            "count" : 752,
            "max" : [
                1.2953357696533203,
                7.90000057220459,
                17.240537643432617
            ],
            "min" : [
                2.8697024390567094e-05,
                -1.8999989032745361,
                -19.159460067749023
            ],
            "type" : "VEC3"
        },
        {
            "bufferView" : 6,
            "componentType" : 5126,
            "count" : 752,
            "type" : "VEC3"
        },
        {
            "bufferView" : 7,
            "componentType" : 5126,
            "count" : 752,
            "type" : "VEC2"
        },
        {
            "bufferView" : 8,
            "componentType" : 5123,
            "count" : 1680,
            "type" : "SCALAR"
        }
    ],
    "bufferViews" : [
        {
            "buffer" : 0,
            "byteLength" : 60132,
            "byteOffset" : 0
        },
        {
            "buffer" : 0,
            "byteLength" : 60132,
            "byteOffset" : 60132
        },
        {
            "buffer" : 0,
            "byteLength" : 40088,
            "byteOffset" : 120264
        },
        {
            "buffer" : 0,
            "byteLength" : 59712,
            "byteOffset" : 160352
        },
        {
            "buffer" : 0,
            "byteLength" : 11997,
            "byteOffset" : 220064
        },
        {
            "buffer" : 0,
            "byteLength" : 9024,
            "byteOffset" : 232064
        },
        {
            "buffer" : 0,
            "byteLength" : 9024,
            "byteOffset" : 241088
        },
        {
            "buffer" : 0,
            "byteLength" : 6016,
            "byteOffset" : 250112
        },
        {
            "buffer" : 0,
            "byteLength" : 3360,
            "byteOffset" : 256128
        }
    ],
    "samplers" : [
        {
            "magFilter" : 9729,
            "minFilter" : 9987
        }
    ],
    "buffers" : [
        {
            "byteLength" : 259488,
            "uri" : "data:application/octet-stream;base64,"
        }
    ]
}
