{
    "asset" : {
        "copyright" : "Jeremy Edelblut",
        "generator" : "Khronos glTF Blender I/O v1.7.33",
        "version" : "2.0"
    },
    "scene" : 0,
    "scenes" : [
        {
            "name" : "Scene",
            "nodes" : [
                0,
                1
            ]
        }
    ],
    "nodes" : [
        {
            "mesh" : 0,
            "name" : "Sphere.025",
            "rotation" : [
                0,
                -0.7071068286895752,
                0,
                0.7071067094802856
            ],
            "scale" : [
                0.6393058896064758,
                0.6393058896064758,
                0.6393058896064758
            ],
            "translation" : [
                0,
                -0.007019435055553913,
                0
            ]
        },
        {
            "mesh" : 1,
            "name" : "3moji.org.043",
            "rotation" : [
                0.5110037922859192,
                0.4726942181587219,
                -0.47662168741226196,
                -0.5369052290916443
            ],
            "scale" : [
                0.0021303114481270313,
                0.002130311680957675,
                0.0021303107496351004
            ],
            "translation" : [
                -0.6331126689910889,
                -0.9659339189529419,
                -0.030196450650691986
            ]
        }
    ],
    "materials" : [
        {
            "doubleSided" : true,
            "name" : "color",
            "pbrMetallicRoughness" : {
                "baseColorTexture" : {
                    "index" : 0
                },
                "metallicFactor" : 0,
                "roughnessFactor" : 0.5
            }
        }
    ],
    "meshes" : [
        {
            "name" : "Sphere.025",
            "primitives" : [
                {
                    "attributes" : {
                        "POSITION" : 0,
                        "NORMAL" : 1,
                        "TEXCOORD_0" : 2
                    },
                    "indices" : 3,
                    "material" : 0
                }
            ]
        },
        {
            "name" : "Cube.346",
            "primitives" : [
                {
                    "attributes" : {
                        "POSITION" : 4,
                        "NORMAL" : 5,
                        "TEXCOORD_0" : 6
                    },
                    "indices" : 7,
                    "material" : 0
                }
            ]
        }
    ],
    "textures" : [
        {
            "sampler" : 0,
            "source" : 0
        }
    ],
    "images" : [
        {
            "bufferView" : 4,
            "mimeType" : "image/png",
            "name" : "tex"
        }
    ],
    "accessors" : [
        {
            "bufferView" : 0,
            "componentType" : 5126,
            "count" : 1610,
            "max" : [
                0.30966049432754517,
                1.6748805046081543,
                1.8178651332855225
            ],
            "min" : [
                -0.5020787119865417,
                -1.5332200527191162,
                -1.8178651332855225
            ],
            "type" : "VEC3"
        },
        {
            "bufferView" : 1,
            "componentType" : 5126,
            "count" : 1610,
            "type" : "VEC3"
        },
        {
            "bufferView" : 2,
            "componentType" : 5126,
            "count" : 1610,
            "type" : "VEC2"
        },
        {
            "bufferView" : 3,
            "componentType" : 5123,
            "count" : 7926,
            "type" : "SCALAR"
        },
        {
            "bufferView" : 5,
            "componentType" : 5126,
            "count" : 752,
            "max" : [
                1.2953357696533203,
                7.90000057220459,
                17.240537643432617
            ],
            "min" : [
                2.8697024390567094e-05,
                -1.8999989032745361,
                -19.159460067749023
            ],
            "type" : "VEC3"
        },
        {
            "bufferView" : 6,
            "componentType" : 5126,
            "count" : 752,
            "type" : "VEC3"
        },
        {
            "bufferView" : 7,
            "componentType" : 5126,
            "count" : 752,
            "type" : "VEC2"
        },
        {
            "bufferView" : 8,
            "componentType" : 5123,
            "count" : 1680,
            "type" : "SCALAR"
        }
    ],
    "bufferViews" : [
        {
            "buffer" : 0,
            "byteLength" : 19320,
            "byteOffset" : 0
        },
        {
            "buffer" : 0,
            "byteLength" : 19320,
            "byteOffset" : 19320
        },
        {
            "buffer" : 0,
            "byteLength" : 12880,
            "byteOffset" : 38640
        },
        {
            "buffer" : 0,
            "byteLength" : 15852,
            "byteOffset" : 51520
        },
        {
            "buffer" : 0,
            "byteLength" : 11997,
            "byteOffset" : 67372
        },
        {
            "buffer" : 0,
            "byteLength" : 9024,
            "byteOffset" : 79372
        },
        {
            "buffer" : 0,
            "byteLength" : 9024,
            "byteOffset" : 88396
        },
        {
            "buffer" : 0,
            "byteLength" : 6016,
            "byteOffset" : 97420
        },
        {
            "buffer" : 0,
            "byteLength" : 3360,
            "byteOffset" : 103436
        }
    ],
    "samplers" : [
        {
            "magFilter" : 9729,
            "minFilter" : 9987
        }
    ],
    "buffers" : [
        {
            "byteLength" : 106796,
            "uri" : "data:application/octet-stream;base64,"
        }
    ]
}
