{
    "asset" : {
        "copyright" : "Jeremy Edelblut",
        "generator" : "Khronos glTF Blender I/O v1.7.33",
        "version" : "2.0"
    },
    "scene" : 2,
    "scenes" : [
        {
            "name" : "FBX_Temp",
            "nodes" : [
                0
            ]
        },
        {
            "name" : "FBX_Temp.001",
            "nodes" : [
                1
            ]
        },
        {
            "name" : "Scene",
            "nodes" : [
                2,
                3,
                4,
                5
            ]
        }
    ],
    "nodes" : [
        {
            "mesh" : 0,
            "name" : "3moji.064",
            "rotation" : [
                0,
                -0.7071068286895752,
                0,
                0.7071068286895752
            ]
        },
        {
            "mesh" : 1,
            "name" : "3moji.org.002",
            "rotation" : [
                -0.5,
                0.5,
                -0.4999999701976776,
                0.5
            ],
            "scale" : [
                0.010577797889709473,
                0.010577797889709473,
                0.010577797889709473
            ],
            "translation" : [
                0.007795508019626141,
                -0.920851469039917,
                0
            ]
        },
        {
            "mesh" : 2,
            "name" : "Circle.1911"
        },
        {
            "mesh" : 3,
            "name" : "Cube.6239"
        },
        {
            "mesh" : 4,
            "name" : "Plane.134"
        },
        {
            "mesh" : 5,
            "name" : "Plane.135"
        }
    ],
    "materials" : [
        {
            "doubleSided" : true,
            "name" : "color",
            "pbrMetallicRoughness" : {
                "baseColorTexture" : {
                    "index" : 0
                },
                "metallicFactor" : 0,
                "roughnessFactor" : 0.5
            }
        }
    ],
    "meshes" : [
        {
            "name" : "Cube.417",
            "primitives" : [
                {
                    "attributes" : {
                        "POSITION" : 0,
                        "NORMAL" : 1,
                        "TEXCOORD_0" : 2
                    },
                    "indices" : 3,
                    "material" : 0
                }
            ]
        },
        {
            "name" : "Cube.056",
            "primitives" : [
                {
                    "attributes" : {
                        "POSITION" : 4,
                        "NORMAL" : 5,
                        "TEXCOORD_0" : 6
                    },
                    "indices" : 7
                }
            ]
        },
        {
            "name" : "Circle.2127",
            "primitives" : [
                {
                    "attributes" : {
                        "POSITION" : 8,
                        "NORMAL" : 9,
                        "TEXCOORD_0" : 10
                    },
                    "indices" : 11,
                    "material" : 0
                }
            ]
        },
        {
            "name" : "Cube.7297",
            "primitives" : [
                {
                    "attributes" : {
                        "POSITION" : 12,
                        "NORMAL" : 13,
                        "TEXCOORD_0" : 14
                    },
                    "indices" : 15,
                    "material" : 0
                }
            ]
        },
        {
            "name" : "Plane.134",
            "primitives" : [
                {
                    "attributes" : {
                        "POSITION" : 16,
                        "NORMAL" : 17,
                        "TEXCOORD_0" : 18
                    },
                    "indices" : 19,
                    "material" : 0
                }
            ]
        },
        {
            "name" : "Plane.135",
            "primitives" : [
                {
                    "attributes" : {
                        "POSITION" : 20,
                        "NORMAL" : 21,
                        "TEXCOORD_0" : 22
                    },
                    "indices" : 23,
                    "material" : 0
                }
            ]
        }
    ],
    "textures" : [
        {
            "sampler" : 0,
            "source" : 0
        }
    ],
    "images" : [
        {
            "bufferView" : 4,
            "mimeType" : "image/png",
            "name" : "tex"
        }
    ],
    "accessors" : [
        {
            "bufferView" : 0,
            "componentType" : 5126,
            "count" : 752,
            "max" : [
                -0.8264395594596863,
                0.05719918757677078,
                0.13795676827430725
            ],
            "min" : [
                -0.8543609976768494,
                -0.014034310355782509,
                -0.12436223030090332
            ],
            "type" : "VEC3"
        },
        {
            "bufferView" : 1,
            "componentType" : 5126,
            "count" : 752,
            "type" : "VEC3"
        },
        {
            "bufferView" : 2,
            "componentType" : 5126,
            "count" : 752,
            "type" : "VEC2"
        },
        {
            "bufferView" : 3,
            "componentType" : 5123,
            "count" : 1680,
            "type" : "SCALAR"
        },
        {
            "bufferView" : 5,
            "componentType" : 5126,
            "count" : 752,
            "max" : [
                2.8738752007484436e-05,
                7.90000057220459,
                17.240537643432617
            ],
            "min" : [
                -2.0099713802337646,
                -1.8999989032745361,
                -19.159460067749023
            ],
            "type" : "VEC3"
        },
        {
            "bufferView" : 6,
            "componentType" : 5126,
            "count" : 752,
            "type" : "VEC3"
        },
        {
            "bufferView" : 7,
            "componentType" : 5126,
            "count" : 752,
            "type" : "VEC2"
        },
        {
            "bufferView" : 8,
            "componentType" : 5123,
            "count" : 1680,
            "type" : "SCALAR"
        },
        {
            "bufferView" : 9,
            "componentType" : 5126,
            "count" : 648,
            "max" : [
                -0.24296362698078156,
                0.44649210572242737,
                0.7073090672492981
            ],
            "min" : [
                -0.70644211769104,
                0.3669717311859131,
                0.2438315600156784
            ],
            "type" : "VEC3"
        },
        {
            "bufferView" : 10,
            "componentType" : 5126,
            "count" : 648,
            "type" : "VEC3"
        },
        {
            "bufferView" : 11,
            "componentType" : 5126,
            "count" : 648,
            "type" : "VEC2"
        },
        {
            "bufferView" : 12,
            "componentType" : 5123,
            "count" : 2880,
            "type" : "SCALAR"
        },
        {
            "bufferView" : 13,
            "componentType" : 5126,
            "count" : 192,
            "max" : [
                -0.2825027406215668,
                0.11195165663957596,
                1.0623928308486938
            ],
            "min" : [
                -1.0615252256393433,
                -0.27456772327423096,
                0.2833704650402069
            ],
            "type" : "VEC3"
        },
        {
            "bufferView" : 14,
            "componentType" : 5126,
            "count" : 192,
            "type" : "VEC3"
        },
        {
            "bufferView" : 15,
            "componentType" : 5126,
            "count" : 192,
            "type" : "VEC2"
        },
        {
            "bufferView" : 16,
            "componentType" : 5123,
            "count" : 504,
            "type" : "SCALAR"
        },
        {
            "bufferView" : 17,
            "componentType" : 5126,
            "count" : 1424,
            "max" : [
                1.2989897727966309,
                0.8770644664764404,
                0.8844850063323975
            ],
            "min" : [
                -0.8836172819137573,
                -0.9368492960929871,
                -1.2981219291687012
            ],
            "type" : "VEC3"
        },
        {
            "bufferView" : 18,
            "componentType" : 5126,
            "count" : 1424,
            "type" : "VEC3"
        },
        {
            "bufferView" : 19,
            "componentType" : 5126,
            "count" : 1424,
            "type" : "VEC2"
        },
        {
            "bufferView" : 20,
            "componentType" : 5123,
            "count" : 3990,
            "type" : "SCALAR"
        },
        {
            "bufferView" : 21,
            "componentType" : 5126,
            "count" : 204,
            "max" : [
                0.252267062664032,
                0.7919467687606812,
                0.5703871250152588
            ],
            "min" : [
                -0.5695194005966187,
                0.1910434514284134,
                -0.25139936804771423
            ],
            "type" : "VEC3"
        },
        {
            "bufferView" : 22,
            "componentType" : 5126,
            "count" : 204,
            "type" : "VEC3"
        },
        {
            "bufferView" : 23,
            "componentType" : 5126,
            "count" : 204,
            "type" : "VEC2"
        },
        {
            "bufferView" : 24,
            "componentType" : 5123,
            "count" : 696,
            "type" : "SCALAR"
        }
    ],
    "bufferViews" : [
        {
            "buffer" : 0,
            "byteLength" : 9024,
            "byteOffset" : 0
        },
        {
            "buffer" : 0,
            "byteLength" : 9024,
            "byteOffset" : 9024
        },
        {
            "buffer" : 0,
            "byteLength" : 6016,
            "byteOffset" : 18048
        },
        {
            "buffer" : 0,
            "byteLength" : 3360,
            "byteOffset" : 24064
        },
        {
            "buffer" : 0,
            "byteLength" : 11997,
            "byteOffset" : 27424
        },
        {
            "buffer" : 0,
            "byteLength" : 9024,
            "byteOffset" : 39424
        },
        {
            "buffer" : 0,
            "byteLength" : 9024,
            "byteOffset" : 48448
        },
        {
            "buffer" : 0,
            "byteLength" : 6016,
            "byteOffset" : 57472
        },
        {
            "buffer" : 0,
            "byteLength" : 3360,
            "byteOffset" : 63488
        },
        {
            "buffer" : 0,
            "byteLength" : 7776,
            "byteOffset" : 66848
        },
        {
            "buffer" : 0,
            "byteLength" : 7776,
            "byteOffset" : 74624
        },
        {
            "buffer" : 0,
            "byteLength" : 5184,
            "byteOffset" : 82400
        },
        {
            "buffer" : 0,
            "byteLength" : 5760,
            "byteOffset" : 87584
        },
        {
            "buffer" : 0,
            "byteLength" : 2304,
            "byteOffset" : 93344
        },
        {
            "buffer" : 0,
            "byteLength" : 2304,
            "byteOffset" : 95648
        },
        {
            "buffer" : 0,
            "byteLength" : 1536,
            "byteOffset" : 97952
        },
        {
            "buffer" : 0,
            "byteLength" : 1008,
            "byteOffset" : 99488
        },
        {
            "buffer" : 0,
            "byteLength" : 17088,
            "byteOffset" : 100496
        },
        {
            "buffer" : 0,
            "byteLength" : 17088,
            "byteOffset" : 117584
        },
        {
            "buffer" : 0,
            "byteLength" : 11392,
            "byteOffset" : 134672
        },
        {
            "buffer" : 0,
            "byteLength" : 7980,
            "byteOffset" : 146064
        },
        {
            "buffer" : 0,
            "byteLength" : 2448,
            "byteOffset" : 154044
        },
        {
            "buffer" : 0,
            "byteLength" : 2448,
            "byteOffset" : 156492
        },
        {
            "buffer" : 0,
            "byteLength" : 1632,
            "byteOffset" : 158940
        },
        {
            "buffer" : 0,
            "byteLength" : 1392,
            "byteOffset" : 160572
        }
    ],
    "samplers" : [
        {
            "magFilter" : 9729,
            "minFilter" : 9987
        }
    ],
    "buffers" : [
        {
            "byteLength" : 161964,
            "uri" : "data:application/octet-stream;base64,"
        }
    ]
}
