{
    "asset" : {
        "copyright" : "Jeremy Edelblut",
        "generator" : "Khronos glTF Blender I/O v1.6.16",
        "version" : "2.0"
    },
    "scene" : 0,
    "scenes" : [
        {
            "name" : "Scene",
            "nodes" : [
                0,
                1,
                2,
                3,
                4
            ]
        }
    ],
    "nodes" : [
        {
            "mesh" : 0,
            "name" : "Circle.1911",
            "rotation" : [
                0.653281569480896,
                -0.270597904920578,
                0.2705979347229004,
                0.6532815098762512
            ],
            "scale" : [
                0.38073307275772095,
                0.38073307275772095,
                0.38073307275772095
            ],
            "translation" : [
                -0.6168196201324463,
                0.4870370626449585,
                0.7448858618736267
            ]
        },
        {
            "mesh" : 1,
            "name" : "Cube.6239",
            "rotation" : [
                0,
                -0.3826834559440613,
                0,
                0.9238795042037964
            ],
            "scale" : [
                0.6345551609992981,
                0.6345551609992981,
                0.6345551609992981
            ],
            "translation" : [
                0.32118847966194153,
                0,
                -0.1931220442056656
            ]
        },
        {
            "mesh" : 2,
            "name" : "Plane.134",
            "rotation" : [
                0,
                -0.3826834559440613,
                0,
                0.9238795042037964
            ],
            "scale" : [
                0.6345551609992981,
                0.6345551609992981,
                0.6345551609992981
            ],
            "translation" : [
                0.32118847966194153,
                0,
                -0.1931220442056656
            ]
        },
        {
            "mesh" : 3,
            "name" : "Plane.135",
            "rotation" : [
                0,
                -0.3826834559440613,
                0,
                0.9238795042037964
            ],
            "scale" : [
                0.6345551609992981,
                0.6345551609992981,
                0.6345551609992981
            ],
            "translation" : [
                0.32118847966194153,
                0,
                -0.1931220442056656
            ]
        },
        {
            "mesh" : 4,
            "name" : "3moji.org.224",
            "rotation" : [
                -0.27318328619003296,
                0.2679874300956726,
                -0.659524142742157,
                0.6469787955284119
            ],
            "scale" : [
                0.0025184431578963995,
                0.0025184431578963995,
                0.002518444089218974
            ],
            "translation" : [
                0.32664576172828674,
                -0.5126804113388062,
                -0.19639939069747925
            ]
        }
    ],
    "materials" : [
        {
            "doubleSided" : true,
            "name" : "DKBrown",
            "pbrMetallicRoughness" : {
                "baseColorFactor" : [
                    0.010021701455116272,
                    0.0023923655971884727,
                    0.0018060366855934262,
                    1
                ],
                "metallicFactor" : 0,
                "roughnessFactor" : 0.5
            }
        },
        {
            "doubleSided" : true,
            "name" : "Brown",
            "pbrMetallicRoughness" : {
                "baseColorFactor" : [
                    0.07322511821985245,
                    0.02384052984416485,
                    0.021921303123235703,
                    1
                ],
                "metallicFactor" : 0,
                "roughnessFactor" : 0.5
            }
        },
        {
            "doubleSided" : true,
            "name" : "Color",
            "pbrMetallicRoughness" : {
                "baseColorTexture" : {
                    "index" : 0
                },
                "metallicFactor" : 0,
                "roughnessFactor" : 0.5
            }
        }
    ],
    "meshes" : [
        {
            "name" : "Circle.2127",
            "primitives" : [
                {
                    "attributes" : {
                        "POSITION" : 0,
                        "NORMAL" : 1,
                        "TEXCOORD_0" : 2
                    },
                    "indices" : 3,
                    "material" : 0
                }
            ]
        },
        {
            "name" : "Cube.7297",
            "primitives" : [
                {
                    "attributes" : {
                        "POSITION" : 4,
                        "NORMAL" : 5,
                        "TEXCOORD_0" : 6
                    },
                    "indices" : 7
                }
            ]
        },
        {
            "name" : "Plane.134",
            "primitives" : [
                {
                    "attributes" : {
                        "POSITION" : 8,
                        "NORMAL" : 9,
                        "TEXCOORD_0" : 10
                    },
                    "indices" : 11,
                    "material" : 1
                }
            ]
        },
        {
            "name" : "Plane.135",
            "primitives" : [
                {
                    "attributes" : {
                        "POSITION" : 12,
                        "NORMAL" : 13,
                        "TEXCOORD_0" : 14
                    },
                    "indices" : 15,
                    "material" : 1
                }
            ]
        },
        {
            "name" : "Cube.686",
            "primitives" : [
                {
                    "attributes" : {
                        "POSITION" : 16,
                        "NORMAL" : 17,
                        "TEXCOORD_0" : 18
                    },
                    "indices" : 19,
                    "material" : 2
                }
            ]
        }
    ],
    "textures" : [
        {
            "sampler" : 0,
            "source" : 0
        }
    ],
    "images" : [
        {
            "bufferView" : 20,
            "mimeType" : "image/png",
            "name" : "tex2"
        }
    ],
    "accessors" : [
        {
            "bufferView" : 0,
            "componentType" : 5126,
            "count" : 752,
            "max" : [
                0.7401034832000732,
                -0.43973755836486816,
                0.31535303592681885
            ],
            "min" : [
                -0.7401034832000732,
                -0.6160388588905334,
                0.10649214684963226
            ],
            "type" : "VEC3"
        },
        {
            "bufferView" : 1,
            "componentType" : 5126,
            "count" : 752,
            "type" : "VEC3"
        },
        {
            "bufferView" : 2,
            "componentType" : 5126,
            "count" : 752,
            "type" : "VEC2"
        },
        {
            "bufferView" : 3,
            "componentType" : 5123,
            "count" : 2880,
            "type" : "SCALAR"
        },
        {
            "bufferView" : 4,
            "componentType" : 5126,
            "count" : 192,
            "max" : [
                0.5159925222396851,
                0.17642541229724884,
                2.5794756412506104
            ],
            "min" : [
                -0.5159925222396851,
                -0.4326932430267334,
                1.7052602767944336
            ],
            "type" : "VEC3"
        },
        {
            "bufferView" : 5,
            "componentType" : 5126,
            "count" : 192,
            "type" : "VEC3"
        },
        {
            "bufferView" : 6,
            "componentType" : 5126,
            "count" : 192,
            "type" : "VEC2"
        },
        {
            "bufferView" : 7,
            "componentType" : 5123,
            "count" : 504,
            "type" : "SCALAR"
        },
        {
            "bufferView" : 8,
            "componentType" : 5126,
            "count" : 574,
            "max" : [
                0.64000004529953,
                1.3821721076965332,
                2.2559456825256348
            ],
            "min" : [
                -0.64000004529953,
                -1.4763875007629395,
                -1.705137014389038
            ],
            "type" : "VEC3"
        },
        {
            "bufferView" : 9,
            "componentType" : 5126,
            "count" : 574,
            "type" : "VEC3"
        },
        {
            "bufferView" : 10,
            "componentType" : 5126,
            "count" : 574,
            "type" : "VEC2"
        },
        {
            "bufferView" : 11,
            "componentType" : 5123,
            "count" : 1764,
            "type" : "SCALAR"
        },
        {
            "bufferView" : 12,
            "componentType" : 5126,
            "count" : 204,
            "max" : [
                0.7828475832939148,
                1.2480345964431763,
                1.527227759361267
            ],
            "min" : [
                -0.7828475832939148,
                0.30106672644615173,
                0.9118848443031311
            ],
            "type" : "VEC3"
        },
        {
            "bufferView" : 13,
            "componentType" : 5126,
            "count" : 204,
            "type" : "VEC3"
        },
        {
            "bufferView" : 14,
            "componentType" : 5126,
            "count" : 204,
            "type" : "VEC2"
        },
        {
            "bufferView" : 15,
            "componentType" : 5123,
            "count" : 696,
            "type" : "SCALAR"
        },
        {
            "bufferView" : 16,
            "componentType" : 5126,
            "count" : 752,
            "max" : [
                1.2953357696533203,
                7.90000057220459,
                17.240537643432617
            ],
            "min" : [
                2.8697024390567094e-05,
                -1.8999989032745361,
                -19.159460067749023
            ],
            "type" : "VEC3"
        },
        {
            "bufferView" : 17,
            "componentType" : 5126,
            "count" : 752,
            "type" : "VEC3"
        },
        {
            "bufferView" : 18,
            "componentType" : 5126,
            "count" : 752,
            "type" : "VEC2"
        },
        {
            "bufferView" : 19,
            "componentType" : 5123,
            "count" : 1680,
            "type" : "SCALAR"
        }
    ],
    "bufferViews" : [
        {
            "buffer" : 0,
            "byteLength" : 9024,
            "byteOffset" : 0
        },
        {
            "buffer" : 0,
            "byteLength" : 9024,
            "byteOffset" : 9024
        },
        {
            "buffer" : 0,
            "byteLength" : 6016,
            "byteOffset" : 18048
        },
        {
            "buffer" : 0,
            "byteLength" : 5760,
            "byteOffset" : 24064
        },
        {
            "buffer" : 0,
            "byteLength" : 2304,
            "byteOffset" : 29824
        },
        {
            "buffer" : 0,
            "byteLength" : 2304,
            "byteOffset" : 32128
        },
        {
            "buffer" : 0,
            "byteLength" : 1536,
            "byteOffset" : 34432
        },
        {
            "buffer" : 0,
            "byteLength" : 1008,
            "byteOffset" : 35968
        },
        {
            "buffer" : 0,
            "byteLength" : 6888,
            "byteOffset" : 36976
        },
        {
            "buffer" : 0,
            "byteLength" : 6888,
            "byteOffset" : 43864
        },
        {
            "buffer" : 0,
            "byteLength" : 4592,
            "byteOffset" : 50752
        },
        {
            "buffer" : 0,
            "byteLength" : 3528,
            "byteOffset" : 55344
        },
        {
            "buffer" : 0,
            "byteLength" : 2448,
            "byteOffset" : 58872
        },
        {
            "buffer" : 0,
            "byteLength" : 2448,
            "byteOffset" : 61320
        },
        {
            "buffer" : 0,
            "byteLength" : 1632,
            "byteOffset" : 63768
        },
        {
            "buffer" : 0,
            "byteLength" : 1392,
            "byteOffset" : 65400
        },
        {
            "buffer" : 0,
            "byteLength" : 9024,
            "byteOffset" : 66792
        },
        {
            "buffer" : 0,
            "byteLength" : 9024,
            "byteOffset" : 75816
        },
        {
            "buffer" : 0,
            "byteLength" : 6016,
            "byteOffset" : 84840
        },
        {
            "buffer" : 0,
            "byteLength" : 3360,
            "byteOffset" : 90856
        },
        {
            "buffer" : 0,
            "byteLength" : 6474,
            "byteOffset" : 94216
        }
    ],
    "samplers" : [
        {
            "magFilter" : 9729,
            "minFilter" : 9987
        }
    ],
    "buffers" : [
        {
            "byteLength" : 100692,
            "uri" : "data:application/octet-stream;base64,"
        }
    ]
}
