{
    "asset" : {
        "copyright" : "Jeremy Edelblut",
        "generator" : "Khronos glTF Blender I/O v1.6.16",
        "version" : "2.0"
    },
    "scene" : 0,
    "scenes" : [
        {
            "name" : "Scene",
            "nodes" : [
                0,
                1,
                2,
                3,
                4,
                5,
                6
            ]
        }
    ],
    "nodes" : [
        {
            "mesh" : 0,
            "name" : "Circle.307",
            "rotation" : [
                0.7071068286895752,
                0,
                0,
                0.7071068286895752
            ]
        },
        {
            "mesh" : 1,
            "name" : "Circle.308",
            "rotation" : [
                0.7071068286895752,
                0,
                0,
                0.7071068286895752
            ]
        },
        {
            "mesh" : 2,
            "name" : "Cylinder.017",
            "rotation" : [
                0,
                -0.7071068286895752,
                0,
                0.7071068286895752
            ]
        },
        {
            "mesh" : 3,
            "name" : "Roundcube.008",
            "rotation" : [
                0,
                -0.7071068286895752,
                0,
                0.7071068286895752
            ]
        },
        {
            "mesh" : 4,
            "name" : "Circle.309",
            "rotation" : [
                0.7071068286895752,
                0,
                0,
                0.7071068286895752
            ]
        },
        {
            "mesh" : 5,
            "name" : "Cube.257",
            "rotation" : [
                0.15383964776992798,
                -0.7492061257362366,
                -0.09783472120761871,
                0.636751115322113
            ]
        },
        {
            "mesh" : 6,
            "name" : "Circle.310",
            "rotation" : [
                0.7071068286895752,
                0,
                0,
                0.7071068286895752
            ]
        }
    ],
    "materials" : [
        {
            "doubleSided" : true,
            "name" : "Color",
            "pbrMetallicRoughness" : {
                "baseColorTexture" : {
                    "index" : 0
                },
                "metallicFactor" : 0,
                "roughnessFactor" : 0.5
            }
        },
        {
            "doubleSided" : true,
            "name" : "Yellow_body",
            "pbrMetallicRoughness" : {
                "baseColorTexture" : {
                    "index" : 1
                },
                "metallicFactor" : 0,
                "roughnessFactor" : 0.5
            }
        }
    ],
    "meshes" : [
        {
            "name" : "Circle.340",
            "primitives" : [
                {
                    "attributes" : {
                        "POSITION" : 0,
                        "NORMAL" : 1,
                        "TEXCOORD_0" : 2
                    },
                    "indices" : 3,
                    "material" : 0
                }
            ]
        },
        {
            "name" : "Circle.341",
            "primitives" : [
                {
                    "attributes" : {
                        "POSITION" : 4,
                        "NORMAL" : 5,
                        "TEXCOORD_0" : 6
                    },
                    "indices" : 7,
                    "material" : 0
                }
            ]
        },
        {
            "name" : "Cylinder.017",
            "primitives" : [
                {
                    "attributes" : {
                        "POSITION" : 8,
                        "NORMAL" : 9,
                        "TEXCOORD_0" : 10
                    },
                    "indices" : 11,
                    "material" : 1
                }
            ]
        },
        {
            "name" : "Roundcube.008",
            "primitives" : [
                {
                    "attributes" : {
                        "POSITION" : 12,
                        "NORMAL" : 13,
                        "TEXCOORD_0" : 14
                    },
                    "indices" : 15,
                    "material" : 1
                },
                {
                    "attributes" : {
                        "POSITION" : 16,
                        "NORMAL" : 17,
                        "TEXCOORD_0" : 18
                    },
                    "indices" : 19,
                    "material" : 0
                }
            ]
        },
        {
            "name" : "Circle.342",
            "primitives" : [
                {
                    "attributes" : {
                        "POSITION" : 20,
                        "NORMAL" : 21,
                        "TEXCOORD_0" : 22
                    },
                    "indices" : 23,
                    "material" : 0
                }
            ]
        },
        {
            "name" : "Cube.416",
            "primitives" : [
                {
                    "attributes" : {
                        "POSITION" : 24,
                        "NORMAL" : 25,
                        "TEXCOORD_0" : 26
                    },
                    "indices" : 27,
                    "material" : 0
                }
            ]
        },
        {
            "name" : "Circle.343",
            "primitives" : [
                {
                    "attributes" : {
                        "POSITION" : 28,
                        "NORMAL" : 29,
                        "TEXCOORD_0" : 30
                    },
                    "indices" : 31,
                    "material" : 0
                }
            ]
        }
    ],
    "textures" : [
        {
            "sampler" : 0,
            "source" : 0
        },
        {
            "sampler" : 0,
            "source" : 1
        }
    ],
    "images" : [
        {
            "bufferView" : 4,
            "mimeType" : "image/png",
            "name" : "tex2"
        },
        {
            "bufferView" : 13,
            "mimeType" : "image/png",
            "name" : "Rectangle 863"
        }
    ],
    "accessors" : [
        {
            "bufferView" : 0,
            "componentType" : 5126,
            "count" : 452,
            "max" : [
                0.348141074180603,
                0.5690951943397522,
                0.09765947610139847
            ],
            "min" : [
                -0.348141074180603,
                0.4844588041305542,
                -0.146637961268425
            ],
            "type" : "VEC3"
        },
        {
            "bufferView" : 1,
            "componentType" : 5126,
            "count" : 452,
            "type" : "VEC3"
        },
        {
            "bufferView" : 2,
            "componentType" : 5126,
            "count" : 452,
            "type" : "VEC2"
        },
        {
            "bufferView" : 3,
            "componentType" : 5123,
            "count" : 1920,
            "type" : "SCALAR"
        },
        {
            "bufferView" : 5,
            "componentType" : 5126,
            "count" : 422,
            "max" : [
                0.06737051904201508,
                0.5839709639549255,
                0.1858864277601242
            ],
            "min" : [
                -0.06535334140062332,
                0.565479040145874,
                0.10954384505748749
            ],
            "type" : "VEC3"
        },
        {
            "bufferView" : 6,
            "componentType" : 5126,
            "count" : 422,
            "type" : "VEC3"
        },
        {
            "bufferView" : 7,
            "componentType" : 5126,
            "count" : 422,
            "type" : "VEC2"
        },
        {
            "bufferView" : 8,
            "componentType" : 5123,
            "count" : 1824,
            "type" : "SCALAR"
        },
        {
            "bufferView" : 9,
            "componentType" : 5126,
            "count" : 1924,
            "max" : [
                -0.10417234152555466,
                0.22172515094280243,
                0.8814765810966492
            ],
            "min" : [
                -0.3718266487121582,
                -0.23378244042396545,
                -0.8814765810966492
            ],
            "type" : "VEC3"
        },
        {
            "bufferView" : 10,
            "componentType" : 5126,
            "count" : 1924,
            "type" : "VEC3"
        },
        {
            "bufferView" : 11,
            "componentType" : 5126,
            "count" : 1924,
            "type" : "VEC2"
        },
        {
            "bufferView" : 12,
            "componentType" : 5123,
            "count" : 11520,
            "type" : "SCALAR"
        },
        {
            "bufferView" : 14,
            "componentType" : 5126,
            "count" : 1690,
            "max" : [
                0.5776225328445435,
                0.6220785975456238,
                0.7213840484619141
            ],
            "min" : [
                -0.8452762961387634,
                -0.8208202719688416,
                -0.7119784355163574
            ],
            "type" : "VEC3"
        },
        {
            "bufferView" : 15,
            "componentType" : 5126,
            "count" : 1690,
            "type" : "VEC3"
        },
        {
            "bufferView" : 16,
            "componentType" : 5126,
            "count" : 1690,
            "type" : "VEC2"
        },
        {
            "bufferView" : 17,
            "componentType" : 5123,
            "count" : 5742,
            "type" : "SCALAR"
        },
        {
            "bufferView" : 18,
            "componentType" : 5126,
            "count" : 466,
            "max" : [
                0.492600679397583,
                0.7037864327430725,
                0.7166613936424255
            ],
            "min" : [
                -0.9389863014221191,
                -0.42757448554039,
                -0.7072557806968689
            ],
            "type" : "VEC3"
        },
        {
            "bufferView" : 19,
            "componentType" : 5126,
            "count" : 466,
            "type" : "VEC3"
        },
        {
            "bufferView" : 20,
            "componentType" : 5126,
            "count" : 466,
            "type" : "VEC2"
        },
        {
            "bufferView" : 21,
            "componentType" : 5123,
            "count" : 2472,
            "type" : "SCALAR"
        },
        {
            "bufferView" : 22,
            "componentType" : 5126,
            "count" : 320,
            "max" : [
                0.4167460501194,
                0.5598474144935608,
                -0.15347467362880707
            ],
            "min" : [
                -0.4167460501194,
                0.40108904242515564,
                -0.2954291105270386
            ],
            "type" : "VEC3"
        },
        {
            "bufferView" : 23,
            "componentType" : 5126,
            "count" : 320,
            "type" : "VEC3"
        },
        {
            "bufferView" : 24,
            "componentType" : 5126,
            "count" : 320,
            "type" : "VEC2"
        },
        {
            "bufferView" : 25,
            "componentType" : 5123,
            "count" : 1152,
            "type" : "SCALAR"
        },
        {
            "bufferView" : 26,
            "componentType" : 5126,
            "count" : 1310,
            "max" : [
                0.5762525200843811,
                0.910300612449646,
                0.8175497055053711
            ],
            "min" : [
                -1.0516177415847778,
                -0.41564881801605225,
                -0.7442114949226379
            ],
            "type" : "VEC3"
        },
        {
            "bufferView" : 27,
            "componentType" : 5126,
            "count" : 1310,
            "type" : "VEC3"
        },
        {
            "bufferView" : 28,
            "componentType" : 5126,
            "count" : 1310,
            "type" : "VEC2"
        },
        {
            "bufferView" : 29,
            "componentType" : 5123,
            "count" : 3132,
            "type" : "SCALAR"
        },
        {
            "bufferView" : 30,
            "componentType" : 5126,
            "count" : 324,
            "max" : [
                0.31128332018852234,
                0.5789216160774231,
                0.32386910915374756
            ],
            "min" : [
                -0.31128332018852234,
                0.47469326853752136,
                0.18715310096740723
            ],
            "type" : "VEC3"
        },
        {
            "bufferView" : 31,
            "componentType" : 5126,
            "count" : 324,
            "type" : "VEC3"
        },
        {
            "bufferView" : 32,
            "componentType" : 5126,
            "count" : 324,
            "type" : "VEC2"
        },
        {
            "bufferView" : 33,
            "componentType" : 5123,
            "count" : 1152,
            "type" : "SCALAR"
        }
    ],
    "bufferViews" : [
        {
            "buffer" : 0,
            "byteLength" : 5424,
            "byteOffset" : 0
        },
        {
            "buffer" : 0,
            "byteLength" : 5424,
            "byteOffset" : 5424
        },
        {
            "buffer" : 0,
            "byteLength" : 3616,
            "byteOffset" : 10848
        },
        {
            "buffer" : 0,
            "byteLength" : 3840,
            "byteOffset" : 14464
        },
        {
            "buffer" : 0,
            "byteLength" : 6474,
            "byteOffset" : 18304
        },
        {
            "buffer" : 0,
            "byteLength" : 5064,
            "byteOffset" : 24780
        },
        {
            "buffer" : 0,
            "byteLength" : 5064,
            "byteOffset" : 29844
        },
        {
            "buffer" : 0,
            "byteLength" : 3376,
            "byteOffset" : 34908
        },
        {
            "buffer" : 0,
            "byteLength" : 3648,
            "byteOffset" : 38284
        },
        {
            "buffer" : 0,
            "byteLength" : 23088,
            "byteOffset" : 41932
        },
        {
            "buffer" : 0,
            "byteLength" : 23088,
            "byteOffset" : 65020
        },
        {
            "buffer" : 0,
            "byteLength" : 15392,
            "byteOffset" : 88108
        },
        {
            "buffer" : 0,
            "byteLength" : 23040,
            "byteOffset" : 103500
        },
        {
            "buffer" : 0,
            "byteLength" : 85292,
            "byteOffset" : 126540
        },
        {
            "buffer" : 0,
            "byteLength" : 20280,
            "byteOffset" : 211832
        },
        {
            "buffer" : 0,
            "byteLength" : 20280,
            "byteOffset" : 232112
        },
        {
            "buffer" : 0,
            "byteLength" : 13520,
            "byteOffset" : 252392
        },
        {
            "buffer" : 0,
            "byteLength" : 11484,
            "byteOffset" : 265912
        },
        {
            "buffer" : 0,
            "byteLength" : 5592,
            "byteOffset" : 277396
        },
        {
            "buffer" : 0,
            "byteLength" : 5592,
            "byteOffset" : 282988
        },
        {
            "buffer" : 0,
            "byteLength" : 3728,
            "byteOffset" : 288580
        },
        {
            "buffer" : 0,
            "byteLength" : 4944,
            "byteOffset" : 292308
        },
        {
            "buffer" : 0,
            "byteLength" : 3840,
            "byteOffset" : 297252
        },
        {
            "buffer" : 0,
            "byteLength" : 3840,
            "byteOffset" : 301092
        },
        {
            "buffer" : 0,
            "byteLength" : 2560,
            "byteOffset" : 304932
        },
        {
            "buffer" : 0,
            "byteLength" : 2304,
            "byteOffset" : 307492
        },
        {
            "buffer" : 0,
            "byteLength" : 15720,
            "byteOffset" : 309796
        },
        {
            "buffer" : 0,
            "byteLength" : 15720,
            "byteOffset" : 325516
        },
        {
            "buffer" : 0,
            "byteLength" : 10480,
            "byteOffset" : 341236
        },
        {
            "buffer" : 0,
            "byteLength" : 6264,
            "byteOffset" : 351716
        },
        {
            "buffer" : 0,
            "byteLength" : 3888,
            "byteOffset" : 357980
        },
        {
            "buffer" : 0,
            "byteLength" : 3888,
            "byteOffset" : 361868
        },
        {
            "buffer" : 0,
            "byteLength" : 2592,
            "byteOffset" : 365756
        },
        {
            "buffer" : 0,
            "byteLength" : 2304,
            "byteOffset" : 368348
        }
    ],
    "samplers" : [
        {
            "magFilter" : 9729,
            "minFilter" : 9987
        }
    ],
    "buffers" : [
        {
            "byteLength" : 370652,
            "uri" : "data:application/octet-stream;base64,"
        }
    ]
}
