{
    "asset" : {
        "copyright" : "Jeremy Edelblut",
        "generator" : "Khronos glTF Blender I/O v1.7.33",
        "version" : "2.0"
    },
    "extensionsUsed" : [
        "KHR_texture_transform"
    ],
    "extensionsRequired" : [
        "KHR_texture_transform"
    ],
    "scene" : 1,
    "scenes" : [
        {
            "name" : "FBX_Temp",
            "nodes" : [
                0
            ]
        },
        {
            "name" : "Scene",
            "nodes" : [
                1,
                2,
                3,
                4,
                5,
                6
            ]
        }
    ],
    "nodes" : [
        {
            "mesh" : 0,
            "name" : "3moji.064",
            "rotation" : [
                0,
                -0.7071068286895752,
                0,
                0.7071068286895752
            ]
        },
        {
            "mesh" : 1,
            "name" : "Circle.327"
        },
        {
            "mesh" : 2,
            "name" : "Circle.328"
        },
        {
            "mesh" : 3,
            "name" : "Roundcube.013"
        },
        {
            "mesh" : 4,
            "name" : "Circle.329"
        },
        {
            "mesh" : 5,
            "name" : "Circle.359"
        },
        {
            "mesh" : 6,
            "name" : "ears.014"
        }
    ],
    "materials" : [
        {
            "doubleSided" : true,
            "name" : "color",
            "pbrMetallicRoughness" : {
                "baseColorTexture" : {
                    "index" : 0
                },
                "metallicFactor" : 0,
                "roughnessFactor" : 0.5
            }
        },
        {
            "doubleSided" : true,
            "name" : "skin_tone_one",
            "pbrMetallicRoughness" : {
                "baseColorTexture" : {
                    "extensions" : {
                        "KHR_texture_transform" : {
                            "offset" : [
                                0.25,
                                0
                            ]
                        }
                    },
                    "index" : 1
                },
                "metallicFactor" : 0,
                "roughnessFactor" : 0.5
            }
        }
    ],
    "meshes" : [
        {
            "name" : "Cube.417",
            "primitives" : [
                {
                    "attributes" : {
                        "POSITION" : 0,
                        "NORMAL" : 1,
                        "TEXCOORD_0" : 2
                    },
                    "indices" : 3,
                    "material" : 0
                }
            ]
        },
        {
            "name" : "Circle.361",
            "primitives" : [
                {
                    "attributes" : {
                        "POSITION" : 4,
                        "NORMAL" : 5,
                        "TEXCOORD_0" : 6
                    },
                    "indices" : 7,
                    "material" : 0
                }
            ]
        },
        {
            "name" : "Circle.362",
            "primitives" : [
                {
                    "attributes" : {
                        "POSITION" : 8,
                        "NORMAL" : 9,
                        "TEXCOORD_0" : 10
                    },
                    "indices" : 11,
                    "material" : 1
                }
            ]
        },
        {
            "name" : "Roundcube.013",
            "primitives" : [
                {
                    "attributes" : {
                        "POSITION" : 12,
                        "NORMAL" : 13,
                        "TEXCOORD_0" : 14
                    },
                    "indices" : 15,
                    "material" : 0
                },
                {
                    "attributes" : {
                        "POSITION" : 16,
                        "NORMAL" : 17,
                        "TEXCOORD_0" : 18
                    },
                    "indices" : 19,
                    "material" : 1
                }
            ]
        },
        {
            "name" : "Circle.363",
            "primitives" : [
                {
                    "attributes" : {
                        "POSITION" : 20,
                        "NORMAL" : 21,
                        "TEXCOORD_0" : 22
                    },
                    "indices" : 23,
                    "material" : 1
                }
            ]
        },
        {
            "name" : "Circle.389",
            "primitives" : [
                {
                    "attributes" : {
                        "POSITION" : 24,
                        "NORMAL" : 25,
                        "TEXCOORD_0" : 26
                    },
                    "indices" : 27,
                    "material" : 1
                }
            ]
        },
        {
            "name" : "Cylinder.258",
            "primitives" : [
                {
                    "attributes" : {
                        "POSITION" : 28,
                        "NORMAL" : 29,
                        "TEXCOORD_0" : 30
                    },
                    "indices" : 31,
                    "material" : 1
                }
            ]
        }
    ],
    "textures" : [
        {
            "sampler" : 0,
            "source" : 0
        },
        {
            "sampler" : 0,
            "source" : 0
        }
    ],
    "images" : [
        {
            "bufferView" : 4,
            "mimeType" : "image/png",
            "name" : "tex"
        }
    ],
    "accessors" : [
        {
            "bufferView" : 0,
            "componentType" : 5126,
            "count" : 752,
            "max" : [
                -0.8264395594596863,
                0.05719918757677078,
                0.13795676827430725
            ],
            "min" : [
                -0.8543609976768494,
                -0.014034310355782509,
                -0.12436223030090332
            ],
            "type" : "VEC3"
        },
        {
            "bufferView" : 1,
            "componentType" : 5126,
            "count" : 752,
            "type" : "VEC3"
        },
        {
            "bufferView" : 2,
            "componentType" : 5126,
            "count" : 752,
            "type" : "VEC2"
        },
        {
            "bufferView" : 3,
            "componentType" : 5123,
            "count" : 1680,
            "type" : "SCALAR"
        },
        {
            "bufferView" : 5,
            "componentType" : 5126,
            "count" : 452,
            "max" : [
                0.3486279845237732,
                0.14658872783184052,
                0.5699412822723389
            ],
            "min" : [
                -0.3486279845237732,
                -0.0976829081773758,
                0.4864935278892517
            ],
            "type" : "VEC3"
        },
        {
            "bufferView" : 6,
            "componentType" : 5126,
            "count" : 452,
            "type" : "VEC3"
        },
        {
            "bufferView" : 7,
            "componentType" : 5126,
            "count" : 452,
            "type" : "VEC2"
        },
        {
            "bufferView" : 8,
            "componentType" : 5123,
            "count" : 1920,
            "type" : "SCALAR"
        },
        {
            "bufferView" : 9,
            "componentType" : 5126,
            "count" : 142,
            "max" : [
                0.06850441545248032,
                -0.10941692441701889,
                0.5844484567642212
            ],
            "min" : [
                -0.06649326533079147,
                -0.1864621490240097,
                0.5657142996788025
            ],
            "type" : "VEC3"
        },
        {
            "bufferView" : 10,
            "componentType" : 5126,
            "count" : 142,
            "type" : "VEC3"
        },
        {
            "bufferView" : 11,
            "componentType" : 5126,
            "count" : 142,
            "type" : "VEC2"
        },
        {
            "bufferView" : 12,
            "componentType" : 5123,
            "count" : 528,
            "type" : "SCALAR"
        },
        {
            "bufferView" : 13,
            "componentType" : 5126,
            "count" : 85,
            "max" : [
                0.18257682025432587,
                -0.3066522479057312,
                0.4926007390022278
            ],
            "min" : [
                -0.17037001252174377,
                -0.42757448554039,
                0.45513594150543213
            ],
            "type" : "VEC3"
        },
        {
            "bufferView" : 14,
            "componentType" : 5126,
            "count" : 85,
            "type" : "VEC3"
        },
        {
            "bufferView" : 15,
            "componentType" : 5126,
            "count" : 85,
            "type" : "VEC2"
        },
        {
            "bufferView" : 16,
            "componentType" : 5123,
            "count" : 384,
            "type" : "SCALAR"
        },
        {
            "bufferView" : 17,
            "componentType" : 5126,
            "count" : 1899,
            "max" : [
                0.7167080640792847,
                0.7037864923477173,
                0.5776224732398987
            ],
            "min" : [
                -0.7166544198989868,
                -0.8208202719688416,
                -0.9389863610267639
            ],
            "type" : "VEC3"
        },
        {
            "bufferView" : 18,
            "componentType" : 5126,
            "count" : 1899,
            "type" : "VEC3"
        },
        {
            "bufferView" : 19,
            "componentType" : 5126,
            "count" : 1899,
            "type" : "VEC2"
        },
        {
            "bufferView" : 20,
            "componentType" : 5123,
            "count" : 7830,
            "type" : "SCALAR"
        },
        {
            "bufferView" : 21,
            "componentType" : 5126,
            "count" : 300,
            "max" : [
                0.44165658950805664,
                0.31947430968284607,
                0.5516247153282166
            ],
            "min" : [
                -0.44165658950805664,
                0.1779746115207672,
                0.3795098662376404
            ],
            "type" : "VEC3"
        },
        {
            "bufferView" : 22,
            "componentType" : 5126,
            "count" : 300,
            "type" : "VEC3"
        },
        {
            "bufferView" : 23,
            "componentType" : 5126,
            "count" : 300,
            "type" : "VEC2"
        },
        {
            "bufferView" : 24,
            "componentType" : 5123,
            "count" : 1152,
            "type" : "SCALAR"
        },
        {
            "bufferView" : 25,
            "componentType" : 5126,
            "count" : 296,
            "max" : [
                0.3040834665298462,
                -0.18585598468780518,
                0.5802942514419556
            ],
            "min" : [
                -0.3040834665298462,
                -0.31764212250709534,
                0.48212695121765137
            ],
            "type" : "VEC3"
        },
        {
            "bufferView" : 26,
            "componentType" : 5126,
            "count" : 296,
            "type" : "VEC3"
        },
        {
            "bufferView" : 27,
            "componentType" : 5126,
            "count" : 296,
            "type" : "VEC2"
        },
        {
            "bufferView" : 28,
            "componentType" : 5123,
            "count" : 1152,
            "type" : "SCALAR"
        },
        {
            "bufferView" : 29,
            "componentType" : 5126,
            "count" : 1181,
            "max" : [
                0.8778747320175171,
                0.21737711131572723,
                -0.10627720504999161
            ],
            "min" : [
                -0.8778746724128723,
                -0.22943444550037384,
                -0.36960697174072266
            ],
            "type" : "VEC3"
        },
        {
            "bufferView" : 30,
            "componentType" : 5126,
            "count" : 1181,
            "type" : "VEC3"
        },
        {
            "bufferView" : 31,
            "componentType" : 5126,
            "count" : 1181,
            "type" : "VEC2"
        },
        {
            "bufferView" : 32,
            "componentType" : 5123,
            "count" : 4992,
            "type" : "SCALAR"
        }
    ],
    "bufferViews" : [
        {
            "buffer" : 0,
            "byteLength" : 9024,
            "byteOffset" : 0
        },
        {
            "buffer" : 0,
            "byteLength" : 9024,
            "byteOffset" : 9024
        },
        {
            "buffer" : 0,
            "byteLength" : 6016,
            "byteOffset" : 18048
        },
        {
            "buffer" : 0,
            "byteLength" : 3360,
            "byteOffset" : 24064
        },
        {
            "buffer" : 0,
            "byteLength" : 11997,
            "byteOffset" : 27424
        },
        {
            "buffer" : 0,
            "byteLength" : 5424,
            "byteOffset" : 39424
        },
        {
            "buffer" : 0,
            "byteLength" : 5424,
            "byteOffset" : 44848
        },
        {
            "buffer" : 0,
            "byteLength" : 3616,
            "byteOffset" : 50272
        },
        {
            "buffer" : 0,
            "byteLength" : 3840,
            "byteOffset" : 53888
        },
        {
            "buffer" : 0,
            "byteLength" : 1704,
            "byteOffset" : 57728
        },
        {
            "buffer" : 0,
            "byteLength" : 1704,
            "byteOffset" : 59432
        },
        {
            "buffer" : 0,
            "byteLength" : 1136,
            "byteOffset" : 61136
        },
        {
            "buffer" : 0,
            "byteLength" : 1056,
            "byteOffset" : 62272
        },
        {
            "buffer" : 0,
            "byteLength" : 1020,
            "byteOffset" : 63328
        },
        {
            "buffer" : 0,
            "byteLength" : 1020,
            "byteOffset" : 64348
        },
        {
            "buffer" : 0,
            "byteLength" : 680,
            "byteOffset" : 65368
        },
        {
            "buffer" : 0,
            "byteLength" : 768,
            "byteOffset" : 66048
        },
        {
            "buffer" : 0,
            "byteLength" : 22788,
            "byteOffset" : 66816
        },
        {
            "buffer" : 0,
            "byteLength" : 22788,
            "byteOffset" : 89604
        },
        {
            "buffer" : 0,
            "byteLength" : 15192,
            "byteOffset" : 112392
        },
        {
            "buffer" : 0,
            "byteLength" : 15660,
            "byteOffset" : 127584
        },
        {
            "buffer" : 0,
            "byteLength" : 3600,
            "byteOffset" : 143244
        },
        {
            "buffer" : 0,
            "byteLength" : 3600,
            "byteOffset" : 146844
        },
        {
            "buffer" : 0,
            "byteLength" : 2400,
            "byteOffset" : 150444
        },
        {
            "buffer" : 0,
            "byteLength" : 2304,
            "byteOffset" : 152844
        },
        {
            "buffer" : 0,
            "byteLength" : 3552,
            "byteOffset" : 155148
        },
        {
            "buffer" : 0,
            "byteLength" : 3552,
            "byteOffset" : 158700
        },
        {
            "buffer" : 0,
            "byteLength" : 2368,
            "byteOffset" : 162252
        },
        {
            "buffer" : 0,
            "byteLength" : 2304,
            "byteOffset" : 164620
        },
        {
            "buffer" : 0,
            "byteLength" : 14172,
            "byteOffset" : 166924
        },
        {
            "buffer" : 0,
            "byteLength" : 14172,
            "byteOffset" : 181096
        },
        {
            "buffer" : 0,
            "byteLength" : 9448,
            "byteOffset" : 195268
        },
        {
            "buffer" : 0,
            "byteLength" : 9984,
            "byteOffset" : 204716
        }
    ],
    "samplers" : [
        {
            "magFilter" : 9729,
            "minFilter" : 9987
        }
    ],
    "buffers" : [
        {
            "byteLength" : 214700,
            "uri" : "data:application/octet-stream;base64,"
        }
    ]
}
