{
    "asset" : {
        "copyright" : "Jeremy Edelblut",
        "generator" : "Khronos glTF Blender I/O v1.7.33",
        "version" : "2.0"
    },
    "scene" : 0,
    "scenes" : [
        {
            "name" : "Scene",
            "nodes" : [
                0,
                1,
                2,
                3,
                4,
                5,
                6,
                7,
                8,
                9
            ]
        }
    ],
    "nodes" : [
        {
            "mesh" : 0,
            "name" : "Circle.823",
            "rotation" : [
                0.7071068286895752,
                0,
                0,
                0.7071068286895752
            ],
            "scale" : [
                2.436277389526367,
                2.436277389526367,
                2.436277389526367
            ]
        },
        {
            "mesh" : 1,
            "name" : "Circle.824",
            "rotation" : [
                0.7071068286895752,
                0,
                0,
                0.7071068286895752
            ],
            "scale" : [
                2.436277389526367,
                2.436277389526367,
                2.436277389526367
            ]
        },
        {
            "mesh" : 2,
            "name" : "Cylinder.131",
            "rotation" : [
                0,
                -0.7071068286895752,
                0,
                0.7071068286895752
            ],
            "scale" : [
                0.6309337019920349,
                0.6309337019920349,
                0.6309337019920349
            ]
        },
        {
            "mesh" : 3,
            "name" : "Roundcube.158",
            "rotation" : [
                0,
                -0.7071068286895752,
                0,
                0.7071068286895752
            ],
            "scale" : [
                0.6309337019920349,
                0.6309337019920349,
                0.6309337019920349
            ]
        },
        {
            "mesh" : 4,
            "name" : "Circle.825",
            "rotation" : [
                0.7071068286895752,
                0,
                0,
                0.7071068286895752
            ],
            "scale" : [
                0.9000000357627869,
                0.9000000357627869,
                0.9000000357627869
            ]
        },
        {
            "mesh" : 5,
            "name" : "Cube.2021",
            "rotation" : [
                0.15753553807735443,
                -0.7490391135215759,
                -0.10597017407417297,
                0.6347387433052063
            ],
            "scale" : [
                0.09263817220926285,
                0.09263825416564941,
                0.09263816475868225
            ]
        },
        {
            "mesh" : 6,
            "name" : "Sphere.131",
            "rotation" : [
                0,
                -0.7071068286895752,
                0,
                0.7071068286895752
            ],
            "scale" : [
                0.45000001788139343,
                0.45000001788139343,
                0.45000001788139343
            ]
        },
        {
            "mesh" : 7,
            "name" : "Sphere.132",
            "rotation" : [
                0,
                -0.7071068286895752,
                0,
                0.7071068286895752
            ],
            "scale" : [
                0.45000001788139343,
                0.45000001788139343,
                0.45000001788139343
            ]
        },
        {
            "mesh" : 8,
            "name" : "Circle.827",
            "rotation" : [
                0.7071068286895752,
                0,
                0,
                0.7071068286895752
            ],
            "scale" : [
                0.9000000357627869,
                0.9000000357627869,
                0.9000000357627869
            ]
        },
        {
            "mesh" : 9,
            "name" : "Sphere.133",
            "rotation" : [
                -0.11900096386671066,
                -0.6970213651657104,
                0.11900096386671066,
                0.6970213651657104
            ],
            "scale" : [
                0.7275387048721313,
                0.7275387048721313,
                0.7275385856628418
            ]
        }
    ],
    "materials" : [
        {
            "doubleSided" : true,
            "name" : "color",
            "pbrMetallicRoughness" : {
                "baseColorTexture" : {
                    "index" : 0
                },
                "metallicFactor" : 0,
                "roughnessFactor" : 0.5
            }
        },
        {
            "doubleSided" : true,
            "name" : "skin_tone_one",
            "pbrMetallicRoughness" : {
                "baseColorTexture" : {
                    "index" : 1
                },
                "metallicFactor" : 0,
                "roughnessFactor" : 0.5
            }
        }
    ],
    "meshes" : [
        {
            "name" : "Circle.889",
            "primitives" : [
                {
                    "attributes" : {
                        "POSITION" : 0,
                        "NORMAL" : 1,
                        "TEXCOORD_0" : 2
                    },
                    "indices" : 3,
                    "material" : 0
                }
            ]
        },
        {
            "name" : "Circle.890",
            "primitives" : [
                {
                    "attributes" : {
                        "POSITION" : 4,
                        "NORMAL" : 5,
                        "TEXCOORD_0" : 6
                    },
                    "indices" : 7,
                    "material" : 1
                }
            ]
        },
        {
            "name" : "Cylinder.134",
            "primitives" : [
                {
                    "attributes" : {
                        "POSITION" : 8,
                        "NORMAL" : 9,
                        "TEXCOORD_0" : 10
                    },
                    "indices" : 11,
                    "material" : 1
                }
            ]
        },
        {
            "name" : "Roundcube.160",
            "primitives" : [
                {
                    "attributes" : {
                        "POSITION" : 12,
                        "NORMAL" : 13,
                        "TEXCOORD_0" : 14
                    },
                    "indices" : 15,
                    "material" : 0
                },
                {
                    "attributes" : {
                        "POSITION" : 16,
                        "NORMAL" : 17,
                        "TEXCOORD_0" : 18
                    },
                    "indices" : 19,
                    "material" : 1
                }
            ]
        },
        {
            "name" : "Circle.891",
            "primitives" : [
                {
                    "attributes" : {
                        "POSITION" : 20,
                        "NORMAL" : 21,
                        "TEXCOORD_0" : 22
                    },
                    "indices" : 23,
                    "material" : 1
                }
            ]
        },
        {
            "name" : "Cube.2429",
            "primitives" : [
                {
                    "attributes" : {
                        "POSITION" : 24,
                        "NORMAL" : 25,
                        "TEXCOORD_0" : 26
                    },
                    "indices" : 27,
                    "material" : 1
                }
            ]
        },
        {
            "name" : "Sphere.135",
            "primitives" : [
                {
                    "attributes" : {
                        "POSITION" : 28,
                        "NORMAL" : 29,
                        "TEXCOORD_0" : 30
                    },
                    "indices" : 31,
                    "material" : 0
                }
            ]
        },
        {
            "name" : "Sphere.136",
            "primitives" : [
                {
                    "attributes" : {
                        "POSITION" : 32,
                        "NORMAL" : 33,
                        "TEXCOORD_0" : 34
                    },
                    "indices" : 35,
                    "material" : 0
                }
            ]
        },
        {
            "name" : "Circle.893",
            "primitives" : [
                {
                    "attributes" : {
                        "POSITION" : 36,
                        "NORMAL" : 37,
                        "TEXCOORD_0" : 38
                    },
                    "indices" : 39,
                    "material" : 1
                }
            ]
        },
        {
            "name" : "Sphere.365",
            "primitives" : [
                {
                    "attributes" : {
                        "POSITION" : 40,
                        "NORMAL" : 41,
                        "TEXCOORD_0" : 42
                    },
                    "indices" : 43,
                    "material" : 0
                }
            ]
        }
    ],
    "textures" : [
        {
            "sampler" : 0,
            "source" : 0
        },
        {
            "sampler" : 0,
            "source" : 0
        }
    ],
    "images" : [
        {
            "bufferView" : 4,
            "mimeType" : "image/png",
            "name" : "tex"
        }
    ],
    "accessors" : [
        {
            "bufferView" : 0,
            "componentType" : 5126,
            "count" : 1448,
            "max" : [
                0.13154199719429016,
                0.20973235368728638,
                0.01647900976240635
            ],
            "min" : [
                -0.13154199719429016,
                0.17276965081691742,
                -0.07492263615131378
            ],
            "type" : "VEC3"
        },
        {
            "bufferView" : 1,
            "componentType" : 5126,
            "count" : 1448,
            "type" : "VEC3"
        },
        {
            "bufferView" : 2,
            "componentType" : 5126,
            "count" : 1448,
            "type" : "VEC2"
        },
        {
            "bufferView" : 3,
            "componentType" : 5123,
            "count" : 6912,
            "type" : "SCALAR"
        },
        {
            "bufferView" : 5,
            "componentType" : 5126,
            "count" : 142,
            "max" : [
                0.025703027844429016,
                0.21532228589057922,
                0.050091229379177094
            ],
            "min" : [
                -0.02491709776222706,
                0.20210252702236176,
                0.02065243571996689
            ],
            "type" : "VEC3"
        },
        {
            "bufferView" : 6,
            "componentType" : 5126,
            "count" : 142,
            "type" : "VEC3"
        },
        {
            "bufferView" : 7,
            "componentType" : 5126,
            "count" : 142,
            "type" : "VEC2"
        },
        {
            "bufferView" : 8,
            "componentType" : 5123,
            "count" : 528,
            "type" : "SCALAR"
        },
        {
            "bufferView" : 9,
            "componentType" : 5126,
            "count" : 1135,
            "max" : [
                -0.17816591262817383,
                0.38641005754470825,
                1.2509186267852783
            ],
            "min" : [
                -0.5537946224212646,
                -0.2509475648403168,
                -1.2509185075759888
            ],
            "type" : "VEC3"
        },
        {
            "bufferView" : 10,
            "componentType" : 5126,
            "count" : 1135,
            "type" : "VEC3"
        },
        {
            "bufferView" : 11,
            "componentType" : 5126,
            "count" : 1135,
            "type" : "VEC2"
        },
        {
            "bufferView" : 12,
            "componentType" : 5123,
            "count" : 4992,
            "type" : "SCALAR"
        },
        {
            "bufferView" : 13,
            "componentType" : 5126,
            "count" : 837,
            "max" : [
                0.6761078238487244,
                -0.36109548807144165,
                0.24304252862930298
            ],
            "min" : [
                -0.7228678464889526,
                -2.1794631481170654,
                -0.26042112708091736
            ],
            "type" : "VEC3"
        },
        {
            "bufferView" : 14,
            "componentType" : 5126,
            "count" : 837,
            "type" : "VEC3"
        },
        {
            "bufferView" : 15,
            "componentType" : 5126,
            "count" : 837,
            "type" : "VEC2"
        },
        {
            "bufferView" : 16,
            "componentType" : 5123,
            "count" : 2064,
            "type" : "SCALAR"
        },
        {
            "bufferView" : 17,
            "componentType" : 5126,
            "count" : 1173,
            "max" : [
                0.7973878383636475,
                1.0802522897720337,
                1.0222939252853394
            ],
            "min" : [
                -1.3659900426864624,
                -1.316795825958252,
                -1.0223366022109985
            ],
            "type" : "VEC3"
        },
        {
            "bufferView" : 18,
            "componentType" : 5126,
            "count" : 1173,
            "type" : "VEC3"
        },
        {
            "bufferView" : 19,
            "componentType" : 5126,
            "count" : 1173,
            "type" : "VEC2"
        },
        {
            "bufferView" : 20,
            "componentType" : 5123,
            "count" : 5916,
            "type" : "SCALAR"
        },
        {
            "bufferView" : 21,
            "componentType" : 5126,
            "count" : 316,
            "max" : [
                0.41778871417045593,
                0.5175591707229614,
                -0.19578202068805695
            ],
            "min" : [
                -0.41778871417045593,
                0.39393407106399536,
                -0.34567564725875854
            ],
            "type" : "VEC3"
        },
        {
            "bufferView" : 22,
            "componentType" : 5126,
            "count" : 316,
            "type" : "VEC3"
        },
        {
            "bufferView" : 23,
            "componentType" : 5126,
            "count" : 316,
            "type" : "VEC2"
        },
        {
            "bufferView" : 24,
            "componentType" : 5123,
            "count" : 1152,
            "type" : "SCALAR"
        },
        {
            "bufferView" : 25,
            "componentType" : 5126,
            "count" : 1310,
            "max" : [
                5.187964916229248,
                9.227301597595215,
                7.970435619354248
            ],
            "min" : [
                -10.582945823669434,
                -3.732300043106079,
                -7.215945720672607
            ],
            "type" : "VEC3"
        },
        {
            "bufferView" : 26,
            "componentType" : 5126,
            "count" : 1310,
            "type" : "VEC3"
        },
        {
            "bufferView" : 27,
            "componentType" : 5126,
            "count" : 1310,
            "type" : "VEC2"
        },
        {
            "bufferView" : 28,
            "componentType" : 5123,
            "count" : 3132,
            "type" : "SCALAR"
        },
        {
            "bufferView" : 29,
            "componentType" : 5126,
            "count" : 445,
            "max" : [
                0.06467652320861816,
                -1.484316110610962,
                1.498132348060608
            ],
            "min" : [
                -1.93532395362854,
                -3.051914930343628,
                -1.5018686056137085
            ],
            "type" : "VEC3"
        },
        {
            "bufferView" : 30,
            "componentType" : 5126,
            "count" : 445,
            "type" : "VEC3"
        },
        {
            "bufferView" : 31,
            "componentType" : 5126,
            "count" : 445,
            "type" : "VEC2"
        },
        {
            "bufferView" : 32,
            "componentType" : 5123,
            "count" : 2418,
            "type" : "SCALAR"
        },
        {
            "bufferView" : 33,
            "componentType" : 5126,
            "count" : 720,
            "max" : [
                0.1346765160560608,
                -1.4243406057357788,
                1.15391206741333
            ],
            "min" : [
                -2.005323886871338,
                -3.052183151245117,
                -1.15391206741333
            ],
            "type" : "VEC3"
        },
        {
            "bufferView" : 34,
            "componentType" : 5126,
            "count" : 720,
            "type" : "VEC3"
        },
        {
            "bufferView" : 35,
            "componentType" : 5126,
            "count" : 720,
            "type" : "VEC2"
        },
        {
            "bufferView" : 36,
            "componentType" : 5123,
            "count" : 1992,
            "type" : "SCALAR"
        },
        {
            "bufferView" : 37,
            "componentType" : 5126,
            "count" : 316,
            "max" : [
                0.31209510564804077,
                0.5610882043838501,
                0.2641964554786682
            ],
            "min" : [
                -0.31209510564804077,
                0.46012061834335327,
                0.12871035933494568
            ],
            "type" : "VEC3"
        },
        {
            "bufferView" : 38,
            "componentType" : 5126,
            "count" : 316,
            "type" : "VEC3"
        },
        {
            "bufferView" : 39,
            "componentType" : 5126,
            "count" : 316,
            "type" : "VEC2"
        },
        {
            "bufferView" : 40,
            "componentType" : 5123,
            "count" : 1152,
            "type" : "SCALAR"
        },
        {
            "bufferView" : 41,
            "componentType" : 5126,
            "count" : 527,
            "max" : [
                1.275421142578125,
                1.4933992624282837,
                1.0002046823501587
            ],
            "min" : [
                -1.1155953407287598,
                0.5043218731880188,
                -1.0002046823501587
            ],
            "type" : "VEC3"
        },
        {
            "bufferView" : 42,
            "componentType" : 5126,
            "count" : 527,
            "type" : "VEC3"
        },
        {
            "bufferView" : 43,
            "componentType" : 5126,
            "count" : 527,
            "type" : "VEC2"
        },
        {
            "bufferView" : 44,
            "componentType" : 5123,
            "count" : 2412,
            "type" : "SCALAR"
        }
    ],
    "bufferViews" : [
        {
            "buffer" : 0,
            "byteLength" : 17376,
            "byteOffset" : 0
        },
        {
            "buffer" : 0,
            "byteLength" : 17376,
            "byteOffset" : 17376
        },
        {
            "buffer" : 0,
            "byteLength" : 11584,
            "byteOffset" : 34752
        },
        {
            "buffer" : 0,
            "byteLength" : 13824,
            "byteOffset" : 46336
        },
        {
            "buffer" : 0,
            "byteLength" : 11997,
            "byteOffset" : 60160
        },
        {
            "buffer" : 0,
            "byteLength" : 1704,
            "byteOffset" : 72160
        },
        {
            "buffer" : 0,
            "byteLength" : 1704,
            "byteOffset" : 73864
        },
        {
            "buffer" : 0,
            "byteLength" : 1136,
            "byteOffset" : 75568
        },
        {
            "buffer" : 0,
            "byteLength" : 1056,
            "byteOffset" : 76704
        },
        {
            "buffer" : 0,
            "byteLength" : 13620,
            "byteOffset" : 77760
        },
        {
            "buffer" : 0,
            "byteLength" : 13620,
            "byteOffset" : 91380
        },
        {
            "buffer" : 0,
            "byteLength" : 9080,
            "byteOffset" : 105000
        },
        {
            "buffer" : 0,
            "byteLength" : 9984,
            "byteOffset" : 114080
        },
        {
            "buffer" : 0,
            "byteLength" : 10044,
            "byteOffset" : 124064
        },
        {
            "buffer" : 0,
            "byteLength" : 10044,
            "byteOffset" : 134108
        },
        {
            "buffer" : 0,
            "byteLength" : 6696,
            "byteOffset" : 144152
        },
        {
            "buffer" : 0,
            "byteLength" : 4128,
            "byteOffset" : 150848
        },
        {
            "buffer" : 0,
            "byteLength" : 14076,
            "byteOffset" : 154976
        },
        {
            "buffer" : 0,
            "byteLength" : 14076,
            "byteOffset" : 169052
        },
        {
            "buffer" : 0,
            "byteLength" : 9384,
            "byteOffset" : 183128
        },
        {
            "buffer" : 0,
            "byteLength" : 11832,
            "byteOffset" : 192512
        },
        {
            "buffer" : 0,
            "byteLength" : 3792,
            "byteOffset" : 204344
        },
        {
            "buffer" : 0,
            "byteLength" : 3792,
            "byteOffset" : 208136
        },
        {
            "buffer" : 0,
            "byteLength" : 2528,
            "byteOffset" : 211928
        },
        {
            "buffer" : 0,
            "byteLength" : 2304,
            "byteOffset" : 214456
        },
        {
            "buffer" : 0,
            "byteLength" : 15720,
            "byteOffset" : 216760
        },
        {
            "buffer" : 0,
            "byteLength" : 15720,
            "byteOffset" : 232480
        },
        {
            "buffer" : 0,
            "byteLength" : 10480,
            "byteOffset" : 248200
        },
        {
            "buffer" : 0,
            "byteLength" : 6264,
            "byteOffset" : 258680
        },
        {
            "buffer" : 0,
            "byteLength" : 5340,
            "byteOffset" : 264944
        },
        {
            "buffer" : 0,
            "byteLength" : 5340,
            "byteOffset" : 270284
        },
        {
            "buffer" : 0,
            "byteLength" : 3560,
            "byteOffset" : 275624
        },
        {
            "buffer" : 0,
            "byteLength" : 4836,
            "byteOffset" : 279184
        },
        {
            "buffer" : 0,
            "byteLength" : 8640,
            "byteOffset" : 284020
        },
        {
            "buffer" : 0,
            "byteLength" : 8640,
            "byteOffset" : 292660
        },
        {
            "buffer" : 0,
            "byteLength" : 5760,
            "byteOffset" : 301300
        },
        {
            "buffer" : 0,
            "byteLength" : 3984,
            "byteOffset" : 307060
        },
        {
            "buffer" : 0,
            "byteLength" : 3792,
            "byteOffset" : 311044
        },
        {
            "buffer" : 0,
            "byteLength" : 3792,
            "byteOffset" : 314836
        },
        {
            "buffer" : 0,
            "byteLength" : 2528,
            "byteOffset" : 318628
        },
        {
            "buffer" : 0,
            "byteLength" : 2304,
            "byteOffset" : 321156
        },
        {
            "buffer" : 0,
            "byteLength" : 6324,
            "byteOffset" : 323460
        },
        {
            "buffer" : 0,
            "byteLength" : 6324,
            "byteOffset" : 329784
        },
        {
            "buffer" : 0,
            "byteLength" : 4216,
            "byteOffset" : 336108
        },
        {
            "buffer" : 0,
            "byteLength" : 4824,
            "byteOffset" : 340324
        }
    ],
    "samplers" : [
        {
            "magFilter" : 9729,
            "minFilter" : 9987
        }
    ],
    "buffers" : [
        {
            "byteLength" : 345148,
            "uri" : "data:application/octet-stream;base64,"
        }
    ]
}
