{
    "asset" : {
        "copyright" : "Jeremy Edelblut",
        "generator" : "Khronos glTF Blender I/O v1.7.33",
        "version" : "2.0"
    },
    "scene" : 1,
    "scenes" : [
        {
            "name" : "FBX_Temp",
            "nodes" : [
                0
            ]
        },
        {
            "name" : "Scene",
            "nodes" : [
                1,
                2,
                3,
                4,
                5,
                6,
                7,
                8,
                9
            ]
        }
    ],
    "nodes" : [
        {
            "mesh" : 0,
            "name" : "3moji.064",
            "rotation" : [
                0,
                -0.7071068286895752,
                0,
                0.7071068286895752
            ]
        },
        {
            "mesh" : 1,
            "name" : "Circle.1126"
        },
        {
            "mesh" : 2,
            "name" : "Circle.1127"
        },
        {
            "mesh" : 3,
            "name" : "Cylinder.205"
        },
        {
            "mesh" : 4,
            "name" : "Roundcube.244"
        },
        {
            "mesh" : 5,
            "name" : "Circle.1128"
        },
        {
            "mesh" : 6,
            "name" : "Cube.2851"
        },
        {
            "mesh" : 7,
            "name" : "Sphere.188"
        },
        {
            "mesh" : 8,
            "name" : "Circle.1129"
        },
        {
            "mesh" : 9,
            "name" : "Circle.1130"
        }
    ],
    "materials" : [
        {
            "doubleSided" : true,
            "name" : "color",
            "pbrMetallicRoughness" : {
                "baseColorTexture" : {
                    "index" : 0
                },
                "metallicFactor" : 0,
                "roughnessFactor" : 0.5
            }
        },
        {
            "doubleSided" : true,
            "name" : "skin_tone_one",
            "pbrMetallicRoughness" : {
                "baseColorTexture" : {
                    "index" : 1
                },
                "metallicFactor" : 0,
                "roughnessFactor" : 0.5
            }
        }
    ],
    "meshes" : [
        {
            "name" : "Cube.417",
            "primitives" : [
                {
                    "attributes" : {
                        "POSITION" : 0,
                        "NORMAL" : 1,
                        "TEXCOORD_0" : 2
                    },
                    "indices" : 3,
                    "material" : 0
                }
            ]
        },
        {
            "name" : "Circle.1234",
            "primitives" : [
                {
                    "attributes" : {
                        "POSITION" : 4,
                        "NORMAL" : 5,
                        "TEXCOORD_0" : 6
                    },
                    "indices" : 7,
                    "material" : 0
                }
            ]
        },
        {
            "name" : "Circle.1235",
            "primitives" : [
                {
                    "attributes" : {
                        "POSITION" : 8,
                        "NORMAL" : 9,
                        "TEXCOORD_0" : 10
                    },
                    "indices" : 11,
                    "material" : 1
                }
            ]
        },
        {
            "name" : "Cylinder.204",
            "primitives" : [
                {
                    "attributes" : {
                        "POSITION" : 12,
                        "NORMAL" : 13,
                        "TEXCOORD_0" : 14
                    },
                    "indices" : 15,
                    "material" : 1
                }
            ]
        },
        {
            "name" : "Roundcube.244",
            "primitives" : [
                {
                    "attributes" : {
                        "POSITION" : 16,
                        "NORMAL" : 17,
                        "TEXCOORD_0" : 18
                    },
                    "indices" : 19,
                    "material" : 0
                },
                {
                    "attributes" : {
                        "POSITION" : 20,
                        "NORMAL" : 21,
                        "TEXCOORD_0" : 22
                    },
                    "indices" : 23,
                    "material" : 1
                }
            ]
        },
        {
            "name" : "Circle.1236",
            "primitives" : [
                {
                    "attributes" : {
                        "POSITION" : 24,
                        "NORMAL" : 25,
                        "TEXCOORD_0" : 26
                    },
                    "indices" : 27,
                    "material" : 1
                }
            ]
        },
        {
            "name" : "Cube.3379",
            "primitives" : [
                {
                    "attributes" : {
                        "POSITION" : 28,
                        "NORMAL" : 29,
                        "TEXCOORD_0" : 30
                    },
                    "indices" : 31,
                    "material" : 1
                }
            ]
        },
        {
            "name" : "Sphere.187",
            "primitives" : [
                {
                    "attributes" : {
                        "POSITION" : 32,
                        "NORMAL" : 33,
                        "TEXCOORD_0" : 34
                    },
                    "indices" : 35,
                    "material" : 0
                }
            ]
        },
        {
            "name" : "Circle.1237",
            "primitives" : [
                {
                    "attributes" : {
                        "POSITION" : 36,
                        "NORMAL" : 37,
                        "TEXCOORD_0" : 38
                    },
                    "indices" : 39,
                    "material" : 0
                }
            ]
        },
        {
            "name" : "Circle.1238",
            "primitives" : [
                {
                    "attributes" : {
                        "POSITION" : 40,
                        "NORMAL" : 41,
                        "TEXCOORD_0" : 42
                    },
                    "indices" : 43,
                    "material" : 1
                }
            ]
        }
    ],
    "textures" : [
        {
            "sampler" : 0,
            "source" : 0
        },
        {
            "sampler" : 0,
            "source" : 0
        }
    ],
    "images" : [
        {
            "bufferView" : 4,
            "mimeType" : "image/png",
            "name" : "tex"
        }
    ],
    "accessors" : [
        {
            "bufferView" : 0,
            "componentType" : 5126,
            "count" : 752,
            "max" : [
                -0.8264395594596863,
                0.05719918757677078,
                0.13795676827430725
            ],
            "min" : [
                -0.8543609976768494,
                -0.014034310355782509,
                -0.12436223030090332
            ],
            "type" : "VEC3"
        },
        {
            "bufferView" : 1,
            "componentType" : 5126,
            "count" : 752,
            "type" : "VEC3"
        },
        {
            "bufferView" : 2,
            "componentType" : 5126,
            "count" : 752,
            "type" : "VEC2"
        },
        {
            "bufferView" : 3,
            "componentType" : 5123,
            "count" : 1680,
            "type" : "SCALAR"
        },
        {
            "bufferView" : 5,
            "componentType" : 5126,
            "count" : 1448,
            "max" : [
                0.3479706346988678,
                0.31555572152137756,
                0.5697889924049377
            ],
            "min" : [
                -0.3479706346988678,
                0.07173801958560944,
                0.48670244216918945
            ],
            "type" : "VEC3"
        },
        {
            "bufferView" : 6,
            "componentType" : 5126,
            "count" : 1448,
            "type" : "VEC3"
        },
        {
            "bufferView" : 7,
            "componentType" : 5126,
            "count" : 1448,
            "type" : "VEC2"
        },
        {
            "bufferView" : 8,
            "componentType" : 5123,
            "count" : 6912,
            "type" : "SCALAR"
        },
        {
            "bufferView" : 9,
            "componentType" : 5126,
            "count" : 142,
            "max" : [
                0.0685044378042221,
                0.059749774634838104,
                0.5844470858573914
            ],
            "min" : [
                -0.06649328768253326,
                -0.01729544997215271,
                0.5657129883766174
            ],
            "type" : "VEC3"
        },
        {
            "bufferView" : 10,
            "componentType" : 5126,
            "count" : 142,
            "type" : "VEC3"
        },
        {
            "bufferView" : 11,
            "componentType" : 5126,
            "count" : 142,
            "type" : "VEC2"
        },
        {
            "bufferView" : 12,
            "componentType" : 5123,
            "count" : 528,
            "type" : "SCALAR"
        },
        {
            "bufferView" : 13,
            "componentType" : 5126,
            "count" : 1135,
            "max" : [
                0.8778747320175171,
                0.3865436911582947,
                -0.10627720504999161
            ],
            "min" : [
                -0.8778746724128723,
                -0.0602678619325161,
                -0.36960697174072266
            ],
            "type" : "VEC3"
        },
        {
            "bufferView" : 14,
            "componentType" : 5126,
            "count" : 1135,
            "type" : "VEC3"
        },
        {
            "bufferView" : 15,
            "componentType" : 5126,
            "count" : 1135,
            "type" : "VEC2"
        },
        {
            "bufferView" : 16,
            "componentType" : 5123,
            "count" : 4992,
            "type" : "SCALAR"
        },
        {
            "bufferView" : 17,
            "componentType" : 5126,
            "count" : 837,
            "max" : [
                0.18255478143692017,
                -0.13748568296432495,
                0.4926007390022278
            ],
            "min" : [
                -0.17039206624031067,
                -1.4020906686782837,
                -0.4784606099128723
            ],
            "type" : "VEC3"
        },
        {
            "bufferView" : 18,
            "componentType" : 5126,
            "count" : 837,
            "type" : "VEC3"
        },
        {
            "bufferView" : 19,
            "componentType" : 5126,
            "count" : 837,
            "type" : "VEC2"
        },
        {
            "bufferView" : 20,
            "componentType" : 5123,
            "count" : 2064,
            "type" : "SCALAR"
        },
        {
            "bufferView" : 21,
            "componentType" : 5126,
            "count" : 1173,
            "max" : [
                0.7166860103607178,
                0.8729530572891235,
                0.5776224732398987
            ],
            "min" : [
                -0.7166764736175537,
                -0.8074673414230347,
                -0.9389863610267639
            ],
            "type" : "VEC3"
        },
        {
            "bufferView" : 22,
            "componentType" : 5126,
            "count" : 1173,
            "type" : "VEC3"
        },
        {
            "bufferView" : 23,
            "componentType" : 5126,
            "count" : 1173,
            "type" : "VEC2"
        },
        {
            "bufferView" : 24,
            "componentType" : 5123,
            "count" : 5916,
            "type" : "SCALAR"
        },
        {
            "bufferView" : 25,
            "componentType" : 5126,
            "count" : 320,
            "max" : [
                0.41687026619911194,
                0.4614179730415344,
                0.5363624691963196
            ],
            "min" : [
                -0.41687026619911194,
                0.3116771876811981,
                0.41307151317596436
            ],
            "type" : "VEC3"
        },
        {
            "bufferView" : 26,
            "componentType" : 5126,
            "count" : 320,
            "type" : "VEC3"
        },
        {
            "bufferView" : 27,
            "componentType" : 5126,
            "count" : 320,
            "type" : "VEC2"
        },
        {
            "bufferView" : 28,
            "componentType" : 5123,
            "count" : 1152,
            "type" : "SCALAR"
        },
        {
            "bufferView" : 29,
            "componentType" : 5126,
            "count" : 1370,
            "max" : [
                0.9285153746604919,
                1.073990821838379,
                0.7736537456512451
            ],
            "min" : [
                -0.7971862554550171,
                0.01777304708957672,
                -0.9953101873397827
            ],
            "type" : "VEC3"
        },
        {
            "bufferView" : 30,
            "componentType" : 5126,
            "count" : 1370,
            "type" : "VEC3"
        },
        {
            "bufferView" : 31,
            "componentType" : 5126,
            "count" : 1370,
            "type" : "VEC2"
        },
        {
            "bufferView" : 32,
            "componentType" : 5123,
            "count" : 3270,
            "type" : "SCALAR"
        },
        {
            "bufferView" : 33,
            "componentType" : 5126,
            "count" : 445,
            "max" : [
                0.7500002384185791,
                -0.626502275466919,
                0.050962019711732864
            ],
            "min" : [
                -0.7500002384185791,
                -1.3991906642913818,
                -0.9490382075309753
            ],
            "type" : "VEC3"
        },
        {
            "bufferView" : 34,
            "componentType" : 5126,
            "count" : 445,
            "type" : "VEC3"
        },
        {
            "bufferView" : 35,
            "componentType" : 5126,
            "count" : 445,
            "type" : "VEC2"
        },
        {
            "bufferView" : 36,
            "componentType" : 5123,
            "count" : 2418,
            "type" : "SCALAR"
        },
        {
            "bufferView" : 37,
            "componentType" : 5126,
            "count" : 878,
            "max" : [
                1.2315621376037598,
                1.1745154857635498,
                -0.03986683487892151
            ],
            "min" : [
                0.4018082618713379,
                0.27768200635910034,
                -0.5872814655303955
            ],
            "type" : "VEC3"
        },
        {
            "bufferView" : 38,
            "componentType" : 5126,
            "count" : 878,
            "type" : "VEC3"
        },
        {
            "bufferView" : 39,
            "componentType" : 5126,
            "count" : 878,
            "type" : "VEC2"
        },
        {
            "bufferView" : 40,
            "componentType" : 5123,
            "count" : 2544,
            "type" : "SCALAR"
        },
        {
            "bufferView" : 41,
            "componentType" : 5126,
            "count" : 316,
            "max" : [
                0.3111232817173004,
                -0.012977334670722485,
                0.5797182321548462
            ],
            "min" : [
                -0.3111232817173004,
                -0.14835143089294434,
                0.4792216122150421
            ],
            "type" : "VEC3"
        },
        {
            "bufferView" : 42,
            "componentType" : 5126,
            "count" : 316,
            "type" : "VEC3"
        },
        {
            "bufferView" : 43,
            "componentType" : 5126,
            "count" : 316,
            "type" : "VEC2"
        },
        {
            "bufferView" : 44,
            "componentType" : 5123,
            "count" : 1152,
            "type" : "SCALAR"
        }
    ],
    "bufferViews" : [
        {
            "buffer" : 0,
            "byteLength" : 9024,
            "byteOffset" : 0
        },
        {
            "buffer" : 0,
            "byteLength" : 9024,
            "byteOffset" : 9024
        },
        {
            "buffer" : 0,
            "byteLength" : 6016,
            "byteOffset" : 18048
        },
        {
            "buffer" : 0,
            "byteLength" : 3360,
            "byteOffset" : 24064
        },
        {
            "buffer" : 0,
            "byteLength" : 11997,
            "byteOffset" : 27424
        },
        {
            "buffer" : 0,
            "byteLength" : 17376,
            "byteOffset" : 39424
        },
        {
            "buffer" : 0,
            "byteLength" : 17376,
            "byteOffset" : 56800
        },
        {
            "buffer" : 0,
            "byteLength" : 11584,
            "byteOffset" : 74176
        },
        {
            "buffer" : 0,
            "byteLength" : 13824,
            "byteOffset" : 85760
        },
        {
            "buffer" : 0,
            "byteLength" : 1704,
            "byteOffset" : 99584
        },
        {
            "buffer" : 0,
            "byteLength" : 1704,
            "byteOffset" : 101288
        },
        {
            "buffer" : 0,
            "byteLength" : 1136,
            "byteOffset" : 102992
        },
        {
            "buffer" : 0,
            "byteLength" : 1056,
            "byteOffset" : 104128
        },
        {
            "buffer" : 0,
            "byteLength" : 13620,
            "byteOffset" : 105184
        },
        {
            "buffer" : 0,
            "byteLength" : 13620,
            "byteOffset" : 118804
        },
        {
            "buffer" : 0,
            "byteLength" : 9080,
            "byteOffset" : 132424
        },
        {
            "buffer" : 0,
            "byteLength" : 9984,
            "byteOffset" : 141504
        },
        {
            "buffer" : 0,
            "byteLength" : 10044,
            "byteOffset" : 151488
        },
        {
            "buffer" : 0,
            "byteLength" : 10044,
            "byteOffset" : 161532
        },
        {
            "buffer" : 0,
            "byteLength" : 6696,
            "byteOffset" : 171576
        },
        {
            "buffer" : 0,
            "byteLength" : 4128,
            "byteOffset" : 178272
        },
        {
            "buffer" : 0,
            "byteLength" : 14076,
            "byteOffset" : 182400
        },
        {
            "buffer" : 0,
            "byteLength" : 14076,
            "byteOffset" : 196476
        },
        {
            "buffer" : 0,
            "byteLength" : 9384,
            "byteOffset" : 210552
        },
        {
            "buffer" : 0,
            "byteLength" : 11832,
            "byteOffset" : 219936
        },
        {
            "buffer" : 0,
            "byteLength" : 3840,
            "byteOffset" : 231768
        },
        {
            "buffer" : 0,
            "byteLength" : 3840,
            "byteOffset" : 235608
        },
        {
            "buffer" : 0,
            "byteLength" : 2560,
            "byteOffset" : 239448
        },
        {
            "buffer" : 0,
            "byteLength" : 2304,
            "byteOffset" : 242008
        },
        {
            "buffer" : 0,
            "byteLength" : 16440,
            "byteOffset" : 244312
        },
        {
            "buffer" : 0,
            "byteLength" : 16440,
            "byteOffset" : 260752
        },
        {
            "buffer" : 0,
            "byteLength" : 10960,
            "byteOffset" : 277192
        },
        {
            "buffer" : 0,
            "byteLength" : 6540,
            "byteOffset" : 288152
        },
        {
            "buffer" : 0,
            "byteLength" : 5340,
            "byteOffset" : 294692
        },
        {
            "buffer" : 0,
            "byteLength" : 5340,
            "byteOffset" : 300032
        },
        {
            "buffer" : 0,
            "byteLength" : 3560,
            "byteOffset" : 305372
        },
        {
            "buffer" : 0,
            "byteLength" : 4836,
            "byteOffset" : 308932
        },
        {
            "buffer" : 0,
            "byteLength" : 10536,
            "byteOffset" : 313768
        },
        {
            "buffer" : 0,
            "byteLength" : 10536,
            "byteOffset" : 324304
        },
        {
            "buffer" : 0,
            "byteLength" : 7024,
            "byteOffset" : 334840
        },
        {
            "buffer" : 0,
            "byteLength" : 5088,
            "byteOffset" : 341864
        },
        {
            "buffer" : 0,
            "byteLength" : 3792,
            "byteOffset" : 346952
        },
        {
            "buffer" : 0,
            "byteLength" : 3792,
            "byteOffset" : 350744
        },
        {
            "buffer" : 0,
            "byteLength" : 2528,
            "byteOffset" : 354536
        },
        {
            "buffer" : 0,
            "byteLength" : 2304,
            "byteOffset" : 357064
        }
    ],
    "samplers" : [
        {
            "magFilter" : 9729,
            "minFilter" : 9987
        }
    ],
    "buffers" : [
        {
            "byteLength" : 359368,
            "uri" : "data:application/octet-stream;base64,"
        }
    ]
}
