{
    "asset" : {
        "copyright" : "Jeremy Edelblut",
        "generator" : "Khronos glTF Blender I/O v1.7.33",
        "version" : "2.0"
    },
    "scene" : 0,
    "scenes" : [
        {
            "name" : "Scene",
            "nodes" : [
                0,
                1,
                2,
                3,
                4,
                5,
                6,
                7,
                8,
                9,
                10
            ]
        }
    ],
    "nodes" : [
        {
            "mesh" : 0,
            "name" : "Circle.569"
        },
        {
            "mesh" : 1,
            "name" : "Circle.570"
        },
        {
            "mesh" : 2,
            "name" : "Cylinder.074"
        },
        {
            "mesh" : 3,
            "name" : "Roundcube.082"
        },
        {
            "mesh" : 4,
            "name" : "Circle.571"
        },
        {
            "mesh" : 5,
            "name" : "Cube.1024"
        },
        {
            "mesh" : 6,
            "name" : "Sphere.041"
        },
        {
            "mesh" : 7,
            "name" : "Plane.033"
        },
        {
            "mesh" : 8,
            "name" : "Cube.1032"
        },
        {
            "mesh" : 9,
            "name" : "Plane.035"
        },
        {
            "mesh" : 10,
            "name" : "Circle.572"
        }
    ],
    "materials" : [
        {
            "doubleSided" : true,
            "name" : "color",
            "pbrMetallicRoughness" : {
                "baseColorTexture" : {
                    "index" : 0
                },
                "metallicFactor" : 0,
                "roughnessFactor" : 0.5
            }
        },
        {
            "doubleSided" : true,
            "name" : "skin_tone_one",
            "pbrMetallicRoughness" : {
                "baseColorTexture" : {
                    "index" : 1
                },
                "metallicFactor" : 0,
                "roughnessFactor" : 0.5
            }
        }
    ],
    "meshes" : [
        {
            "name" : "Circle.618",
            "primitives" : [
                {
                    "attributes" : {
                        "POSITION" : 0,
                        "NORMAL" : 1,
                        "TEXCOORD_0" : 2
                    },
                    "indices" : 3,
                    "material" : 0
                }
            ]
        },
        {
            "name" : "Circle.619",
            "primitives" : [
                {
                    "attributes" : {
                        "POSITION" : 4,
                        "NORMAL" : 5,
                        "TEXCOORD_0" : 6
                    },
                    "indices" : 7,
                    "material" : 1
                }
            ]
        },
        {
            "name" : "Cylinder.074",
            "primitives" : [
                {
                    "attributes" : {
                        "POSITION" : 8,
                        "NORMAL" : 9,
                        "TEXCOORD_0" : 10
                    },
                    "indices" : 11,
                    "material" : 1
                }
            ]
        },
        {
            "name" : "Roundcube.082",
            "primitives" : [
                {
                    "attributes" : {
                        "POSITION" : 12,
                        "NORMAL" : 13,
                        "TEXCOORD_0" : 14
                    },
                    "indices" : 15,
                    "material" : 0
                },
                {
                    "attributes" : {
                        "POSITION" : 16,
                        "NORMAL" : 17,
                        "TEXCOORD_0" : 18
                    },
                    "indices" : 19,
                    "material" : 1
                }
            ]
        },
        {
            "name" : "Circle.632",
            "primitives" : [
                {
                    "attributes" : {
                        "POSITION" : 20,
                        "NORMAL" : 21,
                        "TEXCOORD_0" : 22
                    },
                    "indices" : 23,
                    "material" : 1
                }
            ]
        },
        {
            "name" : "Cube.1215",
            "primitives" : [
                {
                    "attributes" : {
                        "POSITION" : 24,
                        "NORMAL" : 25,
                        "TEXCOORD_0" : 26
                    },
                    "indices" : 27,
                    "material" : 1
                }
            ]
        },
        {
            "name" : "Sphere.038",
            "primitives" : [
                {
                    "attributes" : {
                        "POSITION" : 28,
                        "NORMAL" : 29,
                        "TEXCOORD_0" : 30
                    },
                    "indices" : 31,
                    "material" : 0
                }
            ]
        },
        {
            "name" : "Plane.029",
            "primitives" : [
                {
                    "attributes" : {
                        "POSITION" : 32,
                        "NORMAL" : 33,
                        "TEXCOORD_0" : 34
                    },
                    "indices" : 35,
                    "material" : 0
                }
            ]
        },
        {
            "name" : "Cube.1223",
            "primitives" : [
                {
                    "attributes" : {
                        "POSITION" : 36,
                        "NORMAL" : 37,
                        "TEXCOORD_0" : 38
                    },
                    "indices" : 39,
                    "material" : 0
                }
            ]
        },
        {
            "name" : "Plane.033",
            "primitives" : [
                {
                    "attributes" : {
                        "POSITION" : 40,
                        "NORMAL" : 41,
                        "TEXCOORD_0" : 42
                    },
                    "indices" : 43,
                    "material" : 0
                }
            ]
        },
        {
            "name" : "Circle.637",
            "primitives" : [
                {
                    "attributes" : {
                        "POSITION" : 44,
                        "NORMAL" : 45,
                        "TEXCOORD_0" : 46
                    },
                    "indices" : 47,
                    "material" : 1
                }
            ]
        }
    ],
    "textures" : [
        {
            "sampler" : 0,
            "source" : 0
        },
        {
            "sampler" : 0,
            "source" : 0
        }
    ],
    "images" : [
        {
            "bufferView" : 4,
            "mimeType" : "image/png",
            "name" : "tex"
        }
    ],
    "accessors" : [
        {
            "bufferView" : 0,
            "componentType" : 5126,
            "count" : 1448,
            "max" : [
                0.3479706346988678,
                0.31555572152137756,
                0.5697889924049377
            ],
            "min" : [
                -0.3479706346988678,
                0.07173801958560944,
                0.48670241236686707
            ],
            "type" : "VEC3"
        },
        {
            "bufferView" : 1,
            "componentType" : 5126,
            "count" : 1448,
            "type" : "VEC3"
        },
        {
            "bufferView" : 2,
            "componentType" : 5126,
            "count" : 1448,
            "type" : "VEC2"
        },
        {
            "bufferView" : 3,
            "componentType" : 5123,
            "count" : 6912,
            "type" : "SCALAR"
        },
        {
            "bufferView" : 5,
            "componentType" : 5126,
            "count" : 142,
            "max" : [
                0.0685044378042221,
                0.0597497783601284,
                0.5844470858573914
            ],
            "min" : [
                -0.06649328768253326,
                -0.01729544810950756,
                0.5657129883766174
            ],
            "type" : "VEC3"
        },
        {
            "bufferView" : 6,
            "componentType" : 5126,
            "count" : 142,
            "type" : "VEC3"
        },
        {
            "bufferView" : 7,
            "componentType" : 5126,
            "count" : 142,
            "type" : "VEC2"
        },
        {
            "bufferView" : 8,
            "componentType" : 5123,
            "count" : 528,
            "type" : "SCALAR"
        },
        {
            "bufferView" : 9,
            "componentType" : 5126,
            "count" : 1135,
            "max" : [
                0.8778747320175171,
                0.3865436911582947,
                -0.1062772125005722
            ],
            "min" : [
                -0.8778746724128723,
                -0.0602678619325161,
                -0.36960697174072266
            ],
            "type" : "VEC3"
        },
        {
            "bufferView" : 10,
            "componentType" : 5126,
            "count" : 1135,
            "type" : "VEC3"
        },
        {
            "bufferView" : 11,
            "componentType" : 5126,
            "count" : 1135,
            "type" : "VEC2"
        },
        {
            "bufferView" : 12,
            "componentType" : 5123,
            "count" : 4992,
            "type" : "SCALAR"
        },
        {
            "bufferView" : 13,
            "componentType" : 5126,
            "count" : 837,
            "max" : [
                0.182554692029953,
                -0.13748568296432495,
                0.4926007390022278
            ],
            "min" : [
                -0.17039215564727783,
                -1.352234959602356,
                -0.5395689010620117
            ],
            "type" : "VEC3"
        },
        {
            "bufferView" : 14,
            "componentType" : 5126,
            "count" : 837,
            "type" : "VEC3"
        },
        {
            "bufferView" : 15,
            "componentType" : 5126,
            "count" : 837,
            "type" : "VEC2"
        },
        {
            "bufferView" : 16,
            "componentType" : 5123,
            "count" : 2064,
            "type" : "SCALAR"
        },
        {
            "bufferView" : 17,
            "componentType" : 5126,
            "count" : 1138,
            "max" : [
                0.716685950756073,
                0.8729530572891235,
                0.5776224732398987
            ],
            "min" : [
                -0.7166765332221985,
                -0.8074673414230347,
                -0.9389863610267639
            ],
            "type" : "VEC3"
        },
        {
            "bufferView" : 18,
            "componentType" : 5126,
            "count" : 1138,
            "type" : "VEC3"
        },
        {
            "bufferView" : 19,
            "componentType" : 5126,
            "count" : 1138,
            "type" : "VEC2"
        },
        {
            "bufferView" : 20,
            "componentType" : 5123,
            "count" : 5916,
            "type" : "SCALAR"
        },
        {
            "bufferView" : 21,
            "componentType" : 5126,
            "count" : 316,
            "max" : [
                0.4168711304664612,
                0.46143001317977905,
                0.5363572835922241
            ],
            "min" : [
                -0.4168711304664612,
                0.31167683005332947,
                0.41307270526885986
            ],
            "type" : "VEC3"
        },
        {
            "bufferView" : 22,
            "componentType" : 5126,
            "count" : 316,
            "type" : "VEC3"
        },
        {
            "bufferView" : 23,
            "componentType" : 5126,
            "count" : 316,
            "type" : "VEC2"
        },
        {
            "bufferView" : 24,
            "componentType" : 5123,
            "count" : 1152,
            "type" : "SCALAR"
        },
        {
            "bufferView" : 25,
            "componentType" : 5126,
            "count" : 1310,
            "max" : [
                0.7708356380462646,
                1.073990821838379,
                0.7736537456512451
            ],
            "min" : [
                -0.7971862554550171,
                0.01777304708957672,
                -0.9953101873397827
            ],
            "type" : "VEC3"
        },
        {
            "bufferView" : 26,
            "componentType" : 5126,
            "count" : 1310,
            "type" : "VEC3"
        },
        {
            "bufferView" : 27,
            "componentType" : 5126,
            "count" : 1310,
            "type" : "VEC2"
        },
        {
            "bufferView" : 28,
            "componentType" : 5123,
            "count" : 3132,
            "type" : "SCALAR"
        },
        {
            "bufferView" : 29,
            "componentType" : 5126,
            "count" : 489,
            "max" : [
                0.7500002384185791,
                -0.626502275466919,
                0.05096202343702316
            ],
            "min" : [
                -0.7500002384185791,
                -1.3491907119750977,
                -0.9490382075309753
            ],
            "type" : "VEC3"
        },
        {
            "bufferView" : 30,
            "componentType" : 5126,
            "count" : 489,
            "type" : "VEC3"
        },
        {
            "bufferView" : 31,
            "componentType" : 5126,
            "count" : 489,
            "type" : "VEC2"
        },
        {
            "bufferView" : 32,
            "componentType" : 5123,
            "count" : 2418,
            "type" : "SCALAR"
        },
        {
            "bufferView" : 33,
            "componentType" : 5126,
            "count" : 1096,
            "max" : [
                0.7113017439842224,
                0.37944793701171875,
                0.57606041431427
            ],
            "min" : [
                -0.7113017439842224,
                -0.014541777782142162,
                -0.4510935842990875
            ],
            "type" : "VEC3"
        },
        {
            "bufferView" : 34,
            "componentType" : 5126,
            "count" : 1096,
            "type" : "VEC3"
        },
        {
            "bufferView" : 35,
            "componentType" : 5126,
            "count" : 1096,
            "type" : "VEC2"
        },
        {
            "bufferView" : 36,
            "componentType" : 5123,
            "count" : 4296,
            "type" : "SCALAR"
        },
        {
            "bufferView" : 37,
            "componentType" : 5126,
            "count" : 224,
            "max" : [
                0.3627723455429077,
                -0.6576339602470398,
                0.37036821246147156
            ],
            "min" : [
                -0.6665924787521362,
                -1.784508228302002,
                0.0554409921169281
            ],
            "type" : "VEC3"
        },
        {
            "bufferView" : 38,
            "componentType" : 5126,
            "count" : 224,
            "type" : "VEC3"
        },
        {
            "bufferView" : 39,
            "componentType" : 5126,
            "count" : 224,
            "type" : "VEC2"
        },
        {
            "bufferView" : 40,
            "componentType" : 5123,
            "count" : 564,
            "type" : "SCALAR"
        },
        {
            "bufferView" : 41,
            "componentType" : 5126,
            "count" : 88,
            "max" : [
                1.4968045949935913,
                1.1180965900421143,
                -1.4990620613098145
            ],
            "min" : [
                -1.4968043565750122,
                -0.9380965232849121,
                -1.564607858657837
            ],
            "type" : "VEC3"
        },
        {
            "bufferView" : 42,
            "componentType" : 5126,
            "count" : 88,
            "type" : "VEC3"
        },
        {
            "bufferView" : 43,
            "componentType" : 5126,
            "count" : 88,
            "type" : "VEC2"
        },
        {
            "bufferView" : 44,
            "componentType" : 5123,
            "count" : 132,
            "type" : "SCALAR"
        },
        {
            "bufferView" : 45,
            "componentType" : 5126,
            "count" : 316,
            "max" : [
                0.3111232817173004,
                -0.012977341189980507,
                0.5797182321548462
            ],
            "min" : [
                -0.3111232817173004,
                -0.14835144579410553,
                0.4792216122150421
            ],
            "type" : "VEC3"
        },
        {
            "bufferView" : 46,
            "componentType" : 5126,
            "count" : 316,
            "type" : "VEC3"
        },
        {
            "bufferView" : 47,
            "componentType" : 5126,
            "count" : 316,
            "type" : "VEC2"
        },
        {
            "bufferView" : 48,
            "componentType" : 5123,
            "count" : 1152,
            "type" : "SCALAR"
        }
    ],
    "bufferViews" : [
        {
            "buffer" : 0,
            "byteLength" : 17376,
            "byteOffset" : 0
        },
        {
            "buffer" : 0,
            "byteLength" : 17376,
            "byteOffset" : 17376
        },
        {
            "buffer" : 0,
            "byteLength" : 11584,
            "byteOffset" : 34752
        },
        {
            "buffer" : 0,
            "byteLength" : 13824,
            "byteOffset" : 46336
        },
        {
            "buffer" : 0,
            "byteLength" : 11997,
            "byteOffset" : 60160
        },
        {
            "buffer" : 0,
            "byteLength" : 1704,
            "byteOffset" : 72160
        },
        {
            "buffer" : 0,
            "byteLength" : 1704,
            "byteOffset" : 73864
        },
        {
            "buffer" : 0,
            "byteLength" : 1136,
            "byteOffset" : 75568
        },
        {
            "buffer" : 0,
            "byteLength" : 1056,
            "byteOffset" : 76704
        },
        {
            "buffer" : 0,
            "byteLength" : 13620,
            "byteOffset" : 77760
        },
        {
            "buffer" : 0,
            "byteLength" : 13620,
            "byteOffset" : 91380
        },
        {
            "buffer" : 0,
            "byteLength" : 9080,
            "byteOffset" : 105000
        },
        {
            "buffer" : 0,
            "byteLength" : 9984,
            "byteOffset" : 114080
        },
        {
            "buffer" : 0,
            "byteLength" : 10044,
            "byteOffset" : 124064
        },
        {
            "buffer" : 0,
            "byteLength" : 10044,
            "byteOffset" : 134108
        },
        {
            "buffer" : 0,
            "byteLength" : 6696,
            "byteOffset" : 144152
        },
        {
            "buffer" : 0,
            "byteLength" : 4128,
            "byteOffset" : 150848
        },
        {
            "buffer" : 0,
            "byteLength" : 13656,
            "byteOffset" : 154976
        },
        {
            "buffer" : 0,
            "byteLength" : 13656,
            "byteOffset" : 168632
        },
        {
            "buffer" : 0,
            "byteLength" : 9104,
            "byteOffset" : 182288
        },
        {
            "buffer" : 0,
            "byteLength" : 11832,
            "byteOffset" : 191392
        },
        {
            "buffer" : 0,
            "byteLength" : 3792,
            "byteOffset" : 203224
        },
        {
            "buffer" : 0,
            "byteLength" : 3792,
            "byteOffset" : 207016
        },
        {
            "buffer" : 0,
            "byteLength" : 2528,
            "byteOffset" : 210808
        },
        {
            "buffer" : 0,
            "byteLength" : 2304,
            "byteOffset" : 213336
        },
        {
            "buffer" : 0,
            "byteLength" : 15720,
            "byteOffset" : 215640
        },
        {
            "buffer" : 0,
            "byteLength" : 15720,
            "byteOffset" : 231360
        },
        {
            "buffer" : 0,
            "byteLength" : 10480,
            "byteOffset" : 247080
        },
        {
            "buffer" : 0,
            "byteLength" : 6264,
            "byteOffset" : 257560
        },
        {
            "buffer" : 0,
            "byteLength" : 5868,
            "byteOffset" : 263824
        },
        {
            "buffer" : 0,
            "byteLength" : 5868,
            "byteOffset" : 269692
        },
        {
            "buffer" : 0,
            "byteLength" : 3912,
            "byteOffset" : 275560
        },
        {
            "buffer" : 0,
            "byteLength" : 4836,
            "byteOffset" : 279472
        },
        {
            "buffer" : 0,
            "byteLength" : 13152,
            "byteOffset" : 284308
        },
        {
            "buffer" : 0,
            "byteLength" : 13152,
            "byteOffset" : 297460
        },
        {
            "buffer" : 0,
            "byteLength" : 8768,
            "byteOffset" : 310612
        },
        {
            "buffer" : 0,
            "byteLength" : 8592,
            "byteOffset" : 319380
        },
        {
            "buffer" : 0,
            "byteLength" : 2688,
            "byteOffset" : 327972
        },
        {
            "buffer" : 0,
            "byteLength" : 2688,
            "byteOffset" : 330660
        },
        {
            "buffer" : 0,
            "byteLength" : 1792,
            "byteOffset" : 333348
        },
        {
            "buffer" : 0,
            "byteLength" : 1128,
            "byteOffset" : 335140
        },
        {
            "buffer" : 0,
            "byteLength" : 1056,
            "byteOffset" : 336268
        },
        {
            "buffer" : 0,
            "byteLength" : 1056,
            "byteOffset" : 337324
        },
        {
            "buffer" : 0,
            "byteLength" : 704,
            "byteOffset" : 338380
        },
        {
            "buffer" : 0,
            "byteLength" : 264,
            "byteOffset" : 339084
        },
        {
            "buffer" : 0,
            "byteLength" : 3792,
            "byteOffset" : 339348
        },
        {
            "buffer" : 0,
            "byteLength" : 3792,
            "byteOffset" : 343140
        },
        {
            "buffer" : 0,
            "byteLength" : 2528,
            "byteOffset" : 346932
        },
        {
            "buffer" : 0,
            "byteLength" : 2304,
            "byteOffset" : 349460
        }
    ],
    "samplers" : [
        {
            "magFilter" : 9729,
            "minFilter" : 9987
        }
    ],
    "buffers" : [
        {
            "byteLength" : 351764,
            "uri" : "data:application/octet-stream;base64,"
        }
    ]
}
