{
    "asset" : {
        "copyright" : "Jeremy Edelblut",
        "generator" : "Khronos glTF Blender I/O v1.6.16",
        "version" : "2.0"
    },
    "scene" : 0,
    "scenes" : [
        {
            "name" : "Scene",
            "nodes" : [
                0,
                1
            ]
        }
    ],
    "nodes" : [
        {
            "mesh" : 0,
            "name" : "Cube.289",
            "rotation" : [
                0,
                0,
                -0.9221543073654175,
                0.3868221938610077
            ],
            "scale" : [
                0.9576630592346191,
                0.9576630592346191,
                0.9576629996299744
            ],
            "translation" : [
                -0.16929499804973602,
                0.05669645965099335,
                0
            ]
        },
        {
            "mesh" : 1,
            "name" : "Circle.034",
            "rotation" : [
                -0.5600943565368652,
                0.5329526662826538,
                -0.14370115101337433,
                0.6177425980567932
            ],
            "scale" : [
                0.2052217423915863,
                0.20522169768810272,
                0.2052217274904251
            ],
            "translation" : [
                -0.8081448674201965,
                0.5649089217185974,
                -0.0004446856619324535
            ]
        }
    ],
    "materials" : [
        {
            "doubleSided" : true,
            "name" : "Color",
            "pbrMetallicRoughness" : {
                "baseColorTexture" : {
                    "index" : 0
                },
                "metallicFactor" : 0,
                "roughnessFactor" : 0.5
            }
        }
    ],
    "meshes" : [
        {
            "name" : "Cube.659",
            "primitives" : [
                {
                    "attributes" : {
                        "POSITION" : 0,
                        "NORMAL" : 1,
                        "TEXCOORD_0" : 2
                    },
                    "indices" : 3,
                    "material" : 0
                }
            ]
        },
        {
            "name" : "Circle.050",
            "primitives" : [
                {
                    "attributes" : {
                        "POSITION" : 4,
                        "NORMAL" : 5,
                        "TEXCOORD_0" : 6
                    },
                    "indices" : 7,
                    "material" : 0
                }
            ]
        }
    ],
    "textures" : [
        {
            "sampler" : 0,
            "source" : 0
        }
    ],
    "images" : [
        {
            "bufferView" : 4,
            "mimeType" : "image/png",
            "name" : "tex2"
        }
    ],
    "accessors" : [
        {
            "bufferView" : 0,
            "componentType" : 5126,
            "count" : 498,
            "max" : [
                0.8332071304321289,
                1.4519970417022705,
                0.5917298793792725
            ],
            "min" : [
                -0.8458054065704346,
                -1.1527862548828125,
                -0.5917298793792725
            ],
            "type" : "VEC3"
        },
        {
            "bufferView" : 1,
            "componentType" : 5126,
            "count" : 498,
            "type" : "VEC3"
        },
        {
            "bufferView" : 2,
            "componentType" : 5126,
            "count" : 498,
            "type" : "VEC2"
        },
        {
            "bufferView" : 3,
            "componentType" : 5123,
            "count" : 2826,
            "type" : "SCALAR"
        },
        {
            "bufferView" : 5,
            "componentType" : 5126,
            "count" : 588,
            "max" : [
                0.01929970271885395,
                1.0017426013946533,
                4.3060221672058105
            ],
            "min" : [
                -0.8919965624809265,
                -0.9982576370239258,
                0.006993054877966642
            ],
            "type" : "VEC3"
        },
        {
            "bufferView" : 6,
            "componentType" : 5126,
            "count" : 588,
            "type" : "VEC3"
        },
        {
            "bufferView" : 7,
            "componentType" : 5126,
            "count" : 588,
            "type" : "VEC2"
        },
        {
            "bufferView" : 8,
            "componentType" : 5123,
            "count" : 2640,
            "type" : "SCALAR"
        }
    ],
    "bufferViews" : [
        {
            "buffer" : 0,
            "byteLength" : 5976,
            "byteOffset" : 0
        },
        {
            "buffer" : 0,
            "byteLength" : 5976,
            "byteOffset" : 5976
        },
        {
            "buffer" : 0,
            "byteLength" : 3984,
            "byteOffset" : 11952
        },
        {
            "buffer" : 0,
            "byteLength" : 5652,
            "byteOffset" : 15936
        },
        {
            "buffer" : 0,
            "byteLength" : 6474,
            "byteOffset" : 21588
        },
        {
            "buffer" : 0,
            "byteLength" : 7056,
            "byteOffset" : 28064
        },
        {
            "buffer" : 0,
            "byteLength" : 7056,
            "byteOffset" : 35120
        },
        {
            "buffer" : 0,
            "byteLength" : 4704,
            "byteOffset" : 42176
        },
        {
            "buffer" : 0,
            "byteLength" : 5280,
            "byteOffset" : 46880
        }
    ],
    "samplers" : [
        {
            "magFilter" : 9729,
            "minFilter" : 9987
        }
    ],
    "buffers" : [
        {
            "byteLength" : 52160,
            "uri" : "data:application/octet-stream;base64,"
        }
    ]
}
