{
    "asset" : {
        "copyright" : "Jeremy Edelblut",
        "generator" : "Khronos glTF Blender I/O v1.6.16",
        "version" : "2.0"
    },
    "scene" : 0,
    "scenes" : [
        {
            "name" : "Scene",
            "nodes" : [
                0
            ]
        }
    ],
    "nodes" : [
        {
            "mesh" : 0,
            "name" : "Sphere.362",
            "rotation" : [
                0,
                -0.7071068286895752,
                0,
                0.7071068286895752
            ]
        }
    ],
    "materials" : [
        {
            "doubleSided" : true,
            "name" : "DKBrown",
            "pbrMetallicRoughness" : {
                "baseColorFactor" : [
                    0.010021701455116272,
                    0.0023923655971884727,
                    0.0018060366855934262,
                    1
                ],
                "metallicFactor" : 0,
                "roughnessFactor" : 0.5
            }
        },
        {
            "doubleSided" : true,
            "name" : "Brown",
            "pbrMetallicRoughness" : {
                "baseColorFactor" : [
                    0.07322511821985245,
                    0.02384052984416485,
                    0.021921303123235703,
                    1
                ],
                "metallicFactor" : 0,
                "roughnessFactor" : 0.5
            }
        }
    ],
    "meshes" : [
        {
            "name" : "Sphere.318",
            "primitives" : [
                {
                    "attributes" : {
                        "POSITION" : 0,
                        "NORMAL" : 1,
                        "TEXCOORD_0" : 2
                    },
                    "indices" : 3,
                    "material" : 0
                },
                {
                    "attributes" : {
                        "POSITION" : 4,
                        "NORMAL" : 5,
                        "TEXCOORD_0" : 6
                    },
                    "indices" : 7,
                    "material" : 1
                }
            ]
        }
    ],
    "accessors" : [
        {
            "bufferView" : 0,
            "componentType" : 5126,
            "count" : 488,
            "max" : [
                0.5479429960250854,
                0.5085345506668091,
                1.0994127988815308
            ],
            "min" : [
                -0.5479428768157959,
                -0.23997463285923004,
                -1.0923584699630737
            ],
            "type" : "VEC3"
        },
        {
            "bufferView" : 1,
            "componentType" : 5126,
            "count" : 488,
            "type" : "VEC3"
        },
        {
            "bufferView" : 2,
            "componentType" : 5126,
            "count" : 488,
            "type" : "VEC2"
        },
        {
            "bufferView" : 3,
            "componentType" : 5123,
            "count" : 1398,
            "type" : "SCALAR"
        },
        {
            "bufferView" : 4,
            "componentType" : 5126,
            "count" : 910,
            "max" : [
                0.5362791419029236,
                0.6822715997695923,
                1.04880952835083
            ],
            "min" : [
                -0.5362789034843445,
                -0.04198154807090759,
                -1.0413316488265991
            ],
            "type" : "VEC3"
        },
        {
            "bufferView" : 5,
            "componentType" : 5126,
            "count" : 910,
            "type" : "VEC3"
        },
        {
            "bufferView" : 6,
            "componentType" : 5126,
            "count" : 910,
            "type" : "VEC2"
        },
        {
            "bufferView" : 7,
            "componentType" : 5123,
            "count" : 3648,
            "type" : "SCALAR"
        }
    ],
    "bufferViews" : [
        {
            "buffer" : 0,
            "byteLength" : 5856,
            "byteOffset" : 0
        },
        {
            "buffer" : 0,
            "byteLength" : 5856,
            "byteOffset" : 5856
        },
        {
            "buffer" : 0,
            "byteLength" : 3904,
            "byteOffset" : 11712
        },
        {
            "buffer" : 0,
            "byteLength" : 2796,
            "byteOffset" : 15616
        },
        {
            "buffer" : 0,
            "byteLength" : 10920,
            "byteOffset" : 18412
        },
        {
            "buffer" : 0,
            "byteLength" : 10920,
            "byteOffset" : 29332
        },
        {
            "buffer" : 0,
            "byteLength" : 7280,
            "byteOffset" : 40252
        },
        {
            "buffer" : 0,
            "byteLength" : 7296,
            "byteOffset" : 47532
        }
    ],
    "buffers" : [
        {
            "byteLength" : 54828,
            "uri" : "data:application/octet-stream;base64,"
        }
    ]
}
