{
    "asset" : {
        "copyright" : "Jeremy Edelblut",
        "generator" : "Khronos glTF Blender I/O v1.6.16",
        "version" : "2.0"
    },
    "scene" : 0,
    "scenes" : [
        {
            "name" : "Scene",
            "nodes" : [
                0
            ]
        }
    ],
    "nodes" : [
        {
            "mesh" : 0,
            "name" : "Plane.180",
            "rotation" : [
                0.36588820815086365,
                0.36588820815086365,
                -0.6050833463668823,
                0.6050832867622375
            ],
            "scale" : [
                0.4659264087677002,
                0.4659264087677002,
                0.4659264087677002
            ],
            "translation" : [
                0,
                0.12915624678134918,
                -0.007827654480934143
            ]
        }
    ],
    "materials" : [
        {
            "doubleSided" : true,
            "name" : "Color",
            "pbrMetallicRoughness" : {
                "baseColorTexture" : {
                    "index" : 0
                },
                "metallicFactor" : 0,
                "roughnessFactor" : 0.5
            }
        }
    ],
    "meshes" : [
        {
            "name" : "Plane.177",
            "primitives" : [
                {
                    "attributes" : {
                        "POSITION" : 0,
                        "NORMAL" : 1,
                        "TEXCOORD_0" : 2
                    },
                    "indices" : 3,
                    "material" : 0
                }
            ]
        }
    ],
    "textures" : [
        {
            "sampler" : 0,
            "source" : 0
        }
    ],
    "images" : [
        {
            "bufferView" : 4,
            "mimeType" : "image/png",
            "name" : "tex"
        }
    ],
    "accessors" : [
        {
            "bufferView" : 0,
            "componentType" : 5126,
            "count" : 881,
            "max" : [
                1.9817702770233154,
                0.2616509795188904,
                2.085951566696167
            ],
            "min" : [
                -1.9890367984771729,
                -0.0673476904630661,
                -1.6986291408538818
            ],
            "type" : "VEC3"
        },
        {
            "bufferView" : 1,
            "componentType" : 5126,
            "count" : 881,
            "type" : "VEC3"
        },
        {
            "bufferView" : 2,
            "componentType" : 5126,
            "count" : 881,
            "type" : "VEC2"
        },
        {
            "bufferView" : 3,
            "componentType" : 5123,
            "count" : 2604,
            "type" : "SCALAR"
        }
    ],
    "bufferViews" : [
        {
            "buffer" : 0,
            "byteLength" : 10572,
            "byteOffset" : 0
        },
        {
            "buffer" : 0,
            "byteLength" : 10572,
            "byteOffset" : 10572
        },
        {
            "buffer" : 0,
            "byteLength" : 7048,
            "byteOffset" : 21144
        },
        {
            "buffer" : 0,
            "byteLength" : 5208,
            "byteOffset" : 28192
        },
        {
            "buffer" : 0,
            "byteLength" : 1322,
            "byteOffset" : 33400
        }
    ],
    "samplers" : [
        {
            "magFilter" : 9729,
            "minFilter" : 9987
        }
    ],
    "buffers" : [
        {
            "byteLength" : 34724,
            "uri" : "data:application/octet-stream;base64,"
        }
    ]
}
