{
    "asset" : {
        "copyright" : "Jeremy Edelblut",
        "generator" : "Khronos glTF Blender I/O v1.6.16",
        "version" : "2.0"
    },
    "scene" : 0,
    "scenes" : [
        {
            "name" : "Scene",
            "nodes" : [
                0,
                1
            ]
        }
    ],
    "nodes" : [
        {
            "mesh" : 0,
            "name" : "Cube.105"
        },
        {
            "mesh" : 1,
            "name" : "3moji.org.037",
            "rotation" : [
                -0.11433377861976624,
                0.9934424161911011,
                0,
                -6.273236294873641e-07
            ],
            "scale" : [
                0.0015659492928534746,
                0.0015659492928534746,
                0.001565949060022831
            ],
            "translation" : [
                -0.3416863977909088,
                0.6009904742240906,
                0.017322290688753128
            ]
        }
    ],
    "materials" : [
        {
            "doubleSided" : true,
            "name" : "Color",
            "pbrMetallicRoughness" : {
                "baseColorTexture" : {
                    "index" : 0
                },
                "metallicFactor" : 0,
                "roughnessFactor" : 0.5
            }
        }
    ],
    "meshes" : [
        {
            "name" : "Cube.195",
            "primitives" : [
                {
                    "attributes" : {
                        "POSITION" : 0,
                        "NORMAL" : 1,
                        "TEXCOORD_0" : 2
                    },
                    "indices" : 3,
                    "material" : 0
                }
            ]
        },
        {
            "name" : "Cube.192",
            "primitives" : [
                {
                    "attributes" : {
                        "POSITION" : 4,
                        "NORMAL" : 5,
                        "TEXCOORD_0" : 6
                    },
                    "indices" : 7,
                    "material" : 0
                }
            ]
        }
    ],
    "textures" : [
        {
            "sampler" : 0,
            "source" : 0
        }
    ],
    "images" : [
        {
            "bufferView" : 4,
            "mimeType" : "image/png",
            "name" : "tex"
        }
    ],
    "accessors" : [
        {
            "bufferView" : 0,
            "componentType" : 5126,
            "count" : 1794,
            "max" : [
                0.34715116024017334,
                0.914775550365448,
                0.29702213406562805
            ],
            "min" : [
                -0.3932874798774719,
                -0.8930412530899048,
                -0.2668094336986542
            ],
            "type" : "VEC3"
        },
        {
            "bufferView" : 1,
            "componentType" : 5126,
            "count" : 1794,
            "type" : "VEC3"
        },
        {
            "bufferView" : 2,
            "componentType" : 5126,
            "count" : 1794,
            "type" : "VEC2"
        },
        {
            "bufferView" : 3,
            "componentType" : 5123,
            "count" : 7224,
            "type" : "SCALAR"
        },
        {
            "bufferView" : 5,
            "componentType" : 5126,
            "count" : 752,
            "max" : [
                1.2953357696533203,
                7.90000057220459,
                17.240537643432617
            ],
            "min" : [
                2.8697024390567094e-05,
                -1.8999989032745361,
                -19.159460067749023
            ],
            "type" : "VEC3"
        },
        {
            "bufferView" : 6,
            "componentType" : 5126,
            "count" : 752,
            "type" : "VEC3"
        },
        {
            "bufferView" : 7,
            "componentType" : 5126,
            "count" : 752,
            "type" : "VEC2"
        },
        {
            "bufferView" : 8,
            "componentType" : 5123,
            "count" : 1680,
            "type" : "SCALAR"
        }
    ],
    "bufferViews" : [
        {
            "buffer" : 0,
            "byteLength" : 21528,
            "byteOffset" : 0
        },
        {
            "buffer" : 0,
            "byteLength" : 21528,
            "byteOffset" : 21528
        },
        {
            "buffer" : 0,
            "byteLength" : 14352,
            "byteOffset" : 43056
        },
        {
            "buffer" : 0,
            "byteLength" : 14448,
            "byteOffset" : 57408
        },
        {
            "buffer" : 0,
            "byteLength" : 3214,
            "byteOffset" : 71856
        },
        {
            "buffer" : 0,
            "byteLength" : 9024,
            "byteOffset" : 75072
        },
        {
            "buffer" : 0,
            "byteLength" : 9024,
            "byteOffset" : 84096
        },
        {
            "buffer" : 0,
            "byteLength" : 6016,
            "byteOffset" : 93120
        },
        {
            "buffer" : 0,
            "byteLength" : 3360,
            "byteOffset" : 99136
        }
    ],
    "samplers" : [
        {
            "magFilter" : 9729,
            "minFilter" : 9987
        }
    ],
    "buffers" : [
        {
            "byteLength" : 102496,
            "uri" : "data:application/octet-stream;base64,"
        }
    ]
}
