{
    "asset" : {
        "copyright" : "Jeremy Edelblut",
        "generator" : "Khronos glTF Blender I/O v1.7.33",
        "version" : "2.0"
    },
    "scene" : 0,
    "scenes" : [
        {
            "name" : "Scene",
            "nodes" : [
                0,
                1
            ]
        }
    ],
    "nodes" : [
        {
            "mesh" : 0,
            "name" : "Cube.103"
        },
        {
            "mesh" : 1,
            "name" : "3moji.org.036",
            "rotation" : [
                0,
                0,
                0,
                -1
            ],
            "scale" : [
                0.0022332482039928436,
                0.0022332482039928436,
                0.0022332482039928436
            ],
            "translation" : [
                0.7819097638130188,
                -0.4725833833217621,
                -0.021681632846593857
            ]
        }
    ],
    "materials" : [
        {
            "doubleSided" : true,
            "name" : "color",
            "pbrMetallicRoughness" : {
                "baseColorTexture" : {
                    "index" : 0
                },
                "metallicFactor" : 0,
                "roughnessFactor" : 0.5
            }
        }
    ],
    "meshes" : [
        {
            "name" : "Cube.218",
            "primitives" : [
                {
                    "attributes" : {
                        "POSITION" : 0,
                        "NORMAL" : 1,
                        "TEXCOORD_0" : 2
                    },
                    "indices" : 3,
                    "material" : 0
                }
            ]
        },
        {
            "name" : "Cube.190",
            "primitives" : [
                {
                    "attributes" : {
                        "POSITION" : 4,
                        "NORMAL" : 5,
                        "TEXCOORD_0" : 6
                    },
                    "indices" : 7,
                    "material" : 0
                }
            ]
        }
    ],
    "textures" : [
        {
            "sampler" : 0,
            "source" : 0
        }
    ],
    "images" : [
        {
            "bufferView" : 4,
            "mimeType" : "image/png",
            "name" : "tex"
        }
    ],
    "accessors" : [
        {
            "bufferView" : 0,
            "componentType" : 5126,
            "count" : 3174,
            "max" : [
                0.7833046913146973,
                0.8361832499504089,
                0.3886477053165436
            ],
            "min" : [
                -0.6983457803726196,
                -0.8206986784934998,
                -0.45352160930633545
            ],
            "type" : "VEC3"
        },
        {
            "bufferView" : 1,
            "componentType" : 5126,
            "count" : 3174,
            "type" : "VEC3"
        },
        {
            "bufferView" : 2,
            "componentType" : 5126,
            "count" : 3174,
            "type" : "VEC2"
        },
        {
            "bufferView" : 3,
            "componentType" : 5123,
            "count" : 9768,
            "type" : "SCALAR"
        },
        {
            "bufferView" : 5,
            "componentType" : 5126,
            "count" : 752,
            "max" : [
                1.2953357696533203,
                7.90000057220459,
                17.240537643432617
            ],
            "min" : [
                2.8697024390567094e-05,
                -1.8999989032745361,
                -19.159460067749023
            ],
            "type" : "VEC3"
        },
        {
            "bufferView" : 6,
            "componentType" : 5126,
            "count" : 752,
            "type" : "VEC3"
        },
        {
            "bufferView" : 7,
            "componentType" : 5126,
            "count" : 752,
            "type" : "VEC2"
        },
        {
            "bufferView" : 8,
            "componentType" : 5123,
            "count" : 1680,
            "type" : "SCALAR"
        }
    ],
    "bufferViews" : [
        {
            "buffer" : 0,
            "byteLength" : 38088,
            "byteOffset" : 0
        },
        {
            "buffer" : 0,
            "byteLength" : 38088,
            "byteOffset" : 38088
        },
        {
            "buffer" : 0,
            "byteLength" : 25392,
            "byteOffset" : 76176
        },
        {
            "buffer" : 0,
            "byteLength" : 19536,
            "byteOffset" : 101568
        },
        {
            "buffer" : 0,
            "byteLength" : 11997,
            "byteOffset" : 121104
        },
        {
            "buffer" : 0,
            "byteLength" : 9024,
            "byteOffset" : 133104
        },
        {
            "buffer" : 0,
            "byteLength" : 9024,
            "byteOffset" : 142128
        },
        {
            "buffer" : 0,
            "byteLength" : 6016,
            "byteOffset" : 151152
        },
        {
            "buffer" : 0,
            "byteLength" : 3360,
            "byteOffset" : 157168
        }
    ],
    "samplers" : [
        {
            "magFilter" : 9729,
            "minFilter" : 9987
        }
    ],
    "buffers" : [
        {
            "byteLength" : 160528,
            "uri" : "data:application/octet-stream;base64,"
        }
    ]
}
