{
    "asset" : {
        "copyright" : "Jeremy Edelblut",
        "generator" : "Khronos glTF Blender I/O v1.6.16",
        "version" : "2.0"
    },
    "scene" : 0,
    "scenes" : [
        {
            "name" : "Scene",
            "nodes" : [
                0,
                1
            ]
        }
    ],
    "nodes" : [
        {
            "mesh" : 0,
            "name" : "Circle.2564",
            "rotation" : [
                -0.13263073563575745,
                0.2007720172405243,
                -0.9275259375572205,
                -0.2859988510608673
            ],
            "scale" : [
                0.13409295678138733,
                0.13409295678138733,
                0.13409295678138733
            ],
            "translation" : [
                0.4688691198825836,
                -0.5235973596572876,
                0.38914403319358826
            ]
        },
        {
            "mesh" : 1,
            "name" : "Plane.338",
            "rotation" : [
                0.7071068286895752,
                0,
                0,
                0.7071068286895752
            ],
            "scale" : [
                0.699999988079071,
                0.699999988079071,
                0.699999988079071
            ]
        }
    ],
    "materials" : [
        {
            "doubleSided" : true,
            "name" : "Color",
            "pbrMetallicRoughness" : {
                "baseColorTexture" : {
                    "index" : 0
                },
                "metallicFactor" : 0,
                "roughnessFactor" : 0.5
            }
        }
    ],
    "meshes" : [
        {
            "name" : "Circle.3216",
            "primitives" : [
                {
                    "attributes" : {
                        "POSITION" : 0,
                        "NORMAL" : 1,
                        "TEXCOORD_0" : 2
                    },
                    "indices" : 3,
                    "material" : 0
                }
            ]
        },
        {
            "name" : "Plane.347",
            "primitives" : [
                {
                    "attributes" : {
                        "POSITION" : 4,
                        "NORMAL" : 5,
                        "TEXCOORD_0" : 6
                    },
                    "indices" : 7,
                    "material" : 0
                }
            ]
        }
    ],
    "textures" : [
        {
            "sampler" : 0,
            "source" : 0
        }
    ],
    "images" : [
        {
            "bufferView" : 4,
            "mimeType" : "image/png",
            "name" : "tex"
        }
    ],
    "accessors" : [
        {
            "bufferView" : 0,
            "componentType" : 5126,
            "count" : 769,
            "max" : [
                1.1006486415863037,
                4.858796119689941,
                1.1006484031677246
            ],
            "min" : [
                -1.1006481647491455,
                -4.462512016296387,
                -1.1006484031677246
            ],
            "type" : "VEC3"
        },
        {
            "bufferView" : 1,
            "componentType" : 5126,
            "count" : 769,
            "type" : "VEC3"
        },
        {
            "bufferView" : 2,
            "componentType" : 5126,
            "count" : 769,
            "type" : "VEC2"
        },
        {
            "bufferView" : 3,
            "componentType" : 5123,
            "count" : 3018,
            "type" : "SCALAR"
        },
        {
            "bufferView" : 5,
            "componentType" : 5126,
            "count" : 578,
            "max" : [
                1.1720585823059082,
                0.16448906064033508,
                1.6964523792266846
            ],
            "min" : [
                -1.1715821027755737,
                -0.037401583045721054,
                -1.704613208770752
            ],
            "type" : "VEC3"
        },
        {
            "bufferView" : 6,
            "componentType" : 5126,
            "count" : 578,
            "type" : "VEC3"
        },
        {
            "bufferView" : 7,
            "componentType" : 5126,
            "count" : 578,
            "type" : "VEC2"
        },
        {
            "bufferView" : 8,
            "componentType" : 5123,
            "count" : 1140,
            "type" : "SCALAR"
        }
    ],
    "bufferViews" : [
        {
            "buffer" : 0,
            "byteLength" : 9228,
            "byteOffset" : 0
        },
        {
            "buffer" : 0,
            "byteLength" : 9228,
            "byteOffset" : 9228
        },
        {
            "buffer" : 0,
            "byteLength" : 6152,
            "byteOffset" : 18456
        },
        {
            "buffer" : 0,
            "byteLength" : 6036,
            "byteOffset" : 24608
        },
        {
            "buffer" : 0,
            "byteLength" : 3214,
            "byteOffset" : 30644
        },
        {
            "buffer" : 0,
            "byteLength" : 6936,
            "byteOffset" : 33860
        },
        {
            "buffer" : 0,
            "byteLength" : 6936,
            "byteOffset" : 40796
        },
        {
            "buffer" : 0,
            "byteLength" : 4624,
            "byteOffset" : 47732
        },
        {
            "buffer" : 0,
            "byteLength" : 2280,
            "byteOffset" : 52356
        }
    ],
    "samplers" : [
        {
            "magFilter" : 9729,
            "minFilter" : 9987
        }
    ],
    "buffers" : [
        {
            "byteLength" : 54636,
            "uri" : "data:application/octet-stream;base64,"
        }
    ]
}
