{
    "asset" : {
        "copyright" : "Jeremy Edelblut",
        "generator" : "Khronos glTF Blender I/O v1.6.16",
        "version" : "2.0"
    },
    "scene" : 0,
    "scenes" : [
        {
            "name" : "Scene",
            "nodes" : [
                0,
                1
            ]
        }
    ],
    "nodes" : [
        {
            "mesh" : 0,
            "name" : "hand.023"
        },
        {
            "mesh" : 1,
            "name" : "3moji.org.017",
            "rotation" : [
                -0.5023540258407593,
                0.4995187222957611,
                0.5102499127388,
                -0.48761311173439026
            ],
            "scale" : [
                0.0014228116488084197,
                0.0014228118816390634,
                0.0014228116488084197
            ],
            "translation" : [
                0.13463355600833893,
                -0.8793414235115051,
                -0.017025792971253395
            ]
        }
    ],
    "materials" : [
        {
            "doubleSided" : true,
            "name" : "Color",
            "pbrMetallicRoughness" : {
                "baseColorTexture" : {
                    "index" : 0
                },
                "metallicFactor" : 0,
                "roughnessFactor" : 0.5
            }
        }
    ],
    "meshes" : [
        {
            "name" : "Circle.280",
            "primitives" : [
                {
                    "attributes" : {
                        "POSITION" : 0,
                        "NORMAL" : 1,
                        "TEXCOORD_0" : 2
                    },
                    "indices" : 3,
                    "material" : 0
                }
            ]
        },
        {
            "name" : "Cube.081",
            "primitives" : [
                {
                    "attributes" : {
                        "POSITION" : 4,
                        "NORMAL" : 5,
                        "TEXCOORD_0" : 6
                    },
                    "indices" : 7,
                    "material" : 0
                }
            ]
        }
    ],
    "textures" : [
        {
            "sampler" : 0,
            "source" : 0
        }
    ],
    "images" : [
        {
            "bufferView" : 4,
            "mimeType" : "image/png",
            "name" : "tex"
        }
    ],
    "accessors" : [
        {
            "bufferView" : 0,
            "componentType" : 5126,
            "count" : 2421,
            "max" : [
                0.6440330147743225,
                1.0653237104415894,
                0.21853457391262054
            ],
            "min" : [
                -0.8636917471885681,
                -0.8813016414642334,
                -0.4366663992404938
            ],
            "type" : "VEC3"
        },
        {
            "bufferView" : 1,
            "componentType" : 5126,
            "count" : 2421,
            "type" : "VEC3"
        },
        {
            "bufferView" : 2,
            "componentType" : 5126,
            "count" : 2421,
            "type" : "VEC2"
        },
        {
            "bufferView" : 3,
            "componentType" : 5123,
            "count" : 13320,
            "type" : "SCALAR"
        },
        {
            "bufferView" : 5,
            "componentType" : 5126,
            "count" : 752,
            "max" : [
                1.2953357696533203,
                7.90000057220459,
                17.240537643432617
            ],
            "min" : [
                2.8697024390567094e-05,
                -1.8999989032745361,
                -19.159460067749023
            ],
            "type" : "VEC3"
        },
        {
            "bufferView" : 6,
            "componentType" : 5126,
            "count" : 752,
            "type" : "VEC3"
        },
        {
            "bufferView" : 7,
            "componentType" : 5126,
            "count" : 752,
            "type" : "VEC2"
        },
        {
            "bufferView" : 8,
            "componentType" : 5123,
            "count" : 1680,
            "type" : "SCALAR"
        }
    ],
    "bufferViews" : [
        {
            "buffer" : 0,
            "byteLength" : 29052,
            "byteOffset" : 0
        },
        {
            "buffer" : 0,
            "byteLength" : 29052,
            "byteOffset" : 29052
        },
        {
            "buffer" : 0,
            "byteLength" : 19368,
            "byteOffset" : 58104
        },
        {
            "buffer" : 0,
            "byteLength" : 26640,
            "byteOffset" : 77472
        },
        {
            "buffer" : 0,
            "byteLength" : 3214,
            "byteOffset" : 104112
        },
        {
            "buffer" : 0,
            "byteLength" : 9024,
            "byteOffset" : 107328
        },
        {
            "buffer" : 0,
            "byteLength" : 9024,
            "byteOffset" : 116352
        },
        {
            "buffer" : 0,
            "byteLength" : 6016,
            "byteOffset" : 125376
        },
        {
            "buffer" : 0,
            "byteLength" : 3360,
            "byteOffset" : 131392
        }
    ],
    "samplers" : [
        {
            "magFilter" : 9729,
            "minFilter" : 9987
        }
    ],
    "buffers" : [
        {
            "byteLength" : 134752,
            "uri" : "data:application/octet-stream;base64,"
        }
    ]
}
