{
    "asset" : {
        "copyright" : "Jeremy Edelblut",
        "generator" : "Khronos glTF Blender I/O v1.7.33",
        "version" : "2.0"
    },
    "scene" : 0,
    "scenes" : [
        {
            "name" : "Scene",
            "nodes" : [
                0,
                1
            ]
        }
    ],
    "nodes" : [
        {
            "mesh" : 0,
            "name" : "Cube.594",
            "scale" : [
                1.2519609928131104,
                1.2519609928131104,
                1.2519609928131104
            ],
            "translation" : [
                -0.022232018411159515,
                -0.4525454342365265,
                0
            ]
        },
        {
            "mesh" : 1,
            "name" : "Cube.595",
            "rotation" : [
                0,
                1,
                0,
                -1.6292068494294654e-07
            ],
            "scale" : [
                0.4406559467315674,
                0.4406559467315674,
                0.4406559467315674
            ],
            "translation" : [
                -0.40615934133529663,
                0.3751390874385834,
                0
            ]
        }
    ],
    "materials" : [
        {
            "doubleSided" : true,
            "name" : "color",
            "pbrMetallicRoughness" : {
                "baseColorTexture" : {
                    "index" : 0
                },
                "metallicFactor" : 0,
                "roughnessFactor" : 0.5
            }
        }
    ],
    "meshes" : [
        {
            "name" : "Cube.900",
            "primitives" : [
                {
                    "attributes" : {
                        "POSITION" : 0,
                        "NORMAL" : 1,
                        "TEXCOORD_0" : 2
                    },
                    "indices" : 3,
                    "material" : 0
                }
            ]
        },
        {
            "name" : "Cube.901",
            "primitives" : [
                {
                    "attributes" : {
                        "POSITION" : 4,
                        "NORMAL" : 5,
                        "TEXCOORD_0" : 6
                    },
                    "indices" : 7,
                    "material" : 0
                }
            ]
        }
    ],
    "textures" : [
        {
            "sampler" : 0,
            "source" : 0
        }
    ],
    "images" : [
        {
            "bufferView" : 4,
            "mimeType" : "image/png",
            "name" : "tex"
        }
    ],
    "accessors" : [
        {
            "bufferView" : 0,
            "componentType" : 5126,
            "count" : 166,
            "max" : [
                0.9000000953674316,
                0.30000001192092896,
                0.18000000715255737
            ],
            "min" : [
                -0.9000000953674316,
                -0.3594316244125366,
                -0.18000000715255737
            ],
            "type" : "VEC3"
        },
        {
            "bufferView" : 1,
            "componentType" : 5126,
            "count" : 166,
            "type" : "VEC3"
        },
        {
            "bufferView" : 2,
            "componentType" : 5126,
            "count" : 166,
            "type" : "VEC2"
        },
        {
            "bufferView" : 3,
            "componentType" : 5123,
            "count" : 276,
            "type" : "SCALAR"
        },
        {
            "bufferView" : 5,
            "componentType" : 5126,
            "count" : 1380,
            "max" : [
                0.9223588705062866,
                0.9886191487312317,
                1.0000001192092896
            ],
            "min" : [
                -3.4305059909820557,
                -1.2868397235870361,
                -1.0000001192092896
            ],
            "type" : "VEC3"
        },
        {
            "bufferView" : 6,
            "componentType" : 5126,
            "count" : 1380,
            "type" : "VEC3"
        },
        {
            "bufferView" : 7,
            "componentType" : 5126,
            "count" : 1380,
            "type" : "VEC2"
        },
        {
            "bufferView" : 8,
            "componentType" : 5123,
            "count" : 4890,
            "type" : "SCALAR"
        }
    ],
    "bufferViews" : [
        {
            "buffer" : 0,
            "byteLength" : 1992,
            "byteOffset" : 0
        },
        {
            "buffer" : 0,
            "byteLength" : 1992,
            "byteOffset" : 1992
        },
        {
            "buffer" : 0,
            "byteLength" : 1328,
            "byteOffset" : 3984
        },
        {
            "buffer" : 0,
            "byteLength" : 552,
            "byteOffset" : 5312
        },
        {
            "buffer" : 0,
            "byteLength" : 11997,
            "byteOffset" : 5864
        },
        {
            "buffer" : 0,
            "byteLength" : 16560,
            "byteOffset" : 17864
        },
        {
            "buffer" : 0,
            "byteLength" : 16560,
            "byteOffset" : 34424
        },
        {
            "buffer" : 0,
            "byteLength" : 11040,
            "byteOffset" : 50984
        },
        {
            "buffer" : 0,
            "byteLength" : 9780,
            "byteOffset" : 62024
        }
    ],
    "samplers" : [
        {
            "magFilter" : 9729,
            "minFilter" : 9987
        }
    ],
    "buffers" : [
        {
            "byteLength" : 71804,
            "uri" : "data:application/octet-stream;base64,"
        }
    ]
}
