{
    "asset" : {
        "copyright" : "Jeremy Edelblut",
        "generator" : "Khronos glTF Blender I/O v1.7.33",
        "version" : "2.0"
    },
    "scene" : 0,
    "scenes" : [
        {
            "name" : "Scene",
            "nodes" : [
                0,
                1,
                2,
                3
            ]
        }
    ],
    "nodes" : [
        {
            "mesh" : 0,
            "name" : "Cube.750",
            "rotation" : [
                0.13052619993686676,
                0,
                0,
                0.9914448857307434
            ],
            "translation" : [
                0,
                -0.38203054666519165,
                -0.05215900391340256
            ]
        },
        {
            "mesh" : 1,
            "name" : "Cube.751",
            "rotation" : [
                0.13052619993686676,
                0,
                0,
                0.9914448857307434
            ],
            "scale" : [
                1.2854199409484863,
                1.285420298576355,
                1.285420298576355
            ],
            "translation" : [
                0,
                -0.3663986325263977,
                -0.046122197061777115
            ]
        },
        {
            "mesh" : 2,
            "name" : "Cube.752",
            "rotation" : [
                0.13052619993686676,
                0,
                0,
                0.9914448857307434
            ],
            "scale" : [
                0.08997942507266998,
                0.08997942507266998,
                0.08997942507266998
            ],
            "translation" : [
                0,
                0.577232837677002,
                0.20672310888767242
            ]
        },
        {
            "mesh" : 3,
            "name" : "Cylinder.447",
            "rotation" : [
                0.13052619993686676,
                0,
                0,
                0.9914448857307434
            ],
            "scale" : [
                0.12854203581809998,
                0.12854203581809998,
                0.12854203581809998
            ],
            "translation" : [
                0,
                -0.3663986325263977,
                -0.046122197061777115
            ]
        }
    ],
    "materials" : [
        {
            "doubleSided" : true,
            "name" : "color",
            "pbrMetallicRoughness" : {
                "baseColorTexture" : {
                    "index" : 0
                },
                "metallicFactor" : 0,
                "roughnessFactor" : 0.5
            }
        }
    ],
    "meshes" : [
        {
            "name" : "Cube.7517",
            "primitives" : [
                {
                    "attributes" : {
                        "POSITION" : 0,
                        "NORMAL" : 1,
                        "TEXCOORD_0" : 2
                    },
                    "indices" : 3,
                    "material" : 0
                }
            ]
        },
        {
            "name" : "Cube.7518",
            "primitives" : [
                {
                    "attributes" : {
                        "POSITION" : 4,
                        "NORMAL" : 5,
                        "TEXCOORD_0" : 6
                    },
                    "indices" : 7,
                    "material" : 0
                }
            ]
        },
        {
            "name" : "Cube.7519",
            "primitives" : [
                {
                    "attributes" : {
                        "POSITION" : 8,
                        "NORMAL" : 9,
                        "TEXCOORD_0" : 10
                    },
                    "indices" : 11
                }
            ]
        },
        {
            "name" : "Cylinder.449",
            "primitives" : [
                {
                    "attributes" : {
                        "POSITION" : 12,
                        "NORMAL" : 13,
                        "TEXCOORD_0" : 14
                    },
                    "indices" : 15,
                    "material" : 0
                }
            ]
        }
    ],
    "textures" : [
        {
            "sampler" : 0,
            "source" : 0
        }
    ],
    "images" : [
        {
            "bufferView" : 4,
            "mimeType" : "image/png",
            "name" : "tex"
        }
    ],
    "accessors" : [
        {
            "bufferView" : 0,
            "componentType" : 5126,
            "count" : 583,
            "max" : [
                1.0448424816131592,
                0.03827745467424393,
                0.9015679955482483
            ],
            "min" : [
                -1.0448424816131592,
                -0.02953431010246277,
                -0.9015679955482483
            ],
            "type" : "VEC3"
        },
        {
            "bufferView" : 1,
            "componentType" : 5126,
            "count" : 583,
            "type" : "VEC3"
        },
        {
            "bufferView" : 2,
            "componentType" : 5126,
            "count" : 583,
            "type" : "VEC2"
        },
        {
            "bufferView" : 3,
            "componentType" : 5123,
            "count" : 1788,
            "type" : "SCALAR"
        },
        {
            "bufferView" : 5,
            "componentType" : 5126,
            "count" : 296,
            "max" : [
                0.4794868230819702,
                0.9501441717147827,
                0.04283933341503143
            ],
            "min" : [
                -0.4794868230819702,
                0.5501441955566406,
                0.01432174351066351
            ],
            "type" : "VEC3"
        },
        {
            "bufferView" : 6,
            "componentType" : 5126,
            "count" : 296,
            "type" : "VEC3"
        },
        {
            "bufferView" : 7,
            "componentType" : 5126,
            "count" : 296,
            "type" : "VEC2"
        },
        {
            "bufferView" : 8,
            "componentType" : 5123,
            "count" : 660,
            "type" : "SCALAR"
        },
        {
            "bufferView" : 9,
            "componentType" : 5126,
            "count" : 240,
            "max" : [
                4.571427345275879,
                1.4142134189605713,
                0.7232934236526489
            ],
            "min" : [
                -4.8427839279174805,
                -1.4142134189605713,
                0.5699546337127686
            ],
            "type" : "VEC3"
        },
        {
            "bufferView" : 10,
            "componentType" : 5126,
            "count" : 240,
            "type" : "VEC3"
        },
        {
            "bufferView" : 11,
            "componentType" : 5126,
            "count" : 240,
            "type" : "VEC2"
        },
        {
            "bufferView" : 12,
            "componentType" : 5123,
            "count" : 444,
            "type" : "SCALAR"
        },
        {
            "bufferView" : 13,
            "componentType" : 5126,
            "count" : 384,
            "max" : [
                6.3199992179870605,
                9.19817066192627,
                0.3200000524520874
            ],
            "min" : [
                -6.3199992179870605,
                -0.19817233085632324,
                -0.3200000524520874
            ],
            "type" : "VEC3"
        },
        {
            "bufferView" : 14,
            "componentType" : 5126,
            "count" : 384,
            "type" : "VEC3"
        },
        {
            "bufferView" : 15,
            "componentType" : 5126,
            "count" : 384,
            "type" : "VEC2"
        },
        {
            "bufferView" : 16,
            "componentType" : 5123,
            "count" : 1080,
            "type" : "SCALAR"
        }
    ],
    "bufferViews" : [
        {
            "buffer" : 0,
            "byteLength" : 6996,
            "byteOffset" : 0
        },
        {
            "buffer" : 0,
            "byteLength" : 6996,
            "byteOffset" : 6996
        },
        {
            "buffer" : 0,
            "byteLength" : 4664,
            "byteOffset" : 13992
        },
        {
            "buffer" : 0,
            "byteLength" : 3576,
            "byteOffset" : 18656
        },
        {
            "buffer" : 0,
            "byteLength" : 11997,
            "byteOffset" : 22232
        },
        {
            "buffer" : 0,
            "byteLength" : 3552,
            "byteOffset" : 34232
        },
        {
            "buffer" : 0,
            "byteLength" : 3552,
            "byteOffset" : 37784
        },
        {
            "buffer" : 0,
            "byteLength" : 2368,
            "byteOffset" : 41336
        },
        {
            "buffer" : 0,
            "byteLength" : 1320,
            "byteOffset" : 43704
        },
        {
            "buffer" : 0,
            "byteLength" : 2880,
            "byteOffset" : 45024
        },
        {
            "buffer" : 0,
            "byteLength" : 2880,
            "byteOffset" : 47904
        },
        {
            "buffer" : 0,
            "byteLength" : 1920,
            "byteOffset" : 50784
        },
        {
            "buffer" : 0,
            "byteLength" : 888,
            "byteOffset" : 52704
        },
        {
            "buffer" : 0,
            "byteLength" : 4608,
            "byteOffset" : 53592
        },
        {
            "buffer" : 0,
            "byteLength" : 4608,
            "byteOffset" : 58200
        },
        {
            "buffer" : 0,
            "byteLength" : 3072,
            "byteOffset" : 62808
        },
        {
            "buffer" : 0,
            "byteLength" : 2160,
            "byteOffset" : 65880
        }
    ],
    "samplers" : [
        {
            "magFilter" : 9729,
            "minFilter" : 9987
        }
    ],
    "buffers" : [
        {
            "byteLength" : 68040,
            "uri" : "data:application/octet-stream;base64,"
        }
    ]
}
