{
    "asset" : {
        "copyright" : "Jeremy Edelblut",
        "generator" : "Khronos glTF Blender I/O v1.6.16",
        "version" : "2.0"
    },
    "scene" : 0,
    "scenes" : [
        {
            "name" : "Scene",
            "nodes" : [
                0,
                1,
                2,
                3,
                4
            ]
        }
    ],
    "nodes" : [
        {
            "mesh" : 0,
            "name" : "Cube.596",
            "rotation" : [
                0,
                -0.7071068286895752,
                0,
                0.7071068286895752
            ],
            "translation" : [
                -0.39187687635421753,
                -0.1105838418006897,
                -0.0024712085723876953
            ]
        },
        {
            "mesh" : 1,
            "name" : "Cube.597",
            "rotation" : [
                0,
                -0.7071068286895752,
                0,
                0.7071068286895752
            ],
            "translation" : [
                1.0081230401992798,
                -0.1105838418006897,
                -0.0024710893630981445
            ]
        },
        {
            "mesh" : 2,
            "name" : "Cube.598",
            "rotation" : [
                0,
                1,
                0,
                -2.821299744937278e-07
            ],
            "scale" : [
                0.48270535469055176,
                0.48270535469055176,
                0.48270535469055176
            ],
            "translation" : [
                -0.6167783141136169,
                -0.16642248630523682,
                0
            ]
        },
        {
            "mesh" : 3,
            "name" : "Cube.599",
            "scale" : [
                0.365983784198761,
                0.365983784198761,
                0.365983784198761
            ],
            "translation" : [
                0.08520984649658203,
                -0.2261490821838379,
                0
            ]
        },
        {
            "mesh" : 4,
            "name" : "Plane.230",
            "scale" : [
                1.068126916885376,
                1,
                1
            ],
            "translation" : [
                0.12489820271730423,
                0,
                -1
            ]
        }
    ],
    "materials" : [
        {
            "doubleSided" : true,
            "name" : "Color",
            "pbrMetallicRoughness" : {
                "baseColorTexture" : {
                    "index" : 0
                },
                "metallicFactor" : 0,
                "roughnessFactor" : 0.5
            }
        }
    ],
    "meshes" : [
        {
            "name" : "Cube.926",
            "primitives" : [
                {
                    "attributes" : {
                        "POSITION" : 0,
                        "NORMAL" : 1,
                        "TEXCOORD_0" : 2
                    },
                    "indices" : 3,
                    "material" : 0
                }
            ]
        },
        {
            "name" : "Cube.930",
            "primitives" : [
                {
                    "attributes" : {
                        "POSITION" : 4,
                        "NORMAL" : 5,
                        "TEXCOORD_0" : 6
                    },
                    "indices" : 7,
                    "material" : 0
                }
            ]
        },
        {
            "name" : "Cube.933",
            "primitives" : [
                {
                    "attributes" : {
                        "POSITION" : 8,
                        "NORMAL" : 9,
                        "TEXCOORD_0" : 10
                    },
                    "indices" : 11,
                    "material" : 0
                }
            ]
        },
        {
            "name" : "Cube.934",
            "primitives" : [
                {
                    "attributes" : {
                        "POSITION" : 12,
                        "NORMAL" : 13,
                        "TEXCOORD_0" : 14
                    },
                    "indices" : 15,
                    "material" : 0
                }
            ]
        },
        {
            "name" : "Plane.227",
            "primitives" : [
                {
                    "attributes" : {
                        "POSITION" : 16,
                        "NORMAL" : 17,
                        "TEXCOORD_0" : 18
                    },
                    "indices" : 19,
                    "material" : 0
                }
            ]
        }
    ],
    "textures" : [
        {
            "sampler" : 0,
            "source" : 0
        }
    ],
    "images" : [
        {
            "bufferView" : 4,
            "mimeType" : "image/png",
            "name" : "tex"
        }
    ],
    "accessors" : [
        {
            "bufferView" : 0,
            "componentType" : 5126,
            "count" : 48,
            "max" : [
                0.31353649497032166,
                -0.655707597732544,
                0.7165801525115967
            ],
            "min" : [
                -0.31353652477264404,
                -0.7957075834274292,
                -1.5032284259796143
            ],
            "type" : "VEC3"
        },
        {
            "bufferView" : 1,
            "componentType" : 5126,
            "count" : 48,
            "type" : "VEC3"
        },
        {
            "bufferView" : 2,
            "componentType" : 5126,
            "count" : 48,
            "type" : "VEC2"
        },
        {
            "bufferView" : 3,
            "componentType" : 5123,
            "count" : 72,
            "type" : "SCALAR"
        },
        {
            "bufferView" : 5,
            "componentType" : 5126,
            "count" : 192,
            "max" : [
                0.4163898825645447,
                -0.7500723600387573,
                2.139876127243042
            ],
            "min" : [
                -0.4163898825645447,
                -0.8237221837043762,
                -0.12040890753269196
            ],
            "type" : "VEC3"
        },
        {
            "bufferView" : 6,
            "componentType" : 5126,
            "count" : 192,
            "type" : "VEC3"
        },
        {
            "bufferView" : 7,
            "componentType" : 5126,
            "count" : 192,
            "type" : "VEC2"
        },
        {
            "bufferView" : 8,
            "componentType" : 5123,
            "count" : 288,
            "type" : "SCALAR"
        },
        {
            "bufferView" : 9,
            "componentType" : 5126,
            "count" : 1196,
            "max" : [
                0.9223588705062866,
                0.9886191487312317,
                1.0000001192092896
            ],
            "min" : [
                -3.4305059909820557,
                -1.1709390878677368,
                -1.0000001192092896
            ],
            "type" : "VEC3"
        },
        {
            "bufferView" : 10,
            "componentType" : 5126,
            "count" : 1196,
            "type" : "VEC3"
        },
        {
            "bufferView" : 11,
            "componentType" : 5126,
            "count" : 1196,
            "type" : "VEC2"
        },
        {
            "bufferView" : 12,
            "componentType" : 5123,
            "count" : 4338,
            "type" : "SCALAR"
        },
        {
            "bufferView" : 13,
            "componentType" : 5126,
            "count" : 2048,
            "max" : [
                2.3228538036346436,
                -0.9395390748977661,
                0.8197029829025269
            ],
            "min" : [
                -2.3228535652160645,
                -1.667539119720459,
                -0.8197036981582642
            ],
            "type" : "VEC3"
        },
        {
            "bufferView" : 14,
            "componentType" : 5126,
            "count" : 2048,
            "type" : "VEC3"
        },
        {
            "bufferView" : 15,
            "componentType" : 5126,
            "count" : 2048,
            "type" : "VEC2"
        },
        {
            "bufferView" : 16,
            "componentType" : 5123,
            "count" : 6048,
            "type" : "SCALAR"
        },
        {
            "bufferView" : 17,
            "componentType" : 5126,
            "count" : 204,
            "max" : [
                1.170508861541748,
                1.2598114013671875,
                0.1743822693824768
            ],
            "min" : [
                -1.343356966972351,
                -0.9376262426376343,
                -0.08554858714342117
            ],
            "type" : "VEC3"
        },
        {
            "bufferView" : 18,
            "componentType" : 5126,
            "count" : 204,
            "type" : "VEC3"
        },
        {
            "bufferView" : 19,
            "componentType" : 5126,
            "count" : 204,
            "type" : "VEC2"
        },
        {
            "bufferView" : 20,
            "componentType" : 5123,
            "count" : 384,
            "type" : "SCALAR"
        }
    ],
    "bufferViews" : [
        {
            "buffer" : 0,
            "byteLength" : 576,
            "byteOffset" : 0
        },
        {
            "buffer" : 0,
            "byteLength" : 576,
            "byteOffset" : 576
        },
        {
            "buffer" : 0,
            "byteLength" : 384,
            "byteOffset" : 1152
        },
        {
            "buffer" : 0,
            "byteLength" : 144,
            "byteOffset" : 1536
        },
        {
            "buffer" : 0,
            "byteLength" : 3214,
            "byteOffset" : 1680
        },
        {
            "buffer" : 0,
            "byteLength" : 2304,
            "byteOffset" : 4896
        },
        {
            "buffer" : 0,
            "byteLength" : 2304,
            "byteOffset" : 7200
        },
        {
            "buffer" : 0,
            "byteLength" : 1536,
            "byteOffset" : 9504
        },
        {
            "buffer" : 0,
            "byteLength" : 576,
            "byteOffset" : 11040
        },
        {
            "buffer" : 0,
            "byteLength" : 14352,
            "byteOffset" : 11616
        },
        {
            "buffer" : 0,
            "byteLength" : 14352,
            "byteOffset" : 25968
        },
        {
            "buffer" : 0,
            "byteLength" : 9568,
            "byteOffset" : 40320
        },
        {
            "buffer" : 0,
            "byteLength" : 8676,
            "byteOffset" : 49888
        },
        {
            "buffer" : 0,
            "byteLength" : 24576,
            "byteOffset" : 58564
        },
        {
            "buffer" : 0,
            "byteLength" : 24576,
            "byteOffset" : 83140
        },
        {
            "buffer" : 0,
            "byteLength" : 16384,
            "byteOffset" : 107716
        },
        {
            "buffer" : 0,
            "byteLength" : 12096,
            "byteOffset" : 124100
        },
        {
            "buffer" : 0,
            "byteLength" : 2448,
            "byteOffset" : 136196
        },
        {
            "buffer" : 0,
            "byteLength" : 2448,
            "byteOffset" : 138644
        },
        {
            "buffer" : 0,
            "byteLength" : 1632,
            "byteOffset" : 141092
        },
        {
            "buffer" : 0,
            "byteLength" : 768,
            "byteOffset" : 142724
        }
    ],
    "samplers" : [
        {
            "magFilter" : 9729,
            "minFilter" : 9987
        }
    ],
    "buffers" : [
        {
            "byteLength" : 143492,
            "uri" : "data:application/octet-stream;base64,"
        }
    ]
}
