{
    "asset" : {
        "copyright" : "Jeremy Edelblut",
        "generator" : "Khronos glTF Blender I/O v1.7.33",
        "version" : "2.0"
    },
    "scene" : 0,
    "scenes" : [
        {
            "name" : "Scene",
            "nodes" : [
                0,
                1,
                2
            ]
        }
    ],
    "nodes" : [
        {
            "mesh" : 0,
            "name" : "Circle.2605",
            "rotation" : [
                0,
                0.5405806303024292,
                0,
                -0.8412922024726868
            ],
            "scale" : [
                0.5920913219451904,
                0.5920913219451904,
                0.59209144115448
            ],
            "translation" : [
                -0.1982586830854416,
                -1.0809414386749268,
                -0.4302161931991577
            ]
        },
        {
            "mesh" : 1,
            "name" : "Cube.240",
            "rotation" : [
                0,
                -0.3826834559440613,
                0,
                0.9238795042037964
            ],
            "scale" : [
                0.19999998807907104,
                0.19999998807907104,
                0.19999998807907104
            ],
            "translation" : [
                -0.6571231484413147,
                -1.0810213088989258,
                0
            ]
        },
        {
            "mesh" : 2,
            "name" : "Cube.1012",
            "rotation" : [
                -0.2892817556858063,
                -0.3634401559829712,
                -0.11982443928718567,
                0.8774221539497375
            ],
            "scale" : [
                0.6473385095596313,
                0.6473386883735657,
                0.6473386883735657
            ],
            "translation" : [
                0.11216659098863602,
                0.001775890588760376,
                -0.8032050132751465
            ]
        }
    ],
    "materials" : [
        {
            "doubleSided" : true,
            "name" : "color",
            "pbrMetallicRoughness" : {
                "baseColorTexture" : {
                    "index" : 0
                },
                "metallicFactor" : 0,
                "roughnessFactor" : 0.5
            }
        }
    ],
    "meshes" : [
        {
            "name" : "Circle.3283",
            "primitives" : [
                {
                    "attributes" : {
                        "POSITION" : 0,
                        "NORMAL" : 1,
                        "TEXCOORD_0" : 2
                    },
                    "indices" : 3,
                    "material" : 0
                }
            ]
        },
        {
            "name" : "Cube.439",
            "primitives" : [
                {
                    "attributes" : {
                        "POSITION" : 4,
                        "NORMAL" : 5,
                        "TEXCOORD_0" : 6
                    },
                    "indices" : 7,
                    "material" : 0
                }
            ]
        },
        {
            "name" : "Cube.524",
            "primitives" : [
                {
                    "attributes" : {
                        "POSITION" : 8,
                        "NORMAL" : 9,
                        "TEXCOORD_0" : 10
                    },
                    "indices" : 11,
                    "material" : 0
                }
            ]
        }
    ],
    "textures" : [
        {
            "sampler" : 0,
            "source" : 0
        }
    ],
    "images" : [
        {
            "bufferView" : 4,
            "mimeType" : "image/png",
            "name" : "tex"
        }
    ],
    "accessors" : [
        {
            "bufferView" : 0,
            "componentType" : 5126,
            "count" : 2130,
            "max" : [
                0.47139692306518555,
                0.5970430374145508,
                0.5
            ],
            "min" : [
                -0.47139668464660645,
                0,
                -0.7563230991363525
            ],
            "type" : "VEC3"
        },
        {
            "bufferView" : 1,
            "componentType" : 5126,
            "count" : 2130,
            "type" : "VEC3"
        },
        {
            "bufferView" : 2,
            "componentType" : 5126,
            "count" : 2130,
            "type" : "VEC2"
        },
        {
            "bufferView" : 3,
            "componentType" : 5123,
            "count" : 10362,
            "type" : "SCALAR"
        },
        {
            "bufferView" : 5,
            "componentType" : 5126,
            "count" : 74,
            "max" : [
                0.20000001788139343,
                5.931151866912842,
                0.8797528743743896
            ],
            "min" : [
                -0.20000001788139343,
                1.4901161193847656e-08,
                -0.8797527551651001
            ],
            "type" : "VEC3"
        },
        {
            "bufferView" : 6,
            "componentType" : 5126,
            "count" : 74,
            "type" : "VEC3"
        },
        {
            "bufferView" : 7,
            "componentType" : 5126,
            "count" : 74,
            "type" : "VEC2"
        },
        {
            "bufferView" : 8,
            "componentType" : 5123,
            "count" : 126,
            "type" : "SCALAR"
        },
        {
            "bufferView" : 9,
            "componentType" : 5126,
            "count" : 184,
            "max" : [
                1,
                1,
                1.4849865436553955
            ],
            "min" : [
                -1,
                -1,
                -1.4849865436553955
            ],
            "type" : "VEC3"
        },
        {
            "bufferView" : 10,
            "componentType" : 5126,
            "count" : 184,
            "type" : "VEC3"
        },
        {
            "bufferView" : 11,
            "componentType" : 5126,
            "count" : 184,
            "type" : "VEC2"
        },
        {
            "bufferView" : 12,
            "componentType" : 5123,
            "count" : 276,
            "type" : "SCALAR"
        }
    ],
    "bufferViews" : [
        {
            "buffer" : 0,
            "byteLength" : 25560,
            "byteOffset" : 0
        },
        {
            "buffer" : 0,
            "byteLength" : 25560,
            "byteOffset" : 25560
        },
        {
            "buffer" : 0,
            "byteLength" : 17040,
            "byteOffset" : 51120
        },
        {
            "buffer" : 0,
            "byteLength" : 20724,
            "byteOffset" : 68160
        },
        {
            "buffer" : 0,
            "byteLength" : 11997,
            "byteOffset" : 88884
        },
        {
            "buffer" : 0,
            "byteLength" : 888,
            "byteOffset" : 100884
        },
        {
            "buffer" : 0,
            "byteLength" : 888,
            "byteOffset" : 101772
        },
        {
            "buffer" : 0,
            "byteLength" : 592,
            "byteOffset" : 102660
        },
        {
            "buffer" : 0,
            "byteLength" : 252,
            "byteOffset" : 103252
        },
        {
            "buffer" : 0,
            "byteLength" : 2208,
            "byteOffset" : 103504
        },
        {
            "buffer" : 0,
            "byteLength" : 2208,
            "byteOffset" : 105712
        },
        {
            "buffer" : 0,
            "byteLength" : 1472,
            "byteOffset" : 107920
        },
        {
            "buffer" : 0,
            "byteLength" : 552,
            "byteOffset" : 109392
        }
    ],
    "samplers" : [
        {
            "magFilter" : 9729,
            "minFilter" : 9987
        }
    ],
    "buffers" : [
        {
            "byteLength" : 109944,
            "uri" : "data:application/octet-stream;base64,"
        }
    ]
}
