{
    "asset" : {
        "copyright" : "Jeremy Edelblut",
        "generator" : "Khronos glTF Blender I/O v1.6.16",
        "version" : "2.0"
    },
    "scene" : 0,
    "scenes" : [
        {
            "name" : "Scene",
            "nodes" : [
                0
            ]
        }
    ],
    "nodes" : [
        {
            "mesh" : 0,
            "name" : "Circle.2538",
            "rotation" : [
                0.3535534143447876,
                0.3535533845424652,
                -0.14644663035869598,
                0.8535533547401428
            ]
        }
    ],
    "materials" : [
        {
            "doubleSided" : true,
            "name" : "Color",
            "pbrMetallicRoughness" : {
                "baseColorTexture" : {
                    "index" : 0
                },
                "metallicFactor" : 0,
                "roughnessFactor" : 0.5
            }
        }
    ],
    "meshes" : [
        {
            "name" : "Circle.3180",
            "primitives" : [
                {
                    "attributes" : {
                        "POSITION" : 0,
                        "NORMAL" : 1,
                        "TEXCOORD_0" : 2
                    },
                    "indices" : 3,
                    "material" : 0
                }
            ]
        }
    ],
    "textures" : [
        {
            "sampler" : 0,
            "source" : 0
        }
    ],
    "images" : [
        {
            "bufferView" : 4,
            "mimeType" : "image/png",
            "name" : "tex"
        }
    ],
    "accessors" : [
        {
            "bufferView" : 0,
            "componentType" : 5126,
            "count" : 1062,
            "max" : [
                1.1507030725479126,
                0.5414806604385376,
                1.1507030725479126
            ],
            "min" : [
                -1.1507030725479126,
                -1.0344672203063965,
                -1.1507030725479126
            ],
            "type" : "VEC3"
        },
        {
            "bufferView" : 1,
            "componentType" : 5126,
            "count" : 1062,
            "type" : "VEC3"
        },
        {
            "bufferView" : 2,
            "componentType" : 5126,
            "count" : 1062,
            "type" : "VEC2"
        },
        {
            "bufferView" : 3,
            "componentType" : 5123,
            "count" : 3852,
            "type" : "SCALAR"
        }
    ],
    "bufferViews" : [
        {
            "buffer" : 0,
            "byteLength" : 12744,
            "byteOffset" : 0
        },
        {
            "buffer" : 0,
            "byteLength" : 12744,
            "byteOffset" : 12744
        },
        {
            "buffer" : 0,
            "byteLength" : 8496,
            "byteOffset" : 25488
        },
        {
            "buffer" : 0,
            "byteLength" : 7704,
            "byteOffset" : 33984
        },
        {
            "buffer" : 0,
            "byteLength" : 3214,
            "byteOffset" : 41688
        }
    ],
    "samplers" : [
        {
            "magFilter" : 9729,
            "minFilter" : 9987
        }
    ],
    "buffers" : [
        {
            "byteLength" : 44904,
            "uri" : "data:application/octet-stream;base64,"
        }
    ]
}
