{
    "asset" : {
        "copyright" : "Jeremy Edelblut",
        "generator" : "Khronos glTF Blender I/O v1.6.16",
        "version" : "2.0"
    },
    "scene" : 0,
    "scenes" : [
        {
            "name" : "Scene",
            "nodes" : [
                0,
                1,
                2,
                3,
                4,
                5,
                6,
                7,
                8,
                9
            ]
        }
    ],
    "nodes" : [
        {
            "mesh" : 0,
            "name" : "Circle.945",
            "rotation" : [
                0.7071068286895752,
                0,
                0,
                0.7071068286895752
            ],
            "scale" : [
                2.706974744796753,
                2.706974744796753,
                2.706974744796753
            ]
        },
        {
            "mesh" : 1,
            "name" : "Circle.946",
            "rotation" : [
                0.7071068286895752,
                0,
                0,
                0.7071068286895752
            ],
            "scale" : [
                2.706974744796753,
                2.706974744796753,
                2.706974744796753
            ]
        },
        {
            "mesh" : 2,
            "name" : "Cylinder.173",
            "rotation" : [
                0,
                -0.7071068286895752,
                0,
                0.7071068286895752
            ],
            "scale" : [
                0.7010374069213867,
                0.7010374069213867,
                0.7010374069213867
            ]
        },
        {
            "mesh" : 3,
            "name" : "Roundcube.195",
            "rotation" : [
                0,
                -0.7071068286895752,
                0,
                0.7071068286895752
            ],
            "scale" : [
                0.7010374069213867,
                0.7010374069213867,
                0.7010374069213867
            ]
        },
        {
            "mesh" : 4,
            "name" : "Circle.947",
            "rotation" : [
                0.7071068286895752,
                0,
                0,
                0.7071068286895752
            ]
        },
        {
            "mesh" : 5,
            "name" : "Cube.2306",
            "rotation" : [
                0.15383964776992798,
                -0.7492061257362366,
                -0.09783472120761871,
                0.636751115322113
            ],
            "scale" : [
                0.10293129086494446,
                0.10293138027191162,
                0.10293129831552505
            ]
        },
        {
            "mesh" : 6,
            "name" : "Circle.949",
            "rotation" : [
                0.7071068286895752,
                0,
                0,
                0.7071068286895752
            ]
        },
        {
            "mesh" : 7,
            "name" : "Circle.950",
            "rotation" : [
                0.7071068286895752,
                0,
                0,
                0.7071068286895752
            ]
        },
        {
            "mesh" : 8,
            "name" : "Circle.951",
            "rotation" : [
                0,
                -0.7071068286895752,
                0,
                0.7071068286895752
            ],
            "scale" : [
                0.7761280536651611,
                0.7761280536651611,
                0.7761280536651611
            ]
        },
        {
            "mesh" : 9,
            "name" : "Circle.953",
            "rotation" : [
                -0.1807279884815216,
                -0.1503269225358963,
                0.009072360582649708,
                0.9719346165657043
            ],
            "scale" : [
                0.7253661751747131,
                0.7253661751747131,
                0.7253660559654236
            ]
        }
    ],
    "materials" : [
        {
            "doubleSided" : true,
            "name" : "Color",
            "pbrMetallicRoughness" : {
                "baseColorTexture" : {
                    "index" : 0
                },
                "metallicFactor" : 0,
                "roughnessFactor" : 0.5
            }
        }
    ],
    "meshes" : [
        {
            "name" : "Circle.972",
            "primitives" : [
                {
                    "attributes" : {
                        "POSITION" : 0,
                        "NORMAL" : 1,
                        "TEXCOORD_0" : 2
                    },
                    "indices" : 3,
                    "material" : 0
                }
            ]
        },
        {
            "name" : "Circle.973",
            "primitives" : [
                {
                    "attributes" : {
                        "POSITION" : 4,
                        "NORMAL" : 5,
                        "TEXCOORD_0" : 6
                    },
                    "indices" : 7,
                    "material" : 0
                }
            ]
        },
        {
            "name" : "Cylinder.159",
            "primitives" : [
                {
                    "attributes" : {
                        "POSITION" : 8,
                        "NORMAL" : 9,
                        "TEXCOORD_0" : 10
                    },
                    "indices" : 11,
                    "material" : 0
                }
            ]
        },
        {
            "name" : "Roundcube.182",
            "primitives" : [
                {
                    "attributes" : {
                        "POSITION" : 12,
                        "NORMAL" : 13,
                        "TEXCOORD_0" : 14
                    },
                    "indices" : 15,
                    "material" : 0
                }
            ]
        },
        {
            "name" : "Circle.988",
            "primitives" : [
                {
                    "attributes" : {
                        "POSITION" : 16,
                        "NORMAL" : 17,
                        "TEXCOORD_0" : 18
                    },
                    "indices" : 19,
                    "material" : 0
                }
            ]
        },
        {
            "name" : "Cube.2764",
            "primitives" : [
                {
                    "attributes" : {
                        "POSITION" : 20,
                        "NORMAL" : 21,
                        "TEXCOORD_0" : 22
                    },
                    "indices" : 23,
                    "material" : 0
                }
            ]
        },
        {
            "name" : "Circle.1005",
            "primitives" : [
                {
                    "attributes" : {
                        "POSITION" : 24,
                        "NORMAL" : 25,
                        "TEXCOORD_0" : 26
                    },
                    "indices" : 27,
                    "material" : 0
                }
            ]
        },
        {
            "name" : "Circle.1022",
            "primitives" : [
                {
                    "attributes" : {
                        "POSITION" : 28,
                        "NORMAL" : 29,
                        "TEXCOORD_0" : 30
                    },
                    "indices" : 31,
                    "material" : 0
                }
            ]
        },
        {
            "name" : "Circle.1023",
            "primitives" : [
                {
                    "attributes" : {
                        "POSITION" : 32,
                        "NORMAL" : 33,
                        "TEXCOORD_0" : 34
                    },
                    "indices" : 35,
                    "material" : 0
                }
            ]
        },
        {
            "name" : "Circle.1030",
            "primitives" : [
                {
                    "attributes" : {
                        "POSITION" : 36,
                        "NORMAL" : 37,
                        "TEXCOORD_0" : 38
                    },
                    "indices" : 39,
                    "material" : 0
                }
            ]
        }
    ],
    "textures" : [
        {
            "sampler" : 0,
            "source" : 0
        }
    ],
    "images" : [
        {
            "bufferView" : 4,
            "mimeType" : "image/png",
            "name" : "tex"
        }
    ],
    "accessors" : [
        {
            "bufferView" : 0,
            "componentType" : 5126,
            "count" : 452,
            "max" : [
                0.13130351901054382,
                0.2164182960987091,
                0.07740161567926407
            ],
            "min" : [
                -0.13130351901054382,
                0.17896687984466553,
                -0.014186632819473743
            ],
            "type" : "VEC3"
        },
        {
            "bufferView" : 1,
            "componentType" : 5126,
            "count" : 452,
            "type" : "VEC3"
        },
        {
            "bufferView" : 2,
            "componentType" : 5126,
            "count" : 452,
            "type" : "VEC2"
        },
        {
            "bufferView" : 3,
            "componentType" : 5123,
            "count" : 1920,
            "type" : "SCALAR"
        },
        {
            "bufferView" : 5,
            "componentType" : 5126,
            "count" : 422,
            "max" : [
                0.025262437760829926,
                0.22202681005001068,
                0.11069342494010925
            ],
            "min" : [
                -0.02451690286397934,
                0.20889705419540405,
                0.08152130991220474
            ],
            "type" : "VEC3"
        },
        {
            "bufferView" : 6,
            "componentType" : 5126,
            "count" : 422,
            "type" : "VEC3"
        },
        {
            "bufferView" : 7,
            "componentType" : 5126,
            "count" : 422,
            "type" : "VEC2"
        },
        {
            "bufferView" : 8,
            "componentType" : 5123,
            "count" : 1824,
            "type" : "SCALAR"
        },
        {
            "bufferView" : 9,
            "componentType" : 5126,
            "count" : 2402,
            "max" : [
                -0.14859741926193237,
                0.15775592625141144,
                1.2573885917663574
            ],
            "min" : [
                -0.5303949117660522,
                -0.49200621247291565,
                -1.257388710975647
            ],
            "type" : "VEC3"
        },
        {
            "bufferView" : 10,
            "componentType" : 5126,
            "count" : 2402,
            "type" : "VEC3"
        },
        {
            "bufferView" : 11,
            "componentType" : 5126,
            "count" : 2402,
            "type" : "VEC2"
        },
        {
            "bufferView" : 12,
            "componentType" : 5123,
            "count" : 11520,
            "type" : "SCALAR"
        },
        {
            "bufferView" : 13,
            "componentType" : 5126,
            "count" : 2063,
            "max" : [
                0.8239538669586182,
                0.8453959226608276,
                1.0290236473083496
            ],
            "min" : [
                -1.3394240140914917,
                -1.3293906450271606,
                -1.0156068801879883
            ],
            "type" : "VEC3"
        },
        {
            "bufferView" : 14,
            "componentType" : 5126,
            "count" : 2063,
            "type" : "VEC3"
        },
        {
            "bufferView" : 15,
            "componentType" : 5126,
            "count" : 2063,
            "type" : "VEC2"
        },
        {
            "bufferView" : 16,
            "componentType" : 5123,
            "count" : 8214,
            "type" : "SCALAR"
        },
        {
            "bufferView" : 17,
            "componentType" : 5126,
            "count" : 336,
            "max" : [
                0.4165043830871582,
                0.5355356335639954,
                -0.030220070853829384
            ],
            "min" : [
                -0.4165043830871582,
                0.41039079427719116,
                -0.18082579970359802
            ],
            "type" : "VEC3"
        },
        {
            "bufferView" : 18,
            "componentType" : 5126,
            "count" : 336,
            "type" : "VEC3"
        },
        {
            "bufferView" : 19,
            "componentType" : 5126,
            "count" : 336,
            "type" : "VEC2"
        },
        {
            "bufferView" : 20,
            "componentType" : 5123,
            "count" : 1152,
            "type" : "SCALAR"
        },
        {
            "bufferView" : 21,
            "componentType" : 5126,
            "count" : 1310,
            "max" : [
                5.981820583343506,
                7.835859775543213,
                7.9959211349487305
            ],
            "min" : [
                -9.833294868469238,
                -5.046017646789551,
                -7.176928997039795
            ],
            "type" : "VEC3"
        },
        {
            "bufferView" : 22,
            "componentType" : 5126,
            "count" : 1310,
            "type" : "VEC3"
        },
        {
            "bufferView" : 23,
            "componentType" : 5126,
            "count" : 1310,
            "type" : "VEC2"
        },
        {
            "bufferView" : 24,
            "componentType" : 5123,
            "count" : 3132,
            "type" : "SCALAR"
        },
        {
            "bufferView" : 25,
            "componentType" : 5126,
            "count" : 1044,
            "max" : [
                0.44909051060676575,
                0.5683850646018982,
                0.3994961082935333
            ],
            "min" : [
                -0.44909051060676575,
                0.4162307381629944,
                0.017664287239313126
            ],
            "type" : "VEC3"
        },
        {
            "bufferView" : 26,
            "componentType" : 5126,
            "count" : 1044,
            "type" : "VEC3"
        },
        {
            "bufferView" : 27,
            "componentType" : 5126,
            "count" : 1044,
            "type" : "VEC2"
        },
        {
            "bufferView" : 28,
            "componentType" : 5123,
            "count" : 3264,
            "type" : "SCALAR"
        },
        {
            "bufferView" : 29,
            "componentType" : 5126,
            "count" : 324,
            "max" : [
                0.2163306027650833,
                0.49688202142715454,
                -0.20671960711479187
            ],
            "min" : [
                -0.23312602937221527,
                0.421369731426239,
                -0.2888851761817932
            ],
            "type" : "VEC3"
        },
        {
            "bufferView" : 30,
            "componentType" : 5126,
            "count" : 324,
            "type" : "VEC3"
        },
        {
            "bufferView" : 31,
            "componentType" : 5126,
            "count" : 324,
            "type" : "VEC2"
        },
        {
            "bufferView" : 32,
            "componentType" : 5123,
            "count" : 1056,
            "type" : "SCALAR"
        },
        {
            "bufferView" : 33,
            "componentType" : 5126,
            "count" : 620,
            "max" : [
                0.7601950168609619,
                0.10773101449012756,
                0.591590166091919
            ],
            "min" : [
                0.7379991412162781,
                -0.4250006675720215,
                -0.591590166091919
            ],
            "type" : "VEC3"
        },
        {
            "bufferView" : 34,
            "componentType" : 5126,
            "count" : 620,
            "type" : "VEC3"
        },
        {
            "bufferView" : 35,
            "componentType" : 5126,
            "count" : 620,
            "type" : "VEC2"
        },
        {
            "bufferView" : 36,
            "componentType" : 5123,
            "count" : 1770,
            "type" : "SCALAR"
        },
        {
            "bufferView" : 37,
            "componentType" : 5126,
            "count" : 693,
            "max" : [
                1.0411694049835205,
                2.0060994625091553,
                0.9385752081871033
            ],
            "min" : [
                -1.364915132522583,
                0.6025860905647278,
                -1.3406682014465332
            ],
            "type" : "VEC3"
        },
        {
            "bufferView" : 38,
            "componentType" : 5126,
            "count" : 693,
            "type" : "VEC3"
        },
        {
            "bufferView" : 39,
            "componentType" : 5126,
            "count" : 693,
            "type" : "VEC2"
        },
        {
            "bufferView" : 40,
            "componentType" : 5123,
            "count" : 3504,
            "type" : "SCALAR"
        }
    ],
    "bufferViews" : [
        {
            "buffer" : 0,
            "byteLength" : 5424,
            "byteOffset" : 0
        },
        {
            "buffer" : 0,
            "byteLength" : 5424,
            "byteOffset" : 5424
        },
        {
            "buffer" : 0,
            "byteLength" : 3616,
            "byteOffset" : 10848
        },
        {
            "buffer" : 0,
            "byteLength" : 3840,
            "byteOffset" : 14464
        },
        {
            "buffer" : 0,
            "byteLength" : 3214,
            "byteOffset" : 18304
        },
        {
            "buffer" : 0,
            "byteLength" : 5064,
            "byteOffset" : 21520
        },
        {
            "buffer" : 0,
            "byteLength" : 5064,
            "byteOffset" : 26584
        },
        {
            "buffer" : 0,
            "byteLength" : 3376,
            "byteOffset" : 31648
        },
        {
            "buffer" : 0,
            "byteLength" : 3648,
            "byteOffset" : 35024
        },
        {
            "buffer" : 0,
            "byteLength" : 28824,
            "byteOffset" : 38672
        },
        {
            "buffer" : 0,
            "byteLength" : 28824,
            "byteOffset" : 67496
        },
        {
            "buffer" : 0,
            "byteLength" : 19216,
            "byteOffset" : 96320
        },
        {
            "buffer" : 0,
            "byteLength" : 23040,
            "byteOffset" : 115536
        },
        {
            "buffer" : 0,
            "byteLength" : 24756,
            "byteOffset" : 138576
        },
        {
            "buffer" : 0,
            "byteLength" : 24756,
            "byteOffset" : 163332
        },
        {
            "buffer" : 0,
            "byteLength" : 16504,
            "byteOffset" : 188088
        },
        {
            "buffer" : 0,
            "byteLength" : 16428,
            "byteOffset" : 204592
        },
        {
            "buffer" : 0,
            "byteLength" : 4032,
            "byteOffset" : 221020
        },
        {
            "buffer" : 0,
            "byteLength" : 4032,
            "byteOffset" : 225052
        },
        {
            "buffer" : 0,
            "byteLength" : 2688,
            "byteOffset" : 229084
        },
        {
            "buffer" : 0,
            "byteLength" : 2304,
            "byteOffset" : 231772
        },
        {
            "buffer" : 0,
            "byteLength" : 15720,
            "byteOffset" : 234076
        },
        {
            "buffer" : 0,
            "byteLength" : 15720,
            "byteOffset" : 249796
        },
        {
            "buffer" : 0,
            "byteLength" : 10480,
            "byteOffset" : 265516
        },
        {
            "buffer" : 0,
            "byteLength" : 6264,
            "byteOffset" : 275996
        },
        {
            "buffer" : 0,
            "byteLength" : 12528,
            "byteOffset" : 282260
        },
        {
            "buffer" : 0,
            "byteLength" : 12528,
            "byteOffset" : 294788
        },
        {
            "buffer" : 0,
            "byteLength" : 8352,
            "byteOffset" : 307316
        },
        {
            "buffer" : 0,
            "byteLength" : 6528,
            "byteOffset" : 315668
        },
        {
            "buffer" : 0,
            "byteLength" : 3888,
            "byteOffset" : 322196
        },
        {
            "buffer" : 0,
            "byteLength" : 3888,
            "byteOffset" : 326084
        },
        {
            "buffer" : 0,
            "byteLength" : 2592,
            "byteOffset" : 329972
        },
        {
            "buffer" : 0,
            "byteLength" : 2112,
            "byteOffset" : 332564
        },
        {
            "buffer" : 0,
            "byteLength" : 7440,
            "byteOffset" : 334676
        },
        {
            "buffer" : 0,
            "byteLength" : 7440,
            "byteOffset" : 342116
        },
        {
            "buffer" : 0,
            "byteLength" : 4960,
            "byteOffset" : 349556
        },
        {
            "buffer" : 0,
            "byteLength" : 3540,
            "byteOffset" : 354516
        },
        {
            "buffer" : 0,
            "byteLength" : 8316,
            "byteOffset" : 358056
        },
        {
            "buffer" : 0,
            "byteLength" : 8316,
            "byteOffset" : 366372
        },
        {
            "buffer" : 0,
            "byteLength" : 5544,
            "byteOffset" : 374688
        },
        {
            "buffer" : 0,
            "byteLength" : 7008,
            "byteOffset" : 380232
        }
    ],
    "samplers" : [
        {
            "magFilter" : 9729,
            "minFilter" : 9987
        }
    ],
    "buffers" : [
        {
            "byteLength" : 387240,
            "uri" : "data:application/octet-stream;base64,"
        }
    ]
}
