{
    "asset" : {
        "copyright" : "Jeremy Edelblut",
        "generator" : "Khronos glTF Blender I/O v1.6.16",
        "version" : "2.0"
    },
    "scene" : 0,
    "scenes" : [
        {
            "name" : "Scene",
            "nodes" : [
                0,
                1,
                2
            ]
        }
    ],
    "nodes" : [
        {
            "mesh" : 0,
            "name" : "Circle.270"
        },
        {
            "mesh" : 1,
            "name" : "Cube.101"
        },
        {
            "mesh" : 2,
            "name" : "3moji.org.033",
            "rotation" : [
                -0.406813383102417,
                0.5783620476722717,
                0.5783622860908508,
                -0.4068135619163513
            ],
            "scale" : [
                0.00439739553257823,
                0.00439739553257823,
                0.00439739553257823
            ],
            "translation" : [
                -0.3182484805583954,
                -0.7109615802764893,
                -0.01702585071325302
            ]
        }
    ],
    "materials" : [
        {
            "doubleSided" : true,
            "name" : "Color",
            "pbrMetallicRoughness" : {
                "baseColorTexture" : {
                    "index" : 0
                },
                "metallicFactor" : 0,
                "roughnessFactor" : 0.5
            }
        }
    ],
    "meshes" : [
        {
            "name" : "Circle.243",
            "primitives" : [
                {
                    "attributes" : {
                        "POSITION" : 0,
                        "NORMAL" : 1,
                        "TEXCOORD_0" : 2
                    },
                    "indices" : 3,
                    "material" : 0
                }
            ]
        },
        {
            "name" : "Cube.199",
            "primitives" : [
                {
                    "attributes" : {
                        "POSITION" : 4,
                        "NORMAL" : 5,
                        "TEXCOORD_0" : 6
                    },
                    "indices" : 7,
                    "material" : 0
                },
                {
                    "attributes" : {
                        "POSITION" : 8,
                        "NORMAL" : 9,
                        "TEXCOORD_0" : 10
                    },
                    "indices" : 11,
                    "material" : 0
                }
            ]
        },
        {
            "name" : "Cube.184",
            "primitives" : [
                {
                    "attributes" : {
                        "POSITION" : 12,
                        "NORMAL" : 13,
                        "TEXCOORD_0" : 14
                    },
                    "indices" : 15,
                    "material" : 0
                }
            ]
        }
    ],
    "textures" : [
        {
            "sampler" : 0,
            "source" : 0
        }
    ],
    "images" : [
        {
            "bufferView" : 4,
            "mimeType" : "image/png",
            "name" : "tex2"
        }
    ],
    "accessors" : [
        {
            "bufferView" : 0,
            "componentType" : 5126,
            "count" : 962,
            "max" : [
                0.26837682723999023,
                0.9332139492034912,
                0.3865240812301636
            ],
            "min" : [
                -0.06678317487239838,
                0.32816874980926514,
                0.1115143746137619
            ],
            "type" : "VEC3"
        },
        {
            "bufferView" : 1,
            "componentType" : 5126,
            "count" : 962,
            "type" : "VEC3"
        },
        {
            "bufferView" : 2,
            "componentType" : 5126,
            "count" : 962,
            "type" : "VEC2"
        },
        {
            "bufferView" : 3,
            "componentType" : 5123,
            "count" : 5184,
            "type" : "SCALAR"
        },
        {
            "bufferView" : 5,
            "componentType" : 5126,
            "count" : 3074,
            "max" : [
                0.665763258934021,
                0.3956538736820221,
                0.15111909806728363
            ],
            "min" : [
                -0.7483015060424805,
                -0.8822477459907532,
                -0.15111909806728363
            ],
            "type" : "VEC3"
        },
        {
            "bufferView" : 6,
            "componentType" : 5126,
            "count" : 3074,
            "type" : "VEC3"
        },
        {
            "bufferView" : 7,
            "componentType" : 5126,
            "count" : 3074,
            "type" : "VEC2"
        },
        {
            "bufferView" : 8,
            "componentType" : 5123,
            "count" : 17550,
            "type" : "SCALAR"
        },
        {
            "bufferView" : 9,
            "componentType" : 5126,
            "count" : 738,
            "max" : [
                0.6756358742713928,
                0.4866500794887543,
                0.15600696206092834
            ],
            "min" : [
                -0.33210062980651855,
                -0.011518213897943497,
                0.08290161937475204
            ],
            "type" : "VEC3"
        },
        {
            "bufferView" : 10,
            "componentType" : 5126,
            "count" : 738,
            "type" : "VEC3"
        },
        {
            "bufferView" : 11,
            "componentType" : 5126,
            "count" : 738,
            "type" : "VEC2"
        },
        {
            "bufferView" : 12,
            "componentType" : 5123,
            "count" : 2808,
            "type" : "SCALAR"
        },
        {
            "bufferView" : 13,
            "componentType" : 5126,
            "count" : 752,
            "max" : [
                1.2953357696533203,
                7.90000057220459,
                17.240537643432617
            ],
            "min" : [
                2.8697024390567094e-05,
                -1.8999989032745361,
                -19.159460067749023
            ],
            "type" : "VEC3"
        },
        {
            "bufferView" : 14,
            "componentType" : 5126,
            "count" : 752,
            "type" : "VEC3"
        },
        {
            "bufferView" : 15,
            "componentType" : 5126,
            "count" : 752,
            "type" : "VEC2"
        },
        {
            "bufferView" : 16,
            "componentType" : 5123,
            "count" : 1680,
            "type" : "SCALAR"
        }
    ],
    "bufferViews" : [
        {
            "buffer" : 0,
            "byteLength" : 11544,
            "byteOffset" : 0
        },
        {
            "buffer" : 0,
            "byteLength" : 11544,
            "byteOffset" : 11544
        },
        {
            "buffer" : 0,
            "byteLength" : 7696,
            "byteOffset" : 23088
        },
        {
            "buffer" : 0,
            "byteLength" : 10368,
            "byteOffset" : 30784
        },
        {
            "buffer" : 0,
            "byteLength" : 6474,
            "byteOffset" : 41152
        },
        {
            "buffer" : 0,
            "byteLength" : 36888,
            "byteOffset" : 47628
        },
        {
            "buffer" : 0,
            "byteLength" : 36888,
            "byteOffset" : 84516
        },
        {
            "buffer" : 0,
            "byteLength" : 24592,
            "byteOffset" : 121404
        },
        {
            "buffer" : 0,
            "byteLength" : 35100,
            "byteOffset" : 145996
        },
        {
            "buffer" : 0,
            "byteLength" : 8856,
            "byteOffset" : 181096
        },
        {
            "buffer" : 0,
            "byteLength" : 8856,
            "byteOffset" : 189952
        },
        {
            "buffer" : 0,
            "byteLength" : 5904,
            "byteOffset" : 198808
        },
        {
            "buffer" : 0,
            "byteLength" : 5616,
            "byteOffset" : 204712
        },
        {
            "buffer" : 0,
            "byteLength" : 9024,
            "byteOffset" : 210328
        },
        {
            "buffer" : 0,
            "byteLength" : 9024,
            "byteOffset" : 219352
        },
        {
            "buffer" : 0,
            "byteLength" : 6016,
            "byteOffset" : 228376
        },
        {
            "buffer" : 0,
            "byteLength" : 3360,
            "byteOffset" : 234392
        }
    ],
    "samplers" : [
        {
            "magFilter" : 9729,
            "minFilter" : 9987
        }
    ],
    "buffers" : [
        {
            "byteLength" : 237752,
            "uri" : "data:application/octet-stream;base64,"
        }
    ]
}
