{
    "asset" : {
        "copyright" : "Jeremy Edelblut",
        "generator" : "Khronos glTF Blender I/O v1.7.33",
        "version" : "2.0"
    },
    "scene" : 1,
    "scenes" : [
        {
            "name" : "FBX_Temp",
            "nodes" : [
                0
            ]
        },
        {
            "name" : "Scene",
            "nodes" : [
                1,
                2,
                3,
                4,
                5,
                6,
                7
            ]
        }
    ],
    "nodes" : [
        {
            "mesh" : 0,
            "name" : "3moji.064",
            "rotation" : [
                0,
                -0.7071068286895752,
                0,
                0.7071068286895752
            ]
        },
        {
            "mesh" : 1,
            "name" : "Circle.2362"
        },
        {
            "mesh" : 2,
            "name" : "Circle.2363"
        },
        {
            "mesh" : 3,
            "name" : "Circle.2364"
        },
        {
            "mesh" : 4,
            "name" : "Circle.2365"
        },
        {
            "mesh" : 5,
            "name" : "Cube.512"
        },
        {
            "mesh" : 6,
            "name" : "Cube.513"
        },
        {
            "mesh" : 7,
            "name" : "Cube.518"
        }
    ],
    "materials" : [
        {
            "doubleSided" : true,
            "name" : "color",
            "pbrMetallicRoughness" : {
                "baseColorTexture" : {
                    "index" : 0
                },
                "metallicFactor" : 0,
                "roughnessFactor" : 0.5
            }
        }
    ],
    "meshes" : [
        {
            "name" : "Cube.417",
            "primitives" : [
                {
                    "attributes" : {
                        "POSITION" : 0,
                        "NORMAL" : 1,
                        "TEXCOORD_0" : 2
                    },
                    "indices" : 3,
                    "material" : 0
                }
            ]
        },
        {
            "name" : "Circle.2902",
            "primitives" : [
                {
                    "attributes" : {
                        "POSITION" : 4,
                        "NORMAL" : 5,
                        "TEXCOORD_0" : 6
                    },
                    "indices" : 7,
                    "material" : 0
                }
            ]
        },
        {
            "name" : "Circle.2903",
            "primitives" : [
                {
                    "attributes" : {
                        "POSITION" : 8,
                        "NORMAL" : 9,
                        "TEXCOORD_0" : 10
                    },
                    "indices" : 11,
                    "material" : 0
                }
            ]
        },
        {
            "name" : "Circle.2904",
            "primitives" : [
                {
                    "attributes" : {
                        "POSITION" : 12,
                        "NORMAL" : 13,
                        "TEXCOORD_0" : 14
                    },
                    "indices" : 15,
                    "material" : 0
                }
            ]
        },
        {
            "name" : "Circle.2905",
            "primitives" : [
                {
                    "attributes" : {
                        "POSITION" : 16,
                        "NORMAL" : 17,
                        "TEXCOORD_0" : 18
                    },
                    "indices" : 19,
                    "material" : 0
                }
            ]
        },
        {
            "name" : "Cube.905",
            "primitives" : [
                {
                    "attributes" : {
                        "POSITION" : 20,
                        "NORMAL" : 21,
                        "TEXCOORD_0" : 22
                    },
                    "indices" : 23,
                    "material" : 0
                }
            ]
        },
        {
            "name" : "Cube.906",
            "primitives" : [
                {
                    "attributes" : {
                        "POSITION" : 24,
                        "NORMAL" : 25,
                        "TEXCOORD_0" : 26
                    },
                    "indices" : 27,
                    "material" : 0
                }
            ]
        },
        {
            "name" : "Cube.907",
            "primitives" : [
                {
                    "attributes" : {
                        "POSITION" : 28,
                        "NORMAL" : 29,
                        "TEXCOORD_0" : 30
                    },
                    "indices" : 31,
                    "material" : 0
                }
            ]
        }
    ],
    "textures" : [
        {
            "sampler" : 0,
            "source" : 0
        }
    ],
    "images" : [
        {
            "bufferView" : 4,
            "mimeType" : "image/png",
            "name" : "tex"
        }
    ],
    "accessors" : [
        {
            "bufferView" : 0,
            "componentType" : 5126,
            "count" : 752,
            "max" : [
                -0.8264395594596863,
                0.05719918757677078,
                0.13795676827430725
            ],
            "min" : [
                -0.8543609976768494,
                -0.014034310355782509,
                -0.12436223030090332
            ],
            "type" : "VEC3"
        },
        {
            "bufferView" : 1,
            "componentType" : 5126,
            "count" : 752,
            "type" : "VEC3"
        },
        {
            "bufferView" : 2,
            "componentType" : 5126,
            "count" : 752,
            "type" : "VEC2"
        },
        {
            "bufferView" : 3,
            "componentType" : 5123,
            "count" : 1680,
            "type" : "SCALAR"
        },
        {
            "bufferView" : 5,
            "componentType" : 5126,
            "count" : 172,
            "max" : [
                -0.3549625873565674,
                1.177383303642273,
                -0.6583892703056335
            ],
            "min" : [
                -0.6467745900154114,
                0.885313093662262,
                -0.7107250094413757
            ],
            "type" : "VEC3"
        },
        {
            "bufferView" : 6,
            "componentType" : 5126,
            "count" : 172,
            "type" : "VEC3"
        },
        {
            "bufferView" : 7,
            "componentType" : 5126,
            "count" : 172,
            "type" : "VEC2"
        },
        {
            "bufferView" : 8,
            "componentType" : 5123,
            "count" : 480,
            "type" : "SCALAR"
        },
        {
            "bufferView" : 9,
            "componentType" : 5126,
            "count" : 346,
            "max" : [
                0.3503890335559845,
                1.1529115438461304,
                -0.3852764964103699
            ],
            "min" : [
                0.002605623798444867,
                0.6881964802742004,
                -0.44808921217918396
            ],
            "type" : "VEC3"
        },
        {
            "bufferView" : 10,
            "componentType" : 5126,
            "count" : 346,
            "type" : "VEC3"
        },
        {
            "bufferView" : 11,
            "componentType" : 5126,
            "count" : 346,
            "type" : "VEC2"
        },
        {
            "bufferView" : 12,
            "componentType" : 5123,
            "count" : 2064,
            "type" : "SCALAR"
        },
        {
            "bufferView" : 13,
            "componentType" : 5126,
            "count" : 172,
            "max" : [
                -0.9043931365013123,
                0.6020281314849854,
                -0.6632877588272095
            ],
            "min" : [
                -1.1358473300933838,
                0.3618775010108948,
                -0.7058290243148804
            ],
            "type" : "VEC3"
        },
        {
            "bufferView" : 14,
            "componentType" : 5126,
            "count" : 172,
            "type" : "VEC3"
        },
        {
            "bufferView" : 15,
            "componentType" : 5126,
            "count" : 172,
            "type" : "VEC2"
        },
        {
            "bufferView" : 16,
            "componentType" : 5123,
            "count" : 480,
            "type" : "SCALAR"
        },
        {
            "bufferView" : 17,
            "componentType" : 5126,
            "count" : 172,
            "max" : [
                1.0643277168273926,
                1.0078332424163818,
                -0.6655023097991943
            ],
            "min" : [
                0.8528947830200195,
                0.7942685484886169,
                -0.7036155462265015
            ],
            "type" : "VEC3"
        },
        {
            "bufferView" : 18,
            "componentType" : 5126,
            "count" : 172,
            "type" : "VEC3"
        },
        {
            "bufferView" : 19,
            "componentType" : 5126,
            "count" : 172,
            "type" : "VEC2"
        },
        {
            "bufferView" : 20,
            "componentType" : 5123,
            "count" : 480,
            "type" : "SCALAR"
        },
        {
            "bufferView" : 21,
            "componentType" : 5126,
            "count" : 236,
            "max" : [
                0.9600000381469727,
                0.45498839020729065,
                0.4000000059604645
            ],
            "min" : [
                0.1599999964237213,
                -1.0650116205215454,
                -0.4000000059604645
            ],
            "type" : "VEC3"
        },
        {
            "bufferView" : 22,
            "componentType" : 5126,
            "count" : 236,
            "type" : "VEC3"
        },
        {
            "bufferView" : 23,
            "componentType" : 5126,
            "count" : 236,
            "type" : "VEC2"
        },
        {
            "bufferView" : 24,
            "componentType" : 5123,
            "count" : 756,
            "type" : "SCALAR"
        },
        {
            "bufferView" : 25,
            "componentType" : 5126,
            "count" : 375,
            "max" : [
                -0.11163406819105148,
                0.20210924744606018,
                0.4539754092693329
            ],
            "min" : [
                -1.0195848941802979,
                -1.0650116205215454,
                -0.4539754092693329
            ],
            "type" : "VEC3"
        },
        {
            "bufferView" : 26,
            "componentType" : 5126,
            "count" : 375,
            "type" : "VEC3"
        },
        {
            "bufferView" : 27,
            "componentType" : 5126,
            "count" : 375,
            "type" : "VEC2"
        },
        {
            "bufferView" : 28,
            "componentType" : 5123,
            "count" : 960,
            "type" : "SCALAR"
        },
        {
            "bufferView" : 29,
            "componentType" : 5126,
            "count" : 278,
            "max" : [
                0.33358868956565857,
                0.5737277865409851,
                -0.4902542233467102
            ],
            "min" : [
                -0.46671944856643677,
                -1.0650116205215454,
                -1.2902542352676392
            ],
            "type" : "VEC3"
        },
        {
            "bufferView" : 30,
            "componentType" : 5126,
            "count" : 278,
            "type" : "VEC3"
        },
        {
            "bufferView" : 31,
            "componentType" : 5126,
            "count" : 278,
            "type" : "VEC2"
        },
        {
            "bufferView" : 32,
            "componentType" : 5123,
            "count" : 756,
            "type" : "SCALAR"
        }
    ],
    "bufferViews" : [
        {
            "buffer" : 0,
            "byteLength" : 9024,
            "byteOffset" : 0
        },
        {
            "buffer" : 0,
            "byteLength" : 9024,
            "byteOffset" : 9024
        },
        {
            "buffer" : 0,
            "byteLength" : 6016,
            "byteOffset" : 18048
        },
        {
            "buffer" : 0,
            "byteLength" : 3360,
            "byteOffset" : 24064
        },
        {
            "buffer" : 0,
            "byteLength" : 11997,
            "byteOffset" : 27424
        },
        {
            "buffer" : 0,
            "byteLength" : 2064,
            "byteOffset" : 39424
        },
        {
            "buffer" : 0,
            "byteLength" : 2064,
            "byteOffset" : 41488
        },
        {
            "buffer" : 0,
            "byteLength" : 1376,
            "byteOffset" : 43552
        },
        {
            "buffer" : 0,
            "byteLength" : 960,
            "byteOffset" : 44928
        },
        {
            "buffer" : 0,
            "byteLength" : 4152,
            "byteOffset" : 45888
        },
        {
            "buffer" : 0,
            "byteLength" : 4152,
            "byteOffset" : 50040
        },
        {
            "buffer" : 0,
            "byteLength" : 2768,
            "byteOffset" : 54192
        },
        {
            "buffer" : 0,
            "byteLength" : 4128,
            "byteOffset" : 56960
        },
        {
            "buffer" : 0,
            "byteLength" : 2064,
            "byteOffset" : 61088
        },
        {
            "buffer" : 0,
            "byteLength" : 2064,
            "byteOffset" : 63152
        },
        {
            "buffer" : 0,
            "byteLength" : 1376,
            "byteOffset" : 65216
        },
        {
            "buffer" : 0,
            "byteLength" : 960,
            "byteOffset" : 66592
        },
        {
            "buffer" : 0,
            "byteLength" : 2064,
            "byteOffset" : 67552
        },
        {
            "buffer" : 0,
            "byteLength" : 2064,
            "byteOffset" : 69616
        },
        {
            "buffer" : 0,
            "byteLength" : 1376,
            "byteOffset" : 71680
        },
        {
            "buffer" : 0,
            "byteLength" : 960,
            "byteOffset" : 73056
        },
        {
            "buffer" : 0,
            "byteLength" : 2832,
            "byteOffset" : 74016
        },
        {
            "buffer" : 0,
            "byteLength" : 2832,
            "byteOffset" : 76848
        },
        {
            "buffer" : 0,
            "byteLength" : 1888,
            "byteOffset" : 79680
        },
        {
            "buffer" : 0,
            "byteLength" : 1512,
            "byteOffset" : 81568
        },
        {
            "buffer" : 0,
            "byteLength" : 4500,
            "byteOffset" : 83080
        },
        {
            "buffer" : 0,
            "byteLength" : 4500,
            "byteOffset" : 87580
        },
        {
            "buffer" : 0,
            "byteLength" : 3000,
            "byteOffset" : 92080
        },
        {
            "buffer" : 0,
            "byteLength" : 1920,
            "byteOffset" : 95080
        },
        {
            "buffer" : 0,
            "byteLength" : 3336,
            "byteOffset" : 97000
        },
        {
            "buffer" : 0,
            "byteLength" : 3336,
            "byteOffset" : 100336
        },
        {
            "buffer" : 0,
            "byteLength" : 2224,
            "byteOffset" : 103672
        },
        {
            "buffer" : 0,
            "byteLength" : 1512,
            "byteOffset" : 105896
        }
    ],
    "samplers" : [
        {
            "magFilter" : 9729,
            "minFilter" : 9987
        }
    ],
    "buffers" : [
        {
            "byteLength" : 107408,
            "uri" : "data:application/octet-stream;base64,"
        }
    ]
}
