{
    "asset" : {
        "copyright" : "Jeremy Edelblut",
        "generator" : "Khronos glTF Blender I/O v1.7.33",
        "version" : "2.0"
    },
    "scene" : 1,
    "scenes" : [
        {
            "name" : "FBX_Temp",
            "nodes" : [
                0
            ]
        },
        {
            "name" : "Scene",
            "nodes" : [
                1,
                2,
                3,
                4,
                5,
                6,
                7
            ]
        }
    ],
    "nodes" : [
        {
            "mesh" : 0,
            "name" : "3moji.064",
            "rotation" : [
                0,
                -0.7071068286895752,
                0,
                0.7071068286895752
            ]
        },
        {
            "mesh" : 1,
            "name" : "Circle.816",
            "rotation" : [
                0.7071068286895752,
                0,
                0,
                0.7071068286895752
            ],
            "scale" : [
                2.706974744796753,
                2.706974744796753,
                2.706974744796753
            ]
        },
        {
            "mesh" : 2,
            "name" : "Circle.817",
            "rotation" : [
                0.7071068286895752,
                0,
                0,
                0.7071068286895752
            ],
            "scale" : [
                2.706974744796753,
                2.706974744796753,
                2.706974744796753
            ]
        },
        {
            "mesh" : 3,
            "name" : "Roundcube.155",
            "rotation" : [
                0,
                -0.7071068286895752,
                0,
                0.7071068286895752
            ],
            "scale" : [
                0.7010374069213867,
                0.7010374069213867,
                0.7010374069213867
            ]
        },
        {
            "mesh" : 4,
            "name" : "Sphere.127",
            "rotation" : [
                0,
                -0.7071068286895752,
                0,
                0.7071068286895752
            ],
            "scale" : [
                0.5,
                0.5,
                0.5
            ]
        },
        {
            "mesh" : 5,
            "name" : "Circle.819",
            "rotation" : [
                0.09095031023025513,
                -0.4519960582256317,
                -0.0463903434574604,
                0.886157751083374
            ],
            "scale" : [
                0.3622913360595703,
                0.618464469909668,
                0.3622913360595703
            ]
        },
        {
            "mesh" : 6,
            "name" : "Roundcube.156",
            "rotation" : [
                -0.032652225345373154,
                -0.7063524723052979,
                0.032652225345373154,
                0.7063524723052979
            ],
            "scale" : [
                0.7284548878669739,
                0.7690844535827637,
                0.7280932068824768
            ]
        },
        {
            "mesh" : 7,
            "name" : "Cube.1984",
            "rotation" : [
                0.2879789471626282,
                -0.5757991671562195,
                0.19504106044769287,
                0.7399205565452576
            ],
            "scale" : [
                0.4121607542037964,
                0.4121607542037964,
                0.4121607542037964
            ]
        }
    ],
    "materials" : [
        {
            "doubleSided" : true,
            "name" : "color",
            "pbrMetallicRoughness" : {
                "baseColorTexture" : {
                    "index" : 0
                },
                "metallicFactor" : 0,
                "roughnessFactor" : 0.5
            }
        },
        {
            "doubleSided" : true,
            "name" : "skin_tone_one",
            "pbrMetallicRoughness" : {
                "baseColorTexture" : {
                    "index" : 1
                },
                "metallicFactor" : 0,
                "roughnessFactor" : 0.5
            }
        }
    ],
    "meshes" : [
        {
            "name" : "Cube.417",
            "primitives" : [
                {
                    "attributes" : {
                        "POSITION" : 0,
                        "NORMAL" : 1,
                        "TEXCOORD_0" : 2
                    },
                    "indices" : 3,
                    "material" : 0
                }
            ]
        },
        {
            "name" : "Circle.880",
            "primitives" : [
                {
                    "attributes" : {
                        "POSITION" : 4,
                        "NORMAL" : 5,
                        "TEXCOORD_0" : 6
                    },
                    "indices" : 7,
                    "material" : 0
                }
            ]
        },
        {
            "name" : "Circle.882",
            "primitives" : [
                {
                    "attributes" : {
                        "POSITION" : 8,
                        "NORMAL" : 9,
                        "TEXCOORD_0" : 10
                    },
                    "indices" : 11,
                    "material" : 0
                }
            ]
        },
        {
            "name" : "Roundcube.155",
            "primitives" : [
                {
                    "attributes" : {
                        "POSITION" : 12,
                        "NORMAL" : 13,
                        "TEXCOORD_0" : 14
                    },
                    "indices" : 15,
                    "material" : 0
                },
                {
                    "attributes" : {
                        "POSITION" : 16,
                        "NORMAL" : 17,
                        "TEXCOORD_0" : 18
                    },
                    "indices" : 19,
                    "material" : 1
                }
            ]
        },
        {
            "name" : "Sphere.127",
            "primitives" : [
                {
                    "attributes" : {
                        "POSITION" : 20,
                        "NORMAL" : 21,
                        "TEXCOORD_0" : 22
                    },
                    "indices" : 23,
                    "material" : 0
                }
            ]
        },
        {
            "name" : "Circle.884",
            "primitives" : [
                {
                    "attributes" : {
                        "POSITION" : 24,
                        "NORMAL" : 25,
                        "TEXCOORD_0" : 26
                    },
                    "indices" : 27,
                    "material" : 0
                }
            ]
        },
        {
            "name" : "Roundcube.156",
            "primitives" : [
                {
                    "attributes" : {
                        "POSITION" : 28,
                        "NORMAL" : 29,
                        "TEXCOORD_0" : 30
                    },
                    "indices" : 31,
                    "material" : 0
                }
            ]
        },
        {
            "name" : "Cube.2392",
            "primitives" : [
                {
                    "attributes" : {
                        "POSITION" : 32,
                        "NORMAL" : 33,
                        "TEXCOORD_0" : 34
                    },
                    "indices" : 35,
                    "material" : 0
                }
            ]
        }
    ],
    "textures" : [
        {
            "sampler" : 0,
            "source" : 0
        },
        {
            "sampler" : 0,
            "source" : 0
        }
    ],
    "images" : [
        {
            "bufferView" : 4,
            "mimeType" : "image/png",
            "name" : "tex"
        }
    ],
    "accessors" : [
        {
            "bufferView" : 0,
            "componentType" : 5126,
            "count" : 752,
            "max" : [
                -0.8264395594596863,
                0.05719918757677078,
                0.13795676827430725
            ],
            "min" : [
                -0.8543609976768494,
                -0.014034310355782509,
                -0.12436223030090332
            ],
            "type" : "VEC3"
        },
        {
            "bufferView" : 1,
            "componentType" : 5126,
            "count" : 752,
            "type" : "VEC3"
        },
        {
            "bufferView" : 2,
            "componentType" : 5126,
            "count" : 752,
            "type" : "VEC2"
        },
        {
            "bufferView" : 3,
            "componentType" : 5123,
            "count" : 1680,
            "type" : "SCALAR"
        },
        {
            "bufferView" : 5,
            "componentType" : 5126,
            "count" : 1448,
            "max" : [
                0.13123218715190887,
                0.21667331457138062,
                -0.02624291181564331
            ],
            "min" : [
                -0.13123218715190887,
                0.17979638278484344,
                -0.11764390021562576
            ],
            "type" : "VEC3"
        },
        {
            "bufferView" : 6,
            "componentType" : 5126,
            "count" : 1448,
            "type" : "VEC3"
        },
        {
            "bufferView" : 7,
            "componentType" : 5126,
            "count" : 1448,
            "type" : "VEC2"
        },
        {
            "bufferView" : 8,
            "componentType" : 5123,
            "count" : 6912,
            "type" : "SCALAR"
        },
        {
            "bufferView" : 9,
            "componentType" : 5126,
            "count" : 430,
            "max" : [
                0.025260819122195244,
                0.22208921611309052,
                0.007156853564083576
            ],
            "min" : [
                -0.024515287950634956,
                0.20899777114391327,
                -0.022012529894709587
            ],
            "type" : "VEC3"
        },
        {
            "bufferView" : 10,
            "componentType" : 5126,
            "count" : 430,
            "type" : "VEC3"
        },
        {
            "bufferView" : 11,
            "componentType" : 5126,
            "count" : 430,
            "type" : "VEC2"
        },
        {
            "bufferView" : 12,
            "componentType" : 5123,
            "count" : 1824,
            "type" : "SCALAR"
        },
        {
            "bufferView" : 13,
            "componentType" : 5126,
            "count" : 837,
            "max" : [
                0.7026739120483398,
                -0.19611746072769165,
                0.24305708706378937
            ],
            "min" : [
                -0.6941247582435608,
                -1.9946715831756592,
                -0.2604065537452698
            ],
            "type" : "VEC3"
        },
        {
            "bufferView" : 14,
            "componentType" : 5126,
            "count" : 837,
            "type" : "VEC3"
        },
        {
            "bufferView" : 15,
            "componentType" : 5126,
            "count" : 837,
            "type" : "VEC2"
        },
        {
            "bufferView" : 16,
            "componentType" : 5123,
            "count" : 2064,
            "type" : "SCALAR"
        },
        {
            "bufferView" : 17,
            "componentType" : 5126,
            "count" : 1173,
            "max" : [
                0.8239538669586182,
                1.2452303171157837,
                1.022308588027954
            ],
            "min" : [
                -1.3394240140914917,
                -1.151817798614502,
                -1.0223219394683838
            ],
            "type" : "VEC3"
        },
        {
            "bufferView" : 18,
            "componentType" : 5126,
            "count" : 1173,
            "type" : "VEC3"
        },
        {
            "bufferView" : 19,
            "componentType" : 5126,
            "count" : 1173,
            "type" : "VEC2"
        },
        {
            "bufferView" : 20,
            "componentType" : 5123,
            "count" : 5916,
            "type" : "SCALAR"
        },
        {
            "bufferView" : 21,
            "componentType" : 5126,
            "count" : 1376,
            "max" : [
                0.3584023714065552,
                -1.1725022792816162,
                1.5000004768371582
            ],
            "min" : [
                -2.04791259765625,
                -2.7983813285827637,
                -1.5000004768371582
            ],
            "type" : "VEC3"
        },
        {
            "bufferView" : 22,
            "componentType" : 5126,
            "count" : 1376,
            "type" : "VEC3"
        },
        {
            "bufferView" : 23,
            "componentType" : 5126,
            "count" : 1376,
            "type" : "VEC2"
        },
        {
            "bufferView" : 24,
            "componentType" : 5123,
            "count" : 6198,
            "type" : "SCALAR"
        },
        {
            "bufferView" : 25,
            "componentType" : 5126,
            "count" : 332,
            "max" : [
                0.6442093849182129,
                -0.9680027365684509,
                0.7313148975372314
            ],
            "min" : [
                -1.6083595752716064,
                -1.5905898809432983,
                -1.4686851501464844
            ],
            "type" : "VEC3"
        },
        {
            "bufferView" : 26,
            "componentType" : 5126,
            "count" : 332,
            "type" : "VEC3"
        },
        {
            "bufferView" : 27,
            "componentType" : 5126,
            "count" : 332,
            "type" : "VEC2"
        },
        {
            "bufferView" : 28,
            "componentType" : 5123,
            "count" : 972,
            "type" : "SCALAR"
        },
        {
            "bufferView" : 29,
            "componentType" : 5126,
            "count" : 2841,
            "max" : [
                0.9386829137802124,
                1.321851134300232,
                1.052397608757019
            ],
            "min" : [
                -1.3446154594421387,
                -0.9224220514297485,
                -1.0395485162734985
            ],
            "type" : "VEC3"
        },
        {
            "bufferView" : 30,
            "componentType" : 5126,
            "count" : 2841,
            "type" : "VEC3"
        },
        {
            "bufferView" : 31,
            "componentType" : 5126,
            "count" : 2841,
            "type" : "VEC2"
        },
        {
            "bufferView" : 32,
            "componentType" : 5123,
            "count" : 13152,
            "type" : "SCALAR"
        },
        {
            "bufferView" : 33,
            "componentType" : 5126,
            "count" : 408,
            "max" : [
                -2.106886148452759,
                0.9079334735870361,
                2.3829290866851807
            ],
            "min" : [
                -2.8329966068267822,
                -2.9393067359924316,
                1.6568186283111572
            ],
            "type" : "VEC3"
        },
        {
            "bufferView" : 34,
            "componentType" : 5126,
            "count" : 408,
            "type" : "VEC3"
        },
        {
            "bufferView" : 35,
            "componentType" : 5126,
            "count" : 408,
            "type" : "VEC2"
        },
        {
            "bufferView" : 36,
            "componentType" : 5123,
            "count" : 1656,
            "type" : "SCALAR"
        }
    ],
    "bufferViews" : [
        {
            "buffer" : 0,
            "byteLength" : 9024,
            "byteOffset" : 0
        },
        {
            "buffer" : 0,
            "byteLength" : 9024,
            "byteOffset" : 9024
        },
        {
            "buffer" : 0,
            "byteLength" : 6016,
            "byteOffset" : 18048
        },
        {
            "buffer" : 0,
            "byteLength" : 3360,
            "byteOffset" : 24064
        },
        {
            "buffer" : 0,
            "byteLength" : 11997,
            "byteOffset" : 27424
        },
        {
            "buffer" : 0,
            "byteLength" : 17376,
            "byteOffset" : 39424
        },
        {
            "buffer" : 0,
            "byteLength" : 17376,
            "byteOffset" : 56800
        },
        {
            "buffer" : 0,
            "byteLength" : 11584,
            "byteOffset" : 74176
        },
        {
            "buffer" : 0,
            "byteLength" : 13824,
            "byteOffset" : 85760
        },
        {
            "buffer" : 0,
            "byteLength" : 5160,
            "byteOffset" : 99584
        },
        {
            "buffer" : 0,
            "byteLength" : 5160,
            "byteOffset" : 104744
        },
        {
            "buffer" : 0,
            "byteLength" : 3440,
            "byteOffset" : 109904
        },
        {
            "buffer" : 0,
            "byteLength" : 3648,
            "byteOffset" : 113344
        },
        {
            "buffer" : 0,
            "byteLength" : 10044,
            "byteOffset" : 116992
        },
        {
            "buffer" : 0,
            "byteLength" : 10044,
            "byteOffset" : 127036
        },
        {
            "buffer" : 0,
            "byteLength" : 6696,
            "byteOffset" : 137080
        },
        {
            "buffer" : 0,
            "byteLength" : 4128,
            "byteOffset" : 143776
        },
        {
            "buffer" : 0,
            "byteLength" : 14076,
            "byteOffset" : 147904
        },
        {
            "buffer" : 0,
            "byteLength" : 14076,
            "byteOffset" : 161980
        },
        {
            "buffer" : 0,
            "byteLength" : 9384,
            "byteOffset" : 176056
        },
        {
            "buffer" : 0,
            "byteLength" : 11832,
            "byteOffset" : 185440
        },
        {
            "buffer" : 0,
            "byteLength" : 16512,
            "byteOffset" : 197272
        },
        {
            "buffer" : 0,
            "byteLength" : 16512,
            "byteOffset" : 213784
        },
        {
            "buffer" : 0,
            "byteLength" : 11008,
            "byteOffset" : 230296
        },
        {
            "buffer" : 0,
            "byteLength" : 12396,
            "byteOffset" : 241304
        },
        {
            "buffer" : 0,
            "byteLength" : 3984,
            "byteOffset" : 253700
        },
        {
            "buffer" : 0,
            "byteLength" : 3984,
            "byteOffset" : 257684
        },
        {
            "buffer" : 0,
            "byteLength" : 2656,
            "byteOffset" : 261668
        },
        {
            "buffer" : 0,
            "byteLength" : 1944,
            "byteOffset" : 264324
        },
        {
            "buffer" : 0,
            "byteLength" : 34092,
            "byteOffset" : 266268
        },
        {
            "buffer" : 0,
            "byteLength" : 34092,
            "byteOffset" : 300360
        },
        {
            "buffer" : 0,
            "byteLength" : 22728,
            "byteOffset" : 334452
        },
        {
            "buffer" : 0,
            "byteLength" : 26304,
            "byteOffset" : 357180
        },
        {
            "buffer" : 0,
            "byteLength" : 4896,
            "byteOffset" : 383484
        },
        {
            "buffer" : 0,
            "byteLength" : 4896,
            "byteOffset" : 388380
        },
        {
            "buffer" : 0,
            "byteLength" : 3264,
            "byteOffset" : 393276
        },
        {
            "buffer" : 0,
            "byteLength" : 3312,
            "byteOffset" : 396540
        }
    ],
    "samplers" : [
        {
            "magFilter" : 9729,
            "minFilter" : 9987
        }
    ],
    "buffers" : [
        {
            "byteLength" : 399852,
            "uri" : "data:application/octet-stream;base64,"
        }
    ]
}
