{
    "asset" : {
        "copyright" : "Jeremy Edelblut",
        "generator" : "Khronos glTF Blender I/O v1.6.16",
        "version" : "2.0"
    },
    "scene" : 0,
    "scenes" : [
        {
            "name" : "Scene",
            "nodes" : [
                0,
                1
            ]
        }
    ],
    "nodes" : [
        {
            "mesh" : 0,
            "name" : "Mball.006",
            "rotation" : [
                0,
                -0.7071068286895752,
                0,
                0.7071067094802856
            ],
            "scale" : [
                0.5646008849143982,
                0.5646008849143982,
                0.5646008849143982
            ]
        },
        {
            "mesh" : 1,
            "name" : "3moji.org.040",
            "rotation" : [
                0,
                -0.7071070671081543,
                0,
                -0.7071064710617065
            ],
            "scale" : [
                0.00439739553257823,
                0.00439739553257823,
                0.00439739553257823
            ],
            "translation" : [
                -0.0032723993062973022,
                -0.1179095059633255,
                -0.22963932156562805
            ]
        }
    ],
    "materials" : [
        {
            "doubleSided" : true,
            "name" : "Color",
            "pbrMetallicRoughness" : {
                "baseColorTexture" : {
                    "index" : 0
                },
                "metallicFactor" : 0,
                "roughnessFactor" : 0.5
            }
        }
    ],
    "meshes" : [
        {
            "name" : "Mesh.004",
            "primitives" : [
                {
                    "attributes" : {
                        "POSITION" : 0,
                        "NORMAL" : 1,
                        "TEXCOORD_0" : 2
                    },
                    "indices" : 3,
                    "material" : 0
                }
            ]
        },
        {
            "name" : "Cube.198",
            "primitives" : [
                {
                    "attributes" : {
                        "POSITION" : 4,
                        "NORMAL" : 5,
                        "TEXCOORD_0" : 6
                    },
                    "indices" : 7,
                    "material" : 0
                }
            ]
        }
    ],
    "textures" : [
        {
            "sampler" : 0,
            "source" : 0
        }
    ],
    "images" : [
        {
            "bufferView" : 4,
            "mimeType" : "image/png",
            "name" : "tex2"
        }
    ],
    "accessors" : [
        {
            "bufferView" : 0,
            "componentType" : 5126,
            "count" : 788,
            "max" : [
                1.5033752918243408,
                1.894853115081787,
                1.5578197240829468
            ],
            "min" : [
                -0.5026019811630249,
                -1.6780781745910645,
                -1.530399203300476
            ],
            "type" : "VEC3"
        },
        {
            "bufferView" : 1,
            "componentType" : 5126,
            "count" : 788,
            "type" : "VEC3"
        },
        {
            "bufferView" : 2,
            "componentType" : 5126,
            "count" : 788,
            "type" : "VEC2"
        },
        {
            "bufferView" : 3,
            "componentType" : 5123,
            "count" : 4308,
            "type" : "SCALAR"
        },
        {
            "bufferView" : 5,
            "componentType" : 5126,
            "count" : 752,
            "max" : [
                1.2953357696533203,
                7.90000057220459,
                17.240537643432617
            ],
            "min" : [
                2.8697024390567094e-05,
                -1.8999989032745361,
                -19.159460067749023
            ],
            "type" : "VEC3"
        },
        {
            "bufferView" : 6,
            "componentType" : 5126,
            "count" : 752,
            "type" : "VEC3"
        },
        {
            "bufferView" : 7,
            "componentType" : 5126,
            "count" : 752,
            "type" : "VEC2"
        },
        {
            "bufferView" : 8,
            "componentType" : 5123,
            "count" : 1680,
            "type" : "SCALAR"
        }
    ],
    "bufferViews" : [
        {
            "buffer" : 0,
            "byteLength" : 9456,
            "byteOffset" : 0
        },
        {
            "buffer" : 0,
            "byteLength" : 9456,
            "byteOffset" : 9456
        },
        {
            "buffer" : 0,
            "byteLength" : 6304,
            "byteOffset" : 18912
        },
        {
            "buffer" : 0,
            "byteLength" : 8616,
            "byteOffset" : 25216
        },
        {
            "buffer" : 0,
            "byteLength" : 6474,
            "byteOffset" : 33832
        },
        {
            "buffer" : 0,
            "byteLength" : 9024,
            "byteOffset" : 40308
        },
        {
            "buffer" : 0,
            "byteLength" : 9024,
            "byteOffset" : 49332
        },
        {
            "buffer" : 0,
            "byteLength" : 6016,
            "byteOffset" : 58356
        },
        {
            "buffer" : 0,
            "byteLength" : 3360,
            "byteOffset" : 64372
        }
    ],
    "samplers" : [
        {
            "magFilter" : 9729,
            "minFilter" : 9987
        }
    ],
    "buffers" : [
        {
            "byteLength" : 67732,
            "uri" : "data:application/octet-stream;base64,"
        }
    ]
}
