{
    "asset" : {
        "copyright" : "Jeremy Edelblut",
        "generator" : "Khronos glTF Blender I/O v1.6.16",
        "version" : "2.0"
    },
    "scene" : 0,
    "scenes" : [
        {
            "name" : "Scene",
            "nodes" : [
                0,
                1,
                2
            ]
        }
    ],
    "nodes" : [
        {
            "mesh" : 0,
            "name" : "Circle.1984",
            "rotation" : [
                0,
                -0.8314694166183472,
                0,
                -0.5555705428123474
            ],
            "scale" : [
                0.08000002801418304,
                0.08000002056360245,
                0.08000002801418304
            ],
            "translation" : [
                0,
                -0.18666188418865204,
                0
            ]
        },
        {
            "mesh" : 1,
            "name" : "Circle.1985",
            "rotation" : [
                0.5,
                0.5,
                -0.5,
                0.4999999701976776
            ],
            "scale" : [
                1.0010098218917847,
                1.0010098218917847,
                1.0010098218917847
            ],
            "translation" : [
                0,
                -1.4077872037887573e-05,
                -0.0012895155232399702
            ]
        },
        {
            "mesh" : 2,
            "name" : "Plane.172",
            "rotation" : [
                -0.27059805393218994,
                -0.27059805393218994,
                -0.6532814502716064,
                0.6532815098762512
            ],
            "scale" : [
                0.1113075315952301,
                0.1113075315952301,
                0.1113075315952301
            ]
        }
    ],
    "materials" : [
        {
            "doubleSided" : true,
            "name" : "Pink",
            "pbrMetallicRoughness" : {
                "baseColorFactor" : [
                    0.8000000715255737,
                    0.07068260759115219,
                    0.3145071268081665,
                    1
                ],
                "metallicFactor" : 0,
                "roughnessFactor" : 0.5
            }
        },
        {
            "doubleSided" : true,
            "name" : "DKBrown",
            "pbrMetallicRoughness" : {
                "baseColorFactor" : [
                    0.010021701455116272,
                    0.0023923655971884727,
                    0.0018060366855934262,
                    1
                ],
                "metallicFactor" : 0,
                "roughnessFactor" : 0.5
            }
        },
        {
            "doubleSided" : true,
            "name" : "dkPink",
            "pbrMetallicRoughness" : {
                "baseColorFactor" : [
                    0.3423771858215332,
                    0.0336165577173233,
                    0.13858771324157715,
                    1
                ],
                "metallicFactor" : 0,
                "roughnessFactor" : 0.5
            }
        }
    ],
    "meshes" : [
        {
            "name" : "Circle.2307",
            "primitives" : [
                {
                    "attributes" : {
                        "POSITION" : 0,
                        "NORMAL" : 1,
                        "TEXCOORD_0" : 2
                    },
                    "indices" : 3,
                    "material" : 0
                },
                {
                    "attributes" : {
                        "POSITION" : 4,
                        "NORMAL" : 5,
                        "TEXCOORD_0" : 6
                    },
                    "indices" : 7
                }
            ]
        },
        {
            "name" : "Circle.2308",
            "primitives" : [
                {
                    "attributes" : {
                        "POSITION" : 8,
                        "NORMAL" : 9,
                        "TEXCOORD_0" : 10
                    },
                    "indices" : 11,
                    "material" : 1
                }
            ]
        },
        {
            "name" : "Plane.169",
            "primitives" : [
                {
                    "attributes" : {
                        "POSITION" : 12,
                        "NORMAL" : 13,
                        "TEXCOORD_0" : 14
                    },
                    "indices" : 15,
                    "material" : 2
                }
            ]
        }
    ],
    "accessors" : [
        {
            "bufferView" : 0,
            "componentType" : 5126,
            "count" : 3617,
            "max" : [
                13.585679054260254,
                12.522417068481445,
                13.585678100585938
            ],
            "min" : [
                -13.585678100585938,
                -1.9222729206085205,
                -13.585678100585938
            ],
            "type" : "VEC3"
        },
        {
            "bufferView" : 1,
            "componentType" : 5126,
            "count" : 3617,
            "type" : "VEC3"
        },
        {
            "bufferView" : 2,
            "componentType" : 5126,
            "count" : 3617,
            "type" : "VEC2"
        },
        {
            "bufferView" : 3,
            "componentType" : 5123,
            "count" : 19872,
            "type" : "SCALAR"
        },
        {
            "bufferView" : 4,
            "componentType" : 5126,
            "count" : 2897,
            "max" : [
                13.153863906860352,
                2.7504632472991943,
                13.153863906860352
            ],
            "min" : [
                -13.153863906860352,
                -2.802398920059204,
                -13.153863906860352
            ],
            "type" : "VEC3"
        },
        {
            "bufferView" : 5,
            "componentType" : 5126,
            "count" : 2897,
            "type" : "VEC3"
        },
        {
            "bufferView" : 6,
            "componentType" : 5126,
            "count" : 2897,
            "type" : "VEC2"
        },
        {
            "bufferView" : 7,
            "componentType" : 5123,
            "count" : 15552,
            "type" : "SCALAR"
        },
        {
            "bufferView" : 8,
            "componentType" : 5126,
            "count" : 452,
            "max" : [
                0.1857886165380478,
                0.33283528685569763,
                -0.06802470237016678
            ],
            "min" : [
                -0.1857886165380478,
                0.26734089851379395,
                -0.24400267004966736
            ],
            "type" : "VEC3"
        },
        {
            "bufferView" : 9,
            "componentType" : 5126,
            "count" : 452,
            "type" : "VEC3"
        },
        {
            "bufferView" : 10,
            "componentType" : 5126,
            "count" : 452,
            "type" : "VEC2"
        },
        {
            "bufferView" : 11,
            "componentType" : 5123,
            "count" : 1920,
            "type" : "SCALAR"
        },
        {
            "bufferView" : 12,
            "componentType" : 5126,
            "count" : 580,
            "max" : [
                0.726883053779602,
                2.4076263904571533,
                6.257052421569824
            ],
            "min" : [
                -6.116440296173096,
                -4.081229209899902,
                -1.1340899467468262
            ],
            "type" : "VEC3"
        },
        {
            "bufferView" : 13,
            "componentType" : 5126,
            "count" : 580,
            "type" : "VEC3"
        },
        {
            "bufferView" : 14,
            "componentType" : 5126,
            "count" : 580,
            "type" : "VEC2"
        },
        {
            "bufferView" : 15,
            "componentType" : 5123,
            "count" : 2016,
            "type" : "SCALAR"
        }
    ],
    "bufferViews" : [
        {
            "buffer" : 0,
            "byteLength" : 43404,
            "byteOffset" : 0
        },
        {
            "buffer" : 0,
            "byteLength" : 43404,
            "byteOffset" : 43404
        },
        {
            "buffer" : 0,
            "byteLength" : 28936,
            "byteOffset" : 86808
        },
        {
            "buffer" : 0,
            "byteLength" : 39744,
            "byteOffset" : 115744
        },
        {
            "buffer" : 0,
            "byteLength" : 34764,
            "byteOffset" : 155488
        },
        {
            "buffer" : 0,
            "byteLength" : 34764,
            "byteOffset" : 190252
        },
        {
            "buffer" : 0,
            "byteLength" : 23176,
            "byteOffset" : 225016
        },
        {
            "buffer" : 0,
            "byteLength" : 31104,
            "byteOffset" : 248192
        },
        {
            "buffer" : 0,
            "byteLength" : 5424,
            "byteOffset" : 279296
        },
        {
            "buffer" : 0,
            "byteLength" : 5424,
            "byteOffset" : 284720
        },
        {
            "buffer" : 0,
            "byteLength" : 3616,
            "byteOffset" : 290144
        },
        {
            "buffer" : 0,
            "byteLength" : 3840,
            "byteOffset" : 293760
        },
        {
            "buffer" : 0,
            "byteLength" : 6960,
            "byteOffset" : 297600
        },
        {
            "buffer" : 0,
            "byteLength" : 6960,
            "byteOffset" : 304560
        },
        {
            "buffer" : 0,
            "byteLength" : 4640,
            "byteOffset" : 311520
        },
        {
            "buffer" : 0,
            "byteLength" : 4032,
            "byteOffset" : 316160
        }
    ],
    "buffers" : [
        {
            "byteLength" : 320192,
            "uri" : "data:application/octet-stream;base64,"
        }
    ]
}
