{
    "asset" : {
        "copyright" : "Jeremy Edelblut",
        "generator" : "Khronos glTF Blender I/O v1.6.16",
        "version" : "2.0"
    },
    "scene" : 0,
    "scenes" : [
        {
            "name" : "Scene",
            "nodes" : [
                0
            ]
        }
    ],
    "nodes" : [
        {
            "mesh" : 0,
            "name" : "Circle.2582",
            "rotation" : [
                -0.2705981135368347,
                0.6532815098762512,
                -0.6532814502716064,
                0.270597904920578
            ],
            "scale" : [
                0.45000001788139343,
                0.45000001788139343,
                0.45000001788139343
            ]
        }
    ],
    "materials" : [
        {
            "doubleSided" : true,
            "name" : "Color",
            "pbrMetallicRoughness" : {
                "baseColorTexture" : {
                    "index" : 0
                },
                "metallicFactor" : 0,
                "roughnessFactor" : 0.5
            }
        }
    ],
    "meshes" : [
        {
            "name" : "Circle.3240",
            "primitives" : [
                {
                    "attributes" : {
                        "POSITION" : 0,
                        "NORMAL" : 1,
                        "TEXCOORD_0" : 2
                    },
                    "indices" : 3,
                    "material" : 0
                }
            ]
        }
    ],
    "textures" : [
        {
            "sampler" : 0,
            "source" : 0
        }
    ],
    "images" : [
        {
            "bufferView" : 4,
            "mimeType" : "image/png",
            "name" : "tex2"
        }
    ],
    "accessors" : [
        {
            "bufferView" : 0,
            "componentType" : 5126,
            "count" : 644,
            "max" : [
                2.799999952316284,
                0.17211957275867462,
                1.0200001001358032
            ],
            "min" : [
                -2.66505765914917,
                -0.17211957275867462,
                -1.0200001001358032
            ],
            "type" : "VEC3"
        },
        {
            "bufferView" : 1,
            "componentType" : 5126,
            "count" : 644,
            "type" : "VEC3"
        },
        {
            "bufferView" : 2,
            "componentType" : 5126,
            "count" : 644,
            "type" : "VEC2"
        },
        {
            "bufferView" : 3,
            "componentType" : 5123,
            "count" : 1938,
            "type" : "SCALAR"
        }
    ],
    "bufferViews" : [
        {
            "buffer" : 0,
            "byteLength" : 7728,
            "byteOffset" : 0
        },
        {
            "buffer" : 0,
            "byteLength" : 7728,
            "byteOffset" : 7728
        },
        {
            "buffer" : 0,
            "byteLength" : 5152,
            "byteOffset" : 15456
        },
        {
            "buffer" : 0,
            "byteLength" : 3876,
            "byteOffset" : 20608
        },
        {
            "buffer" : 0,
            "byteLength" : 6474,
            "byteOffset" : 24484
        }
    ],
    "samplers" : [
        {
            "magFilter" : 9729,
            "minFilter" : 9987
        }
    ],
    "buffers" : [
        {
            "byteLength" : 30960,
            "uri" : "data:application/octet-stream;base64,"
        }
    ]
}
