{
    "asset" : {
        "copyright" : "Jeremy Edelblut",
        "generator" : "Khronos glTF Blender I/O v1.6.16",
        "version" : "2.0"
    },
    "scene" : 0,
    "scenes" : [
        {
            "name" : "Scene",
            "nodes" : [
                0,
                1,
                2,
                3,
                4,
                5,
                6,
                7,
                8,
                9
            ]
        }
    ],
    "nodes" : [
        {
            "mesh" : 0,
            "name" : "Circle.383",
            "rotation" : [
                0.7071068286895752,
                0,
                0,
                0.7071068286895752
            ],
            "scale" : [
                2.706974744796753,
                2.706974744796753,
                2.706974744796753
            ]
        },
        {
            "mesh" : 1,
            "name" : "Circle.384",
            "rotation" : [
                0.7071068286895752,
                0,
                0,
                0.7071068286895752
            ],
            "scale" : [
                2.706974744796753,
                2.706974744796753,
                2.706974744796753
            ]
        },
        {
            "mesh" : 2,
            "name" : "Roundcube.031",
            "rotation" : [
                0,
                -0.7071068286895752,
                0,
                0.7071068286895752
            ],
            "scale" : [
                0.7010374069213867,
                0.7010374069213867,
                0.7010374069213867
            ]
        },
        {
            "mesh" : 3,
            "name" : "Circle.385",
            "rotation" : [
                0.7071068286895752,
                0,
                0,
                0.7071068286895752
            ]
        },
        {
            "mesh" : 4,
            "name" : "Circle.386",
            "rotation" : [
                0.7071068286895752,
                0,
                0,
                0.7071068286895752
            ]
        },
        {
            "mesh" : 5,
            "name" : "Circle.387",
            "rotation" : [
                0.7071068286895752,
                0,
                0,
                0.7071068286895752
            ]
        },
        {
            "mesh" : 6,
            "name" : "Circle.388",
            "rotation" : [
                0,
                -0.7071068286895752,
                0,
                0.7071068286895752
            ],
            "scale" : [
                0.7761280536651611,
                0.7761280536651611,
                0.7761280536651611
            ]
        },
        {
            "mesh" : 7,
            "name" : "Roundcube.032",
            "rotation" : [
                0,
                -0.7071068286895752,
                0,
                0.7071068286895752
            ],
            "scale" : [
                0.7162042856216431,
                0.6782614588737488,
                0.7162042856216431
            ]
        },
        {
            "mesh" : 8,
            "name" : "Cube.427",
            "rotation" : [
                -0.23807677626609802,
                -0.665822446346283,
                0.23807676136493683,
                0.6658223271369934
            ],
            "scale" : [
                0.41171902418136597,
                0.41171902418136597,
                0.41171905398368835
            ]
        },
        {
            "mesh" : 9,
            "name" : "ears.027",
            "rotation" : [
                0,
                -0.7071068286895752,
                0,
                0.7071068286895752
            ],
            "scale" : [
                0.7010374069213867,
                0.7010374069213867,
                0.7010374069213867
            ]
        }
    ],
    "materials" : [
        {
            "doubleSided" : true,
            "name" : "Color",
            "pbrMetallicRoughness" : {
                "baseColorTexture" : {
                    "index" : 0
                },
                "metallicFactor" : 0,
                "roughnessFactor" : 0.5
            }
        }
    ],
    "meshes" : [
        {
            "name" : "Circle.415",
            "primitives" : [
                {
                    "attributes" : {
                        "POSITION" : 0,
                        "NORMAL" : 1,
                        "TEXCOORD_0" : 2
                    },
                    "indices" : 3,
                    "material" : 0
                }
            ]
        },
        {
            "name" : "Circle.416",
            "primitives" : [
                {
                    "attributes" : {
                        "POSITION" : 4,
                        "NORMAL" : 5,
                        "TEXCOORD_0" : 6
                    },
                    "indices" : 7,
                    "material" : 0
                }
            ]
        },
        {
            "name" : "Roundcube.032",
            "primitives" : [
                {
                    "attributes" : {
                        "POSITION" : 8,
                        "NORMAL" : 9,
                        "TEXCOORD_0" : 10
                    },
                    "indices" : 11,
                    "material" : 0
                }
            ]
        },
        {
            "name" : "Circle.417",
            "primitives" : [
                {
                    "attributes" : {
                        "POSITION" : 12,
                        "NORMAL" : 13,
                        "TEXCOORD_0" : 14
                    },
                    "indices" : 15,
                    "material" : 0
                }
            ]
        },
        {
            "name" : "Circle.418",
            "primitives" : [
                {
                    "attributes" : {
                        "POSITION" : 16,
                        "NORMAL" : 17,
                        "TEXCOORD_0" : 18
                    },
                    "indices" : 19,
                    "material" : 0
                }
            ]
        },
        {
            "name" : "Circle.419",
            "primitives" : [
                {
                    "attributes" : {
                        "POSITION" : 20,
                        "NORMAL" : 21,
                        "TEXCOORD_0" : 22
                    },
                    "indices" : 23,
                    "material" : 0
                }
            ]
        },
        {
            "name" : "Circle.420",
            "primitives" : [
                {
                    "attributes" : {
                        "POSITION" : 24,
                        "NORMAL" : 25,
                        "TEXCOORD_0" : 26
                    },
                    "indices" : 27,
                    "material" : 0
                }
            ]
        },
        {
            "name" : "Roundcube.033",
            "primitives" : [
                {
                    "attributes" : {
                        "POSITION" : 28,
                        "NORMAL" : 29,
                        "TEXCOORD_0" : 30
                    },
                    "indices" : 31,
                    "material" : 0
                }
            ]
        },
        {
            "name" : "Cube.581",
            "primitives" : [
                {
                    "attributes" : {
                        "POSITION" : 32,
                        "NORMAL" : 33,
                        "TEXCOORD_0" : 34
                    },
                    "indices" : 35,
                    "material" : 0
                }
            ]
        },
        {
            "name" : "Cylinder.011",
            "primitives" : [
                {
                    "attributes" : {
                        "POSITION" : 36,
                        "NORMAL" : 37,
                        "TEXCOORD_0" : 38
                    },
                    "indices" : 39,
                    "material" : 0
                }
            ]
        }
    ],
    "textures" : [
        {
            "sampler" : 0,
            "source" : 0
        }
    ],
    "images" : [
        {
            "bufferView" : 4,
            "mimeType" : "image/png",
            "name" : "tex2"
        }
    ],
    "accessors" : [
        {
            "bufferView" : 0,
            "componentType" : 5126,
            "count" : 452,
            "max" : [
                0.13130351901054382,
                0.2164182960987091,
                0.03634754195809364
            ],
            "min" : [
                -0.13130351901054382,
                0.17896686494350433,
                -0.055240701884031296
            ],
            "type" : "VEC3"
        },
        {
            "bufferView" : 1,
            "componentType" : 5126,
            "count" : 452,
            "type" : "VEC3"
        },
        {
            "bufferView" : 2,
            "componentType" : 5126,
            "count" : 452,
            "type" : "VEC2"
        },
        {
            "bufferView" : 3,
            "componentType" : 5123,
            "count" : 1920,
            "type" : "SCALAR"
        },
        {
            "bufferView" : 5,
            "componentType" : 5126,
            "count" : 422,
            "max" : [
                0.025262437760829926,
                0.2220267951488495,
                0.06963935494422913
            ],
            "min" : [
                -0.02451690286397934,
                0.20889705419540405,
                0.040467239916324615
            ],
            "type" : "VEC3"
        },
        {
            "bufferView" : 6,
            "componentType" : 5126,
            "count" : 422,
            "type" : "VEC3"
        },
        {
            "bufferView" : 7,
            "componentType" : 5126,
            "count" : 422,
            "type" : "VEC2"
        },
        {
            "bufferView" : 8,
            "componentType" : 5123,
            "count" : 1824,
            "type" : "SCALAR"
        },
        {
            "bufferView" : 9,
            "componentType" : 5126,
            "count" : 1983,
            "max" : [
                0.8239538669586182,
                1.0039215087890625,
                1.0290236473083496
            ],
            "min" : [
                -1.3394240140914917,
                -1.1708650588989258,
                -1.0156068801879883
            ],
            "type" : "VEC3"
        },
        {
            "bufferView" : 10,
            "componentType" : 5126,
            "count" : 1983,
            "type" : "VEC3"
        },
        {
            "bufferView" : 11,
            "componentType" : 5126,
            "count" : 1983,
            "type" : "VEC2"
        },
        {
            "bufferView" : 12,
            "componentType" : 5123,
            "count" : 8214,
            "type" : "SCALAR"
        },
        {
            "bufferView" : 13,
            "componentType" : 5126,
            "count" : 312,
            "max" : [
                0.41136711835861206,
                0.5415385961532593,
                -0.14034691452980042
            ],
            "min" : [
                -0.41136711835861206,
                0.40834110975265503,
                -0.29484325647354126
            ],
            "type" : "VEC3"
        },
        {
            "bufferView" : 14,
            "componentType" : 5126,
            "count" : 312,
            "type" : "VEC3"
        },
        {
            "bufferView" : 15,
            "componentType" : 5126,
            "count" : 312,
            "type" : "VEC2"
        },
        {
            "bufferView" : 16,
            "componentType" : 5123,
            "count" : 1056,
            "type" : "SCALAR"
        },
        {
            "bufferView" : 17,
            "componentType" : 5126,
            "count" : 1028,
            "max" : [
                0.44909051060676575,
                0.5683850646018982,
                0.28836366534233093
            ],
            "min" : [
                -0.44909051060676575,
                0.416230708360672,
                -0.09346812218427658
            ],
            "type" : "VEC3"
        },
        {
            "bufferView" : 18,
            "componentType" : 5126,
            "count" : 1028,
            "type" : "VEC3"
        },
        {
            "bufferView" : 19,
            "componentType" : 5126,
            "count" : 1028,
            "type" : "VEC2"
        },
        {
            "bufferView" : 20,
            "componentType" : 5123,
            "count" : 3264,
            "type" : "SCALAR"
        },
        {
            "bufferView" : 21,
            "componentType" : 5126,
            "count" : 316,
            "max" : [
                0.2163306027650833,
                0.49688199162483215,
                -0.3178520202636719
            ],
            "min" : [
                -0.23312602937221527,
                0.42136967182159424,
                -0.40001752972602844
            ],
            "type" : "VEC3"
        },
        {
            "bufferView" : 22,
            "componentType" : 5126,
            "count" : 316,
            "type" : "VEC3"
        },
        {
            "bufferView" : 23,
            "componentType" : 5126,
            "count" : 316,
            "type" : "VEC2"
        },
        {
            "bufferView" : 24,
            "componentType" : 5123,
            "count" : 1056,
            "type" : "SCALAR"
        },
        {
            "bufferView" : 25,
            "componentType" : 5126,
            "count" : 620,
            "max" : [
                0.7601950168609619,
                0.25091928243637085,
                0.591590166091919
            ],
            "min" : [
                0.7379991412162781,
                -0.2818124294281006,
                -0.591590166091919
            ],
            "type" : "VEC3"
        },
        {
            "bufferView" : 26,
            "componentType" : 5126,
            "count" : 620,
            "type" : "VEC3"
        },
        {
            "bufferView" : 27,
            "componentType" : 5126,
            "count" : 620,
            "type" : "VEC2"
        },
        {
            "bufferView" : 28,
            "componentType" : 5123,
            "count" : 1770,
            "type" : "SCALAR"
        },
        {
            "bufferView" : 29,
            "componentType" : 5126,
            "count" : 1388,
            "max" : [
                0.8751912713050842,
                1.2268831729888916,
                1.1331143379211426
            ],
            "min" : [
                -1.4383985996246338,
                -0.8659866452217102,
                -1.1331143379211426
            ],
            "type" : "VEC3"
        },
        {
            "bufferView" : 30,
            "componentType" : 5126,
            "count" : 1388,
            "type" : "VEC3"
        },
        {
            "bufferView" : 31,
            "componentType" : 5126,
            "count" : 1388,
            "type" : "VEC2"
        },
        {
            "bufferView" : 32,
            "componentType" : 5123,
            "count" : 7464,
            "type" : "SCALAR"
        },
        {
            "bufferView" : 33,
            "componentType" : 5126,
            "count" : 242,
            "max" : [
                0.5058124661445618,
                3.615196704864502,
                0.9020641446113586
            ],
            "min" : [
                -1.2983150482177734,
                1.936184048652649,
                -0.9020630717277527
            ],
            "type" : "VEC3"
        },
        {
            "bufferView" : 34,
            "componentType" : 5126,
            "count" : 242,
            "type" : "VEC3"
        },
        {
            "bufferView" : 35,
            "componentType" : 5126,
            "count" : 242,
            "type" : "VEC2"
        },
        {
            "bufferView" : 36,
            "componentType" : 5123,
            "count" : 960,
            "type" : "SCALAR"
        },
        {
            "bufferView" : 37,
            "componentType" : 5126,
            "count" : 1092,
            "max" : [
                -0.15159989893436432,
                0.31007927656173706,
                1.2522509098052979
            ],
            "min" : [
                -0.527228593826294,
                -0.32727834582328796,
                -1.2522509098052979
            ],
            "type" : "VEC3"
        },
        {
            "bufferView" : 38,
            "componentType" : 5126,
            "count" : 1092,
            "type" : "VEC3"
        },
        {
            "bufferView" : 39,
            "componentType" : 5126,
            "count" : 1092,
            "type" : "VEC2"
        },
        {
            "bufferView" : 40,
            "componentType" : 5123,
            "count" : 4992,
            "type" : "SCALAR"
        }
    ],
    "bufferViews" : [
        {
            "buffer" : 0,
            "byteLength" : 5424,
            "byteOffset" : 0
        },
        {
            "buffer" : 0,
            "byteLength" : 5424,
            "byteOffset" : 5424
        },
        {
            "buffer" : 0,
            "byteLength" : 3616,
            "byteOffset" : 10848
        },
        {
            "buffer" : 0,
            "byteLength" : 3840,
            "byteOffset" : 14464
        },
        {
            "buffer" : 0,
            "byteLength" : 6474,
            "byteOffset" : 18304
        },
        {
            "buffer" : 0,
            "byteLength" : 5064,
            "byteOffset" : 24780
        },
        {
            "buffer" : 0,
            "byteLength" : 5064,
            "byteOffset" : 29844
        },
        {
            "buffer" : 0,
            "byteLength" : 3376,
            "byteOffset" : 34908
        },
        {
            "buffer" : 0,
            "byteLength" : 3648,
            "byteOffset" : 38284
        },
        {
            "buffer" : 0,
            "byteLength" : 23796,
            "byteOffset" : 41932
        },
        {
            "buffer" : 0,
            "byteLength" : 23796,
            "byteOffset" : 65728
        },
        {
            "buffer" : 0,
            "byteLength" : 15864,
            "byteOffset" : 89524
        },
        {
            "buffer" : 0,
            "byteLength" : 16428,
            "byteOffset" : 105388
        },
        {
            "buffer" : 0,
            "byteLength" : 3744,
            "byteOffset" : 121816
        },
        {
            "buffer" : 0,
            "byteLength" : 3744,
            "byteOffset" : 125560
        },
        {
            "buffer" : 0,
            "byteLength" : 2496,
            "byteOffset" : 129304
        },
        {
            "buffer" : 0,
            "byteLength" : 2112,
            "byteOffset" : 131800
        },
        {
            "buffer" : 0,
            "byteLength" : 12336,
            "byteOffset" : 133912
        },
        {
            "buffer" : 0,
            "byteLength" : 12336,
            "byteOffset" : 146248
        },
        {
            "buffer" : 0,
            "byteLength" : 8224,
            "byteOffset" : 158584
        },
        {
            "buffer" : 0,
            "byteLength" : 6528,
            "byteOffset" : 166808
        },
        {
            "buffer" : 0,
            "byteLength" : 3792,
            "byteOffset" : 173336
        },
        {
            "buffer" : 0,
            "byteLength" : 3792,
            "byteOffset" : 177128
        },
        {
            "buffer" : 0,
            "byteLength" : 2528,
            "byteOffset" : 180920
        },
        {
            "buffer" : 0,
            "byteLength" : 2112,
            "byteOffset" : 183448
        },
        {
            "buffer" : 0,
            "byteLength" : 7440,
            "byteOffset" : 185560
        },
        {
            "buffer" : 0,
            "byteLength" : 7440,
            "byteOffset" : 193000
        },
        {
            "buffer" : 0,
            "byteLength" : 4960,
            "byteOffset" : 200440
        },
        {
            "buffer" : 0,
            "byteLength" : 3540,
            "byteOffset" : 205400
        },
        {
            "buffer" : 0,
            "byteLength" : 16656,
            "byteOffset" : 208940
        },
        {
            "buffer" : 0,
            "byteLength" : 16656,
            "byteOffset" : 225596
        },
        {
            "buffer" : 0,
            "byteLength" : 11104,
            "byteOffset" : 242252
        },
        {
            "buffer" : 0,
            "byteLength" : 14928,
            "byteOffset" : 253356
        },
        {
            "buffer" : 0,
            "byteLength" : 2904,
            "byteOffset" : 268284
        },
        {
            "buffer" : 0,
            "byteLength" : 2904,
            "byteOffset" : 271188
        },
        {
            "buffer" : 0,
            "byteLength" : 1936,
            "byteOffset" : 274092
        },
        {
            "buffer" : 0,
            "byteLength" : 1920,
            "byteOffset" : 276028
        },
        {
            "buffer" : 0,
            "byteLength" : 13104,
            "byteOffset" : 277948
        },
        {
            "buffer" : 0,
            "byteLength" : 13104,
            "byteOffset" : 291052
        },
        {
            "buffer" : 0,
            "byteLength" : 8736,
            "byteOffset" : 304156
        },
        {
            "buffer" : 0,
            "byteLength" : 9984,
            "byteOffset" : 312892
        }
    ],
    "samplers" : [
        {
            "magFilter" : 9729,
            "minFilter" : 9987
        }
    ],
    "buffers" : [
        {
            "byteLength" : 322876,
            "uri" : "data:application/octet-stream;base64,"
        }
    ]
}
