{
    "asset" : {
        "copyright" : "Jeremy Edelblut",
        "generator" : "Khronos glTF Blender I/O v1.7.33",
        "version" : "2.0"
    },
    "scene" : 0,
    "scenes" : [
        {
            "name" : "Scene",
            "nodes" : [
                0,
                1,
                2,
                3,
                4,
                5,
                6,
                7,
                8,
                9
            ]
        }
    ],
    "nodes" : [
        {
            "mesh" : 0,
            "name" : "Circle.377",
            "rotation" : [
                0.7071068286895752,
                0,
                0,
                0.7071068286895752
            ],
            "scale" : [
                2.706974744796753,
                2.706974744796753,
                2.706974744796753
            ]
        },
        {
            "mesh" : 1,
            "name" : "Circle.378",
            "rotation" : [
                0.7071068286895752,
                0,
                0,
                0.7071068286895752
            ],
            "scale" : [
                2.706974744796753,
                2.706974744796753,
                2.706974744796753
            ]
        },
        {
            "mesh" : 2,
            "name" : "Roundcube.030",
            "rotation" : [
                0,
                -0.7071068286895752,
                0,
                0.7071068286895752
            ],
            "scale" : [
                0.7010374069213867,
                0.7010374069213867,
                0.7010374069213867
            ]
        },
        {
            "mesh" : 3,
            "name" : "Circle.379",
            "rotation" : [
                0.7071068286895752,
                0,
                0,
                0.7071068286895752
            ]
        },
        {
            "mesh" : 4,
            "name" : "Cube.434",
            "rotation" : [
                0.2697101831436157,
                -0.722744345664978,
                0.6263853907585144,
                -0.1119748204946518
            ],
            "scale" : [
                0.1542099118232727,
                0.1542098969221115,
                0.15420985221862793
            ]
        },
        {
            "mesh" : 5,
            "name" : "Circle.380",
            "rotation" : [
                0.7071068286895752,
                0,
                0,
                0.7071068286895752
            ]
        },
        {
            "mesh" : 6,
            "name" : "Circle.381",
            "rotation" : [
                0.7071068286895752,
                0,
                0,
                0.7071068286895752
            ]
        },
        {
            "mesh" : 7,
            "name" : "Circle.382",
            "rotation" : [
                0,
                -0.7071068286895752,
                0,
                0.7071068286895752
            ],
            "scale" : [
                0.7761280536651611,
                0.7761280536651611,
                0.7761280536651611
            ]
        },
        {
            "mesh" : 8,
            "name" : "Circle.389",
            "rotation" : [
                0.7071068286895752,
                0,
                0,
                0.7071068286895752
            ]
        },
        {
            "mesh" : 9,
            "name" : "ears.026",
            "rotation" : [
                0,
                -0.7071068286895752,
                0,
                0.7071068286895752
            ],
            "scale" : [
                0.7010374069213867,
                0.7010374069213867,
                0.7010374069213867
            ]
        }
    ],
    "materials" : [
        {
            "doubleSided" : true,
            "name" : "color",
            "pbrMetallicRoughness" : {
                "baseColorTexture" : {
                    "index" : 0
                },
                "metallicFactor" : 0,
                "roughnessFactor" : 0.5
            }
        },
        {
            "doubleSided" : true,
            "name" : "skin_tone_one",
            "pbrMetallicRoughness" : {
                "baseColorTexture" : {
                    "index" : 1
                },
                "metallicFactor" : 0,
                "roughnessFactor" : 0.5
            }
        }
    ],
    "meshes" : [
        {
            "name" : "Circle.409",
            "primitives" : [
                {
                    "attributes" : {
                        "POSITION" : 0,
                        "NORMAL" : 1,
                        "TEXCOORD_0" : 2
                    },
                    "indices" : 3,
                    "material" : 0
                }
            ]
        },
        {
            "name" : "Circle.410",
            "primitives" : [
                {
                    "attributes" : {
                        "POSITION" : 4,
                        "NORMAL" : 5,
                        "TEXCOORD_0" : 6
                    },
                    "indices" : 7,
                    "material" : 1
                }
            ]
        },
        {
            "name" : "Roundcube.031",
            "primitives" : [
                {
                    "attributes" : {
                        "POSITION" : 8,
                        "NORMAL" : 9,
                        "TEXCOORD_0" : 10
                    },
                    "indices" : 11,
                    "material" : 0
                },
                {
                    "attributes" : {
                        "POSITION" : 12,
                        "NORMAL" : 13,
                        "TEXCOORD_0" : 14
                    },
                    "indices" : 15,
                    "material" : 1
                }
            ]
        },
        {
            "name" : "Circle.411",
            "primitives" : [
                {
                    "attributes" : {
                        "POSITION" : 16,
                        "NORMAL" : 17,
                        "TEXCOORD_0" : 18
                    },
                    "indices" : 19,
                    "material" : 0
                }
            ]
        },
        {
            "name" : "Cube.559",
            "primitives" : [
                {
                    "attributes" : {
                        "POSITION" : 20,
                        "NORMAL" : 21,
                        "TEXCOORD_0" : 22
                    },
                    "indices" : 23,
                    "material" : 0
                }
            ]
        },
        {
            "name" : "Circle.412",
            "primitives" : [
                {
                    "attributes" : {
                        "POSITION" : 24,
                        "NORMAL" : 25,
                        "TEXCOORD_0" : 26
                    },
                    "indices" : 27,
                    "material" : 1
                }
            ]
        },
        {
            "name" : "Circle.413",
            "primitives" : [
                {
                    "attributes" : {
                        "POSITION" : 28,
                        "NORMAL" : 29,
                        "TEXCOORD_0" : 30
                    },
                    "indices" : 31,
                    "material" : 1
                }
            ]
        },
        {
            "name" : "Circle.414",
            "primitives" : [
                {
                    "attributes" : {
                        "POSITION" : 32,
                        "NORMAL" : 33,
                        "TEXCOORD_0" : 34
                    },
                    "indices" : 35,
                    "material" : 0
                }
            ]
        },
        {
            "name" : "Circle.421",
            "primitives" : [
                {
                    "attributes" : {
                        "POSITION" : 36,
                        "NORMAL" : 37,
                        "TEXCOORD_0" : 38
                    },
                    "indices" : 39,
                    "material" : 0
                }
            ]
        },
        {
            "name" : "Cylinder.011",
            "primitives" : [
                {
                    "attributes" : {
                        "POSITION" : 40,
                        "NORMAL" : 41,
                        "TEXCOORD_0" : 42
                    },
                    "indices" : 43,
                    "material" : 1
                }
            ]
        }
    ],
    "textures" : [
        {
            "sampler" : 0,
            "source" : 0
        },
        {
            "sampler" : 0,
            "source" : 0
        }
    ],
    "images" : [
        {
            "bufferView" : 4,
            "mimeType" : "image/png",
            "name" : "tex"
        }
    ],
    "accessors" : [
        {
            "bufferView" : 0,
            "componentType" : 5126,
            "count" : 452,
            "max" : [
                0.13148263096809387,
                0.21673351526260376,
                0.03635677695274353
            ],
            "min" : [
                -0.13148263096809387,
                0.1797197312116623,
                -0.0552215650677681
            ],
            "type" : "VEC3"
        },
        {
            "bufferView" : 1,
            "componentType" : 5126,
            "count" : 452,
            "type" : "VEC3"
        },
        {
            "bufferView" : 2,
            "componentType" : 5126,
            "count" : 452,
            "type" : "VEC2"
        },
        {
            "bufferView" : 3,
            "componentType" : 5123,
            "count" : 1920,
            "type" : "SCALAR"
        },
        {
            "bufferView" : 5,
            "componentType" : 5126,
            "count" : 142,
            "max" : [
                0.0256815142929554,
                0.22220374643802643,
                0.06985913962125778
            ],
            "min" : [
                -0.024938562884926796,
                0.20898395776748657,
                0.04042036458849907
            ],
            "type" : "VEC3"
        },
        {
            "bufferView" : 6,
            "componentType" : 5126,
            "count" : 142,
            "type" : "VEC3"
        },
        {
            "bufferView" : 7,
            "componentType" : 5126,
            "count" : 142,
            "type" : "VEC2"
        },
        {
            "bufferView" : 8,
            "componentType" : 5123,
            "count" : 528,
            "type" : "SCALAR"
        },
        {
            "bufferView" : 9,
            "componentType" : 5126,
            "count" : 353,
            "max" : [
                0.7026739120483398,
                0.9769151210784912,
                1.0005375146865845
            ],
            "min" : [
                -1.3394240140914917,
                -0.6099166870117188,
                -1.000614047050476
            ],
            "type" : "VEC3"
        },
        {
            "bufferView" : 10,
            "componentType" : 5126,
            "count" : 353,
            "type" : "VEC3"
        },
        {
            "bufferView" : 11,
            "componentType" : 5126,
            "count" : 353,
            "type" : "VEC2"
        },
        {
            "bufferView" : 12,
            "componentType" : 5123,
            "count" : 1818,
            "type" : "SCALAR"
        },
        {
            "bufferView" : 13,
            "componentType" : 5126,
            "count" : 1677,
            "max" : [
                0.8239538669586182,
                1.0039215087890625,
                1.0222769975662231
            ],
            "min" : [
                -1.2057507038116455,
                -1.1708650588989258,
                -1.0223535299301147
            ],
            "type" : "VEC3"
        },
        {
            "bufferView" : 14,
            "componentType" : 5126,
            "count" : 1677,
            "type" : "VEC3"
        },
        {
            "bufferView" : 15,
            "componentType" : 5126,
            "count" : 1677,
            "type" : "VEC2"
        },
        {
            "bufferView" : 16,
            "componentType" : 5123,
            "count" : 6396,
            "type" : "SCALAR"
        },
        {
            "bufferView" : 17,
            "componentType" : 5126,
            "count" : 324,
            "max" : [
                0.4113503098487854,
                0.542488694190979,
                -0.14164157211780548
            ],
            "min" : [
                -0.4113503098487854,
                0.410866379737854,
                -0.29545626044273376
            ],
            "type" : "VEC3"
        },
        {
            "bufferView" : 18,
            "componentType" : 5126,
            "count" : 324,
            "type" : "VEC3"
        },
        {
            "bufferView" : 19,
            "componentType" : 5126,
            "count" : 324,
            "type" : "VEC2"
        },
        {
            "bufferView" : 20,
            "componentType" : 5123,
            "count" : 1056,
            "type" : "SCALAR"
        },
        {
            "bufferView" : 21,
            "componentType" : 5126,
            "count" : 912,
            "max" : [
                3.98193621635437,
                6.460163593292236,
                2.6964306831359863
            ],
            "min" : [
                -5.7280073165893555,
                -1.7381089925765991,
                -5.355801105499268
            ],
            "type" : "VEC3"
        },
        {
            "bufferView" : 22,
            "componentType" : 5126,
            "count" : 912,
            "type" : "VEC3"
        },
        {
            "bufferView" : 23,
            "componentType" : 5126,
            "count" : 912,
            "type" : "VEC2"
        },
        {
            "bufferView" : 24,
            "componentType" : 5123,
            "count" : 2166,
            "type" : "SCALAR"
        },
        {
            "bufferView" : 25,
            "componentType" : 5126,
            "count" : 292,
            "max" : [
                0.45098966360092163,
                0.538704514503479,
                0.15365900099277496
            ],
            "min" : [
                -0.45098966360092163,
                0.4185198247432709,
                -0.09743271768093109
            ],
            "type" : "VEC3"
        },
        {
            "bufferView" : 26,
            "componentType" : 5126,
            "count" : 292,
            "type" : "VEC3"
        },
        {
            "bufferView" : 27,
            "componentType" : 5126,
            "count" : 292,
            "type" : "VEC2"
        },
        {
            "bufferView" : 28,
            "componentType" : 5123,
            "count" : 720,
            "type" : "SCALAR"
        },
        {
            "bufferView" : 29,
            "componentType" : 5126,
            "count" : 124,
            "max" : [
                0.21907201409339905,
                0.5016908049583435,
                -0.3143009841442108
            ],
            "min" : [
                -0.23919783532619476,
                0.41689202189445496,
                -0.4032862186431885
            ],
            "type" : "VEC3"
        },
        {
            "bufferView" : 30,
            "componentType" : 5126,
            "count" : 124,
            "type" : "VEC3"
        },
        {
            "bufferView" : 31,
            "componentType" : 5126,
            "count" : 124,
            "type" : "VEC2"
        },
        {
            "bufferView" : 32,
            "componentType" : 5123,
            "count" : 336,
            "type" : "SCALAR"
        },
        {
            "bufferView" : 33,
            "componentType" : 5126,
            "count" : 620,
            "max" : [
                0.7601950168609619,
                0.25091928243637085,
                0.591590166091919
            ],
            "min" : [
                0.7379991412162781,
                -0.2818124294281006,
                -0.591590166091919
            ],
            "type" : "VEC3"
        },
        {
            "bufferView" : 34,
            "componentType" : 5126,
            "count" : 620,
            "type" : "VEC3"
        },
        {
            "bufferView" : 35,
            "componentType" : 5126,
            "count" : 620,
            "type" : "VEC2"
        },
        {
            "bufferView" : 36,
            "componentType" : 5123,
            "count" : 1770,
            "type" : "SCALAR"
        },
        {
            "bufferView" : 37,
            "componentType" : 5126,
            "count" : 348,
            "max" : [
                0.3109280467033386,
                0.5789539217948914,
                0.32273057103157043
            ],
            "min" : [
                -0.3109280467033386,
                0.47739386558532715,
                0.18675865232944489
            ],
            "type" : "VEC3"
        },
        {
            "bufferView" : 38,
            "componentType" : 5126,
            "count" : 348,
            "type" : "VEC3"
        },
        {
            "bufferView" : 39,
            "componentType" : 5126,
            "count" : 348,
            "type" : "VEC2"
        },
        {
            "bufferView" : 40,
            "componentType" : 5123,
            "count" : 1152,
            "type" : "SCALAR"
        },
        {
            "bufferView" : 41,
            "componentType" : 5126,
            "count" : 1181,
            "max" : [
                -0.15159989893436432,
                0.31007927656173706,
                1.2522509098052979
            ],
            "min" : [
                -0.527228593826294,
                -0.32727834582328796,
                -1.2522509098052979
            ],
            "type" : "VEC3"
        },
        {
            "bufferView" : 42,
            "componentType" : 5126,
            "count" : 1181,
            "type" : "VEC3"
        },
        {
            "bufferView" : 43,
            "componentType" : 5126,
            "count" : 1181,
            "type" : "VEC2"
        },
        {
            "bufferView" : 44,
            "componentType" : 5123,
            "count" : 4992,
            "type" : "SCALAR"
        }
    ],
    "bufferViews" : [
        {
            "buffer" : 0,
            "byteLength" : 5424,
            "byteOffset" : 0
        },
        {
            "buffer" : 0,
            "byteLength" : 5424,
            "byteOffset" : 5424
        },
        {
            "buffer" : 0,
            "byteLength" : 3616,
            "byteOffset" : 10848
        },
        {
            "buffer" : 0,
            "byteLength" : 3840,
            "byteOffset" : 14464
        },
        {
            "buffer" : 0,
            "byteLength" : 11997,
            "byteOffset" : 18304
        },
        {
            "buffer" : 0,
            "byteLength" : 1704,
            "byteOffset" : 30304
        },
        {
            "buffer" : 0,
            "byteLength" : 1704,
            "byteOffset" : 32008
        },
        {
            "buffer" : 0,
            "byteLength" : 1136,
            "byteOffset" : 33712
        },
        {
            "buffer" : 0,
            "byteLength" : 1056,
            "byteOffset" : 34848
        },
        {
            "buffer" : 0,
            "byteLength" : 4236,
            "byteOffset" : 35904
        },
        {
            "buffer" : 0,
            "byteLength" : 4236,
            "byteOffset" : 40140
        },
        {
            "buffer" : 0,
            "byteLength" : 2824,
            "byteOffset" : 44376
        },
        {
            "buffer" : 0,
            "byteLength" : 3636,
            "byteOffset" : 47200
        },
        {
            "buffer" : 0,
            "byteLength" : 20124,
            "byteOffset" : 50836
        },
        {
            "buffer" : 0,
            "byteLength" : 20124,
            "byteOffset" : 70960
        },
        {
            "buffer" : 0,
            "byteLength" : 13416,
            "byteOffset" : 91084
        },
        {
            "buffer" : 0,
            "byteLength" : 12792,
            "byteOffset" : 104500
        },
        {
            "buffer" : 0,
            "byteLength" : 3888,
            "byteOffset" : 117292
        },
        {
            "buffer" : 0,
            "byteLength" : 3888,
            "byteOffset" : 121180
        },
        {
            "buffer" : 0,
            "byteLength" : 2592,
            "byteOffset" : 125068
        },
        {
            "buffer" : 0,
            "byteLength" : 2112,
            "byteOffset" : 127660
        },
        {
            "buffer" : 0,
            "byteLength" : 10944,
            "byteOffset" : 129772
        },
        {
            "buffer" : 0,
            "byteLength" : 10944,
            "byteOffset" : 140716
        },
        {
            "buffer" : 0,
            "byteLength" : 7296,
            "byteOffset" : 151660
        },
        {
            "buffer" : 0,
            "byteLength" : 4332,
            "byteOffset" : 158956
        },
        {
            "buffer" : 0,
            "byteLength" : 3504,
            "byteOffset" : 163288
        },
        {
            "buffer" : 0,
            "byteLength" : 3504,
            "byteOffset" : 166792
        },
        {
            "buffer" : 0,
            "byteLength" : 2336,
            "byteOffset" : 170296
        },
        {
            "buffer" : 0,
            "byteLength" : 1440,
            "byteOffset" : 172632
        },
        {
            "buffer" : 0,
            "byteLength" : 1488,
            "byteOffset" : 174072
        },
        {
            "buffer" : 0,
            "byteLength" : 1488,
            "byteOffset" : 175560
        },
        {
            "buffer" : 0,
            "byteLength" : 992,
            "byteOffset" : 177048
        },
        {
            "buffer" : 0,
            "byteLength" : 672,
            "byteOffset" : 178040
        },
        {
            "buffer" : 0,
            "byteLength" : 7440,
            "byteOffset" : 178712
        },
        {
            "buffer" : 0,
            "byteLength" : 7440,
            "byteOffset" : 186152
        },
        {
            "buffer" : 0,
            "byteLength" : 4960,
            "byteOffset" : 193592
        },
        {
            "buffer" : 0,
            "byteLength" : 3540,
            "byteOffset" : 198552
        },
        {
            "buffer" : 0,
            "byteLength" : 4176,
            "byteOffset" : 202092
        },
        {
            "buffer" : 0,
            "byteLength" : 4176,
            "byteOffset" : 206268
        },
        {
            "buffer" : 0,
            "byteLength" : 2784,
            "byteOffset" : 210444
        },
        {
            "buffer" : 0,
            "byteLength" : 2304,
            "byteOffset" : 213228
        },
        {
            "buffer" : 0,
            "byteLength" : 14172,
            "byteOffset" : 215532
        },
        {
            "buffer" : 0,
            "byteLength" : 14172,
            "byteOffset" : 229704
        },
        {
            "buffer" : 0,
            "byteLength" : 9448,
            "byteOffset" : 243876
        },
        {
            "buffer" : 0,
            "byteLength" : 9984,
            "byteOffset" : 253324
        }
    ],
    "samplers" : [
        {
            "magFilter" : 9729,
            "minFilter" : 9987
        }
    ],
    "buffers" : [
        {
            "byteLength" : 263308,
            "uri" : "data:application/octet-stream;base64,"
        }
    ]
}
