{
    "asset" : {
        "copyright" : "Jeremy Edelblut",
        "generator" : "Khronos glTF Blender I/O v1.7.33",
        "version" : "2.0"
    },
    "scene" : 1,
    "scenes" : [
        {
            "name" : "FBX_Temp",
            "nodes" : [
                0
            ]
        },
        {
            "name" : "Scene",
            "nodes" : [
                1,
                2,
                3,
                4,
                5,
                6,
                7,
                8,
                9,
                10
            ]
        }
    ],
    "nodes" : [
        {
            "mesh" : 0,
            "name" : "3moji.064",
            "rotation" : [
                0,
                -0.7071068286895752,
                0,
                0.7071068286895752
            ]
        },
        {
            "mesh" : 1,
            "name" : "Circle.377"
        },
        {
            "mesh" : 2,
            "name" : "Circle.378"
        },
        {
            "mesh" : 3,
            "name" : "Roundcube.030"
        },
        {
            "mesh" : 4,
            "name" : "Circle.379"
        },
        {
            "mesh" : 5,
            "name" : "Cube.434"
        },
        {
            "mesh" : 6,
            "name" : "Circle.380"
        },
        {
            "mesh" : 7,
            "name" : "Circle.381"
        },
        {
            "mesh" : 8,
            "name" : "Circle.382"
        },
        {
            "mesh" : 9,
            "name" : "Circle.389"
        },
        {
            "mesh" : 10,
            "name" : "ears.026"
        }
    ],
    "materials" : [
        {
            "doubleSided" : true,
            "name" : "color",
            "pbrMetallicRoughness" : {
                "baseColorTexture" : {
                    "index" : 0
                },
                "metallicFactor" : 0,
                "roughnessFactor" : 0.5
            }
        },
        {
            "doubleSided" : true,
            "name" : "skin_tone_one",
            "pbrMetallicRoughness" : {
                "baseColorTexture" : {
                    "index" : 1
                },
                "metallicFactor" : 0,
                "roughnessFactor" : 0.5
            }
        }
    ],
    "meshes" : [
        {
            "name" : "Cube.417",
            "primitives" : [
                {
                    "attributes" : {
                        "POSITION" : 0,
                        "NORMAL" : 1,
                        "TEXCOORD_0" : 2
                    },
                    "indices" : 3,
                    "material" : 0
                }
            ]
        },
        {
            "name" : "Circle.409",
            "primitives" : [
                {
                    "attributes" : {
                        "POSITION" : 4,
                        "NORMAL" : 5,
                        "TEXCOORD_0" : 6
                    },
                    "indices" : 7,
                    "material" : 0
                }
            ]
        },
        {
            "name" : "Circle.410",
            "primitives" : [
                {
                    "attributes" : {
                        "POSITION" : 8,
                        "NORMAL" : 9,
                        "TEXCOORD_0" : 10
                    },
                    "indices" : 11,
                    "material" : 1
                }
            ]
        },
        {
            "name" : "Roundcube.031",
            "primitives" : [
                {
                    "attributes" : {
                        "POSITION" : 12,
                        "NORMAL" : 13,
                        "TEXCOORD_0" : 14
                    },
                    "indices" : 15,
                    "material" : 0
                },
                {
                    "attributes" : {
                        "POSITION" : 16,
                        "NORMAL" : 17,
                        "TEXCOORD_0" : 18
                    },
                    "indices" : 19,
                    "material" : 1
                }
            ]
        },
        {
            "name" : "Circle.411",
            "primitives" : [
                {
                    "attributes" : {
                        "POSITION" : 20,
                        "NORMAL" : 21,
                        "TEXCOORD_0" : 22
                    },
                    "indices" : 23,
                    "material" : 0
                }
            ]
        },
        {
            "name" : "Cube.559",
            "primitives" : [
                {
                    "attributes" : {
                        "POSITION" : 24,
                        "NORMAL" : 25,
                        "TEXCOORD_0" : 26
                    },
                    "indices" : 27,
                    "material" : 0
                }
            ]
        },
        {
            "name" : "Circle.412",
            "primitives" : [
                {
                    "attributes" : {
                        "POSITION" : 28,
                        "NORMAL" : 29,
                        "TEXCOORD_0" : 30
                    },
                    "indices" : 31,
                    "material" : 1
                }
            ]
        },
        {
            "name" : "Circle.413",
            "primitives" : [
                {
                    "attributes" : {
                        "POSITION" : 32,
                        "NORMAL" : 33,
                        "TEXCOORD_0" : 34
                    },
                    "indices" : 35,
                    "material" : 1
                }
            ]
        },
        {
            "name" : "Circle.414",
            "primitives" : [
                {
                    "attributes" : {
                        "POSITION" : 36,
                        "NORMAL" : 37,
                        "TEXCOORD_0" : 38
                    },
                    "indices" : 39,
                    "material" : 0
                }
            ]
        },
        {
            "name" : "Circle.421",
            "primitives" : [
                {
                    "attributes" : {
                        "POSITION" : 40,
                        "NORMAL" : 41,
                        "TEXCOORD_0" : 42
                    },
                    "indices" : 43,
                    "material" : 0
                }
            ]
        },
        {
            "name" : "Cylinder.284",
            "primitives" : [
                {
                    "attributes" : {
                        "POSITION" : 44,
                        "NORMAL" : 45,
                        "TEXCOORD_0" : 46
                    },
                    "indices" : 47,
                    "material" : 1
                }
            ]
        }
    ],
    "textures" : [
        {
            "sampler" : 0,
            "source" : 0
        },
        {
            "sampler" : 0,
            "source" : 0
        }
    ],
    "images" : [
        {
            "bufferView" : 4,
            "mimeType" : "image/png",
            "name" : "tex"
        }
    ],
    "accessors" : [
        {
            "bufferView" : 0,
            "componentType" : 5126,
            "count" : 752,
            "max" : [
                -0.8264395594596863,
                0.05719918757677078,
                0.13795676827430725
            ],
            "min" : [
                -0.8543609976768494,
                -0.014034310355782509,
                -0.12436223030090332
            ],
            "type" : "VEC3"
        },
        {
            "bufferView" : 1,
            "componentType" : 5126,
            "count" : 752,
            "type" : "VEC3"
        },
        {
            "bufferView" : 2,
            "componentType" : 5126,
            "count" : 752,
            "type" : "VEC2"
        },
        {
            "bufferView" : 3,
            "componentType" : 5123,
            "count" : 1680,
            "type" : "SCALAR"
        },
        {
            "bufferView" : 5,
            "componentType" : 5126,
            "count" : 452,
            "max" : [
                0.3486279845237732,
                0.14658872783184052,
                0.5699412822723389
            ],
            "min" : [
                -0.3486279845237732,
                -0.0976829081773758,
                0.4864935278892517
            ],
            "type" : "VEC3"
        },
        {
            "bufferView" : 6,
            "componentType" : 5126,
            "count" : 452,
            "type" : "VEC3"
        },
        {
            "bufferView" : 7,
            "componentType" : 5126,
            "count" : 452,
            "type" : "VEC2"
        },
        {
            "bufferView" : 8,
            "componentType" : 5123,
            "count" : 1920,
            "type" : "SCALAR"
        },
        {
            "bufferView" : 9,
            "componentType" : 5126,
            "count" : 142,
            "max" : [
                0.06850441545248032,
                -0.10941692441701889,
                0.5844484567642212
            ],
            "min" : [
                -0.06649326533079147,
                -0.1864621490240097,
                0.5657142996788025
            ],
            "type" : "VEC3"
        },
        {
            "bufferView" : 10,
            "componentType" : 5126,
            "count" : 142,
            "type" : "VEC3"
        },
        {
            "bufferView" : 11,
            "componentType" : 5126,
            "count" : 142,
            "type" : "VEC2"
        },
        {
            "bufferView" : 12,
            "componentType" : 5123,
            "count" : 528,
            "type" : "SCALAR"
        },
        {
            "bufferView" : 13,
            "componentType" : 5126,
            "count" : 353,
            "max" : [
                0.7014678716659546,
                0.6848539710044861,
                0.4926007390022278
            ],
            "min" : [
                -0.7014142274856567,
                -0.42757448554039,
                -0.9389863610267639
            ],
            "type" : "VEC3"
        },
        {
            "bufferView" : 14,
            "componentType" : 5126,
            "count" : 353,
            "type" : "VEC3"
        },
        {
            "bufferView" : 15,
            "componentType" : 5126,
            "count" : 353,
            "type" : "VEC2"
        },
        {
            "bufferView" : 16,
            "componentType" : 5123,
            "count" : 1818,
            "type" : "SCALAR"
        },
        {
            "bufferView" : 17,
            "componentType" : 5126,
            "count" : 1677,
            "max" : [
                0.7167080640792847,
                0.7037864923477173,
                0.5776224732398987
            ],
            "min" : [
                -0.7166544198989868,
                -0.8208202719688416,
                -0.8452763557434082
            ],
            "type" : "VEC3"
        },
        {
            "bufferView" : 18,
            "componentType" : 5126,
            "count" : 1677,
            "type" : "VEC3"
        },
        {
            "bufferView" : 19,
            "componentType" : 5126,
            "count" : 1677,
            "type" : "VEC2"
        },
        {
            "bufferView" : 20,
            "componentType" : 5123,
            "count" : 6396,
            "type" : "SCALAR"
        },
        {
            "bufferView" : 21,
            "componentType" : 5126,
            "count" : 324,
            "max" : [
                0.4113503098487854,
                0.29545626044273376,
                0.542488694190979
            ],
            "min" : [
                -0.4113503098487854,
                0.1416415423154831,
                0.410866379737854
            ],
            "type" : "VEC3"
        },
        {
            "bufferView" : 22,
            "componentType" : 5126,
            "count" : 324,
            "type" : "VEC3"
        },
        {
            "bufferView" : 23,
            "componentType" : 5126,
            "count" : 324,
            "type" : "VEC2"
        },
        {
            "bufferView" : 24,
            "componentType" : 5123,
            "count" : 1056,
            "type" : "SCALAR"
        },
        {
            "bufferView" : 25,
            "componentType" : 5126,
            "count" : 912,
            "max" : [
                0.7708356380462646,
                0.8351636528968811,
                0.14181169867515564
            ],
            "min" : [
                -0.7971862554550171,
                -0.1513936072587967,
                -0.9953099489212036
            ],
            "type" : "VEC3"
        },
        {
            "bufferView" : 26,
            "componentType" : 5126,
            "count" : 912,
            "type" : "VEC3"
        },
        {
            "bufferView" : 27,
            "componentType" : 5126,
            "count" : 912,
            "type" : "VEC2"
        },
        {
            "bufferView" : 28,
            "componentType" : 5123,
            "count" : 2166,
            "type" : "SCALAR"
        },
        {
            "bufferView" : 29,
            "componentType" : 5126,
            "count" : 292,
            "max" : [
                0.45098963379859924,
                0.09743238985538483,
                0.538704514503479
            ],
            "min" : [
                -0.45098963379859924,
                -0.15365904569625854,
                0.4185197949409485
            ],
            "type" : "VEC3"
        },
        {
            "bufferView" : 30,
            "componentType" : 5126,
            "count" : 292,
            "type" : "VEC3"
        },
        {
            "bufferView" : 31,
            "componentType" : 5126,
            "count" : 292,
            "type" : "VEC2"
        },
        {
            "bufferView" : 32,
            "componentType" : 5123,
            "count" : 720,
            "type" : "SCALAR"
        },
        {
            "bufferView" : 33,
            "componentType" : 5126,
            "count" : 124,
            "max" : [
                0.21907199919223785,
                0.4032862186431885,
                0.5016908049583435
            ],
            "min" : [
                -0.23919785022735596,
                0.31430092453956604,
                0.41689199209213257
            ],
            "type" : "VEC3"
        },
        {
            "bufferView" : 34,
            "componentType" : 5126,
            "count" : 124,
            "type" : "VEC3"
        },
        {
            "bufferView" : 35,
            "componentType" : 5126,
            "count" : 124,
            "type" : "VEC2"
        },
        {
            "bufferView" : 36,
            "componentType" : 5123,
            "count" : 336,
            "type" : "SCALAR"
        },
        {
            "bufferView" : 37,
            "componentType" : 5126,
            "count" : 616,
            "max" : [
                0.4591497480869293,
                0.1947454959154129,
                0.5900086760520935
            ],
            "min" : [
                -0.4591497480869293,
                -0.21872253715991974,
                0.5727818608283997
            ],
            "type" : "VEC3"
        },
        {
            "bufferView" : 38,
            "componentType" : 5126,
            "count" : 616,
            "type" : "VEC3"
        },
        {
            "bufferView" : 39,
            "componentType" : 5126,
            "count" : 616,
            "type" : "VEC2"
        },
        {
            "bufferView" : 40,
            "componentType" : 5123,
            "count" : 1770,
            "type" : "SCALAR"
        },
        {
            "bufferView" : 41,
            "componentType" : 5126,
            "count" : 348,
            "max" : [
                0.3109241724014282,
                -0.18675869703292847,
                0.5789538621902466
            ],
            "min" : [
                -0.3109241724014282,
                -0.3227291405200958,
                0.4773966670036316
            ],
            "type" : "VEC3"
        },
        {
            "bufferView" : 42,
            "componentType" : 5126,
            "count" : 348,
            "type" : "VEC3"
        },
        {
            "bufferView" : 43,
            "componentType" : 5126,
            "count" : 348,
            "type" : "VEC2"
        },
        {
            "bufferView" : 44,
            "componentType" : 5123,
            "count" : 1152,
            "type" : "SCALAR"
        },
        {
            "bufferView" : 45,
            "componentType" : 5126,
            "count" : 1181,
            "max" : [
                0.8778747320175171,
                0.21737711131572723,
                -0.10627720504999161
            ],
            "min" : [
                -0.8778746724128723,
                -0.22943444550037384,
                -0.36960697174072266
            ],
            "type" : "VEC3"
        },
        {
            "bufferView" : 46,
            "componentType" : 5126,
            "count" : 1181,
            "type" : "VEC3"
        },
        {
            "bufferView" : 47,
            "componentType" : 5126,
            "count" : 1181,
            "type" : "VEC2"
        },
        {
            "bufferView" : 48,
            "componentType" : 5123,
            "count" : 4992,
            "type" : "SCALAR"
        }
    ],
    "bufferViews" : [
        {
            "buffer" : 0,
            "byteLength" : 9024,
            "byteOffset" : 0
        },
        {
            "buffer" : 0,
            "byteLength" : 9024,
            "byteOffset" : 9024
        },
        {
            "buffer" : 0,
            "byteLength" : 6016,
            "byteOffset" : 18048
        },
        {
            "buffer" : 0,
            "byteLength" : 3360,
            "byteOffset" : 24064
        },
        {
            "buffer" : 0,
            "byteLength" : 11997,
            "byteOffset" : 27424
        },
        {
            "buffer" : 0,
            "byteLength" : 5424,
            "byteOffset" : 39424
        },
        {
            "buffer" : 0,
            "byteLength" : 5424,
            "byteOffset" : 44848
        },
        {
            "buffer" : 0,
            "byteLength" : 3616,
            "byteOffset" : 50272
        },
        {
            "buffer" : 0,
            "byteLength" : 3840,
            "byteOffset" : 53888
        },
        {
            "buffer" : 0,
            "byteLength" : 1704,
            "byteOffset" : 57728
        },
        {
            "buffer" : 0,
            "byteLength" : 1704,
            "byteOffset" : 59432
        },
        {
            "buffer" : 0,
            "byteLength" : 1136,
            "byteOffset" : 61136
        },
        {
            "buffer" : 0,
            "byteLength" : 1056,
            "byteOffset" : 62272
        },
        {
            "buffer" : 0,
            "byteLength" : 4236,
            "byteOffset" : 63328
        },
        {
            "buffer" : 0,
            "byteLength" : 4236,
            "byteOffset" : 67564
        },
        {
            "buffer" : 0,
            "byteLength" : 2824,
            "byteOffset" : 71800
        },
        {
            "buffer" : 0,
            "byteLength" : 3636,
            "byteOffset" : 74624
        },
        {
            "buffer" : 0,
            "byteLength" : 20124,
            "byteOffset" : 78260
        },
        {
            "buffer" : 0,
            "byteLength" : 20124,
            "byteOffset" : 98384
        },
        {
            "buffer" : 0,
            "byteLength" : 13416,
            "byteOffset" : 118508
        },
        {
            "buffer" : 0,
            "byteLength" : 12792,
            "byteOffset" : 131924
        },
        {
            "buffer" : 0,
            "byteLength" : 3888,
            "byteOffset" : 144716
        },
        {
            "buffer" : 0,
            "byteLength" : 3888,
            "byteOffset" : 148604
        },
        {
            "buffer" : 0,
            "byteLength" : 2592,
            "byteOffset" : 152492
        },
        {
            "buffer" : 0,
            "byteLength" : 2112,
            "byteOffset" : 155084
        },
        {
            "buffer" : 0,
            "byteLength" : 10944,
            "byteOffset" : 157196
        },
        {
            "buffer" : 0,
            "byteLength" : 10944,
            "byteOffset" : 168140
        },
        {
            "buffer" : 0,
            "byteLength" : 7296,
            "byteOffset" : 179084
        },
        {
            "buffer" : 0,
            "byteLength" : 4332,
            "byteOffset" : 186380
        },
        {
            "buffer" : 0,
            "byteLength" : 3504,
            "byteOffset" : 190712
        },
        {
            "buffer" : 0,
            "byteLength" : 3504,
            "byteOffset" : 194216
        },
        {
            "buffer" : 0,
            "byteLength" : 2336,
            "byteOffset" : 197720
        },
        {
            "buffer" : 0,
            "byteLength" : 1440,
            "byteOffset" : 200056
        },
        {
            "buffer" : 0,
            "byteLength" : 1488,
            "byteOffset" : 201496
        },
        {
            "buffer" : 0,
            "byteLength" : 1488,
            "byteOffset" : 202984
        },
        {
            "buffer" : 0,
            "byteLength" : 992,
            "byteOffset" : 204472
        },
        {
            "buffer" : 0,
            "byteLength" : 672,
            "byteOffset" : 205464
        },
        {
            "buffer" : 0,
            "byteLength" : 7392,
            "byteOffset" : 206136
        },
        {
            "buffer" : 0,
            "byteLength" : 7392,
            "byteOffset" : 213528
        },
        {
            "buffer" : 0,
            "byteLength" : 4928,
            "byteOffset" : 220920
        },
        {
            "buffer" : 0,
            "byteLength" : 3540,
            "byteOffset" : 225848
        },
        {
            "buffer" : 0,
            "byteLength" : 4176,
            "byteOffset" : 229388
        },
        {
            "buffer" : 0,
            "byteLength" : 4176,
            "byteOffset" : 233564
        },
        {
            "buffer" : 0,
            "byteLength" : 2784,
            "byteOffset" : 237740
        },
        {
            "buffer" : 0,
            "byteLength" : 2304,
            "byteOffset" : 240524
        },
        {
            "buffer" : 0,
            "byteLength" : 14172,
            "byteOffset" : 242828
        },
        {
            "buffer" : 0,
            "byteLength" : 14172,
            "byteOffset" : 257000
        },
        {
            "buffer" : 0,
            "byteLength" : 9448,
            "byteOffset" : 271172
        },
        {
            "buffer" : 0,
            "byteLength" : 9984,
            "byteOffset" : 280620
        }
    ],
    "samplers" : [
        {
            "magFilter" : 9729,
            "minFilter" : 9987
        }
    ],
    "buffers" : [
        {
            "byteLength" : 290604,
            "uri" : "data:application/octet-stream;base64,"
        }
    ]
}
