{
    "asset" : {
        "copyright" : "Jeremy Edelblut",
        "generator" : "Khronos glTF Blender I/O v1.6.16",
        "version" : "2.0"
    },
    "scene" : 0,
    "scenes" : [
        {
            "name" : "Scene",
            "nodes" : [
                0
            ]
        }
    ],
    "nodes" : [
        {
            "mesh" : 0,
            "name" : "One-Piece Swimsuit",
            "scale" : [
                0.6000000238418579,
                0.6000000238418579,
                0.6000000238418579
            ],
            "translation" : [
                0,
                -0.324800968170166,
                0
            ]
        }
    ],
    "materials" : [
        {
            "doubleSided" : true,
            "name" : "dkPink",
            "pbrMetallicRoughness" : {
                "baseColorFactor" : [
                    0.3423771858215332,
                    0.0336165577173233,
                    0.13858771324157715,
                    1
                ],
                "metallicFactor" : 0,
                "roughnessFactor" : 0.5
            }
        }
    ],
    "meshes" : [
        {
            "name" : "Circle.2002",
            "primitives" : [
                {
                    "attributes" : {
                        "POSITION" : 0,
                        "NORMAL" : 1,
                        "TEXCOORD_0" : 2
                    },
                    "indices" : 3,
                    "material" : 0
                }
            ]
        }
    ],
    "accessors" : [
        {
            "bufferView" : 0,
            "componentType" : 5126,
            "count" : 1453,
            "max" : [
                0.6415594220161438,
                2.274756908416748,
                0.9726728796958923
            ],
            "min" : [
                -0.5326111316680908,
                -1.001993179321289,
                -0.9726728200912476
            ],
            "type" : "VEC3"
        },
        {
            "bufferView" : 1,
            "componentType" : 5126,
            "count" : 1453,
            "type" : "VEC3"
        },
        {
            "bufferView" : 2,
            "componentType" : 5126,
            "count" : 1453,
            "type" : "VEC2"
        },
        {
            "bufferView" : 3,
            "componentType" : 5123,
            "count" : 8064,
            "type" : "SCALAR"
        }
    ],
    "bufferViews" : [
        {
            "buffer" : 0,
            "byteLength" : 17436,
            "byteOffset" : 0
        },
        {
            "buffer" : 0,
            "byteLength" : 17436,
            "byteOffset" : 17436
        },
        {
            "buffer" : 0,
            "byteLength" : 11624,
            "byteOffset" : 34872
        },
        {
            "buffer" : 0,
            "byteLength" : 16128,
            "byteOffset" : 46496
        }
    ],
    "buffers" : [
        {
            "byteLength" : 62624,
            "uri" : "data:application/octet-stream;base64,"
        }
    ]
}
