{
    "asset" : {
        "copyright" : "Jeremy Edelblut",
        "generator" : "Khronos glTF Blender I/O v1.6.16",
        "version" : "2.0"
    },
    "scene" : 0,
    "scenes" : [
        {
            "name" : "Scene",
            "nodes" : [
                0,
                1
            ]
        }
    ],
    "nodes" : [
        {
            "mesh" : 0,
            "name" : "Cube.6151",
            "rotation" : [
                0,
                -0.7071068286895752,
                0,
                0.7071068286895752
            ],
            "scale" : [
                0.5,
                0.5,
                0.5
            ],
            "translation" : [
                0,
                -0.29999998211860657,
                0
            ]
        },
        {
            "mesh" : 1,
            "name" : "3moji.org.187",
            "rotation" : [
                -0.5000000596046448,
                0.49999985098838806,
                0.49999991059303284,
                -0.5000001192092896
            ],
            "scale" : [
                0.007233680225908756,
                0.007233680225908756,
                0.007233680225908756
            ],
            "translation" : [
                -0.0024158223532140255,
                -0.8211655020713806,
                -0.2710520327091217
            ]
        }
    ],
    "materials" : [
        {
            "doubleSided" : true,
            "name" : "Color",
            "pbrMetallicRoughness" : {
                "baseColorTexture" : {
                    "index" : 0
                },
                "metallicFactor" : 0,
                "roughnessFactor" : 0.5
            }
        }
    ],
    "meshes" : [
        {
            "name" : "Cube.7199",
            "primitives" : [
                {
                    "attributes" : {
                        "POSITION" : 0,
                        "NORMAL" : 1,
                        "TEXCOORD_0" : 2
                    },
                    "indices" : 3,
                    "material" : 0
                }
            ]
        },
        {
            "name" : "Cube.643",
            "primitives" : [
                {
                    "attributes" : {
                        "POSITION" : 4,
                        "NORMAL" : 5,
                        "TEXCOORD_0" : 6
                    },
                    "indices" : 7,
                    "material" : 0
                }
            ]
        }
    ],
    "textures" : [
        {
            "sampler" : 0,
            "source" : 0
        }
    ],
    "images" : [
        {
            "bufferView" : 4,
            "mimeType" : "image/png",
            "name" : "tex2"
        }
    ],
    "accessors" : [
        {
            "bufferView" : 0,
            "componentType" : 5126,
            "count" : 2628,
            "max" : [
                1.0987085103988647,
                2.456040620803833,
                1.7645418643951416
            ],
            "min" : [
                -1.0016974210739136,
                -1.1963951587677002,
                -1.7645418643951416
            ],
            "type" : "VEC3"
        },
        {
            "bufferView" : 1,
            "componentType" : 5126,
            "count" : 2628,
            "type" : "VEC3"
        },
        {
            "bufferView" : 2,
            "componentType" : 5126,
            "count" : 2628,
            "type" : "VEC2"
        },
        {
            "bufferView" : 3,
            "componentType" : 5123,
            "count" : 10452,
            "type" : "SCALAR"
        },
        {
            "bufferView" : 5,
            "componentType" : 5126,
            "count" : 752,
            "max" : [
                1.2953357696533203,
                7.90000057220459,
                17.240537643432617
            ],
            "min" : [
                2.8697024390567094e-05,
                -1.8999989032745361,
                -19.159460067749023
            ],
            "type" : "VEC3"
        },
        {
            "bufferView" : 6,
            "componentType" : 5126,
            "count" : 752,
            "type" : "VEC3"
        },
        {
            "bufferView" : 7,
            "componentType" : 5126,
            "count" : 752,
            "type" : "VEC2"
        },
        {
            "bufferView" : 8,
            "componentType" : 5123,
            "count" : 1680,
            "type" : "SCALAR"
        }
    ],
    "bufferViews" : [
        {
            "buffer" : 0,
            "byteLength" : 31536,
            "byteOffset" : 0
        },
        {
            "buffer" : 0,
            "byteLength" : 31536,
            "byteOffset" : 31536
        },
        {
            "buffer" : 0,
            "byteLength" : 21024,
            "byteOffset" : 63072
        },
        {
            "buffer" : 0,
            "byteLength" : 20904,
            "byteOffset" : 84096
        },
        {
            "buffer" : 0,
            "byteLength" : 6474,
            "byteOffset" : 105000
        },
        {
            "buffer" : 0,
            "byteLength" : 9024,
            "byteOffset" : 111476
        },
        {
            "buffer" : 0,
            "byteLength" : 9024,
            "byteOffset" : 120500
        },
        {
            "buffer" : 0,
            "byteLength" : 6016,
            "byteOffset" : 129524
        },
        {
            "buffer" : 0,
            "byteLength" : 3360,
            "byteOffset" : 135540
        }
    ],
    "samplers" : [
        {
            "magFilter" : 9729,
            "minFilter" : 9987
        }
    ],
    "buffers" : [
        {
            "byteLength" : 138900,
            "uri" : "data:application/octet-stream;base64,"
        }
    ]
}
