{
    "asset" : {
        "copyright" : "Jeremy Edelblut",
        "generator" : "Khronos glTF Blender I/O v1.6.16",
        "version" : "2.0"
    },
    "scene" : 0,
    "scenes" : [
        {
            "name" : "Scene",
            "nodes" : [
                0,
                1
            ]
        }
    ],
    "nodes" : [
        {
            "mesh" : 0,
            "name" : "hfdjkslfjkds.019",
            "rotation" : [
                0.5,
                -0.4999999701976776,
                0.5000000596046448,
                0.4999999403953552
            ],
            "scale" : [
                3.3980872631073,
                3.3980872631073,
                3.3980872631073
            ]
        },
        {
            "mesh" : 1,
            "name" : "3moji.org.066",
            "rotation" : [
                -0.12431260198354721,
                0.696093738079071,
                -0.1243126392364502,
                0.6960935592651367
            ],
            "scale" : [
                0.003616840112954378,
                0.003616840112954378,
                0.003616840112954378
            ],
            "translation" : [
                0,
                -0.699999988079071,
                -0.09363175183534622
            ]
        }
    ],
    "materials" : [
        {
            "doubleSided" : true,
            "name" : "Color",
            "pbrMetallicRoughness" : {
                "baseColorTexture" : {
                    "index" : 0
                },
                "metallicFactor" : 0,
                "roughnessFactor" : 0.5
            }
        }
    ],
    "meshes" : [
        {
            "name" : "hfdjkslfjkds.033",
            "primitives" : [
                {
                    "attributes" : {
                        "POSITION" : 0,
                        "NORMAL" : 1,
                        "TEXCOORD_0" : 2
                    },
                    "indices" : 3,
                    "material" : 0
                }
            ]
        },
        {
            "name" : "Cube.390",
            "primitives" : [
                {
                    "attributes" : {
                        "POSITION" : 4,
                        "NORMAL" : 5,
                        "TEXCOORD_0" : 6
                    },
                    "indices" : 7,
                    "material" : 0
                }
            ]
        }
    ],
    "textures" : [
        {
            "sampler" : 0,
            "source" : 0
        }
    ],
    "images" : [
        {
            "bufferView" : 4,
            "mimeType" : "image/png",
            "name" : "tex2"
        }
    ],
    "accessors" : [
        {
            "bufferView" : 0,
            "componentType" : 5126,
            "count" : 2866,
            "max" : [
                0.08766008168458939,
                0.274747371673584,
                0.25559547543525696
            ],
            "min" : [
                -0.08762311190366745,
                -0.2712416648864746,
                -0.23851872980594635
            ],
            "type" : "VEC3"
        },
        {
            "bufferView" : 1,
            "componentType" : 5126,
            "count" : 2866,
            "type" : "VEC3"
        },
        {
            "bufferView" : 2,
            "componentType" : 5126,
            "count" : 2866,
            "type" : "VEC2"
        },
        {
            "bufferView" : 3,
            "componentType" : 5123,
            "count" : 16164,
            "type" : "SCALAR"
        },
        {
            "bufferView" : 5,
            "componentType" : 5126,
            "count" : 752,
            "max" : [
                1.2953357696533203,
                7.90000057220459,
                17.240537643432617
            ],
            "min" : [
                2.8697024390567094e-05,
                -1.8999989032745361,
                -19.159460067749023
            ],
            "type" : "VEC3"
        },
        {
            "bufferView" : 6,
            "componentType" : 5126,
            "count" : 752,
            "type" : "VEC3"
        },
        {
            "bufferView" : 7,
            "componentType" : 5126,
            "count" : 752,
            "type" : "VEC2"
        },
        {
            "bufferView" : 8,
            "componentType" : 5123,
            "count" : 1680,
            "type" : "SCALAR"
        }
    ],
    "bufferViews" : [
        {
            "buffer" : 0,
            "byteLength" : 34392,
            "byteOffset" : 0
        },
        {
            "buffer" : 0,
            "byteLength" : 34392,
            "byteOffset" : 34392
        },
        {
            "buffer" : 0,
            "byteLength" : 22928,
            "byteOffset" : 68784
        },
        {
            "buffer" : 0,
            "byteLength" : 32328,
            "byteOffset" : 91712
        },
        {
            "buffer" : 0,
            "byteLength" : 6474,
            "byteOffset" : 124040
        },
        {
            "buffer" : 0,
            "byteLength" : 9024,
            "byteOffset" : 130516
        },
        {
            "buffer" : 0,
            "byteLength" : 9024,
            "byteOffset" : 139540
        },
        {
            "buffer" : 0,
            "byteLength" : 6016,
            "byteOffset" : 148564
        },
        {
            "buffer" : 0,
            "byteLength" : 3360,
            "byteOffset" : 154580
        }
    ],
    "samplers" : [
        {
            "magFilter" : 9729,
            "minFilter" : 9987
        }
    ],
    "buffers" : [
        {
            "byteLength" : 157940,
            "uri" : "data:application/octet-stream;base64,"
        }
    ]
}
