{
    "asset" : {
        "copyright" : "Jeremy Edelblut",
        "generator" : "Khronos glTF Blender I/O v1.6.16",
        "version" : "2.0"
    },
    "scene" : 0,
    "scenes" : [
        {
            "name" : "Scene",
            "nodes" : [
                0,
                1,
                2
            ]
        }
    ],
    "nodes" : [
        {
            "mesh" : 0,
            "name" : "Circle.1932",
            "rotation" : [
                0.9105390310287476,
                0,
                0,
                0.4134230613708496
            ],
            "scale" : [
                0.5395860075950623,
                0.5395860075950623,
                0.5395860075950623
            ],
            "translation" : [
                0,
                0.049152474850416183,
                -0.25109001994132996
            ]
        },
        {
            "mesh" : 1,
            "name" : "Cube.6273",
            "rotation" : [
                -0.6577304601669312,
                -0.2595970928668976,
                -0.6577304601669312,
                -0.25959712266921997
            ],
            "scale" : [
                0.0359203927218914,
                0.05420723557472229,
                0.08152637630701065
            ],
            "translation" : [
                0,
                0.846217930316925,
                -0.3323650658130646
            ]
        },
        {
            "mesh" : 2,
            "name" : "Plane.145",
            "rotation" : [
                0.35151398181915283,
                0,
                0,
                0.9361826181411743
            ],
            "scale" : [
                0.5395860075950623,
                0.21710307896137238,
                0.5395860075950623
            ],
            "translation" : [
                0,
                0.049152474850416183,
                -0.25109001994132996
            ]
        }
    ],
    "materials" : [
        {
            "doubleSided" : true,
            "name" : "DKBrown",
            "pbrMetallicRoughness" : {
                "baseColorFactor" : [
                    0.010021701455116272,
                    0.0023923655971884727,
                    0.0018060366855934262,
                    1
                ],
                "metallicFactor" : 0,
                "roughnessFactor" : 0.5
            }
        },
        {
            "doubleSided" : true,
            "name" : "Brown",
            "pbrMetallicRoughness" : {
                "baseColorFactor" : [
                    0.07322511821985245,
                    0.02384052984416485,
                    0.021921303123235703,
                    1
                ],
                "metallicFactor" : 0,
                "roughnessFactor" : 0.5
            }
        }
    ],
    "meshes" : [
        {
            "name" : "Circle.2150",
            "primitives" : [
                {
                    "attributes" : {
                        "POSITION" : 0,
                        "NORMAL" : 1,
                        "TEXCOORD_0" : 2
                    },
                    "indices" : 3,
                    "material" : 0
                }
            ]
        },
        {
            "name" : "Cube.7334",
            "primitives" : [
                {
                    "attributes" : {
                        "POSITION" : 4,
                        "NORMAL" : 5,
                        "TEXCOORD_0" : 6
                    },
                    "indices" : 7,
                    "material" : 0
                }
            ]
        },
        {
            "name" : "Plane.147",
            "primitives" : [
                {
                    "attributes" : {
                        "POSITION" : 8,
                        "NORMAL" : 9,
                        "TEXCOORD_0" : 10
                    },
                    "indices" : 11,
                    "material" : 1
                },
                {
                    "attributes" : {
                        "POSITION" : 12,
                        "NORMAL" : 13,
                        "TEXCOORD_0" : 14
                    },
                    "indices" : 15
                }
            ]
        }
    ],
    "accessors" : [
        {
            "bufferView" : 0,
            "componentType" : 5126,
            "count" : 752,
            "max" : [
                0.29457005858421326,
                -1.3900185823440552,
                -0.41139936447143555
            ],
            "min" : [
                -0.29457005858421326,
                -1.5741688013076782,
                -0.5801591873168945
            ],
            "type" : "VEC3"
        },
        {
            "bufferView" : 1,
            "componentType" : 5126,
            "count" : 752,
            "type" : "VEC3"
        },
        {
            "bufferView" : 2,
            "componentType" : 5126,
            "count" : 752,
            "type" : "VEC2"
        },
        {
            "bufferView" : 3,
            "componentType" : 5123,
            "count" : 2880,
            "type" : "SCALAR"
        },
        {
            "bufferView" : 4,
            "componentType" : 5126,
            "count" : 441,
            "max" : [
                0.8395062685012817,
                0.8395062685012817,
                0.8395062685012817
            ],
            "min" : [
                -0.8395062685012817,
                -0.8395062685012817,
                -0.8395062685012817
            ],
            "type" : "VEC3"
        },
        {
            "bufferView" : 5,
            "componentType" : 5126,
            "count" : 441,
            "type" : "VEC3"
        },
        {
            "bufferView" : 6,
            "componentType" : 5126,
            "count" : 441,
            "type" : "VEC2"
        },
        {
            "bufferView" : 7,
            "componentType" : 5123,
            "count" : 2304,
            "type" : "SCALAR"
        },
        {
            "bufferView" : 8,
            "componentType" : 5126,
            "count" : 338,
            "max" : [
                0.49999991059303284,
                2.575157403945923,
                3.142824411392212
            ],
            "min" : [
                -0.4999999701976776,
                -0.9999999403953552,
                -1.8526047468185425
            ],
            "type" : "VEC3"
        },
        {
            "bufferView" : 9,
            "componentType" : 5126,
            "count" : 338,
            "type" : "VEC3"
        },
        {
            "bufferView" : 10,
            "componentType" : 5126,
            "count" : 338,
            "type" : "VEC2"
        },
        {
            "bufferView" : 11,
            "componentType" : 5123,
            "count" : 954,
            "type" : "SCALAR"
        },
        {
            "bufferView" : 12,
            "componentType" : 5126,
            "count" : 54,
            "max" : [
                0.49999991059303284,
                2.575157403945923,
                3.142824411392212
            ],
            "min" : [
                -0.4999999701976776,
                0.02663169801235199,
                -1.114535927772522
            ],
            "type" : "VEC3"
        },
        {
            "bufferView" : 13,
            "componentType" : 5126,
            "count" : 54,
            "type" : "VEC3"
        },
        {
            "bufferView" : 14,
            "componentType" : 5126,
            "count" : 54,
            "type" : "VEC2"
        },
        {
            "bufferView" : 15,
            "componentType" : 5123,
            "count" : 174,
            "type" : "SCALAR"
        }
    ],
    "bufferViews" : [
        {
            "buffer" : 0,
            "byteLength" : 9024,
            "byteOffset" : 0
        },
        {
            "buffer" : 0,
            "byteLength" : 9024,
            "byteOffset" : 9024
        },
        {
            "buffer" : 0,
            "byteLength" : 6016,
            "byteOffset" : 18048
        },
        {
            "buffer" : 0,
            "byteLength" : 5760,
            "byteOffset" : 24064
        },
        {
            "buffer" : 0,
            "byteLength" : 5292,
            "byteOffset" : 29824
        },
        {
            "buffer" : 0,
            "byteLength" : 5292,
            "byteOffset" : 35116
        },
        {
            "buffer" : 0,
            "byteLength" : 3528,
            "byteOffset" : 40408
        },
        {
            "buffer" : 0,
            "byteLength" : 4608,
            "byteOffset" : 43936
        },
        {
            "buffer" : 0,
            "byteLength" : 4056,
            "byteOffset" : 48544
        },
        {
            "buffer" : 0,
            "byteLength" : 4056,
            "byteOffset" : 52600
        },
        {
            "buffer" : 0,
            "byteLength" : 2704,
            "byteOffset" : 56656
        },
        {
            "buffer" : 0,
            "byteLength" : 1908,
            "byteOffset" : 59360
        },
        {
            "buffer" : 0,
            "byteLength" : 648,
            "byteOffset" : 61268
        },
        {
            "buffer" : 0,
            "byteLength" : 648,
            "byteOffset" : 61916
        },
        {
            "buffer" : 0,
            "byteLength" : 432,
            "byteOffset" : 62564
        },
        {
            "buffer" : 0,
            "byteLength" : 348,
            "byteOffset" : 62996
        }
    ],
    "buffers" : [
        {
            "byteLength" : 63344,
            "uri" : "data:application/octet-stream;base64,"
        }
    ]
}
