{
    "asset" : {
        "copyright" : "Jeremy Edelblut",
        "generator" : "Khronos glTF Blender I/O v1.7.33",
        "version" : "2.0"
    },
    "scene" : 1,
    "scenes" : [
        {
            "name" : "FBX_Temp",
            "nodes" : [
                0
            ]
        },
        {
            "name" : "Scene",
            "nodes" : [
                1,
                2,
                3,
                4,
                5
            ]
        }
    ],
    "nodes" : [
        {
            "mesh" : 0,
            "name" : "3moji.064",
            "rotation" : [
                0,
                -0.7071068286895752,
                0,
                0.7071068286895752
            ]
        },
        {
            "mesh" : 1,
            "name" : "Circle.1891",
            "rotation" : [
                0.653281569480896,
                -0.270597904920578,
                0.2705979347229004,
                0.6532815098762512
            ],
            "translation" : [
                -0.5913729071617126,
                0.9458801746368408,
                0.7301256060600281
            ]
        },
        {
            "mesh" : 2,
            "name" : "Circle.1892",
            "rotation" : [
                0,
                -0.3826834559440613,
                0,
                0.9238795042037964
            ],
            "translation" : [
                -0.5913729071617126,
                0.6029127836227417,
                0.7301256060600281
            ]
        },
        {
            "mesh" : 3,
            "name" : "Plane.119",
            "rotation" : [
                0.27059808373451233,
                -0.27059805393218994,
                -0.6532814502716064,
                0.6532815098762512
            ],
            "translation" : [
                0.24615810811519623,
                -0.1934157907962799,
                -0.11044235527515411
            ]
        },
        {
            "mesh" : 4,
            "name" : "Cube.6227",
            "rotation" : [
                0,
                -0.3826834559440613,
                0,
                0.9238795042037964
            ],
            "translation" : [
                0.252232164144516,
                -0.1934157907962799,
                -0.0891832560300827
            ]
        },
        {
            "mesh" : 5,
            "name" : "3moji.org.209",
            "rotation" : [
                -0.7252980470657349,
                0.5722728371620178,
                0.30042824149131775,
                -0.2370431125164032
            ],
            "translation" : [
                0.5151047706604004,
                -0.37602171301841736,
                -0.37938907742500305
            ]
        }
    ],
    "materials" : [
        {
            "doubleSided" : true,
            "name" : "color",
            "pbrMetallicRoughness" : {
                "baseColorTexture" : {
                    "index" : 0
                },
                "metallicFactor" : 0,
                "roughnessFactor" : 0.5
            }
        }
    ],
    "meshes" : [
        {
            "name" : "Cube.417",
            "primitives" : [
                {
                    "attributes" : {
                        "POSITION" : 0,
                        "NORMAL" : 1,
                        "TEXCOORD_0" : 2
                    },
                    "indices" : 3,
                    "material" : 0
                }
            ]
        },
        {
            "name" : "Circle.2107",
            "primitives" : [
                {
                    "attributes" : {
                        "POSITION" : 4,
                        "NORMAL" : 5,
                        "TEXCOORD_0" : 6
                    },
                    "indices" : 7,
                    "material" : 0
                }
            ]
        },
        {
            "name" : "Circle.2108",
            "primitives" : [
                {
                    "attributes" : {
                        "POSITION" : 8,
                        "NORMAL" : 9,
                        "TEXCOORD_0" : 10
                    },
                    "indices" : 11,
                    "material" : 0
                }
            ]
        },
        {
            "name" : "Plane.120",
            "primitives" : [
                {
                    "attributes" : {
                        "POSITION" : 12,
                        "NORMAL" : 13,
                        "TEXCOORD_0" : 14
                    },
                    "indices" : 15,
                    "material" : 0
                }
            ]
        },
        {
            "name" : "Cube.7284",
            "primitives" : [
                {
                    "attributes" : {
                        "POSITION" : 16,
                        "NORMAL" : 17,
                        "TEXCOORD_0" : 18
                    },
                    "indices" : 19,
                    "material" : 0
                }
            ]
        },
        {
            "name" : "Cube.670",
            "primitives" : [
                {
                    "attributes" : {
                        "POSITION" : 20,
                        "NORMAL" : 21,
                        "TEXCOORD_0" : 22
                    },
                    "indices" : 23,
                    "material" : 0
                }
            ]
        }
    ],
    "textures" : [
        {
            "sampler" : 0,
            "source" : 0
        }
    ],
    "images" : [
        {
            "bufferView" : 4,
            "mimeType" : "image/png",
            "name" : "tex"
        }
    ],
    "accessors" : [
        {
            "bufferView" : 0,
            "componentType" : 5126,
            "count" : 752,
            "max" : [
                -0.8264395594596863,
                0.05719918757677078,
                0.13795676827430725
            ],
            "min" : [
                -0.8543609976768494,
                -0.014034310355782509,
                -0.12436223030090332
            ],
            "type" : "VEC3"
        },
        {
            "bufferView" : 1,
            "componentType" : 5126,
            "count" : 752,
            "type" : "VEC3"
        },
        {
            "bufferView" : 2,
            "componentType" : 5126,
            "count" : 752,
            "type" : "VEC2"
        },
        {
            "bufferView" : 3,
            "componentType" : 5123,
            "count" : 1680,
            "type" : "SCALAR"
        },
        {
            "bufferView" : 5,
            "componentType" : 5126,
            "count" : 644,
            "max" : [
                0.1879277229309082,
                0.15168319642543793,
                0.4835047721862793
            ],
            "min" : [
                -0.1879277229309082,
                0.05750194936990738,
                0.3718934953212738
            ],
            "type" : "VEC3"
        },
        {
            "bufferView" : 6,
            "componentType" : 5126,
            "count" : 644,
            "type" : "VEC3"
        },
        {
            "bufferView" : 7,
            "componentType" : 5126,
            "count" : 644,
            "type" : "VEC2"
        },
        {
            "bufferView" : 8,
            "componentType" : 5123,
            "count" : 2880,
            "type" : "SCALAR"
        },
        {
            "bufferView" : 9,
            "componentType" : 5126,
            "count" : 386,
            "max" : [
                0.40146398544311523,
                0.43179944157600403,
                0.0672047808766365
            ],
            "min" : [
                -0.40146398544311523,
                0.09047334641218185,
                -0.06689372658729553
            ],
            "type" : "VEC3"
        },
        {
            "bufferView" : 10,
            "componentType" : 5126,
            "count" : 386,
            "type" : "VEC3"
        },
        {
            "bufferView" : 11,
            "componentType" : 5126,
            "count" : 386,
            "type" : "VEC2"
        },
        {
            "bufferView" : 12,
            "componentType" : 5123,
            "count" : 2208,
            "type" : "SCALAR"
        },
        {
            "bufferView" : 13,
            "componentType" : 5126,
            "count" : 1002,
            "max" : [
                0.8821853399276733,
                0.3116145431995392,
                1.5569366216659546
            ],
            "min" : [
                -1.0797491073608398,
                -0.31161564588546753,
                -1.2006198167800903
            ],
            "type" : "VEC3"
        },
        {
            "bufferView" : 14,
            "componentType" : 5126,
            "count" : 1002,
            "type" : "VEC3"
        },
        {
            "bufferView" : 15,
            "componentType" : 5126,
            "count" : 1002,
            "type" : "VEC2"
        },
        {
            "bufferView" : 16,
            "componentType" : 5123,
            "count" : 3120,
            "type" : "SCALAR"
        },
        {
            "bufferView" : 17,
            "componentType" : 5126,
            "count" : 748,
            "max" : [
                0.34505927562713623,
                0.8832091689109802,
                1.2006707191467285
            ],
            "min" : [
                -0.34505927562713623,
                0.6984555721282959,
                1.0774496793746948
            ],
            "type" : "VEC3"
        },
        {
            "bufferView" : 18,
            "componentType" : 5126,
            "count" : 748,
            "type" : "VEC3"
        },
        {
            "bufferView" : 19,
            "componentType" : 5126,
            "count" : 748,
            "type" : "VEC2"
        },
        {
            "bufferView" : 20,
            "componentType" : 5123,
            "count" : 3504,
            "type" : "SCALAR"
        },
        {
            "bufferView" : 21,
            "componentType" : 5126,
            "count" : 752,
            "max" : [
                0.006202273070812225,
                0.037826452404260635,
                0.08255039155483246
            ],
            "min" : [
                1.374059053205201e-07,
                -0.00909749511629343,
                -0.0917384922504425
            ],
            "type" : "VEC3"
        },
        {
            "bufferView" : 22,
            "componentType" : 5126,
            "count" : 752,
            "type" : "VEC3"
        },
        {
            "bufferView" : 23,
            "componentType" : 5126,
            "count" : 752,
            "type" : "VEC2"
        },
        {
            "bufferView" : 24,
            "componentType" : 5123,
            "count" : 1680,
            "type" : "SCALAR"
        }
    ],
    "bufferViews" : [
        {
            "buffer" : 0,
            "byteLength" : 9024,
            "byteOffset" : 0
        },
        {
            "buffer" : 0,
            "byteLength" : 9024,
            "byteOffset" : 9024
        },
        {
            "buffer" : 0,
            "byteLength" : 6016,
            "byteOffset" : 18048
        },
        {
            "buffer" : 0,
            "byteLength" : 3360,
            "byteOffset" : 24064
        },
        {
            "buffer" : 0,
            "byteLength" : 11997,
            "byteOffset" : 27424
        },
        {
            "buffer" : 0,
            "byteLength" : 7728,
            "byteOffset" : 39424
        },
        {
            "buffer" : 0,
            "byteLength" : 7728,
            "byteOffset" : 47152
        },
        {
            "buffer" : 0,
            "byteLength" : 5152,
            "byteOffset" : 54880
        },
        {
            "buffer" : 0,
            "byteLength" : 5760,
            "byteOffset" : 60032
        },
        {
            "buffer" : 0,
            "byteLength" : 4632,
            "byteOffset" : 65792
        },
        {
            "buffer" : 0,
            "byteLength" : 4632,
            "byteOffset" : 70424
        },
        {
            "buffer" : 0,
            "byteLength" : 3088,
            "byteOffset" : 75056
        },
        {
            "buffer" : 0,
            "byteLength" : 4416,
            "byteOffset" : 78144
        },
        {
            "buffer" : 0,
            "byteLength" : 12024,
            "byteOffset" : 82560
        },
        {
            "buffer" : 0,
            "byteLength" : 12024,
            "byteOffset" : 94584
        },
        {
            "buffer" : 0,
            "byteLength" : 8016,
            "byteOffset" : 106608
        },
        {
            "buffer" : 0,
            "byteLength" : 6240,
            "byteOffset" : 114624
        },
        {
            "buffer" : 0,
            "byteLength" : 8976,
            "byteOffset" : 120864
        },
        {
            "buffer" : 0,
            "byteLength" : 8976,
            "byteOffset" : 129840
        },
        {
            "buffer" : 0,
            "byteLength" : 5984,
            "byteOffset" : 138816
        },
        {
            "buffer" : 0,
            "byteLength" : 7008,
            "byteOffset" : 144800
        },
        {
            "buffer" : 0,
            "byteLength" : 9024,
            "byteOffset" : 151808
        },
        {
            "buffer" : 0,
            "byteLength" : 9024,
            "byteOffset" : 160832
        },
        {
            "buffer" : 0,
            "byteLength" : 6016,
            "byteOffset" : 169856
        },
        {
            "buffer" : 0,
            "byteLength" : 3360,
            "byteOffset" : 175872
        }
    ],
    "samplers" : [
        {
            "magFilter" : 9729,
            "minFilter" : 9987
        }
    ],
    "buffers" : [
        {
            "byteLength" : 179232,
            "uri" : "data:application/octet-stream;base64,"
        }
    ]
}
