{
    "asset" : {
        "copyright" : "Jeremy Edelblut",
        "generator" : "Khronos glTF Blender I/O v1.6.16",
        "version" : "2.0"
    },
    "scene" : 0,
    "scenes" : [
        {
            "name" : "Scene",
            "nodes" : [
                0
            ]
        }
    ],
    "nodes" : [
        {
            "mesh" : 0,
            "name" : "Circle.2250",
            "rotation" : [
                0.32503437995910645,
                0.813500702381134,
                0.1789311170578003,
                0.44783133268356323
            ],
            "scale" : [
                1.455694556236267,
                1.455694317817688,
                1.4556944370269775
            ],
            "translation" : [
                -0.08010698854923248,
                0.08511381596326828,
                0
            ]
        }
    ],
    "materials" : [
        {
            "doubleSided" : true,
            "name" : "Color",
            "pbrMetallicRoughness" : {
                "baseColorTexture" : {
                    "index" : 0
                },
                "metallicFactor" : 0,
                "roughnessFactor" : 0.5
            }
        }
    ],
    "meshes" : [
        {
            "name" : "Circle.2733",
            "primitives" : [
                {
                    "attributes" : {
                        "POSITION" : 0,
                        "NORMAL" : 1,
                        "TEXCOORD_0" : 2
                    },
                    "indices" : 3,
                    "material" : 0
                }
            ]
        }
    ],
    "textures" : [
        {
            "sampler" : 0,
            "source" : 0
        }
    ],
    "images" : [
        {
            "bufferView" : 4,
            "mimeType" : "image/png",
            "name" : "tex"
        }
    ],
    "accessors" : [
        {
            "bufferView" : 0,
            "componentType" : 5126,
            "count" : 3901,
            "max" : [
                1.0298357009887695,
                0.20232798159122467,
                0.5687283277511597
            ],
            "min" : [
                -1.0325976610183716,
                -0.17767199873924255,
                -0.5652296543121338
            ],
            "type" : "VEC3"
        },
        {
            "bufferView" : 1,
            "componentType" : 5126,
            "count" : 3901,
            "type" : "VEC3"
        },
        {
            "bufferView" : 2,
            "componentType" : 5126,
            "count" : 3901,
            "type" : "VEC2"
        },
        {
            "bufferView" : 3,
            "componentType" : 5123,
            "count" : 20538,
            "type" : "SCALAR"
        }
    ],
    "bufferViews" : [
        {
            "buffer" : 0,
            "byteLength" : 46812,
            "byteOffset" : 0
        },
        {
            "buffer" : 0,
            "byteLength" : 46812,
            "byteOffset" : 46812
        },
        {
            "buffer" : 0,
            "byteLength" : 31208,
            "byteOffset" : 93624
        },
        {
            "buffer" : 0,
            "byteLength" : 41076,
            "byteOffset" : 124832
        },
        {
            "buffer" : 0,
            "byteLength" : 3214,
            "byteOffset" : 165908
        }
    ],
    "samplers" : [
        {
            "magFilter" : 9729,
            "minFilter" : 9987
        }
    ],
    "buffers" : [
        {
            "byteLength" : 169124,
            "uri" : "data:application/octet-stream;base64,"
        }
    ]
}
