{
    "asset" : {
        "copyright" : "Jeremy Edelblut",
        "generator" : "Khronos glTF Blender I/O v1.6.16",
        "version" : "2.0"
    },
    "scene" : 0,
    "scenes" : [
        {
            "name" : "Scene",
            "nodes" : [
                0
            ]
        }
    ],
    "nodes" : [
        {
            "mesh" : 0,
            "name" : "Cube.969",
            "rotation" : [
                0.19996413588523865,
                -0.37361231446266174,
                -0.0828278586268425,
                0.901979923248291
            ],
            "scale" : [
                0.7199999690055847,
                0.7200000286102295,
                0.7200000882148743
            ],
            "translation" : [
                0,
                0.08068730682134628,
                0
            ]
        }
    ],
    "materials" : [
        {
            "doubleSided" : true,
            "name" : "Color",
            "pbrMetallicRoughness" : {
                "baseColorTexture" : {
                    "index" : 0
                },
                "metallicFactor" : 0,
                "roughnessFactor" : 0.5
            }
        }
    ],
    "meshes" : [
        {
            "name" : "Cube.7839",
            "primitives" : [
                {
                    "attributes" : {
                        "POSITION" : 0,
                        "NORMAL" : 1,
                        "TEXCOORD_0" : 2
                    },
                    "indices" : 3,
                    "material" : 0
                }
            ]
        }
    ],
    "textures" : [
        {
            "sampler" : 0,
            "source" : 0
        }
    ],
    "images" : [
        {
            "bufferView" : 4,
            "mimeType" : "image/png",
            "name" : "tex2"
        }
    ],
    "accessors" : [
        {
            "bufferView" : 0,
            "componentType" : 5126,
            "count" : 948,
            "max" : [
                1.0141123533248901,
                1.0299999713897705,
                1
            ],
            "min" : [
                -1.0141123533248901,
                -1,
                -1
            ],
            "type" : "VEC3"
        },
        {
            "bufferView" : 1,
            "componentType" : 5126,
            "count" : 948,
            "type" : "VEC3"
        },
        {
            "bufferView" : 2,
            "componentType" : 5126,
            "count" : 948,
            "type" : "VEC2"
        },
        {
            "bufferView" : 3,
            "componentType" : 5123,
            "count" : 2064,
            "type" : "SCALAR"
        }
    ],
    "bufferViews" : [
        {
            "buffer" : 0,
            "byteLength" : 11376,
            "byteOffset" : 0
        },
        {
            "buffer" : 0,
            "byteLength" : 11376,
            "byteOffset" : 11376
        },
        {
            "buffer" : 0,
            "byteLength" : 7584,
            "byteOffset" : 22752
        },
        {
            "buffer" : 0,
            "byteLength" : 4128,
            "byteOffset" : 30336
        },
        {
            "buffer" : 0,
            "byteLength" : 6474,
            "byteOffset" : 34464
        }
    ],
    "samplers" : [
        {
            "magFilter" : 9729,
            "minFilter" : 9987
        }
    ],
    "buffers" : [
        {
            "byteLength" : 40940,
            "uri" : "data:application/octet-stream;base64,"
        }
    ]
}
