{
    "asset" : {
        "copyright" : "Jeremy Edelblut",
        "generator" : "Khronos glTF Blender I/O v1.6.16",
        "version" : "2.0"
    },
    "scene" : 0,
    "scenes" : [
        {
            "name" : "Scene",
            "nodes" : [
                0
            ]
        }
    ],
    "nodes" : [
        {
            "mesh" : 0,
            "name" : "Circle.2563",
            "rotation" : [
                0.3826834559440613,
                0.9238795042037964,
                0,
                -1.3379145968883677e-07
            ],
            "scale" : [
                3.4800002574920654,
                3.4800002574920654,
                3.4800000190734863
            ]
        }
    ],
    "materials" : [
        {
            "doubleSided" : true,
            "name" : "Color",
            "pbrMetallicRoughness" : {
                "baseColorTexture" : {
                    "index" : 0
                },
                "metallicFactor" : 0,
                "roughnessFactor" : 0.5
            }
        }
    ],
    "meshes" : [
        {
            "name" : "Circle.3215",
            "primitives" : [
                {
                    "attributes" : {
                        "POSITION" : 0,
                        "NORMAL" : 1,
                        "TEXCOORD_0" : 2
                    },
                    "indices" : 3,
                    "material" : 0
                }
            ]
        }
    ],
    "textures" : [
        {
            "sampler" : 0,
            "source" : 0
        }
    ],
    "images" : [
        {
            "bufferView" : 4,
            "mimeType" : "image/png",
            "name" : "tex"
        }
    ],
    "accessors" : [
        {
            "bufferView" : 0,
            "componentType" : 5126,
            "count" : 1058,
            "max" : [
                0.09608746320009232,
                0.4006793797016144,
                0.0960354208946228
            ],
            "min" : [
                -0.09589643031358719,
                -0.39994630217552185,
                -0.09594850987195969
            ],
            "type" : "VEC3"
        },
        {
            "bufferView" : 1,
            "componentType" : 5126,
            "count" : 1058,
            "type" : "VEC3"
        },
        {
            "bufferView" : 2,
            "componentType" : 5126,
            "count" : 1058,
            "type" : "VEC2"
        },
        {
            "bufferView" : 3,
            "componentType" : 5123,
            "count" : 5376,
            "type" : "SCALAR"
        }
    ],
    "bufferViews" : [
        {
            "buffer" : 0,
            "byteLength" : 12696,
            "byteOffset" : 0
        },
        {
            "buffer" : 0,
            "byteLength" : 12696,
            "byteOffset" : 12696
        },
        {
            "buffer" : 0,
            "byteLength" : 8464,
            "byteOffset" : 25392
        },
        {
            "buffer" : 0,
            "byteLength" : 10752,
            "byteOffset" : 33856
        },
        {
            "buffer" : 0,
            "byteLength" : 3214,
            "byteOffset" : 44608
        }
    ],
    "samplers" : [
        {
            "magFilter" : 9729,
            "minFilter" : 9987
        }
    ],
    "buffers" : [
        {
            "byteLength" : 47824,
            "uri" : "data:application/octet-stream;base64,"
        }
    ]
}
