{
    "asset" : {
        "copyright" : "Jeremy Edelblut",
        "generator" : "Khronos glTF Blender I/O v1.6.16",
        "version" : "2.0"
    },
    "scene" : 0,
    "scenes" : [
        {
            "name" : "Scene",
            "nodes" : [
                0,
                1
            ]
        }
    ],
    "nodes" : [
        {
            "mesh" : 0,
            "name" : "hand.035",
            "rotation" : [
                -0.011090961284935474,
                -0.2520175874233246,
                0.01767195202410221,
                0.967497706413269
            ],
            "scale" : [
                2.747016191482544,
                2.747016191482544,
                2.7470157146453857
            ]
        },
        {
            "mesh" : 1,
            "name" : "hand.037",
            "rotation" : [
                0.9789087772369385,
                -0.02125210128724575,
                -0.20227037370204926,
                0.01930484175682068
            ],
            "scale" : [
                -2.7470157146453857,
                -2.7470157146453857,
                -2.7470157146453857
            ]
        }
    ],
    "materials" : [
        {
            "doubleSided" : true,
            "name" : "Yellow_body",
            "pbrMetallicRoughness" : {
                "baseColorTexture" : {
                    "index" : 0
                },
                "metallicFactor" : 0,
                "roughnessFactor" : 0.5
            }
        }
    ],
    "meshes" : [
        {
            "name" : "Circle.286",
            "primitives" : [
                {
                    "attributes" : {
                        "POSITION" : 0,
                        "NORMAL" : 1,
                        "TEXCOORD_0" : 2
                    },
                    "indices" : 3,
                    "material" : 0
                }
            ]
        },
        {
            "name" : "Circle.290",
            "primitives" : [
                {
                    "attributes" : {
                        "POSITION" : 4,
                        "NORMAL" : 5,
                        "TEXCOORD_0" : 6
                    },
                    "indices" : 3,
                    "material" : 0
                }
            ]
        }
    ],
    "textures" : [
        {
            "sampler" : 0,
            "source" : 0
        }
    ],
    "images" : [
        {
            "bufferView" : 4,
            "mimeType" : "image/png",
            "name" : "Rectangle 863"
        }
    ],
    "accessors" : [
        {
            "bufferView" : 0,
            "componentType" : 5126,
            "count" : 3087,
            "max" : [
                0.3230711817741394,
                0.28727200627326965,
                0.024069830775260925
            ],
            "min" : [
                -0.020266791805624962,
                -0.3236039876937866,
                -0.16657611727714539
            ],
            "type" : "VEC3"
        },
        {
            "bufferView" : 1,
            "componentType" : 5126,
            "count" : 3087,
            "type" : "VEC3"
        },
        {
            "bufferView" : 2,
            "componentType" : 5126,
            "count" : 3087,
            "type" : "VEC2"
        },
        {
            "bufferView" : 3,
            "componentType" : 5123,
            "count" : 13320,
            "type" : "SCALAR"
        },
        {
            "bufferView" : 5,
            "componentType" : 5126,
            "count" : 3087,
            "max" : [
                0.3299657106399536,
                0.2886446416378021,
                0.03427937254309654
            ],
            "min" : [
                -0.013978434726595879,
                -0.323042631149292,
                -0.1547023057937622
            ],
            "type" : "VEC3"
        },
        {
            "bufferView" : 6,
            "componentType" : 5126,
            "count" : 3087,
            "type" : "VEC3"
        },
        {
            "bufferView" : 7,
            "componentType" : 5126,
            "count" : 3087,
            "type" : "VEC2"
        }
    ],
    "bufferViews" : [
        {
            "buffer" : 0,
            "byteLength" : 37044,
            "byteOffset" : 0
        },
        {
            "buffer" : 0,
            "byteLength" : 37044,
            "byteOffset" : 37044
        },
        {
            "buffer" : 0,
            "byteLength" : 24696,
            "byteOffset" : 74088
        },
        {
            "buffer" : 0,
            "byteLength" : 26640,
            "byteOffset" : 98784
        },
        {
            "buffer" : 0,
            "byteLength" : 85292,
            "byteOffset" : 125424
        },
        {
            "buffer" : 0,
            "byteLength" : 37044,
            "byteOffset" : 210716
        },
        {
            "buffer" : 0,
            "byteLength" : 37044,
            "byteOffset" : 247760
        },
        {
            "buffer" : 0,
            "byteLength" : 24696,
            "byteOffset" : 284804
        }
    ],
    "samplers" : [
        {
            "magFilter" : 9729,
            "minFilter" : 9987
        }
    ],
    "buffers" : [
        {
            "byteLength" : 309500,
            "uri" : "data:application/octet-stream;base64,"
        }
    ]
}
