{
    "asset" : {
        "copyright" : "Jeremy Edelblut",
        "generator" : "Khronos glTF Blender I/O v1.6.16",
        "version" : "2.0"
    },
    "scene" : 0,
    "scenes" : [
        {
            "name" : "Scene",
            "nodes" : [
                0,
                1,
                2
            ]
        }
    ],
    "nodes" : [
        {
            "mesh" : 0,
            "name" : "hand.035",
            "rotation" : [
                -0.011090961284935474,
                -0.2520175874233246,
                0.01767195202410221,
                0.967497706413269
            ],
            "scale" : [
                2.747016191482544,
                2.747016191482544,
                2.7470157146453857
            ]
        },
        {
            "mesh" : 1,
            "name" : "hand.037",
            "rotation" : [
                0.9789087772369385,
                -0.02125210128724575,
                -0.20227037370204926,
                0.01930484175682068
            ],
            "scale" : [
                -2.7470157146453857,
                -2.7470157146453857,
                -2.7470157146453857
            ]
        },
        {
            "mesh" : 2,
            "name" : "3moji.org.029",
            "rotation" : [
                -0.4130416810512543,
                0.46189084649086,
                0.5092513561248779,
                -0.5972574353218079
            ],
            "scale" : [
                0.0017555308295413852,
                0.0017555307131260633,
                0.0017555307131260633
            ],
            "translation" : [
                -0.47347182035446167,
                -0.8669248223304749,
                -0.013961469754576683
            ]
        }
    ],
    "materials" : [
        {
            "doubleSided" : true,
            "name" : "Color",
            "pbrMetallicRoughness" : {
                "baseColorTexture" : {
                    "index" : 0
                },
                "metallicFactor" : 0,
                "roughnessFactor" : 0.5
            }
        }
    ],
    "meshes" : [
        {
            "name" : "Circle.286",
            "primitives" : [
                {
                    "attributes" : {
                        "POSITION" : 0,
                        "NORMAL" : 1,
                        "TEXCOORD_0" : 2
                    },
                    "indices" : 3,
                    "material" : 0
                }
            ]
        },
        {
            "name" : "Circle.290",
            "primitives" : [
                {
                    "attributes" : {
                        "POSITION" : 4,
                        "NORMAL" : 5,
                        "TEXCOORD_0" : 6
                    },
                    "indices" : 3,
                    "material" : 0
                }
            ]
        },
        {
            "name" : "Cube.153",
            "primitives" : [
                {
                    "attributes" : {
                        "POSITION" : 7,
                        "NORMAL" : 8,
                        "TEXCOORD_0" : 9
                    },
                    "indices" : 10,
                    "material" : 0
                }
            ]
        }
    ],
    "textures" : [
        {
            "sampler" : 0,
            "source" : 0
        }
    ],
    "images" : [
        {
            "bufferView" : 4,
            "mimeType" : "image/png",
            "name" : "tex"
        }
    ],
    "accessors" : [
        {
            "bufferView" : 0,
            "componentType" : 5126,
            "count" : 2421,
            "max" : [
                0.3230711817741394,
                0.28727200627326965,
                0.024069830775260925
            ],
            "min" : [
                -0.020266791805624962,
                -0.3236039876937866,
                -0.16657611727714539
            ],
            "type" : "VEC3"
        },
        {
            "bufferView" : 1,
            "componentType" : 5126,
            "count" : 2421,
            "type" : "VEC3"
        },
        {
            "bufferView" : 2,
            "componentType" : 5126,
            "count" : 2421,
            "type" : "VEC2"
        },
        {
            "bufferView" : 3,
            "componentType" : 5123,
            "count" : 13320,
            "type" : "SCALAR"
        },
        {
            "bufferView" : 5,
            "componentType" : 5126,
            "count" : 2421,
            "max" : [
                0.3299657106399536,
                0.2886446416378021,
                0.03427937254309654
            ],
            "min" : [
                -0.013978434726595879,
                -0.323042631149292,
                -0.1547023057937622
            ],
            "type" : "VEC3"
        },
        {
            "bufferView" : 6,
            "componentType" : 5126,
            "count" : 2421,
            "type" : "VEC3"
        },
        {
            "bufferView" : 7,
            "componentType" : 5126,
            "count" : 2421,
            "type" : "VEC2"
        },
        {
            "bufferView" : 8,
            "componentType" : 5126,
            "count" : 752,
            "max" : [
                1.2953357696533203,
                7.90000057220459,
                17.240537643432617
            ],
            "min" : [
                2.8697024390567094e-05,
                -1.8999989032745361,
                -19.159460067749023
            ],
            "type" : "VEC3"
        },
        {
            "bufferView" : 9,
            "componentType" : 5126,
            "count" : 752,
            "type" : "VEC3"
        },
        {
            "bufferView" : 10,
            "componentType" : 5126,
            "count" : 752,
            "type" : "VEC2"
        },
        {
            "bufferView" : 11,
            "componentType" : 5123,
            "count" : 1680,
            "type" : "SCALAR"
        }
    ],
    "bufferViews" : [
        {
            "buffer" : 0,
            "byteLength" : 29052,
            "byteOffset" : 0
        },
        {
            "buffer" : 0,
            "byteLength" : 29052,
            "byteOffset" : 29052
        },
        {
            "buffer" : 0,
            "byteLength" : 19368,
            "byteOffset" : 58104
        },
        {
            "buffer" : 0,
            "byteLength" : 26640,
            "byteOffset" : 77472
        },
        {
            "buffer" : 0,
            "byteLength" : 3214,
            "byteOffset" : 104112
        },
        {
            "buffer" : 0,
            "byteLength" : 29052,
            "byteOffset" : 107328
        },
        {
            "buffer" : 0,
            "byteLength" : 29052,
            "byteOffset" : 136380
        },
        {
            "buffer" : 0,
            "byteLength" : 19368,
            "byteOffset" : 165432
        },
        {
            "buffer" : 0,
            "byteLength" : 9024,
            "byteOffset" : 184800
        },
        {
            "buffer" : 0,
            "byteLength" : 9024,
            "byteOffset" : 193824
        },
        {
            "buffer" : 0,
            "byteLength" : 6016,
            "byteOffset" : 202848
        },
        {
            "buffer" : 0,
            "byteLength" : 3360,
            "byteOffset" : 208864
        }
    ],
    "samplers" : [
        {
            "magFilter" : 9729,
            "minFilter" : 9987
        }
    ],
    "buffers" : [
        {
            "byteLength" : 212224,
            "uri" : "data:application/octet-stream;base64,"
        }
    ]
}
