{
    "asset" : {
        "copyright" : "Jeremy Edelblut",
        "generator" : "Khronos glTF Blender I/O v1.7.33",
        "version" : "2.0"
    },
    "scene" : 0,
    "scenes" : [
        {
            "name" : "Scene",
            "nodes" : [
                0,
                1
            ]
        }
    ],
    "nodes" : [
        {
            "mesh" : 0,
            "name" : "hand.037",
            "rotation" : [
                0.9789087772369385,
                -0.02125210128724575,
                -0.20227037370204926,
                0.01930484175682068
            ],
            "scale" : [
                -2.7470157146453857,
                -2.7470157146453857,
                -2.7470157146453857
            ]
        },
        {
            "mesh" : 1,
            "name" : "3moji.org.029",
            "rotation" : [
                -0.4130416810512543,
                0.46189084649086,
                0.5092513561248779,
                -0.5972574353218079
            ],
            "scale" : [
                0.0017555308295413852,
                0.0017555307131260633,
                0.0017555307131260633
            ],
            "translation" : [
                -0.47347182035446167,
                -0.8669248223304749,
                -0.013961469754576683
            ]
        }
    ],
    "materials" : [
        {
            "doubleSided" : true,
            "name" : "skin_tone_one",
            "pbrMetallicRoughness" : {
                "baseColorTexture" : {
                    "index" : 0
                },
                "metallicFactor" : 0,
                "roughnessFactor" : 0.5
            }
        },
        {
            "doubleSided" : true,
            "name" : "color",
            "pbrMetallicRoughness" : {
                "baseColorTexture" : {
                    "index" : 1
                },
                "metallicFactor" : 0,
                "roughnessFactor" : 0.5
            }
        }
    ],
    "meshes" : [
        {
            "name" : "Circle.290",
            "primitives" : [
                {
                    "attributes" : {
                        "POSITION" : 0,
                        "NORMAL" : 1,
                        "TEXCOORD_0" : 2
                    },
                    "indices" : 3,
                    "material" : 0
                }
            ]
        },
        {
            "name" : "Cube.153",
            "primitives" : [
                {
                    "attributes" : {
                        "POSITION" : 4,
                        "NORMAL" : 5,
                        "TEXCOORD_0" : 6
                    },
                    "indices" : 7,
                    "material" : 1
                }
            ]
        }
    ],
    "textures" : [
        {
            "sampler" : 0,
            "source" : 0
        },
        {
            "sampler" : 0,
            "source" : 0
        }
    ],
    "images" : [
        {
            "bufferView" : 4,
            "mimeType" : "image/png",
            "name" : "tex"
        }
    ],
    "accessors" : [
        {
            "bufferView" : 0,
            "componentType" : 5126,
            "count" : 4842,
            "max" : [
                0.3299657106399536,
                0.29584163427352905,
                0.2536466717720032
            ],
            "min" : [
                -0.29350441694259644,
                -0.323042631149292,
                -0.1547023057937622
            ],
            "type" : "VEC3"
        },
        {
            "bufferView" : 1,
            "componentType" : 5126,
            "count" : 4842,
            "type" : "VEC3"
        },
        {
            "bufferView" : 2,
            "componentType" : 5126,
            "count" : 4842,
            "type" : "VEC2"
        },
        {
            "bufferView" : 3,
            "componentType" : 5123,
            "count" : 26640,
            "type" : "SCALAR"
        },
        {
            "bufferView" : 5,
            "componentType" : 5126,
            "count" : 752,
            "max" : [
                1.2953357696533203,
                7.90000057220459,
                17.240537643432617
            ],
            "min" : [
                2.8697024390567094e-05,
                -1.8999989032745361,
                -19.159460067749023
            ],
            "type" : "VEC3"
        },
        {
            "bufferView" : 6,
            "componentType" : 5126,
            "count" : 752,
            "type" : "VEC3"
        },
        {
            "bufferView" : 7,
            "componentType" : 5126,
            "count" : 752,
            "type" : "VEC2"
        },
        {
            "bufferView" : 8,
            "componentType" : 5123,
            "count" : 1680,
            "type" : "SCALAR"
        }
    ],
    "bufferViews" : [
        {
            "buffer" : 0,
            "byteLength" : 58104,
            "byteOffset" : 0
        },
        {
            "buffer" : 0,
            "byteLength" : 58104,
            "byteOffset" : 58104
        },
        {
            "buffer" : 0,
            "byteLength" : 38736,
            "byteOffset" : 116208
        },
        {
            "buffer" : 0,
            "byteLength" : 53280,
            "byteOffset" : 154944
        },
        {
            "buffer" : 0,
            "byteLength" : 11997,
            "byteOffset" : 208224
        },
        {
            "buffer" : 0,
            "byteLength" : 9024,
            "byteOffset" : 220224
        },
        {
            "buffer" : 0,
            "byteLength" : 9024,
            "byteOffset" : 229248
        },
        {
            "buffer" : 0,
            "byteLength" : 6016,
            "byteOffset" : 238272
        },
        {
            "buffer" : 0,
            "byteLength" : 3360,
            "byteOffset" : 244288
        }
    ],
    "samplers" : [
        {
            "magFilter" : 9729,
            "minFilter" : 9987
        }
    ],
    "buffers" : [
        {
            "byteLength" : 247648,
            "uri" : "data:application/octet-stream;base64,"
        }
    ]
}
