{
    "asset" : {
        "copyright" : "Jeremy Edelblut",
        "generator" : "Khronos glTF Blender I/O v1.7.33",
        "version" : "2.0"
    },
    "scene" : 1,
    "scenes" : [
        {
            "name" : "FBX_Temp",
            "nodes" : [
                0
            ]
        },
        {
            "name" : "Scene",
            "nodes" : [
                1,
                2,
                3,
                4,
                5,
                6,
                7,
                8
            ]
        }
    ],
    "nodes" : [
        {
            "mesh" : 0,
            "name" : "3moji.064",
            "rotation" : [
                0,
                -0.7071068286895752,
                0,
                0.7071068286895752
            ]
        },
        {
            "mesh" : 1,
            "name" : "Circle.1927"
        },
        {
            "mesh" : 2,
            "name" : "Cube.6260"
        },
        {
            "mesh" : 3,
            "name" : "Cube.6261"
        },
        {
            "mesh" : 4,
            "name" : "Cube.6262"
        },
        {
            "mesh" : 5,
            "name" : "Cube.6263"
        },
        {
            "mesh" : 6,
            "name" : "Cylinder.365"
        },
        {
            "mesh" : 7,
            "name" : "Circle.1928"
        },
        {
            "mesh" : 8,
            "name" : "3moji.org.237"
        }
    ],
    "materials" : [
        {
            "doubleSided" : true,
            "name" : "color",
            "pbrMetallicRoughness" : {
                "baseColorTexture" : {
                    "index" : 0
                },
                "metallicFactor" : 0,
                "roughnessFactor" : 0.5
            }
        }
    ],
    "meshes" : [
        {
            "name" : "Cube.417",
            "primitives" : [
                {
                    "attributes" : {
                        "POSITION" : 0,
                        "NORMAL" : 1,
                        "TEXCOORD_0" : 2
                    },
                    "indices" : 3,
                    "material" : 0
                }
            ]
        },
        {
            "name" : "Circle.2144",
            "primitives" : [
                {
                    "attributes" : {
                        "POSITION" : 4,
                        "NORMAL" : 5,
                        "TEXCOORD_0" : 6
                    },
                    "indices" : 7,
                    "material" : 0
                }
            ]
        },
        {
            "name" : "Cube.7320",
            "primitives" : [
                {
                    "attributes" : {
                        "POSITION" : 8,
                        "NORMAL" : 9,
                        "TEXCOORD_0" : 10
                    },
                    "indices" : 11,
                    "material" : 0
                }
            ]
        },
        {
            "name" : "Cube.7321",
            "primitives" : [
                {
                    "attributes" : {
                        "POSITION" : 12,
                        "NORMAL" : 13,
                        "TEXCOORD_0" : 14
                    },
                    "indices" : 15,
                    "material" : 0
                }
            ]
        },
        {
            "name" : "Cube.7322",
            "primitives" : [
                {
                    "attributes" : {
                        "POSITION" : 16,
                        "NORMAL" : 17,
                        "TEXCOORD_0" : 18
                    },
                    "indices" : 19,
                    "material" : 0
                }
            ]
        },
        {
            "name" : "Cube.7323",
            "primitives" : [
                {
                    "attributes" : {
                        "POSITION" : 20,
                        "NORMAL" : 21,
                        "TEXCOORD_0" : 22
                    },
                    "indices" : 11,
                    "material" : 0
                }
            ]
        },
        {
            "name" : "Cylinder.352",
            "primitives" : [
                {
                    "attributes" : {
                        "POSITION" : 23,
                        "NORMAL" : 24,
                        "TEXCOORD_0" : 25
                    },
                    "indices" : 26,
                    "material" : 0
                }
            ]
        },
        {
            "name" : "Circle.2145",
            "primitives" : [
                {
                    "attributes" : {
                        "POSITION" : 27,
                        "NORMAL" : 28,
                        "TEXCOORD_0" : 29
                    },
                    "indices" : 30,
                    "material" : 0
                }
            ]
        },
        {
            "name" : "Cube.701",
            "primitives" : [
                {
                    "attributes" : {
                        "POSITION" : 31,
                        "NORMAL" : 32,
                        "TEXCOORD_0" : 33
                    },
                    "indices" : 34,
                    "material" : 0
                }
            ]
        }
    ],
    "textures" : [
        {
            "sampler" : 0,
            "source" : 0
        }
    ],
    "images" : [
        {
            "bufferView" : 4,
            "mimeType" : "image/png",
            "name" : "tex"
        }
    ],
    "accessors" : [
        {
            "bufferView" : 0,
            "componentType" : 5126,
            "count" : 752,
            "max" : [
                -0.8264395594596863,
                0.05719918757677078,
                0.13795676827430725
            ],
            "min" : [
                -0.8543609976768494,
                -0.014034310355782509,
                -0.12436223030090332
            ],
            "type" : "VEC3"
        },
        {
            "bufferView" : 1,
            "componentType" : 5126,
            "count" : 752,
            "type" : "VEC3"
        },
        {
            "bufferView" : 2,
            "componentType" : 5126,
            "count" : 752,
            "type" : "VEC2"
        },
        {
            "bufferView" : 3,
            "componentType" : 5123,
            "count" : 1680,
            "type" : "SCALAR"
        },
        {
            "bufferView" : 5,
            "componentType" : 5126,
            "count" : 644,
            "max" : [
                0.607090413570404,
                0.39154136180877686,
                0.3042200207710266
            ],
            "min" : [
                -0.607090413570404,
                0.005179998930543661,
                0.10418340563774109
            ],
            "type" : "VEC3"
        },
        {
            "bufferView" : 6,
            "componentType" : 5126,
            "count" : 644,
            "type" : "VEC3"
        },
        {
            "bufferView" : 7,
            "componentType" : 5126,
            "count" : 644,
            "type" : "VEC2"
        },
        {
            "bufferView" : 8,
            "componentType" : 5123,
            "count" : 2880,
            "type" : "SCALAR"
        },
        {
            "bufferView" : 9,
            "componentType" : 5126,
            "count" : 386,
            "max" : [
                1.2070367336273193,
                1.069360613822937,
                0.360876202583313
            ],
            "min" : [
                -1.2070367336273193,
                -1.1410882472991943,
                -2.0531973838806152
            ],
            "type" : "VEC3"
        },
        {
            "bufferView" : 10,
            "componentType" : 5126,
            "count" : 386,
            "type" : "VEC3"
        },
        {
            "bufferView" : 11,
            "componentType" : 5126,
            "count" : 386,
            "type" : "VEC2"
        },
        {
            "bufferView" : 12,
            "componentType" : 5123,
            "count" : 2304,
            "type" : "SCALAR"
        },
        {
            "bufferView" : 13,
            "componentType" : 5126,
            "count" : 209,
            "max" : [
                0.5950700640678406,
                -0.08051338791847229,
                0.6459167003631592
            ],
            "min" : [
                -0.5950700640678406,
                -0.8430705070495605,
                0.07562348246574402
            ],
            "type" : "VEC3"
        },
        {
            "bufferView" : 14,
            "componentType" : 5126,
            "count" : 209,
            "type" : "VEC3"
        },
        {
            "bufferView" : 15,
            "componentType" : 5126,
            "count" : 209,
            "type" : "VEC2"
        },
        {
            "bufferView" : 16,
            "componentType" : 5123,
            "count" : 1152,
            "type" : "SCALAR"
        },
        {
            "bufferView" : 17,
            "componentType" : 5126,
            "count" : 79,
            "max" : [
                0.3680853247642517,
                -0.732587993144989,
                0.3737863302230835
            ],
            "min" : [
                -0.3680853843688965,
                -0.9428339004516602,
                0.07994870096445084
            ],
            "type" : "VEC3"
        },
        {
            "bufferView" : 18,
            "componentType" : 5126,
            "count" : 79,
            "type" : "VEC3"
        },
        {
            "bufferView" : 19,
            "componentType" : 5126,
            "count" : 79,
            "type" : "VEC2"
        },
        {
            "bufferView" : 20,
            "componentType" : 5123,
            "count" : 384,
            "type" : "SCALAR"
        },
        {
            "bufferView" : 21,
            "componentType" : 5126,
            "count" : 386,
            "max" : [
                0.23843558132648468,
                -0.19356653094291687,
                0.6934494972229004
            ],
            "min" : [
                -0.23843567073345184,
                -0.5003941059112549,
                0.462219774723053
            ],
            "type" : "VEC3"
        },
        {
            "bufferView" : 22,
            "componentType" : 5126,
            "count" : 386,
            "type" : "VEC3"
        },
        {
            "bufferView" : 23,
            "componentType" : 5126,
            "count" : 386,
            "type" : "VEC2"
        },
        {
            "bufferView" : 24,
            "componentType" : 5126,
            "count" : 320,
            "max" : [
                1.0891056060791016,
                1.2639440298080444,
                -0.7039284110069275
            ],
            "min" : [
                -1.0891056060791016,
                0.38856059312820435,
                -0.9906188249588013
            ],
            "type" : "VEC3"
        },
        {
            "bufferView" : 25,
            "componentType" : 5126,
            "count" : 320,
            "type" : "VEC3"
        },
        {
            "bufferView" : 26,
            "componentType" : 5126,
            "count" : 320,
            "type" : "VEC2"
        },
        {
            "bufferView" : 27,
            "componentType" : 5123,
            "count" : 936,
            "type" : "SCALAR"
        },
        {
            "bufferView" : 28,
            "componentType" : 5126,
            "count" : 724,
            "max" : [
                0.9981851577758789,
                0.6501715779304504,
                0.35616815090179443
            ],
            "min" : [
                -0.9981851577758789,
                -0.4073532223701477,
                -0.20881563425064087
            ],
            "type" : "VEC3"
        },
        {
            "bufferView" : 29,
            "componentType" : 5126,
            "count" : 724,
            "type" : "VEC3"
        },
        {
            "bufferView" : 30,
            "componentType" : 5126,
            "count" : 724,
            "type" : "VEC2"
        },
        {
            "bufferView" : 31,
            "componentType" : 5123,
            "count" : 2880,
            "type" : "SCALAR"
        },
        {
            "bufferView" : 32,
            "componentType" : 5126,
            "count" : 752,
            "max" : [
                0.08792053163051605,
                -0.16729837656021118,
                -2.0352277755737305
            ],
            "min" : [
                -0.10334751009941101,
                -0.21920815110206604,
                -2.0469179153442383
            ],
            "type" : "VEC3"
        },
        {
            "bufferView" : 33,
            "componentType" : 5126,
            "count" : 752,
            "type" : "VEC3"
        },
        {
            "bufferView" : 34,
            "componentType" : 5126,
            "count" : 752,
            "type" : "VEC2"
        },
        {
            "bufferView" : 35,
            "componentType" : 5123,
            "count" : 1680,
            "type" : "SCALAR"
        }
    ],
    "bufferViews" : [
        {
            "buffer" : 0,
            "byteLength" : 9024,
            "byteOffset" : 0
        },
        {
            "buffer" : 0,
            "byteLength" : 9024,
            "byteOffset" : 9024
        },
        {
            "buffer" : 0,
            "byteLength" : 6016,
            "byteOffset" : 18048
        },
        {
            "buffer" : 0,
            "byteLength" : 3360,
            "byteOffset" : 24064
        },
        {
            "buffer" : 0,
            "byteLength" : 11997,
            "byteOffset" : 27424
        },
        {
            "buffer" : 0,
            "byteLength" : 7728,
            "byteOffset" : 39424
        },
        {
            "buffer" : 0,
            "byteLength" : 7728,
            "byteOffset" : 47152
        },
        {
            "buffer" : 0,
            "byteLength" : 5152,
            "byteOffset" : 54880
        },
        {
            "buffer" : 0,
            "byteLength" : 5760,
            "byteOffset" : 60032
        },
        {
            "buffer" : 0,
            "byteLength" : 4632,
            "byteOffset" : 65792
        },
        {
            "buffer" : 0,
            "byteLength" : 4632,
            "byteOffset" : 70424
        },
        {
            "buffer" : 0,
            "byteLength" : 3088,
            "byteOffset" : 75056
        },
        {
            "buffer" : 0,
            "byteLength" : 4608,
            "byteOffset" : 78144
        },
        {
            "buffer" : 0,
            "byteLength" : 2508,
            "byteOffset" : 82752
        },
        {
            "buffer" : 0,
            "byteLength" : 2508,
            "byteOffset" : 85260
        },
        {
            "buffer" : 0,
            "byteLength" : 1672,
            "byteOffset" : 87768
        },
        {
            "buffer" : 0,
            "byteLength" : 2304,
            "byteOffset" : 89440
        },
        {
            "buffer" : 0,
            "byteLength" : 948,
            "byteOffset" : 91744
        },
        {
            "buffer" : 0,
            "byteLength" : 948,
            "byteOffset" : 92692
        },
        {
            "buffer" : 0,
            "byteLength" : 632,
            "byteOffset" : 93640
        },
        {
            "buffer" : 0,
            "byteLength" : 768,
            "byteOffset" : 94272
        },
        {
            "buffer" : 0,
            "byteLength" : 4632,
            "byteOffset" : 95040
        },
        {
            "buffer" : 0,
            "byteLength" : 4632,
            "byteOffset" : 99672
        },
        {
            "buffer" : 0,
            "byteLength" : 3088,
            "byteOffset" : 104304
        },
        {
            "buffer" : 0,
            "byteLength" : 3840,
            "byteOffset" : 107392
        },
        {
            "buffer" : 0,
            "byteLength" : 3840,
            "byteOffset" : 111232
        },
        {
            "buffer" : 0,
            "byteLength" : 2560,
            "byteOffset" : 115072
        },
        {
            "buffer" : 0,
            "byteLength" : 1872,
            "byteOffset" : 117632
        },
        {
            "buffer" : 0,
            "byteLength" : 8688,
            "byteOffset" : 119504
        },
        {
            "buffer" : 0,
            "byteLength" : 8688,
            "byteOffset" : 128192
        },
        {
            "buffer" : 0,
            "byteLength" : 5792,
            "byteOffset" : 136880
        },
        {
            "buffer" : 0,
            "byteLength" : 5760,
            "byteOffset" : 142672
        },
        {
            "buffer" : 0,
            "byteLength" : 9024,
            "byteOffset" : 148432
        },
        {
            "buffer" : 0,
            "byteLength" : 9024,
            "byteOffset" : 157456
        },
        {
            "buffer" : 0,
            "byteLength" : 6016,
            "byteOffset" : 166480
        },
        {
            "buffer" : 0,
            "byteLength" : 3360,
            "byteOffset" : 172496
        }
    ],
    "samplers" : [
        {
            "magFilter" : 9729,
            "minFilter" : 9987
        }
    ],
    "buffers" : [
        {
            "byteLength" : 175856,
            "uri" : "data:application/octet-stream;base64,"
        }
    ]
}
