{
    "asset" : {
        "copyright" : "Jeremy Edelblut",
        "generator" : "Khronos glTF Blender I/O v1.6.16",
        "version" : "2.0"
    },
    "scene" : 0,
    "scenes" : [
        {
            "name" : "Scene",
            "nodes" : [
                0,
                1,
                2,
                3,
                4
            ]
        }
    ],
    "nodes" : [
        {
            "mesh" : 0,
            "name" : "Circle.1962"
        },
        {
            "mesh" : 1,
            "name" : "Cube.037",
            "scale" : [
                0.30000001192092896,
                0.30000001192092896,
                0.30000001192092896
            ],
            "translation" : [
                0,
                0.5050613880157471,
                0.3784315586090088
            ]
        },
        {
            "mesh" : 2,
            "name" : "Cube.038",
            "scale" : [
                0.30000001192092896,
                0.30000001192092896,
                0.30000001192092896
            ],
            "translation" : [
                0,
                0.5050613880157471,
                0.3784315586090088
            ]
        },
        {
            "mesh" : 3,
            "name" : "Cube.039",
            "scale" : [
                0.30000001192092896,
                0.30000001192092896,
                0.30000001192092896
            ],
            "translation" : [
                0,
                0.5050613880157471,
                0.3784315586090088
            ]
        },
        {
            "mesh" : 4,
            "name" : "Cylinder.149",
            "rotation" : [
                0,
                0,
                -0.7071067690849304,
                0.7071068286895752
            ],
            "scale" : [
                0.06048779562115669,
                0.06048779562115669,
                0.06048779562115669
            ],
            "translation" : [
                0,
                0.5642534494400024,
                0.45622682571411133
            ]
        }
    ],
    "materials" : [
        {
            "doubleSided" : true,
            "name" : "blond",
            "pbrMetallicRoughness" : {
                "baseColorFactor" : [
                    0.7873942852020264,
                    0.5489762425422668,
                    0.04593009129166603,
                    1
                ],
                "metallicFactor" : 0,
                "roughnessFactor" : 0.5
            }
        },
        {
            "doubleSided" : true,
            "name" : "Lightgreen",
            "pbrMetallicRoughness" : {
                "baseColorFactor" : [
                    0.2109217345714569,
                    0.42922651767730713,
                    0.04565680772066116,
                    1
                ],
                "metallicFactor" : 0,
                "roughnessFactor" : 0.5
            }
        },
        {
            "doubleSided" : true,
            "name" : "Red",
            "pbrMetallicRoughness" : {
                "baseColorFactor" : [
                    0.8000000715255737,
                    0.02731209248304367,
                    0.03797036036849022,
                    1
                ],
                "metallicFactor" : 0,
                "roughnessFactor" : 0.5
            }
        },
        {
            "doubleSided" : true,
            "name" : "DKgreen",
            "pbrMetallicRoughness" : {
                "baseColorFactor" : [
                    0.009797311387956142,
                    0.11926732957363129,
                    0.05048948526382446,
                    1
                ],
                "metallicFactor" : 0,
                "roughnessFactor" : 0.5
            }
        },
        {
            "doubleSided" : true,
            "name" : "DKBrown",
            "pbrMetallicRoughness" : {
                "baseColorFactor" : [
                    0.010021701455116272,
                    0.0023923655971884727,
                    0.0018060366855934262,
                    1
                ],
                "metallicFactor" : 0,
                "roughnessFactor" : 0.5
            }
        }
    ],
    "meshes" : [
        {
            "name" : "Circle.162",
            "primitives" : [
                {
                    "attributes" : {
                        "POSITION" : 0,
                        "NORMAL" : 1,
                        "TEXCOORD_0" : 2
                    },
                    "indices" : 3,
                    "material" : 0
                }
            ]
        },
        {
            "name" : "Cube.147",
            "primitives" : [
                {
                    "attributes" : {
                        "POSITION" : 4,
                        "NORMAL" : 5,
                        "TEXCOORD_0" : 6
                    },
                    "indices" : 7,
                    "material" : 1
                },
                {
                    "attributes" : {
                        "POSITION" : 8,
                        "NORMAL" : 9,
                        "TEXCOORD_0" : 10
                    },
                    "indices" : 11,
                    "material" : 2
                },
                {
                    "attributes" : {
                        "POSITION" : 12,
                        "NORMAL" : 13,
                        "TEXCOORD_0" : 14
                    },
                    "indices" : 15,
                    "material" : 3
                }
            ]
        },
        {
            "name" : "Cube.148",
            "primitives" : [
                {
                    "attributes" : {
                        "POSITION" : 16,
                        "NORMAL" : 17,
                        "TEXCOORD_0" : 18
                    },
                    "indices" : 19,
                    "material" : 3
                },
                {
                    "attributes" : {
                        "POSITION" : 20,
                        "NORMAL" : 21,
                        "TEXCOORD_0" : 22
                    },
                    "indices" : 23,
                    "material" : 2
                },
                {
                    "attributes" : {
                        "POSITION" : 24,
                        "NORMAL" : 25,
                        "TEXCOORD_0" : 26
                    },
                    "indices" : 27,
                    "material" : 1
                }
            ]
        },
        {
            "name" : "Cube.149",
            "primitives" : [
                {
                    "attributes" : {
                        "POSITION" : 28,
                        "NORMAL" : 29,
                        "TEXCOORD_0" : 30
                    },
                    "indices" : 31,
                    "material" : 0
                }
            ]
        },
        {
            "name" : "Cylinder.150",
            "primitives" : [
                {
                    "attributes" : {
                        "POSITION" : 32,
                        "NORMAL" : 33,
                        "TEXCOORD_0" : 34
                    },
                    "indices" : 35,
                    "material" : 4
                }
            ]
        }
    ],
    "accessors" : [
        {
            "bufferView" : 0,
            "componentType" : 5126,
            "count" : 304,
            "max" : [
                0.20479443669319153,
                -0.5475347638130188,
                0.33822840452194214
            ],
            "min" : [
                -0.20479443669319153,
                -0.7547292709350586,
                -0.013260617852210999
            ],
            "type" : "VEC3"
        },
        {
            "bufferView" : 1,
            "componentType" : 5126,
            "count" : 304,
            "type" : "VEC3"
        },
        {
            "bufferView" : 2,
            "componentType" : 5126,
            "count" : 304,
            "type" : "VEC2"
        },
        {
            "bufferView" : 3,
            "componentType" : 5123,
            "count" : 840,
            "type" : "SCALAR"
        },
        {
            "bufferView" : 4,
            "componentType" : 5126,
            "count" : 176,
            "max" : [
                0.800000011920929,
                -0.5457503795623779,
                0.8336995840072632
            ],
            "min" : [
                -0.800000011920929,
                -4.580033779144287,
                -4.242280006408691
            ],
            "type" : "VEC3"
        },
        {
            "bufferView" : 5,
            "componentType" : 5126,
            "count" : 176,
            "type" : "VEC3"
        },
        {
            "bufferView" : 6,
            "componentType" : 5126,
            "count" : 176,
            "type" : "VEC2"
        },
        {
            "bufferView" : 7,
            "componentType" : 5123,
            "count" : 648,
            "type" : "SCALAR"
        },
        {
            "bufferView" : 8,
            "componentType" : 5126,
            "count" : 28,
            "max" : [
                0.5014016628265381,
                -4.344381809234619,
                -4.003216743469238
            ],
            "min" : [
                -0.5014016628265381,
                -4.93506383895874,
                -4.615251541137695
            ],
            "type" : "VEC3"
        },
        {
            "bufferView" : 9,
            "componentType" : 5126,
            "count" : 28,
            "type" : "VEC3"
        },
        {
            "bufferView" : 10,
            "componentType" : 5126,
            "count" : 28,
            "type" : "VEC2"
        },
        {
            "bufferView" : 11,
            "componentType" : 5123,
            "count" : 48,
            "type" : "SCALAR"
        },
        {
            "bufferView" : 12,
            "componentType" : 5126,
            "count" : 70,
            "max" : [
                0.800000011920929,
                1,
                1.0000001192092896
            ],
            "min" : [
                -0.800000011920929,
                -1.0821853876113892,
                -1.0930172204971313
            ],
            "type" : "VEC3"
        },
        {
            "bufferView" : 13,
            "componentType" : 5126,
            "count" : 70,
            "type" : "VEC3"
        },
        {
            "bufferView" : 14,
            "componentType" : 5126,
            "count" : 70,
            "type" : "VEC2"
        },
        {
            "bufferView" : 15,
            "componentType" : 5123,
            "count" : 210,
            "type" : "SCALAR"
        },
        {
            "bufferView" : 16,
            "componentType" : 5126,
            "count" : 60,
            "max" : [
                0.9679145812988281,
                -1.7965036630630493,
                -0.20448344945907593
            ],
            "min" : [
                -0.9679145812988281,
                -3.2199745178222656,
                -2.141456127166748
            ],
            "type" : "VEC3"
        },
        {
            "bufferView" : 17,
            "componentType" : 5126,
            "count" : 60,
            "type" : "VEC3"
        },
        {
            "bufferView" : 18,
            "componentType" : 5126,
            "count" : 60,
            "type" : "VEC2"
        },
        {
            "bufferView" : 19,
            "componentType" : 5123,
            "count" : 144,
            "type" : "SCALAR"
        },
        {
            "bufferView" : 20,
            "componentType" : 5126,
            "count" : 48,
            "max" : [
                0.9679145216941833,
                -2.586045742034912,
                -0.9317494034767151
            ],
            "min" : [
                -0.9679145216941833,
                -3.4078550338745117,
                -2.659771680831909
            ],
            "type" : "VEC3"
        },
        {
            "bufferView" : 21,
            "componentType" : 5126,
            "count" : 48,
            "type" : "VEC3"
        },
        {
            "bufferView" : 22,
            "componentType" : 5126,
            "count" : 48,
            "type" : "VEC2"
        },
        {
            "bufferView" : 23,
            "componentType" : 5123,
            "count" : 96,
            "type" : "SCALAR"
        },
        {
            "bufferView" : 24,
            "componentType" : 5126,
            "count" : 112,
            "max" : [
                0.9679145216941833,
                -0.8464549779891968,
                0.20951341092586517
            ],
            "min" : [
                -0.9679145216941833,
                -2.5191335678100586,
                -1.7210841178894043
            ],
            "type" : "VEC3"
        },
        {
            "bufferView" : 25,
            "componentType" : 5126,
            "count" : 112,
            "type" : "VEC3"
        },
        {
            "bufferView" : 26,
            "componentType" : 5126,
            "count" : 112,
            "type" : "VEC2"
        },
        {
            "bufferView" : 27,
            "componentType" : 5123,
            "count" : 312,
            "type" : "SCALAR"
        },
        {
            "bufferView" : 28,
            "componentType" : 5126,
            "count" : 104,
            "max" : [
                0.23594288527965546,
                0.5102623701095581,
                1.5656338930130005
            ],
            "min" : [
                -0.23594288527965546,
                -0.5813298225402832,
                0.4165133833885193
            ],
            "type" : "VEC3"
        },
        {
            "bufferView" : 29,
            "componentType" : 5126,
            "count" : 104,
            "type" : "VEC3"
        },
        {
            "bufferView" : 30,
            "componentType" : 5126,
            "count" : 104,
            "type" : "VEC2"
        },
        {
            "bufferView" : 31,
            "componentType" : 5123,
            "count" : 240,
            "type" : "SCALAR"
        },
        {
            "bufferView" : 32,
            "componentType" : 5126,
            "count" : 66,
            "max" : [
                0.8999999761581421,
                4.256824970245361,
                0.8999997973442078
            ],
            "min" : [
                -0.9000000357627869,
                -4.256824970245361,
                -0.8999997973442078
            ],
            "type" : "VEC3"
        },
        {
            "bufferView" : 33,
            "componentType" : 5126,
            "count" : 66,
            "type" : "VEC3"
        },
        {
            "bufferView" : 34,
            "componentType" : 5126,
            "count" : 66,
            "type" : "VEC2"
        },
        {
            "bufferView" : 35,
            "componentType" : 5123,
            "count" : 180,
            "type" : "SCALAR"
        }
    ],
    "bufferViews" : [
        {
            "buffer" : 0,
            "byteLength" : 3648,
            "byteOffset" : 0
        },
        {
            "buffer" : 0,
            "byteLength" : 3648,
            "byteOffset" : 3648
        },
        {
            "buffer" : 0,
            "byteLength" : 2432,
            "byteOffset" : 7296
        },
        {
            "buffer" : 0,
            "byteLength" : 1680,
            "byteOffset" : 9728
        },
        {
            "buffer" : 0,
            "byteLength" : 2112,
            "byteOffset" : 11408
        },
        {
            "buffer" : 0,
            "byteLength" : 2112,
            "byteOffset" : 13520
        },
        {
            "buffer" : 0,
            "byteLength" : 1408,
            "byteOffset" : 15632
        },
        {
            "buffer" : 0,
            "byteLength" : 1296,
            "byteOffset" : 17040
        },
        {
            "buffer" : 0,
            "byteLength" : 336,
            "byteOffset" : 18336
        },
        {
            "buffer" : 0,
            "byteLength" : 336,
            "byteOffset" : 18672
        },
        {
            "buffer" : 0,
            "byteLength" : 224,
            "byteOffset" : 19008
        },
        {
            "buffer" : 0,
            "byteLength" : 96,
            "byteOffset" : 19232
        },
        {
            "buffer" : 0,
            "byteLength" : 840,
            "byteOffset" : 19328
        },
        {
            "buffer" : 0,
            "byteLength" : 840,
            "byteOffset" : 20168
        },
        {
            "buffer" : 0,
            "byteLength" : 560,
            "byteOffset" : 21008
        },
        {
            "buffer" : 0,
            "byteLength" : 420,
            "byteOffset" : 21568
        },
        {
            "buffer" : 0,
            "byteLength" : 720,
            "byteOffset" : 21988
        },
        {
            "buffer" : 0,
            "byteLength" : 720,
            "byteOffset" : 22708
        },
        {
            "buffer" : 0,
            "byteLength" : 480,
            "byteOffset" : 23428
        },
        {
            "buffer" : 0,
            "byteLength" : 288,
            "byteOffset" : 23908
        },
        {
            "buffer" : 0,
            "byteLength" : 576,
            "byteOffset" : 24196
        },
        {
            "buffer" : 0,
            "byteLength" : 576,
            "byteOffset" : 24772
        },
        {
            "buffer" : 0,
            "byteLength" : 384,
            "byteOffset" : 25348
        },
        {
            "buffer" : 0,
            "byteLength" : 192,
            "byteOffset" : 25732
        },
        {
            "buffer" : 0,
            "byteLength" : 1344,
            "byteOffset" : 25924
        },
        {
            "buffer" : 0,
            "byteLength" : 1344,
            "byteOffset" : 27268
        },
        {
            "buffer" : 0,
            "byteLength" : 896,
            "byteOffset" : 28612
        },
        {
            "buffer" : 0,
            "byteLength" : 624,
            "byteOffset" : 29508
        },
        {
            "buffer" : 0,
            "byteLength" : 1248,
            "byteOffset" : 30132
        },
        {
            "buffer" : 0,
            "byteLength" : 1248,
            "byteOffset" : 31380
        },
        {
            "buffer" : 0,
            "byteLength" : 832,
            "byteOffset" : 32628
        },
        {
            "buffer" : 0,
            "byteLength" : 480,
            "byteOffset" : 33460
        },
        {
            "buffer" : 0,
            "byteLength" : 792,
            "byteOffset" : 33940
        },
        {
            "buffer" : 0,
            "byteLength" : 792,
            "byteOffset" : 34732
        },
        {
            "buffer" : 0,
            "byteLength" : 528,
            "byteOffset" : 35524
        },
        {
            "buffer" : 0,
            "byteLength" : 360,
            "byteOffset" : 36052
        }
    ],
    "buffers" : [
        {
            "byteLength" : 36412,
            "uri" : "data:application/octet-stream;base64,"
        }
    ]
}
