{
    "asset" : {
        "copyright" : "Jeremy Edelblut",
        "generator" : "Khronos glTF Blender I/O v1.6.16",
        "version" : "2.0"
    },
    "scene" : 0,
    "scenes" : [
        {
            "name" : "Scene",
            "nodes" : [
                0,
                1,
                2,
                3
            ]
        }
    ],
    "nodes" : [
        {
            "mesh" : 0,
            "name" : "Cube.766",
            "scale" : [
                0.5741119384765625,
                0.5741119384765625,
                0.3444671630859375
            ],
            "translation" : [
                0.5282993912696838,
                -0.3532271981239319,
                0
            ]
        },
        {
            "mesh" : 1,
            "name" : "Cube.767",
            "scale" : [
                0.2687992453575134,
                0.2687992453575134,
                0.2687992453575134
            ],
            "translation" : [
                0.1338231861591339,
                -0.04189281165599823,
                0
            ]
        },
        {
            "mesh" : 2,
            "name" : "Cube.768",
            "scale" : [
                0.5741119384765625,
                0.5741119384765625,
                0.3444671630859375
            ],
            "translation" : [
                0.5282993912696838,
                -0.3532271981239319,
                0
            ]
        },
        {
            "mesh" : 3,
            "name" : "Cube.769",
            "scale" : [
                0.22917495667934418,
                0.22917495667934418,
                0.22917495667934418
            ],
            "translation" : [
                0.1338231861591339,
                0.2554609179496765,
                0
            ]
        }
    ],
    "materials" : [
        {
            "doubleSided" : true,
            "name" : "Color",
            "pbrMetallicRoughness" : {
                "baseColorTexture" : {
                    "index" : 0
                },
                "metallicFactor" : 0,
                "roughnessFactor" : 0.5
            }
        }
    ],
    "meshes" : [
        {
            "name" : "Cube.7566",
            "primitives" : [
                {
                    "attributes" : {
                        "POSITION" : 0,
                        "NORMAL" : 1,
                        "TEXCOORD_0" : 2
                    },
                    "indices" : 3,
                    "material" : 0
                }
            ]
        },
        {
            "name" : "Cube.7567",
            "primitives" : [
                {
                    "attributes" : {
                        "POSITION" : 4,
                        "NORMAL" : 5,
                        "TEXCOORD_0" : 6
                    },
                    "indices" : 7,
                    "material" : 0
                }
            ]
        },
        {
            "name" : "Cube.7568",
            "primitives" : [
                {
                    "attributes" : {
                        "POSITION" : 8,
                        "NORMAL" : 9,
                        "TEXCOORD_0" : 10
                    },
                    "indices" : 11,
                    "material" : 0
                }
            ]
        },
        {
            "name" : "Cube.7569",
            "primitives" : [
                {
                    "attributes" : {
                        "POSITION" : 12,
                        "NORMAL" : 13,
                        "TEXCOORD_0" : 14
                    },
                    "indices" : 15,
                    "material" : 0
                }
            ]
        }
    ],
    "textures" : [
        {
            "sampler" : 0,
            "source" : 0
        }
    ],
    "images" : [
        {
            "bufferView" : 4,
            "mimeType" : "image/png",
            "name" : "tex"
        }
    ],
    "accessors" : [
        {
            "bufferView" : 0,
            "componentType" : 5126,
            "count" : 725,
            "max" : [
                1.0919628143310547,
                0.4550926089286804,
                1.1099965572357178
            ],
            "min" : [
                -3.004603624343872,
                -0.34591808915138245,
                -1.1099965572357178
            ],
            "type" : "VEC3"
        },
        {
            "bufferView" : 1,
            "componentType" : 5126,
            "count" : 725,
            "type" : "VEC3"
        },
        {
            "bufferView" : 2,
            "componentType" : 5126,
            "count" : 725,
            "type" : "VEC2"
        },
        {
            "bufferView" : 3,
            "componentType" : 5123,
            "count" : 2238,
            "type" : "SCALAR"
        },
        {
            "bufferView" : 5,
            "componentType" : 5126,
            "count" : 918,
            "max" : [
                3.4331114292144775,
                2.1077113151550293,
                1.1022776365280151
            ],
            "min" : [
                -3.476210117340088,
                -0.5324097275733948,
                -1.102500557899475
            ],
            "type" : "VEC3"
        },
        {
            "bufferView" : 6,
            "componentType" : 5126,
            "count" : 918,
            "type" : "VEC3"
        },
        {
            "bufferView" : 7,
            "componentType" : 5126,
            "count" : 918,
            "type" : "VEC2"
        },
        {
            "bufferView" : 8,
            "componentType" : 5123,
            "count" : 1608,
            "type" : "SCALAR"
        },
        {
            "bufferView" : 9,
            "componentType" : 5126,
            "count" : 216,
            "max" : [
                1.1319591999053955,
                0.5037369728088379,
                1.1499379873275757
            ],
            "min" : [
                -3.0446035861968994,
                0.4550926089286804,
                -1.1499379873275757
            ],
            "type" : "VEC3"
        },
        {
            "bufferView" : 10,
            "componentType" : 5126,
            "count" : 216,
            "type" : "VEC3"
        },
        {
            "bufferView" : 11,
            "componentType" : 5126,
            "count" : 216,
            "type" : "VEC2"
        },
        {
            "bufferView" : 12,
            "componentType" : 5123,
            "count" : 624,
            "type" : "SCALAR"
        },
        {
            "bufferView" : 13,
            "componentType" : 5126,
            "count" : 106,
            "max" : [
                2.8792145252227783,
                1.0407428741455078,
                0.8839638829231262
            ],
            "min" : [
                1.514734148979187,
                0.09587374329566956,
                -0.8839638829231262
            ],
            "type" : "VEC3"
        },
        {
            "bufferView" : 14,
            "componentType" : 5126,
            "count" : 106,
            "type" : "VEC3"
        },
        {
            "bufferView" : 15,
            "componentType" : 5126,
            "count" : 106,
            "type" : "VEC2"
        },
        {
            "bufferView" : 16,
            "componentType" : 5123,
            "count" : 204,
            "type" : "SCALAR"
        }
    ],
    "bufferViews" : [
        {
            "buffer" : 0,
            "byteLength" : 8700,
            "byteOffset" : 0
        },
        {
            "buffer" : 0,
            "byteLength" : 8700,
            "byteOffset" : 8700
        },
        {
            "buffer" : 0,
            "byteLength" : 5800,
            "byteOffset" : 17400
        },
        {
            "buffer" : 0,
            "byteLength" : 4476,
            "byteOffset" : 23200
        },
        {
            "buffer" : 0,
            "byteLength" : 3214,
            "byteOffset" : 27676
        },
        {
            "buffer" : 0,
            "byteLength" : 11016,
            "byteOffset" : 30892
        },
        {
            "buffer" : 0,
            "byteLength" : 11016,
            "byteOffset" : 41908
        },
        {
            "buffer" : 0,
            "byteLength" : 7344,
            "byteOffset" : 52924
        },
        {
            "buffer" : 0,
            "byteLength" : 3216,
            "byteOffset" : 60268
        },
        {
            "buffer" : 0,
            "byteLength" : 2592,
            "byteOffset" : 63484
        },
        {
            "buffer" : 0,
            "byteLength" : 2592,
            "byteOffset" : 66076
        },
        {
            "buffer" : 0,
            "byteLength" : 1728,
            "byteOffset" : 68668
        },
        {
            "buffer" : 0,
            "byteLength" : 1248,
            "byteOffset" : 70396
        },
        {
            "buffer" : 0,
            "byteLength" : 1272,
            "byteOffset" : 71644
        },
        {
            "buffer" : 0,
            "byteLength" : 1272,
            "byteOffset" : 72916
        },
        {
            "buffer" : 0,
            "byteLength" : 848,
            "byteOffset" : 74188
        },
        {
            "buffer" : 0,
            "byteLength" : 408,
            "byteOffset" : 75036
        }
    ],
    "samplers" : [
        {
            "magFilter" : 9729,
            "minFilter" : 9987
        }
    ],
    "buffers" : [
        {
            "byteLength" : 75444,
            "uri" : "data:application/octet-stream;base64,"
        }
    ]
}
