{
    "asset" : {
        "copyright" : "Jeremy Edelblut",
        "generator" : "Khronos glTF Blender I/O v1.7.33",
        "version" : "2.0"
    },
    "scene" : 0,
    "scenes" : [
        {
            "name" : "Scene",
            "nodes" : [
                0
            ]
        }
    ],
    "nodes" : [
        {
            "mesh" : 0,
            "name" : "Cube.110",
            "rotation" : [
                0,
                0.3826833963394165,
                0,
                0.9238795638084412
            ],
            "scale" : [
                0.6223997473716736,
                0.6223997473716736,
                0.6223997473716736
            ],
            "translation" : [
                -0.1173262745141983,
                -1.0187712907791138,
                0
            ]
        }
    ],
    "materials" : [
        {
            "doubleSided" : true,
            "name" : "color",
            "pbrMetallicRoughness" : {
                "baseColorTexture" : {
                    "index" : 0
                },
                "metallicFactor" : 0,
                "roughnessFactor" : 0.5
            }
        }
    ],
    "meshes" : [
        {
            "name" : "Cube.7354",
            "primitives" : [
                {
                    "attributes" : {
                        "POSITION" : 0,
                        "NORMAL" : 1,
                        "TEXCOORD_0" : 2
                    },
                    "indices" : 3,
                    "material" : 0
                }
            ]
        }
    ],
    "textures" : [
        {
            "sampler" : 0,
            "source" : 0
        }
    ],
    "images" : [
        {
            "bufferView" : 4,
            "mimeType" : "image/png",
            "name" : "tex"
        }
    ],
    "accessors" : [
        {
            "bufferView" : 0,
            "componentType" : 5126,
            "count" : 1225,
            "max" : [
                1.24150550365448,
                3.4029674530029297,
                0.7752810120582581
            ],
            "min" : [
                -0.6728837490081787,
                -0.15476736426353455,
                -0.7752810120582581
            ],
            "type" : "VEC3"
        },
        {
            "bufferView" : 1,
            "componentType" : 5126,
            "count" : 1225,
            "type" : "VEC3"
        },
        {
            "bufferView" : 2,
            "componentType" : 5126,
            "count" : 1225,
            "type" : "VEC2"
        },
        {
            "bufferView" : 3,
            "componentType" : 5123,
            "count" : 3372,
            "type" : "SCALAR"
        }
    ],
    "bufferViews" : [
        {
            "buffer" : 0,
            "byteLength" : 14700,
            "byteOffset" : 0
        },
        {
            "buffer" : 0,
            "byteLength" : 14700,
            "byteOffset" : 14700
        },
        {
            "buffer" : 0,
            "byteLength" : 9800,
            "byteOffset" : 29400
        },
        {
            "buffer" : 0,
            "byteLength" : 6744,
            "byteOffset" : 39200
        },
        {
            "buffer" : 0,
            "byteLength" : 11997,
            "byteOffset" : 45944
        }
    ],
    "samplers" : [
        {
            "magFilter" : 9729,
            "minFilter" : 9987
        }
    ],
    "buffers" : [
        {
            "byteLength" : 57944,
            "uri" : "data:application/octet-stream;base64,"
        }
    ]
}
