{
    "asset" : {
        "copyright" : "Jeremy Edelblut",
        "generator" : "Khronos glTF Blender I/O v1.6.16",
        "version" : "2.0"
    },
    "scene" : 0,
    "scenes" : [
        {
            "name" : "Scene",
            "nodes" : [
                0,
                1,
                2,
                3,
                4,
                5,
                6
            ]
        }
    ],
    "nodes" : [
        {
            "mesh" : 0,
            "name" : "Circle.214",
            "rotation" : [
                0.5,
                0.5,
                -0.5,
                0.4999999701976776
            ],
            "scale" : [
                2.706974744796753,
                2.706974744796753,
                2.706974744796753
            ],
            "translation" : [
                -0.18221737444400787,
                -0.7277795076370239,
                0.00121211726218462
            ]
        },
        {
            "mesh" : 1,
            "name" : "Circle.215",
            "rotation" : [
                0.5,
                0.5,
                -0.5,
                0.4999999701976776
            ],
            "scale" : [
                2.706974744796753,
                2.706974744796753,
                2.706974744796753
            ],
            "translation" : [
                -0.18221737444400787,
                -0.7277795076370239,
                0.00121211726218462
            ]
        },
        {
            "mesh" : 2,
            "name" : "Cylinder.008",
            "scale" : [
                0.7010374069213867,
                0.7010374069213867,
                0.7010374069213867
            ],
            "translation" : [
                -0.18221737444400787,
                -0.7277795076370239,
                0.004702803213149309
            ]
        },
        {
            "mesh" : 3,
            "name" : "Circle.216",
            "rotation" : [
                0.5,
                0.5,
                -0.5,
                0.4999999701976776
            ],
            "translation" : [
                0,
                0,
                -0.0012895155232399702
            ]
        },
        {
            "mesh" : 4,
            "name" : "Cube.041",
            "rotation" : [
                0.039601460099220276,
                -0.0795176774263382,
                -0.17796066403388977,
                0.980019748210907
            ],
            "scale" : [
                0.10293129086494446,
                0.10293138027191162,
                0.10293129831552505
            ],
            "translation" : [
                0.3794896900653839,
                0.76698237657547,
                -0.19301585853099823
            ]
        },
        {
            "mesh" : 5,
            "name" : "Roundcube.001",
            "scale" : [
                0.7010374069213867,
                0.7010374069213867,
                0.7010374069213867
            ],
            "translation" : [
                -0.18221737444400787,
                -0.7277795076370239,
                0.004702803213149309
            ]
        },
        {
            "mesh" : 6,
            "name" : "Sphere.028",
            "scale" : [
                0.5,
                0.5,
                0.5
            ],
            "translation" : [
                -0.39578449726104736,
                -1.1265023946762085,
                0
            ]
        }
    ],
    "materials" : [
        {
            "doubleSided" : true,
            "name" : "DKBrown",
            "pbrMetallicRoughness" : {
                "baseColorFactor" : [
                    0.010021701455116272,
                    0.0023923655971884727,
                    0.0018060366855934262,
                    1
                ],
                "metallicFactor" : 0,
                "roughnessFactor" : 0.5
            }
        },
        {
            "doubleSided" : true,
            "name" : "Light_Brown",
            "pbrMetallicRoughness" : {
                "baseColorFactor" : [
                    0.3613067865371704,
                    0.15896087884902954,
                    0.013702086172997952,
                    1
                ],
                "metallicFactor" : 0,
                "roughnessFactor" : 0.5
            }
        },
        {
            "doubleSided" : true,
            "name" : "Yellow_body",
            "pbrMetallicRoughness" : {
                "baseColorTexture" : {
                    "index" : 0
                },
                "metallicFactor" : 0,
                "roughnessFactor" : 0.5
            }
        },
        {
            "doubleSided" : true,
            "name" : "Brown",
            "pbrMetallicRoughness" : {
                "baseColorFactor" : [
                    0.07322511821985245,
                    0.02384052984416485,
                    0.021921303123235703,
                    1
                ],
                "metallicFactor" : 0,
                "roughnessFactor" : 0.5
            }
        },
        {
            "doubleSided" : true,
            "name" : "dkblue",
            "pbrMetallicRoughness" : {
                "baseColorFactor" : [
                    0.015741879120469093,
                    0.18322162330150604,
                    0.8000000715255737,
                    1
                ],
                "metallicFactor" : 0,
                "roughnessFactor" : 0.5
            }
        }
    ],
    "meshes" : [
        {
            "name" : "Circle.428",
            "primitives" : [
                {
                    "attributes" : {
                        "POSITION" : 0,
                        "NORMAL" : 1,
                        "TEXCOORD_0" : 2
                    },
                    "indices" : 3,
                    "material" : 0
                }
            ]
        },
        {
            "name" : "Circle.429",
            "primitives" : [
                {
                    "attributes" : {
                        "POSITION" : 4,
                        "NORMAL" : 5,
                        "TEXCOORD_0" : 6
                    },
                    "indices" : 7,
                    "material" : 1
                }
            ]
        },
        {
            "name" : "Cylinder.039",
            "primitives" : [
                {
                    "attributes" : {
                        "POSITION" : 8,
                        "NORMAL" : 9
                    },
                    "indices" : 10,
                    "material" : 2
                }
            ]
        },
        {
            "name" : "Circle.430",
            "primitives" : [
                {
                    "attributes" : {
                        "POSITION" : 11,
                        "NORMAL" : 12,
                        "TEXCOORD_0" : 13
                    },
                    "indices" : 14,
                    "material" : 3
                }
            ]
        },
        {
            "name" : "Cube.640",
            "primitives" : [
                {
                    "attributes" : {
                        "POSITION" : 15,
                        "NORMAL" : 16
                    },
                    "indices" : 17,
                    "material" : 3
                }
            ]
        },
        {
            "name" : "Roundcube.037",
            "primitives" : [
                {
                    "attributes" : {
                        "POSITION" : 18,
                        "NORMAL" : 19,
                        "TEXCOORD_0" : 20
                    },
                    "indices" : 21,
                    "material" : 2
                },
                {
                    "attributes" : {
                        "POSITION" : 22,
                        "NORMAL" : 23,
                        "TEXCOORD_0" : 24
                    },
                    "indices" : 25,
                    "material" : 3
                },
                {
                    "attributes" : {
                        "POSITION" : 26,
                        "NORMAL" : 27,
                        "TEXCOORD_0" : 28
                    },
                    "indices" : 29,
                    "material" : 0
                }
            ]
        },
        {
            "name" : "Sphere.026",
            "primitives" : [
                {
                    "attributes" : {
                        "POSITION" : 30,
                        "NORMAL" : 31,
                        "TEXCOORD_0" : 32
                    },
                    "indices" : 33,
                    "material" : 4
                }
            ]
        }
    ],
    "textures" : [
        {
            "sampler" : 0,
            "source" : 0
        }
    ],
    "images" : [
        {
            "bufferView" : 11,
            "mimeType" : "image/png",
            "name" : "Rectangle 863"
        }
    ],
    "accessors" : [
        {
            "bufferView" : 0,
            "componentType" : 5126,
            "count" : 1476,
            "max" : [
                0.1315014660358429,
                0.2836717367172241,
                -0.2951126992702484
            ],
            "min" : [
                -0.1315014660358429,
                0.24636287987232208,
                -0.38651570677757263
            ],
            "type" : "VEC3"
        },
        {
            "bufferView" : 1,
            "componentType" : 5126,
            "count" : 1476,
            "type" : "VEC3"
        },
        {
            "bufferView" : 2,
            "componentType" : 5126,
            "count" : 1476,
            "type" : "VEC2"
        },
        {
            "bufferView" : 3,
            "componentType" : 5123,
            "count" : 6912,
            "type" : "SCALAR"
        },
        {
            "bufferView" : 4,
            "componentType" : 5126,
            "count" : 442,
            "max" : [
                0.0257102083414793,
                0.2893408536911011,
                -0.2617069482803345
            ],
            "min" : [
                -0.024069136008620262,
                0.276211142539978,
                -0.2908790707588196
            ],
            "type" : "VEC3"
        },
        {
            "bufferView" : 5,
            "componentType" : 5126,
            "count" : 442,
            "type" : "VEC3"
        },
        {
            "bufferView" : 6,
            "componentType" : 5126,
            "count" : 442,
            "type" : "VEC2"
        },
        {
            "bufferView" : 7,
            "componentType" : 5123,
            "count" : 1824,
            "type" : "SCALAR"
        },
        {
            "bufferView" : 8,
            "componentType" : 5126,
            "count" : 1924,
            "max" : [
                0.11132793873548508,
                1.5957368612289429,
                1.2506803274154663
            ],
            "min" : [
                -0.2704695463180542,
                0.9459746479988098,
                -1.2506803274154663
            ],
            "type" : "VEC3"
        },
        {
            "bufferView" : 9,
            "componentType" : 5126,
            "count" : 1924,
            "type" : "VEC3"
        },
        {
            "bufferView" : 10,
            "componentType" : 5123,
            "count" : 11520,
            "type" : "SCALAR"
        },
        {
            "bufferView" : 12,
            "componentType" : 5126,
            "count" : 300,
            "max" : [
                0.41538816690444946,
                0.5354372262954712,
                -0.3105189800262451
            ],
            "min" : [
                -0.41538816690444946,
                0.4103906452655792,
                -0.4609239399433136
            ],
            "type" : "VEC3"
        },
        {
            "bufferView" : 13,
            "componentType" : 5126,
            "count" : 300,
            "type" : "VEC3"
        },
        {
            "bufferView" : 14,
            "componentType" : 5126,
            "count" : 300,
            "type" : "VEC2"
        },
        {
            "bufferView" : 15,
            "componentType" : 5123,
            "count" : 1152,
            "type" : "SCALAR"
        },
        {
            "bufferView" : 16,
            "componentType" : 5126,
            "count" : 1310,
            "max" : [
                4.520009517669678,
                2.3577895164489746,
                10.701292037963867
            ],
            "min" : [
                -11.295105934143066,
                -10.524087905883789,
                -4.471558094024658
            ],
            "type" : "VEC3"
        },
        {
            "bufferView" : 17,
            "componentType" : 5126,
            "count" : 1310,
            "type" : "VEC3"
        },
        {
            "bufferView" : 18,
            "componentType" : 5123,
            "count" : 3132,
            "type" : "SCALAR"
        },
        {
            "bufferView" : 19,
            "componentType" : 5126,
            "count" : 1013,
            "max" : [
                1.0838792324066162,
                2.283376693725586,
                1.022315263748169
            ],
            "min" : [
                -1.0068833827972412,
                -0.14416667819023132,
                -1.022315263748169
            ],
            "type" : "VEC3"
        },
        {
            "bufferView" : 20,
            "componentType" : 5126,
            "count" : 1013,
            "type" : "VEC3"
        },
        {
            "bufferView" : 21,
            "componentType" : 5126,
            "count" : 1013,
            "type" : "VEC2"
        },
        {
            "bufferView" : 22,
            "componentType" : 5123,
            "count" : 4686,
            "type" : "SCALAR"
        },
        {
            "bufferView" : 23,
            "componentType" : 5126,
            "count" : 200,
            "max" : [
                -0.2445644587278366,
                1.884443759918213,
                1.0005757808685303
            ],
            "min" : [
                -1.0794986486434937,
                0.8253325819969177,
                -1.0005757808685303
            ],
            "type" : "VEC3"
        },
        {
            "bufferView" : 24,
            "componentType" : 5126,
            "count" : 200,
            "type" : "VEC3"
        },
        {
            "bufferView" : 25,
            "componentType" : 5126,
            "count" : 200,
            "type" : "VEC2"
        },
        {
            "bufferView" : 26,
            "componentType" : 5123,
            "count" : 930,
            "type" : "SCALAR"
        },
        {
            "bufferView" : 27,
            "componentType" : 5126,
            "count" : 185,
            "max" : [
                1.027938961982727,
                0.848211944103241,
                0.24323198199272156
            ],
            "min" : [
                0.9083658456802368,
                0.681912899017334,
                -0.25407153367996216
            ],
            "type" : "VEC3"
        },
        {
            "bufferView" : 28,
            "componentType" : 5126,
            "count" : 185,
            "type" : "VEC3"
        },
        {
            "bufferView" : 29,
            "componentType" : 5126,
            "count" : 185,
            "type" : "VEC2"
        },
        {
            "bufferView" : 30,
            "componentType" : 5123,
            "count" : 660,
            "type" : "SCALAR"
        },
        {
            "bufferView" : 31,
            "componentType" : 5126,
            "count" : 428,
            "max" : [
                1.000000238418579,
                1,
                1.3000004291534424
            ],
            "min" : [
                -1.000000238418579,
                -0.5453766584396362,
                -1.3000004291534424
            ],
            "type" : "VEC3"
        },
        {
            "bufferView" : 32,
            "componentType" : 5126,
            "count" : 428,
            "type" : "VEC3"
        },
        {
            "bufferView" : 33,
            "componentType" : 5126,
            "count" : 428,
            "type" : "VEC2"
        },
        {
            "bufferView" : 34,
            "componentType" : 5123,
            "count" : 1740,
            "type" : "SCALAR"
        }
    ],
    "bufferViews" : [
        {
            "buffer" : 0,
            "byteLength" : 17712,
            "byteOffset" : 0
        },
        {
            "buffer" : 0,
            "byteLength" : 17712,
            "byteOffset" : 17712
        },
        {
            "buffer" : 0,
            "byteLength" : 11808,
            "byteOffset" : 35424
        },
        {
            "buffer" : 0,
            "byteLength" : 13824,
            "byteOffset" : 47232
        },
        {
            "buffer" : 0,
            "byteLength" : 5304,
            "byteOffset" : 61056
        },
        {
            "buffer" : 0,
            "byteLength" : 5304,
            "byteOffset" : 66360
        },
        {
            "buffer" : 0,
            "byteLength" : 3536,
            "byteOffset" : 71664
        },
        {
            "buffer" : 0,
            "byteLength" : 3648,
            "byteOffset" : 75200
        },
        {
            "buffer" : 0,
            "byteLength" : 23088,
            "byteOffset" : 78848
        },
        {
            "buffer" : 0,
            "byteLength" : 23088,
            "byteOffset" : 101936
        },
        {
            "buffer" : 0,
            "byteLength" : 23040,
            "byteOffset" : 125024
        },
        {
            "buffer" : 0,
            "byteLength" : 85292,
            "byteOffset" : 148064
        },
        {
            "buffer" : 0,
            "byteLength" : 3600,
            "byteOffset" : 233356
        },
        {
            "buffer" : 0,
            "byteLength" : 3600,
            "byteOffset" : 236956
        },
        {
            "buffer" : 0,
            "byteLength" : 2400,
            "byteOffset" : 240556
        },
        {
            "buffer" : 0,
            "byteLength" : 2304,
            "byteOffset" : 242956
        },
        {
            "buffer" : 0,
            "byteLength" : 15720,
            "byteOffset" : 245260
        },
        {
            "buffer" : 0,
            "byteLength" : 15720,
            "byteOffset" : 260980
        },
        {
            "buffer" : 0,
            "byteLength" : 6264,
            "byteOffset" : 276700
        },
        {
            "buffer" : 0,
            "byteLength" : 12156,
            "byteOffset" : 282964
        },
        {
            "buffer" : 0,
            "byteLength" : 12156,
            "byteOffset" : 295120
        },
        {
            "buffer" : 0,
            "byteLength" : 8104,
            "byteOffset" : 307276
        },
        {
            "buffer" : 0,
            "byteLength" : 9372,
            "byteOffset" : 315380
        },
        {
            "buffer" : 0,
            "byteLength" : 2400,
            "byteOffset" : 324752
        },
        {
            "buffer" : 0,
            "byteLength" : 2400,
            "byteOffset" : 327152
        },
        {
            "buffer" : 0,
            "byteLength" : 1600,
            "byteOffset" : 329552
        },
        {
            "buffer" : 0,
            "byteLength" : 1860,
            "byteOffset" : 331152
        },
        {
            "buffer" : 0,
            "byteLength" : 2220,
            "byteOffset" : 333012
        },
        {
            "buffer" : 0,
            "byteLength" : 2220,
            "byteOffset" : 335232
        },
        {
            "buffer" : 0,
            "byteLength" : 1480,
            "byteOffset" : 337452
        },
        {
            "buffer" : 0,
            "byteLength" : 1320,
            "byteOffset" : 338932
        },
        {
            "buffer" : 0,
            "byteLength" : 5136,
            "byteOffset" : 340252
        },
        {
            "buffer" : 0,
            "byteLength" : 5136,
            "byteOffset" : 345388
        },
        {
            "buffer" : 0,
            "byteLength" : 3424,
            "byteOffset" : 350524
        },
        {
            "buffer" : 0,
            "byteLength" : 3480,
            "byteOffset" : 353948
        }
    ],
    "samplers" : [
        {
            "magFilter" : 9729,
            "minFilter" : 9987
        }
    ],
    "buffers" : [
        {
            "byteLength" : 357428,
            "uri" : "data:application/octet-stream;base64,"
        }
    ]
}
