{
    "asset" : {
        "copyright" : "Jeremy Edelblut",
        "generator" : "Khronos glTF Blender I/O v1.6.16",
        "version" : "2.0"
    },
    "scene" : 0,
    "scenes" : [
        {
            "name" : "Scene",
            "nodes" : [
                0,
                1,
                2,
                3,
                4,
                5
            ]
        }
    ],
    "nodes" : [
        {
            "mesh" : 0,
            "name" : "Circle.852",
            "rotation" : [
                0.5,
                0.5,
                -0.5,
                0.4999999701976776
            ],
            "scale" : [
                2.706974744796753,
                2.706974744796753,
                2.706974744796753
            ],
            "translation" : [
                -0.18221737444400787,
                -1.0255345106124878,
                0.00121211726218462
            ]
        },
        {
            "mesh" : 1,
            "name" : "Circle.853",
            "rotation" : [
                0.5,
                0.5,
                -0.5,
                0.4999999701976776
            ],
            "scale" : [
                2.706974744796753,
                2.706974744796753,
                2.706974744796753
            ],
            "translation" : [
                -0.18221737444400787,
                -1.0255345106124878,
                0.00121211726218462
            ]
        },
        {
            "mesh" : 2,
            "name" : "Cylinder.138",
            "scale" : [
                0.7010374069213867,
                0.7010374069213867,
                0.7010374069213867
            ],
            "translation" : [
                -0.18221737444400787,
                -1.0255345106124878,
                0.004702803213149309
            ]
        },
        {
            "mesh" : 3,
            "name" : "Roundcube.168",
            "scale" : [
                0.7010374069213867,
                0.7010374069213867,
                0.7010374069213867
            ],
            "translation" : [
                -0.18221737444400787,
                -1.0255345106124878,
                0.004702803213149309
            ]
        },
        {
            "mesh" : 4,
            "name" : "Circle.854",
            "rotation" : [
                0.5,
                0.5,
                -0.5,
                0.4999999701976776
            ],
            "translation" : [
                0,
                -0.2977549135684967,
                -0.0012895155232399702
            ]
        },
        {
            "mesh" : 5,
            "name" : "Sphere.140",
            "translation" : [
                0,
                -0.2977549135684967,
                0
            ]
        }
    ],
    "materials" : [
        {
            "doubleSided" : true,
            "name" : "DKBrown",
            "pbrMetallicRoughness" : {
                "baseColorFactor" : [
                    0.010021701455116272,
                    0.0023923655971884727,
                    0.0018060366855934262,
                    1
                ],
                "metallicFactor" : 0,
                "roughnessFactor" : 0.5
            }
        },
        {
            "doubleSided" : true,
            "name" : "Light_Brown",
            "pbrMetallicRoughness" : {
                "baseColorFactor" : [
                    0.3613067865371704,
                    0.15896087884902954,
                    0.013702086172997952,
                    1
                ],
                "metallicFactor" : 0,
                "roughnessFactor" : 0.5
            }
        },
        {
            "doubleSided" : true,
            "name" : "Yellow_body",
            "pbrMetallicRoughness" : {
                "baseColorTexture" : {
                    "index" : 0
                },
                "metallicFactor" : 0,
                "roughnessFactor" : 0.5
            }
        },
        {
            "doubleSided" : true,
            "name" : "Brown",
            "pbrMetallicRoughness" : {
                "baseColorFactor" : [
                    0.07322511821985245,
                    0.02384052984416485,
                    0.021921303123235703,
                    1
                ],
                "metallicFactor" : 0,
                "roughnessFactor" : 0.5
            }
        },
        {
            "doubleSided" : true,
            "name" : "Red_body",
            "pbrMetallicRoughness" : {
                "baseColorTexture" : {
                    "index" : 1
                },
                "metallicFactor" : 0,
                "roughnessFactor" : 0.5
            }
        },
        {
            "doubleSided" : true,
            "name" : "blond",
            "pbrMetallicRoughness" : {
                "baseColorFactor" : [
                    0.7873942852020264,
                    0.5489762425422668,
                    0.04593009129166603,
                    1
                ],
                "metallicFactor" : 0,
                "roughnessFactor" : 0.5
            }
        }
    ],
    "meshes" : [
        {
            "name" : "Circle.920",
            "primitives" : [
                {
                    "attributes" : {
                        "POSITION" : 0,
                        "NORMAL" : 1,
                        "TEXCOORD_0" : 2
                    },
                    "indices" : 3,
                    "material" : 0
                }
            ]
        },
        {
            "name" : "Circle.921",
            "primitives" : [
                {
                    "attributes" : {
                        "POSITION" : 4,
                        "NORMAL" : 5,
                        "TEXCOORD_0" : 6
                    },
                    "indices" : 7,
                    "material" : 1
                }
            ]
        },
        {
            "name" : "Cylinder.138",
            "primitives" : [
                {
                    "attributes" : {
                        "POSITION" : 8,
                        "NORMAL" : 9
                    },
                    "indices" : 10,
                    "material" : 2
                }
            ]
        },
        {
            "name" : "Roundcube.168",
            "primitives" : [
                {
                    "attributes" : {
                        "POSITION" : 11,
                        "NORMAL" : 12,
                        "TEXCOORD_0" : 13
                    },
                    "indices" : 14,
                    "material" : 2
                },
                {
                    "attributes" : {
                        "POSITION" : 15,
                        "NORMAL" : 16,
                        "TEXCOORD_0" : 17
                    },
                    "indices" : 18,
                    "material" : 3
                },
                {
                    "attributes" : {
                        "POSITION" : 19,
                        "NORMAL" : 20,
                        "TEXCOORD_0" : 21
                    },
                    "indices" : 22,
                    "material" : 0
                }
            ]
        },
        {
            "name" : "Circle.922",
            "primitives" : [
                {
                    "attributes" : {
                        "POSITION" : 23,
                        "NORMAL" : 24,
                        "TEXCOORD_0" : 25
                    },
                    "indices" : 26,
                    "material" : 3
                }
            ]
        },
        {
            "name" : "Sphere.141",
            "primitives" : [
                {
                    "attributes" : {
                        "POSITION" : 27,
                        "NORMAL" : 28,
                        "TEXCOORD_0" : 29
                    },
                    "indices" : 30
                },
                {
                    "attributes" : {
                        "POSITION" : 31,
                        "NORMAL" : 32,
                        "TEXCOORD_0" : 33
                    },
                    "indices" : 34,
                    "material" : 4
                },
                {
                    "attributes" : {
                        "POSITION" : 35,
                        "NORMAL" : 36,
                        "TEXCOORD_0" : 37
                    },
                    "indices" : 38,
                    "material" : 0
                },
                {
                    "attributes" : {
                        "POSITION" : 39,
                        "NORMAL" : 40,
                        "TEXCOORD_0" : 41
                    },
                    "indices" : 42,
                    "material" : 5
                }
            ]
        }
    ],
    "textures" : [
        {
            "sampler" : 0,
            "source" : 0
        },
        {
            "sampler" : 0,
            "source" : 1
        }
    ],
    "images" : [
        {
            "bufferView" : 11,
            "mimeType" : "image/png",
            "name" : "Rectangle 863"
        },
        {
            "bufferView" : 36,
            "mimeType" : "image/png",
            "name" : "Rectangle 2"
        }
    ],
    "accessors" : [
        {
            "bufferView" : 0,
            "componentType" : 5126,
            "count" : 1476,
            "max" : [
                0.1315014809370041,
                0.2836717367172241,
                -0.2951126992702484
            ],
            "min" : [
                -0.1315014809370041,
                0.24636287987232208,
                -0.38651570677757263
            ],
            "type" : "VEC3"
        },
        {
            "bufferView" : 1,
            "componentType" : 5126,
            "count" : 1476,
            "type" : "VEC3"
        },
        {
            "bufferView" : 2,
            "componentType" : 5126,
            "count" : 1476,
            "type" : "VEC2"
        },
        {
            "bufferView" : 3,
            "componentType" : 5123,
            "count" : 6912,
            "type" : "SCALAR"
        },
        {
            "bufferView" : 4,
            "componentType" : 5126,
            "count" : 442,
            "max" : [
                0.0257102083414793,
                0.2893408536911011,
                -0.2617069482803345
            ],
            "min" : [
                -0.024069136008620262,
                0.276211142539978,
                -0.2908790707588196
            ],
            "type" : "VEC3"
        },
        {
            "bufferView" : 5,
            "componentType" : 5126,
            "count" : 442,
            "type" : "VEC3"
        },
        {
            "bufferView" : 6,
            "componentType" : 5126,
            "count" : 442,
            "type" : "VEC2"
        },
        {
            "bufferView" : 7,
            "componentType" : 5123,
            "count" : 1824,
            "type" : "SCALAR"
        },
        {
            "bufferView" : 8,
            "componentType" : 5126,
            "count" : 1924,
            "max" : [
                0.11132793873548508,
                1.5957368612289429,
                1.2506803274154663
            ],
            "min" : [
                -0.2704695463180542,
                0.9459746479988098,
                -1.2506803274154663
            ],
            "type" : "VEC3"
        },
        {
            "bufferView" : 9,
            "componentType" : 5126,
            "count" : 1924,
            "type" : "VEC3"
        },
        {
            "bufferView" : 10,
            "componentType" : 5123,
            "count" : 11520,
            "type" : "SCALAR"
        },
        {
            "bufferView" : 12,
            "componentType" : 5126,
            "count" : 938,
            "max" : [
                1.0838792324066162,
                2.1668238639831543,
                1.022315263748169
            ],
            "min" : [
                -0.9458253383636475,
                0.10859009623527527,
                -1.022315263748169
            ],
            "type" : "VEC3"
        },
        {
            "bufferView" : 13,
            "componentType" : 5126,
            "count" : 938,
            "type" : "VEC3"
        },
        {
            "bufferView" : 14,
            "componentType" : 5126,
            "count" : 938,
            "type" : "VEC2"
        },
        {
            "bufferView" : 15,
            "componentType" : 5123,
            "count" : 4020,
            "type" : "SCALAR"
        },
        {
            "bufferView" : 16,
            "componentType" : 5126,
            "count" : 425,
            "max" : [
                0.5153218507766724,
                2.283376693725586,
                1.0155786275863647
            ],
            "min" : [
                -1.0794986486434937,
                0.6973814964294434,
                -1.0155786275863647
            ],
            "type" : "VEC3"
        },
        {
            "bufferView" : 17,
            "componentType" : 5126,
            "count" : 425,
            "type" : "VEC3"
        },
        {
            "bufferView" : 18,
            "componentType" : 5126,
            "count" : 425,
            "type" : "VEC2"
        },
        {
            "bufferView" : 19,
            "componentType" : 5123,
            "count" : 2088,
            "type" : "SCALAR"
        },
        {
            "bufferView" : 20,
            "componentType" : 5126,
            "count" : 85,
            "max" : [
                0.9625992178916931,
                0.8420289158821106,
                0.2430638074874878
            ],
            "min" : [
                0.909157395362854,
                0.6695384979248047,
                -0.26039984822273254
            ],
            "type" : "VEC3"
        },
        {
            "bufferView" : 21,
            "componentType" : 5126,
            "count" : 85,
            "type" : "VEC3"
        },
        {
            "bufferView" : 22,
            "componentType" : 5126,
            "count" : 85,
            "type" : "VEC2"
        },
        {
            "bufferView" : 23,
            "componentType" : 5123,
            "count" : 384,
            "type" : "SCALAR"
        },
        {
            "bufferView" : 24,
            "componentType" : 5126,
            "count" : 300,
            "max" : [
                0.41538816690444946,
                0.5354372262954712,
                -0.3105189800262451
            ],
            "min" : [
                -0.41538816690444946,
                0.4103906452655792,
                -0.4609239399433136
            ],
            "type" : "VEC3"
        },
        {
            "bufferView" : 25,
            "componentType" : 5126,
            "count" : 300,
            "type" : "VEC3"
        },
        {
            "bufferView" : 26,
            "componentType" : 5126,
            "count" : 300,
            "type" : "VEC2"
        },
        {
            "bufferView" : 27,
            "componentType" : 5123,
            "count" : 1152,
            "type" : "SCALAR"
        },
        {
            "bufferView" : 28,
            "componentType" : 5126,
            "count" : 567,
            "max" : [
                0.23189425468444824,
                1.1098917722702026,
                0.6269745826721191
            ],
            "min" : [
                -0.8903947472572327,
                0.5292603969573975,
                -0.6269741654396057
            ],
            "type" : "VEC3"
        },
        {
            "bufferView" : 29,
            "componentType" : 5126,
            "count" : 567,
            "type" : "VEC3"
        },
        {
            "bufferView" : 30,
            "componentType" : 5126,
            "count" : 567,
            "type" : "VEC2"
        },
        {
            "bufferView" : 31,
            "componentType" : 5123,
            "count" : 1818,
            "type" : "SCALAR"
        },
        {
            "bufferView" : 32,
            "componentType" : 5126,
            "count" : 48,
            "max" : [
                0.335166335105896,
                1.0866270065307617,
                0.34832853078842163
            ],
            "min" : [
                -0.3662503659725189,
                0.7722102999687195,
                -0.3483280837535858
            ],
            "type" : "VEC3"
        },
        {
            "bufferView" : 33,
            "componentType" : 5126,
            "count" : 48,
            "type" : "VEC3"
        },
        {
            "bufferView" : 34,
            "componentType" : 5126,
            "count" : 48,
            "type" : "VEC2"
        },
        {
            "bufferView" : 35,
            "componentType" : 5123,
            "count" : 198,
            "type" : "SCALAR"
        },
        {
            "bufferView" : 37,
            "componentType" : 5126,
            "count" : 400,
            "max" : [
                0.4973495602607727,
                0.7984842658042908,
                0.7374345660209656
            ],
            "min" : [
                -0.9621325731277466,
                0.23625899851322174,
                -0.7374340891838074
            ],
            "type" : "VEC3"
        },
        {
            "bufferView" : 38,
            "componentType" : 5126,
            "count" : 400,
            "type" : "VEC3"
        },
        {
            "bufferView" : 39,
            "componentType" : 5126,
            "count" : 400,
            "type" : "VEC2"
        },
        {
            "bufferView" : 40,
            "componentType" : 5123,
            "count" : 1536,
            "type" : "SCALAR"
        },
        {
            "bufferView" : 41,
            "componentType" : 5126,
            "count" : 373,
            "max" : [
                0.5201964378356934,
                0.7789137959480286,
                0.10719866305589676
            ],
            "min" : [
                0.400407075881958,
                0.5695629119873047,
                -0.10719824582338333
            ],
            "type" : "VEC3"
        },
        {
            "bufferView" : 42,
            "componentType" : 5126,
            "count" : 373,
            "type" : "VEC3"
        },
        {
            "bufferView" : 43,
            "componentType" : 5126,
            "count" : 373,
            "type" : "VEC2"
        },
        {
            "bufferView" : 44,
            "componentType" : 5123,
            "count" : 960,
            "type" : "SCALAR"
        }
    ],
    "bufferViews" : [
        {
            "buffer" : 0,
            "byteLength" : 17712,
            "byteOffset" : 0
        },
        {
            "buffer" : 0,
            "byteLength" : 17712,
            "byteOffset" : 17712
        },
        {
            "buffer" : 0,
            "byteLength" : 11808,
            "byteOffset" : 35424
        },
        {
            "buffer" : 0,
            "byteLength" : 13824,
            "byteOffset" : 47232
        },
        {
            "buffer" : 0,
            "byteLength" : 5304,
            "byteOffset" : 61056
        },
        {
            "buffer" : 0,
            "byteLength" : 5304,
            "byteOffset" : 66360
        },
        {
            "buffer" : 0,
            "byteLength" : 3536,
            "byteOffset" : 71664
        },
        {
            "buffer" : 0,
            "byteLength" : 3648,
            "byteOffset" : 75200
        },
        {
            "buffer" : 0,
            "byteLength" : 23088,
            "byteOffset" : 78848
        },
        {
            "buffer" : 0,
            "byteLength" : 23088,
            "byteOffset" : 101936
        },
        {
            "buffer" : 0,
            "byteLength" : 23040,
            "byteOffset" : 125024
        },
        {
            "buffer" : 0,
            "byteLength" : 85292,
            "byteOffset" : 148064
        },
        {
            "buffer" : 0,
            "byteLength" : 11256,
            "byteOffset" : 233356
        },
        {
            "buffer" : 0,
            "byteLength" : 11256,
            "byteOffset" : 244612
        },
        {
            "buffer" : 0,
            "byteLength" : 7504,
            "byteOffset" : 255868
        },
        {
            "buffer" : 0,
            "byteLength" : 8040,
            "byteOffset" : 263372
        },
        {
            "buffer" : 0,
            "byteLength" : 5100,
            "byteOffset" : 271412
        },
        {
            "buffer" : 0,
            "byteLength" : 5100,
            "byteOffset" : 276512
        },
        {
            "buffer" : 0,
            "byteLength" : 3400,
            "byteOffset" : 281612
        },
        {
            "buffer" : 0,
            "byteLength" : 4176,
            "byteOffset" : 285012
        },
        {
            "buffer" : 0,
            "byteLength" : 1020,
            "byteOffset" : 289188
        },
        {
            "buffer" : 0,
            "byteLength" : 1020,
            "byteOffset" : 290208
        },
        {
            "buffer" : 0,
            "byteLength" : 680,
            "byteOffset" : 291228
        },
        {
            "buffer" : 0,
            "byteLength" : 768,
            "byteOffset" : 291908
        },
        {
            "buffer" : 0,
            "byteLength" : 3600,
            "byteOffset" : 292676
        },
        {
            "buffer" : 0,
            "byteLength" : 3600,
            "byteOffset" : 296276
        },
        {
            "buffer" : 0,
            "byteLength" : 2400,
            "byteOffset" : 299876
        },
        {
            "buffer" : 0,
            "byteLength" : 2304,
            "byteOffset" : 302276
        },
        {
            "buffer" : 0,
            "byteLength" : 6804,
            "byteOffset" : 304580
        },
        {
            "buffer" : 0,
            "byteLength" : 6804,
            "byteOffset" : 311384
        },
        {
            "buffer" : 0,
            "byteLength" : 4536,
            "byteOffset" : 318188
        },
        {
            "buffer" : 0,
            "byteLength" : 3636,
            "byteOffset" : 322724
        },
        {
            "buffer" : 0,
            "byteLength" : 576,
            "byteOffset" : 326360
        },
        {
            "buffer" : 0,
            "byteLength" : 576,
            "byteOffset" : 326936
        },
        {
            "buffer" : 0,
            "byteLength" : 384,
            "byteOffset" : 327512
        },
        {
            "buffer" : 0,
            "byteLength" : 396,
            "byteOffset" : 327896
        },
        {
            "buffer" : 0,
            "byteLength" : 102120,
            "byteOffset" : 328292
        },
        {
            "buffer" : 0,
            "byteLength" : 4800,
            "byteOffset" : 430412
        },
        {
            "buffer" : 0,
            "byteLength" : 4800,
            "byteOffset" : 435212
        },
        {
            "buffer" : 0,
            "byteLength" : 3200,
            "byteOffset" : 440012
        },
        {
            "buffer" : 0,
            "byteLength" : 3072,
            "byteOffset" : 443212
        },
        {
            "buffer" : 0,
            "byteLength" : 4476,
            "byteOffset" : 446284
        },
        {
            "buffer" : 0,
            "byteLength" : 4476,
            "byteOffset" : 450760
        },
        {
            "buffer" : 0,
            "byteLength" : 2984,
            "byteOffset" : 455236
        },
        {
            "buffer" : 0,
            "byteLength" : 1920,
            "byteOffset" : 458220
        }
    ],
    "samplers" : [
        {
            "magFilter" : 9729,
            "minFilter" : 9987
        }
    ],
    "buffers" : [
        {
            "byteLength" : 460140,
            "uri" : "data:application/octet-stream;base64,"
        }
    ]
}
