{
    "asset" : {
        "copyright" : "Jeremy Edelblut",
        "generator" : "Khronos glTF Blender I/O v1.6.16",
        "version" : "2.0"
    },
    "scene" : 0,
    "scenes" : [
        {
            "name" : "Scene",
            "nodes" : [
                0,
                1,
                2,
                3,
                4,
                5,
                6,
                7,
                8,
                9
            ]
        }
    ],
    "nodes" : [
        {
            "mesh" : 0,
            "name" : "Circle.1319",
            "rotation" : [
                0.7071068286895752,
                0,
                0,
                0.7071068286895752
            ],
            "scale" : [
                2.706974744796753,
                2.706974744796753,
                2.706974744796753
            ]
        },
        {
            "mesh" : 1,
            "name" : "Circle.1320",
            "rotation" : [
                0.7071068286895752,
                0,
                0,
                0.7071068286895752
            ],
            "scale" : [
                2.706974744796753,
                2.706974744796753,
                2.706974744796753
            ]
        },
        {
            "mesh" : 2,
            "name" : "Cylinder.239",
            "rotation" : [
                0,
                -0.7071068286895752,
                0,
                0.7071068286895752
            ],
            "scale" : [
                0.7010374069213867,
                0.7010374069213867,
                0.7010374069213867
            ]
        },
        {
            "mesh" : 3,
            "name" : "Roundcube.289",
            "rotation" : [
                0,
                -0.7071068286895752,
                0,
                0.7071068286895752
            ],
            "scale" : [
                0.7010374069213867,
                0.7010374069213867,
                0.7010374069213867
            ]
        },
        {
            "mesh" : 4,
            "name" : "Circle.1321",
            "rotation" : [
                0.7071068286895752,
                0,
                0,
                0.7071068286895752
            ]
        },
        {
            "mesh" : 5,
            "name" : "Cube.3540",
            "rotation" : [
                0.15383964776992798,
                -0.7492061257362366,
                -0.09783472120761871,
                0.636751115322113
            ],
            "scale" : [
                0.10293129086494446,
                0.10293138027191162,
                0.10293129831552505
            ]
        },
        {
            "mesh" : 6,
            "name" : "Sphere.252",
            "rotation" : [
                0,
                -0.7071068286895752,
                0,
                0.7071068286895752
            ],
            "scale" : [
                0.5,
                0.5,
                0.5
            ]
        },
        {
            "mesh" : 7,
            "name" : "Sphere.253",
            "rotation" : [
                0,
                -0.7071068286895752,
                0,
                0.7071068286895752
            ],
            "scale" : [
                0.5,
                0.5,
                0.5
            ]
        },
        {
            "mesh" : 8,
            "name" : "Mball.009",
            "rotation" : [
                0,
                -0.7071068286895752,
                0,
                0.7071068286895752
            ],
            "scale" : [
                0.38197922706604004,
                0.38197922706604004,
                0.38197922706604004
            ]
        },
        {
            "mesh" : 9,
            "name" : "3moji.org.138",
            "rotation" : [
                0.5000001192092896,
                -0.49999991059303284,
                -0.49999988079071045,
                0.5000001192092896
            ],
            "scale" : [
                0.007233680225908756,
                0.007233680225908756,
                0.007233680225908756
            ],
            "translation" : [
                -0.0024158223532140255,
                -1.3919837474822998,
                -0.4698498249053955
            ]
        }
    ],
    "materials" : [
        {
            "doubleSided" : true,
            "name" : "Color",
            "pbrMetallicRoughness" : {
                "baseColorTexture" : {
                    "index" : 0
                },
                "metallicFactor" : 0,
                "roughnessFactor" : 0.5
            }
        }
    ],
    "meshes" : [
        {
            "name" : "Circle.1467",
            "primitives" : [
                {
                    "attributes" : {
                        "POSITION" : 0,
                        "NORMAL" : 1,
                        "TEXCOORD_0" : 2
                    },
                    "indices" : 3,
                    "material" : 0
                }
            ]
        },
        {
            "name" : "Circle.1468",
            "primitives" : [
                {
                    "attributes" : {
                        "POSITION" : 4,
                        "NORMAL" : 5,
                        "TEXCOORD_0" : 6
                    },
                    "indices" : 7,
                    "material" : 0
                }
            ]
        },
        {
            "name" : "Cylinder.240",
            "primitives" : [
                {
                    "attributes" : {
                        "POSITION" : 8,
                        "NORMAL" : 9,
                        "TEXCOORD_0" : 10
                    },
                    "indices" : 11,
                    "material" : 0
                }
            ]
        },
        {
            "name" : "Roundcube.291",
            "primitives" : [
                {
                    "attributes" : {
                        "POSITION" : 12,
                        "NORMAL" : 13,
                        "TEXCOORD_0" : 14
                    },
                    "indices" : 15,
                    "material" : 0
                }
            ]
        },
        {
            "name" : "Circle.1469",
            "primitives" : [
                {
                    "attributes" : {
                        "POSITION" : 16,
                        "NORMAL" : 17,
                        "TEXCOORD_0" : 18
                    },
                    "indices" : 19,
                    "material" : 0
                }
            ]
        },
        {
            "name" : "Cube.4162",
            "primitives" : [
                {
                    "attributes" : {
                        "POSITION" : 20,
                        "NORMAL" : 21,
                        "TEXCOORD_0" : 22
                    },
                    "indices" : 23,
                    "material" : 0
                }
            ]
        },
        {
            "name" : "Sphere.255",
            "primitives" : [
                {
                    "attributes" : {
                        "POSITION" : 24,
                        "NORMAL" : 25,
                        "TEXCOORD_0" : 26
                    },
                    "indices" : 27,
                    "material" : 0
                }
            ]
        },
        {
            "name" : "Sphere.256",
            "primitives" : [
                {
                    "attributes" : {
                        "POSITION" : 28,
                        "NORMAL" : 29,
                        "TEXCOORD_0" : 30
                    },
                    "indices" : 31,
                    "material" : 0
                }
            ]
        },
        {
            "name" : "Mesh.012",
            "primitives" : [
                {
                    "attributes" : {
                        "POSITION" : 32,
                        "NORMAL" : 33,
                        "TEXCOORD_0" : 34
                    },
                    "indices" : 35,
                    "material" : 0
                }
            ]
        },
        {
            "name" : "Cube.585",
            "primitives" : [
                {
                    "attributes" : {
                        "POSITION" : 36,
                        "NORMAL" : 37,
                        "TEXCOORD_0" : 38
                    },
                    "indices" : 39,
                    "material" : 0
                }
            ]
        }
    ],
    "textures" : [
        {
            "sampler" : 0,
            "source" : 0
        }
    ],
    "images" : [
        {
            "bufferView" : 4,
            "mimeType" : "image/png",
            "name" : "tex"
        }
    ],
    "accessors" : [
        {
            "bufferView" : 0,
            "componentType" : 5126,
            "count" : 1448,
            "max" : [
                0.13105370104312897,
                0.2163577377796173,
                -0.026259208098053932
            ],
            "min" : [
                -0.13105370104312897,
                0.1790487915277481,
                -0.11766227334737778
            ],
            "type" : "VEC3"
        },
        {
            "bufferView" : 1,
            "componentType" : 5126,
            "count" : 1448,
            "type" : "VEC3"
        },
        {
            "bufferView" : 2,
            "componentType" : 5126,
            "count" : 1448,
            "type" : "VEC2"
        },
        {
            "bufferView" : 3,
            "componentType" : 5123,
            "count" : 6912,
            "type" : "SCALAR"
        },
        {
            "bufferView" : 5,
            "componentType" : 5126,
            "count" : 422,
            "max" : [
                0.025262437760829926,
                0.22202681005001068,
                0.007146526128053665
            ],
            "min" : [
                -0.02451690286397934,
                0.20889705419540405,
                -0.022025583311915398
            ],
            "type" : "VEC3"
        },
        {
            "bufferView" : 6,
            "componentType" : 5126,
            "count" : 422,
            "type" : "VEC3"
        },
        {
            "bufferView" : 7,
            "componentType" : 5126,
            "count" : 422,
            "type" : "VEC2"
        },
        {
            "bufferView" : 8,
            "componentType" : 5123,
            "count" : 1824,
            "type" : "SCALAR"
        },
        {
            "bufferView" : 9,
            "componentType" : 5126,
            "count" : 2402,
            "max" : [
                -0.14859741926193237,
                0.5575903654098511,
                1.2573885917663574
            ],
            "min" : [
                -0.5303949117660522,
                -0.09217178821563721,
                -1.257388710975647
            ],
            "type" : "VEC3"
        },
        {
            "bufferView" : 10,
            "componentType" : 5126,
            "count" : 2402,
            "type" : "VEC3"
        },
        {
            "bufferView" : 11,
            "componentType" : 5126,
            "count" : 2402,
            "type" : "VEC2"
        },
        {
            "bufferView" : 12,
            "componentType" : 5123,
            "count" : 11520,
            "type" : "SCALAR"
        },
        {
            "bufferView" : 13,
            "componentType" : 5126,
            "count" : 1258,
            "max" : [
                0.8239538669586182,
                1.2452303171157837,
                1.0290236473083496
            ],
            "min" : [
                -1.3394240140914917,
                -1.151817798614502,
                -1.0156068801879883
            ],
            "type" : "VEC3"
        },
        {
            "bufferView" : 14,
            "componentType" : 5126,
            "count" : 1258,
            "type" : "VEC3"
        },
        {
            "bufferView" : 15,
            "componentType" : 5126,
            "count" : 1258,
            "type" : "VEC2"
        },
        {
            "bufferView" : 16,
            "componentType" : 5123,
            "count" : 6300,
            "type" : "SCALAR"
        },
        {
            "bufferView" : 17,
            "componentType" : 5126,
            "count" : 332,
            "max" : [
                0.4165043830871582,
                0.5355356335639954,
                -0.3105190396308899
            ],
            "min" : [
                -0.4165043830871582,
                0.4103906750679016,
                -0.4611247777938843
            ],
            "type" : "VEC3"
        },
        {
            "bufferView" : 18,
            "componentType" : 5126,
            "count" : 332,
            "type" : "VEC3"
        },
        {
            "bufferView" : 19,
            "componentType" : 5126,
            "count" : 332,
            "type" : "VEC2"
        },
        {
            "bufferView" : 20,
            "componentType" : 5123,
            "count" : 1152,
            "type" : "SCALAR"
        },
        {
            "bufferView" : 21,
            "componentType" : 5126,
            "count" : 1310,
            "max" : [
                5.014802932739258,
                10.377996444702148,
                7.861618995666504
            ],
            "min" : [
                -10.800312042236328,
                -2.503880500793457,
                -7.311230659484863
            ],
            "type" : "VEC3"
        },
        {
            "bufferView" : 22,
            "componentType" : 5126,
            "count" : 1310,
            "type" : "VEC3"
        },
        {
            "bufferView" : 23,
            "componentType" : 5126,
            "count" : 1310,
            "type" : "VEC2"
        },
        {
            "bufferView" : 24,
            "componentType" : 5123,
            "count" : 3132,
            "type" : "SCALAR"
        },
        {
            "bufferView" : 25,
            "componentType" : 5126,
            "count" : 460,
            "max" : [
                0.10192406177520752,
                -1.253004550933838,
                1.5000004768371582
            ],
            "min" : [
                -1.8980764150619507,
                -2.7983813285827637,
                -1.5000004768371582
            ],
            "type" : "VEC3"
        },
        {
            "bufferView" : 26,
            "componentType" : 5126,
            "count" : 460,
            "type" : "VEC3"
        },
        {
            "bufferView" : 27,
            "componentType" : 5126,
            "count" : 460,
            "type" : "VEC2"
        },
        {
            "bufferView" : 28,
            "componentType" : 5123,
            "count" : 2418,
            "type" : "SCALAR"
        },
        {
            "bufferView" : 29,
            "componentType" : 5126,
            "count" : 320,
            "max" : [
                0.17192405462265015,
                -1.1635438203811646,
                1.2862669229507446
            ],
            "min" : [
                -1.968076467514038,
                -2.8088042736053467,
                -1.2744594812393188
            ],
            "type" : "VEC3"
        },
        {
            "bufferView" : 30,
            "componentType" : 5126,
            "count" : 320,
            "type" : "VEC3"
        },
        {
            "bufferView" : 31,
            "componentType" : 5126,
            "count" : 320,
            "type" : "VEC2"
        },
        {
            "bufferView" : 32,
            "componentType" : 5123,
            "count" : 888,
            "type" : "SCALAR"
        },
        {
            "bufferView" : 33,
            "componentType" : 5126,
            "count" : 746,
            "max" : [
                1.213018536567688,
                3.653256416320801,
                3.471646308898926
            ],
            "min" : [
                -3.8190464973449707,
                -3.4704790115356445,
                -3.498042583465576
            ],
            "type" : "VEC3"
        },
        {
            "bufferView" : 34,
            "componentType" : 5126,
            "count" : 746,
            "type" : "VEC3"
        },
        {
            "bufferView" : 35,
            "componentType" : 5126,
            "count" : 746,
            "type" : "VEC2"
        },
        {
            "bufferView" : 36,
            "componentType" : 5123,
            "count" : 4404,
            "type" : "SCALAR"
        },
        {
            "bufferView" : 37,
            "componentType" : 5126,
            "count" : 752,
            "max" : [
                1.2953357696533203,
                7.90000057220459,
                17.240537643432617
            ],
            "min" : [
                2.8697024390567094e-05,
                -1.8999989032745361,
                -19.159460067749023
            ],
            "type" : "VEC3"
        },
        {
            "bufferView" : 38,
            "componentType" : 5126,
            "count" : 752,
            "type" : "VEC3"
        },
        {
            "bufferView" : 39,
            "componentType" : 5126,
            "count" : 752,
            "type" : "VEC2"
        },
        {
            "bufferView" : 40,
            "componentType" : 5123,
            "count" : 1680,
            "type" : "SCALAR"
        }
    ],
    "bufferViews" : [
        {
            "buffer" : 0,
            "byteLength" : 17376,
            "byteOffset" : 0
        },
        {
            "buffer" : 0,
            "byteLength" : 17376,
            "byteOffset" : 17376
        },
        {
            "buffer" : 0,
            "byteLength" : 11584,
            "byteOffset" : 34752
        },
        {
            "buffer" : 0,
            "byteLength" : 13824,
            "byteOffset" : 46336
        },
        {
            "buffer" : 0,
            "byteLength" : 3214,
            "byteOffset" : 60160
        },
        {
            "buffer" : 0,
            "byteLength" : 5064,
            "byteOffset" : 63376
        },
        {
            "buffer" : 0,
            "byteLength" : 5064,
            "byteOffset" : 68440
        },
        {
            "buffer" : 0,
            "byteLength" : 3376,
            "byteOffset" : 73504
        },
        {
            "buffer" : 0,
            "byteLength" : 3648,
            "byteOffset" : 76880
        },
        {
            "buffer" : 0,
            "byteLength" : 28824,
            "byteOffset" : 80528
        },
        {
            "buffer" : 0,
            "byteLength" : 28824,
            "byteOffset" : 109352
        },
        {
            "buffer" : 0,
            "byteLength" : 19216,
            "byteOffset" : 138176
        },
        {
            "buffer" : 0,
            "byteLength" : 23040,
            "byteOffset" : 157392
        },
        {
            "buffer" : 0,
            "byteLength" : 15096,
            "byteOffset" : 180432
        },
        {
            "buffer" : 0,
            "byteLength" : 15096,
            "byteOffset" : 195528
        },
        {
            "buffer" : 0,
            "byteLength" : 10064,
            "byteOffset" : 210624
        },
        {
            "buffer" : 0,
            "byteLength" : 12600,
            "byteOffset" : 220688
        },
        {
            "buffer" : 0,
            "byteLength" : 3984,
            "byteOffset" : 233288
        },
        {
            "buffer" : 0,
            "byteLength" : 3984,
            "byteOffset" : 237272
        },
        {
            "buffer" : 0,
            "byteLength" : 2656,
            "byteOffset" : 241256
        },
        {
            "buffer" : 0,
            "byteLength" : 2304,
            "byteOffset" : 243912
        },
        {
            "buffer" : 0,
            "byteLength" : 15720,
            "byteOffset" : 246216
        },
        {
            "buffer" : 0,
            "byteLength" : 15720,
            "byteOffset" : 261936
        },
        {
            "buffer" : 0,
            "byteLength" : 10480,
            "byteOffset" : 277656
        },
        {
            "buffer" : 0,
            "byteLength" : 6264,
            "byteOffset" : 288136
        },
        {
            "buffer" : 0,
            "byteLength" : 5520,
            "byteOffset" : 294400
        },
        {
            "buffer" : 0,
            "byteLength" : 5520,
            "byteOffset" : 299920
        },
        {
            "buffer" : 0,
            "byteLength" : 3680,
            "byteOffset" : 305440
        },
        {
            "buffer" : 0,
            "byteLength" : 4836,
            "byteOffset" : 309120
        },
        {
            "buffer" : 0,
            "byteLength" : 3840,
            "byteOffset" : 313956
        },
        {
            "buffer" : 0,
            "byteLength" : 3840,
            "byteOffset" : 317796
        },
        {
            "buffer" : 0,
            "byteLength" : 2560,
            "byteOffset" : 321636
        },
        {
            "buffer" : 0,
            "byteLength" : 1776,
            "byteOffset" : 324196
        },
        {
            "buffer" : 0,
            "byteLength" : 8952,
            "byteOffset" : 325972
        },
        {
            "buffer" : 0,
            "byteLength" : 8952,
            "byteOffset" : 334924
        },
        {
            "buffer" : 0,
            "byteLength" : 5968,
            "byteOffset" : 343876
        },
        {
            "buffer" : 0,
            "byteLength" : 8808,
            "byteOffset" : 349844
        },
        {
            "buffer" : 0,
            "byteLength" : 9024,
            "byteOffset" : 358652
        },
        {
            "buffer" : 0,
            "byteLength" : 9024,
            "byteOffset" : 367676
        },
        {
            "buffer" : 0,
            "byteLength" : 6016,
            "byteOffset" : 376700
        },
        {
            "buffer" : 0,
            "byteLength" : 3360,
            "byteOffset" : 382716
        }
    ],
    "samplers" : [
        {
            "magFilter" : 9729,
            "minFilter" : 9987
        }
    ],
    "buffers" : [
        {
            "byteLength" : 386076,
            "uri" : "data:application/octet-stream;base64,"
        }
    ]
}
