{
    "asset" : {
        "copyright" : "Jeremy Edelblut",
        "generator" : "Khronos glTF Blender I/O v1.7.33",
        "version" : "2.0"
    },
    "scene" : 1,
    "scenes" : [
        {
            "name" : "FBX_Temp",
            "nodes" : [
                0
            ]
        },
        {
            "name" : "Scene",
            "nodes" : [
                1,
                2,
                3,
                4,
                5,
                6,
                7,
                8
            ]
        }
    ],
    "nodes" : [
        {
            "mesh" : 0,
            "name" : "3moji.064",
            "rotation" : [
                0,
                -0.7071068286895752,
                0,
                0.7071068286895752
            ]
        },
        {
            "mesh" : 1,
            "name" : "Circle.1323",
            "rotation" : [
                0.5,
                -0.5,
                0.5,
                0.4999999701976776
            ]
        },
        {
            "mesh" : 2,
            "name" : "Circle.1324",
            "rotation" : [
                0.7071068286895752,
                0,
                0,
                0.7071068286895752
            ]
        },
        {
            "mesh" : 3,
            "name" : "Circle.1325",
            "rotation" : [
                0.7071068286895752,
                0,
                0,
                0.7071068286895752
            ]
        },
        {
            "mesh" : 4,
            "name" : "Cylinder.240",
            "rotation" : [
                0,
                -0.7071068286895752,
                0,
                0.7071068286895752
            ]
        },
        {
            "mesh" : 5,
            "name" : "Roundcube.291",
            "rotation" : [
                0,
                -0.7071068286895752,
                0,
                0.7071068286895752
            ]
        },
        {
            "mesh" : 6,
            "name" : "Circle.1326",
            "rotation" : [
                0.7071068286895752,
                0,
                0,
                0.7071068286895752
            ]
        },
        {
            "mesh" : 7,
            "name" : "Cube.3563",
            "rotation" : [
                0.15383964776992798,
                -0.7492061257362366,
                -0.09783472120761871,
                0.636751115322113
            ]
        },
        {
            "mesh" : 8,
            "name" : "3moji.org.140",
            "rotation" : [
                0.08160622417926788,
                0.7023820877075195,
                0.08160624653100967,
                0.7023818492889404
            ],
            "scale" : [
                0.0014097407693043351,
                0.0014097407693043351,
                0.0014097410021349788
            ],
            "translation" : [
                -0.0024158223532140255,
                0.2493419051170349,
                -0.2239673137664795
            ]
        }
    ],
    "materials" : [
        {
            "doubleSided" : true,
            "name" : "color",
            "pbrMetallicRoughness" : {
                "baseColorTexture" : {
                    "index" : 0
                },
                "metallicFactor" : 0,
                "roughnessFactor" : 0.5
            }
        },
        {
            "doubleSided" : true,
            "name" : "skin_tone_one",
            "pbrMetallicRoughness" : {
                "baseColorTexture" : {
                    "index" : 1
                },
                "metallicFactor" : 0,
                "roughnessFactor" : 0.5
            }
        }
    ],
    "meshes" : [
        {
            "name" : "Cube.417",
            "primitives" : [
                {
                    "attributes" : {
                        "POSITION" : 0,
                        "NORMAL" : 1,
                        "TEXCOORD_0" : 2
                    },
                    "indices" : 3,
                    "material" : 0
                }
            ]
        },
        {
            "name" : "Circle.1471",
            "primitives" : [
                {
                    "attributes" : {
                        "POSITION" : 4,
                        "NORMAL" : 5,
                        "TEXCOORD_0" : 6
                    },
                    "indices" : 7,
                    "material" : 0
                },
                {
                    "attributes" : {
                        "POSITION" : 8,
                        "NORMAL" : 9,
                        "TEXCOORD_0" : 10
                    },
                    "indices" : 11,
                    "material" : 1
                }
            ]
        },
        {
            "name" : "Circle.1472",
            "primitives" : [
                {
                    "attributes" : {
                        "POSITION" : 12,
                        "NORMAL" : 13,
                        "TEXCOORD_0" : 14
                    },
                    "indices" : 15,
                    "material" : 0
                }
            ]
        },
        {
            "name" : "Circle.1473",
            "primitives" : [
                {
                    "attributes" : {
                        "POSITION" : 16,
                        "NORMAL" : 17,
                        "TEXCOORD_0" : 18
                    },
                    "indices" : 19,
                    "material" : 1
                }
            ]
        },
        {
            "name" : "Cylinder.241",
            "primitives" : [
                {
                    "attributes" : {
                        "POSITION" : 20,
                        "NORMAL" : 21,
                        "TEXCOORD_0" : 22
                    },
                    "indices" : 23,
                    "material" : 1
                }
            ]
        },
        {
            "name" : "Roundcube.293",
            "primitives" : [
                {
                    "attributes" : {
                        "POSITION" : 24,
                        "NORMAL" : 25,
                        "TEXCOORD_0" : 26
                    },
                    "indices" : 27,
                    "material" : 0
                },
                {
                    "attributes" : {
                        "POSITION" : 28,
                        "NORMAL" : 29,
                        "TEXCOORD_0" : 30
                    },
                    "indices" : 31,
                    "material" : 1
                }
            ]
        },
        {
            "name" : "Circle.1474",
            "primitives" : [
                {
                    "attributes" : {
                        "POSITION" : 32,
                        "NORMAL" : 33,
                        "TEXCOORD_0" : 34
                    },
                    "indices" : 35,
                    "material" : 1
                }
            ]
        },
        {
            "name" : "Cube.4185",
            "primitives" : [
                {
                    "attributes" : {
                        "POSITION" : 36,
                        "NORMAL" : 37,
                        "TEXCOORD_0" : 38
                    },
                    "indices" : 39,
                    "material" : 1
                }
            ]
        },
        {
            "name" : "Cube.587",
            "primitives" : [
                {
                    "attributes" : {
                        "POSITION" : 40,
                        "NORMAL" : 41,
                        "TEXCOORD_0" : 42
                    },
                    "indices" : 43,
                    "material" : 0
                }
            ]
        }
    ],
    "textures" : [
        {
            "sampler" : 0,
            "source" : 0
        },
        {
            "sampler" : 0,
            "source" : 0
        }
    ],
    "images" : [
        {
            "bufferView" : 4,
            "mimeType" : "image/png",
            "name" : "tex"
        }
    ],
    "accessors" : [
        {
            "bufferView" : 0,
            "componentType" : 5126,
            "count" : 752,
            "max" : [
                -0.8264395594596863,
                0.05719918757677078,
                0.13795676827430725
            ],
            "min" : [
                -0.8543609976768494,
                -0.014034310355782509,
                -0.12436223030090332
            ],
            "type" : "VEC3"
        },
        {
            "bufferView" : 1,
            "componentType" : 5126,
            "count" : 752,
            "type" : "VEC3"
        },
        {
            "bufferView" : 2,
            "componentType" : 5126,
            "count" : 752,
            "type" : "VEC2"
        },
        {
            "bufferView" : 3,
            "componentType" : 5123,
            "count" : 1680,
            "type" : "SCALAR"
        },
        {
            "bufferView" : 5,
            "componentType" : 5126,
            "count" : 879,
            "max" : [
                0.19159173965454102,
                0.580668568611145,
                0.9112486243247986
            ],
            "min" : [
                -0.41912534832954407,
                -0.5910708904266357,
                -0.23491007089614868
            ],
            "type" : "VEC3"
        },
        {
            "bufferView" : 6,
            "componentType" : 5126,
            "count" : 879,
            "type" : "VEC3"
        },
        {
            "bufferView" : 7,
            "componentType" : 5126,
            "count" : 879,
            "type" : "VEC2"
        },
        {
            "bufferView" : 8,
            "componentType" : 5123,
            "count" : 4506,
            "type" : "SCALAR"
        },
        {
            "bufferView" : 9,
            "componentType" : 5126,
            "count" : 4163,
            "max" : [
                0.4967610836029053,
                1.015552282333374,
                0.9207716584205627
            ],
            "min" : [
                -0.22011086344718933,
                -0.9507519006729126,
                -0.09971924126148224
            ],
            "type" : "VEC3"
        },
        {
            "bufferView" : 10,
            "componentType" : 5126,
            "count" : 4163,
            "type" : "VEC3"
        },
        {
            "bufferView" : 11,
            "componentType" : 5126,
            "count" : 4163,
            "type" : "VEC2"
        },
        {
            "bufferView" : 12,
            "componentType" : 5123,
            "count" : 22170,
            "type" : "SCALAR"
        },
        {
            "bufferView" : 13,
            "componentType" : 5126,
            "count" : 1448,
            "max" : [
                0.15786810219287872,
                0.2952374219894409,
                -0.5722517967224121
            ],
            "min" : [
                -0.15786810219287872,
                0.2526817321777344,
                -0.6823809146881104
            ],
            "type" : "VEC3"
        },
        {
            "bufferView" : 14,
            "componentType" : 5126,
            "count" : 1448,
            "type" : "VEC3"
        },
        {
            "bufferView" : 15,
            "componentType" : 5126,
            "count" : 1448,
            "type" : "VEC2"
        },
        {
            "bufferView" : 16,
            "componentType" : 5123,
            "count" : 6912,
            "type" : "SCALAR"
        },
        {
            "bufferView" : 17,
            "componentType" : 5126,
            "count" : 142,
            "max" : [
                0.030944300815463066,
                0.3018897771835327,
                -0.5318313241004944
            ],
            "min" : [
                -0.030045505613088608,
                0.28799229860305786,
                -0.5671207308769226
            ],
            "type" : "VEC3"
        },
        {
            "bufferView" : 18,
            "componentType" : 5126,
            "count" : 142,
            "type" : "VEC3"
        },
        {
            "bufferView" : 19,
            "componentType" : 5126,
            "count" : 142,
            "type" : "VEC2"
        },
        {
            "bufferView" : 20,
            "componentType" : 5123,
            "count" : 528,
            "type" : "SCALAR"
        },
        {
            "bufferView" : 21,
            "componentType" : 5126,
            "count" : 1135,
            "max" : [
                -0.012328477576375008,
                0.7131690979003906,
                0.3923332989215851
            ],
            "min" : [
                -0.1300138533115387,
                0.5134834051132202,
                -0.3923332989215851
            ],
            "type" : "VEC3"
        },
        {
            "bufferView" : 22,
            "componentType" : 5126,
            "count" : 1135,
            "type" : "VEC3"
        },
        {
            "bufferView" : 23,
            "componentType" : 5126,
            "count" : 1135,
            "type" : "VEC2"
        },
        {
            "bufferView" : 24,
            "componentType" : 5123,
            "count" : 4992,
            "type" : "SCALAR"
        },
        {
            "bufferView" : 25,
            "componentType" : 5126,
            "count" : 85,
            "max" : [
                0.2553176283836365,
                0.47897371649742126,
                0.0761524960398674
            ],
            "min" : [
                0.23857416212558746,
                0.424932062625885,
                -0.0815839171409607
            ],
            "type" : "VEC3"
        },
        {
            "bufferView" : 26,
            "componentType" : 5126,
            "count" : 85,
            "type" : "VEC3"
        },
        {
            "bufferView" : 27,
            "componentType" : 5126,
            "count" : 85,
            "type" : "VEC2"
        },
        {
            "bufferView" : 28,
            "componentType" : 5123,
            "count" : 384,
            "type" : "SCALAR"
        },
        {
            "bufferView" : 29,
            "componentType" : 5126,
            "count" : 1191,
            "max" : [
                0.29331496357917786,
                0.9305515885353088,
                0.3202939033508301
            ],
            "min" : [
                -0.3844767212867737,
                0.10733960568904877,
                -0.3202939033508301
            ],
            "type" : "VEC3"
        },
        {
            "bufferView" : 30,
            "componentType" : 5126,
            "count" : 1191,
            "type" : "VEC3"
        },
        {
            "bufferView" : 31,
            "componentType" : 5126,
            "count" : 1191,
            "type" : "VEC2"
        },
        {
            "bufferView" : 32,
            "componentType" : 5123,
            "count" : 6012,
            "type" : "SCALAR"
        },
        {
            "bufferView" : 33,
            "componentType" : 5126,
            "count" : 316,
            "max" : [
                0.18686847388744354,
                0.27587077021598816,
                -0.6797087788581848
            ],
            "min" : [
                -0.18686847388744354,
                0.21977508068084717,
                -0.7470720410346985
            ],
            "type" : "VEC3"
        },
        {
            "bufferView" : 34,
            "componentType" : 5126,
            "count" : 316,
            "type" : "VEC3"
        },
        {
            "bufferView" : 35,
            "componentType" : 5126,
            "count" : 316,
            "type" : "VEC2"
        },
        {
            "bufferView" : 36,
            "componentType" : 5123,
            "count" : 1152,
            "type" : "SCALAR"
        },
        {
            "bufferView" : 37,
            "componentType" : 5126,
            "count" : 1310,
            "max" : [
                0.07127688825130463,
                0.9939395189285278,
                0.3290153443813324
            ],
            "min" : [
                -0.656238853931427,
                0.40135595202445984,
                -0.3689555525779724
            ],
            "type" : "VEC3"
        },
        {
            "bufferView" : 38,
            "componentType" : 5126,
            "count" : 1310,
            "type" : "VEC3"
        },
        {
            "bufferView" : 39,
            "componentType" : 5126,
            "count" : 1310,
            "type" : "VEC2"
        },
        {
            "bufferView" : 40,
            "componentType" : 5123,
            "count" : 3132,
            "type" : "SCALAR"
        },
        {
            "bufferView" : 41,
            "componentType" : 5126,
            "count" : 752,
            "max" : [
                1.2953357696533203,
                7.90000057220459,
                17.240537643432617
            ],
            "min" : [
                2.8697024390567094e-05,
                -1.8999989032745361,
                -19.159460067749023
            ],
            "type" : "VEC3"
        },
        {
            "bufferView" : 42,
            "componentType" : 5126,
            "count" : 752,
            "type" : "VEC3"
        },
        {
            "bufferView" : 43,
            "componentType" : 5126,
            "count" : 752,
            "type" : "VEC2"
        },
        {
            "bufferView" : 44,
            "componentType" : 5123,
            "count" : 1680,
            "type" : "SCALAR"
        }
    ],
    "bufferViews" : [
        {
            "buffer" : 0,
            "byteLength" : 9024,
            "byteOffset" : 0
        },
        {
            "buffer" : 0,
            "byteLength" : 9024,
            "byteOffset" : 9024
        },
        {
            "buffer" : 0,
            "byteLength" : 6016,
            "byteOffset" : 18048
        },
        {
            "buffer" : 0,
            "byteLength" : 3360,
            "byteOffset" : 24064
        },
        {
            "buffer" : 0,
            "byteLength" : 11997,
            "byteOffset" : 27424
        },
        {
            "buffer" : 0,
            "byteLength" : 10548,
            "byteOffset" : 39424
        },
        {
            "buffer" : 0,
            "byteLength" : 10548,
            "byteOffset" : 49972
        },
        {
            "buffer" : 0,
            "byteLength" : 7032,
            "byteOffset" : 60520
        },
        {
            "buffer" : 0,
            "byteLength" : 9012,
            "byteOffset" : 67552
        },
        {
            "buffer" : 0,
            "byteLength" : 49956,
            "byteOffset" : 76564
        },
        {
            "buffer" : 0,
            "byteLength" : 49956,
            "byteOffset" : 126520
        },
        {
            "buffer" : 0,
            "byteLength" : 33304,
            "byteOffset" : 176476
        },
        {
            "buffer" : 0,
            "byteLength" : 44340,
            "byteOffset" : 209780
        },
        {
            "buffer" : 0,
            "byteLength" : 17376,
            "byteOffset" : 254120
        },
        {
            "buffer" : 0,
            "byteLength" : 17376,
            "byteOffset" : 271496
        },
        {
            "buffer" : 0,
            "byteLength" : 11584,
            "byteOffset" : 288872
        },
        {
            "buffer" : 0,
            "byteLength" : 13824,
            "byteOffset" : 300456
        },
        {
            "buffer" : 0,
            "byteLength" : 1704,
            "byteOffset" : 314280
        },
        {
            "buffer" : 0,
            "byteLength" : 1704,
            "byteOffset" : 315984
        },
        {
            "buffer" : 0,
            "byteLength" : 1136,
            "byteOffset" : 317688
        },
        {
            "buffer" : 0,
            "byteLength" : 1056,
            "byteOffset" : 318824
        },
        {
            "buffer" : 0,
            "byteLength" : 13620,
            "byteOffset" : 319880
        },
        {
            "buffer" : 0,
            "byteLength" : 13620,
            "byteOffset" : 333500
        },
        {
            "buffer" : 0,
            "byteLength" : 9080,
            "byteOffset" : 347120
        },
        {
            "buffer" : 0,
            "byteLength" : 9984,
            "byteOffset" : 356200
        },
        {
            "buffer" : 0,
            "byteLength" : 1020,
            "byteOffset" : 366184
        },
        {
            "buffer" : 0,
            "byteLength" : 1020,
            "byteOffset" : 367204
        },
        {
            "buffer" : 0,
            "byteLength" : 680,
            "byteOffset" : 368224
        },
        {
            "buffer" : 0,
            "byteLength" : 768,
            "byteOffset" : 368904
        },
        {
            "buffer" : 0,
            "byteLength" : 14292,
            "byteOffset" : 369672
        },
        {
            "buffer" : 0,
            "byteLength" : 14292,
            "byteOffset" : 383964
        },
        {
            "buffer" : 0,
            "byteLength" : 9528,
            "byteOffset" : 398256
        },
        {
            "buffer" : 0,
            "byteLength" : 12024,
            "byteOffset" : 407784
        },
        {
            "buffer" : 0,
            "byteLength" : 3792,
            "byteOffset" : 419808
        },
        {
            "buffer" : 0,
            "byteLength" : 3792,
            "byteOffset" : 423600
        },
        {
            "buffer" : 0,
            "byteLength" : 2528,
            "byteOffset" : 427392
        },
        {
            "buffer" : 0,
            "byteLength" : 2304,
            "byteOffset" : 429920
        },
        {
            "buffer" : 0,
            "byteLength" : 15720,
            "byteOffset" : 432224
        },
        {
            "buffer" : 0,
            "byteLength" : 15720,
            "byteOffset" : 447944
        },
        {
            "buffer" : 0,
            "byteLength" : 10480,
            "byteOffset" : 463664
        },
        {
            "buffer" : 0,
            "byteLength" : 6264,
            "byteOffset" : 474144
        },
        {
            "buffer" : 0,
            "byteLength" : 9024,
            "byteOffset" : 480408
        },
        {
            "buffer" : 0,
            "byteLength" : 9024,
            "byteOffset" : 489432
        },
        {
            "buffer" : 0,
            "byteLength" : 6016,
            "byteOffset" : 498456
        },
        {
            "buffer" : 0,
            "byteLength" : 3360,
            "byteOffset" : 504472
        }
    ],
    "samplers" : [
        {
            "magFilter" : 9729,
            "minFilter" : 9987
        }
    ],
    "buffers" : [
        {
            "byteLength" : 507832,
            "uri" : "data:application/octet-stream;base64,"
        }
    ]
}
