{
    "asset" : {
        "copyright" : "Jeremy Edelblut",
        "generator" : "Khronos glTF Blender I/O v1.6.16",
        "version" : "2.0"
    },
    "scene" : 0,
    "scenes" : [
        {
            "name" : "Scene",
            "nodes" : [
                0,
                1,
                2,
                3,
                4,
                5,
                6
            ]
        }
    ],
    "nodes" : [
        {
            "mesh" : 0,
            "name" : "Circle.404",
            "rotation" : [
                0.7071068286895752,
                0,
                0,
                0.7071068286895752
            ],
            "scale" : [
                2.706974744796753,
                2.706974744796753,
                2.706974744796753
            ]
        },
        {
            "mesh" : 1,
            "name" : "Circle.405",
            "rotation" : [
                0.7071068286895752,
                0,
                0,
                0.7071068286895752
            ],
            "scale" : [
                2.706974744796753,
                2.706974744796753,
                2.706974744796753
            ]
        },
        {
            "mesh" : 2,
            "name" : "Circle.406",
            "rotation" : [
                0.7071068286895752,
                0,
                0,
                0.7071068286895752
            ]
        },
        {
            "mesh" : 3,
            "name" : "Cube.471",
            "rotation" : [
                0.15383964776992798,
                -0.7492061257362366,
                -0.09783472120761871,
                0.636751115322113
            ],
            "scale" : [
                0.10293129086494446,
                0.10293138027191162,
                0.10293129831552505
            ]
        },
        {
            "mesh" : 4,
            "name" : "Sphere.032",
            "rotation" : [
                0,
                -0.7071068286895752,
                0,
                0.7071068286895752
            ],
            "scale" : [
                0.5,
                0.5,
                0.5
            ]
        },
        {
            "mesh" : 5,
            "name" : "Roundcube.038",
            "rotation" : [
                0,
                -0.7071068286895752,
                0,
                0.7071068286895752
            ],
            "scale" : [
                0.7010374069213867,
                0.7010374069213867,
                0.7010374069213867
            ]
        },
        {
            "mesh" : 6,
            "name" : "ears.031",
            "rotation" : [
                0,
                -0.7071068286895752,
                0,
                0.7071068286895752
            ],
            "scale" : [
                0.7010374069213867,
                0.7010374069213867,
                0.7010374069213867
            ],
            "translation" : [
                0,
                0.17147138714790344,
                0
            ]
        }
    ],
    "materials" : [
        {
            "doubleSided" : true,
            "name" : "Color",
            "pbrMetallicRoughness" : {
                "baseColorTexture" : {
                    "index" : 0
                },
                "metallicFactor" : 0,
                "roughnessFactor" : 0.5
            }
        }
    ],
    "meshes" : [
        {
            "name" : "Circle.434",
            "primitives" : [
                {
                    "attributes" : {
                        "POSITION" : 0,
                        "NORMAL" : 1,
                        "TEXCOORD_0" : 2
                    },
                    "indices" : 3,
                    "material" : 0
                }
            ]
        },
        {
            "name" : "Circle.439",
            "primitives" : [
                {
                    "attributes" : {
                        "POSITION" : 4,
                        "NORMAL" : 5,
                        "TEXCOORD_0" : 6
                    },
                    "indices" : 7,
                    "material" : 0
                }
            ]
        },
        {
            "name" : "Circle.440",
            "primitives" : [
                {
                    "attributes" : {
                        "POSITION" : 8,
                        "NORMAL" : 9,
                        "TEXCOORD_0" : 10
                    },
                    "indices" : 11,
                    "material" : 0
                }
            ]
        },
        {
            "name" : "Cube.618",
            "primitives" : [
                {
                    "attributes" : {
                        "POSITION" : 12,
                        "NORMAL" : 13,
                        "TEXCOORD_0" : 14
                    },
                    "indices" : 15,
                    "material" : 0
                }
            ]
        },
        {
            "name" : "Sphere.032",
            "primitives" : [
                {
                    "attributes" : {
                        "POSITION" : 16,
                        "NORMAL" : 17,
                        "TEXCOORD_0" : 18
                    },
                    "indices" : 19,
                    "material" : 0
                }
            ]
        },
        {
            "name" : "Roundcube.040",
            "primitives" : [
                {
                    "attributes" : {
                        "POSITION" : 20,
                        "NORMAL" : 21,
                        "TEXCOORD_0" : 22
                    },
                    "indices" : 23,
                    "material" : 0
                },
                {
                    "attributes" : {
                        "POSITION" : 24,
                        "NORMAL" : 25,
                        "TEXCOORD_0" : 26
                    },
                    "indices" : 27,
                    "material" : 0
                }
            ]
        },
        {
            "name" : "Cylinder.011",
            "primitives" : [
                {
                    "attributes" : {
                        "POSITION" : 28,
                        "NORMAL" : 29,
                        "TEXCOORD_0" : 30
                    },
                    "indices" : 31,
                    "material" : 0
                }
            ]
        }
    ],
    "textures" : [
        {
            "sampler" : 0,
            "source" : 0
        }
    ],
    "images" : [
        {
            "bufferView" : 4,
            "mimeType" : "image/png",
            "name" : "tex2"
        }
    ],
    "accessors" : [
        {
            "bufferView" : 0,
            "componentType" : 5126,
            "count" : 452,
            "max" : [
                0.13130353391170502,
                0.2164182811975479,
                -0.02614527940750122
            ],
            "min" : [
                -0.13130353391170502,
                0.17896685004234314,
                -0.11773352324962616
            ],
            "type" : "VEC3"
        },
        {
            "bufferView" : 1,
            "componentType" : 5126,
            "count" : 452,
            "type" : "VEC3"
        },
        {
            "bufferView" : 2,
            "componentType" : 5126,
            "count" : 452,
            "type" : "VEC2"
        },
        {
            "bufferView" : 3,
            "componentType" : 5123,
            "count" : 1920,
            "type" : "SCALAR"
        },
        {
            "bufferView" : 5,
            "componentType" : 5126,
            "count" : 422,
            "max" : [
                0.025262437760829926,
                0.22202681005001068,
                0.007146526128053665
            ],
            "min" : [
                -0.02451690286397934,
                0.20889705419540405,
                -0.022025583311915398
            ],
            "type" : "VEC3"
        },
        {
            "bufferView" : 6,
            "componentType" : 5126,
            "count" : 422,
            "type" : "VEC3"
        },
        {
            "bufferView" : 7,
            "componentType" : 5126,
            "count" : 422,
            "type" : "VEC2"
        },
        {
            "bufferView" : 8,
            "componentType" : 5123,
            "count" : 1824,
            "type" : "SCALAR"
        },
        {
            "bufferView" : 9,
            "componentType" : 5126,
            "count" : 320,
            "max" : [
                0.4167959690093994,
                0.5354483723640442,
                -0.3104228079319
            ],
            "min" : [
                -0.4167959690093994,
                0.41046208143234253,
                -0.4609490633010864
            ],
            "type" : "VEC3"
        },
        {
            "bufferView" : 10,
            "componentType" : 5126,
            "count" : 320,
            "type" : "VEC3"
        },
        {
            "bufferView" : 11,
            "componentType" : 5126,
            "count" : 320,
            "type" : "VEC2"
        },
        {
            "bufferView" : 12,
            "componentType" : 5123,
            "count" : 1152,
            "type" : "SCALAR"
        },
        {
            "bufferView" : 13,
            "componentType" : 5126,
            "count" : 1310,
            "max" : [
                5.014802932739258,
                10.377996444702148,
                7.861618995666504
            ],
            "min" : [
                -10.800312042236328,
                -2.503880500793457,
                -7.311230659484863
            ],
            "type" : "VEC3"
        },
        {
            "bufferView" : 14,
            "componentType" : 5126,
            "count" : 1310,
            "type" : "VEC3"
        },
        {
            "bufferView" : 15,
            "componentType" : 5126,
            "count" : 1310,
            "type" : "VEC2"
        },
        {
            "bufferView" : 16,
            "componentType" : 5123,
            "count" : 3132,
            "type" : "SCALAR"
        },
        {
            "bufferView" : 17,
            "componentType" : 5126,
            "count" : 342,
            "max" : [
                0.20843124389648438,
                -1.253004550933838,
                1.3000004291534424
            ],
            "min" : [
                -1.7915692329406738,
                -2.7983813285827637,
                -1.3000004291534424
            ],
            "type" : "VEC3"
        },
        {
            "bufferView" : 18,
            "componentType" : 5126,
            "count" : 342,
            "type" : "VEC3"
        },
        {
            "bufferView" : 19,
            "componentType" : 5126,
            "count" : 342,
            "type" : "VEC2"
        },
        {
            "bufferView" : 20,
            "componentType" : 5123,
            "count" : 1836,
            "type" : "SCALAR"
        },
        {
            "bufferView" : 21,
            "componentType" : 5126,
            "count" : 966,
            "max" : [
                0.8239538669586182,
                1.2452303171157837,
                1.0290236473083496
            ],
            "min" : [
                -1.2668087482452393,
                -1.182313084602356,
                -1.0156068801879883
            ],
            "type" : "VEC3"
        },
        {
            "bufferView" : 22,
            "componentType" : 5126,
            "count" : 966,
            "type" : "VEC3"
        },
        {
            "bufferView" : 23,
            "componentType" : 5126,
            "count" : 966,
            "type" : "VEC2"
        },
        {
            "bufferView" : 24,
            "componentType" : 5123,
            "count" : 4938,
            "type" : "SCALAR"
        },
        {
            "bufferView" : 25,
            "componentType" : 5126,
            "count" : 1021,
            "max" : [
                0.7312692403793335,
                0.8462973833084106,
                1.007284164428711
            ],
            "min" : [
                -1.3394240140914917,
                -1.9991852045059204,
                -0.9938674569129944
            ],
            "type" : "VEC3"
        },
        {
            "bufferView" : 26,
            "componentType" : 5126,
            "count" : 1021,
            "type" : "VEC3"
        },
        {
            "bufferView" : 27,
            "componentType" : 5126,
            "count" : 1021,
            "type" : "VEC2"
        },
        {
            "bufferView" : 28,
            "componentType" : 5123,
            "count" : 2994,
            "type" : "SCALAR"
        },
        {
            "bufferView" : 29,
            "componentType" : 5126,
            "count" : 1092,
            "max" : [
                -0.15159989893436432,
                0.31007927656173706,
                1.2522509098052979
            ],
            "min" : [
                -0.527228593826294,
                -0.32727834582328796,
                -1.2522509098052979
            ],
            "type" : "VEC3"
        },
        {
            "bufferView" : 30,
            "componentType" : 5126,
            "count" : 1092,
            "type" : "VEC3"
        },
        {
            "bufferView" : 31,
            "componentType" : 5126,
            "count" : 1092,
            "type" : "VEC2"
        },
        {
            "bufferView" : 32,
            "componentType" : 5123,
            "count" : 4992,
            "type" : "SCALAR"
        }
    ],
    "bufferViews" : [
        {
            "buffer" : 0,
            "byteLength" : 5424,
            "byteOffset" : 0
        },
        {
            "buffer" : 0,
            "byteLength" : 5424,
            "byteOffset" : 5424
        },
        {
            "buffer" : 0,
            "byteLength" : 3616,
            "byteOffset" : 10848
        },
        {
            "buffer" : 0,
            "byteLength" : 3840,
            "byteOffset" : 14464
        },
        {
            "buffer" : 0,
            "byteLength" : 6474,
            "byteOffset" : 18304
        },
        {
            "buffer" : 0,
            "byteLength" : 5064,
            "byteOffset" : 24780
        },
        {
            "buffer" : 0,
            "byteLength" : 5064,
            "byteOffset" : 29844
        },
        {
            "buffer" : 0,
            "byteLength" : 3376,
            "byteOffset" : 34908
        },
        {
            "buffer" : 0,
            "byteLength" : 3648,
            "byteOffset" : 38284
        },
        {
            "buffer" : 0,
            "byteLength" : 3840,
            "byteOffset" : 41932
        },
        {
            "buffer" : 0,
            "byteLength" : 3840,
            "byteOffset" : 45772
        },
        {
            "buffer" : 0,
            "byteLength" : 2560,
            "byteOffset" : 49612
        },
        {
            "buffer" : 0,
            "byteLength" : 2304,
            "byteOffset" : 52172
        },
        {
            "buffer" : 0,
            "byteLength" : 15720,
            "byteOffset" : 54476
        },
        {
            "buffer" : 0,
            "byteLength" : 15720,
            "byteOffset" : 70196
        },
        {
            "buffer" : 0,
            "byteLength" : 10480,
            "byteOffset" : 85916
        },
        {
            "buffer" : 0,
            "byteLength" : 6264,
            "byteOffset" : 96396
        },
        {
            "buffer" : 0,
            "byteLength" : 4104,
            "byteOffset" : 102660
        },
        {
            "buffer" : 0,
            "byteLength" : 4104,
            "byteOffset" : 106764
        },
        {
            "buffer" : 0,
            "byteLength" : 2736,
            "byteOffset" : 110868
        },
        {
            "buffer" : 0,
            "byteLength" : 3672,
            "byteOffset" : 113604
        },
        {
            "buffer" : 0,
            "byteLength" : 11592,
            "byteOffset" : 117276
        },
        {
            "buffer" : 0,
            "byteLength" : 11592,
            "byteOffset" : 128868
        },
        {
            "buffer" : 0,
            "byteLength" : 7728,
            "byteOffset" : 140460
        },
        {
            "buffer" : 0,
            "byteLength" : 9876,
            "byteOffset" : 148188
        },
        {
            "buffer" : 0,
            "byteLength" : 12252,
            "byteOffset" : 158064
        },
        {
            "buffer" : 0,
            "byteLength" : 12252,
            "byteOffset" : 170316
        },
        {
            "buffer" : 0,
            "byteLength" : 8168,
            "byteOffset" : 182568
        },
        {
            "buffer" : 0,
            "byteLength" : 5988,
            "byteOffset" : 190736
        },
        {
            "buffer" : 0,
            "byteLength" : 13104,
            "byteOffset" : 196724
        },
        {
            "buffer" : 0,
            "byteLength" : 13104,
            "byteOffset" : 209828
        },
        {
            "buffer" : 0,
            "byteLength" : 8736,
            "byteOffset" : 222932
        },
        {
            "buffer" : 0,
            "byteLength" : 9984,
            "byteOffset" : 231668
        }
    ],
    "samplers" : [
        {
            "magFilter" : 9729,
            "minFilter" : 9987
        }
    ],
    "buffers" : [
        {
            "byteLength" : 241652,
            "uri" : "data:application/octet-stream;base64,"
        }
    ]
}
