{
    "asset" : {
        "copyright" : "Jeremy Edelblut",
        "generator" : "Khronos glTF Blender I/O v1.6.16",
        "version" : "2.0"
    },
    "scene" : 0,
    "scenes" : [
        {
            "name" : "Scene",
            "nodes" : [
                0,
                1,
                2,
                3,
                4,
                5
            ]
        }
    ],
    "nodes" : [
        {
            "mesh" : 0,
            "name" : "Circle.304",
            "rotation" : [
                0.7071068286895752,
                0,
                0,
                0.7071068286895752
            ]
        },
        {
            "mesh" : 1,
            "name" : "Circle.305",
            "rotation" : [
                0.7071068286895752,
                0,
                0,
                0.7071068286895752
            ]
        },
        {
            "mesh" : 2,
            "name" : "Roundcube.007",
            "rotation" : [
                0,
                -0.7071068286895752,
                0,
                0.7071068286895752
            ]
        },
        {
            "mesh" : 3,
            "name" : "Circle.306",
            "rotation" : [
                0.7071068286895752,
                0,
                0,
                0.7071068286895752
            ]
        },
        {
            "mesh" : 4,
            "name" : "Cube.235",
            "rotation" : [
                0.15383964776992798,
                -0.7492061257362366,
                -0.09783472120761871,
                0.636751115322113
            ]
        },
        {
            "mesh" : 5,
            "name" : "ears.005",
            "rotation" : [
                0,
                -0.7071068286895752,
                0,
                0.7071068286895752
            ],
            "scale" : [
                0.7010374069213867,
                0.7010374069213867,
                0.7010374069213867
            ]
        }
    ],
    "materials" : [
        {
            "doubleSided" : true,
            "name" : "Color",
            "pbrMetallicRoughness" : {
                "baseColorTexture" : {
                    "index" : 0
                },
                "metallicFactor" : 0,
                "roughnessFactor" : 0.5
            }
        }
    ],
    "meshes" : [
        {
            "name" : "Circle.337",
            "primitives" : [
                {
                    "attributes" : {
                        "POSITION" : 0,
                        "NORMAL" : 1,
                        "TEXCOORD_0" : 2
                    },
                    "indices" : 3,
                    "material" : 0
                }
            ]
        },
        {
            "name" : "Circle.338",
            "primitives" : [
                {
                    "attributes" : {
                        "POSITION" : 4,
                        "NORMAL" : 5,
                        "TEXCOORD_0" : 6
                    },
                    "indices" : 7,
                    "material" : 0
                }
            ]
        },
        {
            "name" : "Roundcube.007",
            "primitives" : [
                {
                    "attributes" : {
                        "POSITION" : 8,
                        "NORMAL" : 9,
                        "TEXCOORD_0" : 10
                    },
                    "indices" : 11,
                    "material" : 0
                }
            ]
        },
        {
            "name" : "Circle.339",
            "primitives" : [
                {
                    "attributes" : {
                        "POSITION" : 12,
                        "NORMAL" : 13,
                        "TEXCOORD_0" : 14
                    },
                    "indices" : 15,
                    "material" : 0
                }
            ]
        },
        {
            "name" : "Cube.394",
            "primitives" : [
                {
                    "attributes" : {
                        "POSITION" : 16,
                        "NORMAL" : 17,
                        "TEXCOORD_0" : 18
                    },
                    "indices" : 19,
                    "material" : 0
                }
            ]
        },
        {
            "name" : "Cylinder.011",
            "primitives" : [
                {
                    "attributes" : {
                        "POSITION" : 20,
                        "NORMAL" : 21,
                        "TEXCOORD_0" : 22
                    },
                    "indices" : 23,
                    "material" : 0
                }
            ]
        }
    ],
    "textures" : [
        {
            "sampler" : 0,
            "source" : 0
        }
    ],
    "images" : [
        {
            "bufferView" : 4,
            "mimeType" : "image/png",
            "name" : "tex"
        }
    ],
    "accessors" : [
        {
            "bufferView" : 0,
            "componentType" : 5126,
            "count" : 452,
            "max" : [
                0.348141074180603,
                0.5690951943397522,
                0.09765947610139847
            ],
            "min" : [
                -0.348141074180603,
                0.4844588041305542,
                -0.146637961268425
            ],
            "type" : "VEC3"
        },
        {
            "bufferView" : 1,
            "componentType" : 5126,
            "count" : 452,
            "type" : "VEC3"
        },
        {
            "bufferView" : 2,
            "componentType" : 5126,
            "count" : 452,
            "type" : "VEC2"
        },
        {
            "bufferView" : 3,
            "componentType" : 5123,
            "count" : 1920,
            "type" : "SCALAR"
        },
        {
            "bufferView" : 5,
            "componentType" : 5126,
            "count" : 430,
            "max" : [
                0.06737051904201508,
                0.5839709639549255,
                0.1858864277601242
            ],
            "min" : [
                -0.06535334140062332,
                0.565479040145874,
                0.10954384505748749
            ],
            "type" : "VEC3"
        },
        {
            "bufferView" : 6,
            "componentType" : 5126,
            "count" : 430,
            "type" : "VEC3"
        },
        {
            "bufferView" : 7,
            "componentType" : 5126,
            "count" : 430,
            "type" : "VEC2"
        },
        {
            "bufferView" : 8,
            "componentType" : 5123,
            "count" : 1824,
            "type" : "SCALAR"
        },
        {
            "bufferView" : 9,
            "componentType" : 5126,
            "count" : 2042,
            "max" : [
                0.5776225328445435,
                0.7037864327430725,
                0.7213840484619141
            ],
            "min" : [
                -0.9389863014221191,
                -0.8208202719688416,
                -0.7119784355163574
            ],
            "type" : "VEC3"
        },
        {
            "bufferView" : 10,
            "componentType" : 5126,
            "count" : 2042,
            "type" : "VEC3"
        },
        {
            "bufferView" : 11,
            "componentType" : 5126,
            "count" : 2042,
            "type" : "VEC2"
        },
        {
            "bufferView" : 12,
            "componentType" : 5123,
            "count" : 8214,
            "type" : "SCALAR"
        },
        {
            "bufferView" : 13,
            "componentType" : 5126,
            "count" : 332,
            "max" : [
                0.4167911112308502,
                0.535448431968689,
                -0.141267329454422
            ],
            "min" : [
                -0.4167911112308502,
                0.41045644879341125,
                -0.2917858958244324
            ],
            "type" : "VEC3"
        },
        {
            "bufferView" : 14,
            "componentType" : 5126,
            "count" : 332,
            "type" : "VEC3"
        },
        {
            "bufferView" : 15,
            "componentType" : 5126,
            "count" : 332,
            "type" : "VEC2"
        },
        {
            "bufferView" : 16,
            "componentType" : 5123,
            "count" : 1152,
            "type" : "SCALAR"
        },
        {
            "bufferView" : 17,
            "componentType" : 5126,
            "count" : 1310,
            "max" : [
                0.5762525200843811,
                0.910300612449646,
                0.8175497055053711
            ],
            "min" : [
                -1.0516177415847778,
                -0.41564881801605225,
                -0.7442114949226379
            ],
            "type" : "VEC3"
        },
        {
            "bufferView" : 18,
            "componentType" : 5126,
            "count" : 1310,
            "type" : "VEC3"
        },
        {
            "bufferView" : 19,
            "componentType" : 5126,
            "count" : 1310,
            "type" : "VEC2"
        },
        {
            "bufferView" : 20,
            "componentType" : 5123,
            "count" : 3132,
            "type" : "SCALAR"
        },
        {
            "bufferView" : 21,
            "componentType" : 5126,
            "count" : 1092,
            "max" : [
                -0.15159989893436432,
                0.31007927656173706,
                1.2522509098052979
            ],
            "min" : [
                -0.527228593826294,
                -0.32727834582328796,
                -1.2522509098052979
            ],
            "type" : "VEC3"
        },
        {
            "bufferView" : 22,
            "componentType" : 5126,
            "count" : 1092,
            "type" : "VEC3"
        },
        {
            "bufferView" : 23,
            "componentType" : 5126,
            "count" : 1092,
            "type" : "VEC2"
        },
        {
            "bufferView" : 24,
            "componentType" : 5123,
            "count" : 4992,
            "type" : "SCALAR"
        }
    ],
    "bufferViews" : [
        {
            "buffer" : 0,
            "byteLength" : 5424,
            "byteOffset" : 0
        },
        {
            "buffer" : 0,
            "byteLength" : 5424,
            "byteOffset" : 5424
        },
        {
            "buffer" : 0,
            "byteLength" : 3616,
            "byteOffset" : 10848
        },
        {
            "buffer" : 0,
            "byteLength" : 3840,
            "byteOffset" : 14464
        },
        {
            "buffer" : 0,
            "byteLength" : 3214,
            "byteOffset" : 18304
        },
        {
            "buffer" : 0,
            "byteLength" : 5160,
            "byteOffset" : 21520
        },
        {
            "buffer" : 0,
            "byteLength" : 5160,
            "byteOffset" : 26680
        },
        {
            "buffer" : 0,
            "byteLength" : 3440,
            "byteOffset" : 31840
        },
        {
            "buffer" : 0,
            "byteLength" : 3648,
            "byteOffset" : 35280
        },
        {
            "buffer" : 0,
            "byteLength" : 24504,
            "byteOffset" : 38928
        },
        {
            "buffer" : 0,
            "byteLength" : 24504,
            "byteOffset" : 63432
        },
        {
            "buffer" : 0,
            "byteLength" : 16336,
            "byteOffset" : 87936
        },
        {
            "buffer" : 0,
            "byteLength" : 16428,
            "byteOffset" : 104272
        },
        {
            "buffer" : 0,
            "byteLength" : 3984,
            "byteOffset" : 120700
        },
        {
            "buffer" : 0,
            "byteLength" : 3984,
            "byteOffset" : 124684
        },
        {
            "buffer" : 0,
            "byteLength" : 2656,
            "byteOffset" : 128668
        },
        {
            "buffer" : 0,
            "byteLength" : 2304,
            "byteOffset" : 131324
        },
        {
            "buffer" : 0,
            "byteLength" : 15720,
            "byteOffset" : 133628
        },
        {
            "buffer" : 0,
            "byteLength" : 15720,
            "byteOffset" : 149348
        },
        {
            "buffer" : 0,
            "byteLength" : 10480,
            "byteOffset" : 165068
        },
        {
            "buffer" : 0,
            "byteLength" : 6264,
            "byteOffset" : 175548
        },
        {
            "buffer" : 0,
            "byteLength" : 13104,
            "byteOffset" : 181812
        },
        {
            "buffer" : 0,
            "byteLength" : 13104,
            "byteOffset" : 194916
        },
        {
            "buffer" : 0,
            "byteLength" : 8736,
            "byteOffset" : 208020
        },
        {
            "buffer" : 0,
            "byteLength" : 9984,
            "byteOffset" : 216756
        }
    ],
    "samplers" : [
        {
            "magFilter" : 9729,
            "minFilter" : 9987
        }
    ],
    "buffers" : [
        {
            "byteLength" : 226740,
            "uri" : "data:application/octet-stream;base64,"
        }
    ]
}
