{
    "asset" : {
        "copyright" : "Jeremy Edelblut 2021",
        "generator" : "Khronos glTF Blender I/O v1.6.16",
        "version" : "2.0"
    },
    "scene" : 0,
    "scenes" : [
        {
            "name" : "Scene",
            "nodes" : [
                0,
                1,
                2,
                3,
                4,
                5,
                6
            ]
        }
    ],
    "nodes" : [
        {
            "mesh" : 0,
            "name" : "Circle.311",
            "rotation" : [
                0.7071068286895752,
                0,
                0,
                0.7071068286895752
            ],
            "scale" : [
                2.706974744796753,
                2.706974744796753,
                2.706974744796753
            ]
        },
        {
            "mesh" : 1,
            "name" : "Circle.312",
            "rotation" : [
                0.7071068286895752,
                0,
                0,
                0.7071068286895752
            ],
            "scale" : [
                2.706974744796753,
                2.706974744796753,
                2.706974744796753
            ]
        },
        {
            "mesh" : 2,
            "name" : "Cylinder.018",
            "rotation" : [
                0,
                -0.7071068286895752,
                0,
                0.7071068286895752
            ],
            "scale" : [
                0.7010374069213867,
                0.7010374069213867,
                0.7010374069213867
            ]
        },
        {
            "mesh" : 3,
            "name" : "Roundcube.009",
            "rotation" : [
                0,
                -0.7071068286895752,
                0,
                0.7071068286895752
            ],
            "scale" : [
                0.7010374069213867,
                0.7010374069213867,
                0.7010374069213867
            ]
        },
        {
            "mesh" : 4,
            "name" : "Circle.313",
            "rotation" : [
                0.7071068286895752,
                0,
                0,
                0.7071068286895752
            ]
        },
        {
            "mesh" : 5,
            "name" : "Cube.279",
            "rotation" : [
                0.15383964776992798,
                -0.7492061257362366,
                -0.09783472120761871,
                0.636751115322113
            ],
            "scale" : [
                0.10293129086494446,
                0.10293138027191162,
                0.10293129831552505
            ]
        },
        {
            "mesh" : 6,
            "name" : "Circle.314",
            "rotation" : [
                0.7071068286895752,
                0,
                0,
                0.7071068286895752
            ],
            "scale" : [
                2.706974744796753,
                2.706974744796753,
                2.706974744796753
            ]
        }
    ],
    "materials" : [
        {
            "doubleSided" : true,
            "name" : "DKBrown",
            "pbrMetallicRoughness" : {
                "baseColorFactor" : [
                    0.010021701455116272,
                    0.0023923655971884727,
                    0.0018060366855934262,
                    1
                ],
                "metallicFactor" : 0,
                "roughnessFactor" : 0.5
            }
        },
        {
            "doubleSided" : true,
            "name" : "Light_Brown",
            "pbrMetallicRoughness" : {
                "baseColorFactor" : [
                    0.3613067865371704,
                    0.15896087884902954,
                    0.013702086172997952,
                    1
                ],
                "metallicFactor" : 0,
                "roughnessFactor" : 0.5
            }
        },
        {
            "doubleSided" : true,
            "name" : "Yellow_body",
            "pbrMetallicRoughness" : {
                "baseColorTexture" : {
                    "index" : 0
                },
                "metallicFactor" : 0,
                "roughnessFactor" : 0.5
            }
        },
        {
            "doubleSided" : true,
            "name" : "Brown",
            "pbrMetallicRoughness" : {
                "baseColorFactor" : [
                    0.07322511821985245,
                    0.02384052984416485,
                    0.021921303123235703,
                    1
                ],
                "metallicFactor" : 0,
                "roughnessFactor" : 0.5
            }
        }
    ],
    "meshes" : [
        {
            "name" : "Circle.344",
            "primitives" : [
                {
                    "attributes" : {
                        "POSITION" : 0,
                        "NORMAL" : 1,
                        "TEXCOORD_0" : 2
                    },
                    "indices" : 3,
                    "material" : 0
                }
            ]
        },
        {
            "name" : "Circle.345",
            "primitives" : [
                {
                    "attributes" : {
                        "POSITION" : 4,
                        "NORMAL" : 5,
                        "TEXCOORD_0" : 6
                    },
                    "indices" : 7,
                    "material" : 1
                }
            ]
        },
        {
            "name" : "Cylinder.018",
            "primitives" : [
                {
                    "attributes" : {
                        "POSITION" : 8,
                        "NORMAL" : 9
                    },
                    "indices" : 10,
                    "material" : 2
                }
            ]
        },
        {
            "name" : "Roundcube.009",
            "primitives" : [
                {
                    "attributes" : {
                        "POSITION" : 11,
                        "NORMAL" : 12,
                        "TEXCOORD_0" : 13
                    },
                    "indices" : 14,
                    "material" : 2
                },
                {
                    "attributes" : {
                        "POSITION" : 15,
                        "NORMAL" : 16,
                        "TEXCOORD_0" : 17
                    },
                    "indices" : 18,
                    "material" : 3
                },
                {
                    "attributes" : {
                        "POSITION" : 19,
                        "NORMAL" : 20,
                        "TEXCOORD_0" : 21
                    },
                    "indices" : 22,
                    "material" : 0
                }
            ]
        },
        {
            "name" : "Circle.346",
            "primitives" : [
                {
                    "attributes" : {
                        "POSITION" : 23,
                        "NORMAL" : 24,
                        "TEXCOORD_0" : 25
                    },
                    "indices" : 26,
                    "material" : 3
                }
            ]
        },
        {
            "name" : "Cube.438",
            "primitives" : [
                {
                    "attributes" : {
                        "POSITION" : 27,
                        "NORMAL" : 28
                    },
                    "indices" : 29,
                    "material" : 3
                }
            ]
        },
        {
            "name" : "Circle.348",
            "primitives" : [
                {
                    "attributes" : {
                        "POSITION" : 30,
                        "NORMAL" : 31,
                        "TEXCOORD_0" : 32
                    },
                    "indices" : 33,
                    "material" : 3
                }
            ]
        }
    ],
    "textures" : [
        {
            "sampler" : 0,
            "source" : 0
        }
    ],
    "images" : [
        {
            "bufferView" : 11,
            "mimeType" : "image/png",
            "name" : "Rectangle 863"
        }
    ],
    "accessors" : [
        {
            "bufferView" : 0,
            "componentType" : 5126,
            "count" : 452,
            "max" : [
                0.13130351901054382,
                0.2164182960987091,
                0.03634754195809364
            ],
            "min" : [
                -0.13130351901054382,
                0.17896686494350433,
                -0.055240701884031296
            ],
            "type" : "VEC3"
        },
        {
            "bufferView" : 1,
            "componentType" : 5126,
            "count" : 452,
            "type" : "VEC3"
        },
        {
            "bufferView" : 2,
            "componentType" : 5126,
            "count" : 452,
            "type" : "VEC2"
        },
        {
            "bufferView" : 3,
            "componentType" : 5123,
            "count" : 1920,
            "type" : "SCALAR"
        },
        {
            "bufferView" : 4,
            "componentType" : 5126,
            "count" : 442,
            "max" : [
                0.025262437760829926,
                0.2220267951488495,
                0.06963935494422913
            ],
            "min" : [
                -0.02451690286397934,
                0.20889705419540405,
                0.040467239916324615
            ],
            "type" : "VEC3"
        },
        {
            "bufferView" : 5,
            "componentType" : 5126,
            "count" : 442,
            "type" : "VEC3"
        },
        {
            "bufferView" : 6,
            "componentType" : 5126,
            "count" : 442,
            "type" : "VEC2"
        },
        {
            "bufferView" : 7,
            "componentType" : 5123,
            "count" : 1824,
            "type" : "SCALAR"
        },
        {
            "bufferView" : 8,
            "componentType" : 5126,
            "count" : 1924,
            "max" : [
                -0.14859741926193237,
                0.3162815272808075,
                1.2573885917663574
            ],
            "min" : [
                -0.5303949117660522,
                -0.3334805965423584,
                -1.257388710975647
            ],
            "type" : "VEC3"
        },
        {
            "bufferView" : 9,
            "componentType" : 5126,
            "count" : 1924,
            "type" : "VEC3"
        },
        {
            "bufferView" : 10,
            "componentType" : 5123,
            "count" : 11520,
            "type" : "SCALAR"
        },
        {
            "bufferView" : 12,
            "componentType" : 5126,
            "count" : 1690,
            "max" : [
                0.8239538669586182,
                0.8873686790466309,
                1.0290236473083496
            ],
            "min" : [
                -1.2057507038116455,
                -1.1708650588989258,
                -1.0156068801879883
            ],
            "type" : "VEC3"
        },
        {
            "bufferView" : 13,
            "componentType" : 5126,
            "count" : 1690,
            "type" : "VEC3"
        },
        {
            "bufferView" : 14,
            "componentType" : 5126,
            "count" : 1690,
            "type" : "VEC2"
        },
        {
            "bufferView" : 15,
            "componentType" : 5123,
            "count" : 5742,
            "type" : "SCALAR"
        },
        {
            "bufferView" : 16,
            "componentType" : 5126,
            "count" : 425,
            "max" : [
                0.2553965151309967,
                1.0039215087890625,
                1.0222870111465454
            ],
            "min" : [
                -1.3394240140914917,
                -0.5820736885070801,
                -1.008870244026184
            ],
            "type" : "VEC3"
        },
        {
            "bufferView" : 17,
            "componentType" : 5126,
            "count" : 425,
            "type" : "VEC3"
        },
        {
            "bufferView" : 18,
            "componentType" : 5126,
            "count" : 425,
            "type" : "VEC2"
        },
        {
            "bufferView" : 19,
            "componentType" : 5123,
            "count" : 2088,
            "type" : "SCALAR"
        },
        {
            "bufferView" : 20,
            "componentType" : 5126,
            "count" : 85,
            "max" : [
                0.7026739120483398,
                -0.43742626905441284,
                0.24977214634418488
            ],
            "min" : [
                0.649232029914856,
                -0.6099166870117188,
                -0.25369149446487427
            ],
            "type" : "VEC3"
        },
        {
            "bufferView" : 21,
            "componentType" : 5126,
            "count" : 85,
            "type" : "VEC3"
        },
        {
            "bufferView" : 22,
            "componentType" : 5126,
            "count" : 85,
            "type" : "VEC2"
        },
        {
            "bufferView" : 23,
            "componentType" : 5123,
            "count" : 384,
            "type" : "SCALAR"
        },
        {
            "bufferView" : 24,
            "componentType" : 5126,
            "count" : 300,
            "max" : [
                0.4167788326740265,
                0.5598836541175842,
                -0.15349261462688446
            ],
            "min" : [
                -0.4167788326740265,
                0.40108025074005127,
                -0.29545241594314575
            ],
            "type" : "VEC3"
        },
        {
            "bufferView" : 25,
            "componentType" : 5126,
            "count" : 300,
            "type" : "VEC3"
        },
        {
            "bufferView" : 26,
            "componentType" : 5126,
            "count" : 300,
            "type" : "VEC2"
        },
        {
            "bufferView" : 27,
            "componentType" : 5123,
            "count" : 1152,
            "type" : "SCALAR"
        },
        {
            "bufferView" : 28,
            "componentType" : 5126,
            "count" : 1310,
            "max" : [
                5.598419189453125,
                8.843761444091797,
                7.942673206329346
            ],
            "min" : [
                -10.216695785522461,
                -4.038115978240967,
                -7.23017692565918
            ],
            "type" : "VEC3"
        },
        {
            "bufferView" : 29,
            "componentType" : 5126,
            "count" : 1310,
            "type" : "VEC3"
        },
        {
            "bufferView" : 30,
            "componentType" : 5123,
            "count" : 3132,
            "type" : "SCALAR"
        },
        {
            "bufferView" : 31,
            "componentType" : 5126,
            "count" : 1314,
            "max" : [
                0.1640329211950302,
                0.2154683619737625,
                0.26882314682006836
            ],
            "min" : [
                -0.1640329211950302,
                0.07104640454053879,
                0.07448235899209976
            ],
            "type" : "VEC3"
        },
        {
            "bufferView" : 32,
            "componentType" : 5126,
            "count" : 1314,
            "type" : "VEC3"
        },
        {
            "bufferView" : 33,
            "componentType" : 5126,
            "count" : 1314,
            "type" : "VEC2"
        },
        {
            "bufferView" : 34,
            "componentType" : 5123,
            "count" : 5256,
            "type" : "SCALAR"
        }
    ],
    "bufferViews" : [
        {
            "buffer" : 0,
            "byteLength" : 5424,
            "byteOffset" : 0
        },
        {
            "buffer" : 0,
            "byteLength" : 5424,
            "byteOffset" : 5424
        },
        {
            "buffer" : 0,
            "byteLength" : 3616,
            "byteOffset" : 10848
        },
        {
            "buffer" : 0,
            "byteLength" : 3840,
            "byteOffset" : 14464
        },
        {
            "buffer" : 0,
            "byteLength" : 5304,
            "byteOffset" : 18304
        },
        {
            "buffer" : 0,
            "byteLength" : 5304,
            "byteOffset" : 23608
        },
        {
            "buffer" : 0,
            "byteLength" : 3536,
            "byteOffset" : 28912
        },
        {
            "buffer" : 0,
            "byteLength" : 3648,
            "byteOffset" : 32448
        },
        {
            "buffer" : 0,
            "byteLength" : 23088,
            "byteOffset" : 36096
        },
        {
            "buffer" : 0,
            "byteLength" : 23088,
            "byteOffset" : 59184
        },
        {
            "buffer" : 0,
            "byteLength" : 23040,
            "byteOffset" : 82272
        },
        {
            "buffer" : 0,
            "byteLength" : 85292,
            "byteOffset" : 105312
        },
        {
            "buffer" : 0,
            "byteLength" : 20280,
            "byteOffset" : 190604
        },
        {
            "buffer" : 0,
            "byteLength" : 20280,
            "byteOffset" : 210884
        },
        {
            "buffer" : 0,
            "byteLength" : 13520,
            "byteOffset" : 231164
        },
        {
            "buffer" : 0,
            "byteLength" : 11484,
            "byteOffset" : 244684
        },
        {
            "buffer" : 0,
            "byteLength" : 5100,
            "byteOffset" : 256168
        },
        {
            "buffer" : 0,
            "byteLength" : 5100,
            "byteOffset" : 261268
        },
        {
            "buffer" : 0,
            "byteLength" : 3400,
            "byteOffset" : 266368
        },
        {
            "buffer" : 0,
            "byteLength" : 4176,
            "byteOffset" : 269768
        },
        {
            "buffer" : 0,
            "byteLength" : 1020,
            "byteOffset" : 273944
        },
        {
            "buffer" : 0,
            "byteLength" : 1020,
            "byteOffset" : 274964
        },
        {
            "buffer" : 0,
            "byteLength" : 680,
            "byteOffset" : 275984
        },
        {
            "buffer" : 0,
            "byteLength" : 768,
            "byteOffset" : 276664
        },
        {
            "buffer" : 0,
            "byteLength" : 3600,
            "byteOffset" : 277432
        },
        {
            "buffer" : 0,
            "byteLength" : 3600,
            "byteOffset" : 281032
        },
        {
            "buffer" : 0,
            "byteLength" : 2400,
            "byteOffset" : 284632
        },
        {
            "buffer" : 0,
            "byteLength" : 2304,
            "byteOffset" : 287032
        },
        {
            "buffer" : 0,
            "byteLength" : 15720,
            "byteOffset" : 289336
        },
        {
            "buffer" : 0,
            "byteLength" : 15720,
            "byteOffset" : 305056
        },
        {
            "buffer" : 0,
            "byteLength" : 6264,
            "byteOffset" : 320776
        },
        {
            "buffer" : 0,
            "byteLength" : 15768,
            "byteOffset" : 327040
        },
        {
            "buffer" : 0,
            "byteLength" : 15768,
            "byteOffset" : 342808
        },
        {
            "buffer" : 0,
            "byteLength" : 10512,
            "byteOffset" : 358576
        },
        {
            "buffer" : 0,
            "byteLength" : 10512,
            "byteOffset" : 369088
        }
    ],
    "samplers" : [
        {
            "magFilter" : 9729,
            "minFilter" : 9987
        }
    ],
    "buffers" : [
        {
            "byteLength" : 379600,
            "uri" : "data:application/octet-stream;base64,"
        }
    ]
}
