{
    "asset" : {
        "copyright" : "Jeremy Edelblut",
        "generator" : "Khronos glTF Blender I/O v1.6.16",
        "version" : "2.0"
    },
    "scene" : 0,
    "scenes" : [
        {
            "name" : "Scene",
            "nodes" : [
                0,
                1,
                2
            ]
        }
    ],
    "nodes" : [
        {
            "mesh" : 0,
            "name" : "Circle.1895",
            "rotation" : [
                0.49999988079071045,
                0.5000001192092896,
                -0.5000001192092896,
                0.49999985098838806
            ],
            "scale" : [
                0.6000000238418579,
                0.6000000238418579,
                0.6000000238418579
            ],
            "translation" : [
                1.2664165496826172,
                0.6381029486656189,
                0.010761933401226997
            ]
        },
        {
            "mesh" : 1,
            "name" : "Cube.6230",
            "rotation" : [
                0,
                -0.7071068286895752,
                0,
                0.7071068286895752
            ]
        },
        {
            "mesh" : 2,
            "name" : "Cube.6231"
        }
    ],
    "materials" : [
        {
            "doubleSided" : true,
            "name" : "DKBrown",
            "pbrMetallicRoughness" : {
                "baseColorFactor" : [
                    0.010021701455116272,
                    0.0023923655971884727,
                    0.0018060366855934262,
                    1
                ],
                "metallicFactor" : 0,
                "roughnessFactor" : 0.5
            }
        },
        {
            "doubleSided" : true,
            "name" : "Pink",
            "pbrMetallicRoughness" : {
                "baseColorFactor" : [
                    0.8000000715255737,
                    0.07068260759115219,
                    0.3145071268081665,
                    1
                ],
                "metallicFactor" : 0,
                "roughnessFactor" : 0.5
            }
        },
        {
            "doubleSided" : true,
            "name" : "dkPink",
            "pbrMetallicRoughness" : {
                "baseColorFactor" : [
                    0.3423771858215332,
                    0.0336165577173233,
                    0.13858771324157715,
                    1
                ],
                "metallicFactor" : 0,
                "roughnessFactor" : 0.5
            }
        }
    ],
    "meshes" : [
        {
            "name" : "Circle.2111",
            "primitives" : [
                {
                    "attributes" : {
                        "POSITION" : 0,
                        "NORMAL" : 1,
                        "TEXCOORD_0" : 2
                    },
                    "indices" : 3,
                    "material" : 0
                }
            ]
        },
        {
            "name" : "Cube.7287",
            "primitives" : [
                {
                    "attributes" : {
                        "POSITION" : 4,
                        "NORMAL" : 5,
                        "TEXCOORD_0" : 6
                    },
                    "indices" : 7,
                    "material" : 1
                }
            ]
        },
        {
            "name" : "Cube.7288",
            "primitives" : [
                {
                    "attributes" : {
                        "POSITION" : 8,
                        "NORMAL" : 9,
                        "TEXCOORD_0" : 10
                    },
                    "indices" : 11,
                    "material" : 2
                },
                {
                    "attributes" : {
                        "POSITION" : 12,
                        "NORMAL" : 13,
                        "TEXCOORD_0" : 14
                    },
                    "indices" : 15,
                    "material" : 0
                }
            ]
        }
    ],
    "accessors" : [
        {
            "bufferView" : 0,
            "componentType" : 5126,
            "count" : 752,
            "max" : [
                0.7146351337432861,
                -0.8027470111846924,
                0.7810398936271667
            ],
            "min" : [
                -0.7146351337432861,
                -1.0427082777023315,
                0.33224549889564514
            ],
            "type" : "VEC3"
        },
        {
            "bufferView" : 1,
            "componentType" : 5126,
            "count" : 752,
            "type" : "VEC3"
        },
        {
            "bufferView" : 2,
            "componentType" : 5126,
            "count" : 752,
            "type" : "VEC2"
        },
        {
            "bufferView" : 3,
            "componentType" : 5123,
            "count" : 2880,
            "type" : "SCALAR"
        },
        {
            "bufferView" : 4,
            "componentType" : 5126,
            "count" : 756,
            "max" : [
                0.9134154319763184,
                0.9573257565498352,
                0.8395062685012817
            ],
            "min" : [
                -0.9134154319763184,
                -0.8563503623008728,
                -0.8395062685012817
            ],
            "type" : "VEC3"
        },
        {
            "bufferView" : 5,
            "componentType" : 5126,
            "count" : 756,
            "type" : "VEC3"
        },
        {
            "bufferView" : 6,
            "componentType" : 5126,
            "count" : 756,
            "type" : "VEC2"
        },
        {
            "bufferView" : 7,
            "componentType" : 5123,
            "count" : 3168,
            "type" : "SCALAR"
        },
        {
            "bufferView" : 8,
            "componentType" : 5126,
            "count" : 506,
            "max" : [
                1.004841923713684,
                0.15318205952644348,
                0.2893398106098175
            ],
            "min" : [
                0.5889691114425659,
                -0.3879331648349762,
                -0.2860170304775238
            ],
            "type" : "VEC3"
        },
        {
            "bufferView" : 9,
            "componentType" : 5126,
            "count" : 506,
            "type" : "VEC3"
        },
        {
            "bufferView" : 10,
            "componentType" : 5126,
            "count" : 506,
            "type" : "VEC2"
        },
        {
            "bufferView" : 11,
            "componentType" : 5123,
            "count" : 1482,
            "type" : "SCALAR"
        },
        {
            "bufferView" : 12,
            "componentType" : 5126,
            "count" : 52,
            "max" : [
                0.9530950784683228,
                -0.015877677127718925,
                0.19009843468666077
            ],
            "min" : [
                0.9438108801841736,
                -0.17688116431236267,
                -0.19216759502887726
            ],
            "type" : "VEC3"
        },
        {
            "bufferView" : 13,
            "componentType" : 5126,
            "count" : 52,
            "type" : "VEC3"
        },
        {
            "bufferView" : 14,
            "componentType" : 5126,
            "count" : 52,
            "type" : "VEC2"
        },
        {
            "bufferView" : 15,
            "componentType" : 5123,
            "count" : 144,
            "type" : "SCALAR"
        }
    ],
    "bufferViews" : [
        {
            "buffer" : 0,
            "byteLength" : 9024,
            "byteOffset" : 0
        },
        {
            "buffer" : 0,
            "byteLength" : 9024,
            "byteOffset" : 9024
        },
        {
            "buffer" : 0,
            "byteLength" : 6016,
            "byteOffset" : 18048
        },
        {
            "buffer" : 0,
            "byteLength" : 5760,
            "byteOffset" : 24064
        },
        {
            "buffer" : 0,
            "byteLength" : 9072,
            "byteOffset" : 29824
        },
        {
            "buffer" : 0,
            "byteLength" : 9072,
            "byteOffset" : 38896
        },
        {
            "buffer" : 0,
            "byteLength" : 6048,
            "byteOffset" : 47968
        },
        {
            "buffer" : 0,
            "byteLength" : 6336,
            "byteOffset" : 54016
        },
        {
            "buffer" : 0,
            "byteLength" : 6072,
            "byteOffset" : 60352
        },
        {
            "buffer" : 0,
            "byteLength" : 6072,
            "byteOffset" : 66424
        },
        {
            "buffer" : 0,
            "byteLength" : 4048,
            "byteOffset" : 72496
        },
        {
            "buffer" : 0,
            "byteLength" : 2964,
            "byteOffset" : 76544
        },
        {
            "buffer" : 0,
            "byteLength" : 624,
            "byteOffset" : 79508
        },
        {
            "buffer" : 0,
            "byteLength" : 624,
            "byteOffset" : 80132
        },
        {
            "buffer" : 0,
            "byteLength" : 416,
            "byteOffset" : 80756
        },
        {
            "buffer" : 0,
            "byteLength" : 288,
            "byteOffset" : 81172
        }
    ],
    "buffers" : [
        {
            "byteLength" : 81460,
            "uri" : "data:application/octet-stream;base64,"
        }
    ]
}
