{
    "asset" : {
        "copyright" : "Jeremy Edelblut",
        "generator" : "Khronos glTF Blender I/O v1.7.33",
        "version" : "2.0"
    },
    "scene" : 0,
    "scenes" : [
        {
            "name" : "Scene",
            "nodes" : [
                0,
                1,
                2,
                3
            ]
        }
    ],
    "nodes" : [
        {
            "mesh" : 0,
            "name" : "Circle.1896"
        },
        {
            "mesh" : 1,
            "name" : "Cube.6232"
        },
        {
            "mesh" : 2,
            "name" : "Plane.121"
        },
        {
            "mesh" : 3,
            "name" : "Plane.122"
        }
    ],
    "materials" : [
        {
            "doubleSided" : true,
            "emissiveFactor" : [
                0.20000000298023224,
                0.20000000298023224,
                0.20000000298023224
            ],
            "emissiveTexture" : {
                "index" : 0
            },
            "name" : "color",
            "pbrMetallicRoughness" : {
                "baseColorTexture" : {
                    "index" : 1
                },
                "metallicFactor" : 0,
                "roughnessFactor" : 0.5
            }
        }
    ],
    "meshes" : [
        {
            "name" : "Circle.2112",
            "primitives" : [
                {
                    "attributes" : {
                        "POSITION" : 0,
                        "NORMAL" : 1,
                        "TEXCOORD_0" : 2
                    },
                    "indices" : 3,
                    "material" : 0
                }
            ]
        },
        {
            "name" : "Cube.7290",
            "primitives" : [
                {
                    "attributes" : {
                        "POSITION" : 4,
                        "NORMAL" : 5,
                        "TEXCOORD_0" : 6
                    },
                    "indices" : 7,
                    "material" : 0
                }
            ]
        },
        {
            "name" : "Plane.122",
            "primitives" : [
                {
                    "attributes" : {
                        "POSITION" : 8,
                        "NORMAL" : 9,
                        "TEXCOORD_0" : 10
                    },
                    "indices" : 11,
                    "material" : 0
                }
            ]
        },
        {
            "name" : "Plane.123",
            "primitives" : [
                {
                    "attributes" : {
                        "POSITION" : 12,
                        "NORMAL" : 13,
                        "TEXCOORD_0" : 14
                    },
                    "indices" : 15,
                    "material" : 0
                }
            ]
        }
    ],
    "textures" : [
        {
            "sampler" : 0,
            "source" : 0
        },
        {
            "sampler" : 0,
            "source" : 0
        }
    ],
    "images" : [
        {
            "bufferView" : 4,
            "mimeType" : "image/png",
            "name" : "tex"
        }
    ],
    "accessors" : [
        {
            "bufferView" : 0,
            "componentType" : 5126,
            "count" : 648,
            "max" : [
                -0.29113587737083435,
                0.2892439663410187,
                0.8935095071792603
            ],
            "min" : [
                -0.8934262990951538,
                0.15298429131507874,
                0.291219562292099
            ],
            "type" : "VEC3"
        },
        {
            "bufferView" : 1,
            "componentType" : 5126,
            "count" : 648,
            "type" : "VEC3"
        },
        {
            "bufferView" : 2,
            "componentType" : 5126,
            "count" : 648,
            "type" : "VEC2"
        },
        {
            "bufferView" : 3,
            "componentType" : 5123,
            "count" : 2880,
            "type" : "SCALAR"
        },
        {
            "bufferView" : 5,
            "componentType" : 5126,
            "count" : 216,
            "max" : [
                -0.3110484480857849,
                0.6247482895851135,
                0.8846057653427124
            ],
            "min" : [
                -0.8845201730728149,
                0.503346860408783,
                0.31113457679748535
            ],
            "type" : "VEC3"
        },
        {
            "bufferView" : 6,
            "componentType" : 5126,
            "count" : 216,
            "type" : "VEC3"
        },
        {
            "bufferView" : 7,
            "componentType" : 5126,
            "count" : 216,
            "type" : "VEC2"
        },
        {
            "bufferView" : 8,
            "componentType" : 5123,
            "count" : 756,
            "type" : "SCALAR"
        },
        {
            "bufferView" : 9,
            "componentType" : 5126,
            "count" : 1548,
            "max" : [
                1.2170042991638184,
                0.6605861186981201,
                0.9978187084197998
            ],
            "min" : [
                -0.9977353811264038,
                -0.9494335651397705,
                -1.2169207334518433
            ],
            "type" : "VEC3"
        },
        {
            "bufferView" : 10,
            "componentType" : 5126,
            "count" : 1548,
            "type" : "VEC3"
        },
        {
            "bufferView" : 11,
            "componentType" : 5126,
            "count" : 1548,
            "type" : "VEC2"
        },
        {
            "bufferView" : 12,
            "componentType" : 5123,
            "count" : 4272,
            "type" : "SCALAR"
        },
        {
            "bufferView" : 13,
            "componentType" : 5126,
            "count" : 481,
            "max" : [
                1.1778494119644165,
                0.19968092441558838,
                -0.9439955949783325
            ],
            "min" : [
                0.9332770705223083,
                -0.02889913320541382,
                -1.1653980016708374
            ],
            "type" : "VEC3"
        },
        {
            "bufferView" : 14,
            "componentType" : 5126,
            "count" : 481,
            "type" : "VEC3"
        },
        {
            "bufferView" : 15,
            "componentType" : 5126,
            "count" : 481,
            "type" : "VEC2"
        },
        {
            "bufferView" : 16,
            "componentType" : 5123,
            "count" : 2856,
            "type" : "SCALAR"
        }
    ],
    "bufferViews" : [
        {
            "buffer" : 0,
            "byteLength" : 7776,
            "byteOffset" : 0
        },
        {
            "buffer" : 0,
            "byteLength" : 7776,
            "byteOffset" : 7776
        },
        {
            "buffer" : 0,
            "byteLength" : 5184,
            "byteOffset" : 15552
        },
        {
            "buffer" : 0,
            "byteLength" : 5760,
            "byteOffset" : 20736
        },
        {
            "buffer" : 0,
            "byteLength" : 11997,
            "byteOffset" : 26496
        },
        {
            "buffer" : 0,
            "byteLength" : 2592,
            "byteOffset" : 38496
        },
        {
            "buffer" : 0,
            "byteLength" : 2592,
            "byteOffset" : 41088
        },
        {
            "buffer" : 0,
            "byteLength" : 1728,
            "byteOffset" : 43680
        },
        {
            "buffer" : 0,
            "byteLength" : 1512,
            "byteOffset" : 45408
        },
        {
            "buffer" : 0,
            "byteLength" : 18576,
            "byteOffset" : 46920
        },
        {
            "buffer" : 0,
            "byteLength" : 18576,
            "byteOffset" : 65496
        },
        {
            "buffer" : 0,
            "byteLength" : 12384,
            "byteOffset" : 84072
        },
        {
            "buffer" : 0,
            "byteLength" : 8544,
            "byteOffset" : 96456
        },
        {
            "buffer" : 0,
            "byteLength" : 5772,
            "byteOffset" : 105000
        },
        {
            "buffer" : 0,
            "byteLength" : 5772,
            "byteOffset" : 110772
        },
        {
            "buffer" : 0,
            "byteLength" : 3848,
            "byteOffset" : 116544
        },
        {
            "buffer" : 0,
            "byteLength" : 5712,
            "byteOffset" : 120392
        }
    ],
    "samplers" : [
        {
            "magFilter" : 9729,
            "minFilter" : 9987
        }
    ],
    "buffers" : [
        {
            "byteLength" : 126104,
            "uri" : "data:application/octet-stream;base64,"
        }
    ]
}
