{
    "asset" : {
        "copyright" : "Jeremy Edelblut",
        "generator" : "Khronos glTF Blender I/O v1.7.33",
        "version" : "2.0"
    },
    "scene" : 1,
    "scenes" : [
        {
            "name" : "FBX_Temp",
            "nodes" : [
                0
            ]
        },
        {
            "name" : "Scene",
            "nodes" : [
                1,
                2,
                3,
                4
            ]
        }
    ],
    "nodes" : [
        {
            "mesh" : 0,
            "name" : "3moji.064",
            "rotation" : [
                0,
                -0.7071068286895752,
                0,
                0.7071068286895752
            ]
        },
        {
            "mesh" : 1,
            "name" : "Circle.1895",
            "rotation" : [
                0.7071068286895752,
                0,
                0,
                0.7071068286895752
            ],
            "translation" : [
                -0.011838174425065517,
                0.6646762490272522,
                1.393058180809021
            ]
        },
        {
            "mesh" : 2,
            "name" : "Cube.6230",
            "rotation" : [
                0,
                -1,
                0,
                -1.6292068494294654e-07
            ],
            "translation" : [
                0,
                -0.037236932665109634,
                0
            ]
        },
        {
            "mesh" : 3,
            "name" : "Cube.6231",
            "rotation" : [
                0,
                -0.7071068286895752,
                0,
                0.7071068286895752
            ],
            "translation" : [
                0,
                -0.037236932665109634,
                0
            ]
        },
        {
            "mesh" : 4,
            "name" : "3moji.org.212",
            "rotation" : [
                0,
                0.70710688829422,
                0,
                0.7071067094802856
            ],
            "translation" : [
                0,
                -0.10890306532382965,
                -0.9162899851799011
            ]
        }
    ],
    "materials" : [
        {
            "doubleSided" : true,
            "name" : "color",
            "pbrMetallicRoughness" : {
                "baseColorTexture" : {
                    "index" : 0
                },
                "metallicFactor" : 0,
                "roughnessFactor" : 0.5
            }
        }
    ],
    "meshes" : [
        {
            "name" : "Cube.417",
            "primitives" : [
                {
                    "attributes" : {
                        "POSITION" : 0,
                        "NORMAL" : 1,
                        "TEXCOORD_0" : 2
                    },
                    "indices" : 3,
                    "material" : 0
                }
            ]
        },
        {
            "name" : "Circle.2111",
            "primitives" : [
                {
                    "attributes" : {
                        "POSITION" : 4,
                        "NORMAL" : 5,
                        "TEXCOORD_0" : 6
                    },
                    "indices" : 7,
                    "material" : 0
                }
            ]
        },
        {
            "name" : "Cube.7287",
            "primitives" : [
                {
                    "attributes" : {
                        "POSITION" : 8,
                        "NORMAL" : 9,
                        "TEXCOORD_0" : 10
                    },
                    "indices" : 11,
                    "material" : 0
                }
            ]
        },
        {
            "name" : "Cube.7288",
            "primitives" : [
                {
                    "attributes" : {
                        "POSITION" : 12,
                        "NORMAL" : 13,
                        "TEXCOORD_0" : 14
                    },
                    "indices" : 15,
                    "material" : 0
                }
            ]
        },
        {
            "name" : "Cube.673",
            "primitives" : [
                {
                    "attributes" : {
                        "POSITION" : 16,
                        "NORMAL" : 17,
                        "TEXCOORD_0" : 18
                    },
                    "indices" : 19,
                    "material" : 0
                }
            ]
        }
    ],
    "textures" : [
        {
            "sampler" : 0,
            "source" : 0
        }
    ],
    "images" : [
        {
            "bufferView" : 4,
            "mimeType" : "image/png",
            "name" : "tex"
        }
    ],
    "accessors" : [
        {
            "bufferView" : 0,
            "componentType" : 5126,
            "count" : 752,
            "max" : [
                -0.8264395594596863,
                0.05719918757677078,
                0.13795676827430725
            ],
            "min" : [
                -0.8543609976768494,
                -0.014034310355782509,
                -0.12436223030090332
            ],
            "type" : "VEC3"
        },
        {
            "bufferView" : 1,
            "componentType" : 5126,
            "count" : 752,
            "type" : "VEC3"
        },
        {
            "bufferView" : 2,
            "componentType" : 5126,
            "count" : 752,
            "type" : "VEC2"
        },
        {
            "bufferView" : 3,
            "componentType" : 5123,
            "count" : 1680,
            "type" : "SCALAR"
        },
        {
            "bufferView" : 5,
            "componentType" : 5126,
            "count" : 644,
            "max" : [
                0.47434505820274353,
                -0.5234546065330505,
                0.5154874324798584
            ],
            "min" : [
                -0.47434505820274353,
                -0.688187301158905,
                0.21569010615348816
            ],
            "type" : "VEC3"
        },
        {
            "bufferView" : 6,
            "componentType" : 5126,
            "count" : 644,
            "type" : "VEC3"
        },
        {
            "bufferView" : 7,
            "componentType" : 5126,
            "count" : 644,
            "type" : "VEC2"
        },
        {
            "bufferView" : 8,
            "componentType" : 5123,
            "count" : 2880,
            "type" : "SCALAR"
        },
        {
            "bufferView" : 9,
            "componentType" : 5126,
            "count" : 626,
            "max" : [
                1.004757046699524,
                1.053058385848999,
                0.9234569072723389
            ],
            "min" : [
                -1.004757046699524,
                -0.9419854283332825,
                -0.9234569072723389
            ],
            "type" : "VEC3"
        },
        {
            "bufferView" : 10,
            "componentType" : 5126,
            "count" : 626,
            "type" : "VEC3"
        },
        {
            "bufferView" : 11,
            "componentType" : 5126,
            "count" : 626,
            "type" : "VEC2"
        },
        {
            "bufferView" : 12,
            "componentType" : 5123,
            "count" : 3168,
            "type" : "SCALAR"
        },
        {
            "bufferView" : 13,
            "componentType" : 5126,
            "count" : 470,
            "max" : [
                1.1053261756896973,
                0.16850027441978455,
                0.3182738125324249
            ],
            "min" : [
                0.6478660106658936,
                -0.42672649025917053,
                -0.3146187365055084
            ],
            "type" : "VEC3"
        },
        {
            "bufferView" : 14,
            "componentType" : 5126,
            "count" : 470,
            "type" : "VEC3"
        },
        {
            "bufferView" : 15,
            "componentType" : 5126,
            "count" : 470,
            "type" : "VEC2"
        },
        {
            "bufferView" : 16,
            "componentType" : 5123,
            "count" : 1626,
            "type" : "SCALAR"
        },
        {
            "bufferView" : 17,
            "componentType" : 5126,
            "count" : 752,
            "max" : [
                0.006180438678711653,
                0.03769329562783241,
                0.08225982636213303
            ],
            "min" : [
                1.3692218203686934e-07,
                -0.009065469726920128,
                -0.09141558408737183
            ],
            "type" : "VEC3"
        },
        {
            "bufferView" : 18,
            "componentType" : 5126,
            "count" : 752,
            "type" : "VEC3"
        },
        {
            "bufferView" : 19,
            "componentType" : 5126,
            "count" : 752,
            "type" : "VEC2"
        },
        {
            "bufferView" : 20,
            "componentType" : 5123,
            "count" : 1680,
            "type" : "SCALAR"
        }
    ],
    "bufferViews" : [
        {
            "buffer" : 0,
            "byteLength" : 9024,
            "byteOffset" : 0
        },
        {
            "buffer" : 0,
            "byteLength" : 9024,
            "byteOffset" : 9024
        },
        {
            "buffer" : 0,
            "byteLength" : 6016,
            "byteOffset" : 18048
        },
        {
            "buffer" : 0,
            "byteLength" : 3360,
            "byteOffset" : 24064
        },
        {
            "buffer" : 0,
            "byteLength" : 11997,
            "byteOffset" : 27424
        },
        {
            "buffer" : 0,
            "byteLength" : 7728,
            "byteOffset" : 39424
        },
        {
            "buffer" : 0,
            "byteLength" : 7728,
            "byteOffset" : 47152
        },
        {
            "buffer" : 0,
            "byteLength" : 5152,
            "byteOffset" : 54880
        },
        {
            "buffer" : 0,
            "byteLength" : 5760,
            "byteOffset" : 60032
        },
        {
            "buffer" : 0,
            "byteLength" : 7512,
            "byteOffset" : 65792
        },
        {
            "buffer" : 0,
            "byteLength" : 7512,
            "byteOffset" : 73304
        },
        {
            "buffer" : 0,
            "byteLength" : 5008,
            "byteOffset" : 80816
        },
        {
            "buffer" : 0,
            "byteLength" : 6336,
            "byteOffset" : 85824
        },
        {
            "buffer" : 0,
            "byteLength" : 5640,
            "byteOffset" : 92160
        },
        {
            "buffer" : 0,
            "byteLength" : 5640,
            "byteOffset" : 97800
        },
        {
            "buffer" : 0,
            "byteLength" : 3760,
            "byteOffset" : 103440
        },
        {
            "buffer" : 0,
            "byteLength" : 3252,
            "byteOffset" : 107200
        },
        {
            "buffer" : 0,
            "byteLength" : 9024,
            "byteOffset" : 110452
        },
        {
            "buffer" : 0,
            "byteLength" : 9024,
            "byteOffset" : 119476
        },
        {
            "buffer" : 0,
            "byteLength" : 6016,
            "byteOffset" : 128500
        },
        {
            "buffer" : 0,
            "byteLength" : 3360,
            "byteOffset" : 134516
        }
    ],
    "samplers" : [
        {
            "magFilter" : 9729,
            "minFilter" : 9987
        }
    ],
    "buffers" : [
        {
            "byteLength" : 137876,
            "uri" : "data:application/octet-stream;base64,"
        }
    ]
}
