{
    "asset" : {
        "copyright" : "Jeremy Edelblut",
        "generator" : "Khronos glTF Blender I/O v1.7.33",
        "version" : "2.0"
    },
    "scene" : 1,
    "scenes" : [
        {
            "name" : "FBX_Temp",
            "nodes" : [
                0
            ]
        },
        {
            "name" : "Scene",
            "nodes" : [
                1,
                2,
                3,
                4,
                5,
                6,
                7
            ]
        }
    ],
    "nodes" : [
        {
            "mesh" : 0,
            "name" : "3moji.064",
            "rotation" : [
                0,
                -0.7071068286895752,
                0,
                0.7071068286895752
            ]
        },
        {
            "mesh" : 1,
            "name" : "Circle.1926",
            "rotation" : [
                0.7071068286895752,
                0,
                0,
                0.7071068286895752
            ],
            "translation" : [
                0.0018541017780080438,
                -0.1376761645078659,
                -0.8461605310440063
            ]
        },
        {
            "mesh" : 2,
            "name" : "Cube.6256",
            "rotation" : [
                0,
                -0.7071068286895752,
                0,
                0.7071068286895752
            ],
            "translation" : [
                0,
                -0.1376761645078659,
                -0.8461605310440063
            ]
        },
        {
            "mesh" : 3,
            "name" : "Cube.6257",
            "rotation" : [
                0.0546233169734478,
                -0.7049939036369324,
                -0.0546233132481575,
                0.7049938440322876
            ],
            "translation" : [
                0,
                -0.4622177183628082,
                0.10235823690891266
            ]
        },
        {
            "mesh" : 4,
            "name" : "Cube.6258",
            "rotation" : [
                -0.7049938440322876,
                0.05462358891963959,
                -0.7049938440322876,
                0.05462302640080452
            ],
            "translation" : [
                0,
                -0.6766055226325989,
                0.03336920216679573
            ]
        },
        {
            "mesh" : 5,
            "name" : "Cube.6259",
            "rotation" : [
                0.6958518028259277,
                -0.1256595253944397,
                -0.695851743221283,
                0.1256595253944397
            ],
            "translation" : [
                0,
                -0.34698033332824707,
                0.5813878774642944
            ]
        },
        {
            "mesh" : 6,
            "name" : "Cylinder.364",
            "rotation" : [
                0,
                -0.7071068286895752,
                0,
                0.7071068286895752
            ],
            "translation" : [
                0,
                -0.1376761645078659,
                -0.8461605310440063
            ]
        },
        {
            "mesh" : 7,
            "name" : "3moji.org.236",
            "rotation" : [
                0.03378169238567352,
                0.7062994837760925,
                0.03378169983625412,
                0.7062992453575134
            ],
            "translation" : [
                -0.002671887632459402,
                -0.20926997065544128,
                -2.0399909019470215
            ]
        }
    ],
    "materials" : [
        {
            "doubleSided" : true,
            "name" : "color",
            "pbrMetallicRoughness" : {
                "baseColorTexture" : {
                    "index" : 0
                },
                "metallicFactor" : 0,
                "roughnessFactor" : 0.5
            }
        }
    ],
    "meshes" : [
        {
            "name" : "Cube.417",
            "primitives" : [
                {
                    "attributes" : {
                        "POSITION" : 0,
                        "NORMAL" : 1,
                        "TEXCOORD_0" : 2
                    },
                    "indices" : 3,
                    "material" : 0
                }
            ]
        },
        {
            "name" : "Circle.2143",
            "primitives" : [
                {
                    "attributes" : {
                        "POSITION" : 4,
                        "NORMAL" : 5,
                        "TEXCOORD_0" : 6
                    },
                    "indices" : 7,
                    "material" : 0
                }
            ]
        },
        {
            "name" : "Cube.7316",
            "primitives" : [
                {
                    "attributes" : {
                        "POSITION" : 8,
                        "NORMAL" : 9,
                        "TEXCOORD_0" : 10
                    },
                    "indices" : 11,
                    "material" : 0
                }
            ]
        },
        {
            "name" : "Cube.7317",
            "primitives" : [
                {
                    "attributes" : {
                        "POSITION" : 12,
                        "NORMAL" : 13,
                        "TEXCOORD_0" : 14
                    },
                    "indices" : 15,
                    "material" : 0
                }
            ]
        },
        {
            "name" : "Cube.7318",
            "primitives" : [
                {
                    "attributes" : {
                        "POSITION" : 16,
                        "NORMAL" : 17,
                        "TEXCOORD_0" : 18
                    },
                    "indices" : 19,
                    "material" : 0
                }
            ]
        },
        {
            "name" : "Cube.7319",
            "primitives" : [
                {
                    "attributes" : {
                        "POSITION" : 20,
                        "NORMAL" : 21,
                        "TEXCOORD_0" : 22
                    },
                    "indices" : 11,
                    "material" : 0
                }
            ]
        },
        {
            "name" : "Cylinder.350",
            "primitives" : [
                {
                    "attributes" : {
                        "POSITION" : 23,
                        "NORMAL" : 24,
                        "TEXCOORD_0" : 25
                    },
                    "indices" : 26,
                    "material" : 0
                }
            ]
        },
        {
            "name" : "Cube.700",
            "primitives" : [
                {
                    "attributes" : {
                        "POSITION" : 27,
                        "NORMAL" : 28,
                        "TEXCOORD_0" : 29
                    },
                    "indices" : 30,
                    "material" : 0
                }
            ]
        }
    ],
    "textures" : [
        {
            "sampler" : 0,
            "source" : 0
        }
    ],
    "images" : [
        {
            "bufferView" : 4,
            "mimeType" : "image/png",
            "name" : "tex"
        }
    ],
    "accessors" : [
        {
            "bufferView" : 0,
            "componentType" : 5126,
            "count" : 752,
            "max" : [
                -0.8264395594596863,
                0.05719918757677078,
                0.13795676827430725
            ],
            "min" : [
                -0.8543609976768494,
                -0.014034310355782509,
                -0.12436223030090332
            ],
            "type" : "VEC3"
        },
        {
            "bufferView" : 1,
            "componentType" : 5126,
            "count" : 752,
            "type" : "VEC3"
        },
        {
            "bufferView" : 2,
            "componentType" : 5126,
            "count" : 752,
            "type" : "VEC2"
        },
        {
            "bufferView" : 3,
            "componentType" : 5123,
            "count" : 1680,
            "type" : "SCALAR"
        },
        {
            "bufferView" : 5,
            "componentType" : 5126,
            "count" : 644,
            "max" : [
                0.59676194190979,
                1.1315412521362305,
                -0.14285624027252197
            ],
            "min" : [
                -0.59676194190979,
                0.9503440856933594,
                -0.5223100781440735
            ],
            "type" : "VEC3"
        },
        {
            "bufferView" : 6,
            "componentType" : 5126,
            "count" : 644,
            "type" : "VEC3"
        },
        {
            "bufferView" : 7,
            "componentType" : 5126,
            "count" : 644,
            "type" : "VEC2"
        },
        {
            "bufferView" : 8,
            "componentType" : 5123,
            "count" : 2880,
            "type" : "SCALAR"
        },
        {
            "bufferView" : 9,
            "componentType" : 5126,
            "count" : 386,
            "max" : [
                1.2070367336273193,
                1.2070367336273193,
                1.2070367336273193
            ],
            "min" : [
                -1.2070367336273193,
                -1.0103538036346436,
                -1.2070367336273193
            ],
            "type" : "VEC3"
        },
        {
            "bufferView" : 10,
            "componentType" : 5126,
            "count" : 386,
            "type" : "VEC3"
        },
        {
            "bufferView" : 11,
            "componentType" : 5126,
            "count" : 386,
            "type" : "VEC2"
        },
        {
            "bufferView" : 12,
            "componentType" : 5123,
            "count" : 2304,
            "type" : "SCALAR"
        },
        {
            "bufferView" : 13,
            "componentType" : 5126,
            "count" : 209,
            "max" : [
                0.5602729916572571,
                0.3908340036869049,
                0.5950700640678406
            ],
            "min" : [
                0.028987601399421692,
                -0.35950207710266113,
                -0.5950700640678406
            ],
            "type" : "VEC3"
        },
        {
            "bufferView" : 14,
            "componentType" : 5126,
            "count" : 209,
            "type" : "VEC3"
        },
        {
            "bufferView" : 15,
            "componentType" : 5126,
            "count" : 209,
            "type" : "VEC2"
        },
        {
            "bufferView" : 16,
            "componentType" : 5123,
            "count" : 1152,
            "type" : "SCALAR"
        },
        {
            "bufferView" : 17,
            "componentType" : 5126,
            "count" : 79,
            "max" : [
                0.35249999165534973,
                0.25205937027931213,
                0.3680853545665741
            ],
            "min" : [
                0.08643742650747299,
                0.03285999223589897,
                -0.3680853545665741
            ],
            "type" : "VEC3"
        },
        {
            "bufferView" : 18,
            "componentType" : 5126,
            "count" : 79,
            "type" : "VEC3"
        },
        {
            "bufferView" : 19,
            "componentType" : 5126,
            "count" : 79,
            "type" : "VEC2"
        },
        {
            "bufferView" : 20,
            "componentType" : 5123,
            "count" : 384,
            "type" : "SCALAR"
        },
        {
            "bufferView" : 21,
            "componentType" : 5126,
            "count" : 386,
            "max" : [
                0.1050543561577797,
                0.15853682160377502,
                0.23843562602996826
            ],
            "min" : [
                -0.1050543561577797,
                -0.15853682160377502,
                -0.23843562602996826
            ],
            "type" : "VEC3"
        },
        {
            "bufferView" : 22,
            "componentType" : 5126,
            "count" : 386,
            "type" : "VEC3"
        },
        {
            "bufferView" : 23,
            "componentType" : 5126,
            "count" : 386,
            "type" : "VEC2"
        },
        {
            "bufferView" : 24,
            "componentType" : 5126,
            "count" : 320,
            "max" : [
                0.14223212003707886,
                1.4016201496124268,
                1.0891056060791016
            ],
            "min" : [
                -0.14445829391479492,
                0.5262367725372314,
                -1.0891056060791016
            ],
            "type" : "VEC3"
        },
        {
            "bufferView" : 25,
            "componentType" : 5126,
            "count" : 320,
            "type" : "VEC3"
        },
        {
            "bufferView" : 26,
            "componentType" : 5126,
            "count" : 320,
            "type" : "VEC2"
        },
        {
            "bufferView" : 27,
            "componentType" : 5123,
            "count" : 936,
            "type" : "SCALAR"
        },
        {
            "bufferView" : 28,
            "componentType" : 5126,
            "count" : 752,
            "max" : [
                0.006806493271142244,
                0.041511476039886475,
                0.09059242159128189
            ],
            "min" : [
                1.507918767629235e-07,
                -0.00998376589268446,
                -0.10067562013864517
            ],
            "type" : "VEC3"
        },
        {
            "bufferView" : 29,
            "componentType" : 5126,
            "count" : 752,
            "type" : "VEC3"
        },
        {
            "bufferView" : 30,
            "componentType" : 5126,
            "count" : 752,
            "type" : "VEC2"
        },
        {
            "bufferView" : 31,
            "componentType" : 5123,
            "count" : 1680,
            "type" : "SCALAR"
        }
    ],
    "bufferViews" : [
        {
            "buffer" : 0,
            "byteLength" : 9024,
            "byteOffset" : 0
        },
        {
            "buffer" : 0,
            "byteLength" : 9024,
            "byteOffset" : 9024
        },
        {
            "buffer" : 0,
            "byteLength" : 6016,
            "byteOffset" : 18048
        },
        {
            "buffer" : 0,
            "byteLength" : 3360,
            "byteOffset" : 24064
        },
        {
            "buffer" : 0,
            "byteLength" : 11997,
            "byteOffset" : 27424
        },
        {
            "buffer" : 0,
            "byteLength" : 7728,
            "byteOffset" : 39424
        },
        {
            "buffer" : 0,
            "byteLength" : 7728,
            "byteOffset" : 47152
        },
        {
            "buffer" : 0,
            "byteLength" : 5152,
            "byteOffset" : 54880
        },
        {
            "buffer" : 0,
            "byteLength" : 5760,
            "byteOffset" : 60032
        },
        {
            "buffer" : 0,
            "byteLength" : 4632,
            "byteOffset" : 65792
        },
        {
            "buffer" : 0,
            "byteLength" : 4632,
            "byteOffset" : 70424
        },
        {
            "buffer" : 0,
            "byteLength" : 3088,
            "byteOffset" : 75056
        },
        {
            "buffer" : 0,
            "byteLength" : 4608,
            "byteOffset" : 78144
        },
        {
            "buffer" : 0,
            "byteLength" : 2508,
            "byteOffset" : 82752
        },
        {
            "buffer" : 0,
            "byteLength" : 2508,
            "byteOffset" : 85260
        },
        {
            "buffer" : 0,
            "byteLength" : 1672,
            "byteOffset" : 87768
        },
        {
            "buffer" : 0,
            "byteLength" : 2304,
            "byteOffset" : 89440
        },
        {
            "buffer" : 0,
            "byteLength" : 948,
            "byteOffset" : 91744
        },
        {
            "buffer" : 0,
            "byteLength" : 948,
            "byteOffset" : 92692
        },
        {
            "buffer" : 0,
            "byteLength" : 632,
            "byteOffset" : 93640
        },
        {
            "buffer" : 0,
            "byteLength" : 768,
            "byteOffset" : 94272
        },
        {
            "buffer" : 0,
            "byteLength" : 4632,
            "byteOffset" : 95040
        },
        {
            "buffer" : 0,
            "byteLength" : 4632,
            "byteOffset" : 99672
        },
        {
            "buffer" : 0,
            "byteLength" : 3088,
            "byteOffset" : 104304
        },
        {
            "buffer" : 0,
            "byteLength" : 3840,
            "byteOffset" : 107392
        },
        {
            "buffer" : 0,
            "byteLength" : 3840,
            "byteOffset" : 111232
        },
        {
            "buffer" : 0,
            "byteLength" : 2560,
            "byteOffset" : 115072
        },
        {
            "buffer" : 0,
            "byteLength" : 1872,
            "byteOffset" : 117632
        },
        {
            "buffer" : 0,
            "byteLength" : 9024,
            "byteOffset" : 119504
        },
        {
            "buffer" : 0,
            "byteLength" : 9024,
            "byteOffset" : 128528
        },
        {
            "buffer" : 0,
            "byteLength" : 6016,
            "byteOffset" : 137552
        },
        {
            "buffer" : 0,
            "byteLength" : 3360,
            "byteOffset" : 143568
        }
    ],
    "samplers" : [
        {
            "magFilter" : 9729,
            "minFilter" : 9987
        }
    ],
    "buffers" : [
        {
            "byteLength" : 146928,
            "uri" : "data:application/octet-stream;base64,"
        }
    ]
}
