{
    "asset" : {
        "copyright" : "Jeremy Edelblut",
        "generator" : "Khronos glTF Blender I/O v1.6.16",
        "version" : "2.0"
    },
    "scene" : 0,
    "scenes" : [
        {
            "name" : "Scene",
            "nodes" : [
                0,
                1,
                2
            ]
        }
    ],
    "nodes" : [
        {
            "mesh" : 0,
            "name" : "Circle.2396",
            "scale" : [
                1.3200000524520874,
                1.3200000524520874,
                1.3200000524520874
            ],
            "translation" : [
                0,
                -0.7630765438079834,
                0
            ]
        },
        {
            "mesh" : 1,
            "name" : "Plane.235",
            "rotation" : [
                0,
                0,
                -0.03295302763581276,
                0.9994570016860962
            ],
            "scale" : [
                1.5138713121414185,
                1.5138713121414185,
                1.5138710737228394
            ],
            "translation" : [
                0.10113278031349182,
                0.21553882956504822,
                0
            ]
        },
        {
            "mesh" : 2,
            "name" : "Plane.236",
            "rotation" : [
                0,
                1,
                0,
                -1.6292068494294654e-07
            ],
            "scale" : [
                1.4552910327911377,
                1.4552910327911377,
                1.4552910327911377
            ],
            "translation" : [
                -0.08998262882232666,
                0.19775725901126862,
                0
            ]
        }
    ],
    "materials" : [
        {
            "doubleSided" : true,
            "name" : "Color",
            "pbrMetallicRoughness" : {
                "baseColorTexture" : {
                    "index" : 0
                },
                "metallicFactor" : 0,
                "roughnessFactor" : 0.5
            }
        }
    ],
    "meshes" : [
        {
            "name" : "Circle.2955",
            "primitives" : [
                {
                    "attributes" : {
                        "POSITION" : 0,
                        "NORMAL" : 1,
                        "TEXCOORD_0" : 2
                    },
                    "indices" : 3,
                    "material" : 0
                }
            ]
        },
        {
            "name" : "Plane.240",
            "primitives" : [
                {
                    "attributes" : {
                        "POSITION" : 4,
                        "NORMAL" : 5,
                        "TEXCOORD_0" : 6
                    },
                    "indices" : 7,
                    "material" : 0
                }
            ]
        },
        {
            "name" : "Plane.241",
            "primitives" : [
                {
                    "attributes" : {
                        "POSITION" : 8,
                        "NORMAL" : 9,
                        "TEXCOORD_0" : 10
                    },
                    "indices" : 11,
                    "material" : 0
                }
            ]
        }
    ],
    "textures" : [
        {
            "sampler" : 0,
            "source" : 0
        }
    ],
    "images" : [
        {
            "bufferView" : 4,
            "mimeType" : "image/png",
            "name" : "tex2"
        }
    ],
    "accessors" : [
        {
            "bufferView" : 0,
            "componentType" : 5126,
            "count" : 386,
            "max" : [
                0.8859687447547913,
                1.3252931833267212,
                0.8859687447547913
            ],
            "min" : [
                -0.8859687447547913,
                0.015382351353764534,
                -0.8859687447547913
            ],
            "type" : "VEC3"
        },
        {
            "bufferView" : 1,
            "componentType" : 5126,
            "count" : 386,
            "type" : "VEC3"
        },
        {
            "bufferView" : 2,
            "componentType" : 5126,
            "count" : 386,
            "type" : "VEC2"
        },
        {
            "bufferView" : 3,
            "componentType" : 5123,
            "count" : 1728,
            "type" : "SCALAR"
        },
        {
            "bufferView" : 5,
            "componentType" : 5126,
            "count" : 288,
            "max" : [
                0.36395516991615295,
                0.40727436542510986,
                -0.33839327096939087
            ],
            "min" : [
                -0.493249773979187,
                -0.3457099497318268,
                -0.6144240498542786
            ],
            "type" : "VEC3"
        },
        {
            "bufferView" : 6,
            "componentType" : 5126,
            "count" : 288,
            "type" : "VEC3"
        },
        {
            "bufferView" : 7,
            "componentType" : 5126,
            "count" : 288,
            "type" : "VEC2"
        },
        {
            "bufferView" : 8,
            "componentType" : 5123,
            "count" : 852,
            "type" : "SCALAR"
        },
        {
            "bufferView" : 9,
            "componentType" : 5126,
            "count" : 288,
            "max" : [
                0.3624380826950073,
                0.4044169783592224,
                -0.38253071904182434
            ],
            "min" : [
                -0.4919845163822174,
                -0.3457099199295044,
                -0.6395776271820068
            ],
            "type" : "VEC3"
        },
        {
            "bufferView" : 10,
            "componentType" : 5126,
            "count" : 288,
            "type" : "VEC3"
        },
        {
            "bufferView" : 11,
            "componentType" : 5126,
            "count" : 288,
            "type" : "VEC2"
        },
        {
            "bufferView" : 12,
            "componentType" : 5123,
            "count" : 852,
            "type" : "SCALAR"
        }
    ],
    "bufferViews" : [
        {
            "buffer" : 0,
            "byteLength" : 4632,
            "byteOffset" : 0
        },
        {
            "buffer" : 0,
            "byteLength" : 4632,
            "byteOffset" : 4632
        },
        {
            "buffer" : 0,
            "byteLength" : 3088,
            "byteOffset" : 9264
        },
        {
            "buffer" : 0,
            "byteLength" : 3456,
            "byteOffset" : 12352
        },
        {
            "buffer" : 0,
            "byteLength" : 6474,
            "byteOffset" : 15808
        },
        {
            "buffer" : 0,
            "byteLength" : 3456,
            "byteOffset" : 22284
        },
        {
            "buffer" : 0,
            "byteLength" : 3456,
            "byteOffset" : 25740
        },
        {
            "buffer" : 0,
            "byteLength" : 2304,
            "byteOffset" : 29196
        },
        {
            "buffer" : 0,
            "byteLength" : 1704,
            "byteOffset" : 31500
        },
        {
            "buffer" : 0,
            "byteLength" : 3456,
            "byteOffset" : 33204
        },
        {
            "buffer" : 0,
            "byteLength" : 3456,
            "byteOffset" : 36660
        },
        {
            "buffer" : 0,
            "byteLength" : 2304,
            "byteOffset" : 40116
        },
        {
            "buffer" : 0,
            "byteLength" : 1704,
            "byteOffset" : 42420
        }
    ],
    "samplers" : [
        {
            "magFilter" : 9729,
            "minFilter" : 9987
        }
    ],
    "buffers" : [
        {
            "byteLength" : 44124,
            "uri" : "data:application/octet-stream;base64,"
        }
    ]
}
