{
    "asset" : {
        "copyright" : "Jeremy Edelblut",
        "generator" : "Khronos glTF Blender I/O v1.7.33",
        "version" : "2.0"
    },
    "scene" : 0,
    "scenes" : [
        {
            "name" : "Scene",
            "nodes" : [
                0
            ]
        }
    ],
    "nodes" : [
        {
            "mesh" : 0,
            "name" : "Torus.003",
            "rotation" : [
                0.7071068286895752,
                0,
                0,
                0.7071068286895752
            ],
            "scale" : [
                0.8447999358177185,
                0.8447999358177185,
                0.8447999358177185
            ]
        }
    ],
    "materials" : [
        {
            "doubleSided" : true,
            "name" : "color",
            "pbrMetallicRoughness" : {
                "baseColorTexture" : {
                    "index" : 0
                },
                "metallicFactor" : 0,
                "roughnessFactor" : 0.5
            }
        },
        {
            "alphaMode" : "BLEND",
            "doubleSided" : true,
            "name" : "Transparent",
            "pbrMetallicRoughness" : {
                "baseColorFactor" : [
                    0.9072647094726562,
                    0.9472811222076416,
                    1,
                    0.10000000149011612
                ],
                "metallicFactor" : 0,
                "roughnessFactor" : 0.05000000447034836
            }
        }
    ],
    "meshes" : [
        {
            "name" : "Torus.003",
            "primitives" : [
                {
                    "attributes" : {
                        "POSITION" : 0,
                        "NORMAL" : 1,
                        "TEXCOORD_0" : 2
                    },
                    "indices" : 3,
                    "material" : 0
                },
                {
                    "attributes" : {
                        "POSITION" : 4,
                        "NORMAL" : 5,
                        "TEXCOORD_0" : 6
                    },
                    "indices" : 7,
                    "material" : 1
                }
            ]
        }
    ],
    "textures" : [
        {
            "sampler" : 0,
            "source" : 0
        }
    ],
    "images" : [
        {
            "bufferView" : 4,
            "mimeType" : "image/png",
            "name" : "tex"
        }
    ],
    "accessors" : [
        {
            "bufferView" : 0,
            "componentType" : 5126,
            "count" : 1346,
            "max" : [
                0.8184874057769775,
                0.4071059823036194,
                1.1916003227233887
            ],
            "min" : [
                -0.8490828275680542,
                -0.4071063995361328,
                -1.3268088102340698
            ],
            "type" : "VEC3"
        },
        {
            "bufferView" : 1,
            "componentType" : 5126,
            "count" : 1346,
            "type" : "VEC3"
        },
        {
            "bufferView" : 2,
            "componentType" : 5126,
            "count" : 1346,
            "type" : "VEC2"
        },
        {
            "bufferView" : 3,
            "componentType" : 5123,
            "count" : 6276,
            "type" : "SCALAR"
        },
        {
            "bufferView" : 5,
            "componentType" : 5126,
            "count" : 113,
            "max" : [
                -0.13432863354682922,
                0.3788794279098511,
                1.3020776510238647
            ],
            "min" : [
                -0.8920875787734985,
                -0.3788794279098511,
                0.5184212923049927
            ],
            "type" : "VEC3"
        },
        {
            "bufferView" : 6,
            "componentType" : 5126,
            "count" : 113,
            "type" : "VEC3"
        },
        {
            "bufferView" : 7,
            "componentType" : 5126,
            "count" : 113,
            "type" : "VEC2"
        },
        {
            "bufferView" : 8,
            "componentType" : 5123,
            "count" : 336,
            "type" : "SCALAR"
        }
    ],
    "bufferViews" : [
        {
            "buffer" : 0,
            "byteLength" : 16152,
            "byteOffset" : 0
        },
        {
            "buffer" : 0,
            "byteLength" : 16152,
            "byteOffset" : 16152
        },
        {
            "buffer" : 0,
            "byteLength" : 10768,
            "byteOffset" : 32304
        },
        {
            "buffer" : 0,
            "byteLength" : 12552,
            "byteOffset" : 43072
        },
        {
            "buffer" : 0,
            "byteLength" : 11997,
            "byteOffset" : 55624
        },
        {
            "buffer" : 0,
            "byteLength" : 1356,
            "byteOffset" : 67624
        },
        {
            "buffer" : 0,
            "byteLength" : 1356,
            "byteOffset" : 68980
        },
        {
            "buffer" : 0,
            "byteLength" : 904,
            "byteOffset" : 70336
        },
        {
            "buffer" : 0,
            "byteLength" : 672,
            "byteOffset" : 71240
        }
    ],
    "samplers" : [
        {
            "magFilter" : 9729,
            "minFilter" : 9987
        }
    ],
    "buffers" : [
        {
            "byteLength" : 71912,
            "uri" : "data:application/octet-stream;base64,"
        }
    ]
}
