{
    "asset" : {
        "copyright" : "Jeremy Edelblut",
        "generator" : "Khronos glTF Blender I/O v1.7.33",
        "version" : "2.0"
    },
    "scene" : 0,
    "scenes" : [
        {
            "name" : "Scene",
            "nodes" : [
                0,
                1,
                2,
                3,
                4,
                5,
                6,
                7,
                8,
                9
            ]
        }
    ],
    "nodes" : [
        {
            "mesh" : 0,
            "name" : "Circle.2056",
            "rotation" : [
                0,
                -0.7071068286895752,
                0,
                0.7071068286895752
            ],
            "scale" : [
                0.46035274863243103,
                0.46035274863243103,
                0.46035274863243103
            ],
            "translation" : [
                -0.0021272688172757626,
                -1.2876167297363281,
                -0.00182018568739295
            ]
        },
        {
            "mesh" : 1,
            "name" : "Circle.2057",
            "rotation" : [
                -0.017037000507116318,
                -0.7069015502929688,
                -0.01703699119389057,
                0.706901490688324
            ],
            "scale" : [
                0.057627495378255844,
                0.05762749910354614,
                0.05762749910354614
            ],
            "translation" : [
                0.10147508233785629,
                0.140371173620224,
                -0.003594696754589677
            ]
        },
        {
            "mesh" : 2,
            "name" : "Circle.2058",
            "rotation" : [
                -0.37894943356513977,
                0.6879724860191345,
                0.17254352569580078,
                0.5944072008132935
            ],
            "scale" : [
                0.14141705632209778,
                0.1414170265197754,
                0.1414170116186142
            ],
            "translation" : [
                0.05798114836215973,
                0.6752633452415466,
                -0.006149054039269686
            ]
        },
        {
            "mesh" : 3,
            "name" : "Circle.2059",
            "rotation" : [
                -0.18752597272396088,
                -0.666755199432373,
                0.18479454517364502,
                0.6972248554229736
            ],
            "scale" : [
                0.13059119880199432,
                0.13059109449386597,
                0.13059113919734955
            ],
            "translation" : [
                0.13370193541049957,
                0.3798660933971405,
                -0.0019259602995589375
            ]
        },
        {
            "mesh" : 4,
            "name" : "Circle.2060",
            "rotation" : [
                -0.2237805724143982,
                0.7465424537658691,
                -0.06161770597100258,
                0.6235381960868835
            ],
            "scale" : [
                0.13931874930858612,
                0.13931874930858612,
                0.13931871950626373
            ],
            "translation" : [
                0.14865176379680634,
                0.3891245722770691,
                -0.00614904472604394
            ]
        },
        {
            "mesh" : 5,
            "name" : "Circle.2061",
            "rotation" : [
                -0.3065710961818695,
                -0.7082356214523315,
                0.10879077017307281,
                0.6265628337860107
            ],
            "scale" : [
                0.1560189574956894,
                0.15601889789104462,
                0.1560189127922058
            ],
            "translation" : [
                0.010595167055726051,
                -0.0026792436838150024,
                0.005343665834516287
            ]
        },
        {
            "mesh" : 6,
            "name" : "Circle.2062",
            "rotation" : [
                -0.15785084664821625,
                0.760628342628479,
                -0.17202553153038025,
                0.6057514548301697
            ],
            "scale" : [
                0.13931874930858612,
                0.13931871950626373,
                0.13931876420974731
            ],
            "translation" : [
                0.08460784703493118,
                0.06308291107416153,
                -0.006149054039269686
            ]
        },
        {
            "mesh" : 7,
            "name" : "Circle.2063",
            "rotation" : [
                0.018470389768481255,
                -0.7172428965568542,
                -0.023133842274546623,
                0.6961942315101624
            ],
            "scale" : [
                0.1271335482597351,
                0.1271335333585739,
                0.1271335333585739
            ],
            "translation" : [
                0.040347788482904434,
                0.7005025744438171,
                -0.001925964723341167
            ]
        },
        {
            "mesh" : 8,
            "name" : "Circle.2064",
            "rotation" : [
                -0.14538751542568207,
                0.07553467899560928,
                -0.34128537774086,
                0.9255707859992981
            ],
            "scale" : [
                0.14141707122325897,
                0.14141704142093658,
                0.14141707122325897
            ],
            "translation" : [
                0.09548287093639374,
                0.5766128301620483,
                -0.002504414413124323
            ]
        },
        {
            "mesh" : 9,
            "name" : "Circle.2065",
            "rotation" : [
                -0.552901566028595,
                0.7906997203826904,
                -0.09687957912683487,
                0.2443525791168213
            ],
            "scale" : [
                0.14141707122325897,
                0.14141705632209778,
                0.14141704142093658
            ],
            "translation" : [
                0.11747818440198898,
                0.20462220907211304,
                -0.004655858967453241
            ]
        }
    ],
    "materials" : [
        {
            "doubleSided" : true,
            "name" : "color",
            "pbrMetallicRoughness" : {
                "baseColorTexture" : {
                    "index" : 0
                },
                "metallicFactor" : 0,
                "roughnessFactor" : 0.5
            }
        }
    ],
    "meshes" : [
        {
            "name" : "Circle.2405",
            "primitives" : [
                {
                    "attributes" : {
                        "POSITION" : 0,
                        "NORMAL" : 1,
                        "TEXCOORD_0" : 2
                    },
                    "indices" : 3,
                    "material" : 0
                }
            ]
        },
        {
            "name" : "Circle.2406",
            "primitives" : [
                {
                    "attributes" : {
                        "POSITION" : 4,
                        "NORMAL" : 5,
                        "TEXCOORD_0" : 6
                    },
                    "indices" : 7,
                    "material" : 0
                }
            ]
        },
        {
            "name" : "Circle.2407",
            "primitives" : [
                {
                    "attributes" : {
                        "POSITION" : 8,
                        "NORMAL" : 9,
                        "TEXCOORD_0" : 10
                    },
                    "indices" : 11,
                    "material" : 0
                }
            ]
        },
        {
            "name" : "Circle.2408",
            "primitives" : [
                {
                    "attributes" : {
                        "POSITION" : 12,
                        "NORMAL" : 13,
                        "TEXCOORD_0" : 14
                    },
                    "indices" : 15,
                    "material" : 0
                }
            ]
        },
        {
            "name" : "Circle.2409",
            "primitives" : [
                {
                    "attributes" : {
                        "POSITION" : 16,
                        "NORMAL" : 17,
                        "TEXCOORD_0" : 18
                    },
                    "indices" : 11,
                    "material" : 0
                }
            ]
        },
        {
            "name" : "Circle.2410",
            "primitives" : [
                {
                    "attributes" : {
                        "POSITION" : 19,
                        "NORMAL" : 20,
                        "TEXCOORD_0" : 21
                    },
                    "indices" : 15,
                    "material" : 0
                }
            ]
        },
        {
            "name" : "Circle.2411",
            "primitives" : [
                {
                    "attributes" : {
                        "POSITION" : 22,
                        "NORMAL" : 23,
                        "TEXCOORD_0" : 24
                    },
                    "indices" : 11,
                    "material" : 0
                }
            ]
        },
        {
            "name" : "Circle.2412",
            "primitives" : [
                {
                    "attributes" : {
                        "POSITION" : 25,
                        "NORMAL" : 26,
                        "TEXCOORD_0" : 27
                    },
                    "indices" : 15,
                    "material" : 0
                }
            ]
        },
        {
            "name" : "Circle.2413",
            "primitives" : [
                {
                    "attributes" : {
                        "POSITION" : 28,
                        "NORMAL" : 29,
                        "TEXCOORD_0" : 30
                    },
                    "indices" : 11,
                    "material" : 0
                }
            ]
        },
        {
            "name" : "Circle.2414",
            "primitives" : [
                {
                    "attributes" : {
                        "POSITION" : 31,
                        "NORMAL" : 32,
                        "TEXCOORD_0" : 33
                    },
                    "indices" : 11,
                    "material" : 0
                }
            ]
        }
    ],
    "textures" : [
        {
            "sampler" : 0,
            "source" : 0
        }
    ],
    "images" : [
        {
            "bufferView" : 4,
            "mimeType" : "image/png",
            "name" : "tex"
        }
    ],
    "accessors" : [
        {
            "bufferView" : 0,
            "componentType" : 5126,
            "count" : 674,
            "max" : [
                1.3676185607910156,
                2.516082763671875,
                1.3676185607910156
            ],
            "min" : [
                -1.3676185607910156,
                0.6114034056663513,
                -1.3676185607910156
            ],
            "type" : "VEC3"
        },
        {
            "bufferView" : 1,
            "componentType" : 5126,
            "count" : 674,
            "type" : "VEC3"
        },
        {
            "bufferView" : 2,
            "componentType" : 5126,
            "count" : 674,
            "type" : "VEC2"
        },
        {
            "bufferView" : 3,
            "componentType" : 5123,
            "count" : 2496,
            "type" : "SCALAR"
        },
        {
            "bufferView" : 5,
            "componentType" : 5126,
            "count" : 368,
            "max" : [
                0.6071347594261169,
                10.894644737243652,
                2.546314239501953
            ],
            "min" : [
                -0.6071346998214722,
                -6.486443996429443,
                -1.0253820419311523
            ],
            "type" : "VEC3"
        },
        {
            "bufferView" : 6,
            "componentType" : 5126,
            "count" : 368,
            "type" : "VEC3"
        },
        {
            "bufferView" : 7,
            "componentType" : 5126,
            "count" : 368,
            "type" : "VEC2"
        },
        {
            "bufferView" : 8,
            "componentType" : 5123,
            "count" : 2004,
            "type" : "SCALAR"
        },
        {
            "bufferView" : 9,
            "componentType" : 5126,
            "count" : 174,
            "max" : [
                0.02457534894347191,
                1.245680809020996,
                4.694853782653809
            ],
            "min" : [
                -0.6544663310050964,
                -0.7543193697929382,
                -0.01815042272210121
            ],
            "type" : "VEC3"
        },
        {
            "bufferView" : 10,
            "componentType" : 5126,
            "count" : 174,
            "type" : "VEC3"
        },
        {
            "bufferView" : 11,
            "componentType" : 5126,
            "count" : 174,
            "type" : "VEC2"
        },
        {
            "bufferView" : 12,
            "componentType" : 5123,
            "count" : 480,
            "type" : "SCALAR"
        },
        {
            "bufferView" : 13,
            "componentType" : 5126,
            "count" : 174,
            "max" : [
                0.46877816319465637,
                1.2185640335083008,
                4.690179824829102
            ],
            "min" : [
                -0.4147399961948395,
                -0.781436026096344,
                -0.02289368212223053
            ],
            "type" : "VEC3"
        },
        {
            "bufferView" : 14,
            "componentType" : 5126,
            "count" : 174,
            "type" : "VEC3"
        },
        {
            "bufferView" : 15,
            "componentType" : 5126,
            "count" : 174,
            "type" : "VEC2"
        },
        {
            "bufferView" : 16,
            "componentType" : 5123,
            "count" : 480,
            "type" : "SCALAR"
        },
        {
            "bufferView" : 17,
            "componentType" : 5126,
            "count" : 174,
            "max" : [
                0.02457534894347191,
                1.245680809020996,
                4.694853782653809
            ],
            "min" : [
                -0.6544663310050964,
                -0.7543193697929382,
                -0.01815042272210121
            ],
            "type" : "VEC3"
        },
        {
            "bufferView" : 18,
            "componentType" : 5126,
            "count" : 174,
            "type" : "VEC3"
        },
        {
            "bufferView" : 19,
            "componentType" : 5126,
            "count" : 174,
            "type" : "VEC2"
        },
        {
            "bufferView" : 20,
            "componentType" : 5126,
            "count" : 174,
            "max" : [
                0.46877816319465637,
                1.2185640335083008,
                4.690179824829102
            ],
            "min" : [
                -0.4147399961948395,
                -0.781436026096344,
                -0.02289368212223053
            ],
            "type" : "VEC3"
        },
        {
            "bufferView" : 21,
            "componentType" : 5126,
            "count" : 174,
            "type" : "VEC3"
        },
        {
            "bufferView" : 22,
            "componentType" : 5126,
            "count" : 174,
            "type" : "VEC2"
        },
        {
            "bufferView" : 23,
            "componentType" : 5126,
            "count" : 174,
            "max" : [
                0.02457534894347191,
                1.245680809020996,
                4.694853782653809
            ],
            "min" : [
                -0.6544663310050964,
                -0.7543193697929382,
                -0.01815042272210121
            ],
            "type" : "VEC3"
        },
        {
            "bufferView" : 24,
            "componentType" : 5126,
            "count" : 174,
            "type" : "VEC3"
        },
        {
            "bufferView" : 25,
            "componentType" : 5126,
            "count" : 174,
            "type" : "VEC2"
        },
        {
            "bufferView" : 26,
            "componentType" : 5126,
            "count" : 174,
            "max" : [
                0.46877816319465637,
                1.2185640335083008,
                4.690179824829102
            ],
            "min" : [
                -0.4147399961948395,
                -0.781436026096344,
                -0.02289368212223053
            ],
            "type" : "VEC3"
        },
        {
            "bufferView" : 27,
            "componentType" : 5126,
            "count" : 174,
            "type" : "VEC3"
        },
        {
            "bufferView" : 28,
            "componentType" : 5126,
            "count" : 174,
            "type" : "VEC2"
        },
        {
            "bufferView" : 29,
            "componentType" : 5126,
            "count" : 174,
            "max" : [
                0.02457534894347191,
                1.245680809020996,
                4.694853782653809
            ],
            "min" : [
                -0.6544663310050964,
                -0.7543193697929382,
                -0.01815042272210121
            ],
            "type" : "VEC3"
        },
        {
            "bufferView" : 30,
            "componentType" : 5126,
            "count" : 174,
            "type" : "VEC3"
        },
        {
            "bufferView" : 31,
            "componentType" : 5126,
            "count" : 174,
            "type" : "VEC2"
        },
        {
            "bufferView" : 32,
            "componentType" : 5126,
            "count" : 174,
            "max" : [
                0.02457534894347191,
                1.245680809020996,
                4.694853782653809
            ],
            "min" : [
                -0.6544663310050964,
                -0.7543193697929382,
                -0.01815042272210121
            ],
            "type" : "VEC3"
        },
        {
            "bufferView" : 33,
            "componentType" : 5126,
            "count" : 174,
            "type" : "VEC3"
        },
        {
            "bufferView" : 34,
            "componentType" : 5126,
            "count" : 174,
            "type" : "VEC2"
        }
    ],
    "bufferViews" : [
        {
            "buffer" : 0,
            "byteLength" : 8088,
            "byteOffset" : 0
        },
        {
            "buffer" : 0,
            "byteLength" : 8088,
            "byteOffset" : 8088
        },
        {
            "buffer" : 0,
            "byteLength" : 5392,
            "byteOffset" : 16176
        },
        {
            "buffer" : 0,
            "byteLength" : 4992,
            "byteOffset" : 21568
        },
        {
            "buffer" : 0,
            "byteLength" : 11997,
            "byteOffset" : 26560
        },
        {
            "buffer" : 0,
            "byteLength" : 4416,
            "byteOffset" : 38560
        },
        {
            "buffer" : 0,
            "byteLength" : 4416,
            "byteOffset" : 42976
        },
        {
            "buffer" : 0,
            "byteLength" : 2944,
            "byteOffset" : 47392
        },
        {
            "buffer" : 0,
            "byteLength" : 4008,
            "byteOffset" : 50336
        },
        {
            "buffer" : 0,
            "byteLength" : 2088,
            "byteOffset" : 54344
        },
        {
            "buffer" : 0,
            "byteLength" : 2088,
            "byteOffset" : 56432
        },
        {
            "buffer" : 0,
            "byteLength" : 1392,
            "byteOffset" : 58520
        },
        {
            "buffer" : 0,
            "byteLength" : 960,
            "byteOffset" : 59912
        },
        {
            "buffer" : 0,
            "byteLength" : 2088,
            "byteOffset" : 60872
        },
        {
            "buffer" : 0,
            "byteLength" : 2088,
            "byteOffset" : 62960
        },
        {
            "buffer" : 0,
            "byteLength" : 1392,
            "byteOffset" : 65048
        },
        {
            "buffer" : 0,
            "byteLength" : 960,
            "byteOffset" : 66440
        },
        {
            "buffer" : 0,
            "byteLength" : 2088,
            "byteOffset" : 67400
        },
        {
            "buffer" : 0,
            "byteLength" : 2088,
            "byteOffset" : 69488
        },
        {
            "buffer" : 0,
            "byteLength" : 1392,
            "byteOffset" : 71576
        },
        {
            "buffer" : 0,
            "byteLength" : 2088,
            "byteOffset" : 72968
        },
        {
            "buffer" : 0,
            "byteLength" : 2088,
            "byteOffset" : 75056
        },
        {
            "buffer" : 0,
            "byteLength" : 1392,
            "byteOffset" : 77144
        },
        {
            "buffer" : 0,
            "byteLength" : 2088,
            "byteOffset" : 78536
        },
        {
            "buffer" : 0,
            "byteLength" : 2088,
            "byteOffset" : 80624
        },
        {
            "buffer" : 0,
            "byteLength" : 1392,
            "byteOffset" : 82712
        },
        {
            "buffer" : 0,
            "byteLength" : 2088,
            "byteOffset" : 84104
        },
        {
            "buffer" : 0,
            "byteLength" : 2088,
            "byteOffset" : 86192
        },
        {
            "buffer" : 0,
            "byteLength" : 1392,
            "byteOffset" : 88280
        },
        {
            "buffer" : 0,
            "byteLength" : 2088,
            "byteOffset" : 89672
        },
        {
            "buffer" : 0,
            "byteLength" : 2088,
            "byteOffset" : 91760
        },
        {
            "buffer" : 0,
            "byteLength" : 1392,
            "byteOffset" : 93848
        },
        {
            "buffer" : 0,
            "byteLength" : 2088,
            "byteOffset" : 95240
        },
        {
            "buffer" : 0,
            "byteLength" : 2088,
            "byteOffset" : 97328
        },
        {
            "buffer" : 0,
            "byteLength" : 1392,
            "byteOffset" : 99416
        }
    ],
    "samplers" : [
        {
            "magFilter" : 9729,
            "minFilter" : 9987
        }
    ],
    "buffers" : [
        {
            "byteLength" : 100808,
            "uri" : "data:application/octet-stream;base64,"
        }
    ]
}
