{
    "asset" : {
        "copyright" : "Jeremy Edelblut",
        "generator" : "Khronos glTF Blender I/O v1.6.16",
        "version" : "2.0"
    },
    "scene" : 0,
    "scenes" : [
        {
            "name" : "Scene",
            "nodes" : [
                0,
                1,
                2,
                3,
                4,
                5,
                6,
                7,
                8,
                9
            ]
        }
    ],
    "nodes" : [
        {
            "mesh" : 0,
            "name" : "Circle.2056",
            "rotation" : [
                0,
                -0.7071068286895752,
                0,
                0.7071068286895752
            ],
            "scale" : [
                0.383627325296402,
                0.383627325296402,
                0.383627325296402
            ],
            "translation" : [
                -0.0017727239755913615,
                -1.0092936754226685,
                -0.0015168213285505772
            ]
        },
        {
            "mesh" : 1,
            "name" : "Circle.2057",
            "rotation" : [
                -0.017037000507116318,
                -0.7069015502929688,
                -0.01703699119389057,
                0.706901490688324
            ],
            "scale" : [
                0.048022910952568054,
                0.04802291467785835,
                0.04802291467785835
            ],
            "translation" : [
                0.08456256240606308,
                0.18069617450237274,
                -0.0029955804347991943
            ]
        },
        {
            "mesh" : 2,
            "name" : "Circle.2058",
            "rotation" : [
                -0.37894943356513977,
                0.6879724860191345,
                0.17254352569580078,
                0.5944072008132935
            ],
            "scale" : [
                0.11784754693508148,
                0.1178475171327591,
                0.1178475171327591
            ],
            "translation" : [
                0.048317622393369675,
                0.62643963098526,
                -0.005124211311340332
            ]
        },
        {
            "mesh" : 3,
            "name" : "Circle.2059",
            "rotation" : [
                -0.18752597272396088,
                -0.666755199432373,
                0.18479454517364502,
                0.6972248554229736
            ],
            "scale" : [
                0.10882598161697388,
                0.1088259220123291,
                0.10882594436407089
            ],
            "translation" : [
                0.11141827702522278,
                0.38027524948120117,
                -0.0016049668192863464
            ]
        },
        {
            "mesh" : 4,
            "name" : "Circle.2060",
            "rotation" : [
                -0.2237805724143982,
                0.7465424537658691,
                -0.06161770597100258,
                0.6235381960868835
            ],
            "scale" : [
                0.11609896272420883,
                0.11609894037246704,
                0.11609892547130585
            ],
            "translation" : [
                0.12387646734714508,
                0.38799065351486206,
                -0.005124203860759735
            ]
        },
        {
            "mesh" : 5,
            "name" : "Circle.2061",
            "rotation" : [
                -0.3065710961818695,
                -0.7082356214523315,
                0.10879077017307281,
                0.6265628337860107
            ],
            "scale" : [
                0.1300158053636551,
                0.13001574575901031,
                0.1300157606601715
            ],
            "translation" : [
                0.00882930587977171,
                0.06148749962449074,
                0.004453054629266262
            ]
        },
        {
            "mesh" : 6,
            "name" : "Circle.2062",
            "rotation" : [
                -0.15785084664821625,
                0.760628342628479,
                -0.17202553153038025,
                0.6057514548301697
            ],
            "scale" : [
                0.11609897017478943,
                0.11609892547130585,
                0.11609894782304764
            ],
            "translation" : [
                0.07050653547048569,
                0.11628928780555725,
                -0.005124211311340332
            ]
        },
        {
            "mesh" : 7,
            "name" : "Circle.2063",
            "rotation" : [
                0.018470389768481255,
                -0.7172428965568542,
                -0.023133842274546623,
                0.6961942315101624
            ],
            "scale" : [
                0.10594461858272552,
                0.10594461113214493,
                0.10594459623098373
            ],
            "translation" : [
                0.03362315520644188,
                0.6474723219871521,
                -0.001604970544576645
            ]
        },
        {
            "mesh" : 8,
            "name" : "Circle.2064",
            "rotation" : [
                -0.14538751542568207,
                0.07553467899560928,
                -0.34128537774086,
                0.9255707859992981
            ],
            "scale" : [
                0.11784753948450089,
                0.11784752458333969,
                0.11784753948450089
            ],
            "translation" : [
                0.07956905663013458,
                0.5442308783531189,
                -0.002087011933326721
            ]
        },
        {
            "mesh" : 9,
            "name" : "Circle.2065",
            "rotation" : [
                -0.552901566028595,
                0.7906997203826904,
                -0.09687957912683487,
                0.2443525791168213
            ],
            "scale" : [
                0.11784755438566208,
                0.11784752458333969,
                0.11784754693508148
            ],
            "translation" : [
                0.09789848327636719,
                0.23423869907855988,
                -0.0038798823952674866
            ]
        }
    ],
    "materials" : [
        {
            "doubleSided" : true,
            "name" : "Color",
            "pbrMetallicRoughness" : {
                "baseColorTexture" : {
                    "index" : 0
                },
                "metallicFactor" : 0,
                "roughnessFactor" : 0.5
            }
        },
        {
            "doubleSided" : true,
            "name" : "green",
            "pbrMetallicRoughness" : {
                "baseColorFactor" : [
                    0.03952793776988983,
                    0.4292263090610504,
                    0.02920534461736679,
                    1
                ],
                "metallicFactor" : 0,
                "roughnessFactor" : 0.5
            }
        }
    ],
    "meshes" : [
        {
            "name" : "Circle.2405",
            "primitives" : [
                {
                    "attributes" : {
                        "POSITION" : 0,
                        "NORMAL" : 1,
                        "TEXCOORD_0" : 2
                    },
                    "indices" : 3,
                    "material" : 0
                }
            ]
        },
        {
            "name" : "Circle.2406",
            "primitives" : [
                {
                    "attributes" : {
                        "POSITION" : 4,
                        "NORMAL" : 5,
                        "TEXCOORD_0" : 6
                    },
                    "indices" : 7,
                    "material" : 1
                }
            ]
        },
        {
            "name" : "Circle.2407",
            "primitives" : [
                {
                    "attributes" : {
                        "POSITION" : 8,
                        "NORMAL" : 9,
                        "TEXCOORD_0" : 10
                    },
                    "indices" : 11,
                    "material" : 1
                }
            ]
        },
        {
            "name" : "Circle.2408",
            "primitives" : [
                {
                    "attributes" : {
                        "POSITION" : 12,
                        "NORMAL" : 13,
                        "TEXCOORD_0" : 14
                    },
                    "indices" : 15,
                    "material" : 1
                }
            ]
        },
        {
            "name" : "Circle.2409",
            "primitives" : [
                {
                    "attributes" : {
                        "POSITION" : 16,
                        "NORMAL" : 17,
                        "TEXCOORD_0" : 18
                    },
                    "indices" : 11,
                    "material" : 1
                }
            ]
        },
        {
            "name" : "Circle.2410",
            "primitives" : [
                {
                    "attributes" : {
                        "POSITION" : 19,
                        "NORMAL" : 20,
                        "TEXCOORD_0" : 21
                    },
                    "indices" : 15,
                    "material" : 1
                }
            ]
        },
        {
            "name" : "Circle.2411",
            "primitives" : [
                {
                    "attributes" : {
                        "POSITION" : 22,
                        "NORMAL" : 23,
                        "TEXCOORD_0" : 24
                    },
                    "indices" : 11,
                    "material" : 1
                }
            ]
        },
        {
            "name" : "Circle.2412",
            "primitives" : [
                {
                    "attributes" : {
                        "POSITION" : 25,
                        "NORMAL" : 26,
                        "TEXCOORD_0" : 27
                    },
                    "indices" : 15,
                    "material" : 1
                }
            ]
        },
        {
            "name" : "Circle.2413",
            "primitives" : [
                {
                    "attributes" : {
                        "POSITION" : 28,
                        "NORMAL" : 29,
                        "TEXCOORD_0" : 30
                    },
                    "indices" : 11,
                    "material" : 1
                }
            ]
        },
        {
            "name" : "Circle.2414",
            "primitives" : [
                {
                    "attributes" : {
                        "POSITION" : 31,
                        "NORMAL" : 32,
                        "TEXCOORD_0" : 33
                    },
                    "indices" : 11,
                    "material" : 1
                }
            ]
        }
    ],
    "textures" : [
        {
            "sampler" : 0,
            "source" : 0
        }
    ],
    "images" : [
        {
            "bufferView" : 4,
            "mimeType" : "image/png",
            "name" : "tex2"
        }
    ],
    "accessors" : [
        {
            "bufferView" : 0,
            "componentType" : 5126,
            "count" : 674,
            "max" : [
                1.3676185607910156,
                2.516082763671875,
                1.3676185607910156
            ],
            "min" : [
                -1.3676185607910156,
                0.6114034056663513,
                -1.3676185607910156
            ],
            "type" : "VEC3"
        },
        {
            "bufferView" : 1,
            "componentType" : 5126,
            "count" : 674,
            "type" : "VEC3"
        },
        {
            "bufferView" : 2,
            "componentType" : 5126,
            "count" : 674,
            "type" : "VEC2"
        },
        {
            "bufferView" : 3,
            "componentType" : 5123,
            "count" : 2496,
            "type" : "SCALAR"
        },
        {
            "bufferView" : 5,
            "componentType" : 5126,
            "count" : 368,
            "max" : [
                0.6071347594261169,
                10.894644737243652,
                2.546314239501953
            ],
            "min" : [
                -0.6071346998214722,
                -6.486443996429443,
                -1.0253820419311523
            ],
            "type" : "VEC3"
        },
        {
            "bufferView" : 6,
            "componentType" : 5126,
            "count" : 368,
            "type" : "VEC3"
        },
        {
            "bufferView" : 7,
            "componentType" : 5126,
            "count" : 368,
            "type" : "VEC2"
        },
        {
            "bufferView" : 8,
            "componentType" : 5123,
            "count" : 2004,
            "type" : "SCALAR"
        },
        {
            "bufferView" : 9,
            "componentType" : 5126,
            "count" : 174,
            "max" : [
                0.02457534894347191,
                1.245680809020996,
                4.694853782653809
            ],
            "min" : [
                -0.6544663310050964,
                -0.7543193697929382,
                -0.01815042272210121
            ],
            "type" : "VEC3"
        },
        {
            "bufferView" : 10,
            "componentType" : 5126,
            "count" : 174,
            "type" : "VEC3"
        },
        {
            "bufferView" : 11,
            "componentType" : 5126,
            "count" : 174,
            "type" : "VEC2"
        },
        {
            "bufferView" : 12,
            "componentType" : 5123,
            "count" : 480,
            "type" : "SCALAR"
        },
        {
            "bufferView" : 13,
            "componentType" : 5126,
            "count" : 174,
            "max" : [
                0.46877816319465637,
                1.2185640335083008,
                4.690179824829102
            ],
            "min" : [
                -0.4147399961948395,
                -0.781436026096344,
                -0.02289368212223053
            ],
            "type" : "VEC3"
        },
        {
            "bufferView" : 14,
            "componentType" : 5126,
            "count" : 174,
            "type" : "VEC3"
        },
        {
            "bufferView" : 15,
            "componentType" : 5126,
            "count" : 174,
            "type" : "VEC2"
        },
        {
            "bufferView" : 16,
            "componentType" : 5123,
            "count" : 480,
            "type" : "SCALAR"
        },
        {
            "bufferView" : 17,
            "componentType" : 5126,
            "count" : 174,
            "max" : [
                0.02457534894347191,
                1.245680809020996,
                4.694853782653809
            ],
            "min" : [
                -0.6544663310050964,
                -0.7543193697929382,
                -0.01815042272210121
            ],
            "type" : "VEC3"
        },
        {
            "bufferView" : 18,
            "componentType" : 5126,
            "count" : 174,
            "type" : "VEC3"
        },
        {
            "bufferView" : 19,
            "componentType" : 5126,
            "count" : 174,
            "type" : "VEC2"
        },
        {
            "bufferView" : 20,
            "componentType" : 5126,
            "count" : 174,
            "max" : [
                0.46877816319465637,
                1.2185640335083008,
                4.690179824829102
            ],
            "min" : [
                -0.4147399961948395,
                -0.781436026096344,
                -0.02289368212223053
            ],
            "type" : "VEC3"
        },
        {
            "bufferView" : 21,
            "componentType" : 5126,
            "count" : 174,
            "type" : "VEC3"
        },
        {
            "bufferView" : 22,
            "componentType" : 5126,
            "count" : 174,
            "type" : "VEC2"
        },
        {
            "bufferView" : 23,
            "componentType" : 5126,
            "count" : 174,
            "max" : [
                0.02457534894347191,
                1.245680809020996,
                4.694853782653809
            ],
            "min" : [
                -0.6544663310050964,
                -0.7543193697929382,
                -0.01815042272210121
            ],
            "type" : "VEC3"
        },
        {
            "bufferView" : 24,
            "componentType" : 5126,
            "count" : 174,
            "type" : "VEC3"
        },
        {
            "bufferView" : 25,
            "componentType" : 5126,
            "count" : 174,
            "type" : "VEC2"
        },
        {
            "bufferView" : 26,
            "componentType" : 5126,
            "count" : 174,
            "max" : [
                0.46877816319465637,
                1.2185640335083008,
                4.690179824829102
            ],
            "min" : [
                -0.4147399961948395,
                -0.781436026096344,
                -0.02289368212223053
            ],
            "type" : "VEC3"
        },
        {
            "bufferView" : 27,
            "componentType" : 5126,
            "count" : 174,
            "type" : "VEC3"
        },
        {
            "bufferView" : 28,
            "componentType" : 5126,
            "count" : 174,
            "type" : "VEC2"
        },
        {
            "bufferView" : 29,
            "componentType" : 5126,
            "count" : 174,
            "max" : [
                0.02457534894347191,
                1.245680809020996,
                4.694853782653809
            ],
            "min" : [
                -0.6544663310050964,
                -0.7543193697929382,
                -0.01815042272210121
            ],
            "type" : "VEC3"
        },
        {
            "bufferView" : 30,
            "componentType" : 5126,
            "count" : 174,
            "type" : "VEC3"
        },
        {
            "bufferView" : 31,
            "componentType" : 5126,
            "count" : 174,
            "type" : "VEC2"
        },
        {
            "bufferView" : 32,
            "componentType" : 5126,
            "count" : 174,
            "max" : [
                0.02457534894347191,
                1.245680809020996,
                4.694853782653809
            ],
            "min" : [
                -0.6544663310050964,
                -0.7543193697929382,
                -0.01815042272210121
            ],
            "type" : "VEC3"
        },
        {
            "bufferView" : 33,
            "componentType" : 5126,
            "count" : 174,
            "type" : "VEC3"
        },
        {
            "bufferView" : 34,
            "componentType" : 5126,
            "count" : 174,
            "type" : "VEC2"
        }
    ],
    "bufferViews" : [
        {
            "buffer" : 0,
            "byteLength" : 8088,
            "byteOffset" : 0
        },
        {
            "buffer" : 0,
            "byteLength" : 8088,
            "byteOffset" : 8088
        },
        {
            "buffer" : 0,
            "byteLength" : 5392,
            "byteOffset" : 16176
        },
        {
            "buffer" : 0,
            "byteLength" : 4992,
            "byteOffset" : 21568
        },
        {
            "buffer" : 0,
            "byteLength" : 6478,
            "byteOffset" : 26560
        },
        {
            "buffer" : 0,
            "byteLength" : 4416,
            "byteOffset" : 33040
        },
        {
            "buffer" : 0,
            "byteLength" : 4416,
            "byteOffset" : 37456
        },
        {
            "buffer" : 0,
            "byteLength" : 2944,
            "byteOffset" : 41872
        },
        {
            "buffer" : 0,
            "byteLength" : 4008,
            "byteOffset" : 44816
        },
        {
            "buffer" : 0,
            "byteLength" : 2088,
            "byteOffset" : 48824
        },
        {
            "buffer" : 0,
            "byteLength" : 2088,
            "byteOffset" : 50912
        },
        {
            "buffer" : 0,
            "byteLength" : 1392,
            "byteOffset" : 53000
        },
        {
            "buffer" : 0,
            "byteLength" : 960,
            "byteOffset" : 54392
        },
        {
            "buffer" : 0,
            "byteLength" : 2088,
            "byteOffset" : 55352
        },
        {
            "buffer" : 0,
            "byteLength" : 2088,
            "byteOffset" : 57440
        },
        {
            "buffer" : 0,
            "byteLength" : 1392,
            "byteOffset" : 59528
        },
        {
            "buffer" : 0,
            "byteLength" : 960,
            "byteOffset" : 60920
        },
        {
            "buffer" : 0,
            "byteLength" : 2088,
            "byteOffset" : 61880
        },
        {
            "buffer" : 0,
            "byteLength" : 2088,
            "byteOffset" : 63968
        },
        {
            "buffer" : 0,
            "byteLength" : 1392,
            "byteOffset" : 66056
        },
        {
            "buffer" : 0,
            "byteLength" : 2088,
            "byteOffset" : 67448
        },
        {
            "buffer" : 0,
            "byteLength" : 2088,
            "byteOffset" : 69536
        },
        {
            "buffer" : 0,
            "byteLength" : 1392,
            "byteOffset" : 71624
        },
        {
            "buffer" : 0,
            "byteLength" : 2088,
            "byteOffset" : 73016
        },
        {
            "buffer" : 0,
            "byteLength" : 2088,
            "byteOffset" : 75104
        },
        {
            "buffer" : 0,
            "byteLength" : 1392,
            "byteOffset" : 77192
        },
        {
            "buffer" : 0,
            "byteLength" : 2088,
            "byteOffset" : 78584
        },
        {
            "buffer" : 0,
            "byteLength" : 2088,
            "byteOffset" : 80672
        },
        {
            "buffer" : 0,
            "byteLength" : 1392,
            "byteOffset" : 82760
        },
        {
            "buffer" : 0,
            "byteLength" : 2088,
            "byteOffset" : 84152
        },
        {
            "buffer" : 0,
            "byteLength" : 2088,
            "byteOffset" : 86240
        },
        {
            "buffer" : 0,
            "byteLength" : 1392,
            "byteOffset" : 88328
        },
        {
            "buffer" : 0,
            "byteLength" : 2088,
            "byteOffset" : 89720
        },
        {
            "buffer" : 0,
            "byteLength" : 2088,
            "byteOffset" : 91808
        },
        {
            "buffer" : 0,
            "byteLength" : 1392,
            "byteOffset" : 93896
        }
    ],
    "samplers" : [
        {
            "magFilter" : 9729,
            "minFilter" : 9987
        }
    ],
    "buffers" : [
        {
            "byteLength" : 95288,
            "uri" : "data:application/octet-stream;base64,"
        }
    ]
}
