{
    "asset" : {
        "copyright" : "Jeremy Edelblut",
        "generator" : "Khronos glTF Blender I/O v1.7.33",
        "version" : "2.0"
    },
    "scene" : 1,
    "scenes" : [
        {
            "name" : "FBX_Temp",
            "nodes" : [
                0
            ]
        },
        {
            "name" : "Scene",
            "nodes" : [
                1,
                2,
                3,
                4,
                5,
                6
            ]
        }
    ],
    "nodes" : [
        {
            "mesh" : 0,
            "name" : "3moji.064",
            "rotation" : [
                0,
                -0.7071068286895752,
                0,
                0.7071068286895752
            ]
        },
        {
            "mesh" : 1,
            "name" : "Circle.1918"
        },
        {
            "mesh" : 2,
            "name" : "Cube.6246"
        },
        {
            "mesh" : 3,
            "name" : "Cube.6247"
        },
        {
            "mesh" : 4,
            "name" : "Cylinder.362"
        },
        {
            "mesh" : 5,
            "name" : "Sphere.381"
        },
        {
            "mesh" : 6,
            "name" : "3moji.org.229"
        }
    ],
    "materials" : [
        {
            "doubleSided" : true,
            "name" : "color",
            "pbrMetallicRoughness" : {
                "baseColorTexture" : {
                    "index" : 0
                },
                "metallicFactor" : 0,
                "roughnessFactor" : 0.5
            }
        }
    ],
    "meshes" : [
        {
            "name" : "Cube.417",
            "primitives" : [
                {
                    "attributes" : {
                        "POSITION" : 0,
                        "NORMAL" : 1,
                        "TEXCOORD_0" : 2
                    },
                    "indices" : 3,
                    "material" : 0
                }
            ]
        },
        {
            "name" : "Circle.2135",
            "primitives" : [
                {
                    "attributes" : {
                        "POSITION" : 4,
                        "NORMAL" : 5,
                        "TEXCOORD_0" : 6
                    },
                    "indices" : 7,
                    "material" : 0
                }
            ]
        },
        {
            "name" : "Cube.7305",
            "primitives" : [
                {
                    "attributes" : {
                        "POSITION" : 8,
                        "NORMAL" : 9,
                        "TEXCOORD_0" : 10
                    },
                    "indices" : 11,
                    "material" : 0
                }
            ]
        },
        {
            "name" : "Cube.7306",
            "primitives" : [
                {
                    "attributes" : {
                        "POSITION" : 12,
                        "NORMAL" : 13,
                        "TEXCOORD_0" : 14
                    },
                    "indices" : 15,
                    "material" : 0
                }
            ]
        },
        {
            "name" : "Cylinder.349",
            "primitives" : [
                {
                    "attributes" : {
                        "POSITION" : 16,
                        "NORMAL" : 17,
                        "TEXCOORD_0" : 18
                    },
                    "indices" : 19,
                    "material" : 0
                }
            ]
        },
        {
            "name" : "Sphere.381",
            "primitives" : [
                {
                    "attributes" : {
                        "POSITION" : 20,
                        "NORMAL" : 21,
                        "TEXCOORD_0" : 22
                    },
                    "indices" : 23,
                    "material" : 0
                }
            ]
        },
        {
            "name" : "Cube.693",
            "primitives" : [
                {
                    "attributes" : {
                        "POSITION" : 24,
                        "NORMAL" : 25,
                        "TEXCOORD_0" : 26
                    },
                    "indices" : 27,
                    "material" : 0
                }
            ]
        }
    ],
    "textures" : [
        {
            "sampler" : 0,
            "source" : 0
        }
    ],
    "images" : [
        {
            "bufferView" : 4,
            "mimeType" : "image/png",
            "name" : "tex"
        }
    ],
    "accessors" : [
        {
            "bufferView" : 0,
            "componentType" : 5126,
            "count" : 752,
            "max" : [
                -0.8264395594596863,
                0.05719918757677078,
                0.13795676827430725
            ],
            "min" : [
                -0.8543609976768494,
                -0.014034310355782509,
                -0.12436223030090332
            ],
            "type" : "VEC3"
        },
        {
            "bufferView" : 1,
            "componentType" : 5126,
            "count" : 752,
            "type" : "VEC3"
        },
        {
            "bufferView" : 2,
            "componentType" : 5126,
            "count" : 752,
            "type" : "VEC2"
        },
        {
            "bufferView" : 3,
            "componentType" : 5123,
            "count" : 1680,
            "type" : "SCALAR"
        },
        {
            "bufferView" : 5,
            "componentType" : 5126,
            "count" : 224,
            "max" : [
                0.43855443596839905,
                -0.16757968068122864,
                0.6522619724273682
            ],
            "min" : [
                -0.43855443596839905,
                -0.5715559720993042,
                0.490031361579895
            ],
            "type" : "VEC3"
        },
        {
            "bufferView" : 6,
            "componentType" : 5126,
            "count" : 224,
            "type" : "VEC3"
        },
        {
            "bufferView" : 7,
            "componentType" : 5126,
            "count" : 224,
            "type" : "VEC2"
        },
        {
            "bufferView" : 8,
            "componentType" : 5123,
            "count" : 840,
            "type" : "SCALAR"
        },
        {
            "bufferView" : 9,
            "componentType" : 5126,
            "count" : 386,
            "max" : [
                0.13111373782157898,
                -0.6795861721038818,
                0.6748758554458618
            ],
            "min" : [
                -0.13111357390880585,
                -0.8897351026535034,
                0.5079867243766785
            ],
            "type" : "VEC3"
        },
        {
            "bufferView" : 10,
            "componentType" : 5126,
            "count" : 386,
            "type" : "VEC3"
        },
        {
            "bufferView" : 11,
            "componentType" : 5126,
            "count" : 386,
            "type" : "VEC2"
        },
        {
            "bufferView" : 12,
            "componentType" : 5123,
            "count" : 2304,
            "type" : "SCALAR"
        },
        {
            "bufferView" : 13,
            "componentType" : 5126,
            "count" : 624,
            "max" : [
                0.5358517169952393,
                -0.6643160581588745,
                0.6557943224906921
            ],
            "min" : [
                -0.5358517169952393,
                -0.9214626550674438,
                0.542731761932373
            ],
            "type" : "VEC3"
        },
        {
            "bufferView" : 14,
            "componentType" : 5126,
            "count" : 624,
            "type" : "VEC3"
        },
        {
            "bufferView" : 15,
            "componentType" : 5126,
            "count" : 624,
            "type" : "VEC2"
        },
        {
            "bufferView" : 16,
            "componentType" : 5123,
            "count" : 936,
            "type" : "SCALAR"
        },
        {
            "bufferView" : 17,
            "componentType" : 5126,
            "count" : 630,
            "max" : [
                0.635223925113678,
                1.1665196418762207,
                0.02233913354575634
            ],
            "min" : [
                -0.635223925113678,
                -0.13196349143981934,
                -0.1620689183473587
            ],
            "type" : "VEC3"
        },
        {
            "bufferView" : 18,
            "componentType" : 5126,
            "count" : 630,
            "type" : "VEC3"
        },
        {
            "bufferView" : 19,
            "componentType" : 5126,
            "count" : 630,
            "type" : "VEC2"
        },
        {
            "bufferView" : 20,
            "componentType" : 5123,
            "count" : 2112,
            "type" : "SCALAR"
        },
        {
            "bufferView" : 21,
            "componentType" : 5126,
            "count" : 1242,
            "max" : [
                0.7598990797996521,
                0.2802925705909729,
                0.6510695219039917
            ],
            "min" : [
                -0.7598990201950073,
                -1.098244547843933,
                -0.5018405318260193
            ],
            "type" : "VEC3"
        },
        {
            "bufferView" : 22,
            "componentType" : 5126,
            "count" : 1242,
            "type" : "VEC3"
        },
        {
            "bufferView" : 23,
            "componentType" : 5126,
            "count" : 1242,
            "type" : "VEC2"
        },
        {
            "bufferView" : 24,
            "componentType" : 5123,
            "count" : 7128,
            "type" : "SCALAR"
        },
        {
            "bufferView" : 25,
            "componentType" : 5126,
            "count" : 752,
            "max" : [
                0.053222350776195526,
                -0.31334954500198364,
                -0.48716217279434204
            ],
            "min" : [
                -0.06424668431282043,
                -0.34524527192115784,
                -0.49602681398391724
            ],
            "type" : "VEC3"
        },
        {
            "bufferView" : 26,
            "componentType" : 5126,
            "count" : 752,
            "type" : "VEC3"
        },
        {
            "bufferView" : 27,
            "componentType" : 5126,
            "count" : 752,
            "type" : "VEC2"
        },
        {
            "bufferView" : 28,
            "componentType" : 5123,
            "count" : 1680,
            "type" : "SCALAR"
        }
    ],
    "bufferViews" : [
        {
            "buffer" : 0,
            "byteLength" : 9024,
            "byteOffset" : 0
        },
        {
            "buffer" : 0,
            "byteLength" : 9024,
            "byteOffset" : 9024
        },
        {
            "buffer" : 0,
            "byteLength" : 6016,
            "byteOffset" : 18048
        },
        {
            "buffer" : 0,
            "byteLength" : 3360,
            "byteOffset" : 24064
        },
        {
            "buffer" : 0,
            "byteLength" : 11997,
            "byteOffset" : 27424
        },
        {
            "buffer" : 0,
            "byteLength" : 2688,
            "byteOffset" : 39424
        },
        {
            "buffer" : 0,
            "byteLength" : 2688,
            "byteOffset" : 42112
        },
        {
            "buffer" : 0,
            "byteLength" : 1792,
            "byteOffset" : 44800
        },
        {
            "buffer" : 0,
            "byteLength" : 1680,
            "byteOffset" : 46592
        },
        {
            "buffer" : 0,
            "byteLength" : 4632,
            "byteOffset" : 48272
        },
        {
            "buffer" : 0,
            "byteLength" : 4632,
            "byteOffset" : 52904
        },
        {
            "buffer" : 0,
            "byteLength" : 3088,
            "byteOffset" : 57536
        },
        {
            "buffer" : 0,
            "byteLength" : 4608,
            "byteOffset" : 60624
        },
        {
            "buffer" : 0,
            "byteLength" : 7488,
            "byteOffset" : 65232
        },
        {
            "buffer" : 0,
            "byteLength" : 7488,
            "byteOffset" : 72720
        },
        {
            "buffer" : 0,
            "byteLength" : 4992,
            "byteOffset" : 80208
        },
        {
            "buffer" : 0,
            "byteLength" : 1872,
            "byteOffset" : 85200
        },
        {
            "buffer" : 0,
            "byteLength" : 7560,
            "byteOffset" : 87072
        },
        {
            "buffer" : 0,
            "byteLength" : 7560,
            "byteOffset" : 94632
        },
        {
            "buffer" : 0,
            "byteLength" : 5040,
            "byteOffset" : 102192
        },
        {
            "buffer" : 0,
            "byteLength" : 4224,
            "byteOffset" : 107232
        },
        {
            "buffer" : 0,
            "byteLength" : 14904,
            "byteOffset" : 111456
        },
        {
            "buffer" : 0,
            "byteLength" : 14904,
            "byteOffset" : 126360
        },
        {
            "buffer" : 0,
            "byteLength" : 9936,
            "byteOffset" : 141264
        },
        {
            "buffer" : 0,
            "byteLength" : 14256,
            "byteOffset" : 151200
        },
        {
            "buffer" : 0,
            "byteLength" : 9024,
            "byteOffset" : 165456
        },
        {
            "buffer" : 0,
            "byteLength" : 9024,
            "byteOffset" : 174480
        },
        {
            "buffer" : 0,
            "byteLength" : 6016,
            "byteOffset" : 183504
        },
        {
            "buffer" : 0,
            "byteLength" : 3360,
            "byteOffset" : 189520
        }
    ],
    "samplers" : [
        {
            "magFilter" : 9729,
            "minFilter" : 9987
        }
    ],
    "buffers" : [
        {
            "byteLength" : 192880,
            "uri" : "data:application/octet-stream;base64,"
        }
    ]
}
