{
    "asset" : {
        "copyright" : "Jeremy Edelblut",
        "generator" : "Khronos glTF Blender I/O v1.6.16",
        "version" : "2.0"
    },
    "scene" : 0,
    "scenes" : [
        {
            "name" : "Scene",
            "nodes" : [
                0,
                1,
                2,
                3,
                4,
                5
            ]
        }
    ],
    "nodes" : [
        {
            "mesh" : 0,
            "name" : "Circle.1918",
            "rotation" : [
                -0.7071068286895752,
                0,
                0,
                -0.7071068286895752
            ],
            "scale" : [
                0.63188236951828,
                0.63188236951828,
                0.63188236951828
            ],
            "translation" : [
                -0.0008148220949806273,
                -0.26921215653419495,
                0
            ]
        },
        {
            "mesh" : 1,
            "name" : "Cube.6246",
            "rotation" : [
                0,
                0.70710688829422,
                0,
                0.7071067094802856
            ],
            "scale" : [
                0.63188236951828,
                0.63188236951828,
                0.63188236951828
            ],
            "translation" : [
                0,
                -0.2730584740638733,
                0
            ]
        },
        {
            "mesh" : 2,
            "name" : "Cube.6247",
            "rotation" : [
                0,
                0.70710688829422,
                0,
                0.7071067094802856
            ],
            "scale" : [
                0.63188236951828,
                0.63188236951828,
                0.63188236951828
            ],
            "translation" : [
                0,
                -0.2730584740638733,
                0
            ]
        },
        {
            "mesh" : 3,
            "name" : "Cylinder.362",
            "rotation" : [
                0,
                0.70710688829422,
                0,
                0.7071067094802856
            ],
            "scale" : [
                0.63188236951828,
                0.63188236951828,
                0.63188236951828
            ],
            "translation" : [
                0,
                -0.2730584740638733,
                0
            ]
        },
        {
            "mesh" : 4,
            "name" : "Sphere.381",
            "rotation" : [
                -0.17668554186820984,
                0.6846767663955688,
                -0.17668554186820984,
                0.6846767067909241
            ],
            "scale" : [
                0.5055059194564819,
                0.6318823099136353,
                0.63188236951828
            ],
            "translation" : [
                0,
                -0.2730584740638733,
                0
            ]
        },
        {
            "mesh" : 5,
            "name" : "3moji.org.229",
            "rotation" : [
                -0.05304286256432533,
                0.7051146030426025,
                -0.053042877465486526,
                0.7051144242286682
            ],
            "scale" : [
                0.003227171255275607,
                0.003227171255275607,
                0.0032271714881062508
            ],
            "translation" : [
                -0.0024158223532140255,
                -0.33855727314949036,
                -0.4880794286727905
            ]
        }
    ],
    "materials" : [
        {
            "doubleSided" : true,
            "name" : "DKBrown",
            "pbrMetallicRoughness" : {
                "baseColorFactor" : [
                    0.010021701455116272,
                    0.0023923655971884727,
                    0.0018060366855934262,
                    1
                ],
                "metallicFactor" : 0,
                "roughnessFactor" : 0.5
            }
        },
        {
            "doubleSided" : true,
            "name" : "Pink",
            "pbrMetallicRoughness" : {
                "baseColorFactor" : [
                    0.8000000715255737,
                    0.07068260759115219,
                    0.3145071268081665,
                    1
                ],
                "metallicFactor" : 0,
                "roughnessFactor" : 0.5
            }
        },
        {
            "doubleSided" : true,
            "name" : "Lightgray",
            "pbrMetallicRoughness" : {
                "baseColorFactor" : [
                    0.4124824106693268,
                    0.38176509737968445,
                    0.42002442479133606,
                    1
                ],
                "metallicFactor" : 0,
                "roughnessFactor" : 0.5
            }
        },
        {
            "doubleSided" : true,
            "name" : "white",
            "pbrMetallicRoughness" : {
                "baseColorFactor" : [
                    0.800000011920929,
                    0.800000011920929,
                    0.800000011920929,
                    1
                ],
                "metallicFactor" : 0,
                "roughnessFactor" : 0.5
            }
        },
        {
            "doubleSided" : true,
            "name" : "Color",
            "pbrMetallicRoughness" : {
                "baseColorTexture" : {
                    "index" : 0
                },
                "metallicFactor" : 0,
                "roughnessFactor" : 0.5
            }
        }
    ],
    "meshes" : [
        {
            "name" : "Circle.2135",
            "primitives" : [
                {
                    "attributes" : {
                        "POSITION" : 0,
                        "NORMAL" : 1,
                        "TEXCOORD_0" : 2
                    },
                    "indices" : 3,
                    "material" : 0
                }
            ]
        },
        {
            "name" : "Cube.7305",
            "primitives" : [
                {
                    "attributes" : {
                        "POSITION" : 4,
                        "NORMAL" : 5,
                        "TEXCOORD_0" : 6
                    },
                    "indices" : 7,
                    "material" : 1
                }
            ]
        },
        {
            "name" : "Cube.7306",
            "primitives" : [
                {
                    "attributes" : {
                        "POSITION" : 8,
                        "NORMAL" : 9,
                        "TEXCOORD_0" : 10
                    },
                    "indices" : 11
                }
            ]
        },
        {
            "name" : "Cylinder.349",
            "primitives" : [
                {
                    "attributes" : {
                        "POSITION" : 12,
                        "NORMAL" : 13,
                        "TEXCOORD_0" : 14
                    },
                    "indices" : 15,
                    "material" : 1
                },
                {
                    "attributes" : {
                        "POSITION" : 16,
                        "NORMAL" : 17,
                        "TEXCOORD_0" : 18
                    },
                    "indices" : 19,
                    "material" : 2
                }
            ]
        },
        {
            "name" : "Sphere.381",
            "primitives" : [
                {
                    "attributes" : {
                        "POSITION" : 20,
                        "NORMAL" : 21,
                        "TEXCOORD_0" : 22
                    },
                    "indices" : 23,
                    "material" : 2
                },
                {
                    "attributes" : {
                        "POSITION" : 24,
                        "NORMAL" : 25,
                        "TEXCOORD_0" : 26
                    },
                    "indices" : 27,
                    "material" : 3
                }
            ]
        },
        {
            "name" : "Cube.693",
            "primitives" : [
                {
                    "attributes" : {
                        "POSITION" : 28,
                        "NORMAL" : 29,
                        "TEXCOORD_0" : 30
                    },
                    "indices" : 31,
                    "material" : 4
                }
            ]
        }
    ],
    "textures" : [
        {
            "sampler" : 0,
            "source" : 0
        }
    ],
    "images" : [
        {
            "bufferView" : 32,
            "mimeType" : "image/png",
            "name" : "tex2"
        }
    ],
    "accessors" : [
        {
            "bufferView" : 0,
            "componentType" : 5126,
            "count" : 224,
            "max" : [
                0.6909845471382141,
                1.020758032798767,
                0.4784810543060303
            ],
            "min" : [
                -0.6909845471382141,
                0.7755119204521179,
                -0.15582647919654846
            ],
            "type" : "VEC3"
        },
        {
            "bufferView" : 1,
            "componentType" : 5126,
            "count" : 224,
            "type" : "VEC3"
        },
        {
            "bufferView" : 2,
            "componentType" : 5126,
            "count" : 224,
            "type" : "VEC2"
        },
        {
            "bufferView" : 3,
            "componentType" : 5123,
            "count" : 840,
            "type" : "SCALAR"
        },
        {
            "bufferView" : 4,
            "componentType" : 5126,
            "count" : 520,
            "max" : [
                -0.8039260506629944,
                -0.6433597803115845,
                0.20749680697917938
            ],
            "min" : [
                -1.068040370941162,
                -0.9759358167648315,
                -0.20749707520008087
            ],
            "type" : "VEC3"
        },
        {
            "bufferView" : 5,
            "componentType" : 5126,
            "count" : 520,
            "type" : "VEC3"
        },
        {
            "bufferView" : 6,
            "componentType" : 5126,
            "count" : 520,
            "type" : "VEC2"
        },
        {
            "bufferView" : 7,
            "componentType" : 5123,
            "count" : 2304,
            "type" : "SCALAR"
        },
        {
            "bufferView" : 8,
            "componentType" : 5126,
            "count" : 624,
            "max" : [
                -0.8589128255844116,
                -0.6191936731338501,
                0.8480241894721985
            ],
            "min" : [
                -1.0378426313400269,
                -1.0261470079421997,
                -0.8480241894721985
            ],
            "type" : "VEC3"
        },
        {
            "bufferView" : 9,
            "componentType" : 5126,
            "count" : 624,
            "type" : "VEC3"
        },
        {
            "bufferView" : 10,
            "componentType" : 5126,
            "count" : 624,
            "type" : "VEC2"
        },
        {
            "bufferView" : 11,
            "componentType" : 5123,
            "count" : 936,
            "type" : "SCALAR"
        },
        {
            "bufferView" : 12,
            "componentType" : 5126,
            "count" : 120,
            "max" : [
                0.15830829739570618,
                2.176466464996338,
                0.8918378353118896
            ],
            "min" : [
                0.0013191368198022246,
                0.2825945019721985,
                -0.8918378353118896
            ],
            "type" : "VEC3"
        },
        {
            "bufferView" : 13,
            "componentType" : 5126,
            "count" : 120,
            "type" : "VEC3"
        },
        {
            "bufferView" : 14,
            "componentType" : 5126,
            "count" : 120,
            "type" : "VEC2"
        },
        {
            "bufferView" : 15,
            "componentType" : 5123,
            "count" : 288,
            "type" : "SCALAR"
        },
        {
            "bufferView" : 16,
            "componentType" : 5126,
            "count" : 604,
            "max" : [
                0.2564856708049774,
                2.2782375812530518,
                1.0052883625030518
            ],
            "min" : [
                -0.03535347431898117,
                0.22329312562942505,
                -1.0052883625030518
            ],
            "type" : "VEC3"
        },
        {
            "bufferView" : 17,
            "componentType" : 5126,
            "count" : 604,
            "type" : "VEC3"
        },
        {
            "bufferView" : 18,
            "componentType" : 5126,
            "count" : 604,
            "type" : "VEC2"
        },
        {
            "bufferView" : 19,
            "componentType" : 5123,
            "count" : 1824,
            "type" : "SCALAR"
        },
        {
            "bufferView" : 20,
            "componentType" : 5126,
            "count" : 721,
            "max" : [
                1.0152114629745483,
                0.908439040184021,
                1.202595829963684
            ],
            "min" : [
                -1.010571837425232,
                -0.8500789403915405,
                -1.2025957107543945
            ],
            "type" : "VEC3"
        },
        {
            "bufferView" : 21,
            "componentType" : 5126,
            "count" : 721,
            "type" : "VEC3"
        },
        {
            "bufferView" : 22,
            "componentType" : 5126,
            "count" : 721,
            "type" : "VEC2"
        },
        {
            "bufferView" : 23,
            "componentType" : 5123,
            "count" : 4008,
            "type" : "SCALAR"
        },
        {
            "bufferView" : 24,
            "componentType" : 5126,
            "count" : 576,
            "max" : [
                0.8504622578620911,
                0.3650611340999603,
                1.1198011636734009
            ],
            "min" : [
                -1.0322297811508179,
                -1.4277143478393555,
                -1.11980140209198
            ],
            "type" : "VEC3"
        },
        {
            "bufferView" : 25,
            "componentType" : 5126,
            "count" : 576,
            "type" : "VEC3"
        },
        {
            "bufferView" : 26,
            "componentType" : 5126,
            "count" : 576,
            "type" : "VEC2"
        },
        {
            "bufferView" : 27,
            "componentType" : 5123,
            "count" : 3120,
            "type" : "SCALAR"
        },
        {
            "bufferView" : 28,
            "componentType" : 5126,
            "count" : 752,
            "max" : [
                1.2953357696533203,
                7.90000057220459,
                17.240537643432617
            ],
            "min" : [
                2.8697024390567094e-05,
                -1.8999989032745361,
                -19.159460067749023
            ],
            "type" : "VEC3"
        },
        {
            "bufferView" : 29,
            "componentType" : 5126,
            "count" : 752,
            "type" : "VEC3"
        },
        {
            "bufferView" : 30,
            "componentType" : 5126,
            "count" : 752,
            "type" : "VEC2"
        },
        {
            "bufferView" : 31,
            "componentType" : 5123,
            "count" : 1680,
            "type" : "SCALAR"
        }
    ],
    "bufferViews" : [
        {
            "buffer" : 0,
            "byteLength" : 2688,
            "byteOffset" : 0
        },
        {
            "buffer" : 0,
            "byteLength" : 2688,
            "byteOffset" : 2688
        },
        {
            "buffer" : 0,
            "byteLength" : 1792,
            "byteOffset" : 5376
        },
        {
            "buffer" : 0,
            "byteLength" : 1680,
            "byteOffset" : 7168
        },
        {
            "buffer" : 0,
            "byteLength" : 6240,
            "byteOffset" : 8848
        },
        {
            "buffer" : 0,
            "byteLength" : 6240,
            "byteOffset" : 15088
        },
        {
            "buffer" : 0,
            "byteLength" : 4160,
            "byteOffset" : 21328
        },
        {
            "buffer" : 0,
            "byteLength" : 4608,
            "byteOffset" : 25488
        },
        {
            "buffer" : 0,
            "byteLength" : 7488,
            "byteOffset" : 30096
        },
        {
            "buffer" : 0,
            "byteLength" : 7488,
            "byteOffset" : 37584
        },
        {
            "buffer" : 0,
            "byteLength" : 4992,
            "byteOffset" : 45072
        },
        {
            "buffer" : 0,
            "byteLength" : 1872,
            "byteOffset" : 50064
        },
        {
            "buffer" : 0,
            "byteLength" : 1440,
            "byteOffset" : 51936
        },
        {
            "buffer" : 0,
            "byteLength" : 1440,
            "byteOffset" : 53376
        },
        {
            "buffer" : 0,
            "byteLength" : 960,
            "byteOffset" : 54816
        },
        {
            "buffer" : 0,
            "byteLength" : 576,
            "byteOffset" : 55776
        },
        {
            "buffer" : 0,
            "byteLength" : 7248,
            "byteOffset" : 56352
        },
        {
            "buffer" : 0,
            "byteLength" : 7248,
            "byteOffset" : 63600
        },
        {
            "buffer" : 0,
            "byteLength" : 4832,
            "byteOffset" : 70848
        },
        {
            "buffer" : 0,
            "byteLength" : 3648,
            "byteOffset" : 75680
        },
        {
            "buffer" : 0,
            "byteLength" : 8652,
            "byteOffset" : 79328
        },
        {
            "buffer" : 0,
            "byteLength" : 8652,
            "byteOffset" : 87980
        },
        {
            "buffer" : 0,
            "byteLength" : 5768,
            "byteOffset" : 96632
        },
        {
            "buffer" : 0,
            "byteLength" : 8016,
            "byteOffset" : 102400
        },
        {
            "buffer" : 0,
            "byteLength" : 6912,
            "byteOffset" : 110416
        },
        {
            "buffer" : 0,
            "byteLength" : 6912,
            "byteOffset" : 117328
        },
        {
            "buffer" : 0,
            "byteLength" : 4608,
            "byteOffset" : 124240
        },
        {
            "buffer" : 0,
            "byteLength" : 6240,
            "byteOffset" : 128848
        },
        {
            "buffer" : 0,
            "byteLength" : 9024,
            "byteOffset" : 135088
        },
        {
            "buffer" : 0,
            "byteLength" : 9024,
            "byteOffset" : 144112
        },
        {
            "buffer" : 0,
            "byteLength" : 6016,
            "byteOffset" : 153136
        },
        {
            "buffer" : 0,
            "byteLength" : 3360,
            "byteOffset" : 159152
        },
        {
            "buffer" : 0,
            "byteLength" : 6478,
            "byteOffset" : 162512
        }
    ],
    "samplers" : [
        {
            "magFilter" : 9729,
            "minFilter" : 9987
        }
    ],
    "buffers" : [
        {
            "byteLength" : 168992,
            "uri" : "data:application/octet-stream;base64,"
        }
    ]
}
