{
    "asset" : {
        "copyright" : "Jeremy Edelblut",
        "generator" : "Khronos glTF Blender I/O v1.6.16",
        "version" : "2.0"
    },
    "scene" : 0,
    "scenes" : [
        {
            "name" : "Scene",
            "nodes" : [
                0,
                1,
                2,
                3
            ]
        }
    ],
    "nodes" : [
        {
            "mesh" : 0,
            "name" : "Circle.1847",
            "rotation" : [
                0.7071068286895752,
                0,
                0,
                0.7071068286895752
            ],
            "translation" : [
                0,
                -0.09391296654939651,
                -0.0012895155232399702
            ]
        },
        {
            "mesh" : 1,
            "name" : "Cube.6187",
            "translation" : [
                0,
                -0.10000000149011612,
                0
            ]
        },
        {
            "mesh" : 2,
            "name" : "Cube.6188",
            "translation" : [
                0,
                -0.13440990447998047,
                0.04304773360490799
            ]
        },
        {
            "mesh" : 3,
            "name" : "3moji.org.195",
            "rotation" : [
                -0.1520746499300003,
                0.6905602216720581,
                -0.15207470953464508,
                0.6905600428581238
            ],
            "translation" : [
                0,
                -0.5189560651779175,
                -0.7361258268356323
            ]
        }
    ],
    "materials" : [
        {
            "doubleSided" : true,
            "name" : "Lightgray",
            "pbrMetallicRoughness" : {
                "baseColorFactor" : [
                    0.4124824106693268,
                    0.38176509737968445,
                    0.42002442479133606,
                    1
                ],
                "metallicFactor" : 0,
                "roughnessFactor" : 0.5
            }
        },
        {
            "doubleSided" : true,
            "name" : "Color",
            "pbrMetallicRoughness" : {
                "baseColorTexture" : {
                    "index" : 0
                },
                "metallicFactor" : 0,
                "roughnessFactor" : 0.5
            }
        }
    ],
    "meshes" : [
        {
            "name" : "Circle.2056",
            "primitives" : [
                {
                    "attributes" : {
                        "POSITION" : 0,
                        "NORMAL" : 1,
                        "TEXCOORD_0" : 2
                    },
                    "indices" : 3,
                    "material" : 0
                }
            ]
        },
        {
            "name" : "Cube.7236",
            "primitives" : [
                {
                    "attributes" : {
                        "POSITION" : 4,
                        "NORMAL" : 5,
                        "TEXCOORD_0" : 6
                    },
                    "indices" : 7,
                    "material" : 1
                }
            ]
        },
        {
            "name" : "Cube.7237",
            "primitives" : [
                {
                    "attributes" : {
                        "POSITION" : 8,
                        "NORMAL" : 9,
                        "TEXCOORD_0" : 10
                    },
                    "indices" : 11,
                    "material" : 1
                }
            ]
        },
        {
            "name" : "Cube.651",
            "primitives" : [
                {
                    "attributes" : {
                        "POSITION" : 12,
                        "NORMAL" : 13,
                        "TEXCOORD_0" : 14
                    },
                    "indices" : 15,
                    "material" : 1
                }
            ]
        }
    ],
    "textures" : [
        {
            "sampler" : 0,
            "source" : 0
        }
    ],
    "images" : [
        {
            "bufferView" : 8,
            "mimeType" : "image/png",
            "name" : "tex2"
        }
    ],
    "accessors" : [
        {
            "bufferView" : 0,
            "componentType" : 5126,
            "count" : 224,
            "max" : [
                0.5254296064376831,
                0.8058163523674011,
                -0.03423493728041649
            ],
            "min" : [
                -0.5254296064376831,
                0.6397039890289307,
                -0.282552033662796
            ],
            "type" : "VEC3"
        },
        {
            "bufferView" : 1,
            "componentType" : 5126,
            "count" : 224,
            "type" : "VEC3"
        },
        {
            "bufferView" : 2,
            "componentType" : 5126,
            "count" : 224,
            "type" : "VEC2"
        },
        {
            "bufferView" : 3,
            "componentType" : 5123,
            "count" : 840,
            "type" : "SCALAR"
        },
        {
            "bufferView" : 4,
            "componentType" : 5126,
            "count" : 680,
            "max" : [
                1.08971107006073,
                0.8245004415512085,
                1.1589432954788208
            ],
            "min" : [
                -1.08971107006073,
                -0.8327047824859619,
                -0.8395062685012817
            ],
            "type" : "VEC3"
        },
        {
            "bufferView" : 5,
            "componentType" : 5126,
            "count" : 680,
            "type" : "VEC3"
        },
        {
            "bufferView" : 6,
            "componentType" : 5126,
            "count" : 680,
            "type" : "VEC2"
        },
        {
            "bufferView" : 7,
            "componentType" : 5123,
            "count" : 3234,
            "type" : "SCALAR"
        },
        {
            "bufferView" : 9,
            "componentType" : 5126,
            "count" : 744,
            "max" : [
                0.8030896186828613,
                1.2396615743637085,
                0.08983645588159561
            ],
            "min" : [
                -0.8030896186828613,
                0.30358248949050903,
                -0.3145613670349121
            ],
            "type" : "VEC3"
        },
        {
            "bufferView" : 10,
            "componentType" : 5126,
            "count" : 744,
            "type" : "VEC3"
        },
        {
            "bufferView" : 11,
            "componentType" : 5126,
            "count" : 744,
            "type" : "VEC2"
        },
        {
            "bufferView" : 12,
            "componentType" : 5123,
            "count" : 3504,
            "type" : "SCALAR"
        },
        {
            "bufferView" : 13,
            "componentType" : 5126,
            "count" : 752,
            "max" : [
                0.004700806457549334,
                0.02866930142045021,
                0.0625663474202156
            ],
            "min" : [
                1.0414223083898833e-07,
                -0.0068951440043747425,
                -0.06953016668558121
            ],
            "type" : "VEC3"
        },
        {
            "bufferView" : 14,
            "componentType" : 5126,
            "count" : 752,
            "type" : "VEC3"
        },
        {
            "bufferView" : 15,
            "componentType" : 5126,
            "count" : 752,
            "type" : "VEC2"
        },
        {
            "bufferView" : 16,
            "componentType" : 5123,
            "count" : 1680,
            "type" : "SCALAR"
        }
    ],
    "bufferViews" : [
        {
            "buffer" : 0,
            "byteLength" : 2688,
            "byteOffset" : 0
        },
        {
            "buffer" : 0,
            "byteLength" : 2688,
            "byteOffset" : 2688
        },
        {
            "buffer" : 0,
            "byteLength" : 1792,
            "byteOffset" : 5376
        },
        {
            "buffer" : 0,
            "byteLength" : 1680,
            "byteOffset" : 7168
        },
        {
            "buffer" : 0,
            "byteLength" : 8160,
            "byteOffset" : 8848
        },
        {
            "buffer" : 0,
            "byteLength" : 8160,
            "byteOffset" : 17008
        },
        {
            "buffer" : 0,
            "byteLength" : 5440,
            "byteOffset" : 25168
        },
        {
            "buffer" : 0,
            "byteLength" : 6468,
            "byteOffset" : 30608
        },
        {
            "buffer" : 0,
            "byteLength" : 6474,
            "byteOffset" : 37076
        },
        {
            "buffer" : 0,
            "byteLength" : 8928,
            "byteOffset" : 43552
        },
        {
            "buffer" : 0,
            "byteLength" : 8928,
            "byteOffset" : 52480
        },
        {
            "buffer" : 0,
            "byteLength" : 5952,
            "byteOffset" : 61408
        },
        {
            "buffer" : 0,
            "byteLength" : 7008,
            "byteOffset" : 67360
        },
        {
            "buffer" : 0,
            "byteLength" : 9024,
            "byteOffset" : 74368
        },
        {
            "buffer" : 0,
            "byteLength" : 9024,
            "byteOffset" : 83392
        },
        {
            "buffer" : 0,
            "byteLength" : 6016,
            "byteOffset" : 92416
        },
        {
            "buffer" : 0,
            "byteLength" : 3360,
            "byteOffset" : 98432
        }
    ],
    "samplers" : [
        {
            "magFilter" : 9729,
            "minFilter" : 9987
        }
    ],
    "buffers" : [
        {
            "byteLength" : 101792,
            "uri" : "data:application/octet-stream;base64,"
        }
    ]
}
