{
    "asset" : {
        "copyright" : "Jeremy Edelblut",
        "generator" : "Khronos glTF Blender I/O v1.6.16",
        "version" : "2.0"
    },
    "scene" : 0,
    "scenes" : [
        {
            "name" : "Scene",
            "nodes" : [
                0,
                1,
                2,
                3,
                4
            ]
        }
    ],
    "nodes" : [
        {
            "mesh" : 0,
            "name" : "Circle.1899",
            "rotation" : [
                0.5000001192092896,
                -0.49999988079071045,
                0.49999991059303284,
                0.5000001192092896
            ],
            "scale" : [
                0.3507210910320282,
                0.3507210910320282,
                0.3507210910320282
            ],
            "translation" : [
                -1.1167389154434204,
                0.4486454427242279,
                0
            ]
        },
        {
            "mesh" : 1,
            "name" : "Cube.6237",
            "rotation" : [
                0,
                0.7071071863174438,
                0,
                0.7071064710617065
            ],
            "scale" : [
                0.16935475170612335,
                0.16935475170612335,
                0.16935475170612335
            ],
            "translation" : [
                0.11005458235740662,
                0.16225537657737732,
                0
            ]
        },
        {
            "mesh" : 2,
            "name" : "Plane.124",
            "rotation" : [
                0,
                -0.7071068286895752,
                0,
                0.7071068286895752
            ],
            "scale" : [
                0.5845351219177246,
                0.5845351219177246,
                0.5845351219177246
            ],
            "translation" : [
                0.10523726791143417,
                0,
                0
            ]
        },
        {
            "mesh" : 3,
            "name" : "Circle.1900",
            "rotation" : [
                0.18460480868816376,
                -0.6825841069221497,
                0.18460480868816376,
                0.6825841069221497
            ],
            "scale" : [
                0.10864686220884323,
                0.10864686220884323,
                0.10864686220884323
            ],
            "translation" : [
                -0.6581944227218628,
                0.5033129453659058,
                0.001258108764886856
            ]
        },
        {
            "mesh" : 4,
            "name" : "3moji.org.217",
            "rotation" : [
                0,
                0,
                -0.6295170783996582,
                0.7769866585731506
            ],
            "scale" : [
                0.005206212401390076,
                0.005206212401390076,
                0.00520621333271265
            ],
            "translation" : [
                0.3397577702999115,
                -0.45537301898002625,
                0
            ]
        }
    ],
    "materials" : [
        {
            "doubleSided" : true,
            "name" : "DKBrown",
            "pbrMetallicRoughness" : {
                "baseColorFactor" : [
                    0.010021701455116272,
                    0.0023923655971884727,
                    0.0018060366855934262,
                    1
                ],
                "metallicFactor" : 0,
                "roughnessFactor" : 0.5
            }
        },
        {
            "doubleSided" : true,
            "name" : "gray",
            "pbrMetallicRoughness" : {
                "baseColorFactor" : [
                    0.10474124550819397,
                    0.09742098301649094,
                    0.10653529316186905,
                    1
                ],
                "metallicFactor" : 0,
                "roughnessFactor" : 0.5
            }
        },
        {
            "doubleSided" : true,
            "name" : "white",
            "pbrMetallicRoughness" : {
                "baseColorFactor" : [
                    0.800000011920929,
                    0.800000011920929,
                    0.800000011920929,
                    1
                ],
                "metallicFactor" : 0,
                "roughnessFactor" : 0.5
            }
        },
        {
            "doubleSided" : true,
            "name" : "DKgray",
            "pbrMetallicRoughness" : {
                "baseColorFactor" : [
                    0.03682169318199158,
                    0.03446357324719429,
                    0.03740420565009117,
                    1
                ],
                "metallicFactor" : 0,
                "roughnessFactor" : 0.5
            }
        },
        {
            "doubleSided" : true,
            "name" : "Light_Brown",
            "pbrMetallicRoughness" : {
                "baseColorFactor" : [
                    0.3613067865371704,
                    0.15896087884902954,
                    0.013702086172997952,
                    1
                ],
                "metallicFactor" : 0,
                "roughnessFactor" : 0.5
            }
        },
        {
            "doubleSided" : true,
            "name" : "Color",
            "pbrMetallicRoughness" : {
                "baseColorTexture" : {
                    "index" : 0
                },
                "metallicFactor" : 0,
                "roughnessFactor" : 0.5
            }
        }
    ],
    "meshes" : [
        {
            "name" : "Circle.2115",
            "primitives" : [
                {
                    "attributes" : {
                        "POSITION" : 0,
                        "NORMAL" : 1,
                        "TEXCOORD_0" : 2
                    },
                    "indices" : 3,
                    "material" : 0
                }
            ]
        },
        {
            "name" : "Cube.7295",
            "primitives" : [
                {
                    "attributes" : {
                        "POSITION" : 4,
                        "NORMAL" : 5,
                        "TEXCOORD_0" : 6
                    },
                    "indices" : 7,
                    "material" : 1
                }
            ]
        },
        {
            "name" : "Plane.125",
            "primitives" : [
                {
                    "attributes" : {
                        "POSITION" : 8,
                        "NORMAL" : 9,
                        "TEXCOORD_0" : 10
                    },
                    "indices" : 11,
                    "material" : 2
                },
                {
                    "attributes" : {
                        "POSITION" : 12,
                        "NORMAL" : 13,
                        "TEXCOORD_0" : 14
                    },
                    "indices" : 15,
                    "material" : 1
                },
                {
                    "attributes" : {
                        "POSITION" : 16,
                        "NORMAL" : 17,
                        "TEXCOORD_0" : 18
                    },
                    "indices" : 19,
                    "material" : 3
                }
            ]
        },
        {
            "name" : "Circle.2116",
            "primitives" : [
                {
                    "attributes" : {
                        "POSITION" : 20,
                        "NORMAL" : 21,
                        "TEXCOORD_0" : 22
                    },
                    "indices" : 23,
                    "material" : 4
                }
            ]
        },
        {
            "name" : "Cube.678",
            "primitives" : [
                {
                    "attributes" : {
                        "POSITION" : 24,
                        "NORMAL" : 25,
                        "TEXCOORD_0" : 26
                    },
                    "indices" : 27,
                    "material" : 5
                }
            ]
        }
    ],
    "textures" : [
        {
            "sampler" : 0,
            "source" : 0
        }
    ],
    "images" : [
        {
            "bufferView" : 28,
            "mimeType" : "image/png",
            "name" : "tex2"
        }
    ],
    "accessors" : [
        {
            "bufferView" : 0,
            "componentType" : 5126,
            "count" : 752,
            "max" : [
                0.4573972225189209,
                -0.7533450126647949,
                0.8311648368835449
            ],
            "min" : [
                -0.4573972225189209,
                -1.0383532047271729,
                0.4963708519935608
            ],
            "type" : "VEC3"
        },
        {
            "bufferView" : 1,
            "componentType" : 5126,
            "count" : 752,
            "type" : "VEC3"
        },
        {
            "bufferView" : 2,
            "componentType" : 5126,
            "count" : 752,
            "type" : "VEC2"
        },
        {
            "bufferView" : 3,
            "componentType" : 5123,
            "count" : 2880,
            "type" : "SCALAR"
        },
        {
            "bufferView" : 4,
            "componentType" : 5126,
            "count" : 256,
            "max" : [
                1.3291923999786377,
                1.1362663507461548,
                -4.424302577972412
            ],
            "min" : [
                -1.3291923999786377,
                0.30654919147491455,
                -5.503276348114014
            ],
            "type" : "VEC3"
        },
        {
            "bufferView" : 5,
            "componentType" : 5126,
            "count" : 256,
            "type" : "VEC3"
        },
        {
            "bufferView" : 6,
            "componentType" : 5126,
            "count" : 256,
            "type" : "VEC2"
        },
        {
            "bufferView" : 7,
            "componentType" : 5123,
            "count" : 756,
            "type" : "SCALAR"
        },
        {
            "bufferView" : 8,
            "componentType" : 5126,
            "count" : 684,
            "max" : [
                0.5850001573562622,
                1.2114336490631104,
                1.7775458097457886
            ],
            "min" : [
                -0.5850000977516174,
                -0.8348956108093262,
                -1.6104143857955933
            ],
            "type" : "VEC3"
        },
        {
            "bufferView" : 9,
            "componentType" : 5126,
            "count" : 684,
            "type" : "VEC3"
        },
        {
            "bufferView" : 10,
            "componentType" : 5126,
            "count" : 684,
            "type" : "VEC2"
        },
        {
            "bufferView" : 11,
            "componentType" : 5123,
            "count" : 2904,
            "type" : "SCALAR"
        },
        {
            "bufferView" : 12,
            "componentType" : 5126,
            "count" : 164,
            "max" : [
                0.475746214389801,
                0.6499906778335571,
                1.7777705192565918
            ],
            "min" : [
                -0.4757460951805115,
                -1.2823245525360107,
                -0.6901455521583557
            ],
            "type" : "VEC3"
        },
        {
            "bufferView" : 13,
            "componentType" : 5126,
            "count" : 164,
            "type" : "VEC3"
        },
        {
            "bufferView" : 14,
            "componentType" : 5126,
            "count" : 164,
            "type" : "VEC2"
        },
        {
            "bufferView" : 15,
            "componentType" : 5123,
            "count" : 372,
            "type" : "SCALAR"
        },
        {
            "bufferView" : 16,
            "componentType" : 5126,
            "count" : 80,
            "max" : [
                0.475746214389801,
                -1.2152432203292847,
                0.7902164459228516
            ],
            "min" : [
                -0.4757460951805115,
                -1.3940054178237915,
                -0.5623499751091003
            ],
            "type" : "VEC3"
        },
        {
            "bufferView" : 17,
            "componentType" : 5126,
            "count" : 80,
            "type" : "VEC3"
        },
        {
            "bufferView" : 18,
            "componentType" : 5126,
            "count" : 80,
            "type" : "VEC2"
        },
        {
            "bufferView" : 19,
            "componentType" : 5123,
            "count" : 120,
            "type" : "SCALAR"
        },
        {
            "bufferView" : 20,
            "componentType" : 5126,
            "count" : 642,
            "max" : [
                3.763674736022949,
                -0.11111167818307877,
                2.513237714767456
            ],
            "min" : [
                -3.763674736022949,
                -3.5645804405212402,
                -0.40679869055747986
            ],
            "type" : "VEC3"
        },
        {
            "bufferView" : 21,
            "componentType" : 5126,
            "count" : 642,
            "type" : "VEC3"
        },
        {
            "bufferView" : 22,
            "componentType" : 5126,
            "count" : 642,
            "type" : "VEC2"
        },
        {
            "bufferView" : 23,
            "componentType" : 5123,
            "count" : 3744,
            "type" : "SCALAR"
        },
        {
            "bufferView" : 24,
            "componentType" : 5126,
            "count" : 752,
            "max" : [
                1.2953357696533203,
                7.90000057220459,
                17.240537643432617
            ],
            "min" : [
                2.8697024390567094e-05,
                -1.8999989032745361,
                -19.159460067749023
            ],
            "type" : "VEC3"
        },
        {
            "bufferView" : 25,
            "componentType" : 5126,
            "count" : 752,
            "type" : "VEC3"
        },
        {
            "bufferView" : 26,
            "componentType" : 5126,
            "count" : 752,
            "type" : "VEC2"
        },
        {
            "bufferView" : 27,
            "componentType" : 5123,
            "count" : 1680,
            "type" : "SCALAR"
        }
    ],
    "bufferViews" : [
        {
            "buffer" : 0,
            "byteLength" : 9024,
            "byteOffset" : 0
        },
        {
            "buffer" : 0,
            "byteLength" : 9024,
            "byteOffset" : 9024
        },
        {
            "buffer" : 0,
            "byteLength" : 6016,
            "byteOffset" : 18048
        },
        {
            "buffer" : 0,
            "byteLength" : 5760,
            "byteOffset" : 24064
        },
        {
            "buffer" : 0,
            "byteLength" : 3072,
            "byteOffset" : 29824
        },
        {
            "buffer" : 0,
            "byteLength" : 3072,
            "byteOffset" : 32896
        },
        {
            "buffer" : 0,
            "byteLength" : 2048,
            "byteOffset" : 35968
        },
        {
            "buffer" : 0,
            "byteLength" : 1512,
            "byteOffset" : 38016
        },
        {
            "buffer" : 0,
            "byteLength" : 8208,
            "byteOffset" : 39528
        },
        {
            "buffer" : 0,
            "byteLength" : 8208,
            "byteOffset" : 47736
        },
        {
            "buffer" : 0,
            "byteLength" : 5472,
            "byteOffset" : 55944
        },
        {
            "buffer" : 0,
            "byteLength" : 5808,
            "byteOffset" : 61416
        },
        {
            "buffer" : 0,
            "byteLength" : 1968,
            "byteOffset" : 67224
        },
        {
            "buffer" : 0,
            "byteLength" : 1968,
            "byteOffset" : 69192
        },
        {
            "buffer" : 0,
            "byteLength" : 1312,
            "byteOffset" : 71160
        },
        {
            "buffer" : 0,
            "byteLength" : 744,
            "byteOffset" : 72472
        },
        {
            "buffer" : 0,
            "byteLength" : 960,
            "byteOffset" : 73216
        },
        {
            "buffer" : 0,
            "byteLength" : 960,
            "byteOffset" : 74176
        },
        {
            "buffer" : 0,
            "byteLength" : 640,
            "byteOffset" : 75136
        },
        {
            "buffer" : 0,
            "byteLength" : 240,
            "byteOffset" : 75776
        },
        {
            "buffer" : 0,
            "byteLength" : 7704,
            "byteOffset" : 76016
        },
        {
            "buffer" : 0,
            "byteLength" : 7704,
            "byteOffset" : 83720
        },
        {
            "buffer" : 0,
            "byteLength" : 5136,
            "byteOffset" : 91424
        },
        {
            "buffer" : 0,
            "byteLength" : 7488,
            "byteOffset" : 96560
        },
        {
            "buffer" : 0,
            "byteLength" : 9024,
            "byteOffset" : 104048
        },
        {
            "buffer" : 0,
            "byteLength" : 9024,
            "byteOffset" : 113072
        },
        {
            "buffer" : 0,
            "byteLength" : 6016,
            "byteOffset" : 122096
        },
        {
            "buffer" : 0,
            "byteLength" : 3360,
            "byteOffset" : 128112
        },
        {
            "buffer" : 0,
            "byteLength" : 6474,
            "byteOffset" : 131472
        }
    ],
    "samplers" : [
        {
            "magFilter" : 9729,
            "minFilter" : 9987
        }
    ],
    "buffers" : [
        {
            "byteLength" : 137948,
            "uri" : "data:application/octet-stream;base64,"
        }
    ]
}
