{
    "asset" : {
        "copyright" : "Jeremy Edelblut",
        "generator" : "Khronos glTF Blender I/O v1.6.16",
        "version" : "2.0"
    },
    "scene" : 0,
    "scenes" : [
        {
            "name" : "Scene",
            "nodes" : [
                0,
                1
            ]
        }
    ],
    "nodes" : [
        {
            "mesh" : 0,
            "name" : "Circle.1916",
            "rotation" : [
                0.5000001192092896,
                -0.49999988079071045,
                0.49999991059303284,
                0.5000001192092896
            ],
            "scale" : [
                0.39643746614456177,
                0.39643746614456177,
                0.39643746614456177
            ],
            "translation" : [
                -0.8106226325035095,
                0.23027533292770386,
                0
            ]
        },
        {
            "mesh" : 1,
            "name" : "Plane.139",
            "rotation" : [
                0,
                -0.7071068286895752,
                0,
                0.7071068286895752
            ],
            "scale" : [
                0.6607291102409363,
                0.6607291102409363,
                0.6607291102409363
            ],
            "translation" : [
                -0.0721435397863388,
                -0.23766480386257172,
                0
            ]
        }
    ],
    "materials" : [
        {
            "doubleSided" : true,
            "name" : "DKBrown",
            "pbrMetallicRoughness" : {
                "baseColorFactor" : [
                    0.010021701455116272,
                    0.0023923655971884727,
                    0.0018060366855934262,
                    1
                ],
                "metallicFactor" : 0,
                "roughnessFactor" : 0.5
            }
        },
        {
            "doubleSided" : true,
            "name" : "gray",
            "pbrMetallicRoughness" : {
                "baseColorFactor" : [
                    0.10474124550819397,
                    0.09742098301649094,
                    0.10653529316186905,
                    1
                ],
                "metallicFactor" : 0,
                "roughnessFactor" : 0.5
            }
        },
        {
            "doubleSided" : true,
            "name" : "Color",
            "pbrMetallicRoughness" : {
                "baseColorTexture" : {
                    "index" : 0
                },
                "metallicFactor" : 0,
                "roughnessFactor" : 0.5
            }
        }
    ],
    "meshes" : [
        {
            "name" : "Circle.2132",
            "primitives" : [
                {
                    "attributes" : {
                        "POSITION" : 0,
                        "NORMAL" : 1,
                        "TEXCOORD_0" : 2
                    },
                    "indices" : 3,
                    "material" : 0
                }
            ]
        },
        {
            "name" : "Plane.139",
            "primitives" : [
                {
                    "attributes" : {
                        "POSITION" : 4,
                        "NORMAL" : 5,
                        "TEXCOORD_0" : 6
                    },
                    "indices" : 7,
                    "material" : 1
                },
                {
                    "attributes" : {
                        "POSITION" : 8,
                        "NORMAL" : 9,
                        "TEXCOORD_0" : 10
                    },
                    "indices" : 11,
                    "material" : 2
                }
            ]
        }
    ],
    "textures" : [
        {
            "sampler" : 0,
            "source" : 0
        }
    ],
    "images" : [
        {
            "bufferView" : 12,
            "mimeType" : "image/png",
            "name" : "tex2"
        }
    ],
    "accessors" : [
        {
            "bufferView" : 0,
            "componentType" : 5126,
            "count" : 752,
            "max" : [
                0.3257685899734497,
                0.11010656505823135,
                0.2196950912475586
            ],
            "min" : [
                -0.3257685899734497,
                -0.08322521299123764,
                -0.009344481863081455
            ],
            "type" : "VEC3"
        },
        {
            "bufferView" : 1,
            "componentType" : 5126,
            "count" : 752,
            "type" : "VEC3"
        },
        {
            "bufferView" : 2,
            "componentType" : 5126,
            "count" : 752,
            "type" : "VEC2"
        },
        {
            "bufferView" : 3,
            "componentType" : 5123,
            "count" : 2880,
            "type" : "SCALAR"
        },
        {
            "bufferView" : 4,
            "componentType" : 5126,
            "count" : 520,
            "max" : [
                0.29842129349708557,
                1.0599392652511597,
                1.5940625667572021
            ],
            "min" : [
                -0.29842129349708557,
                -0.22831332683563232,
                -0.6665689945220947
            ],
            "type" : "VEC3"
        },
        {
            "bufferView" : 5,
            "componentType" : 5126,
            "count" : 520,
            "type" : "VEC3"
        },
        {
            "bufferView" : 6,
            "componentType" : 5126,
            "count" : 520,
            "type" : "VEC2"
        },
        {
            "bufferView" : 7,
            "componentType" : 5123,
            "count" : 1614,
            "type" : "SCALAR"
        },
        {
            "bufferView" : 8,
            "componentType" : 5126,
            "count" : 300,
            "max" : [
                0.29842129349708557,
                1.0150563716888428,
                1.6177473068237305
            ],
            "min" : [
                -0.29842129349708557,
                -0.26253029704093933,
                -1.8004356622695923
            ],
            "type" : "VEC3"
        },
        {
            "bufferView" : 9,
            "componentType" : 5126,
            "count" : 300,
            "type" : "VEC3"
        },
        {
            "bufferView" : 10,
            "componentType" : 5126,
            "count" : 300,
            "type" : "VEC2"
        },
        {
            "bufferView" : 11,
            "componentType" : 5123,
            "count" : 726,
            "type" : "SCALAR"
        }
    ],
    "bufferViews" : [
        {
            "buffer" : 0,
            "byteLength" : 9024,
            "byteOffset" : 0
        },
        {
            "buffer" : 0,
            "byteLength" : 9024,
            "byteOffset" : 9024
        },
        {
            "buffer" : 0,
            "byteLength" : 6016,
            "byteOffset" : 18048
        },
        {
            "buffer" : 0,
            "byteLength" : 5760,
            "byteOffset" : 24064
        },
        {
            "buffer" : 0,
            "byteLength" : 6240,
            "byteOffset" : 29824
        },
        {
            "buffer" : 0,
            "byteLength" : 6240,
            "byteOffset" : 36064
        },
        {
            "buffer" : 0,
            "byteLength" : 4160,
            "byteOffset" : 42304
        },
        {
            "buffer" : 0,
            "byteLength" : 3228,
            "byteOffset" : 46464
        },
        {
            "buffer" : 0,
            "byteLength" : 3600,
            "byteOffset" : 49692
        },
        {
            "buffer" : 0,
            "byteLength" : 3600,
            "byteOffset" : 53292
        },
        {
            "buffer" : 0,
            "byteLength" : 2400,
            "byteOffset" : 56892
        },
        {
            "buffer" : 0,
            "byteLength" : 1452,
            "byteOffset" : 59292
        },
        {
            "buffer" : 0,
            "byteLength" : 6478,
            "byteOffset" : 60744
        }
    ],
    "samplers" : [
        {
            "magFilter" : 9729,
            "minFilter" : 9987
        }
    ],
    "buffers" : [
        {
            "byteLength" : 67224,
            "uri" : "data:application/octet-stream;base64,"
        }
    ]
}
