{
    "asset" : {
        "copyright" : "Jeremy Edelblut",
        "generator" : "Khronos glTF Blender I/O v1.6.16",
        "version" : "2.0"
    },
    "scene" : 0,
    "scenes" : [
        {
            "name" : "Scene",
            "nodes" : [
                0,
                1,
                2,
                3
            ]
        }
    ],
    "nodes" : [
        {
            "mesh" : 0,
            "name" : "Circle.1912",
            "rotation" : [
                0.653281569480896,
                -0.270597904920578,
                0.2705979347229004,
                0.6532815098762512
            ],
            "translation" : [
                -0.49057936668395996,
                0.5111232399940491,
                0.437283992767334
            ]
        },
        {
            "mesh" : 1,
            "name" : "Plane.136",
            "rotation" : [
                0,
                -0.3826834559440613,
                0,
                0.9238795042037964
            ],
            "translation" : [
                0.43450284004211426,
                0.030797578394412994,
                -0.48779815435409546
            ]
        },
        {
            "mesh" : 2,
            "name" : "Cube.6240",
            "rotation" : [
                0,
                -0.3826834559440613,
                0,
                0.9238795042037964
            ],
            "translation" : [
                0.43450284004211426,
                -0.01995866745710373,
                -0.48779815435409546
            ]
        },
        {
            "mesh" : 3,
            "name" : "3moji.org.225",
            "rotation" : [
                -0.2651630640029907,
                0.2759256362915039,
                -0.6401616334915161,
                0.6661432385444641
            ],
            "translation" : [
                0.37985092401504517,
                -0.37147241830825806,
                -0.43071746826171875
            ]
        }
    ],
    "materials" : [
        {
            "doubleSided" : true,
            "name" : "Color",
            "pbrMetallicRoughness" : {
                "baseColorTexture" : {
                    "index" : 0
                },
                "metallicFactor" : 0,
                "roughnessFactor" : 0.5
            }
        }
    ],
    "meshes" : [
        {
            "name" : "Circle.2128",
            "primitives" : [
                {
                    "attributes" : {
                        "POSITION" : 0,
                        "NORMAL" : 1,
                        "TEXCOORD_0" : 2
                    },
                    "indices" : 3,
                    "material" : 0
                }
            ]
        },
        {
            "name" : "Plane.136",
            "primitives" : [
                {
                    "attributes" : {
                        "POSITION" : 4,
                        "NORMAL" : 5,
                        "TEXCOORD_0" : 6
                    },
                    "indices" : 7,
                    "material" : 0
                }
            ]
        },
        {
            "name" : "Cube.7298",
            "primitives" : [
                {
                    "attributes" : {
                        "POSITION" : 8,
                        "NORMAL" : 9,
                        "TEXCOORD_0" : 10
                    },
                    "indices" : 11,
                    "material" : 0
                }
            ]
        },
        {
            "name" : "Cube.687",
            "primitives" : [
                {
                    "attributes" : {
                        "POSITION" : 12,
                        "NORMAL" : 13,
                        "TEXCOORD_0" : 14
                    },
                    "indices" : 15,
                    "material" : 0
                }
            ]
        }
    ],
    "textures" : [
        {
            "sampler" : 0,
            "source" : 0
        }
    ],
    "images" : [
        {
            "bufferView" : 4,
            "mimeType" : "image/png",
            "name" : "tex"
        }
    ],
    "accessors" : [
        {
            "bufferView" : 0,
            "componentType" : 5126,
            "count" : 644,
            "max" : [
                0.18827451765537262,
                0.2487373650074005,
                0.20958997309207916
            ],
            "min" : [
                -0.18827451765537262,
                0.1761438101530075,
                0.12358533591032028
            ],
            "type" : "VEC3"
        },
        {
            "bufferView" : 1,
            "componentType" : 5126,
            "count" : 644,
            "type" : "VEC3"
        },
        {
            "bufferView" : 2,
            "componentType" : 5126,
            "count" : 644,
            "type" : "VEC2"
        },
        {
            "bufferView" : 3,
            "componentType" : 5123,
            "count" : 2880,
            "type" : "SCALAR"
        },
        {
            "bufferView" : 5,
            "componentType" : 5126,
            "count" : 756,
            "max" : [
                0.3691270649433136,
                0.7355265617370605,
                1.9462108612060547
            ],
            "min" : [
                -0.3691270649433136,
                -0.82790607213974,
                -0.9700487852096558
            ],
            "type" : "VEC3"
        },
        {
            "bufferView" : 6,
            "componentType" : 5126,
            "count" : 756,
            "type" : "VEC3"
        },
        {
            "bufferView" : 7,
            "componentType" : 5126,
            "count" : 756,
            "type" : "VEC2"
        },
        {
            "bufferView" : 8,
            "componentType" : 5123,
            "count" : 2568,
            "type" : "SCALAR"
        },
        {
            "bufferView" : 9,
            "componentType" : 5126,
            "count" : 130,
            "max" : [
                0.30158984661102295,
                0.5033963322639465,
                1.4430594444274902
            ],
            "min" : [
                -0.30158984661102295,
                0.4070205092430115,
                1.3879749774932861
            ],
            "type" : "VEC3"
        },
        {
            "bufferView" : 10,
            "componentType" : 5126,
            "count" : 130,
            "type" : "VEC3"
        },
        {
            "bufferView" : 11,
            "componentType" : 5126,
            "count" : 130,
            "type" : "VEC2"
        },
        {
            "bufferView" : 12,
            "componentType" : 5123,
            "count" : 360,
            "type" : "SCALAR"
        },
        {
            "bufferView" : 13,
            "componentType" : 5126,
            "count" : 752,
            "max" : [
                0.0036346614360809326,
                0.022167088463902473,
                0.04837629199028015
            ],
            "min" : [
                8.052272448821896e-08,
                -0.005331321619451046,
                -0.05376071855425835
            ],
            "type" : "VEC3"
        },
        {
            "bufferView" : 14,
            "componentType" : 5126,
            "count" : 752,
            "type" : "VEC3"
        },
        {
            "bufferView" : 15,
            "componentType" : 5126,
            "count" : 752,
            "type" : "VEC2"
        },
        {
            "bufferView" : 16,
            "componentType" : 5123,
            "count" : 1680,
            "type" : "SCALAR"
        }
    ],
    "bufferViews" : [
        {
            "buffer" : 0,
            "byteLength" : 7728,
            "byteOffset" : 0
        },
        {
            "buffer" : 0,
            "byteLength" : 7728,
            "byteOffset" : 7728
        },
        {
            "buffer" : 0,
            "byteLength" : 5152,
            "byteOffset" : 15456
        },
        {
            "buffer" : 0,
            "byteLength" : 5760,
            "byteOffset" : 20608
        },
        {
            "buffer" : 0,
            "byteLength" : 3214,
            "byteOffset" : 26368
        },
        {
            "buffer" : 0,
            "byteLength" : 9072,
            "byteOffset" : 29584
        },
        {
            "buffer" : 0,
            "byteLength" : 9072,
            "byteOffset" : 38656
        },
        {
            "buffer" : 0,
            "byteLength" : 6048,
            "byteOffset" : 47728
        },
        {
            "buffer" : 0,
            "byteLength" : 5136,
            "byteOffset" : 53776
        },
        {
            "buffer" : 0,
            "byteLength" : 1560,
            "byteOffset" : 58912
        },
        {
            "buffer" : 0,
            "byteLength" : 1560,
            "byteOffset" : 60472
        },
        {
            "buffer" : 0,
            "byteLength" : 1040,
            "byteOffset" : 62032
        },
        {
            "buffer" : 0,
            "byteLength" : 720,
            "byteOffset" : 63072
        },
        {
            "buffer" : 0,
            "byteLength" : 9024,
            "byteOffset" : 63792
        },
        {
            "buffer" : 0,
            "byteLength" : 9024,
            "byteOffset" : 72816
        },
        {
            "buffer" : 0,
            "byteLength" : 6016,
            "byteOffset" : 81840
        },
        {
            "buffer" : 0,
            "byteLength" : 3360,
            "byteOffset" : 87856
        }
    ],
    "samplers" : [
        {
            "magFilter" : 9729,
            "minFilter" : 9987
        }
    ],
    "buffers" : [
        {
            "byteLength" : 91216,
            "uri" : "data:application/octet-stream;base64,"
        }
    ]
}
