{
    "asset" : {
        "copyright" : "Jeremy Edelblut",
        "generator" : "Khronos glTF Blender I/O v1.7.33",
        "version" : "2.0"
    },
    "scene" : 0,
    "scenes" : [
        {
            "name" : "Scene",
            "nodes" : [
                0
            ]
        }
    ],
    "nodes" : [
        {
            "mesh" : 0,
            "name" : "Rolling on the Floor Laughing",
            "rotation" : [
                0.27059805393218994,
                -0.6532815098762512,
                0.27059805393218994,
                0.6532814502716064
            ],
            "translation" : [
                0,
                -1.4077871128392871e-05,
                0
            ]
        }
    ],
    "materials" : [
        {
            "doubleSided" : true,
            "name" : "color",
            "pbrMetallicRoughness" : {
                "baseColorTexture" : {
                    "index" : 0
                },
                "metallicFactor" : 0,
                "roughnessFactor" : 0.5
            }
        }
    ],
    "meshes" : [
        {
            "name" : "Cube.010",
            "primitives" : [
                {
                    "attributes" : {
                        "POSITION" : 0,
                        "NORMAL" : 1,
                        "TEXCOORD_0" : 2
                    },
                    "indices" : 3,
                    "material" : 0
                }
            ]
        }
    ],
    "textures" : [
        {
            "sampler" : 0,
            "source" : 0
        }
    ],
    "images" : [
        {
            "bufferView" : 4,
            "mimeType" : "image/png",
            "name" : "tex"
        }
    ],
    "accessors" : [
        {
            "bufferView" : 0,
            "componentType" : 5126,
            "count" : 4293,
            "max" : [
                0.8713070750236511,
                0.8446488380432129,
                0.9426232576370239
            ],
            "min" : [
                -0.8543609976768494,
                -0.8446488380432129,
                -0.9426233768463135
            ],
            "type" : "VEC3"
        },
        {
            "bufferView" : 1,
            "componentType" : 5126,
            "count" : 4293,
            "type" : "VEC3"
        },
        {
            "bufferView" : 2,
            "componentType" : 5126,
            "count" : 4293,
            "type" : "VEC2"
        },
        {
            "bufferView" : 3,
            "componentType" : 5123,
            "count" : 21174,
            "type" : "SCALAR"
        }
    ],
    "bufferViews" : [
        {
            "buffer" : 0,
            "byteLength" : 51516,
            "byteOffset" : 0
        },
        {
            "buffer" : 0,
            "byteLength" : 51516,
            "byteOffset" : 51516
        },
        {
            "buffer" : 0,
            "byteLength" : 34344,
            "byteOffset" : 103032
        },
        {
            "buffer" : 0,
            "byteLength" : 42348,
            "byteOffset" : 137376
        },
        {
            "buffer" : 0,
            "byteLength" : 11997,
            "byteOffset" : 179724
        }
    ],
    "samplers" : [
        {
            "magFilter" : 9729,
            "minFilter" : 9987
        }
    ],
    "buffers" : [
        {
            "byteLength" : 191724,
            "uri" : "data:application/octet-stream;base64,"
        }
    ]
}
