{
    "asset" : {
        "copyright" : "Jeremy Edelblut",
        "generator" : "Khronos glTF Blender I/O v1.6.16",
        "version" : "2.0"
    },
    "scene" : 0,
    "scenes" : [
        {
            "name" : "Scene",
            "nodes" : [
                0
            ]
        }
    ],
    "nodes" : [
        {
            "mesh" : 0,
            "name" : "Circle.2030",
            "rotation" : [
                0.1406279057264328,
                -0.8804112672805786,
                -0.19594332575798035,
                0.40829649567604065
            ],
            "scale" : [
                0.24947145581245422,
                0.24947147071361542,
                0.24947144091129303
            ],
            "translation" : [
                -0.014035898260772228,
                -0.12125706672668457,
                -0.018348217010498047
            ]
        }
    ],
    "materials" : [
        {
            "doubleSided" : true,
            "name" : "Color",
            "pbrMetallicRoughness" : {
                "baseColorTexture" : {
                    "index" : 0
                },
                "metallicFactor" : 0,
                "roughnessFactor" : 0.5
            }
        }
    ],
    "meshes" : [
        {
            "name" : "Circle.2378",
            "primitives" : [
                {
                    "attributes" : {
                        "POSITION" : 0,
                        "NORMAL" : 1,
                        "TEXCOORD_0" : 2
                    },
                    "indices" : 3,
                    "material" : 0
                }
            ]
        }
    ],
    "textures" : [
        {
            "sampler" : 0,
            "source" : 0
        }
    ],
    "images" : [
        {
            "bufferView" : 4,
            "mimeType" : "image/png",
            "name" : "tex2"
        }
    ],
    "accessors" : [
        {
            "bufferView" : 0,
            "componentType" : 5126,
            "count" : 2774,
            "max" : [
                2.6645915508270264,
                5.162879943847656,
                3.3053629398345947
            ],
            "min" : [
                -2.678328275680542,
                -4.905853748321533,
                -2.989532947540283
            ],
            "type" : "VEC3"
        },
        {
            "bufferView" : 1,
            "componentType" : 5126,
            "count" : 2774,
            "type" : "VEC3"
        },
        {
            "bufferView" : 2,
            "componentType" : 5126,
            "count" : 2774,
            "type" : "VEC2"
        },
        {
            "bufferView" : 3,
            "componentType" : 5123,
            "count" : 10266,
            "type" : "SCALAR"
        }
    ],
    "bufferViews" : [
        {
            "buffer" : 0,
            "byteLength" : 33288,
            "byteOffset" : 0
        },
        {
            "buffer" : 0,
            "byteLength" : 33288,
            "byteOffset" : 33288
        },
        {
            "buffer" : 0,
            "byteLength" : 22192,
            "byteOffset" : 66576
        },
        {
            "buffer" : 0,
            "byteLength" : 20532,
            "byteOffset" : 88768
        },
        {
            "buffer" : 0,
            "byteLength" : 6474,
            "byteOffset" : 109300
        }
    ],
    "samplers" : [
        {
            "magFilter" : 9729,
            "minFilter" : 9987
        }
    ],
    "buffers" : [
        {
            "byteLength" : 115776,
            "uri" : "data:application/octet-stream;base64,"
        }
    ]
}
