{
    "asset" : {
        "copyright" : "Jeremy Edelblut",
        "generator" : "Khronos glTF Blender I/O v1.6.16",
        "version" : "2.0"
    },
    "scene" : 0,
    "scenes" : [
        {
            "name" : "Scene",
            "nodes" : [
                0
            ]
        }
    ],
    "nodes" : [
        {
            "mesh" : 0,
            "name" : "Sphere.363",
            "scale" : [
                0.5400000214576721,
                0.5400000214576721,
                0.5400000214576721
            ],
            "translation" : [
                0,
                -0.09872221201658249,
                -0.5450900793075562
            ]
        }
    ],
    "materials" : [
        {
            "doubleSided" : true,
            "name" : "TearBlue",
            "pbrMetallicRoughness" : {
                "baseColorFactor" : [
                    0.007501601707190275,
                    0.6894696354866028,
                    0.8000000715255737,
                    1
                ],
                "metallicFactor" : 0,
                "roughnessFactor" : 0.5
            }
        },
        {
            "doubleSided" : true,
            "name" : "white",
            "pbrMetallicRoughness" : {
                "baseColorFactor" : [
                    0.800000011920929,
                    0.800000011920929,
                    0.800000011920929,
                    1
                ],
                "metallicFactor" : 0,
                "roughnessFactor" : 0.5
            }
        }
    ],
    "meshes" : [
        {
            "name" : "Sphere.319",
            "primitives" : [
                {
                    "attributes" : {
                        "POSITION" : 0,
                        "NORMAL" : 1,
                        "TEXCOORD_0" : 2
                    },
                    "indices" : 3,
                    "material" : 0
                },
                {
                    "attributes" : {
                        "POSITION" : 4,
                        "NORMAL" : 5,
                        "TEXCOORD_0" : 6
                    },
                    "indices" : 7,
                    "material" : 1
                }
            ]
        }
    ],
    "accessors" : [
        {
            "bufferView" : 0,
            "componentType" : 5126,
            "count" : 683,
            "max" : [
                0.8790052533149719,
                1.2611582279205322,
                3.039217710494995
            ],
            "min" : [
                -0.8790051341056824,
                -0.07216553390026093,
                -1.024474859237671
            ],
            "type" : "VEC3"
        },
        {
            "bufferView" : 1,
            "componentType" : 5126,
            "count" : 683,
            "type" : "VEC3"
        },
        {
            "bufferView" : 2,
            "componentType" : 5126,
            "count" : 683,
            "type" : "VEC2"
        },
        {
            "bufferView" : 3,
            "componentType" : 5123,
            "count" : 1872,
            "type" : "SCALAR"
        },
        {
            "bufferView" : 4,
            "componentType" : 5126,
            "count" : 482,
            "max" : [
                0.8822436928749084,
                1.0111571550369263,
                3.0422005653381348
            ],
            "min" : [
                -0.8822436332702637,
                -0.18548855185508728,
                -1.0340851545333862
            ],
            "type" : "VEC3"
        },
        {
            "bufferView" : 5,
            "componentType" : 5126,
            "count" : 482,
            "type" : "VEC3"
        },
        {
            "bufferView" : 6,
            "componentType" : 5126,
            "count" : 482,
            "type" : "VEC2"
        },
        {
            "bufferView" : 7,
            "componentType" : 5123,
            "count" : 1740,
            "type" : "SCALAR"
        }
    ],
    "bufferViews" : [
        {
            "buffer" : 0,
            "byteLength" : 8196,
            "byteOffset" : 0
        },
        {
            "buffer" : 0,
            "byteLength" : 8196,
            "byteOffset" : 8196
        },
        {
            "buffer" : 0,
            "byteLength" : 5464,
            "byteOffset" : 16392
        },
        {
            "buffer" : 0,
            "byteLength" : 3744,
            "byteOffset" : 21856
        },
        {
            "buffer" : 0,
            "byteLength" : 5784,
            "byteOffset" : 25600
        },
        {
            "buffer" : 0,
            "byteLength" : 5784,
            "byteOffset" : 31384
        },
        {
            "buffer" : 0,
            "byteLength" : 3856,
            "byteOffset" : 37168
        },
        {
            "buffer" : 0,
            "byteLength" : 3480,
            "byteOffset" : 41024
        }
    ],
    "buffers" : [
        {
            "byteLength" : 44504,
            "uri" : "data:application/octet-stream;base64,"
        }
    ]
}
