{
    "asset" : {
        "copyright" : "Jeremy Edelblut",
        "generator" : "Khronos glTF Blender I/O v1.7.33",
        "version" : "2.0"
    },
    "scene" : 0,
    "scenes" : [
        {
            "name" : "Scene",
            "nodes" : [
                0,
                1
            ]
        }
    ],
    "nodes" : [
        {
            "mesh" : 0,
            "name" : "Circle.1798",
            "rotation" : [
                0.5,
                -0.5,
                0.5,
                0.4999999701976776
            ],
            "scale" : [
                1.100000023841858,
                1.100000023841858,
                1.100000023841858
            ],
            "translation" : [
                0,
                -0.05734872445464134,
                0
            ]
        },
        {
            "mesh" : 1,
            "name" : "Circle.1799",
            "rotation" : [
                0.5,
                -0.5,
                0.5,
                0.4999999701976776
            ],
            "scale" : [
                1.100000023841858,
                1.100000023841858,
                1.100000023841858
            ],
            "translation" : [
                0,
                -0.05734872445464134,
                0
            ]
        }
    ],
    "materials" : [
        {
            "doubleSided" : true,
            "name" : "color",
            "pbrMetallicRoughness" : {
                "baseColorTexture" : {
                    "index" : 0
                },
                "metallicFactor" : 0,
                "roughnessFactor" : 0.5
            }
        }
    ],
    "meshes" : [
        {
            "name" : "Circle.1998",
            "primitives" : [
                {
                    "attributes" : {
                        "POSITION" : 0,
                        "NORMAL" : 1,
                        "TEXCOORD_0" : 2
                    },
                    "indices" : 3,
                    "material" : 0
                }
            ]
        },
        {
            "name" : "Circle.1999",
            "primitives" : [
                {
                    "attributes" : {
                        "POSITION" : 4,
                        "NORMAL" : 5,
                        "TEXCOORD_0" : 6
                    },
                    "indices" : 7,
                    "material" : 0
                }
            ]
        }
    ],
    "textures" : [
        {
            "sampler" : 0,
            "source" : 0
        }
    ],
    "images" : [
        {
            "bufferView" : 4,
            "mimeType" : "image/png",
            "name" : "tex"
        }
    ],
    "accessors" : [
        {
            "bufferView" : 0,
            "componentType" : 5126,
            "count" : 1209,
            "max" : [
                0.14353999495506287,
                0.7001549005508423,
                0.9442272186279297
            ],
            "min" : [
                -0.5202606320381165,
                -0.6997732520103455,
                -1.0646194219589233
            ],
            "type" : "VEC3"
        },
        {
            "bufferView" : 1,
            "componentType" : 5126,
            "count" : 1209,
            "type" : "VEC3"
        },
        {
            "bufferView" : 2,
            "componentType" : 5126,
            "count" : 1209,
            "type" : "VEC2"
        },
        {
            "bufferView" : 3,
            "componentType" : 5123,
            "count" : 5400,
            "type" : "SCALAR"
        },
        {
            "bufferView" : 5,
            "componentType" : 5126,
            "count" : 440,
            "max" : [
                0.08881806582212448,
                0.45770981907844543,
                0.24975192546844482
            ],
            "min" : [
                -0.43083229660987854,
                -0.3579884171485901,
                -1.076978087425232
            ],
            "type" : "VEC3"
        },
        {
            "bufferView" : 6,
            "componentType" : 5126,
            "count" : 440,
            "type" : "VEC3"
        },
        {
            "bufferView" : 7,
            "componentType" : 5126,
            "count" : 440,
            "type" : "VEC2"
        },
        {
            "bufferView" : 8,
            "componentType" : 5123,
            "count" : 1440,
            "type" : "SCALAR"
        }
    ],
    "bufferViews" : [
        {
            "buffer" : 0,
            "byteLength" : 14508,
            "byteOffset" : 0
        },
        {
            "buffer" : 0,
            "byteLength" : 14508,
            "byteOffset" : 14508
        },
        {
            "buffer" : 0,
            "byteLength" : 9672,
            "byteOffset" : 29016
        },
        {
            "buffer" : 0,
            "byteLength" : 10800,
            "byteOffset" : 38688
        },
        {
            "buffer" : 0,
            "byteLength" : 11997,
            "byteOffset" : 49488
        },
        {
            "buffer" : 0,
            "byteLength" : 5280,
            "byteOffset" : 61488
        },
        {
            "buffer" : 0,
            "byteLength" : 5280,
            "byteOffset" : 66768
        },
        {
            "buffer" : 0,
            "byteLength" : 3520,
            "byteOffset" : 72048
        },
        {
            "buffer" : 0,
            "byteLength" : 2880,
            "byteOffset" : 75568
        }
    ],
    "samplers" : [
        {
            "magFilter" : 9729,
            "minFilter" : 9987
        }
    ],
    "buffers" : [
        {
            "byteLength" : 78448,
            "uri" : "data:application/octet-stream;base64,"
        }
    ]
}
