{
    "asset" : {
        "copyright" : "Jeremy Edelblut",
        "generator" : "Khronos glTF Blender I/O v1.6.16",
        "version" : "2.0"
    },
    "scene" : 0,
    "scenes" : [
        {
            "name" : "Scene",
            "nodes" : [
                0
            ]
        }
    ],
    "nodes" : [
        {
            "mesh" : 0,
            "name" : "Circle.2598",
            "rotation" : [
                0,
                -0.9238796234130859,
                0,
                0.38268348574638367
            ],
            "scale" : [
                0.9000000357627869,
                0.9000000357627869,
                0.9000000357627869
            ]
        }
    ],
    "materials" : [
        {
            "doubleSided" : true,
            "name" : "Color",
            "pbrMetallicRoughness" : {
                "baseColorTexture" : {
                    "index" : 0
                },
                "metallicFactor" : 0,
                "roughnessFactor" : 0.5
            }
        }
    ],
    "meshes" : [
        {
            "name" : "Circle.3270",
            "primitives" : [
                {
                    "attributes" : {
                        "POSITION" : 0,
                        "NORMAL" : 1,
                        "TEXCOORD_0" : 2
                    },
                    "indices" : 3,
                    "material" : 0
                }
            ]
        }
    ],
    "textures" : [
        {
            "sampler" : 0,
            "source" : 0
        }
    ],
    "images" : [
        {
            "bufferView" : 4,
            "mimeType" : "image/png",
            "name" : "tex2"
        }
    ],
    "accessors" : [
        {
            "bufferView" : 0,
            "componentType" : 5126,
            "count" : 1892,
            "max" : [
                1.3698124885559082,
                1.2051995992660522,
                1.1497358083724976
            ],
            "min" : [
                -1.0728291273117065,
                -1.0001238584518433,
                -1.2911626100540161
            ],
            "type" : "VEC3"
        },
        {
            "bufferView" : 1,
            "componentType" : 5126,
            "count" : 1892,
            "type" : "VEC3"
        },
        {
            "bufferView" : 2,
            "componentType" : 5126,
            "count" : 1892,
            "type" : "VEC2"
        },
        {
            "bufferView" : 3,
            "componentType" : 5123,
            "count" : 8868,
            "type" : "SCALAR"
        }
    ],
    "bufferViews" : [
        {
            "buffer" : 0,
            "byteLength" : 22704,
            "byteOffset" : 0
        },
        {
            "buffer" : 0,
            "byteLength" : 22704,
            "byteOffset" : 22704
        },
        {
            "buffer" : 0,
            "byteLength" : 15136,
            "byteOffset" : 45408
        },
        {
            "buffer" : 0,
            "byteLength" : 17736,
            "byteOffset" : 60544
        },
        {
            "buffer" : 0,
            "byteLength" : 6474,
            "byteOffset" : 78280
        }
    ],
    "samplers" : [
        {
            "magFilter" : 9729,
            "minFilter" : 9987
        }
    ],
    "buffers" : [
        {
            "byteLength" : 84756,
            "uri" : "data:application/octet-stream;base64,"
        }
    ]
}
