{
    "asset" : {
        "copyright" : "Jeremy Edelblut",
        "generator" : "Khronos glTF Blender I/O v1.6.16",
        "version" : "2.0"
    },
    "scene" : 0,
    "scenes" : [
        {
            "name" : "Scene",
            "nodes" : [
                0,
                1,
                2,
                3,
                4,
                5,
                6,
                7,
                8,
                9
            ]
        }
    ],
    "nodes" : [
        {
            "mesh" : 0,
            "name" : "Circle.675",
            "rotation" : [
                0.7071068286895752,
                0,
                0,
                0.7071068286895752
            ],
            "scale" : [
                2.706974744796753,
                2.706974744796753,
                2.706974744796753
            ]
        },
        {
            "mesh" : 1,
            "name" : "Circle.677",
            "rotation" : [
                0.7071068286895752,
                0,
                0,
                0.7071068286895752
            ],
            "scale" : [
                2.706974744796753,
                2.706974744796753,
                2.706974744796753
            ]
        },
        {
            "mesh" : 2,
            "name" : "Cylinder.098",
            "rotation" : [
                0,
                -0.7071068286895752,
                0,
                0.7071068286895752
            ],
            "scale" : [
                0.7010374069213867,
                0.7010374069213867,
                0.7010374069213867
            ]
        },
        {
            "mesh" : 3,
            "name" : "Roundcube.113",
            "rotation" : [
                0,
                -0.7071068286895752,
                0,
                0.7071068286895752
            ],
            "scale" : [
                0.7010374069213867,
                0.7010374069213867,
                0.7010374069213867
            ]
        },
        {
            "mesh" : 4,
            "name" : "Circle.678",
            "rotation" : [
                0.7071068286895752,
                0,
                0,
                0.7071068286895752
            ]
        },
        {
            "mesh" : 5,
            "name" : "Cube.1431",
            "rotation" : [
                0.15383964776992798,
                -0.7492061257362366,
                -0.09783472120761871,
                0.636751115322113
            ],
            "scale" : [
                0.10293129086494446,
                0.10293138027191162,
                0.10293129831552505
            ]
        },
        {
            "mesh" : 6,
            "name" : "Sphere.074",
            "rotation" : [
                0,
                -0.7071068286895752,
                0,
                0.7071068286895752
            ],
            "scale" : [
                0.5,
                0.5,
                0.5
            ]
        },
        {
            "mesh" : 7,
            "name" : "Circle.679",
            "rotation" : [
                0.7071068286895752,
                0,
                0,
                0.7071068286895752
            ]
        },
        {
            "mesh" : 8,
            "name" : "Circle.681",
            "rotation" : [
                0,
                -0.7071068286895752,
                0,
                0.7071068286895752
            ],
            "scale" : [
                0.36821019649505615,
                0.36821019649505615,
                0.36821019649505615
            ]
        },
        {
            "mesh" : 9,
            "name" : "Plane.057",
            "rotation" : [
                0.5,
                -0.5,
                -0.4999999701976776,
                0.5
            ],
            "scale" : [
                0.9027019739151001,
                0.9027019739151001,
                0.9027019739151001
            ]
        }
    ],
    "materials" : [
        {
            "doubleSided" : true,
            "name" : "Color",
            "pbrMetallicRoughness" : {
                "baseColorTexture" : {
                    "index" : 0
                },
                "metallicFactor" : 0,
                "roughnessFactor" : 0.5
            }
        }
    ],
    "meshes" : [
        {
            "name" : "Circle.712",
            "primitives" : [
                {
                    "attributes" : {
                        "POSITION" : 0,
                        "NORMAL" : 1,
                        "TEXCOORD_0" : 2
                    },
                    "indices" : 3,
                    "material" : 0
                }
            ]
        },
        {
            "name" : "Circle.726",
            "primitives" : [
                {
                    "attributes" : {
                        "POSITION" : 4,
                        "NORMAL" : 5,
                        "TEXCOORD_0" : 6
                    },
                    "indices" : 7,
                    "material" : 0
                }
            ]
        },
        {
            "name" : "Cylinder.098",
            "primitives" : [
                {
                    "attributes" : {
                        "POSITION" : 8,
                        "NORMAL" : 9,
                        "TEXCOORD_0" : 10
                    },
                    "indices" : 11,
                    "material" : 0
                }
            ]
        },
        {
            "name" : "Roundcube.114",
            "primitives" : [
                {
                    "attributes" : {
                        "POSITION" : 12,
                        "NORMAL" : 13,
                        "TEXCOORD_0" : 14
                    },
                    "indices" : 15,
                    "material" : 0
                }
            ]
        },
        {
            "name" : "Circle.732",
            "primitives" : [
                {
                    "attributes" : {
                        "POSITION" : 16,
                        "NORMAL" : 17,
                        "TEXCOORD_0" : 18
                    },
                    "indices" : 19,
                    "material" : 0
                }
            ]
        },
        {
            "name" : "Cube.1720",
            "primitives" : [
                {
                    "attributes" : {
                        "POSITION" : 20,
                        "NORMAL" : 21,
                        "TEXCOORD_0" : 22
                    },
                    "indices" : 23,
                    "material" : 0
                }
            ]
        },
        {
            "name" : "Sphere.062",
            "primitives" : [
                {
                    "attributes" : {
                        "POSITION" : 24,
                        "NORMAL" : 25,
                        "TEXCOORD_0" : 26
                    },
                    "indices" : 27,
                    "material" : 0
                }
            ]
        },
        {
            "name" : "Circle.733",
            "primitives" : [
                {
                    "attributes" : {
                        "POSITION" : 28,
                        "NORMAL" : 29,
                        "TEXCOORD_0" : 30
                    },
                    "indices" : 31,
                    "material" : 0
                }
            ]
        },
        {
            "name" : "Circle.748",
            "primitives" : [
                {
                    "attributes" : {
                        "POSITION" : 32,
                        "NORMAL" : 33,
                        "TEXCOORD_0" : 34
                    },
                    "indices" : 35,
                    "material" : 0
                }
            ]
        },
        {
            "name" : "Plane.051",
            "primitives" : [
                {
                    "attributes" : {
                        "POSITION" : 36,
                        "NORMAL" : 37,
                        "TEXCOORD_0" : 38
                    },
                    "indices" : 39,
                    "material" : 0
                }
            ]
        }
    ],
    "textures" : [
        {
            "sampler" : 0,
            "source" : 0
        }
    ],
    "images" : [
        {
            "bufferView" : 4,
            "mimeType" : "image/png",
            "name" : "tex2"
        }
    ],
    "accessors" : [
        {
            "bufferView" : 0,
            "componentType" : 5126,
            "count" : 1448,
            "max" : [
                0.13105370104312897,
                0.2163577377796173,
                -0.026259208098053932
            ],
            "min" : [
                -0.13105370104312897,
                0.1790487915277481,
                -0.11766227334737778
            ],
            "type" : "VEC3"
        },
        {
            "bufferView" : 1,
            "componentType" : 5126,
            "count" : 1448,
            "type" : "VEC3"
        },
        {
            "bufferView" : 2,
            "componentType" : 5126,
            "count" : 1448,
            "type" : "VEC2"
        },
        {
            "bufferView" : 3,
            "componentType" : 5123,
            "count" : 6912,
            "type" : "SCALAR"
        },
        {
            "bufferView" : 5,
            "componentType" : 5126,
            "count" : 422,
            "max" : [
                0.025262437760829926,
                0.22202681005001068,
                0.007146526128053665
            ],
            "min" : [
                -0.02451690286397934,
                0.20889705419540405,
                -0.022025583311915398
            ],
            "type" : "VEC3"
        },
        {
            "bufferView" : 6,
            "componentType" : 5126,
            "count" : 422,
            "type" : "VEC3"
        },
        {
            "bufferView" : 7,
            "componentType" : 5126,
            "count" : 422,
            "type" : "VEC2"
        },
        {
            "bufferView" : 8,
            "componentType" : 5123,
            "count" : 1824,
            "type" : "SCALAR"
        },
        {
            "bufferView" : 9,
            "componentType" : 5126,
            "count" : 2402,
            "max" : [
                -0.14859741926193237,
                0.5575903654098511,
                1.2573885917663574
            ],
            "min" : [
                -0.5303949117660522,
                -0.09217178821563721,
                -1.257388710975647
            ],
            "type" : "VEC3"
        },
        {
            "bufferView" : 10,
            "componentType" : 5126,
            "count" : 2402,
            "type" : "VEC3"
        },
        {
            "bufferView" : 11,
            "componentType" : 5126,
            "count" : 2402,
            "type" : "VEC2"
        },
        {
            "bufferView" : 12,
            "componentType" : 5123,
            "count" : 11520,
            "type" : "SCALAR"
        },
        {
            "bufferView" : 13,
            "componentType" : 5126,
            "count" : 2010,
            "max" : [
                0.8239538669586182,
                1.2452303171157837,
                1.0290236473083496
            ],
            "min" : [
                -1.3394240140914917,
                -2.0018975734710693,
                -1.0156068801879883
            ],
            "type" : "VEC3"
        },
        {
            "bufferView" : 14,
            "componentType" : 5126,
            "count" : 2010,
            "type" : "VEC3"
        },
        {
            "bufferView" : 15,
            "componentType" : 5126,
            "count" : 2010,
            "type" : "VEC2"
        },
        {
            "bufferView" : 16,
            "componentType" : 5123,
            "count" : 7980,
            "type" : "SCALAR"
        },
        {
            "bufferView" : 17,
            "componentType" : 5126,
            "count" : 332,
            "max" : [
                0.41677600145339966,
                0.5354512333869934,
                -0.31045061349868774
            ],
            "min" : [
                -0.41677600145339966,
                0.4104430377483368,
                -0.46096497774124146
            ],
            "type" : "VEC3"
        },
        {
            "bufferView" : 18,
            "componentType" : 5126,
            "count" : 332,
            "type" : "VEC3"
        },
        {
            "bufferView" : 19,
            "componentType" : 5126,
            "count" : 332,
            "type" : "VEC2"
        },
        {
            "bufferView" : 20,
            "componentType" : 5123,
            "count" : 1152,
            "type" : "SCALAR"
        },
        {
            "bufferView" : 21,
            "componentType" : 5126,
            "count" : 1310,
            "max" : [
                5.014802932739258,
                10.377996444702148,
                7.861618995666504
            ],
            "min" : [
                -10.800312042236328,
                -2.503880500793457,
                -7.311230659484863
            ],
            "type" : "VEC3"
        },
        {
            "bufferView" : 22,
            "componentType" : 5126,
            "count" : 1310,
            "type" : "VEC3"
        },
        {
            "bufferView" : 23,
            "componentType" : 5126,
            "count" : 1310,
            "type" : "VEC2"
        },
        {
            "bufferView" : 24,
            "componentType" : 5123,
            "count" : 3132,
            "type" : "SCALAR"
        },
        {
            "bufferView" : 25,
            "componentType" : 5126,
            "count" : 516,
            "max" : [
                0.10192406177520752,
                -1.253004550933838,
                1.5000004768371582
            ],
            "min" : [
                -1.8980764150619507,
                -2.7983813285827637,
                -1.5000004768371582
            ],
            "type" : "VEC3"
        },
        {
            "bufferView" : 26,
            "componentType" : 5126,
            "count" : 516,
            "type" : "VEC3"
        },
        {
            "bufferView" : 27,
            "componentType" : 5126,
            "count" : 516,
            "type" : "VEC2"
        },
        {
            "bufferView" : 28,
            "componentType" : 5123,
            "count" : 2418,
            "type" : "SCALAR"
        },
        {
            "bufferView" : 29,
            "componentType" : 5126,
            "count" : 1524,
            "max" : [
                0.4491739273071289,
                0.07096198201179504,
                1.2920953035354614
            ],
            "min" : [
                -0.4491739273071289,
                -0.40562108159065247,
                0.6110123991966248
            ],
            "type" : "VEC3"
        },
        {
            "bufferView" : 30,
            "componentType" : 5126,
            "count" : 1524,
            "type" : "VEC3"
        },
        {
            "bufferView" : 31,
            "componentType" : 5126,
            "count" : 1524,
            "type" : "VEC2"
        },
        {
            "bufferView" : 32,
            "componentType" : 5123,
            "count" : 6528,
            "type" : "SCALAR"
        },
        {
            "bufferView" : 33,
            "componentType" : 5126,
            "count" : 549,
            "max" : [
                2.053292751312256,
                -0.12183570861816406,
                -0.4781821370124817
            ],
            "min" : [
                0.09524554014205933,
                -3.524710178375244,
                -2.4362294673919678
            ],
            "type" : "VEC3"
        },
        {
            "bufferView" : 34,
            "componentType" : 5126,
            "count" : 549,
            "type" : "VEC3"
        },
        {
            "bufferView" : 35,
            "componentType" : 5126,
            "count" : 549,
            "type" : "VEC2"
        },
        {
            "bufferView" : 36,
            "componentType" : 5123,
            "count" : 2448,
            "type" : "SCALAR"
        },
        {
            "bufferView" : 37,
            "componentType" : 5126,
            "count" : 752,
            "max" : [
                0.04217332601547241,
                0.682037889957428,
                0.6091018915176392
            ],
            "min" : [
                -0.46831995248794556,
                0.5472537875175476,
                -0.6091020107269287
            ],
            "type" : "VEC3"
        },
        {
            "bufferView" : 38,
            "componentType" : 5126,
            "count" : 752,
            "type" : "VEC3"
        },
        {
            "bufferView" : 39,
            "componentType" : 5126,
            "count" : 752,
            "type" : "VEC2"
        },
        {
            "bufferView" : 40,
            "componentType" : 5123,
            "count" : 2256,
            "type" : "SCALAR"
        }
    ],
    "bufferViews" : [
        {
            "buffer" : 0,
            "byteLength" : 17376,
            "byteOffset" : 0
        },
        {
            "buffer" : 0,
            "byteLength" : 17376,
            "byteOffset" : 17376
        },
        {
            "buffer" : 0,
            "byteLength" : 11584,
            "byteOffset" : 34752
        },
        {
            "buffer" : 0,
            "byteLength" : 13824,
            "byteOffset" : 46336
        },
        {
            "buffer" : 0,
            "byteLength" : 6474,
            "byteOffset" : 60160
        },
        {
            "buffer" : 0,
            "byteLength" : 5064,
            "byteOffset" : 66636
        },
        {
            "buffer" : 0,
            "byteLength" : 5064,
            "byteOffset" : 71700
        },
        {
            "buffer" : 0,
            "byteLength" : 3376,
            "byteOffset" : 76764
        },
        {
            "buffer" : 0,
            "byteLength" : 3648,
            "byteOffset" : 80140
        },
        {
            "buffer" : 0,
            "byteLength" : 28824,
            "byteOffset" : 83788
        },
        {
            "buffer" : 0,
            "byteLength" : 28824,
            "byteOffset" : 112612
        },
        {
            "buffer" : 0,
            "byteLength" : 19216,
            "byteOffset" : 141436
        },
        {
            "buffer" : 0,
            "byteLength" : 23040,
            "byteOffset" : 160652
        },
        {
            "buffer" : 0,
            "byteLength" : 24120,
            "byteOffset" : 183692
        },
        {
            "buffer" : 0,
            "byteLength" : 24120,
            "byteOffset" : 207812
        },
        {
            "buffer" : 0,
            "byteLength" : 16080,
            "byteOffset" : 231932
        },
        {
            "buffer" : 0,
            "byteLength" : 15960,
            "byteOffset" : 248012
        },
        {
            "buffer" : 0,
            "byteLength" : 3984,
            "byteOffset" : 263972
        },
        {
            "buffer" : 0,
            "byteLength" : 3984,
            "byteOffset" : 267956
        },
        {
            "buffer" : 0,
            "byteLength" : 2656,
            "byteOffset" : 271940
        },
        {
            "buffer" : 0,
            "byteLength" : 2304,
            "byteOffset" : 274596
        },
        {
            "buffer" : 0,
            "byteLength" : 15720,
            "byteOffset" : 276900
        },
        {
            "buffer" : 0,
            "byteLength" : 15720,
            "byteOffset" : 292620
        },
        {
            "buffer" : 0,
            "byteLength" : 10480,
            "byteOffset" : 308340
        },
        {
            "buffer" : 0,
            "byteLength" : 6264,
            "byteOffset" : 318820
        },
        {
            "buffer" : 0,
            "byteLength" : 6192,
            "byteOffset" : 325084
        },
        {
            "buffer" : 0,
            "byteLength" : 6192,
            "byteOffset" : 331276
        },
        {
            "buffer" : 0,
            "byteLength" : 4128,
            "byteOffset" : 337468
        },
        {
            "buffer" : 0,
            "byteLength" : 4836,
            "byteOffset" : 341596
        },
        {
            "buffer" : 0,
            "byteLength" : 18288,
            "byteOffset" : 346432
        },
        {
            "buffer" : 0,
            "byteLength" : 18288,
            "byteOffset" : 364720
        },
        {
            "buffer" : 0,
            "byteLength" : 12192,
            "byteOffset" : 383008
        },
        {
            "buffer" : 0,
            "byteLength" : 13056,
            "byteOffset" : 395200
        },
        {
            "buffer" : 0,
            "byteLength" : 6588,
            "byteOffset" : 408256
        },
        {
            "buffer" : 0,
            "byteLength" : 6588,
            "byteOffset" : 414844
        },
        {
            "buffer" : 0,
            "byteLength" : 4392,
            "byteOffset" : 421432
        },
        {
            "buffer" : 0,
            "byteLength" : 4896,
            "byteOffset" : 425824
        },
        {
            "buffer" : 0,
            "byteLength" : 9024,
            "byteOffset" : 430720
        },
        {
            "buffer" : 0,
            "byteLength" : 9024,
            "byteOffset" : 439744
        },
        {
            "buffer" : 0,
            "byteLength" : 6016,
            "byteOffset" : 448768
        },
        {
            "buffer" : 0,
            "byteLength" : 4512,
            "byteOffset" : 454784
        }
    ],
    "samplers" : [
        {
            "magFilter" : 9729,
            "minFilter" : 9987
        }
    ],
    "buffers" : [
        {
            "byteLength" : 459296,
            "uri" : "data:application/octet-stream;base64,"
        }
    ]
}
