{
    "asset" : {
        "copyright" : "Jeremy Edelblut",
        "generator" : "Khronos glTF Blender I/O v1.7.33",
        "version" : "2.0"
    },
    "scene" : 0,
    "scenes" : [
        {
            "name" : "Scene",
            "nodes" : [
                0,
                1,
                2,
                3,
                4,
                5,
                6,
                7,
                8,
                9
            ]
        }
    ],
    "nodes" : [
        {
            "mesh" : 0,
            "name" : "Circle.675"
        },
        {
            "mesh" : 1,
            "name" : "Circle.677"
        },
        {
            "mesh" : 2,
            "name" : "Cylinder.098"
        },
        {
            "mesh" : 3,
            "name" : "Roundcube.113"
        },
        {
            "mesh" : 4,
            "name" : "Circle.678"
        },
        {
            "mesh" : 5,
            "name" : "Cube.1431"
        },
        {
            "mesh" : 6,
            "name" : "Sphere.074"
        },
        {
            "mesh" : 7,
            "name" : "Circle.679"
        },
        {
            "mesh" : 8,
            "name" : "Circle.681"
        },
        {
            "mesh" : 9,
            "name" : "Plane.057"
        }
    ],
    "materials" : [
        {
            "doubleSided" : true,
            "emissiveFactor" : [
                0.20000000298023224,
                0.20000000298023224,
                0.20000000298023224
            ],
            "emissiveTexture" : {
                "index" : 0
            },
            "name" : "color",
            "pbrMetallicRoughness" : {
                "baseColorTexture" : {
                    "index" : 1
                },
                "metallicFactor" : 0,
                "roughnessFactor" : 0.5
            }
        },
        {
            "doubleSided" : true,
            "emissiveFactor" : [
                0.20000000298023224,
                0.20000000298023224,
                0.20000000298023224
            ],
            "emissiveTexture" : {
                "index" : 2
            },
            "name" : "skin_tone_one",
            "pbrMetallicRoughness" : {
                "baseColorTexture" : {
                    "index" : 3
                },
                "metallicFactor" : 0,
                "roughnessFactor" : 0.5
            }
        }
    ],
    "meshes" : [
        {
            "name" : "Circle.712",
            "primitives" : [
                {
                    "attributes" : {
                        "POSITION" : 0,
                        "NORMAL" : 1,
                        "TEXCOORD_0" : 2
                    },
                    "indices" : 3,
                    "material" : 0
                }
            ]
        },
        {
            "name" : "Circle.726",
            "primitives" : [
                {
                    "attributes" : {
                        "POSITION" : 4,
                        "NORMAL" : 5,
                        "TEXCOORD_0" : 6
                    },
                    "indices" : 7,
                    "material" : 1
                }
            ]
        },
        {
            "name" : "Cylinder.098",
            "primitives" : [
                {
                    "attributes" : {
                        "POSITION" : 8,
                        "NORMAL" : 9,
                        "TEXCOORD_0" : 10
                    },
                    "indices" : 11,
                    "material" : 1
                }
            ]
        },
        {
            "name" : "Roundcube.114",
            "primitives" : [
                {
                    "attributes" : {
                        "POSITION" : 12,
                        "NORMAL" : 13,
                        "TEXCOORD_0" : 14
                    },
                    "indices" : 15,
                    "material" : 0
                },
                {
                    "attributes" : {
                        "POSITION" : 16,
                        "NORMAL" : 17,
                        "TEXCOORD_0" : 18
                    },
                    "indices" : 19,
                    "material" : 1
                }
            ]
        },
        {
            "name" : "Circle.732",
            "primitives" : [
                {
                    "attributes" : {
                        "POSITION" : 20,
                        "NORMAL" : 21,
                        "TEXCOORD_0" : 22
                    },
                    "indices" : 23,
                    "material" : 0
                }
            ]
        },
        {
            "name" : "Cube.1720",
            "primitives" : [
                {
                    "attributes" : {
                        "POSITION" : 24,
                        "NORMAL" : 25,
                        "TEXCOORD_0" : 26
                    },
                    "indices" : 27,
                    "material" : 0
                }
            ]
        },
        {
            "name" : "Sphere.062",
            "primitives" : [
                {
                    "attributes" : {
                        "POSITION" : 28,
                        "NORMAL" : 29,
                        "TEXCOORD_0" : 30
                    },
                    "indices" : 31,
                    "material" : 0
                }
            ]
        },
        {
            "name" : "Circle.733",
            "primitives" : [
                {
                    "attributes" : {
                        "POSITION" : 32,
                        "NORMAL" : 33,
                        "TEXCOORD_0" : 34
                    },
                    "indices" : 35,
                    "material" : 0
                }
            ]
        },
        {
            "name" : "Circle.748",
            "primitives" : [
                {
                    "attributes" : {
                        "POSITION" : 36,
                        "NORMAL" : 37,
                        "TEXCOORD_0" : 38
                    },
                    "indices" : 39,
                    "material" : 0
                }
            ]
        },
        {
            "name" : "Plane.051",
            "primitives" : [
                {
                    "attributes" : {
                        "POSITION" : 40,
                        "NORMAL" : 41,
                        "TEXCOORD_0" : 42
                    },
                    "indices" : 43,
                    "material" : 0
                }
            ]
        }
    ],
    "textures" : [
        {
            "sampler" : 0,
            "source" : 0
        },
        {
            "sampler" : 0,
            "source" : 0
        },
        {
            "sampler" : 0,
            "source" : 0
        },
        {
            "sampler" : 0,
            "source" : 0
        }
    ],
    "images" : [
        {
            "bufferView" : 4,
            "mimeType" : "image/png",
            "name" : "tex"
        }
    ],
    "accessors" : [
        {
            "bufferView" : 0,
            "componentType" : 5126,
            "count" : 1448,
            "max" : [
                0.3479803204536438,
                0.31555524468421936,
                0.5698056221008301
            ],
            "min" : [
                -0.3479803204536438,
                0.07173757255077362,
                0.48674285411834717
            ],
            "type" : "VEC3"
        },
        {
            "bufferView" : 1,
            "componentType" : 5126,
            "count" : 1448,
            "type" : "VEC3"
        },
        {
            "bufferView" : 2,
            "componentType" : 5126,
            "count" : 1448,
            "type" : "VEC2"
        },
        {
            "bufferView" : 3,
            "componentType" : 5123,
            "count" : 6912,
            "type" : "SCALAR"
        },
        {
            "bufferView" : 5,
            "componentType" : 5126,
            "count" : 142,
            "max" : [
                0.06850434839725494,
                0.059749070554971695,
                0.584452748298645
            ],
            "min" : [
                -0.0664931982755661,
                -0.017296141013503075,
                0.5657184720039368
            ],
            "type" : "VEC3"
        },
        {
            "bufferView" : 6,
            "componentType" : 5126,
            "count" : 142,
            "type" : "VEC3"
        },
        {
            "bufferView" : 7,
            "componentType" : 5126,
            "count" : 142,
            "type" : "VEC2"
        },
        {
            "bufferView" : 8,
            "componentType" : 5123,
            "count" : 528,
            "type" : "SCALAR"
        },
        {
            "bufferView" : 9,
            "componentType" : 5126,
            "count" : 1135,
            "max" : [
                0.8778747320175171,
                0.3865436911582947,
                -0.10627720504999161
            ],
            "min" : [
                -0.8778746724128723,
                -0.0602678619325161,
                -0.36960697174072266
            ],
            "type" : "VEC3"
        },
        {
            "bufferView" : 10,
            "componentType" : 5126,
            "count" : 1135,
            "type" : "VEC3"
        },
        {
            "bufferView" : 11,
            "componentType" : 5126,
            "count" : 1135,
            "type" : "VEC2"
        },
        {
            "bufferView" : 12,
            "componentType" : 5123,
            "count" : 4992,
            "type" : "SCALAR"
        },
        {
            "bufferView" : 13,
            "componentType" : 5126,
            "count" : 837,
            "max" : [
                0.18264883756637573,
                -0.13748568296432495,
                0.4926007390022278
            ],
            "min" : [
                -0.1702979952096939,
                -1.4034050703048706,
                -0.457314670085907
            ],
            "type" : "VEC3"
        },
        {
            "bufferView" : 14,
            "componentType" : 5126,
            "count" : 837,
            "type" : "VEC3"
        },
        {
            "bufferView" : 15,
            "componentType" : 5126,
            "count" : 837,
            "type" : "VEC2"
        },
        {
            "bufferView" : 16,
            "componentType" : 5123,
            "count" : 2064,
            "type" : "SCALAR"
        },
        {
            "bufferView" : 17,
            "componentType" : 5126,
            "count" : 1173,
            "max" : [
                0.7167800068855286,
                0.8729530572891235,
                0.5776224732398987
            ],
            "min" : [
                -0.7165824770927429,
                -0.8074673414230347,
                -0.9389863610267639
            ],
            "type" : "VEC3"
        },
        {
            "bufferView" : 18,
            "componentType" : 5126,
            "count" : 1173,
            "type" : "VEC3"
        },
        {
            "bufferView" : 19,
            "componentType" : 5126,
            "count" : 1173,
            "type" : "VEC2"
        },
        {
            "bufferView" : 20,
            "componentType" : 5123,
            "count" : 5916,
            "type" : "SCALAR"
        },
        {
            "bufferView" : 21,
            "componentType" : 5126,
            "count" : 316,
            "max" : [
                0.41686487197875977,
                0.4614328145980835,
                0.5363810658454895
            ],
            "min" : [
                -0.41686487197875977,
                0.3117169439792633,
                0.4131113886833191
            ],
            "type" : "VEC3"
        },
        {
            "bufferView" : 22,
            "componentType" : 5126,
            "count" : 316,
            "type" : "VEC3"
        },
        {
            "bufferView" : 23,
            "componentType" : 5126,
            "count" : 316,
            "type" : "VEC2"
        },
        {
            "bufferView" : 24,
            "componentType" : 5123,
            "count" : 1152,
            "type" : "SCALAR"
        },
        {
            "bufferView" : 25,
            "componentType" : 5126,
            "count" : 1310,
            "max" : [
                0.7708356380462646,
                1.073990821838379,
                0.7736537456512451
            ],
            "min" : [
                -0.7971862554550171,
                0.01777304708957672,
                -0.9953101873397827
            ],
            "type" : "VEC3"
        },
        {
            "bufferView" : 26,
            "componentType" : 5126,
            "count" : 1310,
            "type" : "VEC3"
        },
        {
            "bufferView" : 27,
            "componentType" : 5126,
            "count" : 1310,
            "type" : "VEC2"
        },
        {
            "bufferView" : 28,
            "componentType" : 5123,
            "count" : 3132,
            "type" : "SCALAR"
        },
        {
            "bufferView" : 29,
            "componentType" : 5126,
            "count" : 465,
            "max" : [
                0.7500002384185791,
                -0.626502275466919,
                0.050962019711732864
            ],
            "min" : [
                -0.7500002384185791,
                -1.3991906642913818,
                -0.9490382075309753
            ],
            "type" : "VEC3"
        },
        {
            "bufferView" : 30,
            "componentType" : 5126,
            "count" : 465,
            "type" : "VEC3"
        },
        {
            "bufferView" : 31,
            "componentType" : 5126,
            "count" : 465,
            "type" : "VEC2"
        },
        {
            "bufferView" : 32,
            "componentType" : 5123,
            "count" : 2418,
            "type" : "SCALAR"
        },
        {
            "bufferView" : 33,
            "componentType" : 5126,
            "count" : 1504,
            "max" : [
                0.4491739571094513,
                -0.6110123991966248,
                0.07096195220947266
            ],
            "min" : [
                -0.4491739571094513,
                -1.2920953035354614,
                -0.4056210219860077
            ],
            "type" : "VEC3"
        },
        {
            "bufferView" : 34,
            "componentType" : 5126,
            "count" : 1504,
            "type" : "VEC3"
        },
        {
            "bufferView" : 35,
            "componentType" : 5126,
            "count" : 1504,
            "type" : "VEC2"
        },
        {
            "bufferView" : 36,
            "componentType" : 5123,
            "count" : 6528,
            "type" : "SCALAR"
        },
        {
            "bufferView" : 37,
            "componentType" : 5126,
            "count" : 549,
            "max" : [
                0.8970445394515991,
                -0.04486114904284477,
                0.7560433149337769
            ],
            "min" : [
                0.17607152462005615,
                -1.2978342771530151,
                0.03507043048739433
            ],
            "type" : "VEC3"
        },
        {
            "bufferView" : 38,
            "componentType" : 5126,
            "count" : 549,
            "type" : "VEC3"
        },
        {
            "bufferView" : 39,
            "componentType" : 5126,
            "count" : 549,
            "type" : "VEC2"
        },
        {
            "bufferView" : 40,
            "componentType" : 5123,
            "count" : 2448,
            "type" : "SCALAR"
        },
        {
            "bufferView" : 41,
            "componentType" : 5126,
            "count" : 752,
            "max" : [
                0.549837589263916,
                0.42275336384773254,
                0.6156768798828125
            ],
            "min" : [
                -0.5498374700546265,
                -0.03806997090578079,
                0.4940069913864136
            ],
            "type" : "VEC3"
        },
        {
            "bufferView" : 42,
            "componentType" : 5126,
            "count" : 752,
            "type" : "VEC3"
        },
        {
            "bufferView" : 43,
            "componentType" : 5126,
            "count" : 752,
            "type" : "VEC2"
        },
        {
            "bufferView" : 44,
            "componentType" : 5123,
            "count" : 2256,
            "type" : "SCALAR"
        }
    ],
    "bufferViews" : [
        {
            "buffer" : 0,
            "byteLength" : 17376,
            "byteOffset" : 0
        },
        {
            "buffer" : 0,
            "byteLength" : 17376,
            "byteOffset" : 17376
        },
        {
            "buffer" : 0,
            "byteLength" : 11584,
            "byteOffset" : 34752
        },
        {
            "buffer" : 0,
            "byteLength" : 13824,
            "byteOffset" : 46336
        },
        {
            "buffer" : 0,
            "byteLength" : 11997,
            "byteOffset" : 60160
        },
        {
            "buffer" : 0,
            "byteLength" : 1704,
            "byteOffset" : 72160
        },
        {
            "buffer" : 0,
            "byteLength" : 1704,
            "byteOffset" : 73864
        },
        {
            "buffer" : 0,
            "byteLength" : 1136,
            "byteOffset" : 75568
        },
        {
            "buffer" : 0,
            "byteLength" : 1056,
            "byteOffset" : 76704
        },
        {
            "buffer" : 0,
            "byteLength" : 13620,
            "byteOffset" : 77760
        },
        {
            "buffer" : 0,
            "byteLength" : 13620,
            "byteOffset" : 91380
        },
        {
            "buffer" : 0,
            "byteLength" : 9080,
            "byteOffset" : 105000
        },
        {
            "buffer" : 0,
            "byteLength" : 9984,
            "byteOffset" : 114080
        },
        {
            "buffer" : 0,
            "byteLength" : 10044,
            "byteOffset" : 124064
        },
        {
            "buffer" : 0,
            "byteLength" : 10044,
            "byteOffset" : 134108
        },
        {
            "buffer" : 0,
            "byteLength" : 6696,
            "byteOffset" : 144152
        },
        {
            "buffer" : 0,
            "byteLength" : 4128,
            "byteOffset" : 150848
        },
        {
            "buffer" : 0,
            "byteLength" : 14076,
            "byteOffset" : 154976
        },
        {
            "buffer" : 0,
            "byteLength" : 14076,
            "byteOffset" : 169052
        },
        {
            "buffer" : 0,
            "byteLength" : 9384,
            "byteOffset" : 183128
        },
        {
            "buffer" : 0,
            "byteLength" : 11832,
            "byteOffset" : 192512
        },
        {
            "buffer" : 0,
            "byteLength" : 3792,
            "byteOffset" : 204344
        },
        {
            "buffer" : 0,
            "byteLength" : 3792,
            "byteOffset" : 208136
        },
        {
            "buffer" : 0,
            "byteLength" : 2528,
            "byteOffset" : 211928
        },
        {
            "buffer" : 0,
            "byteLength" : 2304,
            "byteOffset" : 214456
        },
        {
            "buffer" : 0,
            "byteLength" : 15720,
            "byteOffset" : 216760
        },
        {
            "buffer" : 0,
            "byteLength" : 15720,
            "byteOffset" : 232480
        },
        {
            "buffer" : 0,
            "byteLength" : 10480,
            "byteOffset" : 248200
        },
        {
            "buffer" : 0,
            "byteLength" : 6264,
            "byteOffset" : 258680
        },
        {
            "buffer" : 0,
            "byteLength" : 5580,
            "byteOffset" : 264944
        },
        {
            "buffer" : 0,
            "byteLength" : 5580,
            "byteOffset" : 270524
        },
        {
            "buffer" : 0,
            "byteLength" : 3720,
            "byteOffset" : 276104
        },
        {
            "buffer" : 0,
            "byteLength" : 4836,
            "byteOffset" : 279824
        },
        {
            "buffer" : 0,
            "byteLength" : 18048,
            "byteOffset" : 284660
        },
        {
            "buffer" : 0,
            "byteLength" : 18048,
            "byteOffset" : 302708
        },
        {
            "buffer" : 0,
            "byteLength" : 12032,
            "byteOffset" : 320756
        },
        {
            "buffer" : 0,
            "byteLength" : 13056,
            "byteOffset" : 332788
        },
        {
            "buffer" : 0,
            "byteLength" : 6588,
            "byteOffset" : 345844
        },
        {
            "buffer" : 0,
            "byteLength" : 6588,
            "byteOffset" : 352432
        },
        {
            "buffer" : 0,
            "byteLength" : 4392,
            "byteOffset" : 359020
        },
        {
            "buffer" : 0,
            "byteLength" : 4896,
            "byteOffset" : 363412
        },
        {
            "buffer" : 0,
            "byteLength" : 9024,
            "byteOffset" : 368308
        },
        {
            "buffer" : 0,
            "byteLength" : 9024,
            "byteOffset" : 377332
        },
        {
            "buffer" : 0,
            "byteLength" : 6016,
            "byteOffset" : 386356
        },
        {
            "buffer" : 0,
            "byteLength" : 4512,
            "byteOffset" : 392372
        }
    ],
    "samplers" : [
        {
            "magFilter" : 9729,
            "minFilter" : 9987
        }
    ],
    "buffers" : [
        {
            "byteLength" : 396884,
            "uri" : "data:application/octet-stream;base64,"
        }
    ]
}
