{
    "asset" : {
        "copyright" : "Jeremy Edelblut",
        "generator" : "Khronos glTF Blender I/O v1.6.16",
        "version" : "2.0"
    },
    "scene" : 0,
    "scenes" : [
        {
            "name" : "Scene",
            "nodes" : [
                0,
                1,
                2,
                3
            ]
        }
    ],
    "nodes" : [
        {
            "mesh" : 0,
            "name" : "Circle.2006",
            "rotation" : [
                -0.5000001192092896,
                -0.5000000596046448,
                0.49999988079071045,
                -0.4999999701976776
            ],
            "scale" : [
                0.04610816389322281,
                0.04610816389322281,
                0.04610816389322281
            ],
            "translation" : [
                -0.07917405664920807,
                0.45441144704818726,
                0
            ]
        },
        {
            "mesh" : 1,
            "name" : "Cube.157",
            "rotation" : [
                -0.4999999403953552,
                -0.5000002384185791,
                0.5000000596046448,
                -0.4999997913837433
            ],
            "scale" : [
                0.3054012358188629,
                0.3054012358188629,
                0.3054012358188629
            ],
            "translation" : [
                0.08325427770614624,
                -0.03147846460342407,
                0
            ]
        },
        {
            "mesh" : 2,
            "name" : "Plane.174",
            "rotation" : [
                0,
                1,
                0,
                1.1322983295338623e-13
            ],
            "translation" : [
                0,
                0.23271124064922333,
                0
            ]
        },
        {
            "mesh" : 3,
            "name" : "Plane.176",
            "rotation" : [
                0.5,
                0.5,
                0.5,
                -0.5
            ],
            "translation" : [
                0,
                0.36420246958732605,
                0
            ]
        }
    ],
    "materials" : [
        {
            "doubleSided" : true,
            "name" : "DKgray",
            "pbrMetallicRoughness" : {
                "baseColorFactor" : [
                    0.03682169318199158,
                    0.03446357324719429,
                    0.03740420565009117,
                    1
                ],
                "metallicFactor" : 0,
                "roughnessFactor" : 0.5
            }
        },
        {
            "doubleSided" : true,
            "name" : "Light_Brown",
            "pbrMetallicRoughness" : {
                "baseColorFactor" : [
                    0.3613067865371704,
                    0.15896087884902954,
                    0.013702086172997952,
                    1
                ],
                "metallicFactor" : 0,
                "roughnessFactor" : 0.5
            }
        }
    ],
    "meshes" : [
        {
            "name" : "Circle.2332",
            "primitives" : [
                {
                    "attributes" : {
                        "POSITION" : 0,
                        "NORMAL" : 1,
                        "TEXCOORD_0" : 2
                    },
                    "indices" : 3,
                    "material" : 0
                }
            ]
        },
        {
            "name" : "Cube.278",
            "primitives" : [
                {
                    "attributes" : {
                        "POSITION" : 4,
                        "NORMAL" : 5,
                        "TEXCOORD_0" : 6
                    },
                    "indices" : 7,
                    "material" : 1
                }
            ]
        },
        {
            "name" : "Plane.171",
            "primitives" : [
                {
                    "attributes" : {
                        "POSITION" : 8,
                        "NORMAL" : 9,
                        "TEXCOORD_0" : 10
                    },
                    "indices" : 11,
                    "material" : 1
                }
            ]
        },
        {
            "name" : "Plane.173",
            "primitives" : [
                {
                    "attributes" : {
                        "POSITION" : 12,
                        "NORMAL" : 13,
                        "TEXCOORD_0" : 14
                    },
                    "indices" : 15,
                    "material" : 1
                }
            ]
        }
    ],
    "accessors" : [
        {
            "bufferView" : 0,
            "componentType" : 5126,
            "count" : 752,
            "max" : [
                1.6127653121948242,
                5.488907814025879,
                0.0886429101228714
            ],
            "min" : [
                -1.6127653121948242,
                4.629165172576904,
                -0.7932477593421936
            ],
            "type" : "VEC3"
        },
        {
            "bufferView" : 1,
            "componentType" : 5126,
            "count" : 752,
            "type" : "VEC3"
        },
        {
            "bufferView" : 2,
            "componentType" : 5126,
            "count" : 752,
            "type" : "VEC2"
        },
        {
            "bufferView" : 3,
            "componentType" : 5123,
            "count" : 2880,
            "type" : "SCALAR"
        },
        {
            "bufferView" : 4,
            "componentType" : 5126,
            "count" : 1216,
            "max" : [
                1.671205997467041,
                0.08059945702552795,
                0.9602270722389221
            ],
            "min" : [
                -1.671205997467041,
                -0.8874901533126831,
                -1.8509806394577026
            ],
            "type" : "VEC3"
        },
        {
            "bufferView" : 5,
            "componentType" : 5126,
            "count" : 1216,
            "type" : "VEC3"
        },
        {
            "bufferView" : 6,
            "componentType" : 5126,
            "count" : 1216,
            "type" : "VEC2"
        },
        {
            "bufferView" : 7,
            "componentType" : 5123,
            "count" : 3096,
            "type" : "SCALAR"
        },
        {
            "bufferView" : 8,
            "componentType" : 5126,
            "count" : 572,
            "max" : [
                0.09410429000854492,
                0.8308947086334229,
                0.5570289492607117
            ],
            "min" : [
                0.014749381691217422,
                -0.08512264490127563,
                -0.5570289492607117
            ],
            "type" : "VEC3"
        },
        {
            "bufferView" : 9,
            "componentType" : 5126,
            "count" : 572,
            "type" : "VEC3"
        },
        {
            "bufferView" : 10,
            "componentType" : 5126,
            "count" : 572,
            "type" : "VEC2"
        },
        {
            "bufferView" : 11,
            "componentType" : 5123,
            "count" : 1680,
            "type" : "SCALAR"
        },
        {
            "bufferView" : 12,
            "componentType" : 5126,
            "count" : 663,
            "max" : [
                0.12086280435323715,
                0.7640466690063477,
                0.14211505651474
            ],
            "min" : [
                -0.12086280435323715,
                -0.09750741720199585,
                -1.2561570405960083
            ],
            "type" : "VEC3"
        },
        {
            "bufferView" : 13,
            "componentType" : 5126,
            "count" : 663,
            "type" : "VEC3"
        },
        {
            "bufferView" : 14,
            "componentType" : 5126,
            "count" : 663,
            "type" : "VEC2"
        },
        {
            "bufferView" : 15,
            "componentType" : 5123,
            "count" : 2634,
            "type" : "SCALAR"
        }
    ],
    "bufferViews" : [
        {
            "buffer" : 0,
            "byteLength" : 9024,
            "byteOffset" : 0
        },
        {
            "buffer" : 0,
            "byteLength" : 9024,
            "byteOffset" : 9024
        },
        {
            "buffer" : 0,
            "byteLength" : 6016,
            "byteOffset" : 18048
        },
        {
            "buffer" : 0,
            "byteLength" : 5760,
            "byteOffset" : 24064
        },
        {
            "buffer" : 0,
            "byteLength" : 14592,
            "byteOffset" : 29824
        },
        {
            "buffer" : 0,
            "byteLength" : 14592,
            "byteOffset" : 44416
        },
        {
            "buffer" : 0,
            "byteLength" : 9728,
            "byteOffset" : 59008
        },
        {
            "buffer" : 0,
            "byteLength" : 6192,
            "byteOffset" : 68736
        },
        {
            "buffer" : 0,
            "byteLength" : 6864,
            "byteOffset" : 74928
        },
        {
            "buffer" : 0,
            "byteLength" : 6864,
            "byteOffset" : 81792
        },
        {
            "buffer" : 0,
            "byteLength" : 4576,
            "byteOffset" : 88656
        },
        {
            "buffer" : 0,
            "byteLength" : 3360,
            "byteOffset" : 93232
        },
        {
            "buffer" : 0,
            "byteLength" : 7956,
            "byteOffset" : 96592
        },
        {
            "buffer" : 0,
            "byteLength" : 7956,
            "byteOffset" : 104548
        },
        {
            "buffer" : 0,
            "byteLength" : 5304,
            "byteOffset" : 112504
        },
        {
            "buffer" : 0,
            "byteLength" : 5268,
            "byteOffset" : 117808
        }
    ],
    "buffers" : [
        {
            "byteLength" : 123076,
            "uri" : "data:application/octet-stream;base64,"
        }
    ]
}
