{
    "asset" : {
        "copyright" : "Jeremy Edelblut",
        "generator" : "Khronos glTF Blender I/O v1.6.16",
        "version" : "2.0"
    },
    "scene" : 0,
    "scenes" : [
        {
            "name" : "Scene",
            "nodes" : [
                0,
                1
            ]
        }
    ],
    "nodes" : [
        {
            "mesh" : 0,
            "name" : "Cylinder.374",
            "rotation" : [
                0,
                0,
                -0.7071067690849304,
                0.7071068286895752
            ],
            "scale" : [
                0.21447475254535675,
                0.25148388743400574,
                0.21447475254535675
            ],
            "translation" : [
                -0.0003073682019021362,
                0.29572758078575134,
                0.5258544683456421
            ]
        },
        {
            "mesh" : 1,
            "name" : "Plane.169",
            "scale" : [
                0.6364378333091736,
                0.6364378333091736,
                0.6364378333091736
            ],
            "translation" : [
                -6.829467019997537e-05,
                -0.20171943306922913,
                0.20889019966125488
            ]
        }
    ],
    "materials" : [
        {
            "doubleSided" : true,
            "name" : "DKBrown",
            "pbrMetallicRoughness" : {
                "baseColorFactor" : [
                    0.010021701455116272,
                    0.0023923655971884727,
                    0.0018060366855934262,
                    1
                ],
                "metallicFactor" : 0,
                "roughnessFactor" : 0.5
            }
        },
        {
            "doubleSided" : true,
            "name" : "gray",
            "pbrMetallicRoughness" : {
                "baseColorFactor" : [
                    0.10474124550819397,
                    0.09742098301649094,
                    0.10653529316186905,
                    1
                ],
                "metallicFactor" : 0,
                "roughnessFactor" : 0.5
            }
        },
        {
            "doubleSided" : true,
            "name" : "Lightgray",
            "pbrMetallicRoughness" : {
                "baseColorFactor" : [
                    0.4124824106693268,
                    0.38176509737968445,
                    0.42002442479133606,
                    1
                ],
                "metallicFactor" : 0,
                "roughnessFactor" : 0.5
            }
        }
    ],
    "meshes" : [
        {
            "name" : "Cylinder.377",
            "primitives" : [
                {
                    "attributes" : {
                        "POSITION" : 0,
                        "NORMAL" : 1,
                        "TEXCOORD_0" : 2
                    },
                    "indices" : 3,
                    "material" : 0
                }
            ]
        },
        {
            "name" : "Plane.166",
            "primitives" : [
                {
                    "attributes" : {
                        "POSITION" : 4,
                        "NORMAL" : 5,
                        "TEXCOORD_0" : 6
                    },
                    "indices" : 7,
                    "material" : 1
                },
                {
                    "attributes" : {
                        "POSITION" : 8,
                        "NORMAL" : 9,
                        "TEXCOORD_0" : 10
                    },
                    "indices" : 11,
                    "material" : 2
                }
            ]
        }
    ],
    "accessors" : [
        {
            "bufferView" : 0,
            "componentType" : 5126,
            "count" : 192,
            "max" : [
                0.11667777597904205,
                0.7960443496704102,
                0.7010048031806946
            ],
            "min" : [
                -0.21497561037540436,
                -0.7960443496704102,
                0.36935144662857056
            ],
            "type" : "VEC3"
        },
        {
            "bufferView" : 1,
            "componentType" : 5126,
            "count" : 192,
            "type" : "VEC3"
        },
        {
            "bufferView" : 2,
            "componentType" : 5126,
            "count" : 192,
            "type" : "VEC2"
        },
        {
            "bufferView" : 3,
            "componentType" : 5123,
            "count" : 372,
            "type" : "SCALAR"
        },
        {
            "bufferView" : 4,
            "componentType" : 5126,
            "count" : 452,
            "max" : [
                0.7802560329437256,
                1.1720547676086426,
                1.029564380645752
            ],
            "min" : [
                -0.7802560329437256,
                -0.29007482528686523,
                -1.940480351448059
            ],
            "type" : "VEC3"
        },
        {
            "bufferView" : 5,
            "componentType" : 5126,
            "count" : 452,
            "type" : "VEC3"
        },
        {
            "bufferView" : 6,
            "componentType" : 5126,
            "count" : 452,
            "type" : "VEC2"
        },
        {
            "bufferView" : 7,
            "componentType" : 5123,
            "count" : 1590,
            "type" : "SCALAR"
        },
        {
            "bufferView" : 8,
            "componentType" : 5126,
            "count" : 351,
            "max" : [
                0.7802560329437256,
                0.48224151134490967,
                0.975516140460968
            ],
            "min" : [
                -0.7802560329437256,
                -0.29007482528686523,
                -1.9500081539154053
            ],
            "type" : "VEC3"
        },
        {
            "bufferView" : 9,
            "componentType" : 5126,
            "count" : 351,
            "type" : "VEC3"
        },
        {
            "bufferView" : 10,
            "componentType" : 5126,
            "count" : 351,
            "type" : "VEC2"
        },
        {
            "bufferView" : 11,
            "componentType" : 5123,
            "count" : 1260,
            "type" : "SCALAR"
        }
    ],
    "bufferViews" : [
        {
            "buffer" : 0,
            "byteLength" : 2304,
            "byteOffset" : 0
        },
        {
            "buffer" : 0,
            "byteLength" : 2304,
            "byteOffset" : 2304
        },
        {
            "buffer" : 0,
            "byteLength" : 1536,
            "byteOffset" : 4608
        },
        {
            "buffer" : 0,
            "byteLength" : 744,
            "byteOffset" : 6144
        },
        {
            "buffer" : 0,
            "byteLength" : 5424,
            "byteOffset" : 6888
        },
        {
            "buffer" : 0,
            "byteLength" : 5424,
            "byteOffset" : 12312
        },
        {
            "buffer" : 0,
            "byteLength" : 3616,
            "byteOffset" : 17736
        },
        {
            "buffer" : 0,
            "byteLength" : 3180,
            "byteOffset" : 21352
        },
        {
            "buffer" : 0,
            "byteLength" : 4212,
            "byteOffset" : 24532
        },
        {
            "buffer" : 0,
            "byteLength" : 4212,
            "byteOffset" : 28744
        },
        {
            "buffer" : 0,
            "byteLength" : 2808,
            "byteOffset" : 32956
        },
        {
            "buffer" : 0,
            "byteLength" : 2520,
            "byteOffset" : 35764
        }
    ],
    "buffers" : [
        {
            "byteLength" : 38284,
            "uri" : "data:application/octet-stream;base64,"
        }
    ]
}
