{
    "asset" : {
        "copyright" : "Jeremy Edelblut",
        "generator" : "Khronos glTF Blender I/O v1.6.16",
        "version" : "2.0"
    },
    "scene" : 0,
    "scenes" : [
        {
            "name" : "Scene",
            "nodes" : [
                0,
                1,
                2
            ]
        }
    ],
    "nodes" : [
        {
            "mesh" : 0,
            "name" : "Circle.2053",
            "rotation" : [
                -0.15396350622177124,
                0,
                0,
                0.9880766272544861
            ],
            "scale" : [
                0.11380396038293839,
                0.11380394548177719,
                0.11380394548177719
            ],
            "translation" : [
                -0.0037528686225414276,
                -0.8416138887405396,
                0.09179160743951797
            ]
        },
        {
            "mesh" : 1,
            "name" : "Circle.2054",
            "rotation" : [
                -0.120369091629982,
                0.9086517691612244,
                0.39542195200920105,
                -0.05920059233903885
            ],
            "scale" : [
                0.18656522035598755,
                0.18656517565250397,
                0.18656522035598755
            ],
            "translation" : [
                -0.00879724882543087,
                0.32631003856658936,
                -0.06205638498067856
            ]
        },
        {
            "mesh" : 2,
            "name" : "Circle.2055",
            "rotation" : [
                -0.0032975589856505394,
                -0.014883648604154587,
                -0.02941863238811493,
                0.9994509220123291
            ],
            "scale" : [
                0.1999918520450592,
                0.1999918520450592,
                0.1999918818473816
            ],
            "translation" : [
                -0.0004574055492412299,
                0.17311930656433105,
                -0.09400780498981476
            ]
        }
    ],
    "materials" : [
        {
            "doubleSided" : true,
            "name" : "green",
            "pbrMetallicRoughness" : {
                "baseColorFactor" : [
                    0.03952793776988983,
                    0.4292263090610504,
                    0.02920534461736679,
                    1
                ],
                "metallicFactor" : 0,
                "roughnessFactor" : 0.5
            }
        }
    ],
    "meshes" : [
        {
            "name" : "Circle.2402",
            "primitives" : [
                {
                    "attributes" : {
                        "POSITION" : 0,
                        "NORMAL" : 1,
                        "TEXCOORD_0" : 2
                    },
                    "indices" : 3,
                    "material" : 0
                }
            ]
        },
        {
            "name" : "Circle.2403",
            "primitives" : [
                {
                    "attributes" : {
                        "POSITION" : 4,
                        "NORMAL" : 5,
                        "TEXCOORD_0" : 6
                    },
                    "indices" : 7,
                    "material" : 0
                }
            ]
        },
        {
            "name" : "Circle.2404",
            "primitives" : [
                {
                    "attributes" : {
                        "POSITION" : 8,
                        "NORMAL" : 9,
                        "TEXCOORD_0" : 10
                    },
                    "indices" : 11,
                    "material" : 0
                }
            ]
        }
    ],
    "accessors" : [
        {
            "bufferView" : 0,
            "componentType" : 5126,
            "count" : 272,
            "max" : [
                0.6071346998214722,
                10.894644737243652,
                2.546314239501953
            ],
            "min" : [
                -0.6071346998214722,
                -0.6480095982551575,
                -1.0253820419311523
            ],
            "type" : "VEC3"
        },
        {
            "bufferView" : 1,
            "componentType" : 5126,
            "count" : 272,
            "type" : "VEC3"
        },
        {
            "bufferView" : 2,
            "componentType" : 5126,
            "count" : 272,
            "type" : "VEC2"
        },
        {
            "bufferView" : 3,
            "componentType" : 5123,
            "count" : 1428,
            "type" : "SCALAR"
        },
        {
            "bufferView" : 4,
            "componentType" : 5126,
            "count" : 174,
            "max" : [
                0.02457534894347191,
                1.245680809020996,
                4.694853782653809
            ],
            "min" : [
                -0.6544663310050964,
                -0.7543193697929382,
                -0.01815042272210121
            ],
            "type" : "VEC3"
        },
        {
            "bufferView" : 5,
            "componentType" : 5126,
            "count" : 174,
            "type" : "VEC3"
        },
        {
            "bufferView" : 6,
            "componentType" : 5126,
            "count" : 174,
            "type" : "VEC2"
        },
        {
            "bufferView" : 7,
            "componentType" : 5123,
            "count" : 480,
            "type" : "SCALAR"
        },
        {
            "bufferView" : 8,
            "componentType" : 5126,
            "count" : 174,
            "max" : [
                0.46877816319465637,
                1.2185640335083008,
                4.690179824829102
            ],
            "min" : [
                -0.4147399961948395,
                -0.781436026096344,
                -0.02289368212223053
            ],
            "type" : "VEC3"
        },
        {
            "bufferView" : 9,
            "componentType" : 5126,
            "count" : 174,
            "type" : "VEC3"
        },
        {
            "bufferView" : 10,
            "componentType" : 5126,
            "count" : 174,
            "type" : "VEC2"
        },
        {
            "bufferView" : 11,
            "componentType" : 5123,
            "count" : 480,
            "type" : "SCALAR"
        }
    ],
    "bufferViews" : [
        {
            "buffer" : 0,
            "byteLength" : 3264,
            "byteOffset" : 0
        },
        {
            "buffer" : 0,
            "byteLength" : 3264,
            "byteOffset" : 3264
        },
        {
            "buffer" : 0,
            "byteLength" : 2176,
            "byteOffset" : 6528
        },
        {
            "buffer" : 0,
            "byteLength" : 2856,
            "byteOffset" : 8704
        },
        {
            "buffer" : 0,
            "byteLength" : 2088,
            "byteOffset" : 11560
        },
        {
            "buffer" : 0,
            "byteLength" : 2088,
            "byteOffset" : 13648
        },
        {
            "buffer" : 0,
            "byteLength" : 1392,
            "byteOffset" : 15736
        },
        {
            "buffer" : 0,
            "byteLength" : 960,
            "byteOffset" : 17128
        },
        {
            "buffer" : 0,
            "byteLength" : 2088,
            "byteOffset" : 18088
        },
        {
            "buffer" : 0,
            "byteLength" : 2088,
            "byteOffset" : 20176
        },
        {
            "buffer" : 0,
            "byteLength" : 1392,
            "byteOffset" : 22264
        },
        {
            "buffer" : 0,
            "byteLength" : 960,
            "byteOffset" : 23656
        }
    ],
    "buffers" : [
        {
            "byteLength" : 24616,
            "uri" : "data:application/octet-stream;base64,"
        }
    ]
}
