{
    "asset" : {
        "copyright" : "Jeremy Edelblut",
        "generator" : "Khronos glTF Blender I/O v1.6.16",
        "version" : "2.0"
    },
    "scene" : 0,
    "scenes" : [
        {
            "name" : "Scene",
            "nodes" : [
                0,
                1,
                2
            ]
        }
    ],
    "nodes" : [
        {
            "mesh" : 0,
            "name" : "Circle.271"
        },
        {
            "mesh" : 1,
            "name" : "hand.055"
        },
        {
            "mesh" : 2,
            "name" : "Plane.025"
        }
    ],
    "materials" : [
        {
            "doubleSided" : true,
            "name" : "dkblue",
            "pbrMetallicRoughness" : {
                "baseColorFactor" : [
                    0.015741879120469093,
                    0.18322162330150604,
                    0.8000000715255737,
                    1
                ],
                "metallicFactor" : 0,
                "roughnessFactor" : 0.5
            }
        },
        {
            "doubleSided" : true,
            "name" : "Yellow_body",
            "pbrMetallicRoughness" : {
                "baseColorTexture" : {
                    "index" : 0
                },
                "metallicFactor" : 0,
                "roughnessFactor" : 0.5
            }
        },
        {
            "doubleSided" : true,
            "name" : "DKBrown",
            "pbrMetallicRoughness" : {
                "baseColorFactor" : [
                    0.010021701455116272,
                    0.0023923655971884727,
                    0.0018060366855934262,
                    1
                ],
                "metallicFactor" : 0,
                "roughnessFactor" : 0.5
            }
        },
        {
            "doubleSided" : true,
            "name" : "TearBlue",
            "pbrMetallicRoughness" : {
                "baseColorFactor" : [
                    0.007501601707190275,
                    0.6894696354866028,
                    0.8000000715255737,
                    1
                ],
                "metallicFactor" : 0,
                "roughnessFactor" : 0.5
            }
        }
    ],
    "meshes" : [
        {
            "name" : "Circle.296",
            "primitives" : [
                {
                    "attributes" : {
                        "POSITION" : 0,
                        "NORMAL" : 1,
                        "TEXCOORD_0" : 2
                    },
                    "indices" : 3,
                    "material" : 0
                }
            ]
        },
        {
            "name" : "Circle.287",
            "primitives" : [
                {
                    "attributes" : {
                        "POSITION" : 4,
                        "NORMAL" : 5,
                        "TEXCOORD_0" : 6
                    },
                    "indices" : 7,
                    "material" : 1
                }
            ]
        },
        {
            "name" : "Plane.025",
            "primitives" : [
                {
                    "attributes" : {
                        "POSITION" : 8,
                        "NORMAL" : 9,
                        "TEXCOORD_0" : 10
                    },
                    "indices" : 11,
                    "material" : 2
                },
                {
                    "attributes" : {
                        "POSITION" : 12,
                        "NORMAL" : 13,
                        "TEXCOORD_0" : 14
                    },
                    "indices" : 15,
                    "material" : 3
                }
            ]
        }
    ],
    "textures" : [
        {
            "sampler" : 0,
            "source" : 0
        }
    ],
    "images" : [
        {
            "bufferView" : 8,
            "mimeType" : "image/png",
            "name" : "Rectangle 863"
        }
    ],
    "accessors" : [
        {
            "bufferView" : 0,
            "componentType" : 5126,
            "count" : 321,
            "max" : [
                0.5794111490249634,
                0.09077958762645721,
                0.12032980471849442
            ],
            "min" : [
                -0.8959250450134277,
                -0.8944225907325745,
                -0.2551884651184082
            ],
            "type" : "VEC3"
        },
        {
            "bufferView" : 1,
            "componentType" : 5126,
            "count" : 321,
            "type" : "VEC3"
        },
        {
            "bufferView" : 2,
            "componentType" : 5126,
            "count" : 321,
            "type" : "VEC2"
        },
        {
            "bufferView" : 3,
            "componentType" : 5123,
            "count" : 1440,
            "type" : "SCALAR"
        },
        {
            "bufferView" : 4,
            "componentType" : 5126,
            "count" : 3087,
            "max" : [
                0.8475590944290161,
                0.6617311835289001,
                0.27296486496925354
            ],
            "min" : [
                0.35007721185684204,
                -0.12656144797801971,
                -0.17615313827991486
            ],
            "type" : "VEC3"
        },
        {
            "bufferView" : 5,
            "componentType" : 5126,
            "count" : 3087,
            "type" : "VEC3"
        },
        {
            "bufferView" : 6,
            "componentType" : 5126,
            "count" : 3087,
            "type" : "VEC2"
        },
        {
            "bufferView" : 7,
            "componentType" : 5123,
            "count" : 13320,
            "type" : "SCALAR"
        },
        {
            "bufferView" : 9,
            "componentType" : 5126,
            "count" : 312,
            "max" : [
                0.764966607093811,
                0.8171429634094238,
                0.24462467432022095
            ],
            "min" : [
                0.443897008895874,
                0.17560598254203796,
                -0.1458166092634201
            ],
            "type" : "VEC3"
        },
        {
            "bufferView" : 10,
            "componentType" : 5126,
            "count" : 312,
            "type" : "VEC3"
        },
        {
            "bufferView" : 11,
            "componentType" : 5126,
            "count" : 312,
            "type" : "VEC2"
        },
        {
            "bufferView" : 12,
            "componentType" : 5123,
            "count" : 498,
            "type" : "SCALAR"
        },
        {
            "bufferView" : 13,
            "componentType" : 5126,
            "count" : 24,
            "max" : [
                0.7203499674797058,
                0.7968297004699707,
                0.22228191792964935
            ],
            "min" : [
                0.46464502811431885,
                0.20155493915081024,
                -0.10218837857246399
            ],
            "type" : "VEC3"
        },
        {
            "bufferView" : 14,
            "componentType" : 5126,
            "count" : 24,
            "type" : "VEC3"
        },
        {
            "bufferView" : 15,
            "componentType" : 5126,
            "count" : 24,
            "type" : "VEC2"
        },
        {
            "bufferView" : 16,
            "componentType" : 5123,
            "count" : 66,
            "type" : "SCALAR"
        }
    ],
    "bufferViews" : [
        {
            "buffer" : 0,
            "byteLength" : 3852,
            "byteOffset" : 0
        },
        {
            "buffer" : 0,
            "byteLength" : 3852,
            "byteOffset" : 3852
        },
        {
            "buffer" : 0,
            "byteLength" : 2568,
            "byteOffset" : 7704
        },
        {
            "buffer" : 0,
            "byteLength" : 2880,
            "byteOffset" : 10272
        },
        {
            "buffer" : 0,
            "byteLength" : 37044,
            "byteOffset" : 13152
        },
        {
            "buffer" : 0,
            "byteLength" : 37044,
            "byteOffset" : 50196
        },
        {
            "buffer" : 0,
            "byteLength" : 24696,
            "byteOffset" : 87240
        },
        {
            "buffer" : 0,
            "byteLength" : 26640,
            "byteOffset" : 111936
        },
        {
            "buffer" : 0,
            "byteLength" : 85292,
            "byteOffset" : 138576
        },
        {
            "buffer" : 0,
            "byteLength" : 3744,
            "byteOffset" : 223868
        },
        {
            "buffer" : 0,
            "byteLength" : 3744,
            "byteOffset" : 227612
        },
        {
            "buffer" : 0,
            "byteLength" : 2496,
            "byteOffset" : 231356
        },
        {
            "buffer" : 0,
            "byteLength" : 996,
            "byteOffset" : 233852
        },
        {
            "buffer" : 0,
            "byteLength" : 288,
            "byteOffset" : 234848
        },
        {
            "buffer" : 0,
            "byteLength" : 288,
            "byteOffset" : 235136
        },
        {
            "buffer" : 0,
            "byteLength" : 192,
            "byteOffset" : 235424
        },
        {
            "buffer" : 0,
            "byteLength" : 132,
            "byteOffset" : 235616
        }
    ],
    "samplers" : [
        {
            "magFilter" : 9729,
            "minFilter" : 9987
        }
    ],
    "buffers" : [
        {
            "byteLength" : 235748,
            "uri" : "data:application/octet-stream;base64,"
        }
    ]
}
