{
    "asset" : {
        "copyright" : "Jeremy Edelblut - 3moji.org",
        "generator" : "Khronos glTF Blender I/O v1.7.33",
        "version" : "2.0"
    },
    "scene" : 1,
    "scenes" : [
        {
            "name" : "FBX_Temp",
            "nodes" : [
                0
            ]
        },
        {
            "name" : "Scene",
            "nodes" : [
                1,
                2,
                3,
                4,
                5
            ]
        }
    ],
    "nodes" : [
        {
            "mesh" : 0,
            "name" : "3moji.064",
            "rotation" : [
                0,
                -0.7071068286895752,
                0,
                0.7071068286895752
            ]
        },
        {
            "mesh" : 1,
            "name" : "Cube.6176",
            "rotation" : [
                0,
                -0.3826834559440613,
                0,
                0.9238795042037964
            ]
        },
        {
            "mesh" : 2,
            "name" : "Cube.6177",
            "rotation" : [
                0,
                -0.3826834559440613,
                0,
                0.9238795042037964
            ]
        },
        {
            "mesh" : 3,
            "name" : "Circle.012",
            "rotation" : [
                0,
                -0.3826834559440613,
                0,
                0.9238795042037964
            ]
        },
        {
            "mesh" : 4,
            "name" : "Cube.002",
            "rotation" : [
                0,
                -0.3826834559440613,
                0,
                0.9238795042037964
            ]
        },
        {
            "mesh" : 5,
            "name" : "Plane.002",
            "rotation" : [
                0,
                -0.3826834559440613,
                0,
                0.9238795042037964
            ]
        }
    ],
    "materials" : [
        {
            "doubleSided" : true,
            "name" : "color",
            "pbrMetallicRoughness" : {
                "baseColorTexture" : {
                    "index" : 0
                },
                "metallicFactor" : 0,
                "roughnessFactor" : 0.5
            }
        }
    ],
    "meshes" : [
        {
            "name" : "Cube.417",
            "primitives" : [
                {
                    "attributes" : {
                        "POSITION" : 0,
                        "NORMAL" : 1,
                        "TEXCOORD_0" : 2
                    },
                    "indices" : 3,
                    "material" : 0
                }
            ]
        },
        {
            "name" : "Cube.7225",
            "primitives" : [
                {
                    "attributes" : {
                        "POSITION" : 4,
                        "NORMAL" : 5,
                        "TEXCOORD_0" : 6
                    },
                    "indices" : 7,
                    "material" : 0
                }
            ]
        },
        {
            "name" : "Cube.7226",
            "primitives" : [
                {
                    "attributes" : {
                        "POSITION" : 8,
                        "NORMAL" : 9,
                        "TEXCOORD_0" : 10
                    },
                    "indices" : 11,
                    "material" : 0
                }
            ]
        },
        {
            "name" : "Circle.2737",
            "primitives" : [
                {
                    "attributes" : {
                        "POSITION" : 12,
                        "NORMAL" : 13,
                        "TEXCOORD_0" : 14
                    },
                    "indices" : 15,
                    "material" : 0
                }
            ]
        },
        {
            "name" : "Cube.847",
            "primitives" : [
                {
                    "attributes" : {
                        "POSITION" : 16,
                        "NORMAL" : 17,
                        "TEXCOORD_0" : 18
                    },
                    "indices" : 19,
                    "material" : 0
                }
            ]
        },
        {
            "name" : "Plane.237",
            "primitives" : [
                {
                    "attributes" : {
                        "POSITION" : 20,
                        "NORMAL" : 21,
                        "TEXCOORD_0" : 22
                    },
                    "indices" : 23,
                    "material" : 0
                }
            ]
        }
    ],
    "textures" : [
        {
            "sampler" : 0,
            "source" : 0
        }
    ],
    "images" : [
        {
            "bufferView" : 4,
            "mimeType" : "image/png",
            "name" : "tex"
        }
    ],
    "accessors" : [
        {
            "bufferView" : 0,
            "componentType" : 5126,
            "count" : 752,
            "max" : [
                -0.8264395594596863,
                0.05719918757677078,
                0.13795676827430725
            ],
            "min" : [
                -0.8543609976768494,
                -0.014034310355782509,
                -0.12436223030090332
            ],
            "type" : "VEC3"
        },
        {
            "bufferView" : 1,
            "componentType" : 5126,
            "count" : 752,
            "type" : "VEC3"
        },
        {
            "bufferView" : 2,
            "componentType" : 5126,
            "count" : 752,
            "type" : "VEC2"
        },
        {
            "bufferView" : 3,
            "componentType" : 5123,
            "count" : 1680,
            "type" : "SCALAR"
        },
        {
            "bufferView" : 5,
            "componentType" : 5126,
            "count" : 128,
            "max" : [
                0.3480989336967468,
                0.34901198744773865,
                0.7096939086914062
            ],
            "min" : [
                -0.34810057282447815,
                -0.4116707146167755,
                -0.31904131174087524
            ],
            "type" : "VEC3"
        },
        {
            "bufferView" : 6,
            "componentType" : 5126,
            "count" : 128,
            "type" : "VEC3"
        },
        {
            "bufferView" : 7,
            "componentType" : 5126,
            "count" : 128,
            "type" : "VEC2"
        },
        {
            "bufferView" : 8,
            "componentType" : 5123,
            "count" : 300,
            "type" : "SCALAR"
        },
        {
            "bufferView" : 9,
            "componentType" : 5126,
            "count" : 188,
            "max" : [
                0.3049648702144623,
                0.33655819296836853,
                0.1948452889919281
            ],
            "min" : [
                -0.3049668073654175,
                -0.19877353310585022,
                -0.5866036415100098
            ],
            "type" : "VEC3"
        },
        {
            "bufferView" : 10,
            "componentType" : 5126,
            "count" : 188,
            "type" : "VEC3"
        },
        {
            "bufferView" : 11,
            "componentType" : 5126,
            "count" : 188,
            "type" : "VEC2"
        },
        {
            "bufferView" : 12,
            "componentType" : 5123,
            "count" : 516,
            "type" : "SCALAR"
        },
        {
            "bufferView" : 13,
            "componentType" : 5126,
            "count" : 224,
            "max" : [
                0.27250221371650696,
                0.6026338934898376,
                0.8109893202781677
            ],
            "min" : [
                -0.27250415086746216,
                0.5119507312774658,
                0.7304807901382446
            ],
            "type" : "VEC3"
        },
        {
            "bufferView" : 14,
            "componentType" : 5126,
            "count" : 224,
            "type" : "VEC3"
        },
        {
            "bufferView" : 15,
            "componentType" : 5126,
            "count" : 224,
            "type" : "VEC2"
        },
        {
            "bufferView" : 16,
            "componentType" : 5123,
            "count" : 840,
            "type" : "SCALAR"
        },
        {
            "bufferView" : 17,
            "componentType" : 5126,
            "count" : 76,
            "max" : [
                0.06521249562501907,
                0.3990912437438965,
                1.1938812732696533
            ],
            "min" : [
                -0.06521474570035934,
                0.3046465814113617,
                0.8755283951759338
            ],
            "type" : "VEC3"
        },
        {
            "bufferView" : 18,
            "componentType" : 5126,
            "count" : 76,
            "type" : "VEC3"
        },
        {
            "bufferView" : 19,
            "componentType" : 5126,
            "count" : 76,
            "type" : "VEC2"
        },
        {
            "bufferView" : 20,
            "componentType" : 5123,
            "count" : 204,
            "type" : "SCALAR"
        },
        {
            "bufferView" : 21,
            "componentType" : 5126,
            "count" : 1963,
            "max" : [
                0.27922144532203674,
                1.0179555416107178,
                1.1951746940612793
            ],
            "min" : [
                -0.27922341227531433,
                -0.8959623575210571,
                -1.4939537048339844
            ],
            "type" : "VEC3"
        },
        {
            "bufferView" : 22,
            "componentType" : 5126,
            "count" : 1963,
            "type" : "VEC3"
        },
        {
            "bufferView" : 23,
            "componentType" : 5126,
            "count" : 1963,
            "type" : "VEC2"
        },
        {
            "bufferView" : 24,
            "componentType" : 5123,
            "count" : 5496,
            "type" : "SCALAR"
        }
    ],
    "bufferViews" : [
        {
            "buffer" : 0,
            "byteLength" : 9024,
            "byteOffset" : 0
        },
        {
            "buffer" : 0,
            "byteLength" : 9024,
            "byteOffset" : 9024
        },
        {
            "buffer" : 0,
            "byteLength" : 6016,
            "byteOffset" : 18048
        },
        {
            "buffer" : 0,
            "byteLength" : 3360,
            "byteOffset" : 24064
        },
        {
            "buffer" : 0,
            "byteLength" : 11997,
            "byteOffset" : 27424
        },
        {
            "buffer" : 0,
            "byteLength" : 1536,
            "byteOffset" : 39424
        },
        {
            "buffer" : 0,
            "byteLength" : 1536,
            "byteOffset" : 40960
        },
        {
            "buffer" : 0,
            "byteLength" : 1024,
            "byteOffset" : 42496
        },
        {
            "buffer" : 0,
            "byteLength" : 600,
            "byteOffset" : 43520
        },
        {
            "buffer" : 0,
            "byteLength" : 2256,
            "byteOffset" : 44120
        },
        {
            "buffer" : 0,
            "byteLength" : 2256,
            "byteOffset" : 46376
        },
        {
            "buffer" : 0,
            "byteLength" : 1504,
            "byteOffset" : 48632
        },
        {
            "buffer" : 0,
            "byteLength" : 1032,
            "byteOffset" : 50136
        },
        {
            "buffer" : 0,
            "byteLength" : 2688,
            "byteOffset" : 51168
        },
        {
            "buffer" : 0,
            "byteLength" : 2688,
            "byteOffset" : 53856
        },
        {
            "buffer" : 0,
            "byteLength" : 1792,
            "byteOffset" : 56544
        },
        {
            "buffer" : 0,
            "byteLength" : 1680,
            "byteOffset" : 58336
        },
        {
            "buffer" : 0,
            "byteLength" : 912,
            "byteOffset" : 60016
        },
        {
            "buffer" : 0,
            "byteLength" : 912,
            "byteOffset" : 60928
        },
        {
            "buffer" : 0,
            "byteLength" : 608,
            "byteOffset" : 61840
        },
        {
            "buffer" : 0,
            "byteLength" : 408,
            "byteOffset" : 62448
        },
        {
            "buffer" : 0,
            "byteLength" : 23556,
            "byteOffset" : 62856
        },
        {
            "buffer" : 0,
            "byteLength" : 23556,
            "byteOffset" : 86412
        },
        {
            "buffer" : 0,
            "byteLength" : 15704,
            "byteOffset" : 109968
        },
        {
            "buffer" : 0,
            "byteLength" : 10992,
            "byteOffset" : 125672
        }
    ],
    "samplers" : [
        {
            "magFilter" : 9729,
            "minFilter" : 9987
        }
    ],
    "buffers" : [
        {
            "byteLength" : 136664,
            "uri" : "data:application/octet-stream;base64,"
        }
    ]
}
