{
    "asset" : {
        "copyright" : "Jeremy Edelblut",
        "generator" : "Khronos glTF Blender I/O v1.7.33",
        "version" : "2.0"
    },
    "scene" : 0,
    "scenes" : [
        {
            "name" : "Scene",
            "nodes" : [
                0
            ]
        }
    ],
    "nodes" : [
        {
            "mesh" : 0,
            "name" : "Cube.402",
            "rotation" : [
                0.6532815098762512,
                0.27059802412986755,
                0.27059802412986755,
                0.6532815098762512
            ],
            "scale" : [
                1.3000000715255737,
                1.3000000715255737,
                1.3000000715255737
            ]
        }
    ],
    "materials" : [
        {
            "doubleSided" : true,
            "name" : "color",
            "pbrMetallicRoughness" : {
                "baseColorTexture" : {
                    "index" : 0
                },
                "metallicFactor" : 0,
                "roughnessFactor" : 0.5
            }
        }
    ],
    "meshes" : [
        {
            "name" : "Cube.776",
            "primitives" : [
                {
                    "attributes" : {
                        "POSITION" : 0,
                        "NORMAL" : 1,
                        "TEXCOORD_0" : 2
                    },
                    "indices" : 3,
                    "material" : 0
                }
            ]
        }
    ],
    "textures" : [
        {
            "sampler" : 0,
            "source" : 0
        }
    ],
    "images" : [
        {
            "bufferView" : 4,
            "mimeType" : "image/png",
            "name" : "tex"
        }
    ],
    "accessors" : [
        {
            "bufferView" : 0,
            "componentType" : 5126,
            "count" : 2741,
            "max" : [
                0.8170086741447449,
                0.16033288836479187,
                1.0235893726348877
            ],
            "min" : [
                -0.8170086741447449,
                -0.13053160905838013,
                -1.0235893726348877
            ],
            "type" : "VEC3"
        },
        {
            "bufferView" : 1,
            "componentType" : 5126,
            "count" : 2741,
            "type" : "VEC3"
        },
        {
            "bufferView" : 2,
            "componentType" : 5126,
            "count" : 2741,
            "type" : "VEC2"
        },
        {
            "bufferView" : 3,
            "componentType" : 5123,
            "count" : 11052,
            "type" : "SCALAR"
        }
    ],
    "bufferViews" : [
        {
            "buffer" : 0,
            "byteLength" : 32892,
            "byteOffset" : 0
        },
        {
            "buffer" : 0,
            "byteLength" : 32892,
            "byteOffset" : 32892
        },
        {
            "buffer" : 0,
            "byteLength" : 21928,
            "byteOffset" : 65784
        },
        {
            "buffer" : 0,
            "byteLength" : 22104,
            "byteOffset" : 87712
        },
        {
            "buffer" : 0,
            "byteLength" : 11997,
            "byteOffset" : 109816
        }
    ],
    "samplers" : [
        {
            "magFilter" : 9729,
            "minFilter" : 9987
        }
    ],
    "buffers" : [
        {
            "byteLength" : 121816,
            "uri" : "data:application/octet-stream;base64,"
        }
    ]
}
