{
    "asset" : {
        "copyright" : "Jeremy Edelblut",
        "generator" : "Khronos glTF Blender I/O v1.6.16",
        "version" : "2.0"
    },
    "scene" : 0,
    "scenes" : [
        {
            "name" : "Scene",
            "nodes" : [
                0,
                1
            ]
        }
    ],
    "nodes" : [
        {
            "mesh" : 0,
            "name" : "Circle.2089",
            "rotation" : [
                -0.6638861298561096,
                0.24342383444309235,
                -0.2434236705303192,
                0.663886308670044
            ],
            "scale" : [
                0.5275682806968689,
                0.5275681614875793,
                0.5275682806968689
            ],
            "translation" : [
                0,
                -0.011068668216466904,
                0
            ]
        },
        {
            "mesh" : 1,
            "name" : "Cube.177",
            "rotation" : [
                0.4242456257343292,
                -0.553743839263916,
                -0.5567467212677002,
                0.4510171115398407
            ],
            "scale" : [
                0.9628075957298279,
                0.9628077149391174,
                0.9628074765205383
            ],
            "translation" : [
                -0.005075213965028524,
                0,
                -0.008237875998020172
            ]
        }
    ],
    "materials" : [
        {
            "doubleSided" : true,
            "name" : "Color",
            "pbrMetallicRoughness" : {
                "baseColorTexture" : {
                    "index" : 0
                },
                "metallicFactor" : 0,
                "roughnessFactor" : 0.5
            }
        }
    ],
    "meshes" : [
        {
            "name" : "Circle.2449",
            "primitives" : [
                {
                    "attributes" : {
                        "POSITION" : 0,
                        "NORMAL" : 1,
                        "TEXCOORD_0" : 2
                    },
                    "indices" : 3,
                    "material" : 0
                }
            ]
        },
        {
            "name" : "Cube.341",
            "primitives" : [
                {
                    "attributes" : {
                        "POSITION" : 4,
                        "NORMAL" : 5,
                        "TEXCOORD_0" : 6
                    },
                    "indices" : 7,
                    "material" : 0
                }
            ]
        }
    ],
    "textures" : [
        {
            "sampler" : 0,
            "source" : 0
        }
    ],
    "images" : [
        {
            "bufferView" : 4,
            "mimeType" : "image/png",
            "name" : "tex"
        }
    ],
    "accessors" : [
        {
            "bufferView" : 0,
            "componentType" : 5126,
            "count" : 726,
            "max" : [
                2.0009078979492188,
                0.048021115362644196,
                1.873033046722412
            ],
            "min" : [
                -2.149353504180908,
                -0.2631751298904419,
                -2.149811029434204
            ],
            "type" : "VEC3"
        },
        {
            "bufferView" : 1,
            "componentType" : 5126,
            "count" : 726,
            "type" : "VEC3"
        },
        {
            "bufferView" : 2,
            "componentType" : 5126,
            "count" : 726,
            "type" : "VEC2"
        },
        {
            "bufferView" : 3,
            "componentType" : 5123,
            "count" : 2904,
            "type" : "SCALAR"
        },
        {
            "bufferView" : 5,
            "componentType" : 5126,
            "count" : 168,
            "max" : [
                0.929907500743866,
                0.003261331468820572,
                0.024930967018008232
            ],
            "min" : [
                -0.024930967018008232,
                -0.7029302716255188,
                -1.2523741722106934
            ],
            "type" : "VEC3"
        },
        {
            "bufferView" : 6,
            "componentType" : 5126,
            "count" : 168,
            "type" : "VEC3"
        },
        {
            "bufferView" : 7,
            "componentType" : 5126,
            "count" : 168,
            "type" : "VEC2"
        },
        {
            "bufferView" : 8,
            "componentType" : 5123,
            "count" : 252,
            "type" : "SCALAR"
        }
    ],
    "bufferViews" : [
        {
            "buffer" : 0,
            "byteLength" : 8712,
            "byteOffset" : 0
        },
        {
            "buffer" : 0,
            "byteLength" : 8712,
            "byteOffset" : 8712
        },
        {
            "buffer" : 0,
            "byteLength" : 5808,
            "byteOffset" : 17424
        },
        {
            "buffer" : 0,
            "byteLength" : 5808,
            "byteOffset" : 23232
        },
        {
            "buffer" : 0,
            "byteLength" : 3214,
            "byteOffset" : 29040
        },
        {
            "buffer" : 0,
            "byteLength" : 2016,
            "byteOffset" : 32256
        },
        {
            "buffer" : 0,
            "byteLength" : 2016,
            "byteOffset" : 34272
        },
        {
            "buffer" : 0,
            "byteLength" : 1344,
            "byteOffset" : 36288
        },
        {
            "buffer" : 0,
            "byteLength" : 504,
            "byteOffset" : 37632
        }
    ],
    "samplers" : [
        {
            "magFilter" : 9729,
            "minFilter" : 9987
        }
    ],
    "buffers" : [
        {
            "byteLength" : 38136,
            "uri" : "data:application/octet-stream;base64,"
        }
    ]
}
