{
    "asset" : {
        "copyright" : "Jeremy Edelblut",
        "generator" : "Khronos glTF Blender I/O v1.7.33",
        "version" : "2.0"
    },
    "scene" : 0,
    "scenes" : [
        {
            "name" : "Scene",
            "nodes" : [
                0,
                1,
                2
            ]
        }
    ],
    "nodes" : [
        {
            "mesh" : 0,
            "name" : "Circle.1976",
            "rotation" : [
                0,
                -0.3826834559440613,
                0,
                0.9238795042037964
            ],
            "scale" : [
                0.1956956535577774,
                0.1956956535577774,
                0.1956956535577774
            ]
        },
        {
            "mesh" : 1,
            "name" : "Plane.170",
            "rotation" : [
                0,
                -0.3826834559440613,
                0,
                0.9238795042037964
            ],
            "scale" : [
                0.32615941762924194,
                0.32615941762924194,
                0.32615941762924194
            ]
        },
        {
            "mesh" : 2,
            "name" : "Plane.171",
            "rotation" : [
                0,
                -0.3826834559440613,
                0,
                0.9238795042037964
            ],
            "scale" : [
                0.32615941762924194,
                0.32615941762924194,
                0.32615941762924194
            ]
        }
    ],
    "materials" : [
        {
            "doubleSided" : true,
            "name" : "color",
            "pbrMetallicRoughness" : {
                "baseColorTexture" : {
                    "index" : 0
                },
                "metallicFactor" : 0,
                "roughnessFactor" : 0.5
            }
        }
    ],
    "meshes" : [
        {
            "name" : "Circle.228",
            "primitives" : [
                {
                    "attributes" : {
                        "POSITION" : 0,
                        "NORMAL" : 1,
                        "TEXCOORD_0" : 2
                    },
                    "indices" : 3,
                    "material" : 0
                }
            ]
        },
        {
            "name" : "Plane.167",
            "primitives" : [
                {
                    "attributes" : {
                        "POSITION" : 4,
                        "NORMAL" : 5,
                        "TEXCOORD_0" : 6
                    },
                    "indices" : 7,
                    "material" : 0
                }
            ]
        },
        {
            "name" : "Plane.168",
            "primitives" : [
                {
                    "attributes" : {
                        "POSITION" : 8,
                        "NORMAL" : 9,
                        "TEXCOORD_0" : 10
                    },
                    "indices" : 11,
                    "material" : 0
                }
            ]
        }
    ],
    "textures" : [
        {
            "sampler" : 0,
            "source" : 0
        }
    ],
    "images" : [
        {
            "bufferView" : 4,
            "mimeType" : "image/png",
            "name" : "tex"
        }
    ],
    "accessors" : [
        {
            "bufferView" : 0,
            "componentType" : 5126,
            "count" : 98,
            "max" : [
                0.7785701751708984,
                0.3283424377441406,
                5.281182765960693
            ],
            "min" : [
                -0.7785701751708984,
                0.03219892084598541,
                4.979342460632324
            ],
            "type" : "VEC3"
        },
        {
            "bufferView" : 1,
            "componentType" : 5126,
            "count" : 98,
            "type" : "VEC3"
        },
        {
            "bufferView" : 2,
            "componentType" : 5126,
            "count" : 98,
            "type" : "VEC2"
        },
        {
            "bufferView" : 3,
            "componentType" : 5123,
            "count" : 288,
            "type" : "SCALAR"
        },
        {
            "bufferView" : 5,
            "componentType" : 5126,
            "count" : 458,
            "max" : [
                0.5025296211242676,
                1.8622100353240967,
                4.007293224334717
            ],
            "min" : [
                -0.5025296211242676,
                -1.035989761352539,
                -5.256211280822754
            ],
            "type" : "VEC3"
        },
        {
            "bufferView" : 6,
            "componentType" : 5126,
            "count" : 458,
            "type" : "VEC3"
        },
        {
            "bufferView" : 7,
            "componentType" : 5126,
            "count" : 458,
            "type" : "VEC2"
        },
        {
            "bufferView" : 8,
            "componentType" : 5123,
            "count" : 1446,
            "type" : "SCALAR"
        },
        {
            "bufferView" : 9,
            "componentType" : 5126,
            "count" : 248,
            "max" : [
                1.246463656425476,
                -0.29789838194847107,
                1.600703477859497
            ],
            "min" : [
                -1.246463656425476,
                -0.7863335013389587,
                -1.963736891746521
            ],
            "type" : "VEC3"
        },
        {
            "bufferView" : 10,
            "componentType" : 5126,
            "count" : 248,
            "type" : "VEC3"
        },
        {
            "bufferView" : 11,
            "componentType" : 5126,
            "count" : 248,
            "type" : "VEC2"
        },
        {
            "bufferView" : 12,
            "componentType" : 5123,
            "count" : 600,
            "type" : "SCALAR"
        }
    ],
    "bufferViews" : [
        {
            "buffer" : 0,
            "byteLength" : 1176,
            "byteOffset" : 0
        },
        {
            "buffer" : 0,
            "byteLength" : 1176,
            "byteOffset" : 1176
        },
        {
            "buffer" : 0,
            "byteLength" : 784,
            "byteOffset" : 2352
        },
        {
            "buffer" : 0,
            "byteLength" : 576,
            "byteOffset" : 3136
        },
        {
            "buffer" : 0,
            "byteLength" : 11997,
            "byteOffset" : 3712
        },
        {
            "buffer" : 0,
            "byteLength" : 5496,
            "byteOffset" : 15712
        },
        {
            "buffer" : 0,
            "byteLength" : 5496,
            "byteOffset" : 21208
        },
        {
            "buffer" : 0,
            "byteLength" : 3664,
            "byteOffset" : 26704
        },
        {
            "buffer" : 0,
            "byteLength" : 2892,
            "byteOffset" : 30368
        },
        {
            "buffer" : 0,
            "byteLength" : 2976,
            "byteOffset" : 33260
        },
        {
            "buffer" : 0,
            "byteLength" : 2976,
            "byteOffset" : 36236
        },
        {
            "buffer" : 0,
            "byteLength" : 1984,
            "byteOffset" : 39212
        },
        {
            "buffer" : 0,
            "byteLength" : 1200,
            "byteOffset" : 41196
        }
    ],
    "samplers" : [
        {
            "magFilter" : 9729,
            "minFilter" : 9987
        }
    ],
    "buffers" : [
        {
            "byteLength" : 42396,
            "uri" : "data:application/octet-stream;base64,"
        }
    ]
}
