{
    "asset" : {
        "copyright" : "Jeremy Edelblut",
        "generator" : "Khronos glTF Blender I/O v1.6.16",
        "version" : "2.0"
    },
    "scene" : 0,
    "scenes" : [
        {
            "name" : "Scene",
            "nodes" : [
                0,
                1
            ]
        }
    ],
    "nodes" : [
        {
            "mesh" : 0,
            "name" : "Circle.2114",
            "rotation" : [
                -0.7071068286895752,
                0,
                0,
                0.7071068286895752
            ],
            "scale" : [
                0.27000001072883606,
                0.27000001072883606,
                0.27000001072883606
            ],
            "translation" : [
                -0.5199577808380127,
                -0.5518506765365601,
                0
            ]
        },
        {
            "mesh" : 1,
            "name" : "Plane.187",
            "rotation" : [
                0.5,
                -0.5,
                -0.4999999701976776,
                0.5
            ],
            "scale" : [
                1.2000000476837158,
                1.2000000476837158,
                1.2000000476837158
            ],
            "translation" : [
                -0.5199577808380127,
                -0.5518506765365601,
                0
            ]
        }
    ],
    "materials" : [
        {
            "doubleSided" : true,
            "name" : "Color",
            "pbrMetallicRoughness" : {
                "baseColorTexture" : {
                    "index" : 0
                },
                "metallicFactor" : 0,
                "roughnessFactor" : 0.5
            }
        }
    ],
    "meshes" : [
        {
            "name" : "Circle.2499",
            "primitives" : [
                {
                    "attributes" : {
                        "POSITION" : 0,
                        "NORMAL" : 1,
                        "TEXCOORD_0" : 2
                    },
                    "indices" : 3,
                    "material" : 0
                }
            ]
        },
        {
            "name" : "Plane.179",
            "primitives" : [
                {
                    "attributes" : {
                        "POSITION" : 4,
                        "NORMAL" : 5,
                        "TEXCOORD_0" : 6
                    },
                    "indices" : 7,
                    "material" : 0
                }
            ]
        }
    ],
    "textures" : [
        {
            "sampler" : 0,
            "source" : 0
        }
    ],
    "images" : [
        {
            "bufferView" : 4,
            "mimeType" : "image/png",
            "name" : "tex2"
        }
    ],
    "accessors" : [
        {
            "bufferView" : 0,
            "componentType" : 5126,
            "count" : 252,
            "max" : [
                2.171412944793701,
                0.3843799829483032,
                2.2652475833892822
            ],
            "min" : [
                -2.171412706375122,
                -0.3845621943473816,
                -1.8873907327651978
            ],
            "type" : "VEC3"
        },
        {
            "bufferView" : 1,
            "componentType" : 5126,
            "count" : 252,
            "type" : "VEC3"
        },
        {
            "bufferView" : 2,
            "componentType" : 5126,
            "count" : 252,
            "type" : "VEC2"
        },
        {
            "bufferView" : 3,
            "componentType" : 5123,
            "count" : 720,
            "type" : "SCALAR"
        },
        {
            "bufferView" : 5,
            "componentType" : 5126,
            "count" : 112,
            "max" : [
                0.35081344842910767,
                0.010867885313928127,
                0.38164642453193665
            ],
            "min" : [
                -1.4300626516342163,
                -0.010453836061060429,
                -1.1406152248382568
            ],
            "type" : "VEC3"
        },
        {
            "bufferView" : 6,
            "componentType" : 5126,
            "count" : 112,
            "type" : "VEC3"
        },
        {
            "bufferView" : 7,
            "componentType" : 5126,
            "count" : 112,
            "type" : "VEC2"
        },
        {
            "bufferView" : 8,
            "componentType" : 5123,
            "count" : 168,
            "type" : "SCALAR"
        }
    ],
    "bufferViews" : [
        {
            "buffer" : 0,
            "byteLength" : 3024,
            "byteOffset" : 0
        },
        {
            "buffer" : 0,
            "byteLength" : 3024,
            "byteOffset" : 3024
        },
        {
            "buffer" : 0,
            "byteLength" : 2016,
            "byteOffset" : 6048
        },
        {
            "buffer" : 0,
            "byteLength" : 1440,
            "byteOffset" : 8064
        },
        {
            "buffer" : 0,
            "byteLength" : 6474,
            "byteOffset" : 9504
        },
        {
            "buffer" : 0,
            "byteLength" : 1344,
            "byteOffset" : 15980
        },
        {
            "buffer" : 0,
            "byteLength" : 1344,
            "byteOffset" : 17324
        },
        {
            "buffer" : 0,
            "byteLength" : 896,
            "byteOffset" : 18668
        },
        {
            "buffer" : 0,
            "byteLength" : 336,
            "byteOffset" : 19564
        }
    ],
    "samplers" : [
        {
            "magFilter" : 9729,
            "minFilter" : 9987
        }
    ],
    "buffers" : [
        {
            "byteLength" : 19900,
            "uri" : "data:application/octet-stream;base64,"
        }
    ]
}
