{
    "asset" : {
        "copyright" : "Jeremy Edelblut",
        "generator" : "Khronos glTF Blender I/O v1.6.16",
        "version" : "2.0"
    },
    "scene" : 0,
    "scenes" : [
        {
            "name" : "Scene",
            "nodes" : [
                0
            ]
        }
    ],
    "nodes" : [
        {
            "mesh" : 0,
            "name" : "Circle.2258",
            "rotation" : [
                0.09904572367668152,
                0.8923991322517395,
                0.23911763727664948,
                0.3696436583995819
            ],
            "scale" : [
                1.8648078441619873,
                1.864807367324829,
                1.8648076057434082
            ],
            "translation" : [
                -0.6842218041419983,
                -1.021668791770935,
                0.2510277330875397
            ]
        }
    ],
    "materials" : [
        {
            "doubleSided" : true,
            "name" : "Color",
            "pbrMetallicRoughness" : {
                "baseColorTexture" : {
                    "index" : 0
                },
                "metallicFactor" : 0,
                "roughnessFactor" : 0.5
            }
        }
    ],
    "meshes" : [
        {
            "name" : "Circle.2749",
            "primitives" : [
                {
                    "attributes" : {
                        "POSITION" : 0,
                        "NORMAL" : 1,
                        "TEXCOORD_0" : 2
                    },
                    "indices" : 3,
                    "material" : 0
                }
            ]
        }
    ],
    "textures" : [
        {
            "sampler" : 0,
            "source" : 0
        }
    ],
    "images" : [
        {
            "bufferView" : 4,
            "mimeType" : "image/png",
            "name" : "tex2"
        }
    ],
    "accessors" : [
        {
            "bufferView" : 0,
            "componentType" : 5126,
            "count" : 476,
            "max" : [
                0.370790958404541,
                1.0300134420394897,
                0.9689235091209412
            ],
            "min" : [
                -0.3707910180091858,
                0,
                0.04816075414419174
            ],
            "type" : "VEC3"
        },
        {
            "bufferView" : 1,
            "componentType" : 5126,
            "count" : 476,
            "type" : "VEC3"
        },
        {
            "bufferView" : 2,
            "componentType" : 5126,
            "count" : 476,
            "type" : "VEC2"
        },
        {
            "bufferView" : 3,
            "componentType" : 5123,
            "count" : 2052,
            "type" : "SCALAR"
        }
    ],
    "bufferViews" : [
        {
            "buffer" : 0,
            "byteLength" : 5712,
            "byteOffset" : 0
        },
        {
            "buffer" : 0,
            "byteLength" : 5712,
            "byteOffset" : 5712
        },
        {
            "buffer" : 0,
            "byteLength" : 3808,
            "byteOffset" : 11424
        },
        {
            "buffer" : 0,
            "byteLength" : 4104,
            "byteOffset" : 15232
        },
        {
            "buffer" : 0,
            "byteLength" : 6474,
            "byteOffset" : 19336
        }
    ],
    "samplers" : [
        {
            "magFilter" : 9729,
            "minFilter" : 9987
        }
    ],
    "buffers" : [
        {
            "byteLength" : 25812,
            "uri" : "data:application/octet-stream;base64,"
        }
    ]
}
