{
    "asset" : {
        "copyright" : "Jeremy Edelblut",
        "generator" : "Khronos glTF Blender I/O v1.7.33",
        "version" : "2.0"
    },
    "scene" : 1,
    "scenes" : [
        {
            "name" : "FBX_Temp",
            "nodes" : [
                0
            ]
        },
        {
            "name" : "Scene",
            "nodes" : [
                1,
                2,
                3,
                4,
                5,
                6,
                7,
                8,
                9
            ]
        }
    ],
    "nodes" : [
        {
            "mesh" : 0,
            "name" : "3moji.064",
            "rotation" : [
                0,
                -0.7071068286895752,
                0,
                0.7071068286895752
            ]
        },
        {
            "mesh" : 1,
            "name" : "Circle.702",
            "rotation" : [
                0.7071068286895752,
                0,
                0,
                0.7071068286895752
            ],
            "scale" : [
                2.706974744796753,
                2.706974744796753,
                2.706974744796753
            ]
        },
        {
            "mesh" : 2,
            "name" : "Circle.703",
            "rotation" : [
                0.7071068286895752,
                0,
                0,
                0.7071068286895752
            ],
            "scale" : [
                2.706974744796753,
                2.706974744796753,
                2.706974744796753
            ]
        },
        {
            "mesh" : 3,
            "name" : "Cylinder.104",
            "rotation" : [
                0,
                -0.7071068286895752,
                0,
                0.7071068286895752
            ],
            "scale" : [
                0.7010374069213867,
                0.7010374069213867,
                0.7010374069213867
            ]
        },
        {
            "mesh" : 4,
            "name" : "Roundcube.121",
            "rotation" : [
                0,
                -0.7071068286895752,
                0,
                0.7071068286895752
            ],
            "scale" : [
                0.7010374069213867,
                0.7010374069213867,
                0.7010374069213867
            ]
        },
        {
            "mesh" : 5,
            "name" : "Circle.704",
            "rotation" : [
                0.7071068286895752,
                0,
                0,
                0.7071068286895752
            ]
        },
        {
            "mesh" : 6,
            "name" : "Cube.1525",
            "rotation" : [
                0.3666893541812897,
                -0.74508136510849,
                0.21157853305339813,
                0.5153903365135193
            ],
            "scale" : [
                0.1233149841427803,
                0.12331508845090866,
                0.1233149915933609
            ]
        },
        {
            "mesh" : 7,
            "name" : "Sphere.080",
            "rotation" : [
                0,
                -0.7071068286895752,
                0,
                0.7071068286895752
            ],
            "scale" : [
                0.5,
                0.5,
                0.5
            ]
        },
        {
            "mesh" : 8,
            "name" : "Sphere.082",
            "rotation" : [
                0,
                -0.7071068286895752,
                0,
                0.7071068286895752
            ],
            "scale" : [
                0.5,
                0.5,
                0.5
            ]
        },
        {
            "mesh" : 9,
            "name" : "Sphere.086",
            "rotation" : [
                0.006140037439763546,
                0.009870338253676891,
                0.5281700491905212,
                0.8490590453147888
            ],
            "scale" : [
                0.1839805394411087,
                0.1839805394411087,
                0.1839805394411087
            ]
        }
    ],
    "materials" : [
        {
            "doubleSided" : true,
            "name" : "color",
            "pbrMetallicRoughness" : {
                "baseColorTexture" : {
                    "index" : 0
                },
                "metallicFactor" : 0,
                "roughnessFactor" : 0.5
            }
        },
        {
            "doubleSided" : true,
            "name" : "skin_tone_one",
            "pbrMetallicRoughness" : {
                "baseColorTexture" : {
                    "index" : 1
                },
                "metallicFactor" : 0,
                "roughnessFactor" : 0.5
            }
        }
    ],
    "meshes" : [
        {
            "name" : "Cube.417",
            "primitives" : [
                {
                    "attributes" : {
                        "POSITION" : 0,
                        "NORMAL" : 1,
                        "TEXCOORD_0" : 2
                    },
                    "indices" : 3,
                    "material" : 0
                }
            ]
        },
        {
            "name" : "Circle.774",
            "primitives" : [
                {
                    "attributes" : {
                        "POSITION" : 4,
                        "NORMAL" : 5,
                        "TEXCOORD_0" : 6
                    },
                    "indices" : 7,
                    "material" : 0
                }
            ]
        },
        {
            "name" : "Circle.775",
            "primitives" : [
                {
                    "attributes" : {
                        "POSITION" : 8,
                        "NORMAL" : 9,
                        "TEXCOORD_0" : 10
                    },
                    "indices" : 11,
                    "material" : 1
                }
            ]
        },
        {
            "name" : "Cylinder.104",
            "primitives" : [
                {
                    "attributes" : {
                        "POSITION" : 12,
                        "NORMAL" : 13,
                        "TEXCOORD_0" : 14
                    },
                    "indices" : 15,
                    "material" : 1
                }
            ]
        },
        {
            "name" : "Roundcube.122",
            "primitives" : [
                {
                    "attributes" : {
                        "POSITION" : 16,
                        "NORMAL" : 17,
                        "TEXCOORD_0" : 18
                    },
                    "indices" : 19,
                    "material" : 0
                },
                {
                    "attributes" : {
                        "POSITION" : 20,
                        "NORMAL" : 21,
                        "TEXCOORD_0" : 22
                    },
                    "indices" : 23,
                    "material" : 1
                }
            ]
        },
        {
            "name" : "Circle.776",
            "primitives" : [
                {
                    "attributes" : {
                        "POSITION" : 24,
                        "NORMAL" : 25,
                        "TEXCOORD_0" : 26
                    },
                    "indices" : 27,
                    "material" : 0
                }
            ]
        },
        {
            "name" : "Cube.1859",
            "primitives" : [
                {
                    "attributes" : {
                        "POSITION" : 28,
                        "NORMAL" : 29,
                        "TEXCOORD_0" : 30
                    },
                    "indices" : 31,
                    "material" : 0
                }
            ]
        },
        {
            "name" : "Sphere.082",
            "primitives" : [
                {
                    "attributes" : {
                        "POSITION" : 32,
                        "NORMAL" : 33,
                        "TEXCOORD_0" : 34
                    },
                    "indices" : 35,
                    "material" : 0
                }
            ]
        },
        {
            "name" : "Sphere.083",
            "primitives" : [
                {
                    "attributes" : {
                        "POSITION" : 36,
                        "NORMAL" : 37,
                        "TEXCOORD_0" : 38
                    },
                    "indices" : 39,
                    "material" : 0
                }
            ]
        },
        {
            "name" : "Sphere.088",
            "primitives" : [
                {
                    "attributes" : {
                        "POSITION" : 40,
                        "NORMAL" : 41,
                        "TEXCOORD_0" : 42
                    },
                    "indices" : 43,
                    "material" : 0
                }
            ]
        }
    ],
    "textures" : [
        {
            "sampler" : 0,
            "source" : 0
        },
        {
            "sampler" : 0,
            "source" : 0
        }
    ],
    "images" : [
        {
            "bufferView" : 4,
            "mimeType" : "image/png",
            "name" : "tex"
        }
    ],
    "accessors" : [
        {
            "bufferView" : 0,
            "componentType" : 5126,
            "count" : 752,
            "max" : [
                -0.8264395594596863,
                0.05719918757677078,
                0.13795676827430725
            ],
            "min" : [
                -0.8543609976768494,
                -0.014034310355782509,
                -0.12436223030090332
            ],
            "type" : "VEC3"
        },
        {
            "bufferView" : 1,
            "componentType" : 5126,
            "count" : 752,
            "type" : "VEC3"
        },
        {
            "bufferView" : 2,
            "componentType" : 5126,
            "count" : 752,
            "type" : "VEC2"
        },
        {
            "bufferView" : 3,
            "componentType" : 5123,
            "count" : 1680,
            "type" : "SCALAR"
        },
        {
            "bufferView" : 5,
            "componentType" : 5126,
            "count" : 452,
            "max" : [
                0.13148094713687897,
                0.21673062443733215,
                -0.026136120781302452
            ],
            "min" : [
                -0.13148094713687897,
                0.17971271276474,
                -0.11771447956562042
            ],
            "type" : "VEC3"
        },
        {
            "bufferView" : 6,
            "componentType" : 5126,
            "count" : 452,
            "type" : "VEC3"
        },
        {
            "bufferView" : 7,
            "componentType" : 5126,
            "count" : 452,
            "type" : "VEC2"
        },
        {
            "bufferView" : 8,
            "componentType" : 5123,
            "count" : 1920,
            "type" : "SCALAR"
        },
        {
            "bufferView" : 9,
            "componentType" : 5126,
            "count" : 142,
            "max" : [
                0.025681529194116592,
                0.22220277786254883,
                0.007366210222244263
            ],
            "min" : [
                -0.02493857778608799,
                0.20898300409317017,
                -0.022072577849030495
            ],
            "type" : "VEC3"
        },
        {
            "bufferView" : 10,
            "componentType" : 5126,
            "count" : 142,
            "type" : "VEC3"
        },
        {
            "bufferView" : 11,
            "componentType" : 5126,
            "count" : 142,
            "type" : "VEC2"
        },
        {
            "bufferView" : 12,
            "componentType" : 5123,
            "count" : 528,
            "type" : "SCALAR"
        },
        {
            "bufferView" : 13,
            "componentType" : 5126,
            "count" : 1135,
            "max" : [
                -0.15159989893436432,
                0.5513880848884583,
                1.2522509098052979
            ],
            "min" : [
                -0.527228593826294,
                -0.08596953004598618,
                -1.2522509098052979
            ],
            "type" : "VEC3"
        },
        {
            "bufferView" : 14,
            "componentType" : 5126,
            "count" : 1135,
            "type" : "VEC3"
        },
        {
            "bufferView" : 15,
            "componentType" : 5126,
            "count" : 1135,
            "type" : "VEC2"
        },
        {
            "bufferView" : 16,
            "componentType" : 5123,
            "count" : 4992,
            "type" : "SCALAR"
        },
        {
            "bufferView" : 17,
            "componentType" : 5126,
            "count" : 1226,
            "max" : [
                0.7026739120483398,
                1.2452303171157837,
                1.0156034231185913
            ],
            "min" : [
                -1.3394240140914917,
                -2.0023255348205566,
                -1.0155538320541382
            ],
            "type" : "VEC3"
        },
        {
            "bufferView" : 18,
            "componentType" : 5126,
            "count" : 1226,
            "type" : "VEC3"
        },
        {
            "bufferView" : 19,
            "componentType" : 5126,
            "count" : 1226,
            "type" : "VEC2"
        },
        {
            "bufferView" : 20,
            "componentType" : 5123,
            "count" : 4155,
            "type" : "SCALAR"
        },
        {
            "bufferView" : 21,
            "componentType" : 5126,
            "count" : 794,
            "max" : [
                0.8239538669586182,
                1.128677487373352,
                1.0223400592803955
            ],
            "min" : [
                -1.2057507038116455,
                -1.151817798614502,
                -1.0222904682159424
            ],
            "type" : "VEC3"
        },
        {
            "bufferView" : 22,
            "componentType" : 5126,
            "count" : 794,
            "type" : "VEC3"
        },
        {
            "bufferView" : 23,
            "componentType" : 5126,
            "count" : 794,
            "type" : "VEC2"
        },
        {
            "bufferView" : 24,
            "componentType" : 5123,
            "count" : 3843,
            "type" : "SCALAR"
        },
        {
            "bufferView" : 25,
            "componentType" : 5126,
            "count" : 316,
            "max" : [
                0.416871577501297,
                0.5363590717315674,
                -0.3116697371006012
            ],
            "min" : [
                -0.416871577501297,
                0.4130604863166809,
                -0.4614173173904419
            ],
            "type" : "VEC3"
        },
        {
            "bufferView" : 26,
            "componentType" : 5126,
            "count" : 316,
            "type" : "VEC3"
        },
        {
            "bufferView" : 27,
            "componentType" : 5126,
            "count" : 316,
            "type" : "VEC2"
        },
        {
            "bufferView" : 28,
            "componentType" : 5123,
            "count" : 1152,
            "type" : "SCALAR"
        },
        {
            "bufferView" : 29,
            "componentType" : 5126,
            "count" : 1190,
            "max" : [
                4.948707103729248,
                9.810338973999023,
                4.138529300689697
            ],
            "min" : [
                -9.219921112060547,
                -0.3085310459136963,
                -7.376173496246338
            ],
            "type" : "VEC3"
        },
        {
            "bufferView" : 30,
            "componentType" : 5126,
            "count" : 1190,
            "type" : "VEC3"
        },
        {
            "bufferView" : 31,
            "componentType" : 5126,
            "count" : 1190,
            "type" : "VEC2"
        },
        {
            "bufferView" : 32,
            "componentType" : 5123,
            "count" : 2898,
            "type" : "SCALAR"
        },
        {
            "bufferView" : 33,
            "componentType" : 5126,
            "count" : 445,
            "max" : [
                0.10192406177520752,
                -1.253004550933838,
                1.5000004768371582
            ],
            "min" : [
                -1.8980764150619507,
                -2.7983813285827637,
                -1.5000004768371582
            ],
            "type" : "VEC3"
        },
        {
            "bufferView" : 34,
            "componentType" : 5126,
            "count" : 445,
            "type" : "VEC3"
        },
        {
            "bufferView" : 35,
            "componentType" : 5126,
            "count" : 445,
            "type" : "VEC2"
        },
        {
            "bufferView" : 36,
            "componentType" : 5123,
            "count" : 2418,
            "type" : "SCALAR"
        },
        {
            "bufferView" : 37,
            "componentType" : 5126,
            "count" : 900,
            "max" : [
                0.17192405462265015,
                -0.721298098564148,
                2.1947579383850098
            ],
            "min" : [
                -1.968076467514038,
                -2.7988650798797607,
                -2.1947579383850098
            ],
            "type" : "VEC3"
        },
        {
            "bufferView" : 38,
            "componentType" : 5126,
            "count" : 900,
            "type" : "VEC3"
        },
        {
            "bufferView" : 39,
            "componentType" : 5126,
            "count" : 900,
            "type" : "VEC2"
        },
        {
            "bufferView" : 40,
            "componentType" : 5123,
            "count" : 2400,
            "type" : "SCALAR"
        },
        {
            "bufferView" : 41,
            "componentType" : 5126,
            "count" : 436,
            "max" : [
                0.2522253394126892,
                -1.3494806289672852,
                4.791629791259766
            ],
            "min" : [
                -4.711437225341797,
                -6.838052749633789,
                2.791630744934082
            ],
            "type" : "VEC3"
        },
        {
            "bufferView" : 42,
            "componentType" : 5126,
            "count" : 436,
            "type" : "VEC3"
        },
        {
            "bufferView" : 43,
            "componentType" : 5126,
            "count" : 436,
            "type" : "VEC2"
        },
        {
            "bufferView" : 44,
            "componentType" : 5123,
            "count" : 1704,
            "type" : "SCALAR"
        }
    ],
    "bufferViews" : [
        {
            "buffer" : 0,
            "byteLength" : 9024,
            "byteOffset" : 0
        },
        {
            "buffer" : 0,
            "byteLength" : 9024,
            "byteOffset" : 9024
        },
        {
            "buffer" : 0,
            "byteLength" : 6016,
            "byteOffset" : 18048
        },
        {
            "buffer" : 0,
            "byteLength" : 3360,
            "byteOffset" : 24064
        },
        {
            "buffer" : 0,
            "byteLength" : 11997,
            "byteOffset" : 27424
        },
        {
            "buffer" : 0,
            "byteLength" : 5424,
            "byteOffset" : 39424
        },
        {
            "buffer" : 0,
            "byteLength" : 5424,
            "byteOffset" : 44848
        },
        {
            "buffer" : 0,
            "byteLength" : 3616,
            "byteOffset" : 50272
        },
        {
            "buffer" : 0,
            "byteLength" : 3840,
            "byteOffset" : 53888
        },
        {
            "buffer" : 0,
            "byteLength" : 1704,
            "byteOffset" : 57728
        },
        {
            "buffer" : 0,
            "byteLength" : 1704,
            "byteOffset" : 59432
        },
        {
            "buffer" : 0,
            "byteLength" : 1136,
            "byteOffset" : 61136
        },
        {
            "buffer" : 0,
            "byteLength" : 1056,
            "byteOffset" : 62272
        },
        {
            "buffer" : 0,
            "byteLength" : 13620,
            "byteOffset" : 63328
        },
        {
            "buffer" : 0,
            "byteLength" : 13620,
            "byteOffset" : 76948
        },
        {
            "buffer" : 0,
            "byteLength" : 9080,
            "byteOffset" : 90568
        },
        {
            "buffer" : 0,
            "byteLength" : 9984,
            "byteOffset" : 99648
        },
        {
            "buffer" : 0,
            "byteLength" : 14712,
            "byteOffset" : 109632
        },
        {
            "buffer" : 0,
            "byteLength" : 14712,
            "byteOffset" : 124344
        },
        {
            "buffer" : 0,
            "byteLength" : 9808,
            "byteOffset" : 139056
        },
        {
            "buffer" : 0,
            "byteLength" : 8310,
            "byteOffset" : 148864
        },
        {
            "buffer" : 0,
            "byteLength" : 9528,
            "byteOffset" : 157176
        },
        {
            "buffer" : 0,
            "byteLength" : 9528,
            "byteOffset" : 166704
        },
        {
            "buffer" : 0,
            "byteLength" : 6352,
            "byteOffset" : 176232
        },
        {
            "buffer" : 0,
            "byteLength" : 7686,
            "byteOffset" : 182584
        },
        {
            "buffer" : 0,
            "byteLength" : 3792,
            "byteOffset" : 190272
        },
        {
            "buffer" : 0,
            "byteLength" : 3792,
            "byteOffset" : 194064
        },
        {
            "buffer" : 0,
            "byteLength" : 2528,
            "byteOffset" : 197856
        },
        {
            "buffer" : 0,
            "byteLength" : 2304,
            "byteOffset" : 200384
        },
        {
            "buffer" : 0,
            "byteLength" : 14280,
            "byteOffset" : 202688
        },
        {
            "buffer" : 0,
            "byteLength" : 14280,
            "byteOffset" : 216968
        },
        {
            "buffer" : 0,
            "byteLength" : 9520,
            "byteOffset" : 231248
        },
        {
            "buffer" : 0,
            "byteLength" : 5796,
            "byteOffset" : 240768
        },
        {
            "buffer" : 0,
            "byteLength" : 5340,
            "byteOffset" : 246564
        },
        {
            "buffer" : 0,
            "byteLength" : 5340,
            "byteOffset" : 251904
        },
        {
            "buffer" : 0,
            "byteLength" : 3560,
            "byteOffset" : 257244
        },
        {
            "buffer" : 0,
            "byteLength" : 4836,
            "byteOffset" : 260804
        },
        {
            "buffer" : 0,
            "byteLength" : 10800,
            "byteOffset" : 265640
        },
        {
            "buffer" : 0,
            "byteLength" : 10800,
            "byteOffset" : 276440
        },
        {
            "buffer" : 0,
            "byteLength" : 7200,
            "byteOffset" : 287240
        },
        {
            "buffer" : 0,
            "byteLength" : 4800,
            "byteOffset" : 294440
        },
        {
            "buffer" : 0,
            "byteLength" : 5232,
            "byteOffset" : 299240
        },
        {
            "buffer" : 0,
            "byteLength" : 5232,
            "byteOffset" : 304472
        },
        {
            "buffer" : 0,
            "byteLength" : 3488,
            "byteOffset" : 309704
        },
        {
            "buffer" : 0,
            "byteLength" : 3408,
            "byteOffset" : 313192
        }
    ],
    "samplers" : [
        {
            "magFilter" : 9729,
            "minFilter" : 9987
        }
    ],
    "buffers" : [
        {
            "byteLength" : 316600,
            "uri" : "data:application/octet-stream;base64,"
        }
    ]
}
