{
    "asset" : {
        "copyright" : "Jeremy Edelblut",
        "generator" : "Khronos glTF Blender I/O v1.6.16",
        "version" : "2.0"
    },
    "scene" : 0,
    "scenes" : [
        {
            "name" : "Scene",
            "nodes" : [
                0,
                1
            ]
        }
    ],
    "nodes" : [
        {
            "mesh" : 0,
            "name" : "Circle.1933",
            "rotation" : [
                0.7071068286895752,
                0,
                0,
                0.7071068286895752
            ],
            "scale" : [
                0.7211152911186218,
                0.7211152911186218,
                0.7211152911186218
            ],
            "translation" : [
                0,
                -0.47924110293388367,
                0.05694745481014252
            ]
        },
        {
            "mesh" : 1,
            "name" : "Plane.146",
            "scale" : [
                0.7211152911186218,
                0.7211152911186218,
                0.7211152911186218
            ],
            "translation" : [
                0,
                -0.47924110293388367,
                0.05694745481014252
            ]
        }
    ],
    "materials" : [
        {
            "doubleSided" : true,
            "name" : "DKBrown",
            "pbrMetallicRoughness" : {
                "baseColorFactor" : [
                    0.010021701455116272,
                    0.0023923655971884727,
                    0.0018060366855934262,
                    1
                ],
                "metallicFactor" : 0,
                "roughnessFactor" : 0.5
            }
        },
        {
            "doubleSided" : true,
            "name" : "DKgray",
            "pbrMetallicRoughness" : {
                "baseColorFactor" : [
                    0.03682169318199158,
                    0.03446357324719429,
                    0.03740420565009117,
                    1
                ],
                "metallicFactor" : 0,
                "roughnessFactor" : 0.5
            }
        },
        {
            "doubleSided" : true,
            "name" : "white",
            "pbrMetallicRoughness" : {
                "baseColorFactor" : [
                    0.800000011920929,
                    0.800000011920929,
                    0.800000011920929,
                    1
                ],
                "metallicFactor" : 0,
                "roughnessFactor" : 0.5
            }
        },
        {
            "doubleSided" : true,
            "name" : "Pink",
            "pbrMetallicRoughness" : {
                "baseColorFactor" : [
                    0.8000000715255737,
                    0.07068260759115219,
                    0.3145071268081665,
                    1
                ],
                "metallicFactor" : 0,
                "roughnessFactor" : 0.5
            }
        }
    ],
    "meshes" : [
        {
            "name" : "Circle.2151",
            "primitives" : [
                {
                    "attributes" : {
                        "POSITION" : 0,
                        "NORMAL" : 1,
                        "TEXCOORD_0" : 2
                    },
                    "indices" : 3,
                    "material" : 0
                }
            ]
        },
        {
            "name" : "Plane.148",
            "primitives" : [
                {
                    "attributes" : {
                        "POSITION" : 4,
                        "NORMAL" : 5,
                        "TEXCOORD_0" : 6
                    },
                    "indices" : 7,
                    "material" : 1
                },
                {
                    "attributes" : {
                        "POSITION" : 8,
                        "NORMAL" : 9,
                        "TEXCOORD_0" : 10
                    },
                    "indices" : 11,
                    "material" : 2
                },
                {
                    "attributes" : {
                        "POSITION" : 12,
                        "NORMAL" : 13,
                        "TEXCOORD_0" : 14
                    },
                    "indices" : 15,
                    "material" : 3
                }
            ]
        }
    ],
    "accessors" : [
        {
            "bufferView" : 0,
            "componentType" : 5126,
            "count" : 752,
            "max" : [
                0.34000012278556824,
                1.003475546836853,
                -0.46481072902679443
            ],
            "min" : [
                -0.34000012278556824,
                0.8992672562599182,
                -0.5822081565856934
            ],
            "type" : "VEC3"
        },
        {
            "bufferView" : 1,
            "componentType" : 5126,
            "count" : 752,
            "type" : "VEC3"
        },
        {
            "bufferView" : 2,
            "componentType" : 5126,
            "count" : 752,
            "type" : "VEC2"
        },
        {
            "bufferView" : 3,
            "componentType" : 5123,
            "count" : 2880,
            "type" : "SCALAR"
        },
        {
            "bufferView" : 4,
            "componentType" : 5126,
            "count" : 924,
            "max" : [
                0.320000022649765,
                2.161447763442993,
                1.396199345588684
            ],
            "min" : [
                -0.320000022649765,
                -0.5590785145759583,
                -1.6274769306182861
            ],
            "type" : "VEC3"
        },
        {
            "bufferView" : 5,
            "componentType" : 5126,
            "count" : 924,
            "type" : "VEC3"
        },
        {
            "bufferView" : 6,
            "componentType" : 5126,
            "count" : 924,
            "type" : "VEC2"
        },
        {
            "bufferView" : 7,
            "componentType" : 5123,
            "count" : 2640,
            "type" : "SCALAR"
        },
        {
            "bufferView" : 8,
            "componentType" : 5126,
            "count" : 192,
            "max" : [
                0.1511799842119217,
                2.161447763442993,
                1.3315792083740234
            ],
            "min" : [
                -0.1511799842119217,
                0.378686785697937,
                -1.6274769306182861
            ],
            "type" : "VEC3"
        },
        {
            "bufferView" : 9,
            "componentType" : 5126,
            "count" : 192,
            "type" : "VEC3"
        },
        {
            "bufferView" : 10,
            "componentType" : 5126,
            "count" : 192,
            "type" : "VEC2"
        },
        {
            "bufferView" : 11,
            "componentType" : 5123,
            "count" : 522,
            "type" : "SCALAR"
        },
        {
            "bufferView" : 12,
            "componentType" : 5126,
            "count" : 10,
            "max" : [
                0.2894258201122284,
                0.8376563191413879,
                0.7598403692245483
            ],
            "min" : [
                -0.2894258201122284,
                0.7510669231414795,
                0.6443878412246704
            ],
            "type" : "VEC3"
        },
        {
            "bufferView" : 13,
            "componentType" : 5126,
            "count" : 10,
            "type" : "VEC3"
        },
        {
            "bufferView" : 14,
            "componentType" : 5126,
            "count" : 10,
            "type" : "VEC2"
        },
        {
            "bufferView" : 15,
            "componentType" : 5123,
            "count" : 18,
            "type" : "SCALAR"
        }
    ],
    "bufferViews" : [
        {
            "buffer" : 0,
            "byteLength" : 9024,
            "byteOffset" : 0
        },
        {
            "buffer" : 0,
            "byteLength" : 9024,
            "byteOffset" : 9024
        },
        {
            "buffer" : 0,
            "byteLength" : 6016,
            "byteOffset" : 18048
        },
        {
            "buffer" : 0,
            "byteLength" : 5760,
            "byteOffset" : 24064
        },
        {
            "buffer" : 0,
            "byteLength" : 11088,
            "byteOffset" : 29824
        },
        {
            "buffer" : 0,
            "byteLength" : 11088,
            "byteOffset" : 40912
        },
        {
            "buffer" : 0,
            "byteLength" : 7392,
            "byteOffset" : 52000
        },
        {
            "buffer" : 0,
            "byteLength" : 5280,
            "byteOffset" : 59392
        },
        {
            "buffer" : 0,
            "byteLength" : 2304,
            "byteOffset" : 64672
        },
        {
            "buffer" : 0,
            "byteLength" : 2304,
            "byteOffset" : 66976
        },
        {
            "buffer" : 0,
            "byteLength" : 1536,
            "byteOffset" : 69280
        },
        {
            "buffer" : 0,
            "byteLength" : 1044,
            "byteOffset" : 70816
        },
        {
            "buffer" : 0,
            "byteLength" : 120,
            "byteOffset" : 71860
        },
        {
            "buffer" : 0,
            "byteLength" : 120,
            "byteOffset" : 71980
        },
        {
            "buffer" : 0,
            "byteLength" : 80,
            "byteOffset" : 72100
        },
        {
            "buffer" : 0,
            "byteLength" : 36,
            "byteOffset" : 72180
        }
    ],
    "buffers" : [
        {
            "byteLength" : 72216,
            "uri" : "data:application/octet-stream;base64,"
        }
    ]
}
