{
    "asset" : {
        "copyright" : "Jeremy Edelblut",
        "generator" : "Khronos glTF Blender I/O v1.6.16",
        "version" : "2.0"
    },
    "scene" : 0,
    "scenes" : [
        {
            "name" : "Scene",
            "nodes" : [
                0
            ]
        }
    ],
    "nodes" : [
        {
            "mesh" : 0,
            "name" : "Plane.309",
            "rotation" : [
                0.3535533845424652,
                0.3535534143447876,
                0.1464466154575348,
                0.8535534143447876
            ],
            "scale" : [
                0.5553184151649475,
                0.5553184151649475,
                0.5553184151649475
            ],
            "translation" : [
                0.4300227761268616,
                0.31702709197998047,
                -0.11541708558797836
            ]
        }
    ],
    "materials" : [
        {
            "doubleSided" : true,
            "name" : "Color",
            "pbrMetallicRoughness" : {
                "baseColorTexture" : {
                    "index" : 0
                },
                "metallicFactor" : 0,
                "roughnessFactor" : 0.5
            }
        }
    ],
    "meshes" : [
        {
            "name" : "Plane.260",
            "primitives" : [
                {
                    "attributes" : {
                        "POSITION" : 0,
                        "NORMAL" : 1,
                        "TEXCOORD_0" : 2
                    },
                    "indices" : 3,
                    "material" : 0
                }
            ]
        }
    ],
    "textures" : [
        {
            "sampler" : 0,
            "source" : 0
        }
    ],
    "images" : [
        {
            "bufferView" : 4,
            "mimeType" : "image/png",
            "name" : "tex"
        }
    ],
    "accessors" : [
        {
            "bufferView" : 0,
            "componentType" : 5126,
            "count" : 1086,
            "max" : [
                1,
                0.8003582954406738,
                1
            ],
            "min" : [
                -2.9000000953674316,
                -0.49024420976638794,
                -1
            ],
            "type" : "VEC3"
        },
        {
            "bufferView" : 1,
            "componentType" : 5126,
            "count" : 1086,
            "type" : "VEC3"
        },
        {
            "bufferView" : 2,
            "componentType" : 5126,
            "count" : 1086,
            "type" : "VEC2"
        },
        {
            "bufferView" : 3,
            "componentType" : 5123,
            "count" : 2616,
            "type" : "SCALAR"
        }
    ],
    "bufferViews" : [
        {
            "buffer" : 0,
            "byteLength" : 13032,
            "byteOffset" : 0
        },
        {
            "buffer" : 0,
            "byteLength" : 13032,
            "byteOffset" : 13032
        },
        {
            "buffer" : 0,
            "byteLength" : 8688,
            "byteOffset" : 26064
        },
        {
            "buffer" : 0,
            "byteLength" : 5232,
            "byteOffset" : 34752
        },
        {
            "buffer" : 0,
            "byteLength" : 3214,
            "byteOffset" : 39984
        }
    ],
    "samplers" : [
        {
            "magFilter" : 9729,
            "minFilter" : 9987
        }
    ],
    "buffers" : [
        {
            "byteLength" : 43200,
            "uri" : "data:application/octet-stream;base64,"
        }
    ]
}
