{
    "asset" : {
        "copyright" : "Jeremy Edelblut",
        "generator" : "Khronos glTF Blender I/O v1.6.16",
        "version" : "2.0"
    },
    "scene" : 0,
    "scenes" : [
        {
            "name" : "Scene",
            "nodes" : [
                0,
                1,
                2,
                3,
                4,
                5
            ]
        }
    ],
    "nodes" : [
        {
            "mesh" : 0,
            "name" : "Circle.1930",
            "rotation" : [
                0.6973077058792114,
                0.41011932492256165,
                -0.11731141805648804,
                0.5760226845741272
            ],
            "scale" : [
                0.5522677302360535,
                0.5522676706314087,
                0.5522676706314087
            ],
            "translation" : [
                -0.3228379786014557,
                -0.04517670348286629,
                0.7325707077980042
            ]
        },
        {
            "mesh" : 1,
            "name" : "Circle.1931",
            "rotation" : [
                0.6973077058792114,
                0.41011932492256165,
                -0.11731141805648804,
                0.5760226845741272
            ],
            "scale" : [
                0.5522677302360535,
                0.5522676706314087,
                0.5522676706314087
            ],
            "translation" : [
                -0.3228379786014557,
                -0.04517670348286629,
                0.7325707077980042
            ]
        },
        {
            "mesh" : 2,
            "name" : "Cube.6271",
            "rotation" : [
                0.36847344040870667,
                0.225393146276474,
                -0.8984963297843933,
                0.07829192280769348
            ],
            "scale" : [
                0.04806656762957573,
                0.07253696769475937,
                0.10909385234117508
            ],
            "translation" : [
                -0.24563799798488617,
                -0.0008402485400438309,
                0.8367576599121094
            ]
        },
        {
            "mesh" : 3,
            "name" : "Cube.6272",
            "rotation" : [
                0,
                -0.3826834559440613,
                0,
                0.9238795042037964
            ],
            "scale" : [
                0.5522676110267639,
                0.5522676110267639,
                0.5522676110267639
            ],
            "translation" : [
                0.16251496970653534,
                -0.3422441780567169,
                0
            ]
        },
        {
            "mesh" : 4,
            "name" : "Plane.144",
            "rotation" : [
                0,
                -0.3826834559440613,
                0,
                0.9238795042037964
            ],
            "scale" : [
                0.5522676110267639,
                0.5522676110267639,
                0.5522676110267639
            ],
            "translation" : [
                0.16251496970653534,
                -0.3422441780567169,
                0
            ]
        },
        {
            "mesh" : 5,
            "name" : "3moji.org.239",
            "rotation" : [
                -0.5579113364219666,
                0.7364022135734558,
                0.2310941219329834,
                -0.3050284683704376
            ],
            "scale" : [
                0.004065318964421749,
                0.004065319430083036,
                0.004065319895744324
            ],
            "translation" : [
                -0.09636002033948898,
                -0.1335667222738266,
                0.2588750123977661
            ]
        }
    ],
    "materials" : [
        {
            "doubleSided" : true,
            "name" : "DKBrown",
            "pbrMetallicRoughness" : {
                "baseColorFactor" : [
                    0.010021701455116272,
                    0.0023923655971884727,
                    0.0018060366855934262,
                    1
                ],
                "metallicFactor" : 0,
                "roughnessFactor" : 0.5
            }
        },
        {
            "doubleSided" : true,
            "name" : "DKgray",
            "pbrMetallicRoughness" : {
                "baseColorFactor" : [
                    0.03682169318199158,
                    0.03446357324719429,
                    0.03740420565009117,
                    1
                ],
                "metallicFactor" : 0,
                "roughnessFactor" : 0.5
            }
        },
        {
            "doubleSided" : true,
            "name" : "Brown",
            "pbrMetallicRoughness" : {
                "baseColorFactor" : [
                    0.07322511821985245,
                    0.02384052984416485,
                    0.021921303123235703,
                    1
                ],
                "metallicFactor" : 0,
                "roughnessFactor" : 0.5
            }
        },
        {
            "doubleSided" : true,
            "name" : "Light_Brown",
            "pbrMetallicRoughness" : {
                "baseColorFactor" : [
                    0.3613067865371704,
                    0.15896087884902954,
                    0.013702086172997952,
                    1
                ],
                "metallicFactor" : 0,
                "roughnessFactor" : 0.5
            }
        },
        {
            "doubleSided" : true,
            "name" : "Color",
            "pbrMetallicRoughness" : {
                "baseColorTexture" : {
                    "index" : 0
                },
                "metallicFactor" : 0,
                "roughnessFactor" : 0.5
            }
        }
    ],
    "meshes" : [
        {
            "name" : "Circle.2148",
            "primitives" : [
                {
                    "attributes" : {
                        "POSITION" : 0,
                        "NORMAL" : 1,
                        "TEXCOORD_0" : 2
                    },
                    "indices" : 3,
                    "material" : 0
                }
            ]
        },
        {
            "name" : "Circle.2149",
            "primitives" : [
                {
                    "attributes" : {
                        "POSITION" : 4,
                        "NORMAL" : 5,
                        "TEXCOORD_0" : 6
                    },
                    "indices" : 7,
                    "material" : 1
                }
            ]
        },
        {
            "name" : "Cube.7331",
            "primitives" : [
                {
                    "attributes" : {
                        "POSITION" : 8,
                        "NORMAL" : 9,
                        "TEXCOORD_0" : 10
                    },
                    "indices" : 11,
                    "material" : 0
                }
            ]
        },
        {
            "name" : "Cube.7332",
            "primitives" : [
                {
                    "attributes" : {
                        "POSITION" : 12,
                        "NORMAL" : 13,
                        "TEXCOORD_0" : 14
                    },
                    "indices" : 15,
                    "material" : 2
                }
            ]
        },
        {
            "name" : "Plane.144",
            "primitives" : [
                {
                    "attributes" : {
                        "POSITION" : 16,
                        "NORMAL" : 17,
                        "TEXCOORD_0" : 18
                    },
                    "indices" : 19,
                    "material" : 3
                },
                {
                    "attributes" : {
                        "POSITION" : 20,
                        "NORMAL" : 21,
                        "TEXCOORD_0" : 22
                    },
                    "indices" : 23,
                    "material" : 4
                },
                {
                    "attributes" : {
                        "POSITION" : 24,
                        "NORMAL" : 25,
                        "TEXCOORD_0" : 26
                    },
                    "indices" : 27,
                    "material" : 1
                }
            ]
        },
        {
            "name" : "Cube.703",
            "primitives" : [
                {
                    "attributes" : {
                        "POSITION" : 28,
                        "NORMAL" : 29,
                        "TEXCOORD_0" : 30
                    },
                    "indices" : 31,
                    "material" : 4
                }
            ]
        }
    ],
    "textures" : [
        {
            "sampler" : 0,
            "source" : 0
        }
    ],
    "images" : [
        {
            "bufferView" : 24,
            "mimeType" : "image/png",
            "name" : "tex2"
        }
    ],
    "accessors" : [
        {
            "bufferView" : 0,
            "componentType" : 5126,
            "count" : 752,
            "max" : [
                0.4251071512699127,
                0.2718738317489624,
                -0.1807871162891388
            ],
            "min" : [
                -0.4251071512699127,
                0.251873642206192,
                -0.3461281955242157
            ],
            "type" : "VEC3"
        },
        {
            "bufferView" : 1,
            "componentType" : 5126,
            "count" : 752,
            "type" : "VEC3"
        },
        {
            "bufferView" : 2,
            "componentType" : 5126,
            "count" : 752,
            "type" : "VEC2"
        },
        {
            "bufferView" : 3,
            "componentType" : 5123,
            "count" : 2880,
            "type" : "SCALAR"
        },
        {
            "bufferView" : 4,
            "componentType" : 5126,
            "count" : 752,
            "max" : [
                0.6413458585739136,
                0.2618737518787384,
                -0.009565853513777256
            ],
            "min" : [
                -0.6413458585739136,
                0.25187355279922485,
                -0.4756498336791992
            ],
            "type" : "VEC3"
        },
        {
            "bufferView" : 5,
            "componentType" : 5126,
            "count" : 752,
            "type" : "VEC3"
        },
        {
            "bufferView" : 6,
            "componentType" : 5126,
            "count" : 752,
            "type" : "VEC2"
        },
        {
            "bufferView" : 7,
            "componentType" : 5123,
            "count" : 2880,
            "type" : "SCALAR"
        },
        {
            "bufferView" : 8,
            "componentType" : 5126,
            "count" : 441,
            "max" : [
                0.8395062685012817,
                0.8395062685012817,
                0.8395062685012817
            ],
            "min" : [
                -0.8395062685012817,
                -0.8395062685012817,
                -0.8395062685012817
            ],
            "type" : "VEC3"
        },
        {
            "bufferView" : 9,
            "componentType" : 5126,
            "count" : 441,
            "type" : "VEC3"
        },
        {
            "bufferView" : 10,
            "componentType" : 5126,
            "count" : 441,
            "type" : "VEC2"
        },
        {
            "bufferView" : 11,
            "componentType" : 5123,
            "count" : 2304,
            "type" : "SCALAR"
        },
        {
            "bufferView" : 12,
            "componentType" : 5126,
            "count" : 120,
            "max" : [
                0.17360419034957886,
                2.442002296447754,
                2.509338855743408
            ],
            "min" : [
                -0.17360419034957886,
                0.7739973068237305,
                -2.5639443397521973
            ],
            "type" : "VEC3"
        },
        {
            "bufferView" : 13,
            "componentType" : 5126,
            "count" : 120,
            "type" : "VEC3"
        },
        {
            "bufferView" : 14,
            "componentType" : 5126,
            "count" : 120,
            "type" : "VEC2"
        },
        {
            "bufferView" : 15,
            "componentType" : 5123,
            "count" : 180,
            "type" : "SCALAR"
        },
        {
            "bufferView" : 16,
            "componentType" : 5126,
            "count" : 334,
            "max" : [
                0.5,
                1.892853856086731,
                2.425774574279785
            ],
            "min" : [
                -0.5,
                -1.3706941604614258,
                -1.5303105115890503
            ],
            "type" : "VEC3"
        },
        {
            "bufferView" : 17,
            "componentType" : 5126,
            "count" : 334,
            "type" : "VEC3"
        },
        {
            "bufferView" : 18,
            "componentType" : 5126,
            "count" : 334,
            "type" : "VEC2"
        },
        {
            "bufferView" : 19,
            "componentType" : 5123,
            "count" : 1032,
            "type" : "SCALAR"
        },
        {
            "bufferView" : 20,
            "componentType" : 5126,
            "count" : 188,
            "max" : [
                0.5684038400650024,
                1.277739405632019,
                2.273653507232666
            ],
            "min" : [
                -0.5,
                0.07798703759908676,
                -1.5217938423156738
            ],
            "type" : "VEC3"
        },
        {
            "bufferView" : 21,
            "componentType" : 5126,
            "count" : 188,
            "type" : "VEC3"
        },
        {
            "bufferView" : 22,
            "componentType" : 5126,
            "count" : 188,
            "type" : "VEC2"
        },
        {
            "bufferView" : 23,
            "componentType" : 5123,
            "count" : 636,
            "type" : "SCALAR"
        },
        {
            "bufferView" : 25,
            "componentType" : 5126,
            "count" : 152,
            "max" : [
                0.5,
                2.0634055137634277,
                0.6764659285545349
            ],
            "min" : [
                -0.5,
                1.5327837467193604,
                -0.9127227663993835
            ],
            "type" : "VEC3"
        },
        {
            "bufferView" : 26,
            "componentType" : 5126,
            "count" : 152,
            "type" : "VEC3"
        },
        {
            "bufferView" : 27,
            "componentType" : 5126,
            "count" : 152,
            "type" : "VEC2"
        },
        {
            "bufferView" : 28,
            "componentType" : 5123,
            "count" : 360,
            "type" : "SCALAR"
        },
        {
            "bufferView" : 29,
            "componentType" : 5126,
            "count" : 752,
            "max" : [
                1.2953357696533203,
                7.90000057220459,
                17.240537643432617
            ],
            "min" : [
                2.8697024390567094e-05,
                -1.8999989032745361,
                -19.159460067749023
            ],
            "type" : "VEC3"
        },
        {
            "bufferView" : 30,
            "componentType" : 5126,
            "count" : 752,
            "type" : "VEC3"
        },
        {
            "bufferView" : 31,
            "componentType" : 5126,
            "count" : 752,
            "type" : "VEC2"
        },
        {
            "bufferView" : 32,
            "componentType" : 5123,
            "count" : 1680,
            "type" : "SCALAR"
        }
    ],
    "bufferViews" : [
        {
            "buffer" : 0,
            "byteLength" : 9024,
            "byteOffset" : 0
        },
        {
            "buffer" : 0,
            "byteLength" : 9024,
            "byteOffset" : 9024
        },
        {
            "buffer" : 0,
            "byteLength" : 6016,
            "byteOffset" : 18048
        },
        {
            "buffer" : 0,
            "byteLength" : 5760,
            "byteOffset" : 24064
        },
        {
            "buffer" : 0,
            "byteLength" : 9024,
            "byteOffset" : 29824
        },
        {
            "buffer" : 0,
            "byteLength" : 9024,
            "byteOffset" : 38848
        },
        {
            "buffer" : 0,
            "byteLength" : 6016,
            "byteOffset" : 47872
        },
        {
            "buffer" : 0,
            "byteLength" : 5760,
            "byteOffset" : 53888
        },
        {
            "buffer" : 0,
            "byteLength" : 5292,
            "byteOffset" : 59648
        },
        {
            "buffer" : 0,
            "byteLength" : 5292,
            "byteOffset" : 64940
        },
        {
            "buffer" : 0,
            "byteLength" : 3528,
            "byteOffset" : 70232
        },
        {
            "buffer" : 0,
            "byteLength" : 4608,
            "byteOffset" : 73760
        },
        {
            "buffer" : 0,
            "byteLength" : 1440,
            "byteOffset" : 78368
        },
        {
            "buffer" : 0,
            "byteLength" : 1440,
            "byteOffset" : 79808
        },
        {
            "buffer" : 0,
            "byteLength" : 960,
            "byteOffset" : 81248
        },
        {
            "buffer" : 0,
            "byteLength" : 360,
            "byteOffset" : 82208
        },
        {
            "buffer" : 0,
            "byteLength" : 4008,
            "byteOffset" : 82568
        },
        {
            "buffer" : 0,
            "byteLength" : 4008,
            "byteOffset" : 86576
        },
        {
            "buffer" : 0,
            "byteLength" : 2672,
            "byteOffset" : 90584
        },
        {
            "buffer" : 0,
            "byteLength" : 2064,
            "byteOffset" : 93256
        },
        {
            "buffer" : 0,
            "byteLength" : 2256,
            "byteOffset" : 95320
        },
        {
            "buffer" : 0,
            "byteLength" : 2256,
            "byteOffset" : 97576
        },
        {
            "buffer" : 0,
            "byteLength" : 1504,
            "byteOffset" : 99832
        },
        {
            "buffer" : 0,
            "byteLength" : 1272,
            "byteOffset" : 101336
        },
        {
            "buffer" : 0,
            "byteLength" : 6474,
            "byteOffset" : 102608
        },
        {
            "buffer" : 0,
            "byteLength" : 1824,
            "byteOffset" : 109084
        },
        {
            "buffer" : 0,
            "byteLength" : 1824,
            "byteOffset" : 110908
        },
        {
            "buffer" : 0,
            "byteLength" : 1216,
            "byteOffset" : 112732
        },
        {
            "buffer" : 0,
            "byteLength" : 720,
            "byteOffset" : 113948
        },
        {
            "buffer" : 0,
            "byteLength" : 9024,
            "byteOffset" : 114668
        },
        {
            "buffer" : 0,
            "byteLength" : 9024,
            "byteOffset" : 123692
        },
        {
            "buffer" : 0,
            "byteLength" : 6016,
            "byteOffset" : 132716
        },
        {
            "buffer" : 0,
            "byteLength" : 3360,
            "byteOffset" : 138732
        }
    ],
    "samplers" : [
        {
            "magFilter" : 9729,
            "minFilter" : 9987
        }
    ],
    "buffers" : [
        {
            "byteLength" : 142092,
            "uri" : "data:application/octet-stream;base64,"
        }
    ]
}
