{
    "asset" : {
        "copyright" : "Jeremy Edelblut",
        "generator" : "Khronos glTF Blender I/O v1.6.16",
        "version" : "2.0"
    },
    "scene" : 0,
    "scenes" : [
        {
            "name" : "Scene",
            "nodes" : [
                0,
                1,
                2,
                3,
                4,
                5,
                6,
                7
            ]
        }
    ],
    "nodes" : [
        {
            "mesh" : 0,
            "name" : "Circle.2134",
            "rotation" : [
                -0.06259871274232864,
                -0.7043305039405823,
                0.06259871274232864,
                0.7043304443359375
            ],
            "scale" : [
                0.5078262090682983,
                0.5078262090682983,
                0.5078262090682983
            ],
            "translation" : [
                0,
                0.4064686596393585,
                -0.04645445942878723
            ]
        },
        {
            "mesh" : 1,
            "name" : "Circle.2135",
            "rotation" : [
                0.4917195439338684,
                -0.44557881355285645,
                -0.5684531331062317,
                0.4863460063934326
            ],
            "scale" : [
                0.05999999865889549,
                0.05999999865889549,
                0.05999999865889549
            ],
            "translation" : [
                0,
                0.13437116146087646,
                0.3235916793346405
            ]
        },
        {
            "mesh" : 2,
            "name" : "Circle.2136",
            "rotation" : [
                0,
                -0.7071068286895752,
                0,
                0.7071068286895752
            ],
            "scale" : [
                0.2797086238861084,
                0.2797086238861084,
                0.2797086238861084
            ],
            "translation" : [
                0,
                -0.1358811855316162,
                0
            ]
        },
        {
            "mesh" : 3,
            "name" : "Cube.219",
            "rotation" : [
                0,
                -0.7071068286895752,
                0,
                0.7071068286895752
            ],
            "scale" : [
                0.6240000128746033,
                0.6240000128746033,
                0.6240000128746033
            ],
            "translation" : [
                0,
                -0.593908965587616,
                0
            ]
        },
        {
            "mesh" : 4,
            "name" : "Cube.220",
            "rotation" : [
                0,
                -0.7071068286895752,
                0,
                0.7071068286895752
            ],
            "scale" : [
                0.4320000410079956,
                0.4320000410079956,
                0.4320000410079956
            ],
            "translation" : [
                0,
                0.17928355932235718,
                0
            ]
        },
        {
            "mesh" : 5,
            "name" : "Cube.221",
            "rotation" : [
                0,
                -0.7071068286895752,
                0,
                0.7071068286895752
            ],
            "translation" : [
                0,
                -0.1358811855316162,
                0
            ]
        },
        {
            "mesh" : 6,
            "name" : "Cube.222",
            "rotation" : [
                0,
                -0.7071068286895752,
                0,
                0.7071068286895752
            ],
            "translation" : [
                0,
                -0.23588120937347412,
                0
            ]
        },
        {
            "mesh" : 7,
            "name" : "Cube.223",
            "rotation" : [
                0,
                -0.7071068286895752,
                0,
                0.7071068286895752
            ],
            "translation" : [
                0,
                -0.1358811855316162,
                0
            ]
        }
    ],
    "materials" : [
        {
            "doubleSided" : true,
            "name" : "Color",
            "pbrMetallicRoughness" : {
                "baseColorTexture" : {
                    "index" : 0
                },
                "metallicFactor" : 0,
                "roughnessFactor" : 0.5
            }
        }
    ],
    "meshes" : [
        {
            "name" : "Circle.2522",
            "primitives" : [
                {
                    "attributes" : {
                        "POSITION" : 0,
                        "NORMAL" : 1,
                        "TEXCOORD_0" : 2
                    },
                    "indices" : 3,
                    "material" : 0
                }
            ]
        },
        {
            "name" : "Circle.2523",
            "primitives" : [
                {
                    "attributes" : {
                        "POSITION" : 4,
                        "NORMAL" : 5,
                        "TEXCOORD_0" : 6
                    },
                    "indices" : 7,
                    "material" : 0
                }
            ]
        },
        {
            "name" : "Circle.2524",
            "primitives" : [
                {
                    "attributes" : {
                        "POSITION" : 8,
                        "NORMAL" : 9,
                        "TEXCOORD_0" : 10
                    },
                    "indices" : 11,
                    "material" : 0
                }
            ]
        },
        {
            "name" : "Cube.322",
            "primitives" : [
                {
                    "attributes" : {
                        "POSITION" : 12,
                        "NORMAL" : 13,
                        "TEXCOORD_0" : 14
                    },
                    "indices" : 15
                }
            ]
        },
        {
            "name" : "Cube.331",
            "primitives" : [
                {
                    "attributes" : {
                        "POSITION" : 16,
                        "NORMAL" : 17,
                        "TEXCOORD_0" : 18
                    },
                    "indices" : 15
                }
            ]
        },
        {
            "name" : "Cube.337",
            "primitives" : [
                {
                    "attributes" : {
                        "POSITION" : 19,
                        "NORMAL" : 20,
                        "TEXCOORD_0" : 21
                    },
                    "indices" : 22,
                    "material" : 0
                }
            ]
        },
        {
            "name" : "Cube.339",
            "primitives" : [
                {
                    "attributes" : {
                        "POSITION" : 23,
                        "NORMAL" : 24,
                        "TEXCOORD_0" : 25
                    },
                    "indices" : 26,
                    "material" : 0
                }
            ]
        },
        {
            "name" : "Cube.340",
            "primitives" : [
                {
                    "attributes" : {
                        "POSITION" : 27,
                        "NORMAL" : 28,
                        "TEXCOORD_0" : 29
                    },
                    "indices" : 30,
                    "material" : 0
                }
            ]
        }
    ],
    "textures" : [
        {
            "sampler" : 0,
            "source" : 0
        }
    ],
    "images" : [
        {
            "bufferView" : 4,
            "mimeType" : "image/png",
            "name" : "tex"
        }
    ],
    "accessors" : [
        {
            "bufferView" : 0,
            "componentType" : 5126,
            "count" : 480,
            "max" : [
                1,
                1.1067370176315308,
                1
            ],
            "min" : [
                -1,
                0,
                -1
            ],
            "type" : "VEC3"
        },
        {
            "bufferView" : 1,
            "componentType" : 5126,
            "count" : 480,
            "type" : "VEC3"
        },
        {
            "bufferView" : 2,
            "componentType" : 5126,
            "count" : 480,
            "type" : "VEC2"
        },
        {
            "bufferView" : 3,
            "componentType" : 5123,
            "count" : 1434,
            "type" : "SCALAR"
        },
        {
            "bufferView" : 5,
            "componentType" : 5126,
            "count" : 385,
            "max" : [
                1,
                4.893578052520752,
                1
            ],
            "min" : [
                -1,
                0,
                -1
            ],
            "type" : "VEC3"
        },
        {
            "bufferView" : 6,
            "componentType" : 5126,
            "count" : 385,
            "type" : "VEC3"
        },
        {
            "bufferView" : 7,
            "componentType" : 5126,
            "count" : 385,
            "type" : "VEC2"
        },
        {
            "bufferView" : 8,
            "componentType" : 5123,
            "count" : 1968,
            "type" : "SCALAR"
        },
        {
            "bufferView" : 9,
            "componentType" : 5126,
            "count" : 152,
            "max" : [
                1.6390103101730347,
                0.36155298352241516,
                1.1977797746658325
            ],
            "min" : [
                -1.1977797746658325,
                -0.7437694072723389,
                -1.1977797746658325
            ],
            "type" : "VEC3"
        },
        {
            "bufferView" : 10,
            "componentType" : 5126,
            "count" : 152,
            "type" : "VEC3"
        },
        {
            "bufferView" : 11,
            "componentType" : 5126,
            "count" : 152,
            "type" : "VEC2"
        },
        {
            "bufferView" : 12,
            "componentType" : 5123,
            "count" : 420,
            "type" : "SCALAR"
        },
        {
            "bufferView" : 13,
            "componentType" : 5126,
            "count" : 441,
            "max" : [
                0.8395062685012817,
                0.8395062685012817,
                0.8395062685012817
            ],
            "min" : [
                -0.8395062685012817,
                -0.5881908535957336,
                -0.8395062685012817
            ],
            "type" : "VEC3"
        },
        {
            "bufferView" : 14,
            "componentType" : 5126,
            "count" : 441,
            "type" : "VEC3"
        },
        {
            "bufferView" : 15,
            "componentType" : 5126,
            "count" : 441,
            "type" : "VEC2"
        },
        {
            "bufferView" : 16,
            "componentType" : 5123,
            "count" : 2304,
            "type" : "SCALAR"
        },
        {
            "bufferView" : 17,
            "componentType" : 5126,
            "count" : 441,
            "max" : [
                0.8395062685012817,
                0.7909436821937561,
                0.8395062685012817
            ],
            "min" : [
                -0.8395062685012817,
                -0.7909436821937561,
                -0.8395062685012817
            ],
            "type" : "VEC3"
        },
        {
            "bufferView" : 18,
            "componentType" : 5126,
            "count" : 441,
            "type" : "VEC3"
        },
        {
            "bufferView" : 19,
            "componentType" : 5126,
            "count" : 441,
            "type" : "VEC2"
        },
        {
            "bufferView" : 20,
            "componentType" : 5126,
            "count" : 784,
            "max" : [
                0.3632166087627411,
                0.4244770109653473,
                0.21814024448394775
            ],
            "min" : [
                0.27258872985839844,
                0.10584771633148193,
                -0.21814024448394775
            ],
            "type" : "VEC3"
        },
        {
            "bufferView" : 21,
            "componentType" : 5126,
            "count" : 784,
            "type" : "VEC3"
        },
        {
            "bufferView" : 22,
            "componentType" : 5126,
            "count" : 784,
            "type" : "VEC2"
        },
        {
            "bufferView" : 23,
            "componentType" : 5123,
            "count" : 4608,
            "type" : "SCALAR"
        },
        {
            "bufferView" : 24,
            "componentType" : 5126,
            "count" : 272,
            "max" : [
                0.02341657690703869,
                0.40872707962989807,
                0.8096247911453247
            ],
            "min" : [
                -0.02341657690703869,
                -0.04962489381432533,
                -0.8096247911453247
            ],
            "type" : "VEC3"
        },
        {
            "bufferView" : 25,
            "componentType" : 5126,
            "count" : 272,
            "type" : "VEC3"
        },
        {
            "bufferView" : 26,
            "componentType" : 5126,
            "count" : 272,
            "type" : "VEC2"
        },
        {
            "bufferView" : 27,
            "componentType" : 5123,
            "count" : 408,
            "type" : "SCALAR"
        },
        {
            "bufferView" : 28,
            "componentType" : 5126,
            "count" : 294,
            "max" : [
                0.532525897026062,
                -0.03417844697833061,
                0.04588630050420761
            ],
            "min" : [
                0.32345399260520935,
                -0.39418813586235046,
                -0.04481356218457222
            ],
            "type" : "VEC3"
        },
        {
            "bufferView" : 29,
            "componentType" : 5126,
            "count" : 294,
            "type" : "VEC3"
        },
        {
            "bufferView" : 30,
            "componentType" : 5126,
            "count" : 294,
            "type" : "VEC2"
        },
        {
            "bufferView" : 31,
            "componentType" : 5123,
            "count" : 1728,
            "type" : "SCALAR"
        }
    ],
    "bufferViews" : [
        {
            "buffer" : 0,
            "byteLength" : 5760,
            "byteOffset" : 0
        },
        {
            "buffer" : 0,
            "byteLength" : 5760,
            "byteOffset" : 5760
        },
        {
            "buffer" : 0,
            "byteLength" : 3840,
            "byteOffset" : 11520
        },
        {
            "buffer" : 0,
            "byteLength" : 2868,
            "byteOffset" : 15360
        },
        {
            "buffer" : 0,
            "byteLength" : 1322,
            "byteOffset" : 18228
        },
        {
            "buffer" : 0,
            "byteLength" : 4620,
            "byteOffset" : 19552
        },
        {
            "buffer" : 0,
            "byteLength" : 4620,
            "byteOffset" : 24172
        },
        {
            "buffer" : 0,
            "byteLength" : 3080,
            "byteOffset" : 28792
        },
        {
            "buffer" : 0,
            "byteLength" : 3936,
            "byteOffset" : 31872
        },
        {
            "buffer" : 0,
            "byteLength" : 1824,
            "byteOffset" : 35808
        },
        {
            "buffer" : 0,
            "byteLength" : 1824,
            "byteOffset" : 37632
        },
        {
            "buffer" : 0,
            "byteLength" : 1216,
            "byteOffset" : 39456
        },
        {
            "buffer" : 0,
            "byteLength" : 840,
            "byteOffset" : 40672
        },
        {
            "buffer" : 0,
            "byteLength" : 5292,
            "byteOffset" : 41512
        },
        {
            "buffer" : 0,
            "byteLength" : 5292,
            "byteOffset" : 46804
        },
        {
            "buffer" : 0,
            "byteLength" : 3528,
            "byteOffset" : 52096
        },
        {
            "buffer" : 0,
            "byteLength" : 4608,
            "byteOffset" : 55624
        },
        {
            "buffer" : 0,
            "byteLength" : 5292,
            "byteOffset" : 60232
        },
        {
            "buffer" : 0,
            "byteLength" : 5292,
            "byteOffset" : 65524
        },
        {
            "buffer" : 0,
            "byteLength" : 3528,
            "byteOffset" : 70816
        },
        {
            "buffer" : 0,
            "byteLength" : 9408,
            "byteOffset" : 74344
        },
        {
            "buffer" : 0,
            "byteLength" : 9408,
            "byteOffset" : 83752
        },
        {
            "buffer" : 0,
            "byteLength" : 6272,
            "byteOffset" : 93160
        },
        {
            "buffer" : 0,
            "byteLength" : 9216,
            "byteOffset" : 99432
        },
        {
            "buffer" : 0,
            "byteLength" : 3264,
            "byteOffset" : 108648
        },
        {
            "buffer" : 0,
            "byteLength" : 3264,
            "byteOffset" : 111912
        },
        {
            "buffer" : 0,
            "byteLength" : 2176,
            "byteOffset" : 115176
        },
        {
            "buffer" : 0,
            "byteLength" : 816,
            "byteOffset" : 117352
        },
        {
            "buffer" : 0,
            "byteLength" : 3528,
            "byteOffset" : 118168
        },
        {
            "buffer" : 0,
            "byteLength" : 3528,
            "byteOffset" : 121696
        },
        {
            "buffer" : 0,
            "byteLength" : 2352,
            "byteOffset" : 125224
        },
        {
            "buffer" : 0,
            "byteLength" : 3456,
            "byteOffset" : 127576
        }
    ],
    "samplers" : [
        {
            "magFilter" : 9729,
            "minFilter" : 9987
        }
    ],
    "buffers" : [
        {
            "byteLength" : 131032,
            "uri" : "data:application/octet-stream;base64,"
        }
    ]
}
