{
    "asset" : {
        "copyright" : "Jeremy Edelblut",
        "generator" : "Khronos glTF Blender I/O v1.6.16",
        "version" : "2.0"
    },
    "scene" : 0,
    "scenes" : [
        {
            "name" : "Scene",
            "nodes" : [
                0
            ]
        }
    ],
    "nodes" : [
        {
            "mesh" : 0,
            "name" : "Cube.848",
            "rotation" : [
                -0.09366920590400696,
                -0.46003222465515137,
                0.17616614699363708,
                0.8651947379112244
            ],
            "scale" : [
                0.5431441068649292,
                0.5431441068649292,
                0.5431440472602844
            ],
            "translation" : [
                0,
                0.22710107266902924,
                0
            ]
        }
    ],
    "materials" : [
        {
            "doubleSided" : true,
            "name" : "Color",
            "pbrMetallicRoughness" : {
                "baseColorTexture" : {
                    "index" : 0
                },
                "metallicFactor" : 0,
                "roughnessFactor" : 0.5
            }
        }
    ],
    "meshes" : [
        {
            "name" : "Cube.7730",
            "primitives" : [
                {
                    "attributes" : {
                        "POSITION" : 0,
                        "NORMAL" : 1,
                        "TEXCOORD_0" : 2
                    },
                    "indices" : 3,
                    "material" : 0
                }
            ]
        }
    ],
    "textures" : [
        {
            "sampler" : 0,
            "source" : 0
        }
    ],
    "images" : [
        {
            "bufferView" : 4,
            "mimeType" : "image/png",
            "name" : "tex2"
        }
    ],
    "accessors" : [
        {
            "bufferView" : 0,
            "componentType" : 5126,
            "count" : 3713,
            "max" : [
                1.0201241970062256,
                1.5535613298416138,
                1.5763683319091797
            ],
            "min" : [
                -2.3375613689422607,
                -2.7035114765167236,
                -1.5763683319091797
            ],
            "type" : "VEC3"
        },
        {
            "bufferView" : 1,
            "componentType" : 5126,
            "count" : 3713,
            "type" : "VEC3"
        },
        {
            "bufferView" : 2,
            "componentType" : 5126,
            "count" : 3713,
            "type" : "VEC2"
        },
        {
            "bufferView" : 3,
            "componentType" : 5123,
            "count" : 12903,
            "type" : "SCALAR"
        }
    ],
    "bufferViews" : [
        {
            "buffer" : 0,
            "byteLength" : 44556,
            "byteOffset" : 0
        },
        {
            "buffer" : 0,
            "byteLength" : 44556,
            "byteOffset" : 44556
        },
        {
            "buffer" : 0,
            "byteLength" : 29704,
            "byteOffset" : 89112
        },
        {
            "buffer" : 0,
            "byteLength" : 25806,
            "byteOffset" : 118816
        },
        {
            "buffer" : 0,
            "byteLength" : 6474,
            "byteOffset" : 144624
        }
    ],
    "samplers" : [
        {
            "magFilter" : 9729,
            "minFilter" : 9987
        }
    ],
    "buffers" : [
        {
            "byteLength" : 151100,
            "uri" : "data:application/octet-stream;base64,"
        }
    ]
}
