{
    "asset" : {
        "copyright" : "Jeremy Edelblut",
        "generator" : "Khronos glTF Blender I/O v1.7.33",
        "version" : "2.0"
    },
    "scene" : 1,
    "scenes" : [
        {
            "name" : "FBX_Temp",
            "nodes" : [
                0
            ]
        },
        {
            "name" : "Scene",
            "nodes" : [
                1,
                2,
                3,
                4
            ]
        }
    ],
    "nodes" : [
        {
            "mesh" : 0,
            "name" : "3moji.064",
            "rotation" : [
                0,
                -0.7071068286895752,
                0,
                0.7071068286895752
            ]
        },
        {
            "mesh" : 1,
            "name" : "Cube.535"
        },
        {
            "mesh" : 2,
            "name" : "Cube.538"
        },
        {
            "mesh" : 3,
            "name" : "Cube.539"
        },
        {
            "mesh" : 4,
            "name" : "Cube.536"
        }
    ],
    "materials" : [
        {
            "doubleSided" : true,
            "name" : "color",
            "pbrMetallicRoughness" : {
                "baseColorTexture" : {
                    "index" : 0
                },
                "metallicFactor" : 0,
                "roughnessFactor" : 0.5
            }
        }
    ],
    "meshes" : [
        {
            "name" : "Cube.417",
            "primitives" : [
                {
                    "attributes" : {
                        "POSITION" : 0,
                        "NORMAL" : 1,
                        "TEXCOORD_0" : 2
                    },
                    "indices" : 3,
                    "material" : 0
                }
            ]
        },
        {
            "name" : "Cube.927",
            "primitives" : [
                {
                    "attributes" : {
                        "POSITION" : 4,
                        "NORMAL" : 5,
                        "TEXCOORD_0" : 6
                    },
                    "indices" : 7,
                    "material" : 0
                }
            ]
        },
        {
            "name" : "Cube.928",
            "primitives" : [
                {
                    "attributes" : {
                        "POSITION" : 8,
                        "NORMAL" : 9,
                        "TEXCOORD_0" : 10
                    },
                    "indices" : 11,
                    "material" : 0
                }
            ]
        },
        {
            "name" : "Cube.929",
            "primitives" : [
                {
                    "attributes" : {
                        "POSITION" : 12,
                        "NORMAL" : 13,
                        "TEXCOORD_0" : 14
                    },
                    "indices" : 15,
                    "material" : 0
                }
            ]
        },
        {
            "name" : "Cube.925",
            "primitives" : [
                {
                    "attributes" : {
                        "POSITION" : 16,
                        "NORMAL" : 17,
                        "TEXCOORD_0" : 18
                    },
                    "indices" : 19,
                    "material" : 0
                }
            ]
        }
    ],
    "textures" : [
        {
            "sampler" : 0,
            "source" : 0
        }
    ],
    "images" : [
        {
            "bufferView" : 4,
            "mimeType" : "image/png",
            "name" : "tex"
        }
    ],
    "accessors" : [
        {
            "bufferView" : 0,
            "componentType" : 5126,
            "count" : 752,
            "max" : [
                -0.8264395594596863,
                0.05719918757677078,
                0.13795676827430725
            ],
            "min" : [
                -0.8543609976768494,
                -0.014034310355782509,
                -0.12436223030090332
            ],
            "type" : "VEC3"
        },
        {
            "bufferView" : 1,
            "componentType" : 5126,
            "count" : 752,
            "type" : "VEC3"
        },
        {
            "bufferView" : 2,
            "componentType" : 5126,
            "count" : 752,
            "type" : "VEC2"
        },
        {
            "bufferView" : 3,
            "componentType" : 5123,
            "count" : 1680,
            "type" : "SCALAR"
        },
        {
            "bufferView" : 5,
            "componentType" : 5126,
            "count" : 236,
            "max" : [
                0.9600000381469727,
                0.45498839020729065,
                0.4000000059604645
            ],
            "min" : [
                0.1599999964237213,
                -1.0650116205215454,
                -0.4000000059604645
            ],
            "type" : "VEC3"
        },
        {
            "bufferView" : 6,
            "componentType" : 5126,
            "count" : 236,
            "type" : "VEC3"
        },
        {
            "bufferView" : 7,
            "componentType" : 5126,
            "count" : 236,
            "type" : "VEC2"
        },
        {
            "bufferView" : 8,
            "componentType" : 5123,
            "count" : 756,
            "type" : "SCALAR"
        },
        {
            "bufferView" : 9,
            "componentType" : 5126,
            "count" : 375,
            "max" : [
                -0.11163406819105148,
                0.20210924744606018,
                0.4539754092693329
            ],
            "min" : [
                -1.0195848941802979,
                -1.0650116205215454,
                -0.4539754092693329
            ],
            "type" : "VEC3"
        },
        {
            "bufferView" : 10,
            "componentType" : 5126,
            "count" : 375,
            "type" : "VEC3"
        },
        {
            "bufferView" : 11,
            "componentType" : 5126,
            "count" : 375,
            "type" : "VEC2"
        },
        {
            "bufferView" : 12,
            "componentType" : 5123,
            "count" : 960,
            "type" : "SCALAR"
        },
        {
            "bufferView" : 13,
            "componentType" : 5126,
            "count" : 278,
            "max" : [
                0.33358868956565857,
                0.5737277865409851,
                -0.4902542233467102
            ],
            "min" : [
                -0.46671944856643677,
                -1.0650116205215454,
                -1.2902542352676392
            ],
            "type" : "VEC3"
        },
        {
            "bufferView" : 14,
            "componentType" : 5126,
            "count" : 278,
            "type" : "VEC3"
        },
        {
            "bufferView" : 15,
            "componentType" : 5126,
            "count" : 278,
            "type" : "VEC2"
        },
        {
            "bufferView" : 16,
            "componentType" : 5123,
            "count" : 756,
            "type" : "SCALAR"
        },
        {
            "bufferView" : 17,
            "componentType" : 5126,
            "count" : 1634,
            "max" : [
                0.2738100290298462,
                1.0217467546463013,
                -1.5096185207366943
            ],
            "min" : [
                -0.5069397687911987,
                0.24099698662757874,
                -1.977942943572998
            ],
            "type" : "VEC3"
        },
        {
            "bufferView" : 18,
            "componentType" : 5126,
            "count" : 1634,
            "type" : "VEC3"
        },
        {
            "bufferView" : 19,
            "componentType" : 5126,
            "count" : 1634,
            "type" : "VEC2"
        },
        {
            "bufferView" : 20,
            "componentType" : 5123,
            "count" : 4704,
            "type" : "SCALAR"
        }
    ],
    "bufferViews" : [
        {
            "buffer" : 0,
            "byteLength" : 9024,
            "byteOffset" : 0
        },
        {
            "buffer" : 0,
            "byteLength" : 9024,
            "byteOffset" : 9024
        },
        {
            "buffer" : 0,
            "byteLength" : 6016,
            "byteOffset" : 18048
        },
        {
            "buffer" : 0,
            "byteLength" : 3360,
            "byteOffset" : 24064
        },
        {
            "buffer" : 0,
            "byteLength" : 11997,
            "byteOffset" : 27424
        },
        {
            "buffer" : 0,
            "byteLength" : 2832,
            "byteOffset" : 39424
        },
        {
            "buffer" : 0,
            "byteLength" : 2832,
            "byteOffset" : 42256
        },
        {
            "buffer" : 0,
            "byteLength" : 1888,
            "byteOffset" : 45088
        },
        {
            "buffer" : 0,
            "byteLength" : 1512,
            "byteOffset" : 46976
        },
        {
            "buffer" : 0,
            "byteLength" : 4500,
            "byteOffset" : 48488
        },
        {
            "buffer" : 0,
            "byteLength" : 4500,
            "byteOffset" : 52988
        },
        {
            "buffer" : 0,
            "byteLength" : 3000,
            "byteOffset" : 57488
        },
        {
            "buffer" : 0,
            "byteLength" : 1920,
            "byteOffset" : 60488
        },
        {
            "buffer" : 0,
            "byteLength" : 3336,
            "byteOffset" : 62408
        },
        {
            "buffer" : 0,
            "byteLength" : 3336,
            "byteOffset" : 65744
        },
        {
            "buffer" : 0,
            "byteLength" : 2224,
            "byteOffset" : 69080
        },
        {
            "buffer" : 0,
            "byteLength" : 1512,
            "byteOffset" : 71304
        },
        {
            "buffer" : 0,
            "byteLength" : 19608,
            "byteOffset" : 72816
        },
        {
            "buffer" : 0,
            "byteLength" : 19608,
            "byteOffset" : 92424
        },
        {
            "buffer" : 0,
            "byteLength" : 13072,
            "byteOffset" : 112032
        },
        {
            "buffer" : 0,
            "byteLength" : 9408,
            "byteOffset" : 125104
        }
    ],
    "samplers" : [
        {
            "magFilter" : 9729,
            "minFilter" : 9987
        }
    ],
    "buffers" : [
        {
            "byteLength" : 134512,
            "uri" : "data:application/octet-stream;base64,"
        }
    ]
}
