{
    "asset" : {
        "copyright" : "Jeremy Edelblut",
        "generator" : "Khronos glTF Blender I/O v1.6.16",
        "version" : "2.0"
    },
    "scene" : 0,
    "scenes" : [
        {
            "name" : "Scene",
            "nodes" : [
                0,
                1,
                2,
                3,
                4,
                5,
                6,
                7,
                8,
                9
            ]
        }
    ],
    "nodes" : [
        {
            "mesh" : 0,
            "name" : "Circle.971",
            "rotation" : [
                0.7071068286895752,
                0,
                0,
                0.7071068286895752
            ],
            "scale" : [
                2.6078596115112305,
                2.6078596115112305,
                2.6078596115112305
            ]
        },
        {
            "mesh" : 1,
            "name" : "Circle.972",
            "rotation" : [
                0.7071068286895752,
                0,
                0,
                0.7071068286895752
            ],
            "scale" : [
                2.6078596115112305,
                2.6078596115112305,
                2.6078596115112305
            ]
        },
        {
            "mesh" : 2,
            "name" : "Cylinder.178",
            "rotation" : [
                0,
                -0.7071068286895752,
                0,
                0.7071068286895752
            ],
            "scale" : [
                0.675369143486023,
                0.675369143486023,
                0.675369143486023
            ]
        },
        {
            "mesh" : 3,
            "name" : "Roundcube.205",
            "rotation" : [
                0,
                -0.7071068286895752,
                0,
                0.7071068286895752
            ],
            "scale" : [
                0.675369143486023,
                0.675369143486023,
                0.675369143486023
            ]
        },
        {
            "mesh" : 4,
            "name" : "Circle.973",
            "rotation" : [
                0.7071068286895752,
                0,
                0,
                0.7071068286895752
            ],
            "scale" : [
                0.963385283946991,
                0.963385283946991,
                0.963385283946991
            ]
        },
        {
            "mesh" : 5,
            "name" : "Cube.2416",
            "rotation" : [
                0.15383964776992798,
                -0.7492061257362366,
                -0.09783472120761871,
                0.636751115322113
            ],
            "scale" : [
                0.09916247427463531,
                0.09916256368160248,
                0.09916248172521591
            ]
        },
        {
            "mesh" : 6,
            "name" : "Sphere.162",
            "rotation" : [
                0,
                -0.7071068286895752,
                0,
                0.7071068286895752
            ],
            "scale" : [
                0.4816926419734955,
                0.4816926419734955,
                0.4816926419734955
            ]
        },
        {
            "mesh" : 7,
            "name" : "Roundcube.206",
            "rotation" : [
                0,
                -0.7071068286895752,
                0,
                0.7071068286895752
            ],
            "scale" : [
                0.675369143486023,
                0.675369143486023,
                0.675369143486023
            ]
        },
        {
            "mesh" : 8,
            "name" : "Sphere.163",
            "rotation" : [
                0,
                -0.7071068286895752,
                0,
                0.7071068286895752
            ],
            "scale" : [
                0.6426540613174438,
                0.49989375472068787,
                0.5729959011077881
            ]
        },
        {
            "mesh" : 9,
            "name" : "Circle.975",
            "rotation" : [
                -0.5,
                -0.5,
                0.4999999701976776,
                0.5
            ],
            "scale" : [
                0.23790551722049713,
                0.23790551722049713,
                0.23790551722049713
            ]
        }
    ],
    "materials" : [
        {
            "doubleSided" : true,
            "name" : "Color",
            "pbrMetallicRoughness" : {
                "baseColorTexture" : {
                    "index" : 0
                },
                "metallicFactor" : 0,
                "roughnessFactor" : 0.5
            }
        }
    ],
    "meshes" : [
        {
            "name" : "Circle.1055",
            "primitives" : [
                {
                    "attributes" : {
                        "POSITION" : 0,
                        "NORMAL" : 1,
                        "TEXCOORD_0" : 2
                    },
                    "indices" : 3,
                    "material" : 0
                }
            ]
        },
        {
            "name" : "Circle.1056",
            "primitives" : [
                {
                    "attributes" : {
                        "POSITION" : 4,
                        "NORMAL" : 5,
                        "TEXCOORD_0" : 6
                    },
                    "indices" : 7,
                    "material" : 0
                }
            ]
        },
        {
            "name" : "Cylinder.164",
            "primitives" : [
                {
                    "attributes" : {
                        "POSITION" : 8,
                        "NORMAL" : 9,
                        "TEXCOORD_0" : 10
                    },
                    "indices" : 11,
                    "material" : 0
                }
            ]
        },
        {
            "name" : "Roundcube.205",
            "primitives" : [
                {
                    "attributes" : {
                        "POSITION" : 12,
                        "NORMAL" : 13,
                        "TEXCOORD_0" : 14
                    },
                    "indices" : 15,
                    "material" : 0
                }
            ]
        },
        {
            "name" : "Circle.1057",
            "primitives" : [
                {
                    "attributes" : {
                        "POSITION" : 16,
                        "NORMAL" : 17,
                        "TEXCOORD_0" : 18
                    },
                    "indices" : 19,
                    "material" : 0
                }
            ]
        },
        {
            "name" : "Cube.2875",
            "primitives" : [
                {
                    "attributes" : {
                        "POSITION" : 20,
                        "NORMAL" : 21,
                        "TEXCOORD_0" : 22
                    },
                    "indices" : 23,
                    "material" : 0
                }
            ]
        },
        {
            "name" : "Sphere.162",
            "primitives" : [
                {
                    "attributes" : {
                        "POSITION" : 24,
                        "NORMAL" : 25,
                        "TEXCOORD_0" : 26
                    },
                    "indices" : 27,
                    "material" : 0
                }
            ]
        },
        {
            "name" : "Roundcube.206",
            "primitives" : [
                {
                    "attributes" : {
                        "POSITION" : 28,
                        "NORMAL" : 29,
                        "TEXCOORD_0" : 30
                    },
                    "indices" : 31,
                    "material" : 0
                }
            ]
        },
        {
            "name" : "Sphere.163",
            "primitives" : [
                {
                    "attributes" : {
                        "POSITION" : 32,
                        "NORMAL" : 33,
                        "TEXCOORD_0" : 34
                    },
                    "indices" : 35,
                    "material" : 0
                }
            ]
        },
        {
            "name" : "Circle.1059",
            "primitives" : [
                {
                    "attributes" : {
                        "POSITION" : 36,
                        "NORMAL" : 37,
                        "TEXCOORD_0" : 38
                    },
                    "indices" : 39,
                    "material" : 0
                }
            ]
        }
    ],
    "textures" : [
        {
            "sampler" : 0,
            "source" : 0
        }
    ],
    "images" : [
        {
            "bufferView" : 4,
            "mimeType" : "image/png",
            "name" : "tex"
        }
    ],
    "accessors" : [
        {
            "bufferView" : 0,
            "componentType" : 5126,
            "count" : 996,
            "max" : [
                0.1403384953737259,
                0.21631695330142975,
                -0.007125354837626219
            ],
            "min" : [
                -0.1403384953737259,
                0.17302803695201874,
                -0.08809424191713333
            ],
            "type" : "VEC3"
        },
        {
            "bufferView" : 1,
            "componentType" : 5126,
            "count" : 996,
            "type" : "VEC3"
        },
        {
            "bufferView" : 2,
            "componentType" : 5126,
            "count" : 996,
            "type" : "VEC2"
        },
        {
            "bufferView" : 3,
            "componentType" : 5123,
            "count" : 4464,
            "type" : "SCALAR"
        },
        {
            "bufferView" : 5,
            "componentType" : 5126,
            "count" : 422,
            "max" : [
                0.02542617730796337,
                0.22029739618301392,
                0.022905876860022545
            ],
            "min" : [
                -0.024350274354219437,
                0.2072056233882904,
                -0.006263203453272581
            ],
            "type" : "VEC3"
        },
        {
            "bufferView" : 6,
            "componentType" : 5126,
            "count" : 422,
            "type" : "VEC3"
        },
        {
            "bufferView" : 7,
            "componentType" : 5126,
            "count" : 422,
            "type" : "VEC2"
        },
        {
            "bufferView" : 8,
            "componentType" : 5123,
            "count" : 1824,
            "type" : "SCALAR"
        },
        {
            "bufferView" : 9,
            "componentType" : 5126,
            "count" : 2402,
            "max" : [
                -0.15551720559597015,
                0.49677610397338867,
                1.2567503452301025
            ],
            "min" : [
                -0.5373146533966064,
                -0.1529860645532608,
                -1.2567503452301025
            ],
            "type" : "VEC3"
        },
        {
            "bufferView" : 10,
            "componentType" : 5126,
            "count" : 2402,
            "type" : "VEC3"
        },
        {
            "bufferView" : 11,
            "componentType" : 5126,
            "count" : 2402,
            "type" : "VEC2"
        },
        {
            "bufferView" : 12,
            "componentType" : 5123,
            "count" : 11520,
            "type" : "SCALAR"
        },
        {
            "bufferView" : 13,
            "componentType" : 5126,
            "count" : 2010,
            "max" : [
                0.817034125328064,
                1.1844160556793213,
                1.021676778793335
            ],
            "min" : [
                -1.346343755722046,
                -2.0588786602020264,
                -1.022953748703003
            ],
            "type" : "VEC3"
        },
        {
            "bufferView" : 14,
            "componentType" : 5126,
            "count" : 2010,
            "type" : "VEC3"
        },
        {
            "bufferView" : 15,
            "componentType" : 5126,
            "count" : 2010,
            "type" : "VEC2"
        },
        {
            "bufferView" : 16,
            "componentType" : 5123,
            "count" : 7980,
            "type" : "SCALAR"
        },
        {
            "bufferView" : 17,
            "componentType" : 5126,
            "count" : 332,
            "max" : [
                0.3774664103984833,
                0.5746592283248901,
                -0.20848792791366577
            ],
            "min" : [
                -0.3774664103984833,
                0.41696351766586304,
                -0.39911752939224243
            ],
            "type" : "VEC3"
        },
        {
            "bufferView" : 18,
            "componentType" : 5126,
            "count" : 332,
            "type" : "VEC3"
        },
        {
            "bufferView" : 19,
            "componentType" : 5126,
            "count" : 332,
            "type" : "VEC2"
        },
        {
            "bufferView" : 20,
            "componentType" : 5123,
            "count" : 1152,
            "type" : "SCALAR"
        },
        {
            "bufferView" : 21,
            "componentType" : 5126,
            "count" : 1438,
            "max" : [
                5.117722034454346,
                12.066508293151855,
                9.025390625
            ],
            "min" : [
                -10.697393417358398,
                -2.907139778137207,
                -7.617720603942871
            ],
            "type" : "VEC3"
        },
        {
            "bufferView" : 22,
            "componentType" : 5126,
            "count" : 1438,
            "type" : "VEC3"
        },
        {
            "bufferView" : 23,
            "componentType" : 5126,
            "count" : 1438,
            "type" : "VEC2"
        },
        {
            "bufferView" : 24,
            "componentType" : 5123,
            "count" : 3456,
            "type" : "SCALAR"
        },
        {
            "bufferView" : 25,
            "componentType" : 5126,
            "count" : 445,
            "max" : [
                0.09222203493118286,
                -1.338270664215088,
                1.4991052150726318
            ],
            "min" : [
                -1.9077785015106201,
                -2.8836474418640137,
                -1.5008957386016846
            ],
            "type" : "VEC3"
        },
        {
            "bufferView" : 26,
            "componentType" : 5126,
            "count" : 445,
            "type" : "VEC3"
        },
        {
            "bufferView" : 27,
            "componentType" : 5126,
            "count" : 445,
            "type" : "VEC2"
        },
        {
            "bufferView" : 28,
            "componentType" : 5123,
            "count" : 2418,
            "type" : "SCALAR"
        },
        {
            "bufferView" : 29,
            "componentType" : 5126,
            "count" : 1950,
            "max" : [
                0.8266487717628479,
                0.42797452211380005,
                0.7719153165817261
            ],
            "min" : [
                0.4814739525318146,
                -0.09372177720069885,
                -0.7732597589492798
            ],
            "type" : "VEC3"
        },
        {
            "bufferView" : 30,
            "componentType" : 5126,
            "count" : 1950,
            "type" : "VEC3"
        },
        {
            "bufferView" : 31,
            "componentType" : 5126,
            "count" : 1950,
            "type" : "VEC2"
        },
        {
            "bufferView" : 32,
            "componentType" : 5123,
            "count" : 9648,
            "type" : "SCALAR"
        },
        {
            "bufferView" : 33,
            "componentType" : 5126,
            "count" : 728,
            "max" : [
                -0.17848551273345947,
                -1.287646770477295,
                1.4991422891616821
            ],
            "min" : [
                -1.9443745613098145,
                -2.781538963317871,
                -1.4991422891616821
            ],
            "type" : "VEC3"
        },
        {
            "bufferView" : 34,
            "componentType" : 5126,
            "count" : 728,
            "type" : "VEC3"
        },
        {
            "bufferView" : 35,
            "componentType" : 5126,
            "count" : 728,
            "type" : "VEC2"
        },
        {
            "bufferView" : 36,
            "componentType" : 5123,
            "count" : 3048,
            "type" : "SCALAR"
        },
        {
            "bufferView" : 37,
            "componentType" : 5126,
            "count" : 68,
            "max" : [
                -4.43691873550415,
                0.25835588574409485,
                0.9981869459152222
            ],
            "min" : [
                -5.8370466232299805,
                -0.2622925043106079,
                -1.0018129348754883
            ],
            "type" : "VEC3"
        },
        {
            "bufferView" : 38,
            "componentType" : 5126,
            "count" : 68,
            "type" : "VEC3"
        },
        {
            "bufferView" : 39,
            "componentType" : 5126,
            "count" : 68,
            "type" : "VEC2"
        },
        {
            "bufferView" : 40,
            "componentType" : 5123,
            "count" : 183,
            "type" : "SCALAR"
        }
    ],
    "bufferViews" : [
        {
            "buffer" : 0,
            "byteLength" : 11952,
            "byteOffset" : 0
        },
        {
            "buffer" : 0,
            "byteLength" : 11952,
            "byteOffset" : 11952
        },
        {
            "buffer" : 0,
            "byteLength" : 7968,
            "byteOffset" : 23904
        },
        {
            "buffer" : 0,
            "byteLength" : 8928,
            "byteOffset" : 31872
        },
        {
            "buffer" : 0,
            "byteLength" : 3214,
            "byteOffset" : 40800
        },
        {
            "buffer" : 0,
            "byteLength" : 5064,
            "byteOffset" : 44016
        },
        {
            "buffer" : 0,
            "byteLength" : 5064,
            "byteOffset" : 49080
        },
        {
            "buffer" : 0,
            "byteLength" : 3376,
            "byteOffset" : 54144
        },
        {
            "buffer" : 0,
            "byteLength" : 3648,
            "byteOffset" : 57520
        },
        {
            "buffer" : 0,
            "byteLength" : 28824,
            "byteOffset" : 61168
        },
        {
            "buffer" : 0,
            "byteLength" : 28824,
            "byteOffset" : 89992
        },
        {
            "buffer" : 0,
            "byteLength" : 19216,
            "byteOffset" : 118816
        },
        {
            "buffer" : 0,
            "byteLength" : 23040,
            "byteOffset" : 138032
        },
        {
            "buffer" : 0,
            "byteLength" : 24120,
            "byteOffset" : 161072
        },
        {
            "buffer" : 0,
            "byteLength" : 24120,
            "byteOffset" : 185192
        },
        {
            "buffer" : 0,
            "byteLength" : 16080,
            "byteOffset" : 209312
        },
        {
            "buffer" : 0,
            "byteLength" : 15960,
            "byteOffset" : 225392
        },
        {
            "buffer" : 0,
            "byteLength" : 3984,
            "byteOffset" : 241352
        },
        {
            "buffer" : 0,
            "byteLength" : 3984,
            "byteOffset" : 245336
        },
        {
            "buffer" : 0,
            "byteLength" : 2656,
            "byteOffset" : 249320
        },
        {
            "buffer" : 0,
            "byteLength" : 2304,
            "byteOffset" : 251976
        },
        {
            "buffer" : 0,
            "byteLength" : 17256,
            "byteOffset" : 254280
        },
        {
            "buffer" : 0,
            "byteLength" : 17256,
            "byteOffset" : 271536
        },
        {
            "buffer" : 0,
            "byteLength" : 11504,
            "byteOffset" : 288792
        },
        {
            "buffer" : 0,
            "byteLength" : 6912,
            "byteOffset" : 300296
        },
        {
            "buffer" : 0,
            "byteLength" : 5340,
            "byteOffset" : 307208
        },
        {
            "buffer" : 0,
            "byteLength" : 5340,
            "byteOffset" : 312548
        },
        {
            "buffer" : 0,
            "byteLength" : 3560,
            "byteOffset" : 317888
        },
        {
            "buffer" : 0,
            "byteLength" : 4836,
            "byteOffset" : 321448
        },
        {
            "buffer" : 0,
            "byteLength" : 23400,
            "byteOffset" : 326284
        },
        {
            "buffer" : 0,
            "byteLength" : 23400,
            "byteOffset" : 349684
        },
        {
            "buffer" : 0,
            "byteLength" : 15600,
            "byteOffset" : 373084
        },
        {
            "buffer" : 0,
            "byteLength" : 19296,
            "byteOffset" : 388684
        },
        {
            "buffer" : 0,
            "byteLength" : 8736,
            "byteOffset" : 407980
        },
        {
            "buffer" : 0,
            "byteLength" : 8736,
            "byteOffset" : 416716
        },
        {
            "buffer" : 0,
            "byteLength" : 5824,
            "byteOffset" : 425452
        },
        {
            "buffer" : 0,
            "byteLength" : 6096,
            "byteOffset" : 431276
        },
        {
            "buffer" : 0,
            "byteLength" : 816,
            "byteOffset" : 437372
        },
        {
            "buffer" : 0,
            "byteLength" : 816,
            "byteOffset" : 438188
        },
        {
            "buffer" : 0,
            "byteLength" : 544,
            "byteOffset" : 439004
        },
        {
            "buffer" : 0,
            "byteLength" : 366,
            "byteOffset" : 439548
        }
    ],
    "samplers" : [
        {
            "magFilter" : 9729,
            "minFilter" : 9987
        }
    ],
    "buffers" : [
        {
            "byteLength" : 439916,
            "uri" : "data:application/octet-stream;base64,"
        }
    ]
}
