{
    "asset" : {
        "copyright" : "Jeremy Edelblut",
        "generator" : "Khronos glTF Blender I/O v1.7.33",
        "version" : "2.0"
    },
    "scene" : 0,
    "scenes" : [
        {
            "name" : "Scene",
            "nodes" : [
                0,
                1
            ]
        }
    ],
    "nodes" : [
        {
            "mesh" : 0,
            "name" : "Cube.432",
            "rotation" : [
                0.11577814072370529,
                -0.4577983021736145,
                -0.060270294547080994,
                0.8794223070144653
            ],
            "scale" : [
                0.8100000023841858,
                0.8100000619888306,
                0.8100000023841858
            ]
        },
        {
            "mesh" : 1,
            "name" : "Cube.433",
            "rotation" : [
                -0.8005722165107727,
                -0.08418350666761398,
                -0.4540098309516907,
                0.3819323778152466
            ],
            "scale" : [
                0.8100000023841858,
                0.8100000619888306,
                0.8100001811981201
            ],
            "translation" : [
                -0.2661705017089844,
                0.928945779800415,
                0.44185948371887207
            ]
        }
    ],
    "materials" : [
        {
            "doubleSided" : true,
            "name" : "color",
            "pbrMetallicRoughness" : {
                "baseColorTexture" : {
                    "index" : 0
                },
                "metallicFactor" : 0,
                "roughnessFactor" : 0.5
            }
        }
    ],
    "meshes" : [
        {
            "name" : "Cube.822",
            "primitives" : [
                {
                    "attributes" : {
                        "POSITION" : 0,
                        "NORMAL" : 1,
                        "TEXCOORD_0" : 2
                    },
                    "indices" : 3,
                    "material" : 0
                }
            ]
        },
        {
            "name" : "Cube.824",
            "primitives" : [
                {
                    "attributes" : {
                        "POSITION" : 4,
                        "NORMAL" : 5,
                        "TEXCOORD_0" : 6
                    },
                    "indices" : 7,
                    "material" : 0
                }
            ]
        }
    ],
    "textures" : [
        {
            "sampler" : 0,
            "source" : 0
        }
    ],
    "images" : [
        {
            "bufferView" : 4,
            "mimeType" : "image/png",
            "name" : "tex"
        }
    ],
    "accessors" : [
        {
            "bufferView" : 0,
            "componentType" : 5126,
            "count" : 956,
            "max" : [
                1.0099551677703857,
                0.9854555726051331,
                0.8150808811187744
            ],
            "min" : [
                -1.0099551677703857,
                -1,
                -0.8150808811187744
            ],
            "type" : "VEC3"
        },
        {
            "bufferView" : 1,
            "componentType" : 5126,
            "count" : 956,
            "type" : "VEC3"
        },
        {
            "bufferView" : 2,
            "componentType" : 5126,
            "count" : 956,
            "type" : "VEC2"
        },
        {
            "bufferView" : 3,
            "componentType" : 5123,
            "count" : 1476,
            "type" : "SCALAR"
        },
        {
            "bufferView" : 5,
            "componentType" : 5126,
            "count" : 324,
            "max" : [
                1.083964467048645,
                2.030303955078125,
                0.022901810705661774
            ],
            "min" : [
                -1.083964467048645,
                0.669147789478302,
                -0.02290165238082409
            ],
            "type" : "VEC3"
        },
        {
            "bufferView" : 6,
            "componentType" : 5126,
            "count" : 324,
            "type" : "VEC3"
        },
        {
            "bufferView" : 7,
            "componentType" : 5126,
            "count" : 324,
            "type" : "VEC2"
        },
        {
            "bufferView" : 8,
            "componentType" : 5123,
            "count" : 498,
            "type" : "SCALAR"
        }
    ],
    "bufferViews" : [
        {
            "buffer" : 0,
            "byteLength" : 11472,
            "byteOffset" : 0
        },
        {
            "buffer" : 0,
            "byteLength" : 11472,
            "byteOffset" : 11472
        },
        {
            "buffer" : 0,
            "byteLength" : 7648,
            "byteOffset" : 22944
        },
        {
            "buffer" : 0,
            "byteLength" : 2952,
            "byteOffset" : 30592
        },
        {
            "buffer" : 0,
            "byteLength" : 11997,
            "byteOffset" : 33544
        },
        {
            "buffer" : 0,
            "byteLength" : 3888,
            "byteOffset" : 45544
        },
        {
            "buffer" : 0,
            "byteLength" : 3888,
            "byteOffset" : 49432
        },
        {
            "buffer" : 0,
            "byteLength" : 2592,
            "byteOffset" : 53320
        },
        {
            "buffer" : 0,
            "byteLength" : 996,
            "byteOffset" : 55912
        }
    ],
    "samplers" : [
        {
            "magFilter" : 9729,
            "minFilter" : 9987
        }
    ],
    "buffers" : [
        {
            "byteLength" : 56908,
            "uri" : "data:application/octet-stream;base64,"
        }
    ]
}
