{
    "asset" : {
        "copyright" : "Jeremy Edelblut",
        "generator" : "Khronos glTF Blender I/O v1.6.16",
        "version" : "2.0"
    },
    "scene" : 0,
    "scenes" : [
        {
            "name" : "Scene",
            "nodes" : [
                0,
                1,
                2
            ]
        }
    ],
    "nodes" : [
        {
            "mesh" : 0,
            "name" : "Circle.2273",
            "rotation" : [
                0.1736481785774231,
                0,
                0,
                0.9848078489303589
            ],
            "scale" : [
                0.5363036394119263,
                0.5363036394119263,
                0.5363036394119263
            ],
            "translation" : [
                0,
                -0.7711830139160156,
                -0.28133493661880493
            ]
        },
        {
            "mesh" : 1,
            "name" : "Plane.222",
            "rotation" : [
                0.8191520571708679,
                0,
                0,
                0.5735764503479004
            ],
            "scale" : [
                0.1816343069076538,
                0.1816343069076538,
                0.1816343069076538
            ],
            "translation" : [
                0,
                0.7546344995498657,
                0.27401718497276306
            ]
        },
        {
            "mesh" : 2,
            "name" : "Sphere.502",
            "rotation" : [
                0.1736481785774231,
                0,
                0,
                0.9848078489303589
            ],
            "scale" : [
                0.8668688535690308,
                0.8668688535690308,
                0.8668688535690308
            ],
            "translation" : [
                0,
                0.021883739158511162,
                0.007317735813558102
            ]
        }
    ],
    "materials" : [
        {
            "doubleSided" : true,
            "name" : "Color",
            "pbrMetallicRoughness" : {
                "baseColorTexture" : {
                    "index" : 0
                },
                "metallicFactor" : 0,
                "roughnessFactor" : 0.5
            }
        },
        {
            "alphaMode" : "BLEND",
            "doubleSided" : true,
            "name" : "Transparent",
            "pbrMetallicRoughness" : {
                "baseColorFactor" : [
                    0.9072647094726562,
                    0.9472811222076416,
                    1,
                    0.10000000149011612
                ],
                "metallicFactor" : 0,
                "roughnessFactor" : 0.05000000447034836
            }
        }
    ],
    "meshes" : [
        {
            "name" : "Circle.2768",
            "primitives" : [
                {
                    "attributes" : {
                        "POSITION" : 0,
                        "NORMAL" : 1,
                        "TEXCOORD_0" : 2
                    },
                    "indices" : 3,
                    "material" : 0
                }
            ]
        },
        {
            "name" : "Plane.223",
            "primitives" : [
                {
                    "attributes" : {
                        "POSITION" : 4,
                        "NORMAL" : 5,
                        "TEXCOORD_0" : 6
                    },
                    "indices" : 7,
                    "material" : 1
                }
            ]
        },
        {
            "name" : "Sphere.501",
            "primitives" : [
                {
                    "attributes" : {
                        "POSITION" : 8,
                        "NORMAL" : 9,
                        "TEXCOORD_0" : 10
                    },
                    "indices" : 11,
                    "material" : 0
                }
            ]
        }
    ],
    "textures" : [
        {
            "sampler" : 0,
            "source" : 0
        }
    ],
    "images" : [
        {
            "bufferView" : 4,
            "mimeType" : "image/png",
            "name" : "tex2"
        }
    ],
    "accessors" : [
        {
            "bufferView" : 0,
            "componentType" : 5126,
            "count" : 404,
            "max" : [
                1.7851005792617798,
                0.14466343820095062,
                1.7851005792617798
            ],
            "min" : [
                -1.7851005792617798,
                -0.05774075537919998,
                -1.7851005792617798
            ],
            "type" : "VEC3"
        },
        {
            "bufferView" : 1,
            "componentType" : 5126,
            "count" : 404,
            "type" : "VEC3"
        },
        {
            "bufferView" : 2,
            "componentType" : 5126,
            "count" : 404,
            "type" : "VEC2"
        },
        {
            "bufferView" : 3,
            "componentType" : 5123,
            "count" : 2112,
            "type" : "SCALAR"
        },
        {
            "bufferView" : 5,
            "componentType" : 5126,
            "count" : 203,
            "max" : [
                1.4070926904678345,
                0.17400585114955902,
                3.1642961502075195
            ],
            "min" : [
                -1.0453187227249146,
                0,
                -1.9845861196517944
            ],
            "type" : "VEC3"
        },
        {
            "bufferView" : 6,
            "componentType" : 5126,
            "count" : 203,
            "type" : "VEC3"
        },
        {
            "bufferView" : 7,
            "componentType" : 5126,
            "count" : 203,
            "type" : "VEC2"
        },
        {
            "bufferView" : 8,
            "componentType" : 5123,
            "count" : 672,
            "type" : "SCALAR"
        },
        {
            "bufferView" : 9,
            "componentType" : 5126,
            "count" : 841,
            "max" : [
                0.7907707095146179,
                0.13455775380134583,
                0.7907704710960388
            ],
            "min" : [
                -0.7907702922821045,
                -0.9742763042449951,
                -0.7907702922821045
            ],
            "type" : "VEC3"
        },
        {
            "bufferView" : 10,
            "componentType" : 5126,
            "count" : 841,
            "type" : "VEC3"
        },
        {
            "bufferView" : 11,
            "componentType" : 5126,
            "count" : 841,
            "type" : "VEC2"
        },
        {
            "bufferView" : 12,
            "componentType" : 5123,
            "count" : 3648,
            "type" : "SCALAR"
        }
    ],
    "bufferViews" : [
        {
            "buffer" : 0,
            "byteLength" : 4848,
            "byteOffset" : 0
        },
        {
            "buffer" : 0,
            "byteLength" : 4848,
            "byteOffset" : 4848
        },
        {
            "buffer" : 0,
            "byteLength" : 3232,
            "byteOffset" : 9696
        },
        {
            "buffer" : 0,
            "byteLength" : 4224,
            "byteOffset" : 12928
        },
        {
            "buffer" : 0,
            "byteLength" : 6474,
            "byteOffset" : 17152
        },
        {
            "buffer" : 0,
            "byteLength" : 2436,
            "byteOffset" : 23628
        },
        {
            "buffer" : 0,
            "byteLength" : 2436,
            "byteOffset" : 26064
        },
        {
            "buffer" : 0,
            "byteLength" : 1624,
            "byteOffset" : 28500
        },
        {
            "buffer" : 0,
            "byteLength" : 1344,
            "byteOffset" : 30124
        },
        {
            "buffer" : 0,
            "byteLength" : 10092,
            "byteOffset" : 31468
        },
        {
            "buffer" : 0,
            "byteLength" : 10092,
            "byteOffset" : 41560
        },
        {
            "buffer" : 0,
            "byteLength" : 6728,
            "byteOffset" : 51652
        },
        {
            "buffer" : 0,
            "byteLength" : 7296,
            "byteOffset" : 58380
        }
    ],
    "samplers" : [
        {
            "magFilter" : 9729,
            "minFilter" : 9987
        }
    ],
    "buffers" : [
        {
            "byteLength" : 65676,
            "uri" : "data:application/octet-stream;base64,"
        }
    ]
}
