{
    "asset" : {
        "copyright" : "Jeremy Edelblut",
        "generator" : "Khronos glTF Blender I/O v1.7.33",
        "version" : "2.0"
    },
    "scene" : 1,
    "scenes" : [
        {
            "name" : "FBX_Temp",
            "nodes" : [
                0
            ]
        },
        {
            "name" : "Scene",
            "nodes" : [
                1,
                2,
                3,
                4,
                5,
                6,
                7,
                8,
                9
            ]
        }
    ],
    "nodes" : [
        {
            "mesh" : 0,
            "name" : "3moji.064",
            "rotation" : [
                0,
                -0.7071068286895752,
                0,
                0.7071068286895752
            ]
        },
        {
            "mesh" : 1,
            "name" : "Circle.687"
        },
        {
            "mesh" : 2,
            "name" : "Circle.688"
        },
        {
            "mesh" : 3,
            "name" : "Cylinder.100"
        },
        {
            "mesh" : 4,
            "name" : "Roundcube.116"
        },
        {
            "mesh" : 5,
            "name" : "Circle.689"
        },
        {
            "mesh" : 6,
            "name" : "Cube.1453"
        },
        {
            "mesh" : 7,
            "name" : "Sphere.076"
        },
        {
            "mesh" : 8,
            "name" : "Plane.060"
        },
        {
            "mesh" : 9,
            "name" : "Plane.061"
        }
    ],
    "materials" : [
        {
            "doubleSided" : true,
            "name" : "color",
            "pbrMetallicRoughness" : {
                "baseColorTexture" : {
                    "index" : 0
                },
                "metallicFactor" : 0,
                "roughnessFactor" : 0.5
            }
        },
        {
            "doubleSided" : true,
            "name" : "skin_tone_one",
            "pbrMetallicRoughness" : {
                "baseColorTexture" : {
                    "index" : 1
                },
                "metallicFactor" : 0,
                "roughnessFactor" : 0.5
            }
        }
    ],
    "meshes" : [
        {
            "name" : "Cube.417",
            "primitives" : [
                {
                    "attributes" : {
                        "POSITION" : 0,
                        "NORMAL" : 1,
                        "TEXCOORD_0" : 2
                    },
                    "indices" : 3,
                    "material" : 0
                }
            ]
        },
        {
            "name" : "Circle.755",
            "primitives" : [
                {
                    "attributes" : {
                        "POSITION" : 4,
                        "NORMAL" : 5,
                        "TEXCOORD_0" : 6
                    },
                    "indices" : 7,
                    "material" : 0
                }
            ]
        },
        {
            "name" : "Circle.756",
            "primitives" : [
                {
                    "attributes" : {
                        "POSITION" : 8,
                        "NORMAL" : 9,
                        "TEXCOORD_0" : 10
                    },
                    "indices" : 11,
                    "material" : 1
                }
            ]
        },
        {
            "name" : "Cylinder.100",
            "primitives" : [
                {
                    "attributes" : {
                        "POSITION" : 12,
                        "NORMAL" : 13,
                        "TEXCOORD_0" : 14
                    },
                    "indices" : 15,
                    "material" : 1
                }
            ]
        },
        {
            "name" : "Roundcube.117",
            "primitives" : [
                {
                    "attributes" : {
                        "POSITION" : 16,
                        "NORMAL" : 17,
                        "TEXCOORD_0" : 18
                    },
                    "indices" : 19,
                    "material" : 0
                },
                {
                    "attributes" : {
                        "POSITION" : 20,
                        "NORMAL" : 21,
                        "TEXCOORD_0" : 22
                    },
                    "indices" : 23,
                    "material" : 1
                }
            ]
        },
        {
            "name" : "Circle.757",
            "primitives" : [
                {
                    "attributes" : {
                        "POSITION" : 24,
                        "NORMAL" : 25,
                        "TEXCOORD_0" : 26
                    },
                    "indices" : 27,
                    "material" : 1
                }
            ]
        },
        {
            "name" : "Cube.1764",
            "primitives" : [
                {
                    "attributes" : {
                        "POSITION" : 28,
                        "NORMAL" : 29,
                        "TEXCOORD_0" : 30
                    },
                    "indices" : 31,
                    "material" : 1
                }
            ]
        },
        {
            "name" : "Sphere.076",
            "primitives" : [
                {
                    "attributes" : {
                        "POSITION" : 32,
                        "NORMAL" : 33,
                        "TEXCOORD_0" : 34
                    },
                    "indices" : 35,
                    "material" : 0
                }
            ]
        },
        {
            "name" : "Plane.060",
            "primitives" : [
                {
                    "attributes" : {
                        "POSITION" : 36,
                        "NORMAL" : 37,
                        "TEXCOORD_0" : 38
                    },
                    "indices" : 39,
                    "material" : 0
                }
            ]
        },
        {
            "name" : "Plane.061",
            "primitives" : [
                {
                    "attributes" : {
                        "POSITION" : 40,
                        "NORMAL" : 41,
                        "TEXCOORD_0" : 42
                    },
                    "indices" : 43,
                    "material" : 0
                }
            ]
        }
    ],
    "textures" : [
        {
            "sampler" : 0,
            "source" : 0
        },
        {
            "sampler" : 0,
            "source" : 0
        }
    ],
    "images" : [
        {
            "bufferView" : 4,
            "mimeType" : "image/png",
            "name" : "tex"
        }
    ],
    "accessors" : [
        {
            "bufferView" : 0,
            "componentType" : 5126,
            "count" : 752,
            "max" : [
                -0.8264395594596863,
                0.05719918757677078,
                0.13795676827430725
            ],
            "min" : [
                -0.8543609976768494,
                -0.014034310355782509,
                -0.12436223030090332
            ],
            "type" : "VEC3"
        },
        {
            "bufferView" : 1,
            "componentType" : 5126,
            "count" : 752,
            "type" : "VEC3"
        },
        {
            "bufferView" : 2,
            "componentType" : 5126,
            "count" : 752,
            "type" : "VEC2"
        },
        {
            "bufferView" : 3,
            "componentType" : 5123,
            "count" : 1680,
            "type" : "SCALAR"
        },
        {
            "bufferView" : 5,
            "componentType" : 5126,
            "count" : 1448,
            "max" : [
                0.3479706346988678,
                0.31555572152137756,
                0.5697889924049377
            ],
            "min" : [
                -0.3479706346988678,
                0.07173801958560944,
                0.48670241236686707
            ],
            "type" : "VEC3"
        },
        {
            "bufferView" : 6,
            "componentType" : 5126,
            "count" : 1448,
            "type" : "VEC3"
        },
        {
            "bufferView" : 7,
            "componentType" : 5126,
            "count" : 1448,
            "type" : "VEC2"
        },
        {
            "bufferView" : 8,
            "componentType" : 5123,
            "count" : 6912,
            "type" : "SCALAR"
        },
        {
            "bufferView" : 9,
            "componentType" : 5126,
            "count" : 142,
            "max" : [
                0.0685044378042221,
                0.059749774634838104,
                0.5844470858573914
            ],
            "min" : [
                -0.06649328768253326,
                -0.01729544810950756,
                0.5657129883766174
            ],
            "type" : "VEC3"
        },
        {
            "bufferView" : 10,
            "componentType" : 5126,
            "count" : 142,
            "type" : "VEC3"
        },
        {
            "bufferView" : 11,
            "componentType" : 5126,
            "count" : 142,
            "type" : "VEC2"
        },
        {
            "bufferView" : 12,
            "componentType" : 5123,
            "count" : 528,
            "type" : "SCALAR"
        },
        {
            "bufferView" : 13,
            "componentType" : 5126,
            "count" : 1135,
            "max" : [
                0.8778747320175171,
                0.3865436911582947,
                -0.10627720504999161
            ],
            "min" : [
                -0.8778746724128723,
                -0.0602678619325161,
                -0.36960697174072266
            ],
            "type" : "VEC3"
        },
        {
            "bufferView" : 14,
            "componentType" : 5126,
            "count" : 1135,
            "type" : "VEC3"
        },
        {
            "bufferView" : 15,
            "componentType" : 5126,
            "count" : 1135,
            "type" : "VEC2"
        },
        {
            "bufferView" : 16,
            "componentType" : 5123,
            "count" : 4992,
            "type" : "SCALAR"
        },
        {
            "bufferView" : 17,
            "componentType" : 5126,
            "count" : 837,
            "max" : [
                0.182554692029953,
                -0.13748568296432495,
                0.4926007390022278
            ],
            "min" : [
                -0.17039214074611664,
                -1.4014149904251099,
                -0.48274850845336914
            ],
            "type" : "VEC3"
        },
        {
            "bufferView" : 18,
            "componentType" : 5126,
            "count" : 837,
            "type" : "VEC3"
        },
        {
            "bufferView" : 19,
            "componentType" : 5126,
            "count" : 837,
            "type" : "VEC2"
        },
        {
            "bufferView" : 20,
            "componentType" : 5123,
            "count" : 2064,
            "type" : "SCALAR"
        },
        {
            "bufferView" : 21,
            "componentType" : 5126,
            "count" : 1173,
            "max" : [
                0.716685950756073,
                0.8729530572891235,
                0.5776224732398987
            ],
            "min" : [
                -0.7166765332221985,
                -0.8074673414230347,
                -0.9389863610267639
            ],
            "type" : "VEC3"
        },
        {
            "bufferView" : 22,
            "componentType" : 5126,
            "count" : 1173,
            "type" : "VEC3"
        },
        {
            "bufferView" : 23,
            "componentType" : 5126,
            "count" : 1173,
            "type" : "VEC2"
        },
        {
            "bufferView" : 24,
            "componentType" : 5123,
            "count" : 5916,
            "type" : "SCALAR"
        },
        {
            "bufferView" : 25,
            "componentType" : 5126,
            "count" : 316,
            "max" : [
                0.4168669581413269,
                0.46140605211257935,
                0.5363644361495972
            ],
            "min" : [
                -0.4168669581413269,
                0.311684787273407,
                0.4130648672580719
            ],
            "type" : "VEC3"
        },
        {
            "bufferView" : 26,
            "componentType" : 5126,
            "count" : 316,
            "type" : "VEC3"
        },
        {
            "bufferView" : 27,
            "componentType" : 5126,
            "count" : 316,
            "type" : "VEC2"
        },
        {
            "bufferView" : 28,
            "componentType" : 5123,
            "count" : 1152,
            "type" : "SCALAR"
        },
        {
            "bufferView" : 29,
            "componentType" : 5126,
            "count" : 1310,
            "max" : [
                0.7708356380462646,
                1.073990821838379,
                0.7736537456512451
            ],
            "min" : [
                -0.7971862554550171,
                0.01777304708957672,
                -0.9953101873397827
            ],
            "type" : "VEC3"
        },
        {
            "bufferView" : 30,
            "componentType" : 5126,
            "count" : 1310,
            "type" : "VEC3"
        },
        {
            "bufferView" : 31,
            "componentType" : 5126,
            "count" : 1310,
            "type" : "VEC2"
        },
        {
            "bufferView" : 32,
            "componentType" : 5123,
            "count" : 3132,
            "type" : "SCALAR"
        },
        {
            "bufferView" : 33,
            "componentType" : 5126,
            "count" : 468,
            "max" : [
                0.7500002384185791,
                -0.626502275466919,
                0.05096202343702316
            ],
            "min" : [
                -0.7500002384185791,
                -1.3991906642913818,
                -0.9490382075309753
            ],
            "type" : "VEC3"
        },
        {
            "bufferView" : 34,
            "componentType" : 5126,
            "count" : 468,
            "type" : "VEC3"
        },
        {
            "bufferView" : 35,
            "componentType" : 5126,
            "count" : 468,
            "type" : "VEC2"
        },
        {
            "bufferView" : 36,
            "componentType" : 5123,
            "count" : 2418,
            "type" : "SCALAR"
        },
        {
            "bufferView" : 37,
            "componentType" : 5126,
            "count" : 124,
            "max" : [
                1.552785038948059,
                1.1507915258407593,
                -1.472690224647522
            ],
            "min" : [
                -1.55278480052948,
                -0.9507914781570435,
                -1.5455187559127808
            ],
            "type" : "VEC3"
        },
        {
            "bufferView" : 38,
            "componentType" : 5126,
            "count" : 124,
            "type" : "VEC3"
        },
        {
            "bufferView" : 39,
            "componentType" : 5126,
            "count" : 124,
            "type" : "VEC2"
        },
        {
            "bufferView" : 40,
            "componentType" : 5123,
            "count" : 186,
            "type" : "SCALAR"
        },
        {
            "bufferView" : 41,
            "componentType" : 5126,
            "count" : 140,
            "max" : [
                0.5753124952316284,
                -0.3205808103084564,
                1.460188865661621
            ],
            "min" : [
                -0.5753124952316284,
                -1.0512276887893677,
                0.2957037389278412
            ],
            "type" : "VEC3"
        },
        {
            "bufferView" : 42,
            "componentType" : 5126,
            "count" : 140,
            "type" : "VEC3"
        },
        {
            "bufferView" : 43,
            "componentType" : 5126,
            "count" : 140,
            "type" : "VEC2"
        },
        {
            "bufferView" : 44,
            "componentType" : 5123,
            "count" : 390,
            "type" : "SCALAR"
        }
    ],
    "bufferViews" : [
        {
            "buffer" : 0,
            "byteLength" : 9024,
            "byteOffset" : 0
        },
        {
            "buffer" : 0,
            "byteLength" : 9024,
            "byteOffset" : 9024
        },
        {
            "buffer" : 0,
            "byteLength" : 6016,
            "byteOffset" : 18048
        },
        {
            "buffer" : 0,
            "byteLength" : 3360,
            "byteOffset" : 24064
        },
        {
            "buffer" : 0,
            "byteLength" : 11997,
            "byteOffset" : 27424
        },
        {
            "buffer" : 0,
            "byteLength" : 17376,
            "byteOffset" : 39424
        },
        {
            "buffer" : 0,
            "byteLength" : 17376,
            "byteOffset" : 56800
        },
        {
            "buffer" : 0,
            "byteLength" : 11584,
            "byteOffset" : 74176
        },
        {
            "buffer" : 0,
            "byteLength" : 13824,
            "byteOffset" : 85760
        },
        {
            "buffer" : 0,
            "byteLength" : 1704,
            "byteOffset" : 99584
        },
        {
            "buffer" : 0,
            "byteLength" : 1704,
            "byteOffset" : 101288
        },
        {
            "buffer" : 0,
            "byteLength" : 1136,
            "byteOffset" : 102992
        },
        {
            "buffer" : 0,
            "byteLength" : 1056,
            "byteOffset" : 104128
        },
        {
            "buffer" : 0,
            "byteLength" : 13620,
            "byteOffset" : 105184
        },
        {
            "buffer" : 0,
            "byteLength" : 13620,
            "byteOffset" : 118804
        },
        {
            "buffer" : 0,
            "byteLength" : 9080,
            "byteOffset" : 132424
        },
        {
            "buffer" : 0,
            "byteLength" : 9984,
            "byteOffset" : 141504
        },
        {
            "buffer" : 0,
            "byteLength" : 10044,
            "byteOffset" : 151488
        },
        {
            "buffer" : 0,
            "byteLength" : 10044,
            "byteOffset" : 161532
        },
        {
            "buffer" : 0,
            "byteLength" : 6696,
            "byteOffset" : 171576
        },
        {
            "buffer" : 0,
            "byteLength" : 4128,
            "byteOffset" : 178272
        },
        {
            "buffer" : 0,
            "byteLength" : 14076,
            "byteOffset" : 182400
        },
        {
            "buffer" : 0,
            "byteLength" : 14076,
            "byteOffset" : 196476
        },
        {
            "buffer" : 0,
            "byteLength" : 9384,
            "byteOffset" : 210552
        },
        {
            "buffer" : 0,
            "byteLength" : 11832,
            "byteOffset" : 219936
        },
        {
            "buffer" : 0,
            "byteLength" : 3792,
            "byteOffset" : 231768
        },
        {
            "buffer" : 0,
            "byteLength" : 3792,
            "byteOffset" : 235560
        },
        {
            "buffer" : 0,
            "byteLength" : 2528,
            "byteOffset" : 239352
        },
        {
            "buffer" : 0,
            "byteLength" : 2304,
            "byteOffset" : 241880
        },
        {
            "buffer" : 0,
            "byteLength" : 15720,
            "byteOffset" : 244184
        },
        {
            "buffer" : 0,
            "byteLength" : 15720,
            "byteOffset" : 259904
        },
        {
            "buffer" : 0,
            "byteLength" : 10480,
            "byteOffset" : 275624
        },
        {
            "buffer" : 0,
            "byteLength" : 6264,
            "byteOffset" : 286104
        },
        {
            "buffer" : 0,
            "byteLength" : 5616,
            "byteOffset" : 292368
        },
        {
            "buffer" : 0,
            "byteLength" : 5616,
            "byteOffset" : 297984
        },
        {
            "buffer" : 0,
            "byteLength" : 3744,
            "byteOffset" : 303600
        },
        {
            "buffer" : 0,
            "byteLength" : 4836,
            "byteOffset" : 307344
        },
        {
            "buffer" : 0,
            "byteLength" : 1488,
            "byteOffset" : 312180
        },
        {
            "buffer" : 0,
            "byteLength" : 1488,
            "byteOffset" : 313668
        },
        {
            "buffer" : 0,
            "byteLength" : 992,
            "byteOffset" : 315156
        },
        {
            "buffer" : 0,
            "byteLength" : 372,
            "byteOffset" : 316148
        },
        {
            "buffer" : 0,
            "byteLength" : 1680,
            "byteOffset" : 316520
        },
        {
            "buffer" : 0,
            "byteLength" : 1680,
            "byteOffset" : 318200
        },
        {
            "buffer" : 0,
            "byteLength" : 1120,
            "byteOffset" : 319880
        },
        {
            "buffer" : 0,
            "byteLength" : 780,
            "byteOffset" : 321000
        }
    ],
    "samplers" : [
        {
            "magFilter" : 9729,
            "minFilter" : 9987
        }
    ],
    "buffers" : [
        {
            "byteLength" : 321780,
            "uri" : "data:application/octet-stream;base64,"
        }
    ]
}
