{
    "asset" : {
        "copyright" : "Jeremy Edelblut",
        "generator" : "Khronos glTF Blender I/O v1.7.33",
        "version" : "2.0"
    },
    "scene" : 0,
    "scenes" : [
        {
            "name" : "Scene",
            "nodes" : [
                0,
                1
            ]
        }
    ],
    "nodes" : [
        {
            "mesh" : 0,
            "name" : "Cube.100"
        },
        {
            "mesh" : 1,
            "name" : "3moji.org.021",
            "rotation" : [
                0.0033541785087436438,
                -0.7070988416671753,
                0.7070989012718201,
                -0.0033541617449373007
            ],
            "scale" : [
                0.002198697766289115,
                0.002198697766289115,
                0.002198697766289115
            ],
            "translation" : [
                -0.6741863489151001,
                0.26710835099220276,
                0.006453735753893852
            ]
        }
    ],
    "materials" : [
        {
            "doubleSided" : true,
            "name" : "skin_tone_one",
            "pbrMetallicRoughness" : {
                "baseColorTexture" : {
                    "index" : 0
                },
                "metallicFactor" : 0,
                "roughnessFactor" : 0.5
            }
        },
        {
            "doubleSided" : true,
            "name" : "color",
            "pbrMetallicRoughness" : {
                "baseColorTexture" : {
                    "index" : 1
                },
                "metallicFactor" : 0,
                "roughnessFactor" : 0.5
            }
        }
    ],
    "meshes" : [
        {
            "name" : "Cube.235",
            "primitives" : [
                {
                    "attributes" : {
                        "POSITION" : 0,
                        "NORMAL" : 1,
                        "TEXCOORD_0" : 2
                    },
                    "indices" : 3,
                    "material" : 0
                }
            ]
        },
        {
            "name" : "Cube.107",
            "primitives" : [
                {
                    "attributes" : {
                        "POSITION" : 4,
                        "NORMAL" : 5,
                        "TEXCOORD_0" : 6
                    },
                    "indices" : 7,
                    "material" : 1
                }
            ]
        }
    ],
    "textures" : [
        {
            "sampler" : 0,
            "source" : 0
        },
        {
            "sampler" : 0,
            "source" : 0
        }
    ],
    "images" : [
        {
            "bufferView" : 4,
            "mimeType" : "image/png",
            "name" : "tex"
        }
    ],
    "accessors" : [
        {
            "bufferView" : 0,
            "componentType" : 5126,
            "count" : 5822,
            "max" : [
                0.6126785278320312,
                0.8573442101478577,
                0.6192349791526794
            ],
            "min" : [
                -0.6781306862831116,
                -0.8801449537277222,
                -0.18227657675743103
            ],
            "type" : "VEC3"
        },
        {
            "bufferView" : 1,
            "componentType" : 5126,
            "count" : 5822,
            "type" : "VEC3"
        },
        {
            "bufferView" : 2,
            "componentType" : 5126,
            "count" : 5822,
            "type" : "VEC2"
        },
        {
            "bufferView" : 3,
            "componentType" : 5123,
            "count" : 34080,
            "type" : "SCALAR"
        },
        {
            "bufferView" : 5,
            "componentType" : 5126,
            "count" : 752,
            "max" : [
                1.2953357696533203,
                7.90000057220459,
                17.240537643432617
            ],
            "min" : [
                2.8697024390567094e-05,
                -1.8999989032745361,
                -19.159460067749023
            ],
            "type" : "VEC3"
        },
        {
            "bufferView" : 6,
            "componentType" : 5126,
            "count" : 752,
            "type" : "VEC3"
        },
        {
            "bufferView" : 7,
            "componentType" : 5126,
            "count" : 752,
            "type" : "VEC2"
        },
        {
            "bufferView" : 8,
            "componentType" : 5123,
            "count" : 1680,
            "type" : "SCALAR"
        }
    ],
    "bufferViews" : [
        {
            "buffer" : 0,
            "byteLength" : 69864,
            "byteOffset" : 0
        },
        {
            "buffer" : 0,
            "byteLength" : 69864,
            "byteOffset" : 69864
        },
        {
            "buffer" : 0,
            "byteLength" : 46576,
            "byteOffset" : 139728
        },
        {
            "buffer" : 0,
            "byteLength" : 68160,
            "byteOffset" : 186304
        },
        {
            "buffer" : 0,
            "byteLength" : 11997,
            "byteOffset" : 254464
        },
        {
            "buffer" : 0,
            "byteLength" : 9024,
            "byteOffset" : 266464
        },
        {
            "buffer" : 0,
            "byteLength" : 9024,
            "byteOffset" : 275488
        },
        {
            "buffer" : 0,
            "byteLength" : 6016,
            "byteOffset" : 284512
        },
        {
            "buffer" : 0,
            "byteLength" : 3360,
            "byteOffset" : 290528
        }
    ],
    "samplers" : [
        {
            "magFilter" : 9729,
            "minFilter" : 9987
        }
    ],
    "buffers" : [
        {
            "byteLength" : 293888,
            "uri" : "data:application/octet-stream;base64,"
        }
    ]
}
