{
    "asset" : {
        "copyright" : "Jeremy Edelblut - 3moji.org",
        "generator" : "Khronos glTF Blender I/O v1.6.16",
        "version" : "2.0"
    },
    "scene" : 0,
    "scenes" : [
        {
            "name" : "Scene",
            "nodes" : [
                0
            ]
        }
    ],
    "nodes" : [
        {
            "mesh" : 0,
            "name" : "Tired Face",
            "rotation" : [
                0.7071068286895752,
                0,
                0,
                0.7071068286895752
            ]
        }
    ],
    "materials" : [
        {
            "doubleSided" : true,
            "name" : "Color",
            "pbrMetallicRoughness" : {
                "baseColorTexture" : {
                    "index" : 0
                },
                "metallicFactor" : 0,
                "roughnessFactor" : 0.5
            }
        },
        {
            "doubleSided" : true,
            "name" : "Yellow_body",
            "pbrMetallicRoughness" : {
                "baseColorTexture" : {
                    "index" : 1
                },
                "metallicFactor" : 0,
                "roughnessFactor" : 0.5
            }
        }
    ],
    "meshes" : [
        {
            "name" : "Circle.214",
            "primitives" : [
                {
                    "attributes" : {
                        "POSITION" : 0,
                        "NORMAL" : 1,
                        "TEXCOORD_0" : 2
                    },
                    "indices" : 3,
                    "material" : 0
                },
                {
                    "attributes" : {
                        "POSITION" : 4,
                        "NORMAL" : 5,
                        "TEXCOORD_0" : 6
                    },
                    "indices" : 7,
                    "material" : 1
                },
                {
                    "attributes" : {
                        "POSITION" : 8,
                        "NORMAL" : 9,
                        "TEXCOORD_0" : 10
                    },
                    "indices" : 11
                }
            ]
        }
    ],
    "textures" : [
        {
            "sampler" : 0,
            "source" : 0
        },
        {
            "sampler" : 0,
            "source" : 1
        }
    ],
    "images" : [
        {
            "bufferView" : 4,
            "mimeType" : "image/png",
            "name" : "tex2"
        },
        {
            "bufferView" : 9,
            "mimeType" : "image/png",
            "name" : "Rectangle 863"
        }
    ],
    "accessors" : [
        {
            "bufferView" : 0,
            "componentType" : 5126,
            "count" : 1788,
            "max" : [
                0.49267467856407166,
                0.8537498116493225,
                0.5686126351356506
            ],
            "min" : [
                -0.49267467856407166,
                -0.853781521320343,
                -0.6138139963150024
            ],
            "type" : "VEC3"
        },
        {
            "bufferView" : 1,
            "componentType" : 5126,
            "count" : 1788,
            "type" : "VEC3"
        },
        {
            "bufferView" : 2,
            "componentType" : 5126,
            "count" : 1788,
            "type" : "VEC2"
        },
        {
            "bufferView" : 3,
            "componentType" : 5123,
            "count" : 5802,
            "type" : "SCALAR"
        },
        {
            "bufferView" : 5,
            "componentType" : 5126,
            "count" : 1560,
            "max" : [
                0.8433593511581421,
                0.8446488380432129,
                0.8446488380432129
            ],
            "min" : [
                -0.8459383249282837,
                -0.8446488380432129,
                -0.8446488380432129
            ],
            "type" : "VEC3"
        },
        {
            "bufferView" : 6,
            "componentType" : 5126,
            "count" : 1560,
            "type" : "VEC3"
        },
        {
            "bufferView" : 7,
            "componentType" : 5126,
            "count" : 1560,
            "type" : "VEC2"
        },
        {
            "bufferView" : 8,
            "componentType" : 5123,
            "count" : 9096,
            "type" : "SCALAR"
        },
        {
            "bufferView" : 10,
            "componentType" : 5126,
            "count" : 60,
            "max" : [
                0.5844206213951111,
                0.8210768699645996,
                0.2418038696050644
            ],
            "min" : [
                -0.5869995951652527,
                0.40772733092308044,
                -0.1672738939523697
            ],
            "type" : "VEC3"
        },
        {
            "bufferView" : 11,
            "componentType" : 5126,
            "count" : 60,
            "type" : "VEC3"
        },
        {
            "bufferView" : 12,
            "componentType" : 5126,
            "count" : 60,
            "type" : "VEC2"
        },
        {
            "bufferView" : 13,
            "componentType" : 5123,
            "count" : 168,
            "type" : "SCALAR"
        }
    ],
    "bufferViews" : [
        {
            "buffer" : 0,
            "byteLength" : 21456,
            "byteOffset" : 0
        },
        {
            "buffer" : 0,
            "byteLength" : 21456,
            "byteOffset" : 21456
        },
        {
            "buffer" : 0,
            "byteLength" : 14304,
            "byteOffset" : 42912
        },
        {
            "buffer" : 0,
            "byteLength" : 11604,
            "byteOffset" : 57216
        },
        {
            "buffer" : 0,
            "byteLength" : 6478,
            "byteOffset" : 68820
        },
        {
            "buffer" : 0,
            "byteLength" : 18720,
            "byteOffset" : 75300
        },
        {
            "buffer" : 0,
            "byteLength" : 18720,
            "byteOffset" : 94020
        },
        {
            "buffer" : 0,
            "byteLength" : 12480,
            "byteOffset" : 112740
        },
        {
            "buffer" : 0,
            "byteLength" : 18192,
            "byteOffset" : 125220
        },
        {
            "buffer" : 0,
            "byteLength" : 85292,
            "byteOffset" : 143412
        },
        {
            "buffer" : 0,
            "byteLength" : 720,
            "byteOffset" : 228704
        },
        {
            "buffer" : 0,
            "byteLength" : 720,
            "byteOffset" : 229424
        },
        {
            "buffer" : 0,
            "byteLength" : 480,
            "byteOffset" : 230144
        },
        {
            "buffer" : 0,
            "byteLength" : 336,
            "byteOffset" : 230624
        }
    ],
    "samplers" : [
        {
            "magFilter" : 9729,
            "minFilter" : 9987
        }
    ],
    "buffers" : [
        {
            "byteLength" : 230960,
            "uri" : "data:application/octet-stream;base64,"
        }
    ]
}
