{
    "asset" : {
        "copyright" : "Jeremy Edelblut - 3moji.org",
        "generator" : "Khronos glTF Blender I/O v1.7.33",
        "version" : "2.0"
    },
    "scene" : 1,
    "scenes" : [
        {
            "name" : "FBX_Temp",
            "nodes" : [
                0
            ]
        },
        {
            "name" : "Scene",
            "nodes" : [
                1,
                2,
                3,
                4
            ]
        }
    ],
    "nodes" : [
        {
            "mesh" : 0,
            "name" : "3moji.064",
            "rotation" : [
                0,
                -0.7071068286895752,
                0,
                0.7071068286895752
            ]
        },
        {
            "mesh" : 1,
            "name" : "Cube.479"
        },
        {
            "mesh" : 2,
            "name" : "Cube.497"
        },
        {
            "mesh" : 3,
            "name" : "Cube.499"
        },
        {
            "mesh" : 4,
            "name" : "Cube.777"
        }
    ],
    "materials" : [
        {
            "doubleSided" : true,
            "name" : "color",
            "pbrMetallicRoughness" : {
                "baseColorTexture" : {
                    "index" : 0
                },
                "metallicFactor" : 0,
                "roughnessFactor" : 0.5
            }
        }
    ],
    "meshes" : [
        {
            "name" : "Cube.417",
            "primitives" : [
                {
                    "attributes" : {
                        "POSITION" : 0,
                        "NORMAL" : 1,
                        "TEXCOORD_0" : 2
                    },
                    "indices" : 3,
                    "material" : 0
                }
            ]
        },
        {
            "name" : "Cube.877",
            "primitives" : [
                {
                    "attributes" : {
                        "POSITION" : 4,
                        "NORMAL" : 5,
                        "TEXCOORD_0" : 6
                    },
                    "indices" : 7,
                    "material" : 0
                }
            ]
        },
        {
            "name" : "Cube.827",
            "primitives" : [
                {
                    "attributes" : {
                        "POSITION" : 8,
                        "NORMAL" : 9,
                        "TEXCOORD_0" : 10
                    },
                    "indices" : 11,
                    "material" : 0
                }
            ]
        },
        {
            "name" : "Cube.828",
            "primitives" : [
                {
                    "attributes" : {
                        "POSITION" : 12,
                        "NORMAL" : 13,
                        "TEXCOORD_0" : 14
                    },
                    "indices" : 15,
                    "material" : 0
                }
            ]
        },
        {
            "name" : "Cube.7657",
            "primitives" : [
                {
                    "attributes" : {
                        "POSITION" : 16,
                        "NORMAL" : 17,
                        "TEXCOORD_0" : 18
                    },
                    "indices" : 19,
                    "material" : 0
                }
            ]
        }
    ],
    "textures" : [
        {
            "sampler" : 0,
            "source" : 0
        }
    ],
    "images" : [
        {
            "bufferView" : 4,
            "mimeType" : "image/png",
            "name" : "tex"
        }
    ],
    "accessors" : [
        {
            "bufferView" : 0,
            "componentType" : 5126,
            "count" : 752,
            "max" : [
                -0.8264395594596863,
                0.05719918757677078,
                0.13795676827430725
            ],
            "min" : [
                -0.8543609976768494,
                -0.014034310355782509,
                -0.12436223030090332
            ],
            "type" : "VEC3"
        },
        {
            "bufferView" : 1,
            "componentType" : 5126,
            "count" : 752,
            "type" : "VEC3"
        },
        {
            "bufferView" : 2,
            "componentType" : 5126,
            "count" : 752,
            "type" : "VEC2"
        },
        {
            "bufferView" : 3,
            "componentType" : 5123,
            "count" : 1680,
            "type" : "SCALAR"
        },
        {
            "bufferView" : 5,
            "componentType" : 5126,
            "count" : 15974,
            "max" : [
                0.46164727210998535,
                0.19287408888339996,
                0.46165260672569275
            ],
            "min" : [
                -0.4616542458534241,
                -1.1303447484970093,
                -0.46164897084236145
            ],
            "type" : "VEC3"
        },
        {
            "bufferView" : 6,
            "componentType" : 5126,
            "count" : 15974,
            "type" : "VEC3"
        },
        {
            "bufferView" : 7,
            "componentType" : 5126,
            "count" : 15974,
            "type" : "VEC2"
        },
        {
            "bufferView" : 8,
            "componentType" : 5123,
            "count" : 24000,
            "type" : "SCALAR"
        },
        {
            "bufferView" : 9,
            "componentType" : 5126,
            "count" : 20,
            "max" : [
                0.012734911404550076,
                1.2277833223342896,
                0.012734911404550076
            ],
            "min" : [
                -0.012734911404550076,
                0.9571202397346497,
                -0.012734911404550076
            ],
            "type" : "VEC3"
        },
        {
            "bufferView" : 10,
            "componentType" : 5126,
            "count" : 20,
            "type" : "VEC3"
        },
        {
            "bufferView" : 11,
            "componentType" : 5126,
            "count" : 20,
            "type" : "VEC2"
        },
        {
            "bufferView" : 12,
            "componentType" : 5123,
            "count" : 30,
            "type" : "SCALAR"
        },
        {
            "bufferView" : 13,
            "componentType" : 5126,
            "count" : 24,
            "max" : [
                0.28582677245140076,
                -0.3044765889644623,
                0.28582677245140076
            ],
            "min" : [
                -0.28582677245140076,
                -0.4605602025985718,
                -0.28582677245140076
            ],
            "type" : "VEC3"
        },
        {
            "bufferView" : 14,
            "componentType" : 5126,
            "count" : 24,
            "type" : "VEC3"
        },
        {
            "bufferView" : 15,
            "componentType" : 5126,
            "count" : 24,
            "type" : "VEC2"
        },
        {
            "bufferView" : 16,
            "componentType" : 5123,
            "count" : 36,
            "type" : "SCALAR"
        },
        {
            "bufferView" : 17,
            "componentType" : 5126,
            "count" : 8608,
            "max" : [
                0.17329247295856476,
                0.9827204346656799,
                0.17329247295856476
            ],
            "min" : [
                -0.17329247295856476,
                0.1717979907989502,
                -0.17329247295856476
            ],
            "type" : "VEC3"
        },
        {
            "bufferView" : 18,
            "componentType" : 5126,
            "count" : 8608,
            "type" : "VEC3"
        },
        {
            "bufferView" : 19,
            "componentType" : 5126,
            "count" : 8608,
            "type" : "VEC2"
        },
        {
            "bufferView" : 20,
            "componentType" : 5123,
            "count" : 12912,
            "type" : "SCALAR"
        }
    ],
    "bufferViews" : [
        {
            "buffer" : 0,
            "byteLength" : 9024,
            "byteOffset" : 0
        },
        {
            "buffer" : 0,
            "byteLength" : 9024,
            "byteOffset" : 9024
        },
        {
            "buffer" : 0,
            "byteLength" : 6016,
            "byteOffset" : 18048
        },
        {
            "buffer" : 0,
            "byteLength" : 3360,
            "byteOffset" : 24064
        },
        {
            "buffer" : 0,
            "byteLength" : 11997,
            "byteOffset" : 27424
        },
        {
            "buffer" : 0,
            "byteLength" : 191688,
            "byteOffset" : 39424
        },
        {
            "buffer" : 0,
            "byteLength" : 191688,
            "byteOffset" : 231112
        },
        {
            "buffer" : 0,
            "byteLength" : 127792,
            "byteOffset" : 422800
        },
        {
            "buffer" : 0,
            "byteLength" : 48000,
            "byteOffset" : 550592
        },
        {
            "buffer" : 0,
            "byteLength" : 240,
            "byteOffset" : 598592
        },
        {
            "buffer" : 0,
            "byteLength" : 240,
            "byteOffset" : 598832
        },
        {
            "buffer" : 0,
            "byteLength" : 160,
            "byteOffset" : 599072
        },
        {
            "buffer" : 0,
            "byteLength" : 60,
            "byteOffset" : 599232
        },
        {
            "buffer" : 0,
            "byteLength" : 288,
            "byteOffset" : 599292
        },
        {
            "buffer" : 0,
            "byteLength" : 288,
            "byteOffset" : 599580
        },
        {
            "buffer" : 0,
            "byteLength" : 192,
            "byteOffset" : 599868
        },
        {
            "buffer" : 0,
            "byteLength" : 72,
            "byteOffset" : 600060
        },
        {
            "buffer" : 0,
            "byteLength" : 103296,
            "byteOffset" : 600132
        },
        {
            "buffer" : 0,
            "byteLength" : 103296,
            "byteOffset" : 703428
        },
        {
            "buffer" : 0,
            "byteLength" : 68864,
            "byteOffset" : 806724
        },
        {
            "buffer" : 0,
            "byteLength" : 25824,
            "byteOffset" : 875588
        }
    ],
    "samplers" : [
        {
            "magFilter" : 9729,
            "minFilter" : 9987
        }
    ],
    "buffers" : [
        {
            "byteLength" : 901412,
            "uri" : "data:application/octet-stream;base64,"
        }
    ]
}
