{
    "asset" : {
        "copyright" : "Jeremy Edelblut",
        "generator" : "Khronos glTF Blender I/O v1.6.16",
        "version" : "2.0"
    },
    "scene" : 0,
    "scenes" : [
        {
            "name" : "Scene",
            "nodes" : [
                0,
                1
            ]
        }
    ],
    "nodes" : [
        {
            "mesh" : 0,
            "name" : "Cube.106",
            "rotation" : [
                0,
                -0.7071068286895752,
                0,
                0.7071067094802856
            ],
            "scale" : [
                1.0705540180206299,
                1.0705540180206299,
                1.0705540180206299
            ],
            "translation" : [
                0,
                -0.03357896953821182,
                0
            ]
        },
        {
            "mesh" : 1,
            "name" : "3moji.org.044",
            "rotation" : [
                0.026992620900273323,
                -0.7065916657447815,
                0.026992643252015114,
                -0.7065911293029785
            ],
            "scale" : [
                0.0024026501923799515,
                0.0024026501923799515,
                0.002402650425210595
            ],
            "translation" : [
                -0.0032723993062973022,
                0.23046565055847168,
                -0.5730319023132324
            ]
        }
    ],
    "materials" : [
        {
            "doubleSided" : true,
            "name" : "Color",
            "pbrMetallicRoughness" : {
                "baseColorTexture" : {
                    "index" : 0
                },
                "metallicFactor" : 0,
                "roughnessFactor" : 0.5
            }
        }
    ],
    "meshes" : [
        {
            "name" : "Cube.200",
            "primitives" : [
                {
                    "attributes" : {
                        "POSITION" : 0,
                        "NORMAL" : 1,
                        "TEXCOORD_0" : 2
                    },
                    "indices" : 3,
                    "material" : 0
                }
            ]
        },
        {
            "name" : "Cube.348",
            "primitives" : [
                {
                    "attributes" : {
                        "POSITION" : 4,
                        "NORMAL" : 5,
                        "TEXCOORD_0" : 6
                    },
                    "indices" : 7
                }
            ]
        }
    ],
    "textures" : [
        {
            "sampler" : 0,
            "source" : 0
        }
    ],
    "images" : [
        {
            "bufferView" : 4,
            "mimeType" : "image/png",
            "name" : "tex2"
        }
    ],
    "accessors" : [
        {
            "bufferView" : 0,
            "componentType" : 5126,
            "count" : 962,
            "max" : [
                0.7320947647094727,
                0.9992885589599609,
                0.9928234815597534
            ],
            "min" : [
                -0.7343809604644775,
                -1.0695815086364746,
                -0.9924167990684509
            ],
            "type" : "VEC3"
        },
        {
            "bufferView" : 1,
            "componentType" : 5126,
            "count" : 962,
            "type" : "VEC3"
        },
        {
            "bufferView" : 2,
            "componentType" : 5126,
            "count" : 962,
            "type" : "VEC2"
        },
        {
            "bufferView" : 3,
            "componentType" : 5123,
            "count" : 5760,
            "type" : "SCALAR"
        },
        {
            "bufferView" : 5,
            "componentType" : 5126,
            "count" : 752,
            "max" : [
                1.2953357696533203,
                7.90000057220459,
                17.240537643432617
            ],
            "min" : [
                2.8697024390567094e-05,
                -1.8999989032745361,
                -19.159460067749023
            ],
            "type" : "VEC3"
        },
        {
            "bufferView" : 6,
            "componentType" : 5126,
            "count" : 752,
            "type" : "VEC3"
        },
        {
            "bufferView" : 7,
            "componentType" : 5126,
            "count" : 752,
            "type" : "VEC2"
        },
        {
            "bufferView" : 8,
            "componentType" : 5123,
            "count" : 1680,
            "type" : "SCALAR"
        }
    ],
    "bufferViews" : [
        {
            "buffer" : 0,
            "byteLength" : 11544,
            "byteOffset" : 0
        },
        {
            "buffer" : 0,
            "byteLength" : 11544,
            "byteOffset" : 11544
        },
        {
            "buffer" : 0,
            "byteLength" : 7696,
            "byteOffset" : 23088
        },
        {
            "buffer" : 0,
            "byteLength" : 11520,
            "byteOffset" : 30784
        },
        {
            "buffer" : 0,
            "byteLength" : 6474,
            "byteOffset" : 42304
        },
        {
            "buffer" : 0,
            "byteLength" : 9024,
            "byteOffset" : 48780
        },
        {
            "buffer" : 0,
            "byteLength" : 9024,
            "byteOffset" : 57804
        },
        {
            "buffer" : 0,
            "byteLength" : 6016,
            "byteOffset" : 66828
        },
        {
            "buffer" : 0,
            "byteLength" : 3360,
            "byteOffset" : 72844
        }
    ],
    "samplers" : [
        {
            "magFilter" : 9729,
            "minFilter" : 9987
        }
    ],
    "buffers" : [
        {
            "byteLength" : 76204,
            "uri" : "data:application/octet-stream;base64,"
        }
    ]
}
