{
    "asset" : {
        "copyright" : "Jeremy Edelblut",
        "generator" : "Khronos glTF Blender I/O v1.6.16",
        "version" : "2.0"
    },
    "scene" : 0,
    "scenes" : [
        {
            "name" : "Scene",
            "nodes" : [
                0,
                1,
                2,
                3,
                4
            ]
        }
    ],
    "nodes" : [
        {
            "mesh" : 0,
            "name" : "Circle.2385",
            "rotation" : [
                -0.7071068286895752,
                0,
                0,
                0.7071068286895752
            ],
            "scale" : [
                0.4696960151195526,
                0.4696960151195526,
                0.4696960151195526
            ],
            "translation" : [
                0.44824427366256714,
                -0.09738605469465256,
                0
            ]
        },
        {
            "mesh" : 1,
            "name" : "Circle.2386",
            "scale" : [
                0.0640813335776329,
                0.0640813335776329,
                0.0640813335776329
            ],
            "translation" : [
                -0.08343970775604248,
                0.036843471229076385,
                0.43437638878822327
            ]
        },
        {
            "mesh" : 2,
            "name" : "Cube.591",
            "scale" : [
                0.4696960151195526,
                0.4696960151195526,
                0.4696960151195526
            ],
            "translation" : [
                0.44824427366256714,
                -0.09738605469465256,
                0
            ]
        },
        {
            "mesh" : 3,
            "name" : "Cube.592",
            "scale" : [
                0.4696960151195526,
                0.4696960151195526,
                0.4696960151195526
            ],
            "translation" : [
                -0.051717355847358704,
                -0.4285423755645752,
                -0.3961459696292877
            ]
        },
        {
            "mesh" : 4,
            "name" : "Cube.593",
            "scale" : [
                0.4696960151195526,
                0.4696960151195526,
                0.4696960151195526
            ],
            "translation" : [
                0.44824427366256714,
                -0.09738605469465256,
                0
            ]
        }
    ],
    "materials" : [
        {
            "doubleSided" : true,
            "name" : "Color",
            "pbrMetallicRoughness" : {
                "baseColorTexture" : {
                    "index" : 0
                },
                "metallicFactor" : 0,
                "roughnessFactor" : 0.5
            }
        }
    ],
    "meshes" : [
        {
            "name" : "Circle.2936",
            "primitives" : [
                {
                    "attributes" : {
                        "POSITION" : 0,
                        "NORMAL" : 1,
                        "TEXCOORD_0" : 2
                    },
                    "indices" : 3,
                    "material" : 0
                }
            ]
        },
        {
            "name" : "Circle.2937",
            "primitives" : [
                {
                    "attributes" : {
                        "POSITION" : 4,
                        "NORMAL" : 5,
                        "TEXCOORD_0" : 6
                    },
                    "indices" : 7,
                    "material" : 0
                }
            ]
        },
        {
            "name" : "Cube.7488",
            "primitives" : [
                {
                    "attributes" : {
                        "POSITION" : 8,
                        "NORMAL" : 9,
                        "TEXCOORD_0" : 10
                    },
                    "indices" : 11,
                    "material" : 0
                }
            ]
        },
        {
            "name" : "Cube.7489",
            "primitives" : [
                {
                    "attributes" : {
                        "POSITION" : 12,
                        "NORMAL" : 13,
                        "TEXCOORD_0" : 14
                    },
                    "indices" : 15,
                    "material" : 0
                }
            ]
        },
        {
            "name" : "Cube.7490",
            "primitives" : [
                {
                    "attributes" : {
                        "POSITION" : 16,
                        "NORMAL" : 17,
                        "TEXCOORD_0" : 18
                    },
                    "indices" : 19,
                    "material" : 0
                }
            ]
        }
    ],
    "textures" : [
        {
            "sampler" : 0,
            "source" : 0
        }
    ],
    "images" : [
        {
            "bufferView" : 4,
            "mimeType" : "image/png",
            "name" : "tex"
        }
    ],
    "accessors" : [
        {
            "bufferView" : 0,
            "componentType" : 5126,
            "count" : 7268,
            "max" : [
                1.3494442701339722,
                1.5235849618911743,
                0.62242591381073
            ],
            "min" : [
                -2.8822784423828125,
                -1.5235849618911743,
                -1.4840749502182007
            ],
            "type" : "VEC3"
        },
        {
            "bufferView" : 1,
            "componentType" : 5126,
            "count" : 7268,
            "type" : "VEC3"
        },
        {
            "bufferView" : 2,
            "componentType" : 5126,
            "count" : 7268,
            "type" : "VEC2"
        },
        {
            "bufferView" : 3,
            "componentType" : 5123,
            "count" : 17280,
            "type" : "SCALAR"
        },
        {
            "bufferView" : 5,
            "componentType" : 5126,
            "count" : 253,
            "max" : [
                1,
                12.994842529296875,
                1
            ],
            "min" : [
                -1,
                -1.881935954093933,
                -1.970834493637085
            ],
            "type" : "VEC3"
        },
        {
            "bufferView" : 6,
            "componentType" : 5126,
            "count" : 253,
            "type" : "VEC3"
        },
        {
            "bufferView" : 7,
            "componentType" : 5126,
            "count" : 253,
            "type" : "VEC2"
        },
        {
            "bufferView" : 8,
            "componentType" : 5123,
            "count" : 960,
            "type" : "SCALAR"
        },
        {
            "bufferView" : 9,
            "componentType" : 5126,
            "count" : 1120,
            "max" : [
                1.2839179039001465,
                1.9264661073684692,
                1.4532701969146729
            ],
            "min" : [
                -3.470021963119507,
                -1.0730050802230835,
                -1.4532701969146729
            ],
            "type" : "VEC3"
        },
        {
            "bufferView" : 10,
            "componentType" : 5126,
            "count" : 1120,
            "type" : "VEC3"
        },
        {
            "bufferView" : 11,
            "componentType" : 5126,
            "count" : 1120,
            "type" : "VEC2"
        },
        {
            "bufferView" : 12,
            "componentType" : 5123,
            "count" : 3162,
            "type" : "SCALAR"
        },
        {
            "bufferView" : 13,
            "componentType" : 5126,
            "count" : 72,
            "max" : [
                0.2904396951198578,
                0.6386735439300537,
                0.29151952266693115
            ],
            "min" : [
                -0.35444480180740356,
                -0.047821737825870514,
                -0.19250352680683136
            ],
            "type" : "VEC3"
        },
        {
            "bufferView" : 14,
            "componentType" : 5126,
            "count" : 72,
            "type" : "VEC3"
        },
        {
            "bufferView" : 15,
            "componentType" : 5126,
            "count" : 72,
            "type" : "VEC2"
        },
        {
            "bufferView" : 16,
            "componentType" : 5123,
            "count" : 108,
            "type" : "SCALAR"
        },
        {
            "bufferView" : 17,
            "componentType" : 5126,
            "count" : 172,
            "max" : [
                -2.7601523399353027,
                0.1323062926530838,
                0.4563271403312683
            ],
            "min" : [
                -2.9228131771087646,
                -0.5224992632865906,
                -0.4563271403312683
            ],
            "type" : "VEC3"
        },
        {
            "bufferView" : 18,
            "componentType" : 5126,
            "count" : 172,
            "type" : "VEC3"
        },
        {
            "bufferView" : 19,
            "componentType" : 5126,
            "count" : 172,
            "type" : "VEC2"
        },
        {
            "bufferView" : 20,
            "componentType" : 5123,
            "count" : 444,
            "type" : "SCALAR"
        }
    ],
    "bufferViews" : [
        {
            "buffer" : 0,
            "byteLength" : 87216,
            "byteOffset" : 0
        },
        {
            "buffer" : 0,
            "byteLength" : 87216,
            "byteOffset" : 87216
        },
        {
            "buffer" : 0,
            "byteLength" : 58144,
            "byteOffset" : 174432
        },
        {
            "buffer" : 0,
            "byteLength" : 34560,
            "byteOffset" : 232576
        },
        {
            "buffer" : 0,
            "byteLength" : 3214,
            "byteOffset" : 267136
        },
        {
            "buffer" : 0,
            "byteLength" : 3036,
            "byteOffset" : 270352
        },
        {
            "buffer" : 0,
            "byteLength" : 3036,
            "byteOffset" : 273388
        },
        {
            "buffer" : 0,
            "byteLength" : 2024,
            "byteOffset" : 276424
        },
        {
            "buffer" : 0,
            "byteLength" : 1920,
            "byteOffset" : 278448
        },
        {
            "buffer" : 0,
            "byteLength" : 13440,
            "byteOffset" : 280368
        },
        {
            "buffer" : 0,
            "byteLength" : 13440,
            "byteOffset" : 293808
        },
        {
            "buffer" : 0,
            "byteLength" : 8960,
            "byteOffset" : 307248
        },
        {
            "buffer" : 0,
            "byteLength" : 6324,
            "byteOffset" : 316208
        },
        {
            "buffer" : 0,
            "byteLength" : 864,
            "byteOffset" : 322532
        },
        {
            "buffer" : 0,
            "byteLength" : 864,
            "byteOffset" : 323396
        },
        {
            "buffer" : 0,
            "byteLength" : 576,
            "byteOffset" : 324260
        },
        {
            "buffer" : 0,
            "byteLength" : 216,
            "byteOffset" : 324836
        },
        {
            "buffer" : 0,
            "byteLength" : 2064,
            "byteOffset" : 325052
        },
        {
            "buffer" : 0,
            "byteLength" : 2064,
            "byteOffset" : 327116
        },
        {
            "buffer" : 0,
            "byteLength" : 1376,
            "byteOffset" : 329180
        },
        {
            "buffer" : 0,
            "byteLength" : 888,
            "byteOffset" : 330556
        }
    ],
    "samplers" : [
        {
            "magFilter" : 9729,
            "minFilter" : 9987
        }
    ],
    "buffers" : [
        {
            "byteLength" : 331444,
            "uri" : "data:application/octet-stream;base64,"
        }
    ]
}
