{
    "asset" : {
        "copyright" : "Jeremy Edelblut",
        "generator" : "Khronos glTF Blender I/O v1.6.16",
        "version" : "2.0"
    },
    "scene" : 0,
    "scenes" : [
        {
            "name" : "Scene",
            "nodes" : [
                0
            ]
        }
    ],
    "nodes" : [
        {
            "mesh" : 0,
            "name" : "Circle.280",
            "rotation" : [
                0,
                0.7071068286895752,
                0,
                0.7071068286895752
            ],
            "scale" : [
                0.5597679615020752,
                0.5597679615020752,
                0.5597679615020752
            ]
        }
    ],
    "materials" : [
        {
            "doubleSided" : true,
            "name" : "Color",
            "pbrMetallicRoughness" : {
                "baseColorTexture" : {
                    "index" : 0
                },
                "metallicFactor" : 0,
                "roughnessFactor" : 0.5
            }
        }
    ],
    "meshes" : [
        {
            "name" : "Circle.311",
            "primitives" : [
                {
                    "attributes" : {
                        "POSITION" : 0,
                        "NORMAL" : 1,
                        "TEXCOORD_0" : 2
                    },
                    "indices" : 3,
                    "material" : 0
                }
            ]
        }
    ],
    "textures" : [
        {
            "sampler" : 0,
            "source" : 0
        }
    ],
    "images" : [
        {
            "bufferView" : 4,
            "mimeType" : "image/png",
            "name" : "tex2"
        }
    ],
    "accessors" : [
        {
            "bufferView" : 0,
            "componentType" : 5126,
            "count" : 2737,
            "max" : [
                1.1780949831008911,
                1.845538854598999,
                1.6285786628723145
            ],
            "min" : [
                -1.1780949831008911,
                -1.8695359230041504,
                -1.6285786628723145
            ],
            "type" : "VEC3"
        },
        {
            "bufferView" : 1,
            "componentType" : 5126,
            "count" : 2737,
            "type" : "VEC3"
        },
        {
            "bufferView" : 2,
            "componentType" : 5126,
            "count" : 2737,
            "type" : "VEC2"
        },
        {
            "bufferView" : 3,
            "componentType" : 5123,
            "count" : 14664,
            "type" : "SCALAR"
        }
    ],
    "bufferViews" : [
        {
            "buffer" : 0,
            "byteLength" : 32844,
            "byteOffset" : 0
        },
        {
            "buffer" : 0,
            "byteLength" : 32844,
            "byteOffset" : 32844
        },
        {
            "buffer" : 0,
            "byteLength" : 21896,
            "byteOffset" : 65688
        },
        {
            "buffer" : 0,
            "byteLength" : 29328,
            "byteOffset" : 87584
        },
        {
            "buffer" : 0,
            "byteLength" : 6474,
            "byteOffset" : 116912
        }
    ],
    "samplers" : [
        {
            "magFilter" : 9729,
            "minFilter" : 9987
        }
    ],
    "buffers" : [
        {
            "byteLength" : 123388,
            "uri" : "data:application/octet-stream;base64,"
        }
    ]
}
