{
    "asset" : {
        "copyright" : "Jeremy Edelblut",
        "generator" : "Khronos glTF Blender I/O v1.6.16",
        "version" : "2.0"
    },
    "scene" : 0,
    "scenes" : [
        {
            "name" : "Scene",
            "nodes" : [
                0,
                1,
                2,
                3,
                4
            ]
        }
    ],
    "nodes" : [
        {
            "mesh" : 0,
            "name" : "Circle.1881",
            "rotation" : [
                0.6248971819877625,
                -0.3309132754802704,
                0.3309132754802704,
                0.6248971819877625
            ],
            "translation" : [
                -0.011843215674161911,
                -0.5997911095619202,
                0.057325877249240875
            ]
        },
        {
            "mesh" : 1,
            "name" : "Cube.6215",
            "rotation" : [
                0,
                -0.4679822027683258,
                0,
                0.8837378621101379
            ],
            "translation" : [
                -0.014997053891420364,
                -0.6373462080955505,
                0.059468671679496765
            ]
        },
        {
            "mesh" : 2,
            "name" : "Plane.113",
            "rotation" : [
                0,
                -0.4679822027683258,
                0,
                0.8837378621101379
            ],
            "translation" : [
                0.009502340108156204,
                -0.6373462080955505,
                0.04282314330339432
            ]
        },
        {
            "mesh" : 3,
            "name" : "Cylinder.358",
            "rotation" : [
                0.27296286821365356,
                -0.445099413394928,
                0.14454711973667145,
                0.8405259847640991
            ],
            "translation" : [
                -0.1544928401708603,
                0.42004382610321045,
                0.15424573421478271
            ]
        },
        {
            "mesh" : 4,
            "name" : "3moji.org.205",
            "rotation" : [
                0.25182271003723145,
                0.14942491054534912,
                0.8234723806381226,
                0.4859537184238434
            ],
            "translation" : [
                0.32399117946624756,
                -0.9524683952331543,
                -0.1573411524295807
            ]
        }
    ],
    "materials" : [
        {
            "doubleSided" : true,
            "name" : "Color",
            "pbrMetallicRoughness" : {
                "baseColorTexture" : {
                    "index" : 0
                },
                "metallicFactor" : 0,
                "roughnessFactor" : 0.5
            }
        }
    ],
    "meshes" : [
        {
            "name" : "Circle.2097",
            "primitives" : [
                {
                    "attributes" : {
                        "POSITION" : 0,
                        "NORMAL" : 1,
                        "TEXCOORD_0" : 2
                    },
                    "indices" : 3,
                    "material" : 0
                }
            ]
        },
        {
            "name" : "Cube.7270",
            "primitives" : [
                {
                    "attributes" : {
                        "POSITION" : 4,
                        "NORMAL" : 5,
                        "TEXCOORD_0" : 6
                    },
                    "indices" : 7,
                    "material" : 0
                }
            ]
        },
        {
            "name" : "Plane.114",
            "primitives" : [
                {
                    "attributes" : {
                        "POSITION" : 8,
                        "NORMAL" : 9,
                        "TEXCOORD_0" : 10
                    },
                    "indices" : 11,
                    "material" : 0
                }
            ]
        },
        {
            "name" : "Cylinder.313",
            "primitives" : [
                {
                    "attributes" : {
                        "POSITION" : 12,
                        "NORMAL" : 13,
                        "TEXCOORD_0" : 14
                    },
                    "indices" : 15,
                    "material" : 0
                }
            ]
        },
        {
            "name" : "Cube.665",
            "primitives" : [
                {
                    "attributes" : {
                        "POSITION" : 16,
                        "NORMAL" : 17,
                        "TEXCOORD_0" : 18
                    },
                    "indices" : 19,
                    "material" : 0
                }
            ]
        }
    ],
    "textures" : [
        {
            "sampler" : 0,
            "source" : 0
        }
    ],
    "images" : [
        {
            "bufferView" : 4,
            "mimeType" : "image/png",
            "name" : "tex"
        }
    ],
    "accessors" : [
        {
            "bufferView" : 0,
            "componentType" : 5126,
            "count" : 644,
            "max" : [
                0.26081883907318115,
                0.23568390309810638,
                -0.5647836923599243
            ],
            "min" : [
                -0.26081883907318115,
                0.055852968245744705,
                -0.7778363823890686
            ],
            "type" : "VEC3"
        },
        {
            "bufferView" : 1,
            "componentType" : 5126,
            "count" : 644,
            "type" : "VEC3"
        },
        {
            "bufferView" : 2,
            "componentType" : 5126,
            "count" : 644,
            "type" : "VEC2"
        },
        {
            "bufferView" : 3,
            "componentType" : 5123,
            "count" : 2880,
            "type" : "SCALAR"
        },
        {
            "bufferView" : 5,
            "componentType" : 5126,
            "count" : 744,
            "max" : [
                0.35427144169807434,
                1.3753418922424316,
                0.005500460043549538
            ],
            "min" : [
                -0.35427144169807434,
                1.0155035257339478,
                -0.17254327237606049
            ],
            "type" : "VEC3"
        },
        {
            "bufferView" : 6,
            "componentType" : 5126,
            "count" : 744,
            "type" : "VEC3"
        },
        {
            "bufferView" : 7,
            "componentType" : 5126,
            "count" : 744,
            "type" : "VEC2"
        },
        {
            "bufferView" : 8,
            "componentType" : 5123,
            "count" : 3504,
            "type" : "SCALAR"
        },
        {
            "bufferView" : 9,
            "componentType" : 5126,
            "count" : 917,
            "max" : [
                0.2408188283443451,
                1.4520199298858643,
                1.036757469177246
            ],
            "min" : [
                -0.24081885814666748,
                -0.5035881996154785,
                -1.2309210300445557
            ],
            "type" : "VEC3"
        },
        {
            "bufferView" : 10,
            "componentType" : 5126,
            "count" : 917,
            "type" : "VEC3"
        },
        {
            "bufferView" : 11,
            "componentType" : 5126,
            "count" : 917,
            "type" : "VEC2"
        },
        {
            "bufferView" : 12,
            "componentType" : 5123,
            "count" : 3408,
            "type" : "SCALAR"
        },
        {
            "bufferView" : 13,
            "componentType" : 5126,
            "count" : 336,
            "max" : [
                0.07479432970285416,
                0.8682150840759277,
                0.07479432225227356
            ],
            "min" : [
                -0.07479426264762878,
                5.5726094849717356e-09,
                -0.07479429990053177
            ],
            "type" : "VEC3"
        },
        {
            "bufferView" : 14,
            "componentType" : 5126,
            "count" : 336,
            "type" : "VEC3"
        },
        {
            "bufferView" : 15,
            "componentType" : 5126,
            "count" : 336,
            "type" : "VEC2"
        },
        {
            "bufferView" : 16,
            "componentType" : 5123,
            "count" : 1332,
            "type" : "SCALAR"
        },
        {
            "bufferView" : 17,
            "componentType" : 5126,
            "count" : 752,
            "max" : [
                0.007721957750618458,
                0.04709471017122269,
                0.10277698934078217
            ],
            "min" : [
                1.7107318228681834e-07,
                -0.011326568201184273,
                -0.11421636492013931
            ],
            "type" : "VEC3"
        },
        {
            "bufferView" : 18,
            "componentType" : 5126,
            "count" : 752,
            "type" : "VEC3"
        },
        {
            "bufferView" : 19,
            "componentType" : 5126,
            "count" : 752,
            "type" : "VEC2"
        },
        {
            "bufferView" : 20,
            "componentType" : 5123,
            "count" : 1680,
            "type" : "SCALAR"
        }
    ],
    "bufferViews" : [
        {
            "buffer" : 0,
            "byteLength" : 7728,
            "byteOffset" : 0
        },
        {
            "buffer" : 0,
            "byteLength" : 7728,
            "byteOffset" : 7728
        },
        {
            "buffer" : 0,
            "byteLength" : 5152,
            "byteOffset" : 15456
        },
        {
            "buffer" : 0,
            "byteLength" : 5760,
            "byteOffset" : 20608
        },
        {
            "buffer" : 0,
            "byteLength" : 3214,
            "byteOffset" : 26368
        },
        {
            "buffer" : 0,
            "byteLength" : 8928,
            "byteOffset" : 29584
        },
        {
            "buffer" : 0,
            "byteLength" : 8928,
            "byteOffset" : 38512
        },
        {
            "buffer" : 0,
            "byteLength" : 5952,
            "byteOffset" : 47440
        },
        {
            "buffer" : 0,
            "byteLength" : 7008,
            "byteOffset" : 53392
        },
        {
            "buffer" : 0,
            "byteLength" : 11004,
            "byteOffset" : 60400
        },
        {
            "buffer" : 0,
            "byteLength" : 11004,
            "byteOffset" : 71404
        },
        {
            "buffer" : 0,
            "byteLength" : 7336,
            "byteOffset" : 82408
        },
        {
            "buffer" : 0,
            "byteLength" : 6816,
            "byteOffset" : 89744
        },
        {
            "buffer" : 0,
            "byteLength" : 4032,
            "byteOffset" : 96560
        },
        {
            "buffer" : 0,
            "byteLength" : 4032,
            "byteOffset" : 100592
        },
        {
            "buffer" : 0,
            "byteLength" : 2688,
            "byteOffset" : 104624
        },
        {
            "buffer" : 0,
            "byteLength" : 2664,
            "byteOffset" : 107312
        },
        {
            "buffer" : 0,
            "byteLength" : 9024,
            "byteOffset" : 109976
        },
        {
            "buffer" : 0,
            "byteLength" : 9024,
            "byteOffset" : 119000
        },
        {
            "buffer" : 0,
            "byteLength" : 6016,
            "byteOffset" : 128024
        },
        {
            "buffer" : 0,
            "byteLength" : 3360,
            "byteOffset" : 134040
        }
    ],
    "samplers" : [
        {
            "magFilter" : 9729,
            "minFilter" : 9987
        }
    ],
    "buffers" : [
        {
            "byteLength" : 137400,
            "uri" : "data:application/octet-stream;base64,"
        }
    ]
}
