{
    "asset" : {
        "copyright" : "Jeremy Edelblut",
        "generator" : "Khronos glTF Blender I/O v1.7.33",
        "version" : "2.0"
    },
    "scene" : 0,
    "scenes" : [
        {
            "name" : "Scene",
            "nodes" : [
                0
            ]
        }
    ],
    "nodes" : [
        {
            "mesh" : 0,
            "name" : "Circle.2660",
            "rotation" : [
                0,
                0,
                0.1736481785774231,
                0.9848078489303589
            ],
            "scale" : [
                0.02860044315457344,
                0.02860044315457344,
                0.02860044315457344
            ],
            "translation" : [
                -0.4183589220046997,
                -0.8106964826583862,
                0.04018133133649826
            ]
        }
    ],
    "materials" : [
        {
            "doubleSided" : true,
            "name" : "color",
            "pbrMetallicRoughness" : {
                "baseColorTexture" : {
                    "index" : 0
                },
                "metallicFactor" : 0,
                "roughnessFactor" : 0.5
            }
        }
    ],
    "meshes" : [
        {
            "name" : "Circle.3347",
            "primitives" : [
                {
                    "attributes" : {
                        "POSITION" : 0,
                        "NORMAL" : 1,
                        "TEXCOORD_0" : 2
                    },
                    "indices" : 3,
                    "material" : 0
                }
            ]
        }
    ],
    "textures" : [
        {
            "sampler" : 0,
            "source" : 0
        }
    ],
    "images" : [
        {
            "bufferView" : 4,
            "mimeType" : "image/png",
            "name" : "tex"
        }
    ],
    "accessors" : [
        {
            "bufferView" : 0,
            "componentType" : 5126,
            "count" : 665,
            "max" : [
                60.63737487792969,
                55.80642318725586,
                2.944464683532715
            ],
            "min" : [
                -1.5760661363601685,
                -13.454861640930176,
                -5.454083442687988
            ],
            "type" : "VEC3"
        },
        {
            "bufferView" : 1,
            "componentType" : 5126,
            "count" : 665,
            "type" : "VEC3"
        },
        {
            "bufferView" : 2,
            "componentType" : 5126,
            "count" : 665,
            "type" : "VEC2"
        },
        {
            "bufferView" : 3,
            "componentType" : 5123,
            "count" : 2346,
            "type" : "SCALAR"
        }
    ],
    "bufferViews" : [
        {
            "buffer" : 0,
            "byteLength" : 7980,
            "byteOffset" : 0
        },
        {
            "buffer" : 0,
            "byteLength" : 7980,
            "byteOffset" : 7980
        },
        {
            "buffer" : 0,
            "byteLength" : 5320,
            "byteOffset" : 15960
        },
        {
            "buffer" : 0,
            "byteLength" : 4692,
            "byteOffset" : 21280
        },
        {
            "buffer" : 0,
            "byteLength" : 11997,
            "byteOffset" : 25972
        }
    ],
    "samplers" : [
        {
            "magFilter" : 9729,
            "minFilter" : 9987
        }
    ],
    "buffers" : [
        {
            "byteLength" : 37972,
            "uri" : "data:application/octet-stream;base64,"
        }
    ]
}
