{
    "asset" : {
        "copyright" : "Jeremy Edelblut",
        "generator" : "Khronos glTF Blender I/O v1.6.16",
        "version" : "2.0"
    },
    "scene" : 0,
    "scenes" : [
        {
            "name" : "Scene",
            "nodes" : [
                0,
                1,
                2,
                3,
                4,
                5
            ]
        }
    ],
    "nodes" : [
        {
            "mesh" : 0,
            "name" : "Circle.2035",
            "rotation" : [
                -0.44606921076774597,
                -0.21452201902866364,
                -0.8164417743682861,
                0.29736408591270447
            ],
            "scale" : [
                0.17775318026542664,
                0.17775315046310425,
                0.17775315046310425
            ],
            "translation" : [
                0.10565098375082016,
                0.4984864294528961,
                -0.00850141141563654
            ]
        },
        {
            "mesh" : 1,
            "name" : "Circle.2036",
            "rotation" : [
                0.37289896607398987,
                -0.7644001841545105,
                0.3581748604774475,
                0.3851616680622101
            ],
            "scale" : [
                0.2422509640455246,
                0.2422509640455246,
                0.2422509640455246
            ],
            "translation" : [
                0.1139058768749237,
                0.5580945611000061,
                0.016085341572761536
            ]
        },
        {
            "mesh" : 2,
            "name" : "Circle.2037",
            "rotation" : [
                0.10206161439418793,
                -0.5687740445137024,
                -0.1739094853401184,
                -0.7973926067352295
            ],
            "scale" : [
                0.22512920200824738,
                0.22512923181056976,
                0.22512924671173096
            ],
            "translation" : [
                0.05263877660036087,
                0.49713316559791565,
                -0.03529997915029526
            ]
        },
        {
            "mesh" : 3,
            "name" : "Circle.2038",
            "rotation" : [
                0.285783976316452,
                -0.886532723903656,
                0.08598294109106064,
                -0.3535454273223877
            ],
            "scale" : [
                0.19818897545337677,
                0.19818899035453796,
                0.19818894565105438
            ],
            "translation" : [
                0.0740821436047554,
                0.52299964427948,
                0.029765577986836433
            ]
        },
        {
            "mesh" : 4,
            "name" : "Circle.2039",
            "rotation" : [
                -0.20316341519355774,
                0.1363218128681183,
                -0.3815842568874359,
                -0.8913666009902954
            ],
            "scale" : [
                0.19818900525569916,
                0.1981889307498932,
                0.19818897545337677
            ],
            "translation" : [
                0.11238346248865128,
                0.5515700578689575,
                -0.03719514235854149
            ]
        },
        {
            "mesh" : 5,
            "name" : "Sphere.390",
            "rotation" : [
                -0.44606921076774597,
                -0.21452201902866364,
                -0.8164417743682861,
                0.29736408591270447
            ],
            "scale" : [
                0.45395419001579285,
                0.45395421981811523,
                0.45395421981811523
            ],
            "translation" : [
                0.35754573345184326,
                0.22643627226352692,
                0.023127345368266106
            ]
        }
    ],
    "materials" : [
        {
            "doubleSided" : true,
            "name" : "Color",
            "pbrMetallicRoughness" : {
                "baseColorTexture" : {
                    "index" : 0
                },
                "metallicFactor" : 0,
                "roughnessFactor" : 0.5
            }
        }
    ],
    "meshes" : [
        {
            "name" : "Circle.2383",
            "primitives" : [
                {
                    "attributes" : {
                        "POSITION" : 0,
                        "NORMAL" : 1,
                        "TEXCOORD_0" : 2
                    },
                    "indices" : 3,
                    "material" : 0
                }
            ]
        },
        {
            "name" : "Circle.2384",
            "primitives" : [
                {
                    "attributes" : {
                        "POSITION" : 4,
                        "NORMAL" : 5,
                        "TEXCOORD_0" : 6
                    },
                    "indices" : 7,
                    "material" : 0
                }
            ]
        },
        {
            "name" : "Circle.2385",
            "primitives" : [
                {
                    "attributes" : {
                        "POSITION" : 8,
                        "NORMAL" : 9,
                        "TEXCOORD_0" : 10
                    },
                    "indices" : 7,
                    "material" : 0
                }
            ]
        },
        {
            "name" : "Circle.2386",
            "primitives" : [
                {
                    "attributes" : {
                        "POSITION" : 11,
                        "NORMAL" : 12,
                        "TEXCOORD_0" : 13
                    },
                    "indices" : 7,
                    "material" : 0
                }
            ]
        },
        {
            "name" : "Circle.2387",
            "primitives" : [
                {
                    "attributes" : {
                        "POSITION" : 14,
                        "NORMAL" : 15,
                        "TEXCOORD_0" : 16
                    },
                    "indices" : 7,
                    "material" : 0
                }
            ]
        },
        {
            "name" : "Sphere.390",
            "primitives" : [
                {
                    "attributes" : {
                        "POSITION" : 17,
                        "NORMAL" : 18,
                        "TEXCOORD_0" : 19
                    },
                    "indices" : 20,
                    "material" : 0
                }
            ]
        }
    ],
    "textures" : [
        {
            "sampler" : 0,
            "source" : 0
        }
    ],
    "images" : [
        {
            "bufferView" : 4,
            "mimeType" : "image/png",
            "name" : "tex2"
        }
    ],
    "accessors" : [
        {
            "bufferView" : 0,
            "componentType" : 5126,
            "count" : 638,
            "max" : [
                3.802065134048462,
                1.0765316486358643,
                0.7588174343109131
            ],
            "min" : [
                -0.7588174343109131,
                -6.0344929695129395,
                -7.956140518188477
            ],
            "type" : "VEC3"
        },
        {
            "bufferView" : 1,
            "componentType" : 5126,
            "count" : 638,
            "type" : "VEC3"
        },
        {
            "bufferView" : 2,
            "componentType" : 5126,
            "count" : 638,
            "type" : "VEC2"
        },
        {
            "bufferView" : 3,
            "componentType" : 5123,
            "count" : 3162,
            "type" : "SCALAR"
        },
        {
            "bufferView" : 5,
            "componentType" : 5126,
            "count" : 68,
            "max" : [
                0.5481491088867188,
                -0.004134863615036011,
                0.002978801727294922
            ],
            "min" : [
                -0.5481491684913635,
                -0.3800627589225769,
                -2.3241610527038574
            ],
            "type" : "VEC3"
        },
        {
            "bufferView" : 6,
            "componentType" : 5126,
            "count" : 68,
            "type" : "VEC3"
        },
        {
            "bufferView" : 7,
            "componentType" : 5126,
            "count" : 68,
            "type" : "VEC2"
        },
        {
            "bufferView" : 8,
            "componentType" : 5123,
            "count" : 180,
            "type" : "SCALAR"
        },
        {
            "bufferView" : 9,
            "componentType" : 5126,
            "count" : 68,
            "max" : [
                0.5481491088867188,
                -0.004134863615036011,
                0.002978801727294922
            ],
            "min" : [
                -0.5481491684913635,
                -0.3800627589225769,
                -2.3241610527038574
            ],
            "type" : "VEC3"
        },
        {
            "bufferView" : 10,
            "componentType" : 5126,
            "count" : 68,
            "type" : "VEC3"
        },
        {
            "bufferView" : 11,
            "componentType" : 5126,
            "count" : 68,
            "type" : "VEC2"
        },
        {
            "bufferView" : 12,
            "componentType" : 5126,
            "count" : 68,
            "max" : [
                0.5481491088867188,
                -0.004134863615036011,
                0.002978801727294922
            ],
            "min" : [
                -0.5481491684913635,
                -0.3800627589225769,
                -2.3241610527038574
            ],
            "type" : "VEC3"
        },
        {
            "bufferView" : 13,
            "componentType" : 5126,
            "count" : 68,
            "type" : "VEC3"
        },
        {
            "bufferView" : 14,
            "componentType" : 5126,
            "count" : 68,
            "type" : "VEC2"
        },
        {
            "bufferView" : 15,
            "componentType" : 5126,
            "count" : 68,
            "max" : [
                0.5481491088867188,
                -0.004134863615036011,
                0.002978801727294922
            ],
            "min" : [
                -0.5481491684913635,
                -0.3800627589225769,
                -2.3241610527038574
            ],
            "type" : "VEC3"
        },
        {
            "bufferView" : 16,
            "componentType" : 5126,
            "count" : 68,
            "type" : "VEC3"
        },
        {
            "bufferView" : 17,
            "componentType" : 5126,
            "count" : 68,
            "type" : "VEC2"
        },
        {
            "bufferView" : 18,
            "componentType" : 5126,
            "count" : 2674,
            "max" : [
                0.9941977262496948,
                2.866905689239502,
                0.9004001021385193
            ],
            "min" : [
                -0.9239470958709717,
                -0.8719235062599182,
                -1.6063296794891357
            ],
            "type" : "VEC3"
        },
        {
            "bufferView" : 19,
            "componentType" : 5126,
            "count" : 2674,
            "type" : "VEC3"
        },
        {
            "bufferView" : 20,
            "componentType" : 5126,
            "count" : 2674,
            "type" : "VEC2"
        },
        {
            "bufferView" : 21,
            "componentType" : 5123,
            "count" : 10272,
            "type" : "SCALAR"
        }
    ],
    "bufferViews" : [
        {
            "buffer" : 0,
            "byteLength" : 7656,
            "byteOffset" : 0
        },
        {
            "buffer" : 0,
            "byteLength" : 7656,
            "byteOffset" : 7656
        },
        {
            "buffer" : 0,
            "byteLength" : 5104,
            "byteOffset" : 15312
        },
        {
            "buffer" : 0,
            "byteLength" : 6324,
            "byteOffset" : 20416
        },
        {
            "buffer" : 0,
            "byteLength" : 6474,
            "byteOffset" : 26740
        },
        {
            "buffer" : 0,
            "byteLength" : 816,
            "byteOffset" : 33216
        },
        {
            "buffer" : 0,
            "byteLength" : 816,
            "byteOffset" : 34032
        },
        {
            "buffer" : 0,
            "byteLength" : 544,
            "byteOffset" : 34848
        },
        {
            "buffer" : 0,
            "byteLength" : 360,
            "byteOffset" : 35392
        },
        {
            "buffer" : 0,
            "byteLength" : 816,
            "byteOffset" : 35752
        },
        {
            "buffer" : 0,
            "byteLength" : 816,
            "byteOffset" : 36568
        },
        {
            "buffer" : 0,
            "byteLength" : 544,
            "byteOffset" : 37384
        },
        {
            "buffer" : 0,
            "byteLength" : 816,
            "byteOffset" : 37928
        },
        {
            "buffer" : 0,
            "byteLength" : 816,
            "byteOffset" : 38744
        },
        {
            "buffer" : 0,
            "byteLength" : 544,
            "byteOffset" : 39560
        },
        {
            "buffer" : 0,
            "byteLength" : 816,
            "byteOffset" : 40104
        },
        {
            "buffer" : 0,
            "byteLength" : 816,
            "byteOffset" : 40920
        },
        {
            "buffer" : 0,
            "byteLength" : 544,
            "byteOffset" : 41736
        },
        {
            "buffer" : 0,
            "byteLength" : 32088,
            "byteOffset" : 42280
        },
        {
            "buffer" : 0,
            "byteLength" : 32088,
            "byteOffset" : 74368
        },
        {
            "buffer" : 0,
            "byteLength" : 21392,
            "byteOffset" : 106456
        },
        {
            "buffer" : 0,
            "byteLength" : 20544,
            "byteOffset" : 127848
        }
    ],
    "samplers" : [
        {
            "magFilter" : 9729,
            "minFilter" : 9987
        }
    ],
    "buffers" : [
        {
            "byteLength" : 148392,
            "uri" : "data:application/octet-stream;base64,"
        }
    ]
}
