{
    "asset" : {
        "copyright" : "Jeremy Edelblut",
        "generator" : "Khronos glTF Blender I/O v1.6.16",
        "version" : "2.0"
    },
    "scene" : 0,
    "scenes" : [
        {
            "name" : "Scene",
            "nodes" : [
                0,
                1,
                2,
                3,
                4,
                5
            ]
        }
    ],
    "nodes" : [
        {
            "mesh" : 0,
            "name" : "Circle.2123",
            "rotation" : [
                0.6532815098762512,
                0.27059802412986755,
                -0.27059802412986755,
                0.6532815098762512
            ],
            "scale" : [
                2.436277151107788,
                2.436277151107788,
                2.436277389526367
            ],
            "translation" : [
                -0.20230329036712646,
                -0.8072514533996582,
                -0.11519104242324829
            ]
        },
        {
            "mesh" : 1,
            "name" : "Cylinder.376",
            "rotation" : [
                0,
                -0.38268348574638367,
                0,
                0.9238795042037964
            ],
            "scale" : [
                0.6309337019920349,
                0.6309337019920349,
                0.6309337019920349
            ],
            "translation" : [
                -0.20452475547790527,
                -0.8072514533996582,
                -0.11296960711479187
            ]
        },
        {
            "mesh" : 2,
            "name" : "Roundcube.428",
            "rotation" : [
                0,
                -0.38268348574638367,
                0,
                0.9238795042037964
            ],
            "scale" : [
                0.6309337019920349,
                0.6309337019920349,
                0.6309337019920349
            ],
            "translation" : [
                -0.20452475547790527,
                -0.8072514533996582,
                -0.11296960711479187
            ]
        },
        {
            "mesh" : 3,
            "name" : "Circle.2124",
            "rotation" : [
                0.6532815098762512,
                0.27059802412986755,
                -0.27059802412986755,
                0.6532815098762512
            ],
            "scale" : [
                0.9000000953674316,
                0.9000000953674316,
                0.9000000357627869
            ],
            "translation" : [
                -0.08474882692098618,
                -0.15224987268447876,
                -0.000820644199848175
            ]
        },
        {
            "mesh" : 4,
            "name" : "Roundcube.429",
            "rotation" : [
                0,
                -0.38268348574638367,
                0,
                0.9238795042037964
            ],
            "scale" : [
                0.6445838212966919,
                0.6104353666305542,
                0.6445838212966919
            ],
            "translation" : [
                -0.20452475547790527,
                -0.7404652833938599,
                -0.11296960711479187
            ]
        },
        {
            "mesh" : 5,
            "name" : "Plane.189",
            "rotation" : [
                0,
                -0.38268348574638367,
                0,
                0.9238795042037964
            ],
            "scale" : [
                0.9000000357627869,
                0.9000000357627869,
                0.9000000357627869
            ],
            "translation" : [
                -0.08556947112083435,
                0,
                0
            ]
        }
    ],
    "materials" : [
        {
            "doubleSided" : true,
            "name" : "Color",
            "pbrMetallicRoughness" : {
                "baseColorTexture" : {
                    "index" : 0
                },
                "metallicFactor" : 0,
                "roughnessFactor" : 0.5
            }
        }
    ],
    "meshes" : [
        {
            "name" : "Circle.2509",
            "primitives" : [
                {
                    "attributes" : {
                        "POSITION" : 0,
                        "NORMAL" : 1,
                        "TEXCOORD_0" : 2
                    },
                    "indices" : 3,
                    "material" : 0
                }
            ]
        },
        {
            "name" : "Cylinder.362",
            "primitives" : [
                {
                    "attributes" : {
                        "POSITION" : 4,
                        "NORMAL" : 5,
                        "TEXCOORD_0" : 6
                    },
                    "indices" : 7,
                    "material" : 0
                }
            ]
        },
        {
            "name" : "Roundcube.343",
            "primitives" : [
                {
                    "attributes" : {
                        "POSITION" : 8,
                        "NORMAL" : 9,
                        "TEXCOORD_0" : 10
                    },
                    "indices" : 11,
                    "material" : 0
                }
            ]
        },
        {
            "name" : "Circle.2510",
            "primitives" : [
                {
                    "attributes" : {
                        "POSITION" : 12,
                        "NORMAL" : 13,
                        "TEXCOORD_0" : 14
                    },
                    "indices" : 15,
                    "material" : 0
                }
            ]
        },
        {
            "name" : "Roundcube.344",
            "primitives" : [
                {
                    "attributes" : {
                        "POSITION" : 16,
                        "NORMAL" : 17,
                        "TEXCOORD_0" : 18
                    },
                    "indices" : 19,
                    "material" : 0
                }
            ]
        },
        {
            "name" : "Plane.184",
            "primitives" : [
                {
                    "attributes" : {
                        "POSITION" : 20,
                        "NORMAL" : 21,
                        "TEXCOORD_0" : 22
                    },
                    "indices" : 23,
                    "material" : 0
                }
            ]
        }
    ],
    "textures" : [
        {
            "sampler" : 0,
            "source" : 0
        }
    ],
    "images" : [
        {
            "bufferView" : 4,
            "mimeType" : "image/png",
            "name" : "tex"
        }
    ],
    "accessors" : [
        {
            "bufferView" : 0,
            "componentType" : 5126,
            "count" : 430,
            "max" : [
                0.0257102083414793,
                0.2893408536911011,
                -0.2617069482803345
            ],
            "min" : [
                -0.024069134145975113,
                0.276211142539978,
                -0.2908790409564972
            ],
            "type" : "VEC3"
        },
        {
            "bufferView" : 1,
            "componentType" : 5126,
            "count" : 430,
            "type" : "VEC3"
        },
        {
            "bufferView" : 2,
            "componentType" : 5126,
            "count" : 430,
            "type" : "VEC2"
        },
        {
            "bufferView" : 3,
            "componentType" : 5123,
            "count" : 1824,
            "type" : "SCALAR"
        },
        {
            "bufferView" : 5,
            "componentType" : 5126,
            "count" : 2232,
            "max" : [
                0.11132793873548508,
                1.5476059913635254,
                1.2506803274154663
            ],
            "min" : [
                -0.2704695463180542,
                0.8978438377380371,
                -1.2506803274154663
            ],
            "type" : "VEC3"
        },
        {
            "bufferView" : 6,
            "componentType" : 5126,
            "count" : 2232,
            "type" : "VEC3"
        },
        {
            "bufferView" : 7,
            "componentType" : 5126,
            "count" : 2232,
            "type" : "VEC2"
        },
        {
            "bufferView" : 8,
            "componentType" : 5123,
            "count" : 11520,
            "type" : "SCALAR"
        },
        {
            "bufferView" : 9,
            "componentType" : 5126,
            "count" : 1204,
            "max" : [
                1.0838792324066162,
                2.283376693725586,
                1.022315263748169
            ],
            "min" : [
                -1.0794986486434937,
                0.10859009623527527,
                -1.022315263748169
            ],
            "type" : "VEC3"
        },
        {
            "bufferView" : 10,
            "componentType" : 5126,
            "count" : 1204,
            "type" : "VEC3"
        },
        {
            "bufferView" : 11,
            "componentType" : 5126,
            "count" : 1204,
            "type" : "VEC2"
        },
        {
            "bufferView" : 12,
            "componentType" : 5123,
            "count" : 6492,
            "type" : "SCALAR"
        },
        {
            "bufferView" : 13,
            "componentType" : 5126,
            "count" : 1844,
            "max" : [
                0.45033422112464905,
                0.5807130932807922,
                -0.15957669913768768
            ],
            "min" : [
                -0.45033422112464905,
                0.39348676800727844,
                -0.4528019428253174
            ],
            "type" : "VEC3"
        },
        {
            "bufferView" : 14,
            "componentType" : 5126,
            "count" : 1844,
            "type" : "VEC3"
        },
        {
            "bufferView" : 15,
            "componentType" : 5126,
            "count" : 1844,
            "type" : "VEC2"
        },
        {
            "bufferView" : 16,
            "componentType" : 5123,
            "count" : 8256,
            "type" : "SCALAR"
        },
        {
            "bufferView" : 17,
            "componentType" : 5126,
            "count" : 1574,
            "max" : [
                1.1296122074127197,
                2.4398980140686035,
                1.1265480518341064
            ],
            "min" : [
                -1.1839776039123535,
                0.1757853776216507,
                -1.1265480518341064
            ],
            "type" : "VEC3"
        },
        {
            "bufferView" : 18,
            "componentType" : 5126,
            "count" : 1574,
            "type" : "VEC3"
        },
        {
            "bufferView" : 19,
            "componentType" : 5126,
            "count" : 1574,
            "type" : "VEC2"
        },
        {
            "bufferView" : 20,
            "componentType" : 5123,
            "count" : 8508,
            "type" : "SCALAR"
        },
        {
            "bufferView" : 21,
            "componentType" : 5126,
            "count" : 3128,
            "max" : [
                1.3573859930038452,
                0.09682171046733856,
                0.007773451041430235
            ],
            "min" : [
                0.5893343687057495,
                -0.8474060297012329,
                -0.09406106919050217
            ],
            "type" : "VEC3"
        },
        {
            "bufferView" : 22,
            "componentType" : 5126,
            "count" : 3128,
            "type" : "VEC3"
        },
        {
            "bufferView" : 23,
            "componentType" : 5126,
            "count" : 3128,
            "type" : "VEC2"
        },
        {
            "bufferView" : 24,
            "componentType" : 5123,
            "count" : 13152,
            "type" : "SCALAR"
        }
    ],
    "bufferViews" : [
        {
            "buffer" : 0,
            "byteLength" : 5160,
            "byteOffset" : 0
        },
        {
            "buffer" : 0,
            "byteLength" : 5160,
            "byteOffset" : 5160
        },
        {
            "buffer" : 0,
            "byteLength" : 3440,
            "byteOffset" : 10320
        },
        {
            "buffer" : 0,
            "byteLength" : 3648,
            "byteOffset" : 13760
        },
        {
            "buffer" : 0,
            "byteLength" : 1322,
            "byteOffset" : 17408
        },
        {
            "buffer" : 0,
            "byteLength" : 26784,
            "byteOffset" : 18732
        },
        {
            "buffer" : 0,
            "byteLength" : 26784,
            "byteOffset" : 45516
        },
        {
            "buffer" : 0,
            "byteLength" : 17856,
            "byteOffset" : 72300
        },
        {
            "buffer" : 0,
            "byteLength" : 23040,
            "byteOffset" : 90156
        },
        {
            "buffer" : 0,
            "byteLength" : 14448,
            "byteOffset" : 113196
        },
        {
            "buffer" : 0,
            "byteLength" : 14448,
            "byteOffset" : 127644
        },
        {
            "buffer" : 0,
            "byteLength" : 9632,
            "byteOffset" : 142092
        },
        {
            "buffer" : 0,
            "byteLength" : 12984,
            "byteOffset" : 151724
        },
        {
            "buffer" : 0,
            "byteLength" : 22128,
            "byteOffset" : 164708
        },
        {
            "buffer" : 0,
            "byteLength" : 22128,
            "byteOffset" : 186836
        },
        {
            "buffer" : 0,
            "byteLength" : 14752,
            "byteOffset" : 208964
        },
        {
            "buffer" : 0,
            "byteLength" : 16512,
            "byteOffset" : 223716
        },
        {
            "buffer" : 0,
            "byteLength" : 18888,
            "byteOffset" : 240228
        },
        {
            "buffer" : 0,
            "byteLength" : 18888,
            "byteOffset" : 259116
        },
        {
            "buffer" : 0,
            "byteLength" : 12592,
            "byteOffset" : 278004
        },
        {
            "buffer" : 0,
            "byteLength" : 17016,
            "byteOffset" : 290596
        },
        {
            "buffer" : 0,
            "byteLength" : 37536,
            "byteOffset" : 307612
        },
        {
            "buffer" : 0,
            "byteLength" : 37536,
            "byteOffset" : 345148
        },
        {
            "buffer" : 0,
            "byteLength" : 25024,
            "byteOffset" : 382684
        },
        {
            "buffer" : 0,
            "byteLength" : 26304,
            "byteOffset" : 407708
        }
    ],
    "samplers" : [
        {
            "magFilter" : 9729,
            "minFilter" : 9987
        }
    ],
    "buffers" : [
        {
            "byteLength" : 434012,
            "uri" : "data:application/octet-stream;base64,"
        }
    ]
}
