{
    "asset" : {
        "copyright" : "Jeremy Edelblut",
        "generator" : "Khronos glTF Blender I/O v1.7.33",
        "version" : "2.0"
    },
    "scene" : 1,
    "scenes" : [
        {
            "name" : "FBX_Temp",
            "nodes" : [
                0
            ]
        },
        {
            "name" : "Scene",
            "nodes" : [
                1,
                2,
                3,
                4,
                5,
                6,
                7,
                8,
                9,
                10
            ]
        }
    ],
    "nodes" : [
        {
            "mesh" : 0,
            "name" : "3moji.064",
            "rotation" : [
                0,
                -0.7071068286895752,
                0,
                0.7071068286895752
            ]
        },
        {
            "mesh" : 1,
            "name" : "Circle.974"
        },
        {
            "mesh" : 2,
            "name" : "Circle.976"
        },
        {
            "mesh" : 3,
            "name" : "Cylinder.179"
        },
        {
            "mesh" : 4,
            "name" : "Roundcube.207"
        },
        {
            "mesh" : 5,
            "name" : "Circle.977"
        },
        {
            "mesh" : 6,
            "name" : "Sphere.164"
        },
        {
            "mesh" : 7,
            "name" : "Roundcube.208"
        },
        {
            "mesh" : 8,
            "name" : "Sphere.165"
        },
        {
            "mesh" : 9,
            "name" : "Circle.978"
        },
        {
            "mesh" : 10,
            "name" : "Roundcube.209"
        }
    ],
    "materials" : [
        {
            "doubleSided" : true,
            "name" : "color",
            "pbrMetallicRoughness" : {
                "baseColorTexture" : {
                    "index" : 0
                },
                "metallicFactor" : 0,
                "roughnessFactor" : 0.5
            }
        },
        {
            "doubleSided" : true,
            "name" : "skin_tone_one",
            "pbrMetallicRoughness" : {
                "baseColorTexture" : {
                    "index" : 1
                },
                "metallicFactor" : 0,
                "roughnessFactor" : 0.5
            }
        }
    ],
    "meshes" : [
        {
            "name" : "Cube.417",
            "primitives" : [
                {
                    "attributes" : {
                        "POSITION" : 0,
                        "NORMAL" : 1,
                        "TEXCOORD_0" : 2
                    },
                    "indices" : 3,
                    "material" : 0
                }
            ]
        },
        {
            "name" : "Circle.1060",
            "primitives" : [
                {
                    "attributes" : {
                        "POSITION" : 4,
                        "NORMAL" : 5,
                        "TEXCOORD_0" : 6
                    },
                    "indices" : 7,
                    "material" : 0
                }
            ]
        },
        {
            "name" : "Circle.1061",
            "primitives" : [
                {
                    "attributes" : {
                        "POSITION" : 8,
                        "NORMAL" : 9,
                        "TEXCOORD_0" : 10
                    },
                    "indices" : 11,
                    "material" : 1
                }
            ]
        },
        {
            "name" : "Cylinder.179",
            "primitives" : [
                {
                    "attributes" : {
                        "POSITION" : 12,
                        "NORMAL" : 13,
                        "TEXCOORD_0" : 14
                    },
                    "indices" : 15,
                    "material" : 1
                }
            ]
        },
        {
            "name" : "Roundcube.207",
            "primitives" : [
                {
                    "attributes" : {
                        "POSITION" : 16,
                        "NORMAL" : 17,
                        "TEXCOORD_0" : 18
                    },
                    "indices" : 19,
                    "material" : 0
                },
                {
                    "attributes" : {
                        "POSITION" : 20,
                        "NORMAL" : 21,
                        "TEXCOORD_0" : 22
                    },
                    "indices" : 23,
                    "material" : 1
                }
            ]
        },
        {
            "name" : "Circle.1062",
            "primitives" : [
                {
                    "attributes" : {
                        "POSITION" : 24,
                        "NORMAL" : 25,
                        "TEXCOORD_0" : 26
                    },
                    "indices" : 27,
                    "material" : 1
                }
            ]
        },
        {
            "name" : "Sphere.164",
            "primitives" : [
                {
                    "attributes" : {
                        "POSITION" : 28,
                        "NORMAL" : 29,
                        "TEXCOORD_0" : 30
                    },
                    "indices" : 31,
                    "material" : 0
                }
            ]
        },
        {
            "name" : "Roundcube.208",
            "primitives" : [
                {
                    "attributes" : {
                        "POSITION" : 32,
                        "NORMAL" : 33,
                        "TEXCOORD_0" : 34
                    },
                    "indices" : 35,
                    "material" : 0
                }
            ]
        },
        {
            "name" : "Sphere.165",
            "primitives" : [
                {
                    "attributes" : {
                        "POSITION" : 36,
                        "NORMAL" : 37,
                        "TEXCOORD_0" : 38
                    },
                    "indices" : 39,
                    "material" : 0
                }
            ]
        },
        {
            "name" : "Circle.1063",
            "primitives" : [
                {
                    "attributes" : {
                        "POSITION" : 40,
                        "NORMAL" : 41,
                        "TEXCOORD_0" : 42
                    },
                    "indices" : 43,
                    "material" : 0
                }
            ]
        },
        {
            "name" : "Roundcube.209",
            "primitives" : [
                {
                    "attributes" : {
                        "POSITION" : 44,
                        "NORMAL" : 45,
                        "TEXCOORD_0" : 46
                    },
                    "indices" : 47,
                    "material" : 0
                }
            ]
        }
    ],
    "textures" : [
        {
            "sampler" : 0,
            "source" : 0
        },
        {
            "sampler" : 0,
            "source" : 0
        }
    ],
    "images" : [
        {
            "bufferView" : 4,
            "mimeType" : "image/png",
            "name" : "tex"
        }
    ],
    "accessors" : [
        {
            "bufferView" : 0,
            "componentType" : 5126,
            "count" : 752,
            "max" : [
                -0.8264395594596863,
                0.05719918757677078,
                0.13795676827430725
            ],
            "min" : [
                -0.8543609976768494,
                -0.014034310355782509,
                -0.12436223030090332
            ],
            "type" : "VEC3"
        },
        {
            "bufferView" : 1,
            "componentType" : 5126,
            "count" : 752,
            "type" : "VEC3"
        },
        {
            "bufferView" : 2,
            "componentType" : 5126,
            "count" : 752,
            "type" : "VEC2"
        },
        {
            "bufferView" : 3,
            "componentType" : 5123,
            "count" : 1680,
            "type" : "SCALAR"
        },
        {
            "bufferView" : 5,
            "componentType" : 5126,
            "count" : 996,
            "max" : [
                0.36319178342819214,
                0.2287777215242386,
                0.5581599473953247
            ],
            "min" : [
                -0.36319178342819214,
                0.01880505494773388,
                0.4512329399585724
            ],
            "type" : "VEC3"
        },
        {
            "bufferView" : 6,
            "componentType" : 5126,
            "count" : 996,
            "type" : "VEC3"
        },
        {
            "bufferView" : 7,
            "componentType" : 5126,
            "count" : 996,
            "type" : "VEC2"
        },
        {
            "bufferView" : 8,
            "componentType" : 5123,
            "count" : 4464,
            "type" : "SCALAR"
        },
        {
            "bufferView" : 9,
            "componentType" : 5126,
            "count" : 142,
            "max" : [
                0.06644916534423828,
                0.016489965841174126,
                0.5587398409843445
            ],
            "min" : [
                -0.06364960968494415,
                -0.05779099836945534,
                0.5403256416320801
            ],
            "type" : "VEC3"
        },
        {
            "bufferView" : 10,
            "componentType" : 5126,
            "count" : 142,
            "type" : "VEC3"
        },
        {
            "bufferView" : 11,
            "componentType" : 5126,
            "count" : 142,
            "type" : "VEC2"
        },
        {
            "bufferView" : 12,
            "componentType" : 5123,
            "count" : 528,
            "type" : "SCALAR"
        },
        {
            "bufferView" : 13,
            "componentType" : 5126,
            "count" : 1135,
            "max" : [
                0.8453002572059631,
                0.3313184380531311,
                -0.1070592999458313
            ],
            "min" : [
                -0.8453002572059631,
                -0.09913325309753418,
                -0.3607473373413086
            ],
            "type" : "VEC3"
        },
        {
            "bufferView" : 14,
            "componentType" : 5126,
            "count" : 1135,
            "type" : "VEC3"
        },
        {
            "bufferView" : 15,
            "componentType" : 5126,
            "count" : 1135,
            "type" : "VEC2"
        },
        {
            "bufferView" : 16,
            "componentType" : 5123,
            "count" : 4992,
            "type" : "SCALAR"
        },
        {
            "bufferView" : 17,
            "componentType" : 5126,
            "count" : 837,
            "max" : [
                0.17629724740982056,
                -0.17352375388145447,
                0.46989089250564575
            ],
            "min" : [
                -0.1637265831232071,
                -1.390503168106079,
                -0.4321935176849365
            ],
            "type" : "VEC3"
        },
        {
            "bufferView" : 18,
            "componentType" : 5126,
            "count" : 837,
            "type" : "VEC3"
        },
        {
            "bufferView" : 19,
            "componentType" : 5126,
            "count" : 837,
            "type" : "VEC2"
        },
        {
            "bufferView" : 20,
            "componentType" : 5123,
            "count" : 2064,
            "type" : "SCALAR"
        },
        {
            "bufferView" : 21,
            "componentType" : 5126,
            "count" : 1173,
            "max" : [
                0.6908714175224304,
                0.7999180555343628,
                0.5517996549606323
            ],
            "min" : [
                -0.6900089979171753,
                -0.8189742565155029,
                -0.9092790484428406
            ],
            "type" : "VEC3"
        },
        {
            "bufferView" : 22,
            "componentType" : 5126,
            "count" : 1173,
            "type" : "VEC3"
        },
        {
            "bufferView" : 23,
            "componentType" : 5126,
            "count" : 1173,
            "type" : "VEC2"
        },
        {
            "bufferView" : 24,
            "componentType" : 5123,
            "count" : 5916,
            "type" : "SCALAR"
        },
        {
            "bufferView" : 25,
            "componentType" : 5126,
            "count" : 316,
            "max" : [
                0.3640078902244568,
                0.3847910165786743,
                0.5543336272239685
            ],
            "min" : [
                -0.3640078902244568,
                0.20085416734218597,
                0.40169647336006165
            ],
            "type" : "VEC3"
        },
        {
            "bufferView" : 26,
            "componentType" : 5126,
            "count" : 316,
            "type" : "VEC3"
        },
        {
            "bufferView" : 27,
            "componentType" : 5126,
            "count" : 316,
            "type" : "VEC2"
        },
        {
            "bufferView" : 28,
            "componentType" : 5123,
            "count" : 1152,
            "type" : "SCALAR"
        },
        {
            "bufferView" : 29,
            "componentType" : 5126,
            "count" : 405,
            "max" : [
                0.7229704260826111,
                -0.6446352601051331,
                0.044422637671232224
            ],
            "min" : [
                -0.7221079468727112,
                -1.3890318870544434,
                -0.9189629554748535
            ],
            "type" : "VEC3"
        },
        {
            "bufferView" : 30,
            "componentType" : 5126,
            "count" : 405,
            "type" : "VEC3"
        },
        {
            "bufferView" : 31,
            "componentType" : 5126,
            "count" : 405,
            "type" : "VEC2"
        },
        {
            "bufferView" : 32,
            "componentType" : 5123,
            "count" : 2418,
            "type" : "SCALAR"
        },
        {
            "bufferView" : 33,
            "componentType" : 5126,
            "count" : 1950,
            "max" : [
                0.5247842073440552,
                0.2899172008037567,
                0.5615382194519043
            ],
            "min" : [
                -0.5238543748855591,
                -0.06376233696937561,
                0.3251725137233734
            ],
            "type" : "VEC3"
        },
        {
            "bufferView" : 34,
            "componentType" : 5126,
            "count" : 1950,
            "type" : "VEC3"
        },
        {
            "bufferView" : 35,
            "componentType" : 5126,
            "count" : 1950,
            "type" : "VEC2"
        },
        {
            "bufferView" : 36,
            "componentType" : 5123,
            "count" : 9648,
            "type" : "SCALAR"
        },
        {
            "bufferView" : 37,
            "componentType" : 5126,
            "count" : 704,
            "max" : [
                0.8590024709701538,
                -0.6436865925788879,
                -0.1147044226527214
            ],
            "min" : [
                -0.8590024709701538,
                -1.3909724950790405,
                -1.2495602369308472
            ],
            "type" : "VEC3"
        },
        {
            "bufferView" : 38,
            "componentType" : 5126,
            "count" : 704,
            "type" : "VEC3"
        },
        {
            "bufferView" : 39,
            "componentType" : 5126,
            "count" : 704,
            "type" : "VEC2"
        },
        {
            "bufferView" : 40,
            "componentType" : 5123,
            "count" : 2982,
            "type" : "SCALAR"
        },
        {
            "bufferView" : 41,
            "componentType" : 5126,
            "count" : 64,
            "max" : [
                0.2383367270231247,
                -1.0555675029754639,
                0.062400851398706436
            ],
            "min" : [
                -0.237474262714386,
                -1.3898115158081055,
                -0.061464279890060425
            ],
            "type" : "VEC3"
        },
        {
            "bufferView" : 42,
            "componentType" : 5126,
            "count" : 64,
            "type" : "VEC3"
        },
        {
            "bufferView" : 43,
            "componentType" : 5126,
            "count" : 64,
            "type" : "VEC2"
        },
        {
            "bufferView" : 44,
            "componentType" : 5123,
            "count" : 177,
            "type" : "SCALAR"
        },
        {
            "bufferView" : 45,
            "componentType" : 5126,
            "count" : 1566,
            "max" : [
                0.7823976874351501,
                0.9282363057136536,
                0.5997962355613708
            ],
            "min" : [
                -0.7823976874351501,
                -0.5558515191078186,
                -0.9981424808502197
            ],
            "type" : "VEC3"
        },
        {
            "bufferView" : 46,
            "componentType" : 5126,
            "count" : 1566,
            "type" : "VEC3"
        },
        {
            "bufferView" : 47,
            "componentType" : 5126,
            "count" : 1566,
            "type" : "VEC2"
        },
        {
            "bufferView" : 48,
            "componentType" : 5123,
            "count" : 8508,
            "type" : "SCALAR"
        }
    ],
    "bufferViews" : [
        {
            "buffer" : 0,
            "byteLength" : 9024,
            "byteOffset" : 0
        },
        {
            "buffer" : 0,
            "byteLength" : 9024,
            "byteOffset" : 9024
        },
        {
            "buffer" : 0,
            "byteLength" : 6016,
            "byteOffset" : 18048
        },
        {
            "buffer" : 0,
            "byteLength" : 3360,
            "byteOffset" : 24064
        },
        {
            "buffer" : 0,
            "byteLength" : 11997,
            "byteOffset" : 27424
        },
        {
            "buffer" : 0,
            "byteLength" : 11952,
            "byteOffset" : 39424
        },
        {
            "buffer" : 0,
            "byteLength" : 11952,
            "byteOffset" : 51376
        },
        {
            "buffer" : 0,
            "byteLength" : 7968,
            "byteOffset" : 63328
        },
        {
            "buffer" : 0,
            "byteLength" : 8928,
            "byteOffset" : 71296
        },
        {
            "buffer" : 0,
            "byteLength" : 1704,
            "byteOffset" : 80224
        },
        {
            "buffer" : 0,
            "byteLength" : 1704,
            "byteOffset" : 81928
        },
        {
            "buffer" : 0,
            "byteLength" : 1136,
            "byteOffset" : 83632
        },
        {
            "buffer" : 0,
            "byteLength" : 1056,
            "byteOffset" : 84768
        },
        {
            "buffer" : 0,
            "byteLength" : 13620,
            "byteOffset" : 85824
        },
        {
            "buffer" : 0,
            "byteLength" : 13620,
            "byteOffset" : 99444
        },
        {
            "buffer" : 0,
            "byteLength" : 9080,
            "byteOffset" : 113064
        },
        {
            "buffer" : 0,
            "byteLength" : 9984,
            "byteOffset" : 122144
        },
        {
            "buffer" : 0,
            "byteLength" : 10044,
            "byteOffset" : 132128
        },
        {
            "buffer" : 0,
            "byteLength" : 10044,
            "byteOffset" : 142172
        },
        {
            "buffer" : 0,
            "byteLength" : 6696,
            "byteOffset" : 152216
        },
        {
            "buffer" : 0,
            "byteLength" : 4128,
            "byteOffset" : 158912
        },
        {
            "buffer" : 0,
            "byteLength" : 14076,
            "byteOffset" : 163040
        },
        {
            "buffer" : 0,
            "byteLength" : 14076,
            "byteOffset" : 177116
        },
        {
            "buffer" : 0,
            "byteLength" : 9384,
            "byteOffset" : 191192
        },
        {
            "buffer" : 0,
            "byteLength" : 11832,
            "byteOffset" : 200576
        },
        {
            "buffer" : 0,
            "byteLength" : 3792,
            "byteOffset" : 212408
        },
        {
            "buffer" : 0,
            "byteLength" : 3792,
            "byteOffset" : 216200
        },
        {
            "buffer" : 0,
            "byteLength" : 2528,
            "byteOffset" : 219992
        },
        {
            "buffer" : 0,
            "byteLength" : 2304,
            "byteOffset" : 222520
        },
        {
            "buffer" : 0,
            "byteLength" : 4860,
            "byteOffset" : 224824
        },
        {
            "buffer" : 0,
            "byteLength" : 4860,
            "byteOffset" : 229684
        },
        {
            "buffer" : 0,
            "byteLength" : 3240,
            "byteOffset" : 234544
        },
        {
            "buffer" : 0,
            "byteLength" : 4836,
            "byteOffset" : 237784
        },
        {
            "buffer" : 0,
            "byteLength" : 23400,
            "byteOffset" : 242620
        },
        {
            "buffer" : 0,
            "byteLength" : 23400,
            "byteOffset" : 266020
        },
        {
            "buffer" : 0,
            "byteLength" : 15600,
            "byteOffset" : 289420
        },
        {
            "buffer" : 0,
            "byteLength" : 19296,
            "byteOffset" : 305020
        },
        {
            "buffer" : 0,
            "byteLength" : 8448,
            "byteOffset" : 324316
        },
        {
            "buffer" : 0,
            "byteLength" : 8448,
            "byteOffset" : 332764
        },
        {
            "buffer" : 0,
            "byteLength" : 5632,
            "byteOffset" : 341212
        },
        {
            "buffer" : 0,
            "byteLength" : 5964,
            "byteOffset" : 346844
        },
        {
            "buffer" : 0,
            "byteLength" : 768,
            "byteOffset" : 352808
        },
        {
            "buffer" : 0,
            "byteLength" : 768,
            "byteOffset" : 353576
        },
        {
            "buffer" : 0,
            "byteLength" : 512,
            "byteOffset" : 354344
        },
        {
            "buffer" : 0,
            "byteLength" : 354,
            "byteOffset" : 354856
        },
        {
            "buffer" : 0,
            "byteLength" : 18792,
            "byteOffset" : 355212
        },
        {
            "buffer" : 0,
            "byteLength" : 18792,
            "byteOffset" : 374004
        },
        {
            "buffer" : 0,
            "byteLength" : 12528,
            "byteOffset" : 392796
        },
        {
            "buffer" : 0,
            "byteLength" : 17016,
            "byteOffset" : 405324
        }
    ],
    "samplers" : [
        {
            "magFilter" : 9729,
            "minFilter" : 9987
        }
    ],
    "buffers" : [
        {
            "byteLength" : 422340,
            "uri" : "data:application/octet-stream;base64,"
        }
    ]
}
