{
    "asset" : {
        "copyright" : "Jeremy Edelblut",
        "generator" : "Khronos glTF Blender I/O v1.6.16",
        "version" : "2.0"
    },
    "scene" : 0,
    "scenes" : [
        {
            "name" : "Scene",
            "nodes" : [
                0,
                1,
                2,
                3,
                4,
                5,
                6,
                7
            ]
        }
    ],
    "nodes" : [
        {
            "mesh" : 0,
            "name" : "Sphere.029",
            "rotation" : [
                0,
                -0.7071068286895752,
                0,
                0.7071068286895752
            ],
            "scale" : [
                0.5,
                0.5,
                0.5
            ]
        },
        {
            "mesh" : 1,
            "name" : "Circle.393",
            "rotation" : [
                0.7071068286895752,
                0,
                0,
                0.7071068286895752
            ],
            "scale" : [
                2.706974744796753,
                2.706974744796753,
                2.706974744796753
            ]
        },
        {
            "mesh" : 2,
            "name" : "Circle.394",
            "rotation" : [
                0.7071068286895752,
                0,
                0,
                0.7071068286895752
            ],
            "scale" : [
                2.706974744796753,
                2.706974744796753,
                2.706974744796753
            ]
        },
        {
            "mesh" : 3,
            "name" : "Cylinder.038",
            "rotation" : [
                0,
                -0.7071068286895752,
                0,
                0.7071068286895752
            ],
            "scale" : [
                0.7010374069213867,
                0.7010374069213867,
                0.7010374069213867
            ]
        },
        {
            "mesh" : 4,
            "name" : "Circle.395",
            "rotation" : [
                0.7071068286895752,
                0,
                0,
                0.7071068286895752
            ]
        },
        {
            "mesh" : 5,
            "name" : "Roundcube.034",
            "rotation" : [
                0,
                -0.7071068286895752,
                0,
                0.7071068286895752
            ],
            "scale" : [
                0.7010374069213867,
                0.7010374069213867,
                0.7010374069213867
            ]
        },
        {
            "mesh" : 6,
            "name" : "Roundcube.037",
            "rotation" : [
                0,
                -0.7071068286895752,
                0,
                0.7071068286895752
            ],
            "scale" : [
                0.7162042856216431,
                0.6782614588737488,
                0.7162042856216431
            ]
        },
        {
            "mesh" : 7,
            "name" : "Circle.403",
            "rotation" : [
                0.7071068286895752,
                0,
                0,
                0.7071068286895752
            ],
            "scale" : [
                2.706974744796753,
                2.706974744796753,
                2.706974744796753
            ]
        }
    ],
    "materials" : [
        {
            "doubleSided" : true,
            "name" : "dkblue",
            "pbrMetallicRoughness" : {
                "baseColorFactor" : [
                    0.015741879120469093,
                    0.18322162330150604,
                    0.8000000715255737,
                    1
                ],
                "metallicFactor" : 0,
                "roughnessFactor" : 0.5
            }
        },
        {
            "doubleSided" : true,
            "name" : "DKBrown",
            "pbrMetallicRoughness" : {
                "baseColorFactor" : [
                    0.010021701455116272,
                    0.0023923655971884727,
                    0.0018060366855934262,
                    1
                ],
                "metallicFactor" : 0,
                "roughnessFactor" : 0.5
            }
        },
        {
            "doubleSided" : true,
            "name" : "Light_Brown",
            "pbrMetallicRoughness" : {
                "baseColorFactor" : [
                    0.3613067865371704,
                    0.15896087884902954,
                    0.013702086172997952,
                    1
                ],
                "metallicFactor" : 0,
                "roughnessFactor" : 0.5
            }
        },
        {
            "doubleSided" : true,
            "name" : "Yellow_body",
            "pbrMetallicRoughness" : {
                "baseColorTexture" : {
                    "index" : 0
                },
                "metallicFactor" : 0,
                "roughnessFactor" : 0.5
            }
        },
        {
            "doubleSided" : true,
            "name" : "Brown",
            "pbrMetallicRoughness" : {
                "baseColorFactor" : [
                    0.07322511821985245,
                    0.02384052984416485,
                    0.021921303123235703,
                    1
                ],
                "metallicFactor" : 0,
                "roughnessFactor" : 0.5
            }
        }
    ],
    "meshes" : [
        {
            "name" : "Sphere.027",
            "primitives" : [
                {
                    "attributes" : {
                        "POSITION" : 0,
                        "NORMAL" : 1,
                        "TEXCOORD_0" : 2
                    },
                    "indices" : 3,
                    "material" : 0
                }
            ]
        },
        {
            "name" : "Circle.333",
            "primitives" : [
                {
                    "attributes" : {
                        "POSITION" : 4,
                        "NORMAL" : 5,
                        "TEXCOORD_0" : 6
                    },
                    "indices" : 7,
                    "material" : 1
                }
            ]
        },
        {
            "name" : "Circle.393",
            "primitives" : [
                {
                    "attributes" : {
                        "POSITION" : 8,
                        "NORMAL" : 9,
                        "TEXCOORD_0" : 10
                    },
                    "indices" : 11,
                    "material" : 2
                }
            ]
        },
        {
            "name" : "Cylinder.038",
            "primitives" : [
                {
                    "attributes" : {
                        "POSITION" : 12,
                        "NORMAL" : 13
                    },
                    "indices" : 14,
                    "material" : 3
                }
            ]
        },
        {
            "name" : "Circle.405",
            "primitives" : [
                {
                    "attributes" : {
                        "POSITION" : 15,
                        "NORMAL" : 16,
                        "TEXCOORD_0" : 17
                    },
                    "indices" : 18,
                    "material" : 4
                }
            ]
        },
        {
            "name" : "Roundcube.025",
            "primitives" : [
                {
                    "attributes" : {
                        "POSITION" : 19,
                        "NORMAL" : 20,
                        "TEXCOORD_0" : 21
                    },
                    "indices" : 22,
                    "material" : 3
                },
                {
                    "attributes" : {
                        "POSITION" : 23,
                        "NORMAL" : 24,
                        "TEXCOORD_0" : 25
                    },
                    "indices" : 26,
                    "material" : 4
                },
                {
                    "attributes" : {
                        "POSITION" : 27,
                        "NORMAL" : 28,
                        "TEXCOORD_0" : 29
                    },
                    "indices" : 30,
                    "material" : 1
                }
            ]
        },
        {
            "name" : "Roundcube.035",
            "primitives" : [
                {
                    "attributes" : {
                        "POSITION" : 31,
                        "NORMAL" : 32,
                        "TEXCOORD_0" : 33
                    },
                    "indices" : 34,
                    "material" : 4
                }
            ]
        },
        {
            "name" : "Circle.427",
            "primitives" : [
                {
                    "attributes" : {
                        "POSITION" : 35,
                        "NORMAL" : 36,
                        "TEXCOORD_0" : 37
                    },
                    "indices" : 38,
                    "material" : 1
                }
            ]
        }
    ],
    "textures" : [
        {
            "sampler" : 0,
            "source" : 0
        }
    ],
    "images" : [
        {
            "bufferView" : 15,
            "mimeType" : "image/png",
            "name" : "Rectangle 863"
        }
    ],
    "accessors" : [
        {
            "bufferView" : 0,
            "componentType" : 5126,
            "count" : 428,
            "max" : [
                0.20843124389648438,
                -1.253004550933838,
                1.3000004291534424
            ],
            "min" : [
                -1.7915692329406738,
                -2.7983813285827637,
                -1.3000004291534424
            ],
            "type" : "VEC3"
        },
        {
            "bufferView" : 1,
            "componentType" : 5126,
            "count" : 428,
            "type" : "VEC3"
        },
        {
            "bufferView" : 2,
            "componentType" : 5126,
            "count" : 428,
            "type" : "VEC2"
        },
        {
            "bufferView" : 3,
            "componentType" : 5123,
            "count" : 1740,
            "type" : "SCALAR"
        },
        {
            "bufferView" : 4,
            "componentType" : 5126,
            "count" : 1476,
            "max" : [
                0.13105371594429016,
                0.2163577377796173,
                -0.026259204372763634
            ],
            "min" : [
                -0.13105371594429016,
                0.17904885113239288,
                -0.11766227334737778
            ],
            "type" : "VEC3"
        },
        {
            "bufferView" : 5,
            "componentType" : 5126,
            "count" : 1476,
            "type" : "VEC3"
        },
        {
            "bufferView" : 6,
            "componentType" : 5126,
            "count" : 1476,
            "type" : "VEC2"
        },
        {
            "bufferView" : 7,
            "componentType" : 5123,
            "count" : 6912,
            "type" : "SCALAR"
        },
        {
            "bufferView" : 8,
            "componentType" : 5126,
            "count" : 442,
            "max" : [
                0.025262437760829926,
                0.22202681005001068,
                0.007146526128053665
            ],
            "min" : [
                -0.02451690286397934,
                0.20889708399772644,
                -0.022025583311915398
            ],
            "type" : "VEC3"
        },
        {
            "bufferView" : 9,
            "componentType" : 5126,
            "count" : 442,
            "type" : "VEC3"
        },
        {
            "bufferView" : 10,
            "componentType" : 5126,
            "count" : 442,
            "type" : "VEC2"
        },
        {
            "bufferView" : 11,
            "componentType" : 5123,
            "count" : 1824,
            "type" : "SCALAR"
        },
        {
            "bufferView" : 12,
            "componentType" : 5126,
            "count" : 1924,
            "max" : [
                -0.14859741926193237,
                0.5575903654098511,
                1.2573885917663574
            ],
            "min" : [
                -0.5303949117660522,
                -0.09217178821563721,
                -1.257388710975647
            ],
            "type" : "VEC3"
        },
        {
            "bufferView" : 13,
            "componentType" : 5126,
            "count" : 1924,
            "type" : "VEC3"
        },
        {
            "bufferView" : 14,
            "componentType" : 5123,
            "count" : 11520,
            "type" : "SCALAR"
        },
        {
            "bufferView" : 16,
            "componentType" : 5126,
            "count" : 300,
            "max" : [
                0.41667771339416504,
                0.5354373455047607,
                -0.3105190396308899
            ],
            "min" : [
                -0.41667771339416504,
                0.4103906750679016,
                -0.460923969745636
            ],
            "type" : "VEC3"
        },
        {
            "bufferView" : 17,
            "componentType" : 5126,
            "count" : 300,
            "type" : "VEC3"
        },
        {
            "bufferView" : 18,
            "componentType" : 5126,
            "count" : 300,
            "type" : "VEC2"
        },
        {
            "bufferView" : 19,
            "componentType" : 5123,
            "count" : 1152,
            "type" : "SCALAR"
        },
        {
            "bufferView" : 20,
            "componentType" : 5126,
            "count" : 911,
            "max" : [
                0.8239538669586182,
                1.2452303171157837,
                1.0290236473083496
            ],
            "min" : [
                -1.2668087482452393,
                -1.182313084602356,
                -1.0156068801879883
            ],
            "type" : "VEC3"
        },
        {
            "bufferView" : 21,
            "componentType" : 5126,
            "count" : 911,
            "type" : "VEC3"
        },
        {
            "bufferView" : 22,
            "componentType" : 5126,
            "count" : 911,
            "type" : "VEC2"
        },
        {
            "bufferView" : 23,
            "componentType" : 5123,
            "count" : 4248,
            "type" : "SCALAR"
        },
        {
            "bufferView" : 24,
            "componentType" : 5126,
            "count" : 292,
            "max" : [
                -0.48082131147384644,
                1.2182239294052124,
                1.007284164428711
            ],
            "min" : [
                -1.3394240140914917,
                -0.21281379461288452,
                -0.9938674569129944
            ],
            "type" : "VEC3"
        },
        {
            "bufferView" : 25,
            "componentType" : 5126,
            "count" : 292,
            "type" : "VEC3"
        },
        {
            "bufferView" : 26,
            "componentType" : 5126,
            "count" : 292,
            "type" : "VEC2"
        },
        {
            "bufferView" : 27,
            "componentType" : 5123,
            "count" : 1368,
            "type" : "SCALAR"
        },
        {
            "bufferView" : 28,
            "componentType" : 5126,
            "count" : 185,
            "max" : [
                0.768013596534729,
                -0.18993443250656128,
                0.24994032084941864
            ],
            "min" : [
                0.6484404802322388,
                -0.35623347759246826,
                -0.24736319482326508
            ],
            "type" : "VEC3"
        },
        {
            "bufferView" : 29,
            "componentType" : 5126,
            "count" : 185,
            "type" : "VEC3"
        },
        {
            "bufferView" : 30,
            "componentType" : 5126,
            "count" : 185,
            "type" : "VEC2"
        },
        {
            "bufferView" : 31,
            "componentType" : 5123,
            "count" : 660,
            "type" : "SCALAR"
        },
        {
            "bufferView" : 32,
            "componentType" : 5126,
            "count" : 1864,
            "max" : [
                0.8751912713050842,
                1.4761883020401,
                1.1331143379211426
            ],
            "min" : [
                -1.4382184743881226,
                -0.7878145575523376,
                -1.1331143379211426
            ],
            "type" : "VEC3"
        },
        {
            "bufferView" : 33,
            "componentType" : 5126,
            "count" : 1864,
            "type" : "VEC3"
        },
        {
            "bufferView" : 34,
            "componentType" : 5126,
            "count" : 1864,
            "type" : "VEC2"
        },
        {
            "bufferView" : 35,
            "componentType" : 5123,
            "count" : 8832,
            "type" : "SCALAR"
        },
        {
            "bufferView" : 36,
            "componentType" : 5126,
            "count" : 184,
            "max" : [
                0.14489835500717163,
                0.1890382021665573,
                -0.06825520098209381
            ],
            "min" : [
                -0.14489835500717163,
                0.16987267136573792,
                -0.07984433323144913
            ],
            "type" : "VEC3"
        },
        {
            "bufferView" : 37,
            "componentType" : 5126,
            "count" : 184,
            "type" : "VEC3"
        },
        {
            "bufferView" : 38,
            "componentType" : 5126,
            "count" : 184,
            "type" : "VEC2"
        },
        {
            "bufferView" : 39,
            "componentType" : 5123,
            "count" : 480,
            "type" : "SCALAR"
        }
    ],
    "bufferViews" : [
        {
            "buffer" : 0,
            "byteLength" : 5136,
            "byteOffset" : 0
        },
        {
            "buffer" : 0,
            "byteLength" : 5136,
            "byteOffset" : 5136
        },
        {
            "buffer" : 0,
            "byteLength" : 3424,
            "byteOffset" : 10272
        },
        {
            "buffer" : 0,
            "byteLength" : 3480,
            "byteOffset" : 13696
        },
        {
            "buffer" : 0,
            "byteLength" : 17712,
            "byteOffset" : 17176
        },
        {
            "buffer" : 0,
            "byteLength" : 17712,
            "byteOffset" : 34888
        },
        {
            "buffer" : 0,
            "byteLength" : 11808,
            "byteOffset" : 52600
        },
        {
            "buffer" : 0,
            "byteLength" : 13824,
            "byteOffset" : 64408
        },
        {
            "buffer" : 0,
            "byteLength" : 5304,
            "byteOffset" : 78232
        },
        {
            "buffer" : 0,
            "byteLength" : 5304,
            "byteOffset" : 83536
        },
        {
            "buffer" : 0,
            "byteLength" : 3536,
            "byteOffset" : 88840
        },
        {
            "buffer" : 0,
            "byteLength" : 3648,
            "byteOffset" : 92376
        },
        {
            "buffer" : 0,
            "byteLength" : 23088,
            "byteOffset" : 96024
        },
        {
            "buffer" : 0,
            "byteLength" : 23088,
            "byteOffset" : 119112
        },
        {
            "buffer" : 0,
            "byteLength" : 23040,
            "byteOffset" : 142200
        },
        {
            "buffer" : 0,
            "byteLength" : 85292,
            "byteOffset" : 165240
        },
        {
            "buffer" : 0,
            "byteLength" : 3600,
            "byteOffset" : 250532
        },
        {
            "buffer" : 0,
            "byteLength" : 3600,
            "byteOffset" : 254132
        },
        {
            "buffer" : 0,
            "byteLength" : 2400,
            "byteOffset" : 257732
        },
        {
            "buffer" : 0,
            "byteLength" : 2304,
            "byteOffset" : 260132
        },
        {
            "buffer" : 0,
            "byteLength" : 10932,
            "byteOffset" : 262436
        },
        {
            "buffer" : 0,
            "byteLength" : 10932,
            "byteOffset" : 273368
        },
        {
            "buffer" : 0,
            "byteLength" : 7288,
            "byteOffset" : 284300
        },
        {
            "buffer" : 0,
            "byteLength" : 8496,
            "byteOffset" : 291588
        },
        {
            "buffer" : 0,
            "byteLength" : 3504,
            "byteOffset" : 300084
        },
        {
            "buffer" : 0,
            "byteLength" : 3504,
            "byteOffset" : 303588
        },
        {
            "buffer" : 0,
            "byteLength" : 2336,
            "byteOffset" : 307092
        },
        {
            "buffer" : 0,
            "byteLength" : 2736,
            "byteOffset" : 309428
        },
        {
            "buffer" : 0,
            "byteLength" : 2220,
            "byteOffset" : 312164
        },
        {
            "buffer" : 0,
            "byteLength" : 2220,
            "byteOffset" : 314384
        },
        {
            "buffer" : 0,
            "byteLength" : 1480,
            "byteOffset" : 316604
        },
        {
            "buffer" : 0,
            "byteLength" : 1320,
            "byteOffset" : 318084
        },
        {
            "buffer" : 0,
            "byteLength" : 22368,
            "byteOffset" : 319404
        },
        {
            "buffer" : 0,
            "byteLength" : 22368,
            "byteOffset" : 341772
        },
        {
            "buffer" : 0,
            "byteLength" : 14912,
            "byteOffset" : 364140
        },
        {
            "buffer" : 0,
            "byteLength" : 17664,
            "byteOffset" : 379052
        },
        {
            "buffer" : 0,
            "byteLength" : 2208,
            "byteOffset" : 396716
        },
        {
            "buffer" : 0,
            "byteLength" : 2208,
            "byteOffset" : 398924
        },
        {
            "buffer" : 0,
            "byteLength" : 1472,
            "byteOffset" : 401132
        },
        {
            "buffer" : 0,
            "byteLength" : 960,
            "byteOffset" : 402604
        }
    ],
    "samplers" : [
        {
            "magFilter" : 9729,
            "minFilter" : 9987
        }
    ],
    "buffers" : [
        {
            "byteLength" : 403564,
            "uri" : "data:application/octet-stream;base64,"
        }
    ]
}
