{
    "asset" : {
        "copyright" : "Jeremy Edelblut",
        "generator" : "Khronos glTF Blender I/O v1.7.33",
        "version" : "2.0"
    },
    "scene" : 0,
    "scenes" : [
        {
            "name" : "Scene",
            "nodes" : [
                0,
                1
            ]
        }
    ],
    "nodes" : [
        {
            "mesh" : 0,
            "name" : "Circle.1809",
            "rotation" : [
                0,
                0.70710688829422,
                0,
                0.7071067094802856
            ]
        },
        {
            "mesh" : 1,
            "name" : "Cube.6120",
            "rotation" : [
                0.03238418698310852,
                -0.7436797618865967,
                -0.14612990617752075,
                0.651565670967102
            ],
            "scale" : [
                0.7238582968711853,
                0.7238582968711853,
                0.7238582968711853
            ],
            "translation" : [
                -0.28901225328445435,
                0.8966546058654785,
                -0.2514042556285858
            ]
        }
    ],
    "materials" : [
        {
            "doubleSided" : true,
            "name" : "color",
            "pbrMetallicRoughness" : {
                "baseColorTexture" : {
                    "index" : 0
                },
                "metallicFactor" : 0,
                "roughnessFactor" : 0.5
            }
        }
    ],
    "meshes" : [
        {
            "name" : "Circle.2012",
            "primitives" : [
                {
                    "attributes" : {
                        "POSITION" : 0,
                        "NORMAL" : 1,
                        "TEXCOORD_0" : 2
                    },
                    "indices" : 3,
                    "material" : 0
                }
            ]
        },
        {
            "name" : "Cube.7154",
            "primitives" : [
                {
                    "attributes" : {
                        "POSITION" : 4,
                        "NORMAL" : 5,
                        "TEXCOORD_0" : 6
                    },
                    "indices" : 7
                }
            ]
        }
    ],
    "textures" : [
        {
            "sampler" : 0,
            "source" : 0
        }
    ],
    "images" : [
        {
            "bufferView" : 4,
            "mimeType" : "image/png",
            "name" : "tex"
        }
    ],
    "accessors" : [
        {
            "bufferView" : 0,
            "componentType" : 5126,
            "count" : 643,
            "max" : [
                0.24610593914985657,
                1.126200556755066,
                0.786145031452179
            ],
            "min" : [
                -0.2461061030626297,
                -0.9473361968994141,
                -0.6747648119926453
            ],
            "type" : "VEC3"
        },
        {
            "bufferView" : 1,
            "componentType" : 5126,
            "count" : 643,
            "type" : "VEC3"
        },
        {
            "bufferView" : 2,
            "componentType" : 5126,
            "count" : 643,
            "type" : "VEC2"
        },
        {
            "bufferView" : 3,
            "componentType" : 5123,
            "count" : 2610,
            "type" : "SCALAR"
        },
        {
            "bufferView" : 5,
            "componentType" : 5126,
            "count" : 66,
            "max" : [
                0.018552348017692566,
                0.16042619943618774,
                0.04537548869848251
            ],
            "min" : [
                -0.018552497029304504,
                -0.16042733192443848,
                -0.04537532478570938
            ],
            "type" : "VEC3"
        },
        {
            "bufferView" : 6,
            "componentType" : 5126,
            "count" : 66,
            "type" : "VEC3"
        },
        {
            "bufferView" : 7,
            "componentType" : 5126,
            "count" : 66,
            "type" : "VEC2"
        },
        {
            "bufferView" : 8,
            "componentType" : 5123,
            "count" : 120,
            "type" : "SCALAR"
        }
    ],
    "bufferViews" : [
        {
            "buffer" : 0,
            "byteLength" : 7716,
            "byteOffset" : 0
        },
        {
            "buffer" : 0,
            "byteLength" : 7716,
            "byteOffset" : 7716
        },
        {
            "buffer" : 0,
            "byteLength" : 5144,
            "byteOffset" : 15432
        },
        {
            "buffer" : 0,
            "byteLength" : 5220,
            "byteOffset" : 20576
        },
        {
            "buffer" : 0,
            "byteLength" : 11997,
            "byteOffset" : 25796
        },
        {
            "buffer" : 0,
            "byteLength" : 792,
            "byteOffset" : 37796
        },
        {
            "buffer" : 0,
            "byteLength" : 792,
            "byteOffset" : 38588
        },
        {
            "buffer" : 0,
            "byteLength" : 528,
            "byteOffset" : 39380
        },
        {
            "buffer" : 0,
            "byteLength" : 240,
            "byteOffset" : 39908
        }
    ],
    "samplers" : [
        {
            "magFilter" : 9729,
            "minFilter" : 9987
        }
    ],
    "buffers" : [
        {
            "byteLength" : 40148,
            "uri" : "data:application/octet-stream;base64,"
        }
    ]
}
