{
    "asset" : {
        "copyright" : "Jeremy Edelblut",
        "generator" : "Khronos glTF Blender I/O v1.7.33",
        "version" : "2.0"
    },
    "scene" : 0,
    "scenes" : [
        {
            "name" : "Scene",
            "nodes" : [
                0,
                1,
                2,
                3,
                4,
                5,
                6,
                7,
                8,
                9
            ]
        }
    ],
    "nodes" : [
        {
            "mesh" : 0,
            "name" : "Circle.1131"
        },
        {
            "mesh" : 1,
            "name" : "Circle.1132"
        },
        {
            "mesh" : 2,
            "name" : "Cylinder.206"
        },
        {
            "mesh" : 3,
            "name" : "Roundcube.245"
        },
        {
            "mesh" : 4,
            "name" : "Circle.1133"
        },
        {
            "mesh" : 5,
            "name" : "Sphere.189"
        },
        {
            "mesh" : 6,
            "name" : "Cube.2882"
        },
        {
            "mesh" : 7,
            "name" : "Circle.1134"
        },
        {
            "mesh" : 8,
            "name" : "Roundcube.246"
        },
        {
            "mesh" : 9,
            "name" : "Circle.1135"
        }
    ],
    "materials" : [
        {
            "doubleSided" : true,
            "name" : "color",
            "pbrMetallicRoughness" : {
                "baseColorTexture" : {
                    "index" : 0
                },
                "metallicFactor" : 0,
                "roughnessFactor" : 0.5
            }
        },
        {
            "doubleSided" : true,
            "name" : "skin_tone_one",
            "pbrMetallicRoughness" : {
                "baseColorTexture" : {
                    "index" : 1
                },
                "metallicFactor" : 0,
                "roughnessFactor" : 0.5
            }
        }
    ],
    "meshes" : [
        {
            "name" : "Circle.1239",
            "primitives" : [
                {
                    "attributes" : {
                        "POSITION" : 0,
                        "NORMAL" : 1,
                        "TEXCOORD_0" : 2
                    },
                    "indices" : 3,
                    "material" : 0
                }
            ]
        },
        {
            "name" : "Circle.1240",
            "primitives" : [
                {
                    "attributes" : {
                        "POSITION" : 4,
                        "NORMAL" : 5,
                        "TEXCOORD_0" : 6
                    },
                    "indices" : 7,
                    "material" : 1
                }
            ]
        },
        {
            "name" : "Cylinder.205",
            "primitives" : [
                {
                    "attributes" : {
                        "POSITION" : 8,
                        "NORMAL" : 9,
                        "TEXCOORD_0" : 10
                    },
                    "indices" : 11,
                    "material" : 1
                }
            ]
        },
        {
            "name" : "Roundcube.245",
            "primitives" : [
                {
                    "attributes" : {
                        "POSITION" : 12,
                        "NORMAL" : 13,
                        "TEXCOORD_0" : 14
                    },
                    "indices" : 15,
                    "material" : 0
                },
                {
                    "attributes" : {
                        "POSITION" : 16,
                        "NORMAL" : 17,
                        "TEXCOORD_0" : 18
                    },
                    "indices" : 19,
                    "material" : 1
                }
            ]
        },
        {
            "name" : "Circle.1241",
            "primitives" : [
                {
                    "attributes" : {
                        "POSITION" : 20,
                        "NORMAL" : 21,
                        "TEXCOORD_0" : 22
                    },
                    "indices" : 23,
                    "material" : 1
                }
            ]
        },
        {
            "name" : "Sphere.188",
            "primitives" : [
                {
                    "attributes" : {
                        "POSITION" : 24,
                        "NORMAL" : 25,
                        "TEXCOORD_0" : 26
                    },
                    "indices" : 27,
                    "material" : 0
                }
            ]
        },
        {
            "name" : "Cube.3410",
            "primitives" : [
                {
                    "attributes" : {
                        "POSITION" : 28,
                        "NORMAL" : 29,
                        "TEXCOORD_0" : 30
                    },
                    "indices" : 31,
                    "material" : 1
                }
            ]
        },
        {
            "name" : "Circle.1242",
            "primitives" : [
                {
                    "attributes" : {
                        "POSITION" : 32,
                        "NORMAL" : 33,
                        "TEXCOORD_0" : 34
                    },
                    "indices" : 35,
                    "material" : 0
                }
            ]
        },
        {
            "name" : "Roundcube.246",
            "primitives" : [
                {
                    "attributes" : {
                        "POSITION" : 36,
                        "NORMAL" : 37,
                        "TEXCOORD_0" : 38
                    },
                    "indices" : 39,
                    "material" : 1
                }
            ]
        },
        {
            "name" : "Circle.1244",
            "primitives" : [
                {
                    "attributes" : {
                        "POSITION" : 40,
                        "NORMAL" : 41,
                        "TEXCOORD_0" : 42
                    },
                    "indices" : 43,
                    "material" : 0
                }
            ]
        }
    ],
    "textures" : [
        {
            "sampler" : 0,
            "source" : 0
        },
        {
            "sampler" : 0,
            "source" : 0
        }
    ],
    "images" : [
        {
            "bufferView" : 4,
            "mimeType" : "image/png",
            "name" : "tex"
        }
    ],
    "accessors" : [
        {
            "bufferView" : 0,
            "componentType" : 5126,
            "count" : 1448,
            "max" : [
                0.34748584032058716,
                0.3155887722969055,
                0.568945050239563
            ],
            "min" : [
                -0.34748584032058716,
                0.07176858931779861,
                0.48467889428138733
            ],
            "type" : "VEC3"
        },
        {
            "bufferView" : 1,
            "componentType" : 5126,
            "count" : 1448,
            "type" : "VEC3"
        },
        {
            "bufferView" : 2,
            "componentType" : 5126,
            "count" : 1448,
            "type" : "VEC2"
        },
        {
            "bufferView" : 3,
            "componentType" : 5123,
            "count" : 6912,
            "type" : "SCALAR"
        },
        {
            "bufferView" : 5,
            "componentType" : 5126,
            "count" : 142,
            "max" : [
                0.0685088187456131,
                0.059785112738609314,
                0.5841642022132874
            ],
            "min" : [
                -0.06649766117334366,
                -0.01725516840815544,
                0.5654403567314148
            ],
            "type" : "VEC3"
        },
        {
            "bufferView" : 6,
            "componentType" : 5126,
            "count" : 142,
            "type" : "VEC3"
        },
        {
            "bufferView" : 7,
            "componentType" : 5126,
            "count" : 142,
            "type" : "VEC2"
        },
        {
            "bufferView" : 8,
            "componentType" : 5123,
            "count" : 528,
            "type" : "SCALAR"
        },
        {
            "bufferView" : 9,
            "componentType" : 5126,
            "count" : 1135,
            "max" : [
                0.8778747320175171,
                0.3865436911582947,
                -0.10627720504999161
            ],
            "min" : [
                -0.8778746724128723,
                -0.0602678619325161,
                -0.36960697174072266
            ],
            "type" : "VEC3"
        },
        {
            "bufferView" : 10,
            "componentType" : 5126,
            "count" : 1135,
            "type" : "VEC3"
        },
        {
            "bufferView" : 11,
            "componentType" : 5126,
            "count" : 1135,
            "type" : "VEC2"
        },
        {
            "bufferView" : 12,
            "componentType" : 5123,
            "count" : 4992,
            "type" : "SCALAR"
        },
        {
            "bufferView" : 13,
            "componentType" : 5126,
            "count" : 837,
            "max" : [
                0.17784720659255981,
                -0.13748568296432495,
                0.4926007390022278
            ],
            "min" : [
                -0.17509962618350983,
                -1.4020906686782837,
                -0.4784606099128723
            ],
            "type" : "VEC3"
        },
        {
            "bufferView" : 14,
            "componentType" : 5126,
            "count" : 837,
            "type" : "VEC3"
        },
        {
            "bufferView" : 15,
            "componentType" : 5126,
            "count" : 837,
            "type" : "VEC2"
        },
        {
            "bufferView" : 16,
            "componentType" : 5123,
            "count" : 2064,
            "type" : "SCALAR"
        },
        {
            "bufferView" : 17,
            "componentType" : 5126,
            "count" : 1173,
            "max" : [
                0.7119784355163574,
                0.8729530572891235,
                0.5776224732398987
            ],
            "min" : [
                -0.7213840484619141,
                -0.8074673414230347,
                -0.9389863610267639
            ],
            "type" : "VEC3"
        },
        {
            "bufferView" : 18,
            "componentType" : 5126,
            "count" : 1173,
            "type" : "VEC3"
        },
        {
            "bufferView" : 19,
            "componentType" : 5126,
            "count" : 1173,
            "type" : "VEC2"
        },
        {
            "bufferView" : 20,
            "componentType" : 5123,
            "count" : 5916,
            "type" : "SCALAR"
        },
        {
            "bufferView" : 21,
            "componentType" : 5126,
            "count" : 316,
            "max" : [
                0.41679465770721436,
                0.4609140455722809,
                0.5353869199752808
            ],
            "min" : [
                -0.41679465770721436,
                0.31040990352630615,
                0.410471111536026
            ],
            "type" : "VEC3"
        },
        {
            "bufferView" : 22,
            "componentType" : 5126,
            "count" : 316,
            "type" : "VEC3"
        },
        {
            "bufferView" : 23,
            "componentType" : 5126,
            "count" : 316,
            "type" : "VEC2"
        },
        {
            "bufferView" : 24,
            "componentType" : 5123,
            "count" : 1152,
            "type" : "SCALAR"
        },
        {
            "bufferView" : 25,
            "componentType" : 5126,
            "count" : 445,
            "max" : [
                0.7500002384185791,
                -0.626502275466919,
                0.050962019711732864
            ],
            "min" : [
                -0.7500002384185791,
                -1.3991906642913818,
                -0.9490382075309753
            ],
            "type" : "VEC3"
        },
        {
            "bufferView" : 26,
            "componentType" : 5126,
            "count" : 445,
            "type" : "VEC3"
        },
        {
            "bufferView" : 27,
            "componentType" : 5126,
            "count" : 445,
            "type" : "VEC2"
        },
        {
            "bufferView" : 28,
            "componentType" : 5123,
            "count" : 2418,
            "type" : "SCALAR"
        },
        {
            "bufferView" : 29,
            "componentType" : 5126,
            "count" : 60,
            "max" : [
                0.9285151362419128,
                0.9810154438018799,
                -0.18600694835186005
            ],
            "min" : [
                0.23198455572128296,
                0.7145608067512512,
                -0.53326416015625
            ],
            "type" : "VEC3"
        },
        {
            "bufferView" : 30,
            "componentType" : 5126,
            "count" : 60,
            "type" : "VEC3"
        },
        {
            "bufferView" : 31,
            "componentType" : 5126,
            "count" : 60,
            "type" : "VEC2"
        },
        {
            "bufferView" : 32,
            "componentType" : 5123,
            "count" : 138,
            "type" : "SCALAR"
        },
        {
            "bufferView" : 33,
            "componentType" : 5126,
            "count" : 878,
            "max" : [
                1.2315621376037598,
                1.1745154857635498,
                -0.03986683487892151
            ],
            "min" : [
                0.4018082618713379,
                0.27768200635910034,
                -0.5872814655303955
            ],
            "type" : "VEC3"
        },
        {
            "bufferView" : 34,
            "componentType" : 5126,
            "count" : 878,
            "type" : "VEC3"
        },
        {
            "bufferView" : 35,
            "componentType" : 5126,
            "count" : 878,
            "type" : "VEC2"
        },
        {
            "bufferView" : 36,
            "componentType" : 5123,
            "count" : 2544,
            "type" : "SCALAR"
        },
        {
            "bufferView" : 37,
            "componentType" : 5126,
            "count" : 1566,
            "max" : [
                0.8399200439453125,
                1.0334900617599487,
                0.6530172824859619
            ],
            "min" : [
                -0.8399200439453125,
                -0.5343442559242249,
                -1.0585668087005615
            ],
            "type" : "VEC3"
        },
        {
            "bufferView" : 38,
            "componentType" : 5126,
            "count" : 1566,
            "type" : "VEC3"
        },
        {
            "bufferView" : 39,
            "componentType" : 5126,
            "count" : 1566,
            "type" : "VEC2"
        },
        {
            "bufferView" : 40,
            "componentType" : 5123,
            "count" : 8508,
            "type" : "SCALAR"
        },
        {
            "bufferView" : 41,
            "componentType" : 5126,
            "count" : 180,
            "max" : [
                0.38757580518722534,
                0.21553729474544525,
                0.5080255270004272
            ],
            "min" : [
                -0.3888142704963684,
                0.18469953536987305,
                0.4598409831523895
            ],
            "type" : "VEC3"
        },
        {
            "bufferView" : 42,
            "componentType" : 5126,
            "count" : 180,
            "type" : "VEC3"
        },
        {
            "bufferView" : 43,
            "componentType" : 5126,
            "count" : 180,
            "type" : "VEC2"
        },
        {
            "bufferView" : 44,
            "componentType" : 5123,
            "count" : 480,
            "type" : "SCALAR"
        }
    ],
    "bufferViews" : [
        {
            "buffer" : 0,
            "byteLength" : 17376,
            "byteOffset" : 0
        },
        {
            "buffer" : 0,
            "byteLength" : 17376,
            "byteOffset" : 17376
        },
        {
            "buffer" : 0,
            "byteLength" : 11584,
            "byteOffset" : 34752
        },
        {
            "buffer" : 0,
            "byteLength" : 13824,
            "byteOffset" : 46336
        },
        {
            "buffer" : 0,
            "byteLength" : 11997,
            "byteOffset" : 60160
        },
        {
            "buffer" : 0,
            "byteLength" : 1704,
            "byteOffset" : 72160
        },
        {
            "buffer" : 0,
            "byteLength" : 1704,
            "byteOffset" : 73864
        },
        {
            "buffer" : 0,
            "byteLength" : 1136,
            "byteOffset" : 75568
        },
        {
            "buffer" : 0,
            "byteLength" : 1056,
            "byteOffset" : 76704
        },
        {
            "buffer" : 0,
            "byteLength" : 13620,
            "byteOffset" : 77760
        },
        {
            "buffer" : 0,
            "byteLength" : 13620,
            "byteOffset" : 91380
        },
        {
            "buffer" : 0,
            "byteLength" : 9080,
            "byteOffset" : 105000
        },
        {
            "buffer" : 0,
            "byteLength" : 9984,
            "byteOffset" : 114080
        },
        {
            "buffer" : 0,
            "byteLength" : 10044,
            "byteOffset" : 124064
        },
        {
            "buffer" : 0,
            "byteLength" : 10044,
            "byteOffset" : 134108
        },
        {
            "buffer" : 0,
            "byteLength" : 6696,
            "byteOffset" : 144152
        },
        {
            "buffer" : 0,
            "byteLength" : 4128,
            "byteOffset" : 150848
        },
        {
            "buffer" : 0,
            "byteLength" : 14076,
            "byteOffset" : 154976
        },
        {
            "buffer" : 0,
            "byteLength" : 14076,
            "byteOffset" : 169052
        },
        {
            "buffer" : 0,
            "byteLength" : 9384,
            "byteOffset" : 183128
        },
        {
            "buffer" : 0,
            "byteLength" : 11832,
            "byteOffset" : 192512
        },
        {
            "buffer" : 0,
            "byteLength" : 3792,
            "byteOffset" : 204344
        },
        {
            "buffer" : 0,
            "byteLength" : 3792,
            "byteOffset" : 208136
        },
        {
            "buffer" : 0,
            "byteLength" : 2528,
            "byteOffset" : 211928
        },
        {
            "buffer" : 0,
            "byteLength" : 2304,
            "byteOffset" : 214456
        },
        {
            "buffer" : 0,
            "byteLength" : 5340,
            "byteOffset" : 216760
        },
        {
            "buffer" : 0,
            "byteLength" : 5340,
            "byteOffset" : 222100
        },
        {
            "buffer" : 0,
            "byteLength" : 3560,
            "byteOffset" : 227440
        },
        {
            "buffer" : 0,
            "byteLength" : 4836,
            "byteOffset" : 231000
        },
        {
            "buffer" : 0,
            "byteLength" : 720,
            "byteOffset" : 235836
        },
        {
            "buffer" : 0,
            "byteLength" : 720,
            "byteOffset" : 236556
        },
        {
            "buffer" : 0,
            "byteLength" : 480,
            "byteOffset" : 237276
        },
        {
            "buffer" : 0,
            "byteLength" : 276,
            "byteOffset" : 237756
        },
        {
            "buffer" : 0,
            "byteLength" : 10536,
            "byteOffset" : 238032
        },
        {
            "buffer" : 0,
            "byteLength" : 10536,
            "byteOffset" : 248568
        },
        {
            "buffer" : 0,
            "byteLength" : 7024,
            "byteOffset" : 259104
        },
        {
            "buffer" : 0,
            "byteLength" : 5088,
            "byteOffset" : 266128
        },
        {
            "buffer" : 0,
            "byteLength" : 18792,
            "byteOffset" : 271216
        },
        {
            "buffer" : 0,
            "byteLength" : 18792,
            "byteOffset" : 290008
        },
        {
            "buffer" : 0,
            "byteLength" : 12528,
            "byteOffset" : 308800
        },
        {
            "buffer" : 0,
            "byteLength" : 17016,
            "byteOffset" : 321328
        },
        {
            "buffer" : 0,
            "byteLength" : 2160,
            "byteOffset" : 338344
        },
        {
            "buffer" : 0,
            "byteLength" : 2160,
            "byteOffset" : 340504
        },
        {
            "buffer" : 0,
            "byteLength" : 1440,
            "byteOffset" : 342664
        },
        {
            "buffer" : 0,
            "byteLength" : 960,
            "byteOffset" : 344104
        }
    ],
    "samplers" : [
        {
            "magFilter" : 9729,
            "minFilter" : 9987
        }
    ],
    "buffers" : [
        {
            "byteLength" : 345064,
            "uri" : "data:application/octet-stream;base64,"
        }
    ]
}
