{
    "asset" : {
        "copyright" : "Jeremy Edelblut",
        "generator" : "Khronos glTF Blender I/O v1.6.16",
        "version" : "2.0"
    },
    "scene" : 0,
    "scenes" : [
        {
            "name" : "Scene",
            "nodes" : [
                0,
                1,
                2,
                3,
                4,
                5,
                6,
                7,
                8,
                9,
                10
            ]
        }
    ],
    "nodes" : [
        {
            "mesh" : 0,
            "name" : "Circle.529",
            "rotation" : [
                0.7071068286895752,
                0,
                0,
                0.7071068286895752
            ],
            "scale" : [
                2.706974744796753,
                2.706974744796753,
                2.706974744796753
            ]
        },
        {
            "mesh" : 1,
            "name" : "Circle.530",
            "rotation" : [
                0.7071068286895752,
                0,
                0,
                0.7071068286895752
            ],
            "scale" : [
                2.706974744796753,
                2.706974744796753,
                2.706974744796753
            ]
        },
        {
            "mesh" : 2,
            "name" : "Cylinder.067",
            "rotation" : [
                0,
                -0.7071068286895752,
                0,
                0.7071068286895752
            ],
            "scale" : [
                0.7010374069213867,
                0.7010374069213867,
                0.7010374069213867
            ]
        },
        {
            "mesh" : 3,
            "name" : "Roundcube.073",
            "rotation" : [
                0,
                -0.7071068286895752,
                0,
                0.7071068286895752
            ],
            "scale" : [
                0.7010374069213867,
                0.7010374069213867,
                0.7010374069213867
            ]
        },
        {
            "mesh" : 4,
            "name" : "Circle.531",
            "rotation" : [
                0.7071068286895752,
                0,
                0,
                0.7071068286895752
            ]
        },
        {
            "mesh" : 5,
            "name" : "Sphere.031",
            "rotation" : [
                0,
                -0.7071068286895752,
                0,
                0.7071068286895752
            ],
            "scale" : [
                0.5,
                0.5,
                0.5
            ]
        },
        {
            "mesh" : 6,
            "name" : "Circle.534",
            "rotation" : [
                0.7071068286895752,
                0,
                0,
                0.7071068286895752
            ]
        },
        {
            "mesh" : 7,
            "name" : "Circle.532",
            "rotation" : [
                0.7044618129730225,
                0.0611029751598835,
                -0.7044618725776672,
                -0.061102867126464844
            ],
            "scale" : [
                0.26839855313301086,
                0.26839855313301086,
                0.2683985233306885
            ]
        },
        {
            "mesh" : 8,
            "name" : "Circle.533",
            "rotation" : [
                -0.5451915264129639,
                -0.32924214005470276,
                0.6599465608596802,
                0.39854276180267334
            ],
            "scale" : [
                0.3460432291030884,
                0.3460431694984436,
                0.3460431396961212
            ]
        },
        {
            "mesh" : 9,
            "name" : "Roundcube.076",
            "rotation" : [
                0,
                -0.7071068286895752,
                0,
                0.7071068286895752
            ],
            "scale" : [
                0.7162042856216431,
                0.6782614588737488,
                0.7162042856216431
            ]
        },
        {
            "mesh" : 10,
            "name" : "Circle.548",
            "rotation" : [
                0.7071068286895752,
                0,
                0,
                0.7071068286895752
            ],
            "scale" : [
                2.706974744796753,
                2.706974744796753,
                2.706974744796753
            ]
        }
    ],
    "materials" : [
        {
            "doubleSided" : true,
            "name" : "Color",
            "pbrMetallicRoughness" : {
                "baseColorTexture" : {
                    "index" : 0
                },
                "metallicFactor" : 0,
                "roughnessFactor" : 0.5
            }
        }
    ],
    "meshes" : [
        {
            "name" : "Circle.596",
            "primitives" : [
                {
                    "attributes" : {
                        "POSITION" : 0,
                        "NORMAL" : 1,
                        "TEXCOORD_0" : 2
                    },
                    "indices" : 3,
                    "material" : 0
                }
            ]
        },
        {
            "name" : "Circle.597",
            "primitives" : [
                {
                    "attributes" : {
                        "POSITION" : 4,
                        "NORMAL" : 5,
                        "TEXCOORD_0" : 6
                    },
                    "indices" : 7,
                    "material" : 0
                }
            ]
        },
        {
            "name" : "Cylinder.067",
            "primitives" : [
                {
                    "attributes" : {
                        "POSITION" : 8,
                        "NORMAL" : 9,
                        "TEXCOORD_0" : 10
                    },
                    "indices" : 11,
                    "material" : 0
                }
            ]
        },
        {
            "name" : "Roundcube.074",
            "primitives" : [
                {
                    "attributes" : {
                        "POSITION" : 12,
                        "NORMAL" : 13,
                        "TEXCOORD_0" : 14
                    },
                    "indices" : 15,
                    "material" : 0
                }
            ]
        },
        {
            "name" : "Circle.598",
            "primitives" : [
                {
                    "attributes" : {
                        "POSITION" : 16,
                        "NORMAL" : 17,
                        "TEXCOORD_0" : 18
                    },
                    "indices" : 19,
                    "material" : 0
                }
            ]
        },
        {
            "name" : "Sphere.031",
            "primitives" : [
                {
                    "attributes" : {
                        "POSITION" : 20,
                        "NORMAL" : 21,
                        "TEXCOORD_0" : 22
                    },
                    "indices" : 23,
                    "material" : 0
                }
            ]
        },
        {
            "name" : "Circle.601",
            "primitives" : [
                {
                    "attributes" : {
                        "POSITION" : 24,
                        "NORMAL" : 25,
                        "TEXCOORD_0" : 26
                    },
                    "indices" : 27,
                    "material" : 0
                }
            ]
        },
        {
            "name" : "Circle.599",
            "primitives" : [
                {
                    "attributes" : {
                        "POSITION" : 28,
                        "NORMAL" : 29,
                        "TEXCOORD_0" : 30
                    },
                    "indices" : 31,
                    "material" : 0
                }
            ]
        },
        {
            "name" : "Circle.600",
            "primitives" : [
                {
                    "attributes" : {
                        "POSITION" : 32,
                        "NORMAL" : 33,
                        "TEXCOORD_0" : 34
                    },
                    "indices" : 35,
                    "material" : 0
                }
            ]
        },
        {
            "name" : "Roundcube.065",
            "primitives" : [
                {
                    "attributes" : {
                        "POSITION" : 36,
                        "NORMAL" : 37,
                        "TEXCOORD_0" : 38
                    },
                    "indices" : 39,
                    "material" : 0
                }
            ]
        },
        {
            "name" : "Circle.591",
            "primitives" : [
                {
                    "attributes" : {
                        "POSITION" : 40,
                        "NORMAL" : 41,
                        "TEXCOORD_0" : 42
                    },
                    "indices" : 43,
                    "material" : 0
                }
            ]
        }
    ],
    "textures" : [
        {
            "sampler" : 0,
            "source" : 0
        }
    ],
    "images" : [
        {
            "bufferView" : 4,
            "mimeType" : "image/png",
            "name" : "tex2"
        }
    ],
    "accessors" : [
        {
            "bufferView" : 0,
            "componentType" : 5126,
            "count" : 1448,
            "max" : [
                0.13105370104312897,
                0.2163577377796173,
                -0.026259208098053932
            ],
            "min" : [
                -0.13105370104312897,
                0.1790487915277481,
                -0.11766227334737778
            ],
            "type" : "VEC3"
        },
        {
            "bufferView" : 1,
            "componentType" : 5126,
            "count" : 1448,
            "type" : "VEC3"
        },
        {
            "bufferView" : 2,
            "componentType" : 5126,
            "count" : 1448,
            "type" : "VEC2"
        },
        {
            "bufferView" : 3,
            "componentType" : 5123,
            "count" : 6912,
            "type" : "SCALAR"
        },
        {
            "bufferView" : 5,
            "componentType" : 5126,
            "count" : 422,
            "max" : [
                0.025262437760829926,
                0.22202681005001068,
                0.007146526128053665
            ],
            "min" : [
                -0.02451690286397934,
                0.20889705419540405,
                -0.022025583311915398
            ],
            "type" : "VEC3"
        },
        {
            "bufferView" : 6,
            "componentType" : 5126,
            "count" : 422,
            "type" : "VEC3"
        },
        {
            "bufferView" : 7,
            "componentType" : 5126,
            "count" : 422,
            "type" : "VEC2"
        },
        {
            "bufferView" : 8,
            "componentType" : 5123,
            "count" : 1824,
            "type" : "SCALAR"
        },
        {
            "bufferView" : 9,
            "componentType" : 5126,
            "count" : 2402,
            "max" : [
                -0.14859741926193237,
                0.5575903654098511,
                1.2573885917663574
            ],
            "min" : [
                -0.5303949117660522,
                -0.09217178821563721,
                -1.257388710975647
            ],
            "type" : "VEC3"
        },
        {
            "bufferView" : 10,
            "componentType" : 5126,
            "count" : 2402,
            "type" : "VEC3"
        },
        {
            "bufferView" : 11,
            "componentType" : 5126,
            "count" : 2402,
            "type" : "VEC2"
        },
        {
            "bufferView" : 12,
            "componentType" : 5123,
            "count" : 11520,
            "type" : "SCALAR"
        },
        {
            "bufferView" : 13,
            "componentType" : 5126,
            "count" : 2010,
            "max" : [
                0.8239538669586182,
                1.2452303171157837,
                1.0290236473083496
            ],
            "min" : [
                -1.3394240140914917,
                -1.9278191328048706,
                -1.0156068801879883
            ],
            "type" : "VEC3"
        },
        {
            "bufferView" : 14,
            "componentType" : 5126,
            "count" : 2010,
            "type" : "VEC3"
        },
        {
            "bufferView" : 15,
            "componentType" : 5126,
            "count" : 2010,
            "type" : "VEC2"
        },
        {
            "bufferView" : 16,
            "componentType" : 5123,
            "count" : 7980,
            "type" : "SCALAR"
        },
        {
            "bufferView" : 17,
            "componentType" : 5126,
            "count" : 332,
            "max" : [
                0.41679587960243225,
                0.5354515314102173,
                -0.3104134500026703
            ],
            "min" : [
                -0.41679587960243225,
                0.4104670584201813,
                -0.4609719514846802
            ],
            "type" : "VEC3"
        },
        {
            "bufferView" : 18,
            "componentType" : 5126,
            "count" : 332,
            "type" : "VEC3"
        },
        {
            "bufferView" : 19,
            "componentType" : 5126,
            "count" : 332,
            "type" : "VEC2"
        },
        {
            "bufferView" : 20,
            "componentType" : 5123,
            "count" : 1152,
            "type" : "SCALAR"
        },
        {
            "bufferView" : 21,
            "componentType" : 5126,
            "count" : 516,
            "max" : [
                0.10192406177520752,
                -1.253004550933838,
                1.5000004768371582
            ],
            "min" : [
                -1.8980764150619507,
                -2.6983814239501953,
                -1.5000004768371582
            ],
            "type" : "VEC3"
        },
        {
            "bufferView" : 22,
            "componentType" : 5126,
            "count" : 516,
            "type" : "VEC3"
        },
        {
            "bufferView" : 23,
            "componentType" : 5126,
            "count" : 516,
            "type" : "VEC2"
        },
        {
            "bufferView" : 24,
            "componentType" : 5123,
            "count" : 2418,
            "type" : "SCALAR"
        },
        {
            "bufferView" : 25,
            "componentType" : 5126,
            "count" : 1524,
            "max" : [
                0.45710504055023193,
                0.0909620001912117,
                1.2932054996490479
            ],
            "min" : [
                -0.45710504055023193,
                -0.43679308891296387,
                0.5880705714225769
            ],
            "type" : "VEC3"
        },
        {
            "bufferView" : 26,
            "componentType" : 5126,
            "count" : 1524,
            "type" : "VEC3"
        },
        {
            "bufferView" : 27,
            "componentType" : 5126,
            "count" : 1524,
            "type" : "VEC2"
        },
        {
            "bufferView" : 28,
            "componentType" : 5123,
            "count" : 6528,
            "type" : "SCALAR"
        },
        {
            "bufferView" : 29,
            "componentType" : 5126,
            "count" : 1498,
            "max" : [
                1.8839069604873657,
                4.106616020202637,
                2.522475242614746
            ],
            "min" : [
                -1.462644338607788,
                2.4889464378356934,
                -1.6428475379943848
            ],
            "type" : "VEC3"
        },
        {
            "bufferView" : 30,
            "componentType" : 5126,
            "count" : 1498,
            "type" : "VEC3"
        },
        {
            "bufferView" : 31,
            "componentType" : 5126,
            "count" : 1498,
            "type" : "VEC2"
        },
        {
            "bufferView" : 32,
            "componentType" : 5123,
            "count" : 8784,
            "type" : "SCALAR"
        },
        {
            "bufferView" : 33,
            "componentType" : 5126,
            "count" : 512,
            "max" : [
                -2.088632345199585,
                1.0705221891403198,
                -0.7825428247451782
            ],
            "min" : [
                -2.883723497390747,
                0.8565083742141724,
                -1.5776335000991821
            ],
            "type" : "VEC3"
        },
        {
            "bufferView" : 34,
            "componentType" : 5126,
            "count" : 512,
            "type" : "VEC3"
        },
        {
            "bufferView" : 35,
            "componentType" : 5126,
            "count" : 512,
            "type" : "VEC2"
        },
        {
            "bufferView" : 36,
            "componentType" : 5123,
            "count" : 1524,
            "type" : "SCALAR"
        },
        {
            "bufferView" : 37,
            "componentType" : 5126,
            "count" : 1566,
            "max" : [
                0.8751912713050842,
                1.4762951135635376,
                1.1331143379211426
            ],
            "min" : [
                -1.4383985996246338,
                -0.7878145575523376,
                -1.1331143379211426
            ],
            "type" : "VEC3"
        },
        {
            "bufferView" : 38,
            "componentType" : 5126,
            "count" : 1566,
            "type" : "VEC3"
        },
        {
            "bufferView" : 39,
            "componentType" : 5126,
            "count" : 1566,
            "type" : "VEC2"
        },
        {
            "bufferView" : 40,
            "componentType" : 5123,
            "count" : 8508,
            "type" : "SCALAR"
        },
        {
            "bufferView" : 41,
            "componentType" : 5126,
            "count" : 180,
            "max" : [
                0.14169487357139587,
                0.17711897194385529,
                -0.06843447685241699
            ],
            "min" : [
                -0.14169487357139587,
                0.1570884883403778,
                -0.0810164213180542
            ],
            "type" : "VEC3"
        },
        {
            "bufferView" : 42,
            "componentType" : 5126,
            "count" : 180,
            "type" : "VEC3"
        },
        {
            "bufferView" : 43,
            "componentType" : 5126,
            "count" : 180,
            "type" : "VEC2"
        },
        {
            "bufferView" : 44,
            "componentType" : 5123,
            "count" : 480,
            "type" : "SCALAR"
        }
    ],
    "bufferViews" : [
        {
            "buffer" : 0,
            "byteLength" : 17376,
            "byteOffset" : 0
        },
        {
            "buffer" : 0,
            "byteLength" : 17376,
            "byteOffset" : 17376
        },
        {
            "buffer" : 0,
            "byteLength" : 11584,
            "byteOffset" : 34752
        },
        {
            "buffer" : 0,
            "byteLength" : 13824,
            "byteOffset" : 46336
        },
        {
            "buffer" : 0,
            "byteLength" : 6474,
            "byteOffset" : 60160
        },
        {
            "buffer" : 0,
            "byteLength" : 5064,
            "byteOffset" : 66636
        },
        {
            "buffer" : 0,
            "byteLength" : 5064,
            "byteOffset" : 71700
        },
        {
            "buffer" : 0,
            "byteLength" : 3376,
            "byteOffset" : 76764
        },
        {
            "buffer" : 0,
            "byteLength" : 3648,
            "byteOffset" : 80140
        },
        {
            "buffer" : 0,
            "byteLength" : 28824,
            "byteOffset" : 83788
        },
        {
            "buffer" : 0,
            "byteLength" : 28824,
            "byteOffset" : 112612
        },
        {
            "buffer" : 0,
            "byteLength" : 19216,
            "byteOffset" : 141436
        },
        {
            "buffer" : 0,
            "byteLength" : 23040,
            "byteOffset" : 160652
        },
        {
            "buffer" : 0,
            "byteLength" : 24120,
            "byteOffset" : 183692
        },
        {
            "buffer" : 0,
            "byteLength" : 24120,
            "byteOffset" : 207812
        },
        {
            "buffer" : 0,
            "byteLength" : 16080,
            "byteOffset" : 231932
        },
        {
            "buffer" : 0,
            "byteLength" : 15960,
            "byteOffset" : 248012
        },
        {
            "buffer" : 0,
            "byteLength" : 3984,
            "byteOffset" : 263972
        },
        {
            "buffer" : 0,
            "byteLength" : 3984,
            "byteOffset" : 267956
        },
        {
            "buffer" : 0,
            "byteLength" : 2656,
            "byteOffset" : 271940
        },
        {
            "buffer" : 0,
            "byteLength" : 2304,
            "byteOffset" : 274596
        },
        {
            "buffer" : 0,
            "byteLength" : 6192,
            "byteOffset" : 276900
        },
        {
            "buffer" : 0,
            "byteLength" : 6192,
            "byteOffset" : 283092
        },
        {
            "buffer" : 0,
            "byteLength" : 4128,
            "byteOffset" : 289284
        },
        {
            "buffer" : 0,
            "byteLength" : 4836,
            "byteOffset" : 293412
        },
        {
            "buffer" : 0,
            "byteLength" : 18288,
            "byteOffset" : 298248
        },
        {
            "buffer" : 0,
            "byteLength" : 18288,
            "byteOffset" : 316536
        },
        {
            "buffer" : 0,
            "byteLength" : 12192,
            "byteOffset" : 334824
        },
        {
            "buffer" : 0,
            "byteLength" : 13056,
            "byteOffset" : 347016
        },
        {
            "buffer" : 0,
            "byteLength" : 17976,
            "byteOffset" : 360072
        },
        {
            "buffer" : 0,
            "byteLength" : 17976,
            "byteOffset" : 378048
        },
        {
            "buffer" : 0,
            "byteLength" : 11984,
            "byteOffset" : 396024
        },
        {
            "buffer" : 0,
            "byteLength" : 17568,
            "byteOffset" : 408008
        },
        {
            "buffer" : 0,
            "byteLength" : 6144,
            "byteOffset" : 425576
        },
        {
            "buffer" : 0,
            "byteLength" : 6144,
            "byteOffset" : 431720
        },
        {
            "buffer" : 0,
            "byteLength" : 4096,
            "byteOffset" : 437864
        },
        {
            "buffer" : 0,
            "byteLength" : 3048,
            "byteOffset" : 441960
        },
        {
            "buffer" : 0,
            "byteLength" : 18792,
            "byteOffset" : 445008
        },
        {
            "buffer" : 0,
            "byteLength" : 18792,
            "byteOffset" : 463800
        },
        {
            "buffer" : 0,
            "byteLength" : 12528,
            "byteOffset" : 482592
        },
        {
            "buffer" : 0,
            "byteLength" : 17016,
            "byteOffset" : 495120
        },
        {
            "buffer" : 0,
            "byteLength" : 2160,
            "byteOffset" : 512136
        },
        {
            "buffer" : 0,
            "byteLength" : 2160,
            "byteOffset" : 514296
        },
        {
            "buffer" : 0,
            "byteLength" : 1440,
            "byteOffset" : 516456
        },
        {
            "buffer" : 0,
            "byteLength" : 960,
            "byteOffset" : 517896
        }
    ],
    "samplers" : [
        {
            "magFilter" : 9729,
            "minFilter" : 9987
        }
    ],
    "buffers" : [
        {
            "byteLength" : 518856,
            "uri" : "data:application/octet-stream;base64,"
        }
    ]
}
