{
    "asset" : {
        "copyright" : "Jeremy Edelblut",
        "generator" : "Khronos glTF Blender I/O v1.6.16",
        "version" : "2.0"
    },
    "scene" : 0,
    "scenes" : [
        {
            "name" : "Scene",
            "nodes" : [
                0,
                1
            ]
        }
    ],
    "nodes" : [
        {
            "mesh" : 0,
            "name" : "Circle.1809",
            "rotation" : [
                0,
                1,
                0,
                -1.6292068494294654e-07
            ],
            "scale" : [
                0.4000000059604645,
                0.4000000059604645,
                0.4000000059604645
            ],
            "translation" : [
                0,
                -0.9473362565040588,
                -0.3698813021183014
            ]
        },
        {
            "mesh" : 1,
            "name" : "Cube.6120",
            "rotation" : [
                0,
                0,
                0.09828788042068481,
                0.9951581358909607
            ],
            "scale" : [
                0.7824378609657288,
                0.7824378609657288,
                0.7824378609657288
            ],
            "translation" : [
                0.5434857606887817,
                4.230347156524658,
                -1.6055529117584229
            ]
        }
    ],
    "materials" : [
        {
            "doubleSided" : true,
            "name" : "Brown",
            "pbrMetallicRoughness" : {
                "baseColorFactor" : [
                    0.07322511821985245,
                    0.02384052984416485,
                    0.021921303123235703,
                    1
                ],
                "metallicFactor" : 0,
                "roughnessFactor" : 0.5
            }
        },
        {
            "doubleSided" : true,
            "name" : "Light_Brown",
            "pbrMetallicRoughness" : {
                "baseColorFactor" : [
                    0.3613067865371704,
                    0.15896087884902954,
                    0.013702086172997952,
                    1
                ],
                "metallicFactor" : 0,
                "roughnessFactor" : 0.5
            }
        },
        {
            "doubleSided" : true,
            "name" : "DKgray",
            "pbrMetallicRoughness" : {
                "baseColorFactor" : [
                    0.03682169318199158,
                    0.03446357324719429,
                    0.03740420565009117,
                    1
                ],
                "metallicFactor" : 0,
                "roughnessFactor" : 0.5
            }
        }
    ],
    "meshes" : [
        {
            "name" : "Circle.2012",
            "primitives" : [
                {
                    "attributes" : {
                        "POSITION" : 0,
                        "NORMAL" : 1,
                        "TEXCOORD_0" : 2
                    },
                    "indices" : 3,
                    "material" : 0
                },
                {
                    "attributes" : {
                        "POSITION" : 4,
                        "NORMAL" : 5,
                        "TEXCOORD_0" : 6
                    },
                    "indices" : 7,
                    "material" : 1
                },
                {
                    "attributes" : {
                        "POSITION" : 8,
                        "NORMAL" : 9,
                        "TEXCOORD_0" : 10
                    },
                    "indices" : 11,
                    "material" : 2
                }
            ]
        },
        {
            "name" : "Cube.7154",
            "primitives" : [
                {
                    "attributes" : {
                        "POSITION" : 12,
                        "NORMAL" : 13,
                        "TEXCOORD_0" : 14
                    },
                    "indices" : 15,
                    "material" : 2
                }
            ]
        }
    ],
    "accessors" : [
        {
            "bufferView" : 0,
            "componentType" : 5126,
            "count" : 472,
            "max" : [
                0.6152650117874146,
                5.183841705322266,
                1.0406593084335327
            ],
            "min" : [
                -0.6152650713920593,
                0.0003192424774169922,
                -2.6116151809692383
            ],
            "type" : "VEC3"
        },
        {
            "bufferView" : 1,
            "componentType" : 5126,
            "count" : 472,
            "type" : "VEC3"
        },
        {
            "bufferView" : 2,
            "componentType" : 5126,
            "count" : 472,
            "type" : "VEC2"
        },
        {
            "bufferView" : 3,
            "componentType" : 5123,
            "count" : 2019,
            "type" : "SCALAR"
        },
        {
            "bufferView" : 4,
            "componentType" : 5126,
            "count" : 146,
            "max" : [
                0.5833699107170105,
                1.3462039232254028,
                0.9999998807907104
            ],
            "min" : [
                -0.5833699703216553,
                0,
                -2.610992193222046
            ],
            "type" : "VEC3"
        },
        {
            "bufferView" : 5,
            "componentType" : 5126,
            "count" : 146,
            "type" : "VEC3"
        },
        {
            "bufferView" : 6,
            "componentType" : 5126,
            "count" : 146,
            "type" : "VEC2"
        },
        {
            "bufferView" : 7,
            "componentType" : 5123,
            "count" : 525,
            "type" : "SCALAR"
        },
        {
            "bufferView" : 8,
            "componentType" : 5126,
            "count" : 25,
            "max" : [
                0.5529741048812866,
                4.895204544067383,
                -1.5422143936157227
            ],
            "min" : [
                0.42760032415390015,
                2.745265483856201,
                -1.642635703086853
            ],
            "type" : "VEC3"
        },
        {
            "bufferView" : 9,
            "componentType" : 5126,
            "count" : 25,
            "type" : "VEC3"
        },
        {
            "bufferView" : 10,
            "componentType" : 5126,
            "count" : 25,
            "type" : "VEC2"
        },
        {
            "bufferView" : 11,
            "componentType" : 5123,
            "count" : 66,
            "type" : "SCALAR"
        },
        {
            "bufferView" : 12,
            "componentType" : 5126,
            "count" : 72,
            "max" : [
                0.023710954934358597,
                0.2050337940454483,
                0.05799245089292526
            ],
            "min" : [
                -0.02371114492416382,
                -0.2050352394580841,
                -0.05799223855137825
            ],
            "type" : "VEC3"
        },
        {
            "bufferView" : 13,
            "componentType" : 5126,
            "count" : 72,
            "type" : "VEC3"
        },
        {
            "bufferView" : 14,
            "componentType" : 5126,
            "count" : 72,
            "type" : "VEC2"
        },
        {
            "bufferView" : 15,
            "componentType" : 5123,
            "count" : 120,
            "type" : "SCALAR"
        }
    ],
    "bufferViews" : [
        {
            "buffer" : 0,
            "byteLength" : 5664,
            "byteOffset" : 0
        },
        {
            "buffer" : 0,
            "byteLength" : 5664,
            "byteOffset" : 5664
        },
        {
            "buffer" : 0,
            "byteLength" : 3776,
            "byteOffset" : 11328
        },
        {
            "buffer" : 0,
            "byteLength" : 4038,
            "byteOffset" : 15104
        },
        {
            "buffer" : 0,
            "byteLength" : 1752,
            "byteOffset" : 19144
        },
        {
            "buffer" : 0,
            "byteLength" : 1752,
            "byteOffset" : 20896
        },
        {
            "buffer" : 0,
            "byteLength" : 1168,
            "byteOffset" : 22648
        },
        {
            "buffer" : 0,
            "byteLength" : 1050,
            "byteOffset" : 23816
        },
        {
            "buffer" : 0,
            "byteLength" : 300,
            "byteOffset" : 24868
        },
        {
            "buffer" : 0,
            "byteLength" : 300,
            "byteOffset" : 25168
        },
        {
            "buffer" : 0,
            "byteLength" : 200,
            "byteOffset" : 25468
        },
        {
            "buffer" : 0,
            "byteLength" : 132,
            "byteOffset" : 25668
        },
        {
            "buffer" : 0,
            "byteLength" : 864,
            "byteOffset" : 25800
        },
        {
            "buffer" : 0,
            "byteLength" : 864,
            "byteOffset" : 26664
        },
        {
            "buffer" : 0,
            "byteLength" : 576,
            "byteOffset" : 27528
        },
        {
            "buffer" : 0,
            "byteLength" : 240,
            "byteOffset" : 28104
        }
    ],
    "buffers" : [
        {
            "byteLength" : 28344,
            "uri" : "data:application/octet-stream;base64,"
        }
    ]
}
