{
    "asset" : {
        "copyright" : "Jeremy Edelblut",
        "generator" : "Khronos glTF Blender I/O v1.6.16",
        "version" : "2.0"
    },
    "scene" : 0,
    "scenes" : [
        {
            "name" : "Scene",
            "nodes" : [
                0,
                1,
                2,
                3,
                4,
                5,
                6
            ]
        }
    ],
    "nodes" : [
        {
            "mesh" : 0,
            "name" : "Circle.339",
            "rotation" : [
                0.5,
                0.5,
                -0.5,
                0.4999999701976776
            ],
            "scale" : [
                2.706974744796753,
                2.706974744796753,
                2.706974744796753
            ],
            "translation" : [
                -0.18221737444400787,
                -0.8969460725784302,
                0.00121211726218462
            ]
        },
        {
            "mesh" : 1,
            "name" : "Circle.340",
            "rotation" : [
                0.5,
                0.5,
                -0.5,
                0.4999999701976776
            ],
            "scale" : [
                2.706974744796753,
                2.706974744796753,
                2.706974744796753
            ],
            "translation" : [
                -0.18221737444400787,
                -0.8969460725784302,
                0.00121211726218462
            ]
        },
        {
            "mesh" : 2,
            "name" : "Cylinder.026",
            "scale" : [
                0.7010374069213867,
                0.7010374069213867,
                0.7010374069213867
            ],
            "translation" : [
                -0.18221737444400787,
                -0.8969460725784302,
                0.004702803213149309
            ]
        },
        {
            "mesh" : 3,
            "name" : "Roundcube.019",
            "scale" : [
                0.7010374069213867,
                0.7010374069213867,
                0.7010374069213867
            ],
            "translation" : [
                -0.18221737444400787,
                -0.8969460725784302,
                0.004702803213149309
            ]
        },
        {
            "mesh" : 4,
            "name" : "Circle.341",
            "rotation" : [
                0.5,
                0.5,
                -0.5,
                0.4999999701976776
            ],
            "translation" : [
                0,
                -0.16916653513908386,
                -0.0012895155232399702
            ]
        },
        {
            "mesh" : 5,
            "name" : "Mball.083",
            "scale" : [
                0.13688719272613525,
                0.13688719272613525,
                0.13688719272613525
            ],
            "translation" : [
                0.5175650119781494,
                0.4608558118343353,
                -0.11544983834028244
            ]
        },
        {
            "mesh" : 6,
            "name" : "Circle.356",
            "rotation" : [
                0.5,
                0.5,
                -0.5,
                0.4999999701976776
            ],
            "scale" : [
                2.706974744796753,
                2.706974744796753,
                2.706974744796753
            ],
            "translation" : [
                -0.18221737444400787,
                -0.8969460725784302,
                0.00121211726218462
            ]
        }
    ],
    "materials" : [
        {
            "doubleSided" : true,
            "name" : "DKBrown",
            "pbrMetallicRoughness" : {
                "baseColorFactor" : [
                    0.010021701455116272,
                    0.0023923655971884727,
                    0.0018060366855934262,
                    1
                ],
                "metallicFactor" : 0,
                "roughnessFactor" : 0.5
            }
        },
        {
            "doubleSided" : true,
            "name" : "Light_Brown",
            "pbrMetallicRoughness" : {
                "baseColorFactor" : [
                    0.3613067865371704,
                    0.15896087884902954,
                    0.013702086172997952,
                    1
                ],
                "metallicFactor" : 0,
                "roughnessFactor" : 0.5
            }
        },
        {
            "doubleSided" : true,
            "name" : "Yellow_body",
            "pbrMetallicRoughness" : {
                "baseColorTexture" : {
                    "index" : 0
                },
                "metallicFactor" : 0,
                "roughnessFactor" : 0.5
            }
        },
        {
            "doubleSided" : true,
            "name" : "Brown",
            "pbrMetallicRoughness" : {
                "baseColorFactor" : [
                    0.07322511821985245,
                    0.02384052984416485,
                    0.021921303123235703,
                    1
                ],
                "metallicFactor" : 0,
                "roughnessFactor" : 0.5
            }
        }
    ],
    "meshes" : [
        {
            "name" : "Circle.374",
            "primitives" : [
                {
                    "attributes" : {
                        "POSITION" : 0,
                        "NORMAL" : 1,
                        "TEXCOORD_0" : 2
                    },
                    "indices" : 3,
                    "material" : 0
                }
            ]
        },
        {
            "name" : "Circle.375",
            "primitives" : [
                {
                    "attributes" : {
                        "POSITION" : 4,
                        "NORMAL" : 5,
                        "TEXCOORD_0" : 6
                    },
                    "indices" : 7,
                    "material" : 1
                }
            ]
        },
        {
            "name" : "Cylinder.026",
            "primitives" : [
                {
                    "attributes" : {
                        "POSITION" : 8,
                        "NORMAL" : 9
                    },
                    "indices" : 10,
                    "material" : 2
                }
            ]
        },
        {
            "name" : "Roundcube.020",
            "primitives" : [
                {
                    "attributes" : {
                        "POSITION" : 11,
                        "NORMAL" : 12,
                        "TEXCOORD_0" : 13
                    },
                    "indices" : 14,
                    "material" : 2
                },
                {
                    "attributes" : {
                        "POSITION" : 15,
                        "NORMAL" : 16,
                        "TEXCOORD_0" : 17
                    },
                    "indices" : 18,
                    "material" : 0
                }
            ]
        },
        {
            "name" : "Circle.376",
            "primitives" : [
                {
                    "attributes" : {
                        "POSITION" : 19,
                        "NORMAL" : 20,
                        "TEXCOORD_0" : 21
                    },
                    "indices" : 22,
                    "material" : 3
                }
            ]
        },
        {
            "name" : "Mesh.008",
            "primitives" : [
                {
                    "attributes" : {
                        "POSITION" : 23,
                        "NORMAL" : 24
                    },
                    "indices" : 25,
                    "material" : 3
                }
            ]
        },
        {
            "name" : "Circle.386",
            "primitives" : [
                {
                    "attributes" : {
                        "POSITION" : 26,
                        "NORMAL" : 27,
                        "TEXCOORD_0" : 28
                    },
                    "indices" : 29,
                    "material" : 0
                }
            ]
        }
    ],
    "textures" : [
        {
            "sampler" : 0,
            "source" : 0
        }
    ],
    "images" : [
        {
            "bufferView" : 11,
            "mimeType" : "image/png",
            "name" : "Rectangle 863"
        }
    ],
    "accessors" : [
        {
            "bufferView" : 0,
            "componentType" : 5126,
            "count" : 1476,
            "max" : [
                0.1315014809370041,
                0.2836717367172241,
                -0.2951126992702484
            ],
            "min" : [
                -0.1315014809370041,
                0.24636287987232208,
                -0.38651570677757263
            ],
            "type" : "VEC3"
        },
        {
            "bufferView" : 1,
            "componentType" : 5126,
            "count" : 1476,
            "type" : "VEC3"
        },
        {
            "bufferView" : 2,
            "componentType" : 5126,
            "count" : 1476,
            "type" : "VEC2"
        },
        {
            "bufferView" : 3,
            "componentType" : 5123,
            "count" : 6912,
            "type" : "SCALAR"
        },
        {
            "bufferView" : 4,
            "componentType" : 5126,
            "count" : 442,
            "max" : [
                0.0257102083414793,
                0.2893408536911011,
                -0.2617069482803345
            ],
            "min" : [
                -0.024069136008620262,
                0.276211142539978,
                -0.2908790707588196
            ],
            "type" : "VEC3"
        },
        {
            "bufferView" : 5,
            "componentType" : 5126,
            "count" : 442,
            "type" : "VEC3"
        },
        {
            "bufferView" : 6,
            "componentType" : 5126,
            "count" : 442,
            "type" : "VEC2"
        },
        {
            "bufferView" : 7,
            "componentType" : 5123,
            "count" : 1824,
            "type" : "SCALAR"
        },
        {
            "bufferView" : 8,
            "componentType" : 5126,
            "count" : 1924,
            "max" : [
                0.11132793873548508,
                1.5476059913635254,
                1.2506803274154663
            ],
            "min" : [
                -0.2704695463180542,
                0.8978438377380371,
                -1.2506803274154663
            ],
            "type" : "VEC3"
        },
        {
            "bufferView" : 9,
            "componentType" : 5126,
            "count" : 1924,
            "type" : "VEC3"
        },
        {
            "bufferView" : 10,
            "componentType" : 5123,
            "count" : 11520,
            "type" : "SCALAR"
        },
        {
            "bufferView" : 12,
            "componentType" : 5126,
            "count" : 1303,
            "max" : [
                1.0838792324066162,
                2.283376693725586,
                1.022315263748169
            ],
            "min" : [
                -1.0794986486434937,
                0.10859009623527527,
                -1.022315263748169
            ],
            "type" : "VEC3"
        },
        {
            "bufferView" : 13,
            "componentType" : 5126,
            "count" : 1303,
            "type" : "VEC3"
        },
        {
            "bufferView" : 14,
            "componentType" : 5126,
            "count" : 1303,
            "type" : "VEC2"
        },
        {
            "bufferView" : 15,
            "componentType" : 5123,
            "count" : 6108,
            "type" : "SCALAR"
        },
        {
            "bufferView" : 16,
            "componentType" : 5126,
            "count" : 85,
            "max" : [
                0.9625992178916931,
                0.8420289158821106,
                0.2430638074874878
            ],
            "min" : [
                0.909157395362854,
                0.6695384979248047,
                -0.26039984822273254
            ],
            "type" : "VEC3"
        },
        {
            "bufferView" : 17,
            "componentType" : 5126,
            "count" : 85,
            "type" : "VEC3"
        },
        {
            "bufferView" : 18,
            "componentType" : 5126,
            "count" : 85,
            "type" : "VEC2"
        },
        {
            "bufferView" : 19,
            "componentType" : 5123,
            "count" : 384,
            "type" : "SCALAR"
        },
        {
            "bufferView" : 20,
            "componentType" : 5126,
            "count" : 300,
            "max" : [
                0.4478488266468048,
                0.5503991842269897,
                -0.27081790566444397
            ],
            "min" : [
                -0.4478488266468048,
                0.3935036063194275,
                -0.45190298557281494
            ],
            "type" : "VEC3"
        },
        {
            "bufferView" : 21,
            "componentType" : 5126,
            "count" : 300,
            "type" : "VEC3"
        },
        {
            "bufferView" : 22,
            "componentType" : 5126,
            "count" : 300,
            "type" : "VEC2"
        },
        {
            "bufferView" : 23,
            "componentType" : 5123,
            "count" : 1152,
            "type" : "SCALAR"
        },
        {
            "bufferView" : 24,
            "componentType" : 5126,
            "count" : 7942,
            "max" : [
                1.138917326927185,
                3.4462244510650635,
                8.37405014038086
            ],
            "min" : [
                -12.830938339233398,
                -9.301933288574219,
                -6.8677754402160645
            ],
            "type" : "VEC3"
        },
        {
            "bufferView" : 25,
            "componentType" : 5126,
            "count" : 7942,
            "type" : "VEC3"
        },
        {
            "bufferView" : 26,
            "componentType" : 5123,
            "count" : 47640,
            "type" : "SCALAR"
        },
        {
            "bufferView" : 27,
            "componentType" : 5126,
            "count" : 184,
            "max" : [
                0.14534611999988556,
                0.25635218620300293,
                -0.33710867166519165
            ],
            "min" : [
                -0.14534611999988556,
                0.23718667030334473,
                -0.3486977815628052
            ],
            "type" : "VEC3"
        },
        {
            "bufferView" : 28,
            "componentType" : 5126,
            "count" : 184,
            "type" : "VEC3"
        },
        {
            "bufferView" : 29,
            "componentType" : 5126,
            "count" : 184,
            "type" : "VEC2"
        },
        {
            "bufferView" : 30,
            "componentType" : 5123,
            "count" : 480,
            "type" : "SCALAR"
        }
    ],
    "bufferViews" : [
        {
            "buffer" : 0,
            "byteLength" : 17712,
            "byteOffset" : 0
        },
        {
            "buffer" : 0,
            "byteLength" : 17712,
            "byteOffset" : 17712
        },
        {
            "buffer" : 0,
            "byteLength" : 11808,
            "byteOffset" : 35424
        },
        {
            "buffer" : 0,
            "byteLength" : 13824,
            "byteOffset" : 47232
        },
        {
            "buffer" : 0,
            "byteLength" : 5304,
            "byteOffset" : 61056
        },
        {
            "buffer" : 0,
            "byteLength" : 5304,
            "byteOffset" : 66360
        },
        {
            "buffer" : 0,
            "byteLength" : 3536,
            "byteOffset" : 71664
        },
        {
            "buffer" : 0,
            "byteLength" : 3648,
            "byteOffset" : 75200
        },
        {
            "buffer" : 0,
            "byteLength" : 23088,
            "byteOffset" : 78848
        },
        {
            "buffer" : 0,
            "byteLength" : 23088,
            "byteOffset" : 101936
        },
        {
            "buffer" : 0,
            "byteLength" : 23040,
            "byteOffset" : 125024
        },
        {
            "buffer" : 0,
            "byteLength" : 85292,
            "byteOffset" : 148064
        },
        {
            "buffer" : 0,
            "byteLength" : 15636,
            "byteOffset" : 233356
        },
        {
            "buffer" : 0,
            "byteLength" : 15636,
            "byteOffset" : 248992
        },
        {
            "buffer" : 0,
            "byteLength" : 10424,
            "byteOffset" : 264628
        },
        {
            "buffer" : 0,
            "byteLength" : 12216,
            "byteOffset" : 275052
        },
        {
            "buffer" : 0,
            "byteLength" : 1020,
            "byteOffset" : 287268
        },
        {
            "buffer" : 0,
            "byteLength" : 1020,
            "byteOffset" : 288288
        },
        {
            "buffer" : 0,
            "byteLength" : 680,
            "byteOffset" : 289308
        },
        {
            "buffer" : 0,
            "byteLength" : 768,
            "byteOffset" : 289988
        },
        {
            "buffer" : 0,
            "byteLength" : 3600,
            "byteOffset" : 290756
        },
        {
            "buffer" : 0,
            "byteLength" : 3600,
            "byteOffset" : 294356
        },
        {
            "buffer" : 0,
            "byteLength" : 2400,
            "byteOffset" : 297956
        },
        {
            "buffer" : 0,
            "byteLength" : 2304,
            "byteOffset" : 300356
        },
        {
            "buffer" : 0,
            "byteLength" : 95304,
            "byteOffset" : 302660
        },
        {
            "buffer" : 0,
            "byteLength" : 95304,
            "byteOffset" : 397964
        },
        {
            "buffer" : 0,
            "byteLength" : 95280,
            "byteOffset" : 493268
        },
        {
            "buffer" : 0,
            "byteLength" : 2208,
            "byteOffset" : 588548
        },
        {
            "buffer" : 0,
            "byteLength" : 2208,
            "byteOffset" : 590756
        },
        {
            "buffer" : 0,
            "byteLength" : 1472,
            "byteOffset" : 592964
        },
        {
            "buffer" : 0,
            "byteLength" : 960,
            "byteOffset" : 594436
        }
    ],
    "samplers" : [
        {
            "magFilter" : 9729,
            "minFilter" : 9987
        }
    ],
    "buffers" : [
        {
            "byteLength" : 595396,
            "uri" : "data:application/octet-stream;base64,"
        }
    ]
}
