{
    "asset" : {
        "copyright" : "Jeremy Edelblut",
        "generator" : "Khronos glTF Blender I/O v1.6.16",
        "version" : "2.0"
    },
    "scene" : 0,
    "scenes" : [
        {
            "name" : "Scene",
            "nodes" : [
                0,
                1,
                2,
                3,
                4,
                5,
                6,
                7
            ]
        }
    ],
    "nodes" : [
        {
            "mesh" : 0,
            "name" : "Circle.019",
            "rotation" : [
                0.5,
                -0.5,
                0.5,
                0.4999999701976776
            ]
        },
        {
            "mesh" : 1,
            "name" : "Circle.020",
            "rotation" : [
                0.7071068286895752,
                0,
                0,
                0.7071068286895752
            ]
        },
        {
            "mesh" : 2,
            "name" : "Circle.021",
            "rotation" : [
                0.7071068286895752,
                0,
                0,
                0.7071068286895752
            ]
        },
        {
            "mesh" : 3,
            "name" : "Cylinder.004",
            "rotation" : [
                0,
                -0.7071068286895752,
                0,
                0.7071068286895752
            ]
        },
        {
            "mesh" : 4,
            "name" : "Roundcube.434",
            "rotation" : [
                0,
                -0.7071068286895752,
                0,
                0.7071068286895752
            ]
        },
        {
            "mesh" : 5,
            "name" : "Circle.022",
            "rotation" : [
                0.7071068286895752,
                0,
                0,
                0.7071068286895752
            ]
        },
        {
            "mesh" : 6,
            "name" : "Roundcube.435",
            "rotation" : [
                0,
                -0.7071068286895752,
                0,
                0.7071068286895752
            ]
        },
        {
            "mesh" : 7,
            "name" : "3moji.org.142",
            "rotation" : [
                0.08160622417926788,
                0.7023820877075195,
                0.08160624653100967,
                0.7023818492889404
            ],
            "scale" : [
                0.0014097407693043351,
                0.0014097407693043351,
                0.0014097410021349788
            ],
            "translation" : [
                -0.0024158223532140255,
                0.2493419051170349,
                -0.2239673137664795
            ]
        }
    ],
    "materials" : [
        {
            "doubleSided" : true,
            "name" : "Color",
            "pbrMetallicRoughness" : {
                "baseColorTexture" : {
                    "index" : 0
                },
                "metallicFactor" : 0,
                "roughnessFactor" : 0.5
            }
        }
    ],
    "meshes" : [
        {
            "name" : "Circle.020",
            "primitives" : [
                {
                    "attributes" : {
                        "POSITION" : 0,
                        "NORMAL" : 1,
                        "TEXCOORD_0" : 2
                    },
                    "indices" : 3,
                    "material" : 0
                }
            ]
        },
        {
            "name" : "Circle.021",
            "primitives" : [
                {
                    "attributes" : {
                        "POSITION" : 4,
                        "NORMAL" : 5,
                        "TEXCOORD_0" : 6
                    },
                    "indices" : 7,
                    "material" : 0
                }
            ]
        },
        {
            "name" : "Circle.022",
            "primitives" : [
                {
                    "attributes" : {
                        "POSITION" : 8,
                        "NORMAL" : 9,
                        "TEXCOORD_0" : 10
                    },
                    "indices" : 11,
                    "material" : 0
                }
            ]
        },
        {
            "name" : "Cylinder.004",
            "primitives" : [
                {
                    "attributes" : {
                        "POSITION" : 12,
                        "NORMAL" : 13,
                        "TEXCOORD_0" : 14
                    },
                    "indices" : 15,
                    "material" : 0
                }
            ]
        },
        {
            "name" : "Roundcube.370",
            "primitives" : [
                {
                    "attributes" : {
                        "POSITION" : 16,
                        "NORMAL" : 17,
                        "TEXCOORD_0" : 18
                    },
                    "indices" : 19,
                    "material" : 0
                }
            ]
        },
        {
            "name" : "Circle.023",
            "primitives" : [
                {
                    "attributes" : {
                        "POSITION" : 20,
                        "NORMAL" : 21,
                        "TEXCOORD_0" : 22
                    },
                    "indices" : 23,
                    "material" : 0
                }
            ]
        },
        {
            "name" : "Roundcube.373",
            "primitives" : [
                {
                    "attributes" : {
                        "POSITION" : 24,
                        "NORMAL" : 25,
                        "TEXCOORD_0" : 26
                    },
                    "indices" : 27,
                    "material" : 0
                }
            ]
        },
        {
            "name" : "Cube.589",
            "primitives" : [
                {
                    "attributes" : {
                        "POSITION" : 28,
                        "NORMAL" : 29,
                        "TEXCOORD_0" : 30
                    },
                    "indices" : 31,
                    "material" : 0
                }
            ]
        }
    ],
    "textures" : [
        {
            "sampler" : 0,
            "source" : 0
        }
    ],
    "images" : [
        {
            "bufferView" : 4,
            "mimeType" : "image/png",
            "name" : "tex"
        }
    ],
    "accessors" : [
        {
            "bufferView" : 0,
            "componentType" : 5126,
            "count" : 5112,
            "max" : [
                0.4967610836029053,
                1.015552282333374,
                0.920771598815918
            ],
            "min" : [
                -0.41912534832954407,
                -0.9507519006729126,
                -0.23491011559963226
            ],
            "type" : "VEC3"
        },
        {
            "bufferView" : 1,
            "componentType" : 5126,
            "count" : 5112,
            "type" : "VEC3"
        },
        {
            "bufferView" : 2,
            "componentType" : 5126,
            "count" : 5112,
            "type" : "VEC2"
        },
        {
            "bufferView" : 3,
            "componentType" : 5123,
            "count" : 26676,
            "type" : "SCALAR"
        },
        {
            "bufferView" : 5,
            "componentType" : 5126,
            "count" : 1448,
            "max" : [
                0.15786810219287872,
                0.2952374219894409,
                -0.5722517967224121
            ],
            "min" : [
                -0.15786810219287872,
                0.2526814639568329,
                -0.6823809146881104
            ],
            "type" : "VEC3"
        },
        {
            "bufferView" : 6,
            "componentType" : 5126,
            "count" : 1448,
            "type" : "VEC3"
        },
        {
            "bufferView" : 7,
            "componentType" : 5126,
            "count" : 1448,
            "type" : "VEC2"
        },
        {
            "bufferView" : 8,
            "componentType" : 5123,
            "count" : 6912,
            "type" : "SCALAR"
        },
        {
            "bufferView" : 9,
            "componentType" : 5126,
            "count" : 422,
            "max" : [
                0.030435409396886826,
                0.3017519414424896,
                -0.5320829153060913
            ],
            "min" : [
                -0.029533492401242256,
                0.2880096137523651,
                -0.5670483112335205
            ],
            "type" : "VEC3"
        },
        {
            "bufferView" : 10,
            "componentType" : 5126,
            "count" : 422,
            "type" : "VEC3"
        },
        {
            "bufferView" : 11,
            "componentType" : 5126,
            "count" : 422,
            "type" : "VEC2"
        },
        {
            "bufferView" : 12,
            "componentType" : 5123,
            "count" : 1824,
            "type" : "SCALAR"
        },
        {
            "bufferView" : 13,
            "componentType" : 5126,
            "count" : 2402,
            "max" : [
                -0.011387800797820091,
                0.7151122689247131,
                0.39394301176071167
            ],
            "min" : [
                -0.1310058981180191,
                0.5115402340888977,
                -0.39394304156303406
            ],
            "type" : "VEC3"
        },
        {
            "bufferView" : 14,
            "componentType" : 5126,
            "count" : 2402,
            "type" : "VEC3"
        },
        {
            "bufferView" : 15,
            "componentType" : 5126,
            "count" : 2402,
            "type" : "VEC2"
        },
        {
            "bufferView" : 16,
            "componentType" : 5123,
            "count" : 11520,
            "type" : "SCALAR"
        },
        {
            "bufferView" : 17,
            "componentType" : 5126,
            "count" : 1292,
            "max" : [
                0.29331496357917786,
                0.9305515885353088,
                0.3202939033508301
            ],
            "min" : [
                -0.3844767212867737,
                0.11981059610843658,
                -0.3202939033508301
            ],
            "type" : "VEC3"
        },
        {
            "bufferView" : 18,
            "componentType" : 5126,
            "count" : 1292,
            "type" : "VEC3"
        },
        {
            "bufferView" : 19,
            "componentType" : 5126,
            "count" : 1292,
            "type" : "VEC2"
        },
        {
            "bufferView" : 20,
            "componentType" : 5123,
            "count" : 6438,
            "type" : "SCALAR"
        },
        {
            "bufferView" : 21,
            "componentType" : 5126,
            "count" : 332,
            "max" : [
                0.19217351078987122,
                0.28524544835090637,
                -0.6797087788581848
            ],
            "min" : [
                -0.19217351078987122,
                0.21977508068084717,
                -0.751242995262146
            ],
            "type" : "VEC3"
        },
        {
            "bufferView" : 22,
            "componentType" : 5126,
            "count" : 332,
            "type" : "VEC3"
        },
        {
            "bufferView" : 23,
            "componentType" : 5126,
            "count" : 332,
            "type" : "VEC2"
        },
        {
            "bufferView" : 24,
            "componentType" : 5123,
            "count" : 1152,
            "type" : "SCALAR"
        },
        {
            "bufferView" : 25,
            "componentType" : 5126,
            "count" : 1566,
            "max" : [
                0.3180922567844391,
                1.0091116428375244,
                0.37961071729660034
            ],
            "min" : [
                -0.45491823554039,
                0.30523815751075745,
                -0.37961071729660034
            ],
            "type" : "VEC3"
        },
        {
            "bufferView" : 26,
            "componentType" : 5126,
            "count" : 1566,
            "type" : "VEC3"
        },
        {
            "bufferView" : 27,
            "componentType" : 5126,
            "count" : 1566,
            "type" : "VEC2"
        },
        {
            "bufferView" : 28,
            "componentType" : 5123,
            "count" : 8508,
            "type" : "SCALAR"
        },
        {
            "bufferView" : 29,
            "componentType" : 5126,
            "count" : 752,
            "max" : [
                1.2953357696533203,
                7.90000057220459,
                17.240537643432617
            ],
            "min" : [
                2.8697024390567094e-05,
                -1.8999989032745361,
                -19.159460067749023
            ],
            "type" : "VEC3"
        },
        {
            "bufferView" : 30,
            "componentType" : 5126,
            "count" : 752,
            "type" : "VEC3"
        },
        {
            "bufferView" : 31,
            "componentType" : 5126,
            "count" : 752,
            "type" : "VEC2"
        },
        {
            "bufferView" : 32,
            "componentType" : 5123,
            "count" : 1680,
            "type" : "SCALAR"
        }
    ],
    "bufferViews" : [
        {
            "buffer" : 0,
            "byteLength" : 61344,
            "byteOffset" : 0
        },
        {
            "buffer" : 0,
            "byteLength" : 61344,
            "byteOffset" : 61344
        },
        {
            "buffer" : 0,
            "byteLength" : 40896,
            "byteOffset" : 122688
        },
        {
            "buffer" : 0,
            "byteLength" : 53352,
            "byteOffset" : 163584
        },
        {
            "buffer" : 0,
            "byteLength" : 3214,
            "byteOffset" : 216936
        },
        {
            "buffer" : 0,
            "byteLength" : 17376,
            "byteOffset" : 220152
        },
        {
            "buffer" : 0,
            "byteLength" : 17376,
            "byteOffset" : 237528
        },
        {
            "buffer" : 0,
            "byteLength" : 11584,
            "byteOffset" : 254904
        },
        {
            "buffer" : 0,
            "byteLength" : 13824,
            "byteOffset" : 266488
        },
        {
            "buffer" : 0,
            "byteLength" : 5064,
            "byteOffset" : 280312
        },
        {
            "buffer" : 0,
            "byteLength" : 5064,
            "byteOffset" : 285376
        },
        {
            "buffer" : 0,
            "byteLength" : 3376,
            "byteOffset" : 290440
        },
        {
            "buffer" : 0,
            "byteLength" : 3648,
            "byteOffset" : 293816
        },
        {
            "buffer" : 0,
            "byteLength" : 28824,
            "byteOffset" : 297464
        },
        {
            "buffer" : 0,
            "byteLength" : 28824,
            "byteOffset" : 326288
        },
        {
            "buffer" : 0,
            "byteLength" : 19216,
            "byteOffset" : 355112
        },
        {
            "buffer" : 0,
            "byteLength" : 23040,
            "byteOffset" : 374328
        },
        {
            "buffer" : 0,
            "byteLength" : 15504,
            "byteOffset" : 397368
        },
        {
            "buffer" : 0,
            "byteLength" : 15504,
            "byteOffset" : 412872
        },
        {
            "buffer" : 0,
            "byteLength" : 10336,
            "byteOffset" : 428376
        },
        {
            "buffer" : 0,
            "byteLength" : 12876,
            "byteOffset" : 438712
        },
        {
            "buffer" : 0,
            "byteLength" : 3984,
            "byteOffset" : 451588
        },
        {
            "buffer" : 0,
            "byteLength" : 3984,
            "byteOffset" : 455572
        },
        {
            "buffer" : 0,
            "byteLength" : 2656,
            "byteOffset" : 459556
        },
        {
            "buffer" : 0,
            "byteLength" : 2304,
            "byteOffset" : 462212
        },
        {
            "buffer" : 0,
            "byteLength" : 18792,
            "byteOffset" : 464516
        },
        {
            "buffer" : 0,
            "byteLength" : 18792,
            "byteOffset" : 483308
        },
        {
            "buffer" : 0,
            "byteLength" : 12528,
            "byteOffset" : 502100
        },
        {
            "buffer" : 0,
            "byteLength" : 17016,
            "byteOffset" : 514628
        },
        {
            "buffer" : 0,
            "byteLength" : 9024,
            "byteOffset" : 531644
        },
        {
            "buffer" : 0,
            "byteLength" : 9024,
            "byteOffset" : 540668
        },
        {
            "buffer" : 0,
            "byteLength" : 6016,
            "byteOffset" : 549692
        },
        {
            "buffer" : 0,
            "byteLength" : 3360,
            "byteOffset" : 555708
        }
    ],
    "samplers" : [
        {
            "magFilter" : 9729,
            "minFilter" : 9987
        }
    ],
    "buffers" : [
        {
            "byteLength" : 559068,
            "uri" : "data:application/octet-stream;base64,"
        }
    ]
}
