{
    "asset" : {
        "copyright" : "Jeremy Edelblut",
        "generator" : "Khronos glTF Blender I/O v1.7.33",
        "version" : "2.0"
    },
    "scene" : 0,
    "scenes" : [
        {
            "name" : "Scene",
            "nodes" : [
                0,
                1,
                2,
                3,
                4,
                5,
                6
            ]
        }
    ],
    "nodes" : [
        {
            "mesh" : 0,
            "name" : "Circle.330",
            "rotation" : [
                0.7071068286895752,
                0,
                0,
                0.7071068286895752
            ],
            "scale" : [
                2.706974744796753,
                2.706974744796753,
                2.706974744796753
            ]
        },
        {
            "mesh" : 1,
            "name" : "Circle.331",
            "rotation" : [
                0.7071068286895752,
                0,
                0,
                0.7071068286895752
            ],
            "scale" : [
                2.706974744796753,
                2.706974744796753,
                2.706974744796753
            ]
        },
        {
            "mesh" : 2,
            "name" : "Roundcube.015",
            "rotation" : [
                0,
                -0.7071068286895752,
                0,
                0.7071068286895752
            ],
            "scale" : [
                0.7010374069213867,
                0.7010374069213867,
                0.7010374069213867
            ]
        },
        {
            "mesh" : 3,
            "name" : "Circle.332",
            "rotation" : [
                0.7071068286895752,
                0,
                0,
                0.7071068286895752
            ]
        },
        {
            "mesh" : 4,
            "name" : "Roundcube.016",
            "rotation" : [
                0,
                -0.7071068286895752,
                0,
                0.7071068286895752
            ]
        },
        {
            "mesh" : 5,
            "name" : "Circle.357",
            "rotation" : [
                0.7071068286895752,
                0,
                0,
                0.7071068286895752
            ],
            "scale" : [
                2.706974744796753,
                2.706974744796753,
                2.706974744796753
            ]
        },
        {
            "mesh" : 6,
            "name" : "ears.015",
            "rotation" : [
                0,
                -0.7071068286895752,
                0,
                0.7071068286895752
            ],
            "scale" : [
                0.7010374069213867,
                0.7010374069213867,
                0.7010374069213867
            ]
        }
    ],
    "materials" : [
        {
            "doubleSided" : true,
            "name" : "color",
            "pbrMetallicRoughness" : {
                "baseColorTexture" : {
                    "index" : 0
                },
                "metallicFactor" : 0,
                "roughnessFactor" : 0.5
            }
        },
        {
            "doubleSided" : true,
            "name" : "skin_tone_one",
            "pbrMetallicRoughness" : {
                "baseColorTexture" : {
                    "index" : 1
                },
                "metallicFactor" : 0,
                "roughnessFactor" : 0.5
            }
        }
    ],
    "meshes" : [
        {
            "name" : "Circle.365",
            "primitives" : [
                {
                    "attributes" : {
                        "POSITION" : 0,
                        "NORMAL" : 1,
                        "TEXCOORD_0" : 2
                    },
                    "indices" : 3,
                    "material" : 0
                }
            ]
        },
        {
            "name" : "Circle.366",
            "primitives" : [
                {
                    "attributes" : {
                        "POSITION" : 4,
                        "NORMAL" : 5,
                        "TEXCOORD_0" : 6
                    },
                    "indices" : 7,
                    "material" : 1
                }
            ]
        },
        {
            "name" : "Roundcube.015",
            "primitives" : [
                {
                    "attributes" : {
                        "POSITION" : 8,
                        "NORMAL" : 9,
                        "TEXCOORD_0" : 10
                    },
                    "indices" : 11,
                    "material" : 0
                },
                {
                    "attributes" : {
                        "POSITION" : 12,
                        "NORMAL" : 13,
                        "TEXCOORD_0" : 14
                    },
                    "indices" : 15,
                    "material" : 1
                }
            ]
        },
        {
            "name" : "Circle.367",
            "primitives" : [
                {
                    "attributes" : {
                        "POSITION" : 16,
                        "NORMAL" : 17,
                        "TEXCOORD_0" : 18
                    },
                    "indices" : 19,
                    "material" : 1
                }
            ]
        },
        {
            "name" : "Roundcube.016",
            "primitives" : [
                {
                    "attributes" : {
                        "POSITION" : 20,
                        "NORMAL" : 21,
                        "TEXCOORD_0" : 22
                    },
                    "indices" : 23,
                    "material" : 1
                }
            ]
        },
        {
            "name" : "Circle.387",
            "primitives" : [
                {
                    "attributes" : {
                        "POSITION" : 24,
                        "NORMAL" : 25,
                        "TEXCOORD_0" : 26
                    },
                    "indices" : 27,
                    "material" : 0
                }
            ]
        },
        {
            "name" : "Cylinder.011",
            "primitives" : [
                {
                    "attributes" : {
                        "POSITION" : 28,
                        "NORMAL" : 29,
                        "TEXCOORD_0" : 30
                    },
                    "indices" : 31,
                    "material" : 1
                }
            ]
        }
    ],
    "textures" : [
        {
            "sampler" : 0,
            "source" : 0
        },
        {
            "sampler" : 0,
            "source" : 0
        }
    ],
    "images" : [
        {
            "bufferView" : 4,
            "mimeType" : "image/png",
            "name" : "tex"
        }
    ],
    "accessors" : [
        {
            "bufferView" : 0,
            "componentType" : 5126,
            "count" : 452,
            "max" : [
                0.13148263096809387,
                0.21673351526260376,
                0.03635677695274353
            ],
            "min" : [
                -0.13148263096809387,
                0.1797197312116623,
                -0.0552215650677681
            ],
            "type" : "VEC3"
        },
        {
            "bufferView" : 1,
            "componentType" : 5126,
            "count" : 452,
            "type" : "VEC3"
        },
        {
            "bufferView" : 2,
            "componentType" : 5126,
            "count" : 452,
            "type" : "VEC2"
        },
        {
            "bufferView" : 3,
            "componentType" : 5123,
            "count" : 1920,
            "type" : "SCALAR"
        },
        {
            "bufferView" : 5,
            "componentType" : 5126,
            "count" : 142,
            "max" : [
                0.0256815142929554,
                0.22220374643802643,
                0.06985913962125778
            ],
            "min" : [
                -0.024938562884926796,
                0.20898395776748657,
                0.04042036458849907
            ],
            "type" : "VEC3"
        },
        {
            "bufferView" : 6,
            "componentType" : 5126,
            "count" : 142,
            "type" : "VEC3"
        },
        {
            "bufferView" : 7,
            "componentType" : 5126,
            "count" : 142,
            "type" : "VEC2"
        },
        {
            "bufferView" : 8,
            "componentType" : 5123,
            "count" : 528,
            "type" : "SCALAR"
        },
        {
            "bufferView" : 9,
            "componentType" : 5126,
            "count" : 85,
            "max" : [
                0.7026739120483398,
                -0.43742626905441284,
                0.243025541305542
            ],
            "min" : [
                0.649232029914856,
                -0.6099166870117188,
                -0.26043808460235596
            ],
            "type" : "VEC3"
        },
        {
            "bufferView" : 10,
            "componentType" : 5126,
            "count" : 85,
            "type" : "VEC3"
        },
        {
            "bufferView" : 11,
            "componentType" : 5126,
            "count" : 85,
            "type" : "VEC2"
        },
        {
            "bufferView" : 12,
            "componentType" : 5123,
            "count" : 384,
            "type" : "SCALAR"
        },
        {
            "bufferView" : 13,
            "componentType" : 5126,
            "count" : 1899,
            "max" : [
                0.8239538669586182,
                1.0039215087890625,
                1.0222769975662231
            ],
            "min" : [
                -1.3394240140914917,
                -1.1708650588989258,
                -1.0223535299301147
            ],
            "type" : "VEC3"
        },
        {
            "bufferView" : 14,
            "componentType" : 5126,
            "count" : 1899,
            "type" : "VEC3"
        },
        {
            "bufferView" : 15,
            "componentType" : 5126,
            "count" : 1899,
            "type" : "VEC2"
        },
        {
            "bufferView" : 16,
            "componentType" : 5123,
            "count" : 7830,
            "type" : "SCALAR"
        },
        {
            "bufferView" : 17,
            "componentType" : 5126,
            "count" : 344,
            "max" : [
                0.449312686920166,
                0.5512375831604004,
                -0.10300209373235703
            ],
            "min" : [
                -0.449312686920166,
                0.39667144417762756,
                -0.28319960832595825
            ],
            "type" : "VEC3"
        },
        {
            "bufferView" : 18,
            "componentType" : 5126,
            "count" : 344,
            "type" : "VEC3"
        },
        {
            "bufferView" : 19,
            "componentType" : 5126,
            "count" : 344,
            "type" : "VEC2"
        },
        {
            "bufferView" : 20,
            "componentType" : 5123,
            "count" : 1152,
            "type" : "SCALAR"
        },
        {
            "bufferView" : 21,
            "componentType" : 5126,
            "count" : 1566,
            "max" : [
                0.6249545812606812,
                0.834323525428772,
                0.8099209666252136
            ],
            "min" : [
                -1.028566837310791,
                -0.7035107016563416,
                -0.8099209666252136
            ],
            "type" : "VEC3"
        },
        {
            "bufferView" : 22,
            "componentType" : 5126,
            "count" : 1566,
            "type" : "VEC3"
        },
        {
            "bufferView" : 23,
            "componentType" : 5126,
            "count" : 1566,
            "type" : "VEC2"
        },
        {
            "bufferView" : 24,
            "componentType" : 5123,
            "count" : 8508,
            "type" : "SCALAR"
        },
        {
            "bufferView" : 25,
            "componentType" : 5126,
            "count" : 180,
            "max" : [
                0.14513453841209412,
                0.1897830367088318,
                -0.0057501886039972305
            ],
            "min" : [
                -0.14513453841209412,
                0.1708686649799347,
                -0.017326628789305687
            ],
            "type" : "VEC3"
        },
        {
            "bufferView" : 26,
            "componentType" : 5126,
            "count" : 180,
            "type" : "VEC3"
        },
        {
            "bufferView" : 27,
            "componentType" : 5126,
            "count" : 180,
            "type" : "VEC2"
        },
        {
            "bufferView" : 28,
            "componentType" : 5123,
            "count" : 480,
            "type" : "SCALAR"
        },
        {
            "bufferView" : 29,
            "componentType" : 5126,
            "count" : 1181,
            "max" : [
                -0.15159989893436432,
                0.31007927656173706,
                1.2522509098052979
            ],
            "min" : [
                -0.527228593826294,
                -0.32727834582328796,
                -1.2522509098052979
            ],
            "type" : "VEC3"
        },
        {
            "bufferView" : 30,
            "componentType" : 5126,
            "count" : 1181,
            "type" : "VEC3"
        },
        {
            "bufferView" : 31,
            "componentType" : 5126,
            "count" : 1181,
            "type" : "VEC2"
        },
        {
            "bufferView" : 32,
            "componentType" : 5123,
            "count" : 4992,
            "type" : "SCALAR"
        }
    ],
    "bufferViews" : [
        {
            "buffer" : 0,
            "byteLength" : 5424,
            "byteOffset" : 0
        },
        {
            "buffer" : 0,
            "byteLength" : 5424,
            "byteOffset" : 5424
        },
        {
            "buffer" : 0,
            "byteLength" : 3616,
            "byteOffset" : 10848
        },
        {
            "buffer" : 0,
            "byteLength" : 3840,
            "byteOffset" : 14464
        },
        {
            "buffer" : 0,
            "byteLength" : 11997,
            "byteOffset" : 18304
        },
        {
            "buffer" : 0,
            "byteLength" : 1704,
            "byteOffset" : 30304
        },
        {
            "buffer" : 0,
            "byteLength" : 1704,
            "byteOffset" : 32008
        },
        {
            "buffer" : 0,
            "byteLength" : 1136,
            "byteOffset" : 33712
        },
        {
            "buffer" : 0,
            "byteLength" : 1056,
            "byteOffset" : 34848
        },
        {
            "buffer" : 0,
            "byteLength" : 1020,
            "byteOffset" : 35904
        },
        {
            "buffer" : 0,
            "byteLength" : 1020,
            "byteOffset" : 36924
        },
        {
            "buffer" : 0,
            "byteLength" : 680,
            "byteOffset" : 37944
        },
        {
            "buffer" : 0,
            "byteLength" : 768,
            "byteOffset" : 38624
        },
        {
            "buffer" : 0,
            "byteLength" : 22788,
            "byteOffset" : 39392
        },
        {
            "buffer" : 0,
            "byteLength" : 22788,
            "byteOffset" : 62180
        },
        {
            "buffer" : 0,
            "byteLength" : 15192,
            "byteOffset" : 84968
        },
        {
            "buffer" : 0,
            "byteLength" : 15660,
            "byteOffset" : 100160
        },
        {
            "buffer" : 0,
            "byteLength" : 4128,
            "byteOffset" : 115820
        },
        {
            "buffer" : 0,
            "byteLength" : 4128,
            "byteOffset" : 119948
        },
        {
            "buffer" : 0,
            "byteLength" : 2752,
            "byteOffset" : 124076
        },
        {
            "buffer" : 0,
            "byteLength" : 2304,
            "byteOffset" : 126828
        },
        {
            "buffer" : 0,
            "byteLength" : 18792,
            "byteOffset" : 129132
        },
        {
            "buffer" : 0,
            "byteLength" : 18792,
            "byteOffset" : 147924
        },
        {
            "buffer" : 0,
            "byteLength" : 12528,
            "byteOffset" : 166716
        },
        {
            "buffer" : 0,
            "byteLength" : 17016,
            "byteOffset" : 179244
        },
        {
            "buffer" : 0,
            "byteLength" : 2160,
            "byteOffset" : 196260
        },
        {
            "buffer" : 0,
            "byteLength" : 2160,
            "byteOffset" : 198420
        },
        {
            "buffer" : 0,
            "byteLength" : 1440,
            "byteOffset" : 200580
        },
        {
            "buffer" : 0,
            "byteLength" : 960,
            "byteOffset" : 202020
        },
        {
            "buffer" : 0,
            "byteLength" : 14172,
            "byteOffset" : 202980
        },
        {
            "buffer" : 0,
            "byteLength" : 14172,
            "byteOffset" : 217152
        },
        {
            "buffer" : 0,
            "byteLength" : 9448,
            "byteOffset" : 231324
        },
        {
            "buffer" : 0,
            "byteLength" : 9984,
            "byteOffset" : 240772
        }
    ],
    "samplers" : [
        {
            "magFilter" : 9729,
            "minFilter" : 9987
        }
    ],
    "buffers" : [
        {
            "byteLength" : 250756,
            "uri" : "data:application/octet-stream;base64,"
        }
    ]
}
