{
    "asset" : {
        "copyright" : "Jeremy Edelblut",
        "generator" : "Khronos glTF Blender I/O v1.7.33",
        "version" : "2.0"
    },
    "scene" : 0,
    "scenes" : [
        {
            "name" : "Scene",
            "nodes" : [
                0,
                1,
                2,
                3,
                4,
                5,
                6
            ]
        }
    ],
    "nodes" : [
        {
            "mesh" : 0,
            "name" : "Circle.393",
            "rotation" : [
                0.7071068286895752,
                0,
                0,
                0.7071068286895752
            ],
            "scale" : [
                2.706974744796753,
                2.706974744796753,
                2.706974744796753
            ]
        },
        {
            "mesh" : 1,
            "name" : "Circle.394",
            "rotation" : [
                0.7071068286895752,
                0,
                0,
                0.7071068286895752
            ],
            "scale" : [
                2.706974744796753,
                2.706974744796753,
                2.706974744796753
            ]
        },
        {
            "mesh" : 2,
            "name" : "Circle.395",
            "rotation" : [
                0.7071068286895752,
                0,
                0,
                0.7071068286895752
            ]
        },
        {
            "mesh" : 3,
            "name" : "Roundcube.034",
            "rotation" : [
                0,
                -0.7071068286895752,
                0,
                0.7071068286895752
            ],
            "scale" : [
                0.7010374069213867,
                0.7010374069213867,
                0.7010374069213867
            ]
        },
        {
            "mesh" : 4,
            "name" : "Roundcube.037",
            "rotation" : [
                0,
                -0.7071068286895752,
                0,
                0.7071068286895752
            ]
        },
        {
            "mesh" : 5,
            "name" : "Circle.403",
            "rotation" : [
                0.7071068286895752,
                0,
                0,
                0.7071068286895752
            ],
            "scale" : [
                2.706974744796753,
                2.706974744796753,
                2.706974744796753
            ]
        },
        {
            "mesh" : 6,
            "name" : "ears.029",
            "rotation" : [
                0,
                -0.7071068286895752,
                0,
                0.7071068286895752
            ],
            "scale" : [
                0.7010374069213867,
                0.7010374069213867,
                0.7010374069213867
            ],
            "translation" : [
                0,
                0.17147138714790344,
                0
            ]
        }
    ],
    "materials" : [
        {
            "doubleSided" : true,
            "name" : "color",
            "pbrMetallicRoughness" : {
                "baseColorTexture" : {
                    "index" : 0
                },
                "metallicFactor" : 0,
                "roughnessFactor" : 0.5
            }
        },
        {
            "doubleSided" : true,
            "name" : "skin_tone_one",
            "pbrMetallicRoughness" : {
                "baseColorTexture" : {
                    "index" : 1
                },
                "metallicFactor" : 0,
                "roughnessFactor" : 0.5
            }
        }
    ],
    "meshes" : [
        {
            "name" : "Circle.333",
            "primitives" : [
                {
                    "attributes" : {
                        "POSITION" : 0,
                        "NORMAL" : 1,
                        "TEXCOORD_0" : 2
                    },
                    "indices" : 3,
                    "material" : 0
                }
            ]
        },
        {
            "name" : "Circle.393",
            "primitives" : [
                {
                    "attributes" : {
                        "POSITION" : 4,
                        "NORMAL" : 5,
                        "TEXCOORD_0" : 6
                    },
                    "indices" : 7,
                    "material" : 1
                }
            ]
        },
        {
            "name" : "Circle.405",
            "primitives" : [
                {
                    "attributes" : {
                        "POSITION" : 8,
                        "NORMAL" : 9,
                        "TEXCOORD_0" : 10
                    },
                    "indices" : 11,
                    "material" : 1
                }
            ]
        },
        {
            "name" : "Roundcube.025",
            "primitives" : [
                {
                    "attributes" : {
                        "POSITION" : 12,
                        "NORMAL" : 13,
                        "TEXCOORD_0" : 14
                    },
                    "indices" : 15,
                    "material" : 0
                },
                {
                    "attributes" : {
                        "POSITION" : 16,
                        "NORMAL" : 17,
                        "TEXCOORD_0" : 18
                    },
                    "indices" : 19,
                    "material" : 1
                }
            ]
        },
        {
            "name" : "Roundcube.035",
            "primitives" : [
                {
                    "attributes" : {
                        "POSITION" : 20,
                        "NORMAL" : 21,
                        "TEXCOORD_0" : 22
                    },
                    "indices" : 23,
                    "material" : 1
                }
            ]
        },
        {
            "name" : "Circle.427",
            "primitives" : [
                {
                    "attributes" : {
                        "POSITION" : 24,
                        "NORMAL" : 25,
                        "TEXCOORD_0" : 26
                    },
                    "indices" : 27,
                    "material" : 0
                }
            ]
        },
        {
            "name" : "Cylinder.011",
            "primitives" : [
                {
                    "attributes" : {
                        "POSITION" : 28,
                        "NORMAL" : 29,
                        "TEXCOORD_0" : 30
                    },
                    "indices" : 31,
                    "material" : 1
                }
            ]
        }
    ],
    "textures" : [
        {
            "sampler" : 0,
            "source" : 0
        },
        {
            "sampler" : 0,
            "source" : 0
        }
    ],
    "images" : [
        {
            "bufferView" : 4,
            "mimeType" : "image/png",
            "name" : "tex"
        }
    ],
    "accessors" : [
        {
            "bufferView" : 0,
            "componentType" : 5126,
            "count" : 452,
            "max" : [
                0.13148391246795654,
                0.21673572063446045,
                -0.02613598294556141
            ],
            "min" : [
                -0.13148391246795654,
                0.1797250658273697,
                -0.11771433800458908
            ],
            "type" : "VEC3"
        },
        {
            "bufferView" : 1,
            "componentType" : 5126,
            "count" : 452,
            "type" : "VEC3"
        },
        {
            "bufferView" : 2,
            "componentType" : 5126,
            "count" : 452,
            "type" : "VEC2"
        },
        {
            "bufferView" : 3,
            "componentType" : 5123,
            "count" : 1920,
            "type" : "SCALAR"
        },
        {
            "bufferView" : 5,
            "componentType" : 5126,
            "count" : 142,
            "max" : [
                0.025681501254439354,
                0.22220450639724731,
                0.007366422563791275
            ],
            "min" : [
                -0.0249385517090559,
                0.20898468792438507,
                -0.022072359919548035
            ],
            "type" : "VEC3"
        },
        {
            "bufferView" : 6,
            "componentType" : 5126,
            "count" : 142,
            "type" : "VEC3"
        },
        {
            "bufferView" : 7,
            "componentType" : 5126,
            "count" : 142,
            "type" : "VEC2"
        },
        {
            "bufferView" : 8,
            "componentType" : 5123,
            "count" : 528,
            "type" : "SCALAR"
        },
        {
            "bufferView" : 9,
            "componentType" : 5126,
            "count" : 344,
            "max" : [
                0.41686877608299255,
                0.5363752841949463,
                -0.31169575452804565
            ],
            "min" : [
                -0.41686877608299255,
                0.4130977690219879,
                -0.46138957142829895
            ],
            "type" : "VEC3"
        },
        {
            "bufferView" : 10,
            "componentType" : 5126,
            "count" : 344,
            "type" : "VEC3"
        },
        {
            "bufferView" : 11,
            "componentType" : 5126,
            "count" : 344,
            "type" : "VEC2"
        },
        {
            "bufferView" : 12,
            "componentType" : 5123,
            "count" : 1152,
            "type" : "SCALAR"
        },
        {
            "bufferView" : 13,
            "componentType" : 5126,
            "count" : 681,
            "max" : [
                0.7428842782974243,
                1.2182239294052124,
                1.0004897117614746
            ],
            "min" : [
                -1.3394240140914917,
                -1.9958858489990234,
                -1.000661849975586
            ],
            "type" : "VEC3"
        },
        {
            "bufferView" : 14,
            "componentType" : 5126,
            "count" : 681,
            "type" : "VEC3"
        },
        {
            "bufferView" : 15,
            "componentType" : 5126,
            "count" : 681,
            "type" : "VEC2"
        },
        {
            "bufferView" : 16,
            "componentType" : 5123,
            "count" : 3588,
            "type" : "SCALAR"
        },
        {
            "bufferView" : 17,
            "componentType" : 5126,
            "count" : 1645,
            "max" : [
                0.8239538669586182,
                1.2452303171157837,
                1.0222291946411133
            ],
            "min" : [
                -1.2668087482452393,
                -1.9991852045059204,
                -1.0224013328552246
            ],
            "type" : "VEC3"
        },
        {
            "bufferView" : 18,
            "componentType" : 5126,
            "count" : 1645,
            "type" : "VEC3"
        },
        {
            "bufferView" : 19,
            "componentType" : 5126,
            "count" : 1645,
            "type" : "VEC2"
        },
        {
            "bufferView" : 20,
            "componentType" : 5123,
            "count" : 6204,
            "type" : "SCALAR"
        },
        {
            "bufferView" : 21,
            "componentType" : 5126,
            "count" : 1566,
            "max" : [
                0.6249545812606812,
                1.0034900903701782,
                0.8099209666252136
            ],
            "min" : [
                -1.028566837310791,
                -0.5343442559242249,
                -0.8099209666252136
            ],
            "type" : "VEC3"
        },
        {
            "bufferView" : 22,
            "componentType" : 5126,
            "count" : 1566,
            "type" : "VEC3"
        },
        {
            "bufferView" : 23,
            "componentType" : 5126,
            "count" : 1566,
            "type" : "VEC2"
        },
        {
            "bufferView" : 24,
            "componentType" : 5123,
            "count" : 8508,
            "type" : "SCALAR"
        },
        {
            "bufferView" : 25,
            "componentType" : 5126,
            "count" : 180,
            "max" : [
                0.14513595402240753,
                0.1897883117198944,
                -0.06824293732643127
            ],
            "min" : [
                -0.1451302170753479,
                0.17085027694702148,
                -0.07981989532709122
            ],
            "type" : "VEC3"
        },
        {
            "bufferView" : 26,
            "componentType" : 5126,
            "count" : 180,
            "type" : "VEC3"
        },
        {
            "bufferView" : 27,
            "componentType" : 5126,
            "count" : 180,
            "type" : "VEC2"
        },
        {
            "bufferView" : 28,
            "componentType" : 5123,
            "count" : 480,
            "type" : "SCALAR"
        },
        {
            "bufferView" : 29,
            "componentType" : 5126,
            "count" : 1181,
            "max" : [
                -0.15159989893436432,
                0.31007927656173706,
                1.2522509098052979
            ],
            "min" : [
                -0.527228593826294,
                -0.32727834582328796,
                -1.2522509098052979
            ],
            "type" : "VEC3"
        },
        {
            "bufferView" : 30,
            "componentType" : 5126,
            "count" : 1181,
            "type" : "VEC3"
        },
        {
            "bufferView" : 31,
            "componentType" : 5126,
            "count" : 1181,
            "type" : "VEC2"
        },
        {
            "bufferView" : 32,
            "componentType" : 5123,
            "count" : 4992,
            "type" : "SCALAR"
        }
    ],
    "bufferViews" : [
        {
            "buffer" : 0,
            "byteLength" : 5424,
            "byteOffset" : 0
        },
        {
            "buffer" : 0,
            "byteLength" : 5424,
            "byteOffset" : 5424
        },
        {
            "buffer" : 0,
            "byteLength" : 3616,
            "byteOffset" : 10848
        },
        {
            "buffer" : 0,
            "byteLength" : 3840,
            "byteOffset" : 14464
        },
        {
            "buffer" : 0,
            "byteLength" : 11997,
            "byteOffset" : 18304
        },
        {
            "buffer" : 0,
            "byteLength" : 1704,
            "byteOffset" : 30304
        },
        {
            "buffer" : 0,
            "byteLength" : 1704,
            "byteOffset" : 32008
        },
        {
            "buffer" : 0,
            "byteLength" : 1136,
            "byteOffset" : 33712
        },
        {
            "buffer" : 0,
            "byteLength" : 1056,
            "byteOffset" : 34848
        },
        {
            "buffer" : 0,
            "byteLength" : 4128,
            "byteOffset" : 35904
        },
        {
            "buffer" : 0,
            "byteLength" : 4128,
            "byteOffset" : 40032
        },
        {
            "buffer" : 0,
            "byteLength" : 2752,
            "byteOffset" : 44160
        },
        {
            "buffer" : 0,
            "byteLength" : 2304,
            "byteOffset" : 46912
        },
        {
            "buffer" : 0,
            "byteLength" : 8172,
            "byteOffset" : 49216
        },
        {
            "buffer" : 0,
            "byteLength" : 8172,
            "byteOffset" : 57388
        },
        {
            "buffer" : 0,
            "byteLength" : 5448,
            "byteOffset" : 65560
        },
        {
            "buffer" : 0,
            "byteLength" : 7176,
            "byteOffset" : 71008
        },
        {
            "buffer" : 0,
            "byteLength" : 19740,
            "byteOffset" : 78184
        },
        {
            "buffer" : 0,
            "byteLength" : 19740,
            "byteOffset" : 97924
        },
        {
            "buffer" : 0,
            "byteLength" : 13160,
            "byteOffset" : 117664
        },
        {
            "buffer" : 0,
            "byteLength" : 12408,
            "byteOffset" : 130824
        },
        {
            "buffer" : 0,
            "byteLength" : 18792,
            "byteOffset" : 143232
        },
        {
            "buffer" : 0,
            "byteLength" : 18792,
            "byteOffset" : 162024
        },
        {
            "buffer" : 0,
            "byteLength" : 12528,
            "byteOffset" : 180816
        },
        {
            "buffer" : 0,
            "byteLength" : 17016,
            "byteOffset" : 193344
        },
        {
            "buffer" : 0,
            "byteLength" : 2160,
            "byteOffset" : 210360
        },
        {
            "buffer" : 0,
            "byteLength" : 2160,
            "byteOffset" : 212520
        },
        {
            "buffer" : 0,
            "byteLength" : 1440,
            "byteOffset" : 214680
        },
        {
            "buffer" : 0,
            "byteLength" : 960,
            "byteOffset" : 216120
        },
        {
            "buffer" : 0,
            "byteLength" : 14172,
            "byteOffset" : 217080
        },
        {
            "buffer" : 0,
            "byteLength" : 14172,
            "byteOffset" : 231252
        },
        {
            "buffer" : 0,
            "byteLength" : 9448,
            "byteOffset" : 245424
        },
        {
            "buffer" : 0,
            "byteLength" : 9984,
            "byteOffset" : 254872
        }
    ],
    "samplers" : [
        {
            "magFilter" : 9729,
            "minFilter" : 9987
        }
    ],
    "buffers" : [
        {
            "byteLength" : 264856,
            "uri" : "data:application/octet-stream;base64,"
        }
    ]
}
