{
    "asset" : {
        "copyright" : "Jeremy Edelblut",
        "generator" : "Khronos glTF Blender I/O v1.6.16",
        "version" : "2.0"
    },
    "scene" : 0,
    "scenes" : [
        {
            "name" : "Scene",
            "nodes" : [
                0,
                1,
                2,
                3,
                4,
                5,
                6
            ]
        }
    ],
    "nodes" : [
        {
            "mesh" : 0,
            "name" : "Circle.855",
            "rotation" : [
                0.7071068286895752,
                0,
                0,
                0.7071068286895752
            ],
            "scale" : [
                2.706974744796753,
                2.706974744796753,
                2.706974744796753
            ]
        },
        {
            "mesh" : 1,
            "name" : "Circle.856",
            "rotation" : [
                0.7071068286895752,
                0,
                0,
                0.7071068286895752
            ],
            "scale" : [
                2.706974744796753,
                2.706974744796753,
                2.706974744796753
            ]
        },
        {
            "mesh" : 2,
            "name" : "Roundcube.169",
            "rotation" : [
                0,
                -0.7071068286895752,
                0,
                0.7071068286895752
            ],
            "scale" : [
                0.7010374069213867,
                0.7010374069213867,
                0.7010374069213867
            ]
        },
        {
            "mesh" : 3,
            "name" : "Circle.857",
            "rotation" : [
                0.7071068286895752,
                0,
                0,
                0.7071068286895752
            ]
        },
        {
            "mesh" : 4,
            "name" : "Sphere.141",
            "rotation" : [
                0,
                -0.7071068286895752,
                0,
                0.7071068286895752
            ],
            "scale" : [
                0.5,
                0.5,
                0.5
            ]
        },
        {
            "mesh" : 5,
            "name" : "Roundcube.170",
            "rotation" : [
                0,
                -0.7071068286895752,
                0,
                0.7071068286895752
            ],
            "scale" : [
                0.6651958227157593,
                0.6299552917480469,
                0.6651958227157593
            ]
        },
        {
            "mesh" : 6,
            "name" : "Circle.860",
            "rotation" : [
                0.7071068286895752,
                0,
                0,
                0.7071068286895752
            ],
            "scale" : [
                2.706974744796753,
                2.706974744796753,
                2.706974744796753
            ]
        }
    ],
    "materials" : [
        {
            "doubleSided" : true,
            "name" : "DKBrown",
            "pbrMetallicRoughness" : {
                "baseColorFactor" : [
                    0.010021701455116272,
                    0.0023923655971884727,
                    0.0018060366855934262,
                    1
                ],
                "metallicFactor" : 0,
                "roughnessFactor" : 0.5
            }
        },
        {
            "doubleSided" : true,
            "name" : "Light_Brown",
            "pbrMetallicRoughness" : {
                "baseColorFactor" : [
                    0.3613067865371704,
                    0.15896087884902954,
                    0.013702086172997952,
                    1
                ],
                "metallicFactor" : 0,
                "roughnessFactor" : 0.5
            }
        },
        {
            "doubleSided" : true,
            "name" : "Yellow_body",
            "pbrMetallicRoughness" : {
                "baseColorTexture" : {
                    "index" : 0
                },
                "metallicFactor" : 0,
                "roughnessFactor" : 0.5
            }
        },
        {
            "doubleSided" : true,
            "name" : "Brown",
            "pbrMetallicRoughness" : {
                "baseColorFactor" : [
                    0.07322511821985245,
                    0.02384052984416485,
                    0.021921303123235703,
                    1
                ],
                "metallicFactor" : 0,
                "roughnessFactor" : 0.5
            }
        },
        {
            "doubleSided" : true,
            "name" : "gray",
            "pbrMetallicRoughness" : {
                "baseColorFactor" : [
                    0.10474124550819397,
                    0.09742098301649094,
                    0.10653529316186905,
                    1
                ],
                "metallicFactor" : 0,
                "roughnessFactor" : 0.5
            }
        },
        {
            "doubleSided" : true,
            "name" : "dkblue",
            "pbrMetallicRoughness" : {
                "baseColorFactor" : [
                    0.015741879120469093,
                    0.18322162330150604,
                    0.8000000715255737,
                    1
                ],
                "metallicFactor" : 0,
                "roughnessFactor" : 0.5
            }
        }
    ],
    "meshes" : [
        {
            "name" : "Circle.901",
            "primitives" : [
                {
                    "attributes" : {
                        "POSITION" : 0,
                        "NORMAL" : 1,
                        "TEXCOORD_0" : 2
                    },
                    "indices" : 3,
                    "material" : 0
                }
            ]
        },
        {
            "name" : "Circle.913",
            "primitives" : [
                {
                    "attributes" : {
                        "POSITION" : 4,
                        "NORMAL" : 5,
                        "TEXCOORD_0" : 6
                    },
                    "indices" : 7,
                    "material" : 1
                }
            ]
        },
        {
            "name" : "Roundcube.169",
            "primitives" : [
                {
                    "attributes" : {
                        "POSITION" : 8,
                        "NORMAL" : 9,
                        "TEXCOORD_0" : 10
                    },
                    "indices" : 11,
                    "material" : 2
                },
                {
                    "attributes" : {
                        "POSITION" : 12,
                        "NORMAL" : 13,
                        "TEXCOORD_0" : 14
                    },
                    "indices" : 15,
                    "material" : 3
                },
                {
                    "attributes" : {
                        "POSITION" : 16,
                        "NORMAL" : 17,
                        "TEXCOORD_0" : 18
                    },
                    "indices" : 19,
                    "material" : 0
                }
            ]
        },
        {
            "name" : "Circle.918",
            "primitives" : [
                {
                    "attributes" : {
                        "POSITION" : 20,
                        "NORMAL" : 21,
                        "TEXCOORD_0" : 22
                    },
                    "indices" : 23,
                    "material" : 3
                }
            ]
        },
        {
            "name" : "Sphere.132",
            "primitives" : [
                {
                    "attributes" : {
                        "POSITION" : 24,
                        "NORMAL" : 25,
                        "TEXCOORD_0" : 26
                    },
                    "indices" : 27,
                    "material" : 4
                }
            ]
        },
        {
            "name" : "Roundcube.170",
            "primitives" : [
                {
                    "attributes" : {
                        "POSITION" : 28,
                        "NORMAL" : 29,
                        "TEXCOORD_0" : 30
                    },
                    "indices" : 31,
                    "material" : 5
                }
            ]
        },
        {
            "name" : "Circle.925",
            "primitives" : [
                {
                    "attributes" : {
                        "POSITION" : 32,
                        "NORMAL" : 33,
                        "TEXCOORD_0" : 34
                    },
                    "indices" : 35,
                    "material" : 0
                }
            ]
        }
    ],
    "textures" : [
        {
            "sampler" : 0,
            "source" : 0
        }
    ],
    "images" : [
        {
            "bufferView" : 12,
            "mimeType" : "image/png",
            "name" : "Rectangle 863"
        }
    ],
    "accessors" : [
        {
            "bufferView" : 0,
            "componentType" : 5126,
            "count" : 1476,
            "max" : [
                0.13105371594429016,
                0.2163577377796173,
                -0.026259204372763634
            ],
            "min" : [
                -0.13105371594429016,
                0.17904885113239288,
                -0.11766227334737778
            ],
            "type" : "VEC3"
        },
        {
            "bufferView" : 1,
            "componentType" : 5126,
            "count" : 1476,
            "type" : "VEC3"
        },
        {
            "bufferView" : 2,
            "componentType" : 5126,
            "count" : 1476,
            "type" : "VEC2"
        },
        {
            "bufferView" : 3,
            "componentType" : 5123,
            "count" : 6912,
            "type" : "SCALAR"
        },
        {
            "bufferView" : 4,
            "componentType" : 5126,
            "count" : 442,
            "max" : [
                0.025262437760829926,
                0.22202681005001068,
                0.007146526128053665
            ],
            "min" : [
                -0.02451690286397934,
                0.20889708399772644,
                -0.022025583311915398
            ],
            "type" : "VEC3"
        },
        {
            "bufferView" : 5,
            "componentType" : 5126,
            "count" : 442,
            "type" : "VEC3"
        },
        {
            "bufferView" : 6,
            "componentType" : 5126,
            "count" : 442,
            "type" : "VEC2"
        },
        {
            "bufferView" : 7,
            "componentType" : 5123,
            "count" : 1824,
            "type" : "SCALAR"
        },
        {
            "bufferView" : 8,
            "componentType" : 5126,
            "count" : 884,
            "max" : [
                0.8239538669586182,
                1.128677487373352,
                1.0290236473083496
            ],
            "min" : [
                -1.2057507038116455,
                -1.151817798614502,
                -1.0156068801879883
            ],
            "type" : "VEC3"
        },
        {
            "bufferView" : 9,
            "componentType" : 5126,
            "count" : 884,
            "type" : "VEC3"
        },
        {
            "bufferView" : 10,
            "componentType" : 5126,
            "count" : 884,
            "type" : "VEC2"
        },
        {
            "bufferView" : 11,
            "componentType" : 5123,
            "count" : 3828,
            "type" : "SCALAR"
        },
        {
            "bufferView" : 13,
            "componentType" : 5126,
            "count" : 425,
            "max" : [
                0.2553965151309967,
                1.2452303171157837,
                1.0222870111465454
            ],
            "min" : [
                -1.3394240140914917,
                -0.3407648801803589,
                -1.008870244026184
            ],
            "type" : "VEC3"
        },
        {
            "bufferView" : 14,
            "componentType" : 5126,
            "count" : 425,
            "type" : "VEC3"
        },
        {
            "bufferView" : 15,
            "componentType" : 5126,
            "count" : 425,
            "type" : "VEC2"
        },
        {
            "bufferView" : 16,
            "componentType" : 5123,
            "count" : 2088,
            "type" : "SCALAR"
        },
        {
            "bufferView" : 17,
            "componentType" : 5126,
            "count" : 85,
            "max" : [
                0.7026739120483398,
                -0.19611746072769165,
                0.24977214634418488
            ],
            "min" : [
                0.649232029914856,
                -0.36860787868499756,
                -0.25369149446487427
            ],
            "type" : "VEC3"
        },
        {
            "bufferView" : 18,
            "componentType" : 5126,
            "count" : 85,
            "type" : "VEC3"
        },
        {
            "bufferView" : 19,
            "componentType" : 5126,
            "count" : 85,
            "type" : "VEC2"
        },
        {
            "bufferView" : 20,
            "componentType" : 5123,
            "count" : 384,
            "type" : "SCALAR"
        },
        {
            "bufferView" : 21,
            "componentType" : 5126,
            "count" : 300,
            "max" : [
                0.41667771339416504,
                0.5354373455047607,
                -0.3105190396308899
            ],
            "min" : [
                -0.41667771339416504,
                0.4103906750679016,
                -0.460923969745636
            ],
            "type" : "VEC3"
        },
        {
            "bufferView" : 22,
            "componentType" : 5126,
            "count" : 300,
            "type" : "VEC3"
        },
        {
            "bufferView" : 23,
            "componentType" : 5126,
            "count" : 300,
            "type" : "VEC2"
        },
        {
            "bufferView" : 24,
            "componentType" : 5123,
            "count" : 1152,
            "type" : "SCALAR"
        },
        {
            "bufferView" : 25,
            "componentType" : 5126,
            "count" : 531,
            "max" : [
                0.10192406177520752,
                -1.253004550933838,
                1.5000004768371582
            ],
            "min" : [
                -1.8980764150619507,
                -2.7983813285827637,
                -1.5000004768371582
            ],
            "type" : "VEC3"
        },
        {
            "bufferView" : 26,
            "componentType" : 5126,
            "count" : 531,
            "type" : "VEC3"
        },
        {
            "bufferView" : 27,
            "componentType" : 5126,
            "count" : 531,
            "type" : "VEC2"
        },
        {
            "bufferView" : 28,
            "componentType" : 5123,
            "count" : 2304,
            "type" : "SCALAR"
        },
        {
            "bufferView" : 29,
            "componentType" : 5126,
            "count" : 2002,
            "max" : [
                0.9117499589920044,
                1.4585013389587402,
                1.1728320121765137
            ],
            "min" : [
                -1.5074318647384644,
                -1.5609147548675537,
                -1.1891809701919556
            ],
            "type" : "VEC3"
        },
        {
            "bufferView" : 30,
            "componentType" : 5126,
            "count" : 2002,
            "type" : "VEC3"
        },
        {
            "bufferView" : 31,
            "componentType" : 5126,
            "count" : 2002,
            "type" : "VEC2"
        },
        {
            "bufferView" : 32,
            "componentType" : 5123,
            "count" : 10476,
            "type" : "SCALAR"
        },
        {
            "bufferView" : 33,
            "componentType" : 5126,
            "count" : 184,
            "max" : [
                0.14169487357139587,
                0.17711898684501648,
                -0.06843447685241699
            ],
            "min" : [
                -0.14169487357139587,
                0.157088503241539,
                -0.0810164213180542
            ],
            "type" : "VEC3"
        },
        {
            "bufferView" : 34,
            "componentType" : 5126,
            "count" : 184,
            "type" : "VEC3"
        },
        {
            "bufferView" : 35,
            "componentType" : 5126,
            "count" : 184,
            "type" : "VEC2"
        },
        {
            "bufferView" : 36,
            "componentType" : 5123,
            "count" : 480,
            "type" : "SCALAR"
        }
    ],
    "bufferViews" : [
        {
            "buffer" : 0,
            "byteLength" : 17712,
            "byteOffset" : 0
        },
        {
            "buffer" : 0,
            "byteLength" : 17712,
            "byteOffset" : 17712
        },
        {
            "buffer" : 0,
            "byteLength" : 11808,
            "byteOffset" : 35424
        },
        {
            "buffer" : 0,
            "byteLength" : 13824,
            "byteOffset" : 47232
        },
        {
            "buffer" : 0,
            "byteLength" : 5304,
            "byteOffset" : 61056
        },
        {
            "buffer" : 0,
            "byteLength" : 5304,
            "byteOffset" : 66360
        },
        {
            "buffer" : 0,
            "byteLength" : 3536,
            "byteOffset" : 71664
        },
        {
            "buffer" : 0,
            "byteLength" : 3648,
            "byteOffset" : 75200
        },
        {
            "buffer" : 0,
            "byteLength" : 10608,
            "byteOffset" : 78848
        },
        {
            "buffer" : 0,
            "byteLength" : 10608,
            "byteOffset" : 89456
        },
        {
            "buffer" : 0,
            "byteLength" : 7072,
            "byteOffset" : 100064
        },
        {
            "buffer" : 0,
            "byteLength" : 7656,
            "byteOffset" : 107136
        },
        {
            "buffer" : 0,
            "byteLength" : 85292,
            "byteOffset" : 114792
        },
        {
            "buffer" : 0,
            "byteLength" : 5100,
            "byteOffset" : 200084
        },
        {
            "buffer" : 0,
            "byteLength" : 5100,
            "byteOffset" : 205184
        },
        {
            "buffer" : 0,
            "byteLength" : 3400,
            "byteOffset" : 210284
        },
        {
            "buffer" : 0,
            "byteLength" : 4176,
            "byteOffset" : 213684
        },
        {
            "buffer" : 0,
            "byteLength" : 1020,
            "byteOffset" : 217860
        },
        {
            "buffer" : 0,
            "byteLength" : 1020,
            "byteOffset" : 218880
        },
        {
            "buffer" : 0,
            "byteLength" : 680,
            "byteOffset" : 219900
        },
        {
            "buffer" : 0,
            "byteLength" : 768,
            "byteOffset" : 220580
        },
        {
            "buffer" : 0,
            "byteLength" : 3600,
            "byteOffset" : 221348
        },
        {
            "buffer" : 0,
            "byteLength" : 3600,
            "byteOffset" : 224948
        },
        {
            "buffer" : 0,
            "byteLength" : 2400,
            "byteOffset" : 228548
        },
        {
            "buffer" : 0,
            "byteLength" : 2304,
            "byteOffset" : 230948
        },
        {
            "buffer" : 0,
            "byteLength" : 6372,
            "byteOffset" : 233252
        },
        {
            "buffer" : 0,
            "byteLength" : 6372,
            "byteOffset" : 239624
        },
        {
            "buffer" : 0,
            "byteLength" : 4248,
            "byteOffset" : 245996
        },
        {
            "buffer" : 0,
            "byteLength" : 4608,
            "byteOffset" : 250244
        },
        {
            "buffer" : 0,
            "byteLength" : 24024,
            "byteOffset" : 254852
        },
        {
            "buffer" : 0,
            "byteLength" : 24024,
            "byteOffset" : 278876
        },
        {
            "buffer" : 0,
            "byteLength" : 16016,
            "byteOffset" : 302900
        },
        {
            "buffer" : 0,
            "byteLength" : 20952,
            "byteOffset" : 318916
        },
        {
            "buffer" : 0,
            "byteLength" : 2208,
            "byteOffset" : 339868
        },
        {
            "buffer" : 0,
            "byteLength" : 2208,
            "byteOffset" : 342076
        },
        {
            "buffer" : 0,
            "byteLength" : 1472,
            "byteOffset" : 344284
        },
        {
            "buffer" : 0,
            "byteLength" : 960,
            "byteOffset" : 345756
        }
    ],
    "samplers" : [
        {
            "magFilter" : 9729,
            "minFilter" : 9987
        }
    ],
    "buffers" : [
        {
            "byteLength" : 346716,
            "uri" : "data:application/octet-stream;base64,"
        }
    ]
}
