{
    "asset" : {
        "copyright" : "Jeremy Edelblut 2021",
        "generator" : "Khronos glTF Blender I/O v1.6.16",
        "version" : "2.0"
    },
    "scene" : 0,
    "scenes" : [
        {
            "name" : "Scene",
            "nodes" : [
                0,
                1
            ]
        }
    ],
    "nodes" : [
        {
            "mesh" : 0,
            "name" : "Circle.1809",
            "rotation" : [
                0,
                0.70710688829422,
                0,
                0.7071067094802856
            ]
        },
        {
            "mesh" : 1,
            "name" : "Cube.6120",
            "rotation" : [
                -0.06950001418590546,
                -0.7036830186843872,
                0.06950001418590546,
                0.7036829590797424
            ]
        }
    ],
    "materials" : [
        {
            "doubleSided" : true,
            "name" : "Brown",
            "pbrMetallicRoughness" : {
                "baseColorFactor" : [
                    0.07322511821985245,
                    0.02384052984416485,
                    0.021921303123235703,
                    1
                ],
                "metallicFactor" : 0,
                "roughnessFactor" : 0.5
            }
        },
        {
            "doubleSided" : true,
            "name" : "Light_Brown",
            "pbrMetallicRoughness" : {
                "baseColorFactor" : [
                    0.3613067865371704,
                    0.15896087884902954,
                    0.013702086172997952,
                    1
                ],
                "metallicFactor" : 0,
                "roughnessFactor" : 0.5
            }
        },
        {
            "doubleSided" : true,
            "name" : "DKgray",
            "pbrMetallicRoughness" : {
                "baseColorFactor" : [
                    0.03682169318199158,
                    0.03446357324719429,
                    0.03740420565009117,
                    1
                ],
                "metallicFactor" : 0,
                "roughnessFactor" : 0.5
            }
        }
    ],
    "meshes" : [
        {
            "name" : "Circle.2012",
            "primitives" : [
                {
                    "attributes" : {
                        "POSITION" : 0,
                        "NORMAL" : 1,
                        "TEXCOORD_0" : 2
                    },
                    "indices" : 3,
                    "material" : 0
                },
                {
                    "attributes" : {
                        "POSITION" : 4,
                        "NORMAL" : 5,
                        "TEXCOORD_0" : 6
                    },
                    "indices" : 7,
                    "material" : 1
                },
                {
                    "attributes" : {
                        "POSITION" : 8,
                        "NORMAL" : 9,
                        "TEXCOORD_0" : 10
                    },
                    "indices" : 11,
                    "material" : 2
                }
            ]
        },
        {
            "name" : "Cube.7154",
            "primitives" : [
                {
                    "attributes" : {
                        "POSITION" : 12,
                        "NORMAL" : 13,
                        "TEXCOORD_0" : 14
                    },
                    "indices" : 15,
                    "material" : 2
                }
            ]
        }
    ],
    "accessors" : [
        {
            "bufferView" : 0,
            "componentType" : 5126,
            "count" : 472,
            "max" : [
                0.24610593914985657,
                1.126200556755066,
                0.786145031452179
            ],
            "min" : [
                -0.2461061030626297,
                -0.9472085237503052,
                -0.6747648119926453
            ],
            "type" : "VEC3"
        },
        {
            "bufferView" : 1,
            "componentType" : 5126,
            "count" : 472,
            "type" : "VEC3"
        },
        {
            "bufferView" : 2,
            "componentType" : 5126,
            "count" : 472,
            "type" : "VEC2"
        },
        {
            "bufferView" : 3,
            "componentType" : 5123,
            "count" : 2019,
            "type" : "SCALAR"
        },
        {
            "bufferView" : 4,
            "componentType" : 5126,
            "count" : 146,
            "max" : [
                0.23334789276123047,
                -0.4088546335697174,
                0.7698812484741211
            ],
            "min" : [
                -0.2333480566740036,
                -0.9473361968994141,
                -0.6745156049728394
            ],
            "type" : "VEC3"
        },
        {
            "bufferView" : 5,
            "componentType" : 5126,
            "count" : 146,
            "type" : "VEC3"
        },
        {
            "bufferView" : 6,
            "componentType" : 5126,
            "count" : 146,
            "type" : "VEC2"
        },
        {
            "bufferView" : 7,
            "componentType" : 5123,
            "count" : 525,
            "type" : "SCALAR"
        },
        {
            "bufferView" : 8,
            "componentType" : 5126,
            "count" : 25,
            "max" : [
                0.22118957340717316,
                1.010745644569397,
                -0.2470044642686844
            ],
            "min" : [
                0.17104005813598633,
                0.15076999366283417,
                -0.28717300295829773
            ],
            "type" : "VEC3"
        },
        {
            "bufferView" : 9,
            "componentType" : 5126,
            "count" : 25,
            "type" : "VEC3"
        },
        {
            "bufferView" : 10,
            "componentType" : 5126,
            "count" : 25,
            "type" : "VEC2"
        },
        {
            "bufferView" : 11,
            "componentType" : 5123,
            "count" : 66,
            "type" : "SCALAR"
        },
        {
            "bufferView" : 12,
            "componentType" : 5126,
            "count" : 66,
            "max" : [
                0.018552348017692566,
                0.16042619943618774,
                0.04537548869848251
            ],
            "min" : [
                -0.018552497029304504,
                -0.16042733192443848,
                -0.04537532478570938
            ],
            "type" : "VEC3"
        },
        {
            "bufferView" : 13,
            "componentType" : 5126,
            "count" : 66,
            "type" : "VEC3"
        },
        {
            "bufferView" : 14,
            "componentType" : 5126,
            "count" : 66,
            "type" : "VEC2"
        },
        {
            "bufferView" : 15,
            "componentType" : 5123,
            "count" : 120,
            "type" : "SCALAR"
        }
    ],
    "bufferViews" : [
        {
            "buffer" : 0,
            "byteLength" : 5664,
            "byteOffset" : 0
        },
        {
            "buffer" : 0,
            "byteLength" : 5664,
            "byteOffset" : 5664
        },
        {
            "buffer" : 0,
            "byteLength" : 3776,
            "byteOffset" : 11328
        },
        {
            "buffer" : 0,
            "byteLength" : 4038,
            "byteOffset" : 15104
        },
        {
            "buffer" : 0,
            "byteLength" : 1752,
            "byteOffset" : 19144
        },
        {
            "buffer" : 0,
            "byteLength" : 1752,
            "byteOffset" : 20896
        },
        {
            "buffer" : 0,
            "byteLength" : 1168,
            "byteOffset" : 22648
        },
        {
            "buffer" : 0,
            "byteLength" : 1050,
            "byteOffset" : 23816
        },
        {
            "buffer" : 0,
            "byteLength" : 300,
            "byteOffset" : 24868
        },
        {
            "buffer" : 0,
            "byteLength" : 300,
            "byteOffset" : 25168
        },
        {
            "buffer" : 0,
            "byteLength" : 200,
            "byteOffset" : 25468
        },
        {
            "buffer" : 0,
            "byteLength" : 132,
            "byteOffset" : 25668
        },
        {
            "buffer" : 0,
            "byteLength" : 792,
            "byteOffset" : 25800
        },
        {
            "buffer" : 0,
            "byteLength" : 792,
            "byteOffset" : 26592
        },
        {
            "buffer" : 0,
            "byteLength" : 528,
            "byteOffset" : 27384
        },
        {
            "buffer" : 0,
            "byteLength" : 240,
            "byteOffset" : 27912
        }
    ],
    "buffers" : [
        {
            "byteLength" : 28152,
            "uri" : "data:application/octet-stream;base64,"
        }
    ]
}
