{
    "asset" : {
        "copyright" : "Jeremy Edelblut 2021",
        "generator" : "Khronos glTF Blender I/O v1.6.16",
        "version" : "2.0"
    },
    "scene" : 0,
    "scenes" : [
        {
            "name" : "Scene",
            "nodes" : [
                0,
                1,
                2,
                3,
                4,
                5,
                6,
                7,
                8
            ]
        }
    ],
    "nodes" : [
        {
            "mesh" : 0,
            "name" : "Circle.847",
            "rotation" : [
                0.7071068286895752,
                0,
                0,
                0.7071068286895752
            ],
            "scale" : [
                2.706974744796753,
                2.706974744796753,
                2.706974744796753
            ]
        },
        {
            "mesh" : 1,
            "name" : "Circle.849",
            "rotation" : [
                0.7071068286895752,
                0,
                0,
                0.7071068286895752
            ],
            "scale" : [
                2.706974744796753,
                2.706974744796753,
                2.706974744796753
            ]
        },
        {
            "mesh" : 2,
            "name" : "Cylinder.137",
            "rotation" : [
                0,
                -0.7071068286895752,
                0,
                0.7071068286895752
            ],
            "scale" : [
                0.7010374069213867,
                0.7010374069213867,
                0.7010374069213867
            ]
        },
        {
            "mesh" : 3,
            "name" : "Roundcube.166",
            "rotation" : [
                0,
                -0.7071068286895752,
                0,
                0.7071068286895752
            ],
            "scale" : [
                0.7010374069213867,
                0.7010374069213867,
                0.7010374069213867
            ]
        },
        {
            "mesh" : 4,
            "name" : "Circle.850",
            "rotation" : [
                0.7071068286895752,
                0,
                0,
                0.7071068286895752
            ]
        },
        {
            "mesh" : 5,
            "name" : "Cube.2101",
            "rotation" : [
                0.809554934501648,
                -0.5093046426773071,
                -0.22461529076099396,
                -0.18648730218410492
            ],
            "scale" : [
                0.07964559644460678,
                0.07646510750055313,
                0.08350201696157455
            ]
        },
        {
            "mesh" : 6,
            "name" : "Sphere.139",
            "rotation" : [
                0,
                -0.7071068286895752,
                0,
                0.7071068286895752
            ],
            "scale" : [
                1.0205488204956055,
                1.0205488204956055,
                1.0205488204956055
            ]
        },
        {
            "mesh" : 7,
            "name" : "Roundcube.167",
            "rotation" : [
                0,
                -0.7071068286895752,
                0,
                0.7071068286895752
            ],
            "scale" : [
                0.7162042856216431,
                0.6782614588737488,
                0.7162042856216431
            ]
        },
        {
            "mesh" : 8,
            "name" : "Circle.851",
            "rotation" : [
                0.7071068286895752,
                0,
                0,
                0.7071068286895752
            ],
            "scale" : [
                2.706974744796753,
                2.706974744796753,
                2.706974744796753
            ]
        }
    ],
    "materials" : [
        {
            "doubleSided" : true,
            "name" : "DKBrown",
            "pbrMetallicRoughness" : {
                "baseColorFactor" : [
                    0.010021701455116272,
                    0.0023923655971884727,
                    0.0018060366855934262,
                    1
                ],
                "metallicFactor" : 0,
                "roughnessFactor" : 0.5
            }
        },
        {
            "doubleSided" : true,
            "name" : "Light_Brown",
            "pbrMetallicRoughness" : {
                "baseColorFactor" : [
                    0.3613067865371704,
                    0.15896087884902954,
                    0.013702086172997952,
                    1
                ],
                "metallicFactor" : 0,
                "roughnessFactor" : 0.5
            }
        },
        {
            "doubleSided" : true,
            "name" : "Yellow_body",
            "pbrMetallicRoughness" : {
                "baseColorTexture" : {
                    "index" : 0
                },
                "metallicFactor" : 0,
                "roughnessFactor" : 0.5
            }
        },
        {
            "doubleSided" : true,
            "name" : "Brown",
            "pbrMetallicRoughness" : {
                "baseColorFactor" : [
                    0.07322511821985245,
                    0.02384052984416485,
                    0.021921303123235703,
                    1
                ],
                "metallicFactor" : 0,
                "roughnessFactor" : 0.5
            }
        }
    ],
    "meshes" : [
        {
            "name" : "Circle.915",
            "primitives" : [
                {
                    "attributes" : {
                        "POSITION" : 0,
                        "NORMAL" : 1,
                        "TEXCOORD_0" : 2
                    },
                    "indices" : 3,
                    "material" : 0
                }
            ]
        },
        {
            "name" : "Circle.916",
            "primitives" : [
                {
                    "attributes" : {
                        "POSITION" : 4,
                        "NORMAL" : 5,
                        "TEXCOORD_0" : 6
                    },
                    "indices" : 7,
                    "material" : 1
                }
            ]
        },
        {
            "name" : "Cylinder.137",
            "primitives" : [
                {
                    "attributes" : {
                        "POSITION" : 8,
                        "NORMAL" : 9
                    },
                    "indices" : 10,
                    "material" : 2
                }
            ]
        },
        {
            "name" : "Roundcube.166",
            "primitives" : [
                {
                    "attributes" : {
                        "POSITION" : 11,
                        "NORMAL" : 12,
                        "TEXCOORD_0" : 13
                    },
                    "indices" : 14,
                    "material" : 2
                },
                {
                    "attributes" : {
                        "POSITION" : 15,
                        "NORMAL" : 16,
                        "TEXCOORD_0" : 17
                    },
                    "indices" : 18,
                    "material" : 3
                },
                {
                    "attributes" : {
                        "POSITION" : 19,
                        "NORMAL" : 20,
                        "TEXCOORD_0" : 21
                    },
                    "indices" : 22,
                    "material" : 0
                }
            ]
        },
        {
            "name" : "Circle.917",
            "primitives" : [
                {
                    "attributes" : {
                        "POSITION" : 23,
                        "NORMAL" : 24,
                        "TEXCOORD_0" : 25
                    },
                    "indices" : 26,
                    "material" : 3
                }
            ]
        },
        {
            "name" : "Cube.2512",
            "primitives" : [
                {
                    "attributes" : {
                        "POSITION" : 27,
                        "NORMAL" : 28
                    },
                    "indices" : 29,
                    "material" : 3
                }
            ]
        },
        {
            "name" : "Sphere.131",
            "primitives" : [
                {
                    "attributes" : {
                        "POSITION" : 30,
                        "NORMAL" : 31,
                        "TEXCOORD_0" : 32
                    },
                    "indices" : 33
                }
            ]
        },
        {
            "name" : "Roundcube.167",
            "primitives" : [
                {
                    "attributes" : {
                        "POSITION" : 34,
                        "NORMAL" : 35,
                        "TEXCOORD_0" : 36
                    },
                    "indices" : 37,
                    "material" : 3
                }
            ]
        },
        {
            "name" : "Circle.919",
            "primitives" : [
                {
                    "attributes" : {
                        "POSITION" : 38,
                        "NORMAL" : 39,
                        "TEXCOORD_0" : 40
                    },
                    "indices" : 41,
                    "material" : 0
                }
            ]
        }
    ],
    "textures" : [
        {
            "sampler" : 0,
            "source" : 0
        }
    ],
    "images" : [
        {
            "bufferView" : 11,
            "mimeType" : "image/png",
            "name" : "Rectangle 863"
        }
    ],
    "accessors" : [
        {
            "bufferView" : 0,
            "componentType" : 5126,
            "count" : 1476,
            "max" : [
                0.13105370104312897,
                0.21635769307613373,
                0.04762401059269905
            ],
            "min" : [
                -0.13105370104312897,
                0.17904885113239288,
                -0.04377906396985054
            ],
            "type" : "VEC3"
        },
        {
            "bufferView" : 1,
            "componentType" : 5126,
            "count" : 1476,
            "type" : "VEC3"
        },
        {
            "bufferView" : 2,
            "componentType" : 5126,
            "count" : 1476,
            "type" : "VEC2"
        },
        {
            "bufferView" : 3,
            "componentType" : 5123,
            "count" : 6912,
            "type" : "SCALAR"
        },
        {
            "bufferView" : 4,
            "componentType" : 5126,
            "count" : 442,
            "max" : [
                0.025262437760829926,
                0.2220267951488495,
                0.0810297429561615
            ],
            "min" : [
                -0.02451690286397934,
                0.20889705419540405,
                0.051857635378837585
            ],
            "type" : "VEC3"
        },
        {
            "bufferView" : 5,
            "componentType" : 5126,
            "count" : 442,
            "type" : "VEC3"
        },
        {
            "bufferView" : 6,
            "componentType" : 5126,
            "count" : 442,
            "type" : "VEC2"
        },
        {
            "bufferView" : 7,
            "componentType" : 5123,
            "count" : 1824,
            "type" : "SCALAR"
        },
        {
            "bufferView" : 8,
            "componentType" : 5126,
            "count" : 1924,
            "max" : [
                -0.14859741926193237,
                0.2722989022731781,
                1.2573885917663574
            ],
            "min" : [
                -0.5303949117660522,
                -0.3774632513523102,
                -1.257388710975647
            ],
            "type" : "VEC3"
        },
        {
            "bufferView" : 9,
            "componentType" : 5126,
            "count" : 1924,
            "type" : "VEC3"
        },
        {
            "bufferView" : 10,
            "componentType" : 5123,
            "count" : 11520,
            "type" : "SCALAR"
        },
        {
            "bufferView" : 12,
            "componentType" : 5126,
            "count" : 1692,
            "max" : [
                0.8239538669586182,
                0.8433860540390015,
                1.0290236473083496
            ],
            "min" : [
                -1.2057507038116455,
                -1.2148476839065552,
                -1.0156068801879883
            ],
            "type" : "VEC3"
        },
        {
            "bufferView" : 13,
            "componentType" : 5126,
            "count" : 1692,
            "type" : "VEC3"
        },
        {
            "bufferView" : 14,
            "componentType" : 5126,
            "count" : 1692,
            "type" : "VEC2"
        },
        {
            "bufferView" : 15,
            "componentType" : 5123,
            "count" : 5766,
            "type" : "SCALAR"
        },
        {
            "bufferView" : 16,
            "componentType" : 5126,
            "count" : 419,
            "max" : [
                0.2553965151309967,
                0.9599388837814331,
                1.007284164428711
            ],
            "min" : [
                -1.3394240140914917,
                -0.6260563135147095,
                -0.9938674569129944
            ],
            "type" : "VEC3"
        },
        {
            "bufferView" : 17,
            "componentType" : 5126,
            "count" : 419,
            "type" : "VEC3"
        },
        {
            "bufferView" : 18,
            "componentType" : 5126,
            "count" : 419,
            "type" : "VEC2"
        },
        {
            "bufferView" : 19,
            "componentType" : 5123,
            "count" : 2064,
            "type" : "SCALAR"
        },
        {
            "bufferView" : 20,
            "componentType" : 5126,
            "count" : 85,
            "max" : [
                0.7026739120483398,
                -0.48140889406204224,
                0.24977214634418488
            ],
            "min" : [
                0.649232029914856,
                -0.6538993120193481,
                -0.25369149446487427
            ],
            "type" : "VEC3"
        },
        {
            "bufferView" : 21,
            "componentType" : 5126,
            "count" : 85,
            "type" : "VEC3"
        },
        {
            "bufferView" : 22,
            "componentType" : 5126,
            "count" : 85,
            "type" : "VEC2"
        },
        {
            "bufferView" : 23,
            "componentType" : 5123,
            "count" : 384,
            "type" : "SCALAR"
        },
        {
            "bufferView" : 24,
            "componentType" : 5126,
            "count" : 300,
            "max" : [
                0.41667771339416504,
                0.5354373455047607,
                -0.11051900684833527
            ],
            "min" : [
                -0.41667771339416504,
                0.4103907644748688,
                -0.26092395186424255
            ],
            "type" : "VEC3"
        },
        {
            "bufferView" : 25,
            "componentType" : 5126,
            "count" : 300,
            "type" : "VEC3"
        },
        {
            "bufferView" : 26,
            "componentType" : 5126,
            "count" : 300,
            "type" : "VEC2"
        },
        {
            "bufferView" : 27,
            "componentType" : 5123,
            "count" : 1152,
            "type" : "SCALAR"
        },
        {
            "bufferView" : 28,
            "componentType" : 5126,
            "count" : 78,
            "max" : [
                5.5436015129089355,
                -3.1111273765563965,
                7.022170543670654
            ],
            "min" : [
                -4.3007941246032715,
                -9.665525436401367,
                1.3140523433685303
            ],
            "type" : "VEC3"
        },
        {
            "bufferView" : 29,
            "componentType" : 5126,
            "count" : 78,
            "type" : "VEC3"
        },
        {
            "bufferView" : 30,
            "componentType" : 5123,
            "count" : 186,
            "type" : "SCALAR"
        },
        {
            "bufferView" : 31,
            "componentType" : 5126,
            "count" : 1978,
            "max" : [
                0.5904231071472168,
                1.0440173149108887,
                0.8797864317893982
            ],
            "min" : [
                -1.1416627168655396,
                -0.06705522537231445,
                -0.8942314386367798
            ],
            "type" : "VEC3"
        },
        {
            "bufferView" : 32,
            "componentType" : 5126,
            "count" : 1978,
            "type" : "VEC3"
        },
        {
            "bufferView" : 33,
            "componentType" : 5126,
            "count" : 1978,
            "type" : "VEC2"
        },
        {
            "bufferView" : 34,
            "componentType" : 5123,
            "count" : 6144,
            "type" : "SCALAR"
        },
        {
            "bufferView" : 35,
            "componentType" : 5126,
            "count" : 1138,
            "max" : [
                0.8751912713050842,
                1.1814236640930176,
                1.132757306098938
            ],
            "min" : [
                -1.4379651546478271,
                0.11599326133728027,
                -1.132757306098938
            ],
            "type" : "VEC3"
        },
        {
            "bufferView" : 36,
            "componentType" : 5126,
            "count" : 1138,
            "type" : "VEC3"
        },
        {
            "bufferView" : 37,
            "componentType" : 5126,
            "count" : 1138,
            "type" : "VEC2"
        },
        {
            "bufferView" : 38,
            "componentType" : 5123,
            "count" : 5400,
            "type" : "SCALAR"
        },
        {
            "bufferView" : 39,
            "componentType" : 5126,
            "count" : 184,
            "max" : [
                0.14489835500717163,
                0.18903817236423492,
                0.005628010258078575
            ],
            "min" : [
                -0.14489835500717163,
                0.16987262666225433,
                -0.0059611257165670395
            ],
            "type" : "VEC3"
        },
        {
            "bufferView" : 40,
            "componentType" : 5126,
            "count" : 184,
            "type" : "VEC3"
        },
        {
            "bufferView" : 41,
            "componentType" : 5126,
            "count" : 184,
            "type" : "VEC2"
        },
        {
            "bufferView" : 42,
            "componentType" : 5123,
            "count" : 480,
            "type" : "SCALAR"
        }
    ],
    "bufferViews" : [
        {
            "buffer" : 0,
            "byteLength" : 17712,
            "byteOffset" : 0
        },
        {
            "buffer" : 0,
            "byteLength" : 17712,
            "byteOffset" : 17712
        },
        {
            "buffer" : 0,
            "byteLength" : 11808,
            "byteOffset" : 35424
        },
        {
            "buffer" : 0,
            "byteLength" : 13824,
            "byteOffset" : 47232
        },
        {
            "buffer" : 0,
            "byteLength" : 5304,
            "byteOffset" : 61056
        },
        {
            "buffer" : 0,
            "byteLength" : 5304,
            "byteOffset" : 66360
        },
        {
            "buffer" : 0,
            "byteLength" : 3536,
            "byteOffset" : 71664
        },
        {
            "buffer" : 0,
            "byteLength" : 3648,
            "byteOffset" : 75200
        },
        {
            "buffer" : 0,
            "byteLength" : 23088,
            "byteOffset" : 78848
        },
        {
            "buffer" : 0,
            "byteLength" : 23088,
            "byteOffset" : 101936
        },
        {
            "buffer" : 0,
            "byteLength" : 23040,
            "byteOffset" : 125024
        },
        {
            "buffer" : 0,
            "byteLength" : 85292,
            "byteOffset" : 148064
        },
        {
            "buffer" : 0,
            "byteLength" : 20304,
            "byteOffset" : 233356
        },
        {
            "buffer" : 0,
            "byteLength" : 20304,
            "byteOffset" : 253660
        },
        {
            "buffer" : 0,
            "byteLength" : 13536,
            "byteOffset" : 273964
        },
        {
            "buffer" : 0,
            "byteLength" : 11532,
            "byteOffset" : 287500
        },
        {
            "buffer" : 0,
            "byteLength" : 5028,
            "byteOffset" : 299032
        },
        {
            "buffer" : 0,
            "byteLength" : 5028,
            "byteOffset" : 304060
        },
        {
            "buffer" : 0,
            "byteLength" : 3352,
            "byteOffset" : 309088
        },
        {
            "buffer" : 0,
            "byteLength" : 4128,
            "byteOffset" : 312440
        },
        {
            "buffer" : 0,
            "byteLength" : 1020,
            "byteOffset" : 316568
        },
        {
            "buffer" : 0,
            "byteLength" : 1020,
            "byteOffset" : 317588
        },
        {
            "buffer" : 0,
            "byteLength" : 680,
            "byteOffset" : 318608
        },
        {
            "buffer" : 0,
            "byteLength" : 768,
            "byteOffset" : 319288
        },
        {
            "buffer" : 0,
            "byteLength" : 3600,
            "byteOffset" : 320056
        },
        {
            "buffer" : 0,
            "byteLength" : 3600,
            "byteOffset" : 323656
        },
        {
            "buffer" : 0,
            "byteLength" : 2400,
            "byteOffset" : 327256
        },
        {
            "buffer" : 0,
            "byteLength" : 2304,
            "byteOffset" : 329656
        },
        {
            "buffer" : 0,
            "byteLength" : 936,
            "byteOffset" : 331960
        },
        {
            "buffer" : 0,
            "byteLength" : 936,
            "byteOffset" : 332896
        },
        {
            "buffer" : 0,
            "byteLength" : 372,
            "byteOffset" : 333832
        },
        {
            "buffer" : 0,
            "byteLength" : 23736,
            "byteOffset" : 334204
        },
        {
            "buffer" : 0,
            "byteLength" : 23736,
            "byteOffset" : 357940
        },
        {
            "buffer" : 0,
            "byteLength" : 15824,
            "byteOffset" : 381676
        },
        {
            "buffer" : 0,
            "byteLength" : 12288,
            "byteOffset" : 397500
        },
        {
            "buffer" : 0,
            "byteLength" : 13656,
            "byteOffset" : 409788
        },
        {
            "buffer" : 0,
            "byteLength" : 13656,
            "byteOffset" : 423444
        },
        {
            "buffer" : 0,
            "byteLength" : 9104,
            "byteOffset" : 437100
        },
        {
            "buffer" : 0,
            "byteLength" : 10800,
            "byteOffset" : 446204
        },
        {
            "buffer" : 0,
            "byteLength" : 2208,
            "byteOffset" : 457004
        },
        {
            "buffer" : 0,
            "byteLength" : 2208,
            "byteOffset" : 459212
        },
        {
            "buffer" : 0,
            "byteLength" : 1472,
            "byteOffset" : 461420
        },
        {
            "buffer" : 0,
            "byteLength" : 960,
            "byteOffset" : 462892
        }
    ],
    "samplers" : [
        {
            "magFilter" : 9729,
            "minFilter" : 9987
        }
    ],
    "buffers" : [
        {
            "byteLength" : 463852,
            "uri" : "data:application/octet-stream;base64,"
        }
    ]
}
