{
    "asset" : {
        "copyright" : "Jeremy Edelblut",
        "generator" : "Khronos glTF Blender I/O v1.6.16",
        "version" : "2.0"
    },
    "scene" : 0,
    "scenes" : [
        {
            "name" : "Scene",
            "nodes" : [
                0
            ]
        }
    ],
    "nodes" : [
        {
            "mesh" : 0,
            "name" : "Woozy Face",
            "rotation" : [
                0,
                -0.7071068286895752,
                0,
                0.7071068286895752
            ]
        }
    ],
    "materials" : [
        {
            "doubleSided" : true,
            "name" : "Color",
            "pbrMetallicRoughness" : {
                "baseColorTexture" : {
                    "index" : 0
                },
                "metallicFactor" : 0,
                "roughnessFactor" : 0.5
            }
        },
        {
            "alphaMode" : "BLEND",
            "doubleSided" : true,
            "name" : "Cheeks",
            "pbrMetallicRoughness" : {
                "baseColorTexture" : {
                    "index" : 1
                },
                "metallicFactor" : 0,
                "roughnessFactor" : 0.5
            }
        }
    ],
    "meshes" : [
        {
            "name" : "Cube.094",
            "primitives" : [
                {
                    "attributes" : {
                        "POSITION" : 0,
                        "NORMAL" : 1,
                        "TEXCOORD_0" : 2
                    },
                    "indices" : 3,
                    "material" : 0
                },
                {
                    "attributes" : {
                        "POSITION" : 4,
                        "NORMAL" : 5,
                        "TEXCOORD_0" : 6
                    },
                    "indices" : 7,
                    "material" : 1
                }
            ]
        }
    ],
    "textures" : [
        {
            "sampler" : 0,
            "source" : 0
        },
        {
            "sampler" : 0,
            "source" : 1
        }
    ],
    "images" : [
        {
            "bufferView" : 4,
            "mimeType" : "image/png",
            "name" : "tex2"
        },
        {
            "bufferView" : 9,
            "mimeType" : "image/png",
            "name" : "cheeks"
        }
    ],
    "accessors" : [
        {
            "bufferView" : 0,
            "componentType" : 5126,
            "count" : 3889,
            "max" : [
                0.8446488380432129,
                0.8446488380432129,
                0.8446488380432129
            ],
            "min" : [
                -0.8543609976768494,
                -0.8446488380432129,
                -0.8446488380432129
            ],
            "type" : "VEC3"
        },
        {
            "bufferView" : 1,
            "componentType" : 5126,
            "count" : 3889,
            "type" : "VEC3"
        },
        {
            "bufferView" : 2,
            "componentType" : 5126,
            "count" : 3889,
            "type" : "VEC2"
        },
        {
            "bufferView" : 3,
            "componentType" : 5123,
            "count" : 17004,
            "type" : "SCALAR"
        },
        {
            "bufferView" : 5,
            "componentType" : 5126,
            "count" : 450,
            "max" : [
                0.7639408111572266,
                0.31893882155418396,
                0.7673264741897583
            ],
            "min" : [
                0.3594118654727936,
                -0.2547359764575958,
                -0.7699054479598999
            ],
            "type" : "VEC3"
        },
        {
            "bufferView" : 6,
            "componentType" : 5126,
            "count" : 450,
            "type" : "VEC3"
        },
        {
            "bufferView" : 7,
            "componentType" : 5126,
            "count" : 450,
            "type" : "VEC2"
        },
        {
            "bufferView" : 8,
            "componentType" : 5123,
            "count" : 2496,
            "type" : "SCALAR"
        }
    ],
    "bufferViews" : [
        {
            "buffer" : 0,
            "byteLength" : 46668,
            "byteOffset" : 0
        },
        {
            "buffer" : 0,
            "byteLength" : 46668,
            "byteOffset" : 46668
        },
        {
            "buffer" : 0,
            "byteLength" : 31112,
            "byteOffset" : 93336
        },
        {
            "buffer" : 0,
            "byteLength" : 34008,
            "byteOffset" : 124448
        },
        {
            "buffer" : 0,
            "byteLength" : 6474,
            "byteOffset" : 158456
        },
        {
            "buffer" : 0,
            "byteLength" : 5400,
            "byteOffset" : 164932
        },
        {
            "buffer" : 0,
            "byteLength" : 5400,
            "byteOffset" : 170332
        },
        {
            "buffer" : 0,
            "byteLength" : 3600,
            "byteOffset" : 175732
        },
        {
            "buffer" : 0,
            "byteLength" : 4992,
            "byteOffset" : 179332
        },
        {
            "buffer" : 0,
            "byteLength" : 112399,
            "byteOffset" : 184324
        }
    ],
    "samplers" : [
        {
            "magFilter" : 9729,
            "minFilter" : 9987
        }
    ],
    "buffers" : [
        {
            "byteLength" : 296724,
            "uri" : "data:application/octet-stream;base64,"
        }
    ]
}
