{
    "asset" : {
        "copyright" : "Jeremy Edelblut",
        "generator" : "Khronos glTF Blender I/O v1.6.16",
        "version" : "2.0"
    },
    "scene" : 0,
    "scenes" : [
        {
            "name" : "Scene",
            "nodes" : [
                0
            ]
        }
    ],
    "nodes" : [
        {
            "mesh" : 0,
            "name" : "Yawning Face",
            "rotation" : [
                0,
                -0.7071068286895752,
                0,
                0.7071068286895752
            ],
            "translation" : [
                0,
                -1.4077871128392871e-05,
                0
            ]
        }
    ],
    "materials" : [
        {
            "doubleSided" : true,
            "name" : "Yellow_body",
            "pbrMetallicRoughness" : {
                "baseColorTexture" : {
                    "index" : 0
                },
                "metallicFactor" : 0,
                "roughnessFactor" : 0.5
            }
        },
        {
            "doubleSided" : true,
            "name" : "Color",
            "pbrMetallicRoughness" : {
                "baseColorTexture" : {
                    "index" : 1
                },
                "metallicFactor" : 0,
                "roughnessFactor" : 0.5
            }
        }
    ],
    "meshes" : [
        {
            "name" : "Cube.120",
            "primitives" : [
                {
                    "attributes" : {
                        "POSITION" : 0,
                        "NORMAL" : 1,
                        "TEXCOORD_0" : 2
                    },
                    "indices" : 3,
                    "material" : 0
                },
                {
                    "attributes" : {
                        "POSITION" : 4,
                        "NORMAL" : 5,
                        "TEXCOORD_0" : 6
                    },
                    "indices" : 7,
                    "material" : 1
                }
            ]
        }
    ],
    "textures" : [
        {
            "sampler" : 0,
            "source" : 0
        },
        {
            "sampler" : 0,
            "source" : 1
        }
    ],
    "images" : [
        {
            "bufferView" : 4,
            "mimeType" : "image/png",
            "name" : "Rectangle 863"
        },
        {
            "bufferView" : 9,
            "mimeType" : "image/png",
            "name" : "tex"
        }
    ],
    "accessors" : [
        {
            "bufferView" : 0,
            "componentType" : 5126,
            "count" : 3190,
            "max" : [
                1.029493808746338,
                0.8446488380432129,
                0.8446488380432129
            ],
            "min" : [
                -0.8446488380432129,
                -0.8446488380432129,
                -0.8446488380432129
            ],
            "type" : "VEC3"
        },
        {
            "bufferView" : 1,
            "componentType" : 5126,
            "count" : 3190,
            "type" : "VEC3"
        },
        {
            "bufferView" : 2,
            "componentType" : 5126,
            "count" : 3190,
            "type" : "VEC2"
        },
        {
            "bufferView" : 3,
            "componentType" : 5123,
            "count" : 17226,
            "type" : "SCALAR"
        },
        {
            "bufferView" : 5,
            "componentType" : 5126,
            "count" : 1502,
            "max" : [
                0.8418406844139099,
                0.3850186765193939,
                0.5363540649414062
            ],
            "min" : [
                -0.853781521320343,
                -0.5520213842391968,
                -0.5389330387115479
            ],
            "type" : "VEC3"
        },
        {
            "bufferView" : 6,
            "componentType" : 5126,
            "count" : 1502,
            "type" : "VEC3"
        },
        {
            "bufferView" : 7,
            "componentType" : 5126,
            "count" : 1502,
            "type" : "VEC2"
        },
        {
            "bufferView" : 8,
            "componentType" : 5123,
            "count" : 4650,
            "type" : "SCALAR"
        }
    ],
    "bufferViews" : [
        {
            "buffer" : 0,
            "byteLength" : 38280,
            "byteOffset" : 0
        },
        {
            "buffer" : 0,
            "byteLength" : 38280,
            "byteOffset" : 38280
        },
        {
            "buffer" : 0,
            "byteLength" : 25520,
            "byteOffset" : 76560
        },
        {
            "buffer" : 0,
            "byteLength" : 34452,
            "byteOffset" : 102080
        },
        {
            "buffer" : 0,
            "byteLength" : 85292,
            "byteOffset" : 136532
        },
        {
            "buffer" : 0,
            "byteLength" : 18024,
            "byteOffset" : 221824
        },
        {
            "buffer" : 0,
            "byteLength" : 18024,
            "byteOffset" : 239848
        },
        {
            "buffer" : 0,
            "byteLength" : 12016,
            "byteOffset" : 257872
        },
        {
            "buffer" : 0,
            "byteLength" : 9300,
            "byteOffset" : 269888
        },
        {
            "buffer" : 0,
            "byteLength" : 1322,
            "byteOffset" : 279188
        }
    ],
    "samplers" : [
        {
            "magFilter" : 9729,
            "minFilter" : 9987
        }
    ],
    "buffers" : [
        {
            "byteLength" : 280512,
            "uri" : "data:application/octet-stream;base64,"
        }
    ]
}
