{
    "asset" : {
        "copyright" : "Jeremy Edelblut",
        "generator" : "Khronos glTF Blender I/O v1.7.33",
        "version" : "2.0"
    },
    "scene" : 0,
    "scenes" : [
        {
            "name" : "Scene",
            "nodes" : [
                0,
                1
            ]
        }
    ],
    "nodes" : [
        {
            "mesh" : 0,
            "name" : "Cube.013",
            "scale" : [
                0.06753812730312347,
                0.06753812730312347,
                0.06753812730312347
            ]
        },
        {
            "mesh" : 1,
            "name" : "3moji.org.086",
            "rotation" : [
                0,
                0,
                0.7071067094802856,
                0.7071068286895752
            ],
            "scale" : [
                0.0014188839122653008,
                -0.0014188842615112662,
                0.0014188840286806226
            ]
        }
    ],
    "materials" : [
        {
            "doubleSided" : true,
            "name" : "color",
            "pbrMetallicRoughness" : {
                "baseColorTexture" : {
                    "index" : 0
                },
                "metallicFactor" : 0,
                "roughnessFactor" : 0.5
            }
        }
    ],
    "meshes" : [
        {
            "name" : "Cube.407",
            "primitives" : [
                {
                    "attributes" : {
                        "POSITION" : 0,
                        "NORMAL" : 1,
                        "TEXCOORD_0" : 2
                    },
                    "indices" : 3,
                    "material" : 0
                }
            ]
        },
        {
            "name" : "Cube.423",
            "primitives" : [
                {
                    "attributes" : {
                        "POSITION" : 4,
                        "NORMAL" : 5,
                        "TEXCOORD_0" : 6
                    },
                    "indices" : 7
                }
            ]
        }
    ],
    "textures" : [
        {
            "sampler" : 0,
            "source" : 0
        }
    ],
    "images" : [
        {
            "bufferView" : 4,
            "mimeType" : "image/png",
            "name" : "tex"
        }
    ],
    "accessors" : [
        {
            "bufferView" : 0,
            "componentType" : 5126,
            "count" : 346,
            "max" : [
                13.701583862304688,
                8.629133224487305,
                1.2567824125289917
            ],
            "min" : [
                -13.98568344116211,
                -8.052042961120605,
                -1.256783366203308
            ],
            "type" : "VEC3"
        },
        {
            "bufferView" : 1,
            "componentType" : 5126,
            "count" : 346,
            "type" : "VEC3"
        },
        {
            "bufferView" : 2,
            "componentType" : 5126,
            "count" : 346,
            "type" : "VEC2"
        },
        {
            "bufferView" : 3,
            "componentType" : 5123,
            "count" : 684,
            "type" : "SCALAR"
        },
        {
            "bufferView" : 5,
            "componentType" : 5126,
            "count" : 752,
            "max" : [
                -149.65072631835938,
                168.2897186279297,
                -10.207122802734375
            ],
            "min" : [
                -150.94602966308594,
                158.48973083496094,
                -46.607120513916016
            ],
            "type" : "VEC3"
        },
        {
            "bufferView" : 6,
            "componentType" : 5126,
            "count" : 752,
            "type" : "VEC3"
        },
        {
            "bufferView" : 7,
            "componentType" : 5126,
            "count" : 752,
            "type" : "VEC2"
        },
        {
            "bufferView" : 8,
            "componentType" : 5123,
            "count" : 1680,
            "type" : "SCALAR"
        }
    ],
    "bufferViews" : [
        {
            "buffer" : 0,
            "byteLength" : 4152,
            "byteOffset" : 0
        },
        {
            "buffer" : 0,
            "byteLength" : 4152,
            "byteOffset" : 4152
        },
        {
            "buffer" : 0,
            "byteLength" : 2768,
            "byteOffset" : 8304
        },
        {
            "buffer" : 0,
            "byteLength" : 1368,
            "byteOffset" : 11072
        },
        {
            "buffer" : 0,
            "byteLength" : 11997,
            "byteOffset" : 12440
        },
        {
            "buffer" : 0,
            "byteLength" : 9024,
            "byteOffset" : 24440
        },
        {
            "buffer" : 0,
            "byteLength" : 9024,
            "byteOffset" : 33464
        },
        {
            "buffer" : 0,
            "byteLength" : 6016,
            "byteOffset" : 42488
        },
        {
            "buffer" : 0,
            "byteLength" : 3360,
            "byteOffset" : 48504
        }
    ],
    "samplers" : [
        {
            "magFilter" : 9729,
            "minFilter" : 9987
        }
    ],
    "buffers" : [
        {
            "byteLength" : 51864,
            "uri" : "data:application/octet-stream;base64,"
        }
    ]
}
