<svg width="24" height="24" viewBox="0 0 24 24" fill="none" xmlns="http://www.w3.org/2000/svg">
<path d="M11.8201 6C12.9246 6 13.8201 5.10457 13.8201 4C13.8201 2.89543 12.9246 2 11.8201 2C10.7155 2 9.82007 2.89543 9.82007 4C9.82007 5.10457 10.7155 6 11.8201 6Z" fill="black"/>
<path d="M15.7101 8.11C15.3201 7.72 14.6501 7 13.3501 7C13.1401 7 11.9301 7 10.8101 7C8.06007 6.99 5.82007 4.75 5.82007 2H3.82007C3.82007 5.16 5.93007 7.84 8.82007 8.71V22H10.8201V16H12.8201V22H14.8201V10.05L18.7701 14L20.1801 12.59L15.7101 8.11Z" fill="black"/>
</svg>
