<svg width="24" height="24" viewBox="0 0 24 24" fill="none" xmlns="http://www.w3.org/2000/svg">
<path d="M21.9427 4.88C21.7627 4.35 21.2527 4 20.6827 4C20.6527 4 20.6227 4 20.5927 4H19.6027L19.2927 3.03C19.1527 2.43 18.6127 2 18.0027 2C17.3927 2 16.8527 2.43 16.7127 3.04L16.4027 4H15.4227C15.3927 4 15.3627 4 15.3327 4C14.7627 4 14.2527 4.35 14.0727 4.88C13.8827 5.44 14.1127 6.05 14.6327 6.36L15.5027 6.88L15.1027 8.12C14.8727 8.7 15.0627 9.37 15.5527 9.74C15.7827 9.91 16.0627 10 16.3327 10C16.6427 10 16.9427 9.89 17.1927 9.68L18.0027 8.98L18.8127 9.68C19.0627 9.89 19.3627 10 19.6727 10C19.9427 10 20.2227 9.91 20.4527 9.74C20.9527 9.37 21.1327 8.7 20.9027 8.12L20.5127 6.88L21.3827 6.36C21.8927 6.05 22.1227 5.44 21.9427 4.88ZM18.0027 7C17.4527 7 17.0027 6.55 17.0027 6C17.0027 5.45 17.4527 5 18.0027 5C18.5527 5 19.0027 5.45 19.0027 6C19.0027 6.55 18.5527 7 18.0027 7Z" fill="black"/>
<path d="M13.4927 10.51C13.0627 10.08 12.5527 9.78 12.0027 9.58V8H11.0027V9.38C10.8927 9.37 10.7727 9.35 10.6627 9.35C9.64271 9.35 8.61271 9.74 7.83271 10.52C7.67271 10.68 7.53271 10.86 7.40271 11.05L6.00271 10.52C4.44271 9.97 2.72271 10.79 2.17271 12.34C1.90271 13.09 1.94271 13.91 2.29271 14.63C2.52271 15.11 2.87271 15.5 3.29271 15.79C2.91271 17.14 3.23271 18.64 4.29271 19.7C5.35271 20.76 6.86271 21.08 8.20271 20.7C8.49271 21.12 8.88271 21.47 9.36271 21.7C9.78271 21.9 10.2127 22 10.6527 22C10.9927 22 11.3327 21.94 11.6627 21.83C13.2227 21.28 14.0427 19.56 13.4827 17.98L12.9627 16.61C13.1427 16.48 13.3227 16.34 13.4927 16.18C14.3627 15.31 14.7327 14.14 14.6327 13.01H16.0027V12.01H14.4127C14.2227 11.46 13.9227 10.95 13.4927 10.51ZM4.67271 14.29C4.42271 14.2 4.22271 14.02 4.10271 13.78C3.98271 13.54 3.97271 13.27 4.06271 13.02C4.25271 12.5 4.82271 12.23 5.32271 12.41L8.48271 13.6C7.33271 14.2 5.85271 14.71 4.67271 14.29ZM10.9927 19.94C10.7427 20.03 10.4727 20.02 10.2327 19.9C9.99271 19.79 9.81271 19.58 9.72271 19.33C9.30271 18.15 9.81271 16.68 10.4227 15.53L11.6027 18.66C11.7827 19.18 11.5127 19.76 10.9927 19.94ZM12.2027 14.6L11.5927 12.99C11.5927 12.98 11.5827 12.97 11.5727 12.96C11.5527 12.92 11.5327 12.88 11.5127 12.84C11.4927 12.8 11.4727 12.77 11.4427 12.73C11.4127 12.7 11.3827 12.67 11.3527 12.64C11.3227 12.61 11.2927 12.58 11.2627 12.55C11.2327 12.52 11.1927 12.5 11.1527 12.48C11.1127 12.46 11.0827 12.43 11.0327 12.42C11.0227 12.42 11.0127 12.41 11.0027 12.4L9.40271 11.8C9.76271 11.51 10.1927 11.34 10.6627 11.34C11.1927 11.34 11.7027 11.55 12.0727 11.93C12.8027 12.66 12.8427 13.81 12.2027 14.6Z" fill="black"/>
</svg>
