<svg width="24" height="24" viewBox="0 0 24 24" fill="none" xmlns="http://www.w3.org/2000/svg">
<path d="M10.7096 2H2.70958V4H10.7096V2Z" fill="black"/>
<path d="M5.70958 11H7.70958V7H10.7096V5H2.70958V7H5.70958V11Z" fill="black"/>
<path d="M19.8913 12.4038L12.1132 20.1819L13.5274 21.5961L21.3055 13.818L19.8913 12.4038Z" fill="black"/>
<path d="M14.2096 16C15.038 16 15.7096 15.3284 15.7096 14.5C15.7096 13.6716 15.038 13 14.2096 13C13.3812 13 12.7096 13.6716 12.7096 14.5C12.7096 15.3284 13.3812 16 14.2096 16Z" fill="black"/>
<path d="M19.2096 21C20.038 21 20.7096 20.3284 20.7096 19.5C20.7096 18.6716 20.038 18 19.2096 18C18.3812 18 17.7096 18.6716 17.7096 19.5C17.7096 20.3284 18.3812 21 19.2096 21Z" fill="black"/>
<path d="M15.2096 11C16.5896 11 17.7096 9.88 17.7096 8.5V4H20.7096V2H16.7096V6.51C16.2896 6.19 15.7796 6 15.2096 6C13.8296 6 12.7096 7.12 12.7096 8.5C12.7096 9.88 13.8296 11 15.2096 11Z" fill="black"/>
<path d="M9.44958 15.96L8.03958 17.37L7.32958 16.66L7.67958 16.31C8.65958 15.33 8.65958 13.75 7.67958 12.77C7.18958 12.28 6.54958 12.04 5.90958 12.04C5.26958 12.04 4.62958 12.28 4.13958 12.77C3.15958 13.75 3.15958 15.33 4.13958 16.31L4.48958 16.66L3.42958 17.72C2.44958 18.7 2.44958 20.28 3.42958 21.26C3.92958 21.76 4.56958 22 5.20958 22C5.84958 22 6.48958 21.76 6.97958 21.27L8.03958 20.21L9.44958 21.62L10.8596 20.21L9.44958 18.8L10.8596 17.39L9.44958 15.96ZM5.55958 14.2C5.67958 14.08 5.81958 14.05 5.90958 14.05C5.99958 14.05 6.13958 14.08 6.25958 14.2C6.44958 14.4 6.44958 14.71 6.25958 14.91L5.90958 15.26L5.55958 14.9C5.36958 14.71 5.36958 14.39 5.55958 14.2ZM5.55958 19.85C5.43958 19.97 5.29958 20 5.20958 20C5.11958 20 4.97958 19.97 4.85958 19.85C4.66958 19.66 4.66958 19.34 4.85958 19.14L5.91958 18.08L6.62958 18.79L5.55958 19.85Z" fill="black"/>
</svg>
