{
    "asset" : {
        "copyright" : "Jeremy Edelblut",
        "generator" : "Khronos glTF Blender I/O v1.7.33",
        "version" : "2.0"
    },
    "scene" : 0,
    "scenes" : [
        {
            "name" : "Scene",
            "nodes" : [
                0
            ]
        }
    ],
    "nodes" : [
        {
            "mesh" : 0,
            "name" : "Circle.2415"
        }
    ],
    "materials" : [
        {
            "doubleSided" : true,
            "emissiveFactor" : [
                0.20000000298023224,
                0.20000000298023224,
                0.20000000298023224
            ],
            "emissiveTexture" : {
                "index" : 0
            },
            "name" : "color",
            "pbrMetallicRoughness" : {
                "baseColorTexture" : {
                    "index" : 1
                },
                "metallicFactor" : 0,
                "roughnessFactor" : 0.5
            }
        },
        {
            "alphaMode" : "BLEND",
            "doubleSided" : true,
            "name" : "transparent",
            "pbrMetallicRoughness" : {
                "baseColorFactor" : [
                    0.9072647094726562,
                    0.9472811222076416,
                    1,
                    0.10000000149011612
                ],
                "metallicFactor" : 0,
                "roughnessFactor" : 0.05000000447034836
            }
        }
    ],
    "meshes" : [
        {
            "name" : "Circle.2985",
            "primitives" : [
                {
                    "attributes" : {
                        "POSITION" : 0,
                        "NORMAL" : 1,
                        "TEXCOORD_0" : 2
                    },
                    "indices" : 3,
                    "material" : 0
                },
                {
                    "attributes" : {
                        "POSITION" : 4,
                        "NORMAL" : 5,
                        "TEXCOORD_0" : 6
                    },
                    "indices" : 7,
                    "material" : 1
                }
            ]
        }
    ],
    "textures" : [
        {
            "sampler" : 0,
            "source" : 0
        },
        {
            "sampler" : 0,
            "source" : 0
        }
    ],
    "images" : [
        {
            "bufferView" : 4,
            "mimeType" : "image/png",
            "name" : "tex"
        }
    ],
    "accessors" : [
        {
            "bufferView" : 0,
            "componentType" : 5126,
            "count" : 2737,
            "max" : [
                1.155561089515686,
                1.2323837280273438,
                0.26276838779449463
            ],
            "min" : [
                -1.155561089515686,
                -1.1491128206253052,
                -0.579511284828186
            ],
            "type" : "VEC3"
        },
        {
            "bufferView" : 1,
            "componentType" : 5126,
            "count" : 2737,
            "type" : "VEC3"
        },
        {
            "bufferView" : 2,
            "componentType" : 5126,
            "count" : 2737,
            "type" : "VEC2"
        },
        {
            "bufferView" : 3,
            "componentType" : 5123,
            "count" : 8172,
            "type" : "SCALAR"
        },
        {
            "bufferView" : 5,
            "componentType" : 5126,
            "count" : 32,
            "max" : [
                0.9573935270309448,
                0.9248959422111511,
                0.1254553347826004
            ],
            "min" : [
                -0.9573935270309448,
                -0.9898911714553833,
                0.12545524537563324
            ],
            "type" : "VEC3"
        },
        {
            "bufferView" : 6,
            "componentType" : 5126,
            "count" : 32,
            "type" : "VEC3"
        },
        {
            "bufferView" : 7,
            "componentType" : 5126,
            "count" : 32,
            "type" : "VEC2"
        },
        {
            "bufferView" : 8,
            "componentType" : 5123,
            "count" : 90,
            "type" : "SCALAR"
        }
    ],
    "bufferViews" : [
        {
            "buffer" : 0,
            "byteLength" : 32844,
            "byteOffset" : 0
        },
        {
            "buffer" : 0,
            "byteLength" : 32844,
            "byteOffset" : 32844
        },
        {
            "buffer" : 0,
            "byteLength" : 21896,
            "byteOffset" : 65688
        },
        {
            "buffer" : 0,
            "byteLength" : 16344,
            "byteOffset" : 87584
        },
        {
            "buffer" : 0,
            "byteLength" : 11997,
            "byteOffset" : 103928
        },
        {
            "buffer" : 0,
            "byteLength" : 384,
            "byteOffset" : 115928
        },
        {
            "buffer" : 0,
            "byteLength" : 384,
            "byteOffset" : 116312
        },
        {
            "buffer" : 0,
            "byteLength" : 256,
            "byteOffset" : 116696
        },
        {
            "buffer" : 0,
            "byteLength" : 180,
            "byteOffset" : 116952
        }
    ],
    "samplers" : [
        {
            "magFilter" : 9729,
            "minFilter" : 9987
        }
    ],
    "buffers" : [
        {
            "byteLength" : 117132,
            "uri" : "data:application/octet-stream;base64,"
        }
    ]
}
