{
    "asset" : {
        "copyright" : "Jeremy Edelblut - 3moji 1.0",
        "generator" : "Khronos glTF Blender I/O v1.7.33",
        "version" : "2.0"
    },
    "scene" : 1,
    "scenes" : [
        {
            "name" : "FBX_Temp",
            "nodes" : [
                0
            ]
        },
        {
            "name" : "Scene",
            "nodes" : [
                1,
                2,
                3,
                4
            ]
        }
    ],
    "nodes" : [
        {
            "mesh" : 0,
            "name" : "3moji.064",
            "rotation" : [
                0,
                -0.7071068286895752,
                0,
                0.7071068286895752
            ]
        },
        {
            "mesh" : 1,
            "name" : "Circle.1904",
            "rotation" : [
                0,
                -0.3826834559440613,
                0,
                0.9238795042037964
            ]
        },
        {
            "mesh" : 2,
            "name" : "Plane.128",
            "rotation" : [
                0,
                -0.3826834559440613,
                0,
                0.9238795042037964
            ]
        },
        {
            "mesh" : 3,
            "name" : "Circle.1905",
            "rotation" : [
                0,
                -0.3826834559440613,
                0,
                0.9238795042037964
            ]
        },
        {
            "mesh" : 4,
            "name" : "Cube.005",
            "rotation" : [
                0,
                -0.3826834559440613,
                0,
                0.9238795042037964
            ]
        }
    ],
    "materials" : [
        {
            "doubleSided" : true,
            "name" : "color",
            "pbrMetallicRoughness" : {
                "baseColorTexture" : {
                    "index" : 0
                },
                "metallicFactor" : 0,
                "roughnessFactor" : 0.5
            }
        }
    ],
    "meshes" : [
        {
            "name" : "Cube.417",
            "primitives" : [
                {
                    "attributes" : {
                        "POSITION" : 0,
                        "NORMAL" : 1,
                        "TEXCOORD_0" : 2
                    },
                    "indices" : 3,
                    "material" : 0
                }
            ]
        },
        {
            "name" : "Circle.2120",
            "primitives" : [
                {
                    "attributes" : {
                        "POSITION" : 4,
                        "NORMAL" : 5,
                        "TEXCOORD_0" : 6
                    },
                    "indices" : 7,
                    "material" : 0
                }
            ]
        },
        {
            "name" : "Plane.129",
            "primitives" : [
                {
                    "attributes" : {
                        "POSITION" : 8,
                        "NORMAL" : 9,
                        "TEXCOORD_0" : 10
                    },
                    "indices" : 11,
                    "material" : 0
                }
            ]
        },
        {
            "name" : "Circle.2121",
            "primitives" : [
                {
                    "attributes" : {
                        "POSITION" : 12,
                        "NORMAL" : 13,
                        "TEXCOORD_0" : 14
                    },
                    "indices" : 15,
                    "material" : 0
                }
            ]
        },
        {
            "name" : "Cube.352",
            "primitives" : [
                {
                    "attributes" : {
                        "POSITION" : 16,
                        "NORMAL" : 17,
                        "TEXCOORD_0" : 18
                    },
                    "indices" : 19,
                    "material" : 0
                }
            ]
        }
    ],
    "textures" : [
        {
            "sampler" : 0,
            "source" : 0
        }
    ],
    "images" : [
        {
            "bufferView" : 4,
            "mimeType" : "image/png",
            "name" : "tex"
        }
    ],
    "accessors" : [
        {
            "bufferView" : 0,
            "componentType" : 5126,
            "count" : 752,
            "max" : [
                -0.8264395594596863,
                0.05719918757677078,
                0.13795676827430725
            ],
            "min" : [
                -0.8543609976768494,
                -0.014034310355782509,
                -0.12436223030090332
            ],
            "type" : "VEC3"
        },
        {
            "bufferView" : 1,
            "componentType" : 5126,
            "count" : 752,
            "type" : "VEC3"
        },
        {
            "bufferView" : 2,
            "componentType" : 5126,
            "count" : 752,
            "type" : "VEC2"
        },
        {
            "bufferView" : 3,
            "componentType" : 5123,
            "count" : 1680,
            "type" : "SCALAR"
        },
        {
            "bufferView" : 5,
            "componentType" : 5126,
            "count" : 648,
            "max" : [
                0.206649050116539,
                0.41370582580566406,
                0.9652531743049622
            ],
            "min" : [
                -0.2064792811870575,
                0.3113177418708801,
                0.8774624466896057
            ],
            "type" : "VEC3"
        },
        {
            "bufferView" : 6,
            "componentType" : 5126,
            "count" : 648,
            "type" : "VEC3"
        },
        {
            "bufferView" : 7,
            "componentType" : 5126,
            "count" : 648,
            "type" : "VEC2"
        },
        {
            "bufferView" : 8,
            "componentType" : 5123,
            "count" : 2880,
            "type" : "SCALAR"
        },
        {
            "bufferView" : 9,
            "componentType" : 5126,
            "count" : 1802,
            "max" : [
                0.1966491937637329,
                0.6784722805023193,
                1.1357017755508423
            ],
            "min" : [
                -0.19647923111915588,
                -0.811636209487915,
                -1.8880212306976318
            ],
            "type" : "VEC3"
        },
        {
            "bufferView" : 10,
            "componentType" : 5126,
            "count" : 1802,
            "type" : "VEC3"
        },
        {
            "bufferView" : 11,
            "componentType" : 5126,
            "count" : 1802,
            "type" : "VEC2"
        },
        {
            "bufferView" : 12,
            "componentType" : 5123,
            "count" : 5160,
            "type" : "SCALAR"
        },
        {
            "bufferView" : 13,
            "componentType" : 5126,
            "count" : 112,
            "max" : [
                0.03729599714279175,
                0.3071182370185852,
                1.1402841806411743
            ],
            "min" : [
                -0.03713947534561157,
                0.2586503028869629,
                1.0752944946289062
            ],
            "type" : "VEC3"
        },
        {
            "bufferView" : 14,
            "componentType" : 5126,
            "count" : 112,
            "type" : "VEC3"
        },
        {
            "bufferView" : 15,
            "componentType" : 5126,
            "count" : 112,
            "type" : "VEC2"
        },
        {
            "bufferView" : 16,
            "componentType" : 5123,
            "count" : 372,
            "type" : "SCALAR"
        },
        {
            "bufferView" : 17,
            "componentType" : 5126,
            "count" : 624,
            "max" : [
                0.2347736954689026,
                0.292652428150177,
                1.1519907712936401
            ],
            "min" : [
                -0.23460370302200317,
                0.12696346640586853,
                1.0586862564086914
            ],
            "type" : "VEC3"
        },
        {
            "bufferView" : 18,
            "componentType" : 5126,
            "count" : 624,
            "type" : "VEC3"
        },
        {
            "bufferView" : 19,
            "componentType" : 5126,
            "count" : 624,
            "type" : "VEC2"
        },
        {
            "bufferView" : 20,
            "componentType" : 5123,
            "count" : 936,
            "type" : "SCALAR"
        }
    ],
    "bufferViews" : [
        {
            "buffer" : 0,
            "byteLength" : 9024,
            "byteOffset" : 0
        },
        {
            "buffer" : 0,
            "byteLength" : 9024,
            "byteOffset" : 9024
        },
        {
            "buffer" : 0,
            "byteLength" : 6016,
            "byteOffset" : 18048
        },
        {
            "buffer" : 0,
            "byteLength" : 3360,
            "byteOffset" : 24064
        },
        {
            "buffer" : 0,
            "byteLength" : 11997,
            "byteOffset" : 27424
        },
        {
            "buffer" : 0,
            "byteLength" : 7776,
            "byteOffset" : 39424
        },
        {
            "buffer" : 0,
            "byteLength" : 7776,
            "byteOffset" : 47200
        },
        {
            "buffer" : 0,
            "byteLength" : 5184,
            "byteOffset" : 54976
        },
        {
            "buffer" : 0,
            "byteLength" : 5760,
            "byteOffset" : 60160
        },
        {
            "buffer" : 0,
            "byteLength" : 21624,
            "byteOffset" : 65920
        },
        {
            "buffer" : 0,
            "byteLength" : 21624,
            "byteOffset" : 87544
        },
        {
            "buffer" : 0,
            "byteLength" : 14416,
            "byteOffset" : 109168
        },
        {
            "buffer" : 0,
            "byteLength" : 10320,
            "byteOffset" : 123584
        },
        {
            "buffer" : 0,
            "byteLength" : 1344,
            "byteOffset" : 133904
        },
        {
            "buffer" : 0,
            "byteLength" : 1344,
            "byteOffset" : 135248
        },
        {
            "buffer" : 0,
            "byteLength" : 896,
            "byteOffset" : 136592
        },
        {
            "buffer" : 0,
            "byteLength" : 744,
            "byteOffset" : 137488
        },
        {
            "buffer" : 0,
            "byteLength" : 7488,
            "byteOffset" : 138232
        },
        {
            "buffer" : 0,
            "byteLength" : 7488,
            "byteOffset" : 145720
        },
        {
            "buffer" : 0,
            "byteLength" : 4992,
            "byteOffset" : 153208
        },
        {
            "buffer" : 0,
            "byteLength" : 1872,
            "byteOffset" : 158200
        }
    ],
    "samplers" : [
        {
            "magFilter" : 9729,
            "minFilter" : 9987
        }
    ],
    "buffers" : [
        {
            "byteLength" : 160072,
            "uri" : "data:application/octet-stream;base64,"
        }
    ]
}
