{
    "asset" : {
        "copyright" : "Jeremy Edelblut",
        "generator" : "Khronos glTF Blender I/O v1.7.33",
        "version" : "2.0"
    },
    "scene" : 0,
    "scenes" : [
        {
            "name" : "Scene",
            "nodes" : [
                0
            ]
        }
    ],
    "nodes" : [
        {
            "mesh" : 0,
            "name" : "Circle.2645"
        }
    ],
    "materials" : [
        {
            "doubleSided" : true,
            "name" : "color",
            "pbrMetallicRoughness" : {
                "baseColorTexture" : {
                    "index" : 0
                },
                "metallicFactor" : 0,
                "roughnessFactor" : 0.5
            }
        }
    ],
    "meshes" : [
        {
            "name" : "Circle.180",
            "primitives" : [
                {
                    "attributes" : {
                        "POSITION" : 0,
                        "NORMAL" : 1,
                        "TEXCOORD_0" : 2
                    },
                    "indices" : 3,
                    "material" : 0
                }
            ]
        }
    ],
    "textures" : [
        {
            "sampler" : 0,
            "source" : 0
        }
    ],
    "images" : [
        {
            "bufferView" : 4,
            "mimeType" : "image/png",
            "name" : "tex"
        }
    ],
    "accessors" : [
        {
            "bufferView" : 0,
            "componentType" : 5126,
            "count" : 1144,
            "max" : [
                0.9799999594688416,
                0.9799999594688416,
                0.40000006556510925
            ],
            "min" : [
                -0.9799999594688416,
                -0.9799999594688416,
                -0.33374086022377014
            ],
            "type" : "VEC3"
        },
        {
            "bufferView" : 1,
            "componentType" : 5126,
            "count" : 1144,
            "type" : "VEC3"
        },
        {
            "bufferView" : 2,
            "componentType" : 5126,
            "count" : 1144,
            "type" : "VEC2"
        },
        {
            "bufferView" : 3,
            "componentType" : 5123,
            "count" : 3828,
            "type" : "SCALAR"
        }
    ],
    "bufferViews" : [
        {
            "buffer" : 0,
            "byteLength" : 13728,
            "byteOffset" : 0
        },
        {
            "buffer" : 0,
            "byteLength" : 13728,
            "byteOffset" : 13728
        },
        {
            "buffer" : 0,
            "byteLength" : 9152,
            "byteOffset" : 27456
        },
        {
            "buffer" : 0,
            "byteLength" : 7656,
            "byteOffset" : 36608
        },
        {
            "buffer" : 0,
            "byteLength" : 11997,
            "byteOffset" : 44264
        }
    ],
    "samplers" : [
        {
            "magFilter" : 9729,
            "minFilter" : 9987
        }
    ],
    "buffers" : [
        {
            "byteLength" : 56264,
            "uri" : "data:application/octet-stream;base64,"
        }
    ]
}
