{
    "asset" : {
        "copyright" : "Jeremy Edelblut",
        "generator" : "Khronos glTF Blender I/O v1.7.33",
        "version" : "2.0"
    },
    "scene" : 1,
    "scenes" : [
        {
            "name" : "FBX_Temp",
            "nodes" : [
                0
            ]
        },
        {
            "name" : "Scene",
            "nodes" : [
                1,
                2,
                3,
                4,
                5,
                6
            ]
        }
    ],
    "nodes" : [
        {
            "mesh" : 0,
            "name" : "3moji.064",
            "rotation" : [
                0,
                -0.7071068286895752,
                0,
                0.7071068286895752
            ]
        },
        {
            "mesh" : 1,
            "name" : "Circle.2003"
        },
        {
            "mesh" : 2,
            "name" : "Cube.150"
        },
        {
            "mesh" : 3,
            "name" : "Cube.151"
        },
        {
            "mesh" : 4,
            "name" : "Cube.152"
        },
        {
            "mesh" : 5,
            "name" : "Sphere.387"
        },
        {
            "mesh" : 6,
            "name" : "Cube.153"
        }
    ],
    "materials" : [
        {
            "doubleSided" : true,
            "name" : "color",
            "pbrMetallicRoughness" : {
                "baseColorTexture" : {
                    "index" : 0
                },
                "metallicFactor" : 0,
                "roughnessFactor" : 0.5
            }
        }
    ],
    "meshes" : [
        {
            "name" : "Cube.417",
            "primitives" : [
                {
                    "attributes" : {
                        "POSITION" : 0,
                        "NORMAL" : 1,
                        "TEXCOORD_0" : 2
                    },
                    "indices" : 3,
                    "material" : 0
                }
            ]
        },
        {
            "name" : "Circle.2329",
            "primitives" : [
                {
                    "attributes" : {
                        "POSITION" : 4,
                        "NORMAL" : 5,
                        "TEXCOORD_0" : 6
                    },
                    "indices" : 7,
                    "material" : 0
                }
            ]
        },
        {
            "name" : "Cube.270",
            "primitives" : [
                {
                    "attributes" : {
                        "POSITION" : 8,
                        "NORMAL" : 9,
                        "TEXCOORD_0" : 10
                    },
                    "indices" : 11,
                    "material" : 0
                }
            ]
        },
        {
            "name" : "Cube.271",
            "primitives" : [
                {
                    "attributes" : {
                        "POSITION" : 12,
                        "NORMAL" : 13,
                        "TEXCOORD_0" : 14
                    },
                    "indices" : 15,
                    "material" : 0
                }
            ]
        },
        {
            "name" : "Cube.272",
            "primitives" : [
                {
                    "attributes" : {
                        "POSITION" : 16,
                        "NORMAL" : 17,
                        "TEXCOORD_0" : 18
                    },
                    "indices" : 19,
                    "material" : 0
                }
            ]
        },
        {
            "name" : "Sphere.385",
            "primitives" : [
                {
                    "attributes" : {
                        "POSITION" : 20,
                        "NORMAL" : 21,
                        "TEXCOORD_0" : 22
                    },
                    "indices" : 23,
                    "material" : 0
                }
            ]
        },
        {
            "name" : "Cube.274",
            "primitives" : [
                {
                    "attributes" : {
                        "POSITION" : 24,
                        "NORMAL" : 25,
                        "TEXCOORD_0" : 26
                    },
                    "indices" : 27,
                    "material" : 0
                }
            ]
        }
    ],
    "textures" : [
        {
            "sampler" : 0,
            "source" : 0
        }
    ],
    "images" : [
        {
            "bufferView" : 4,
            "mimeType" : "image/png",
            "name" : "tex"
        }
    ],
    "accessors" : [
        {
            "bufferView" : 0,
            "componentType" : 5126,
            "count" : 752,
            "max" : [
                -0.8264395594596863,
                0.05719918757677078,
                0.13795676827430725
            ],
            "min" : [
                -0.8543609976768494,
                -0.014034310355782509,
                -0.12436223030090332
            ],
            "type" : "VEC3"
        },
        {
            "bufferView" : 1,
            "componentType" : 5126,
            "count" : 752,
            "type" : "VEC3"
        },
        {
            "bufferView" : 2,
            "componentType" : 5126,
            "count" : 752,
            "type" : "VEC2"
        },
        {
            "bufferView" : 3,
            "componentType" : 5123,
            "count" : 1680,
            "type" : "SCALAR"
        },
        {
            "bufferView" : 5,
            "componentType" : 5126,
            "count" : 660,
            "max" : [
                0.28625044226646423,
                0.3197965919971466,
                0.1492467224597931
            ],
            "min" : [
                0.11154280602931976,
                0.17309033870697021,
                0.09937422722578049
            ],
            "type" : "VEC3"
        },
        {
            "bufferView" : 6,
            "componentType" : 5126,
            "count" : 660,
            "type" : "VEC3"
        },
        {
            "bufferView" : 7,
            "componentType" : 5126,
            "count" : 660,
            "type" : "VEC2"
        },
        {
            "bufferView" : 8,
            "componentType" : 5123,
            "count" : 2880,
            "type" : "SCALAR"
        },
        {
            "bufferView" : 9,
            "componentType" : 5126,
            "count" : 300,
            "max" : [
                0.21904295682907104,
                0.22005194425582886,
                0.29376694560050964
            ],
            "min" : [
                -0.8046548962593079,
                -0.9856818914413452,
                -0.01979513093829155
            ],
            "type" : "VEC3"
        },
        {
            "bufferView" : 10,
            "componentType" : 5126,
            "count" : 300,
            "type" : "VEC3"
        },
        {
            "bufferView" : 11,
            "componentType" : 5126,
            "count" : 300,
            "type" : "VEC2"
        },
        {
            "bufferView" : 12,
            "componentType" : 5123,
            "count" : 1494,
            "type" : "SCALAR"
        },
        {
            "bufferView" : 13,
            "componentType" : 5126,
            "count" : 220,
            "max" : [
                1.1500205993652344,
                1.141800045967102,
                0.22732581198215485
            ],
            "min" : [
                -0.12394502758979797,
                0.12157052010297775,
                0.13371479511260986
            ],
            "type" : "VEC3"
        },
        {
            "bufferView" : 14,
            "componentType" : 5126,
            "count" : 220,
            "type" : "VEC3"
        },
        {
            "bufferView" : 15,
            "componentType" : 5126,
            "count" : 220,
            "type" : "VEC2"
        },
        {
            "bufferView" : 16,
            "componentType" : 5123,
            "count" : 552,
            "type" : "SCALAR"
        },
        {
            "bufferView" : 17,
            "componentType" : 5126,
            "count" : 892,
            "max" : [
                0.5361745953559875,
                0.5253711342811584,
                0.24907413125038147
            ],
            "min" : [
                -1.1026511192321777,
                -1.1603140830993652,
                -0.24261422455310822
            ],
            "type" : "VEC3"
        },
        {
            "bufferView" : 18,
            "componentType" : 5126,
            "count" : 892,
            "type" : "VEC3"
        },
        {
            "bufferView" : 19,
            "componentType" : 5126,
            "count" : 892,
            "type" : "VEC2"
        },
        {
            "bufferView" : 20,
            "componentType" : 5123,
            "count" : 2352,
            "type" : "SCALAR"
        },
        {
            "bufferView" : 21,
            "componentType" : 5126,
            "count" : 576,
            "max" : [
                0.16227790713310242,
                0.11144402623176575,
                0.3295885920524597
            ],
            "min" : [
                -0.842886209487915,
                -1.018935203552246,
                0.007814154028892517
            ],
            "type" : "VEC3"
        },
        {
            "bufferView" : 22,
            "componentType" : 5126,
            "count" : 576,
            "type" : "VEC3"
        },
        {
            "bufferView" : 23,
            "componentType" : 5126,
            "count" : 576,
            "type" : "VEC2"
        },
        {
            "bufferView" : 24,
            "componentType" : 5123,
            "count" : 2592,
            "type" : "SCALAR"
        },
        {
            "bufferView" : 25,
            "componentType" : 5126,
            "count" : 222,
            "max" : [
                0.28464436531066895,
                0.3184148073196411,
                0.19018930196762085
            ],
            "min" : [
                -0.00611472874879837,
                0.03815363347530365,
                0.028922148048877716
            ],
            "type" : "VEC3"
        },
        {
            "bufferView" : 26,
            "componentType" : 5126,
            "count" : 222,
            "type" : "VEC3"
        },
        {
            "bufferView" : 27,
            "componentType" : 5126,
            "count" : 222,
            "type" : "VEC2"
        },
        {
            "bufferView" : 28,
            "componentType" : 5123,
            "count" : 1128,
            "type" : "SCALAR"
        }
    ],
    "bufferViews" : [
        {
            "buffer" : 0,
            "byteLength" : 9024,
            "byteOffset" : 0
        },
        {
            "buffer" : 0,
            "byteLength" : 9024,
            "byteOffset" : 9024
        },
        {
            "buffer" : 0,
            "byteLength" : 6016,
            "byteOffset" : 18048
        },
        {
            "buffer" : 0,
            "byteLength" : 3360,
            "byteOffset" : 24064
        },
        {
            "buffer" : 0,
            "byteLength" : 11997,
            "byteOffset" : 27424
        },
        {
            "buffer" : 0,
            "byteLength" : 7920,
            "byteOffset" : 39424
        },
        {
            "buffer" : 0,
            "byteLength" : 7920,
            "byteOffset" : 47344
        },
        {
            "buffer" : 0,
            "byteLength" : 5280,
            "byteOffset" : 55264
        },
        {
            "buffer" : 0,
            "byteLength" : 5760,
            "byteOffset" : 60544
        },
        {
            "buffer" : 0,
            "byteLength" : 3600,
            "byteOffset" : 66304
        },
        {
            "buffer" : 0,
            "byteLength" : 3600,
            "byteOffset" : 69904
        },
        {
            "buffer" : 0,
            "byteLength" : 2400,
            "byteOffset" : 73504
        },
        {
            "buffer" : 0,
            "byteLength" : 2988,
            "byteOffset" : 75904
        },
        {
            "buffer" : 0,
            "byteLength" : 2640,
            "byteOffset" : 78892
        },
        {
            "buffer" : 0,
            "byteLength" : 2640,
            "byteOffset" : 81532
        },
        {
            "buffer" : 0,
            "byteLength" : 1760,
            "byteOffset" : 84172
        },
        {
            "buffer" : 0,
            "byteLength" : 1104,
            "byteOffset" : 85932
        },
        {
            "buffer" : 0,
            "byteLength" : 10704,
            "byteOffset" : 87036
        },
        {
            "buffer" : 0,
            "byteLength" : 10704,
            "byteOffset" : 97740
        },
        {
            "buffer" : 0,
            "byteLength" : 7136,
            "byteOffset" : 108444
        },
        {
            "buffer" : 0,
            "byteLength" : 4704,
            "byteOffset" : 115580
        },
        {
            "buffer" : 0,
            "byteLength" : 6912,
            "byteOffset" : 120284
        },
        {
            "buffer" : 0,
            "byteLength" : 6912,
            "byteOffset" : 127196
        },
        {
            "buffer" : 0,
            "byteLength" : 4608,
            "byteOffset" : 134108
        },
        {
            "buffer" : 0,
            "byteLength" : 5184,
            "byteOffset" : 138716
        },
        {
            "buffer" : 0,
            "byteLength" : 2664,
            "byteOffset" : 143900
        },
        {
            "buffer" : 0,
            "byteLength" : 2664,
            "byteOffset" : 146564
        },
        {
            "buffer" : 0,
            "byteLength" : 1776,
            "byteOffset" : 149228
        },
        {
            "buffer" : 0,
            "byteLength" : 2256,
            "byteOffset" : 151004
        }
    ],
    "samplers" : [
        {
            "magFilter" : 9729,
            "minFilter" : 9987
        }
    ],
    "buffers" : [
        {
            "byteLength" : 153260,
            "uri" : "data:application/octet-stream;base64,"
        }
    ]
}
