{
    "asset" : {
        "copyright" : "Jeremy Edelblut - 3moji 1.0",
        "generator" : "Khronos glTF Blender I/O v1.7.33",
        "version" : "2.0"
    },
    "scene" : 1,
    "scenes" : [
        {
            "name" : "FBX_Temp",
            "nodes" : [
                0
            ]
        },
        {
            "name" : "Scene",
            "nodes" : [
                1,
                2,
                3,
                4
            ]
        }
    ],
    "nodes" : [
        {
            "mesh" : 0,
            "name" : "3moji.064",
            "rotation" : [
                0,
                -0.7071068286895752,
                0,
                0.7071068286895752
            ]
        },
        {
            "mesh" : 1,
            "name" : "Circle.1893"
        },
        {
            "mesh" : 2,
            "name" : "Circle.1894"
        },
        {
            "mesh" : 3,
            "name" : "Plane.120"
        },
        {
            "mesh" : 4,
            "name" : "Cube.6229"
        }
    ],
    "materials" : [
        {
            "doubleSided" : true,
            "name" : "color",
            "pbrMetallicRoughness" : {
                "baseColorTexture" : {
                    "index" : 0
                },
                "metallicFactor" : 0,
                "roughnessFactor" : 0.5
            }
        }
    ],
    "meshes" : [
        {
            "name" : "Cube.417",
            "primitives" : [
                {
                    "attributes" : {
                        "POSITION" : 0,
                        "NORMAL" : 1,
                        "TEXCOORD_0" : 2
                    },
                    "indices" : 3,
                    "material" : 0
                }
            ]
        },
        {
            "name" : "Circle.2109",
            "primitives" : [
                {
                    "attributes" : {
                        "POSITION" : 4,
                        "NORMAL" : 5,
                        "TEXCOORD_0" : 6
                    },
                    "indices" : 7,
                    "material" : 0
                }
            ]
        },
        {
            "name" : "Circle.2110",
            "primitives" : [
                {
                    "attributes" : {
                        "POSITION" : 8,
                        "NORMAL" : 9,
                        "TEXCOORD_0" : 10
                    },
                    "indices" : 11,
                    "material" : 0
                }
            ]
        },
        {
            "name" : "Plane.121",
            "primitives" : [
                {
                    "attributes" : {
                        "POSITION" : 12,
                        "NORMAL" : 13,
                        "TEXCOORD_0" : 14
                    },
                    "indices" : 15,
                    "material" : 0
                }
            ]
        },
        {
            "name" : "Cube.7286",
            "primitives" : [
                {
                    "attributes" : {
                        "POSITION" : 16,
                        "NORMAL" : 17,
                        "TEXCOORD_0" : 18
                    },
                    "indices" : 19,
                    "material" : 0
                }
            ]
        }
    ],
    "textures" : [
        {
            "sampler" : 0,
            "source" : 0
        }
    ],
    "images" : [
        {
            "bufferView" : 4,
            "mimeType" : "image/png",
            "name" : "tex"
        }
    ],
    "accessors" : [
        {
            "bufferView" : 0,
            "componentType" : 5126,
            "count" : 752,
            "max" : [
                -0.8264395594596863,
                0.05719918757677078,
                0.13795676827430725
            ],
            "min" : [
                -0.8543609976768494,
                -0.014034310355782509,
                -0.12436223030090332
            ],
            "type" : "VEC3"
        },
        {
            "bufferView" : 1,
            "componentType" : 5126,
            "count" : 752,
            "type" : "VEC3"
        },
        {
            "bufferView" : 2,
            "componentType" : 5126,
            "count" : 752,
            "type" : "VEC2"
        },
        {
            "bufferView" : 3,
            "componentType" : 5123,
            "count" : 1680,
            "type" : "SCALAR"
        },
        {
            "bufferView" : 5,
            "componentType" : 5126,
            "count" : 648,
            "max" : [
                -0.5364655256271362,
                0.6136479377746582,
                0.8710227012634277
            ],
            "min" : [
                -0.8710321187973022,
                0.5023090839385986,
                0.5364710092544556
            ],
            "type" : "VEC3"
        },
        {
            "bufferView" : 6,
            "componentType" : 5126,
            "count" : 648,
            "type" : "VEC3"
        },
        {
            "bufferView" : 7,
            "componentType" : 5126,
            "count" : 648,
            "type" : "VEC2"
        },
        {
            "bufferView" : 8,
            "componentType" : 5123,
            "count" : 2880,
            "type" : "SCALAR"
        },
        {
            "bufferView" : 9,
            "componentType" : 5126,
            "count" : 226,
            "max" : [
                -0.4474720358848572,
                0.9100750684738159,
                0.8525681495666504
            ],
            "min" : [
                -0.8495408892631531,
                0.7552530765533447,
                0.45049920678138733
            ],
            "type" : "VEC3"
        },
        {
            "bufferView" : 10,
            "componentType" : 5126,
            "count" : 226,
            "type" : "VEC3"
        },
        {
            "bufferView" : 11,
            "componentType" : 5126,
            "count" : 226,
            "type" : "VEC2"
        },
        {
            "bufferView" : 12,
            "componentType" : 5123,
            "count" : 1248,
            "type" : "SCALAR"
        },
        {
            "bufferView" : 13,
            "componentType" : 5126,
            "count" : 2100,
            "max" : [
                1.1631813049316406,
                0.9251401424407959,
                1.0110656023025513
            ],
            "min" : [
                -1.0110678672790527,
                -1.031428575515747,
                -1.1631834506988525
            ],
            "type" : "VEC3"
        },
        {
            "bufferView" : 14,
            "componentType" : 5126,
            "count" : 2100,
            "type" : "VEC3"
        },
        {
            "bufferView" : 15,
            "componentType" : 5126,
            "count" : 2100,
            "type" : "VEC2"
        },
        {
            "bufferView" : 16,
            "componentType" : 5123,
            "count" : 5910,
            "type" : "SCALAR"
        },
        {
            "bufferView" : 17,
            "componentType" : 5126,
            "count" : 748,
            "max" : [
                -0.37993115186691284,
                0.729137659072876,
                0.9036548137664795
            ],
            "min" : [
                -0.8763980269432068,
                0.5448893904685974,
                0.40718793869018555
            ],
            "type" : "VEC3"
        },
        {
            "bufferView" : 18,
            "componentType" : 5126,
            "count" : 748,
            "type" : "VEC3"
        },
        {
            "bufferView" : 19,
            "componentType" : 5126,
            "count" : 748,
            "type" : "VEC2"
        },
        {
            "bufferView" : 20,
            "componentType" : 5123,
            "count" : 3504,
            "type" : "SCALAR"
        }
    ],
    "bufferViews" : [
        {
            "buffer" : 0,
            "byteLength" : 9024,
            "byteOffset" : 0
        },
        {
            "buffer" : 0,
            "byteLength" : 9024,
            "byteOffset" : 9024
        },
        {
            "buffer" : 0,
            "byteLength" : 6016,
            "byteOffset" : 18048
        },
        {
            "buffer" : 0,
            "byteLength" : 3360,
            "byteOffset" : 24064
        },
        {
            "buffer" : 0,
            "byteLength" : 11997,
            "byteOffset" : 27424
        },
        {
            "buffer" : 0,
            "byteLength" : 7776,
            "byteOffset" : 39424
        },
        {
            "buffer" : 0,
            "byteLength" : 7776,
            "byteOffset" : 47200
        },
        {
            "buffer" : 0,
            "byteLength" : 5184,
            "byteOffset" : 54976
        },
        {
            "buffer" : 0,
            "byteLength" : 5760,
            "byteOffset" : 60160
        },
        {
            "buffer" : 0,
            "byteLength" : 2712,
            "byteOffset" : 65920
        },
        {
            "buffer" : 0,
            "byteLength" : 2712,
            "byteOffset" : 68632
        },
        {
            "buffer" : 0,
            "byteLength" : 1808,
            "byteOffset" : 71344
        },
        {
            "buffer" : 0,
            "byteLength" : 2496,
            "byteOffset" : 73152
        },
        {
            "buffer" : 0,
            "byteLength" : 25200,
            "byteOffset" : 75648
        },
        {
            "buffer" : 0,
            "byteLength" : 25200,
            "byteOffset" : 100848
        },
        {
            "buffer" : 0,
            "byteLength" : 16800,
            "byteOffset" : 126048
        },
        {
            "buffer" : 0,
            "byteLength" : 11820,
            "byteOffset" : 142848
        },
        {
            "buffer" : 0,
            "byteLength" : 8976,
            "byteOffset" : 154668
        },
        {
            "buffer" : 0,
            "byteLength" : 8976,
            "byteOffset" : 163644
        },
        {
            "buffer" : 0,
            "byteLength" : 5984,
            "byteOffset" : 172620
        },
        {
            "buffer" : 0,
            "byteLength" : 7008,
            "byteOffset" : 178604
        }
    ],
    "samplers" : [
        {
            "magFilter" : 9729,
            "minFilter" : 9987
        }
    ],
    "buffers" : [
        {
            "byteLength" : 185612,
            "uri" : "data:application/octet-stream;base64,"
        }
    ]
}
