{
    "asset" : {
        "copyright" : "Jeremy Edelblut",
        "generator" : "Khronos glTF Blender I/O v1.7.33",
        "version" : "2.0"
    },
    "scene" : 2,
    "scenes" : [
        {
            "name" : "FBX_Temp",
            "nodes" : [
                0
            ]
        },
        {
            "name" : "FBX_Temp.001",
            "nodes" : [
                1
            ]
        },
        {
            "name" : "Scene",
            "nodes" : [
                2,
                3,
                4
            ]
        }
    ],
    "nodes" : [
        {
            "mesh" : 0,
            "name" : "3moji.064",
            "rotation" : [
                0,
                -0.7071068286895752,
                0,
                0.7071068286895752
            ]
        },
        {
            "mesh" : 1,
            "name" : "3moji.org.002",
            "rotation" : [
                -0.5,
                0.5,
                -0.4999999701976776,
                0.5
            ],
            "scale" : [
                0.010577797889709473,
                0.010577797889709473,
                0.010577797889709473
            ],
            "translation" : [
                0.007795508019626141,
                -0.920851469039917,
                0
            ]
        },
        {
            "mesh" : 2,
            "name" : "Cylinder.007"
        },
        {
            "mesh" : 3,
            "name" : "Mball.001"
        },
        {
            "mesh" : 4,
            "name" : "Roundcube.437"
        }
    ],
    "materials" : [
        {
            "doubleSided" : true,
            "name" : "color",
            "pbrMetallicRoughness" : {
                "baseColorTexture" : {
                    "index" : 0
                },
                "metallicFactor" : 0,
                "roughnessFactor" : 0.5
            }
        }
    ],
    "meshes" : [
        {
            "name" : "Cube.417",
            "primitives" : [
                {
                    "attributes" : {
                        "POSITION" : 0,
                        "NORMAL" : 1,
                        "TEXCOORD_0" : 2
                    },
                    "indices" : 3,
                    "material" : 0
                }
            ]
        },
        {
            "name" : "Cube.056",
            "primitives" : [
                {
                    "attributes" : {
                        "POSITION" : 4,
                        "NORMAL" : 5,
                        "TEXCOORD_0" : 6
                    },
                    "indices" : 7
                }
            ]
        },
        {
            "name" : "Cylinder.008",
            "primitives" : [
                {
                    "attributes" : {
                        "POSITION" : 8,
                        "NORMAL" : 9,
                        "TEXCOORD_0" : 10
                    },
                    "indices" : 11,
                    "material" : 0
                }
            ]
        },
        {
            "name" : "Mesh.001",
            "primitives" : [
                {
                    "attributes" : {
                        "POSITION" : 12,
                        "NORMAL" : 13,
                        "TEXCOORD_0" : 14
                    },
                    "indices" : 15,
                    "material" : 0
                }
            ]
        },
        {
            "name" : "Roundcube.412",
            "primitives" : [
                {
                    "attributes" : {
                        "POSITION" : 16,
                        "NORMAL" : 17,
                        "TEXCOORD_0" : 18
                    },
                    "indices" : 19,
                    "material" : 0
                }
            ]
        }
    ],
    "textures" : [
        {
            "sampler" : 0,
            "source" : 0
        }
    ],
    "images" : [
        {
            "bufferView" : 4,
            "mimeType" : "image/png",
            "name" : "tex"
        }
    ],
    "accessors" : [
        {
            "bufferView" : 0,
            "componentType" : 5126,
            "count" : 752,
            "max" : [
                -0.8264395594596863,
                0.05719918757677078,
                0.13795676827430725
            ],
            "min" : [
                -0.8543609976768494,
                -0.014034310355782509,
                -0.12436223030090332
            ],
            "type" : "VEC3"
        },
        {
            "bufferView" : 1,
            "componentType" : 5126,
            "count" : 752,
            "type" : "VEC3"
        },
        {
            "bufferView" : 2,
            "componentType" : 5126,
            "count" : 752,
            "type" : "VEC2"
        },
        {
            "bufferView" : 3,
            "componentType" : 5123,
            "count" : 1680,
            "type" : "SCALAR"
        },
        {
            "bufferView" : 5,
            "componentType" : 5126,
            "count" : 752,
            "max" : [
                2.8738752007484436e-05,
                7.90000057220459,
                17.240537643432617
            ],
            "min" : [
                -2.0099713802337646,
                -1.8999989032745361,
                -19.159460067749023
            ],
            "type" : "VEC3"
        },
        {
            "bufferView" : 6,
            "componentType" : 5126,
            "count" : 752,
            "type" : "VEC3"
        },
        {
            "bufferView" : 7,
            "componentType" : 5126,
            "count" : 752,
            "type" : "VEC2"
        },
        {
            "bufferView" : 8,
            "componentType" : 5123,
            "count" : 1680,
            "type" : "SCALAR"
        },
        {
            "bufferView" : 9,
            "componentType" : 5126,
            "count" : 1892,
            "max" : [
                0.8778746724128723,
                0.21737709641456604,
                -0.10627720504999161
            ],
            "min" : [
                -0.8778747320175171,
                -0.22943443059921265,
                -0.36960697174072266
            ],
            "type" : "VEC3"
        },
        {
            "bufferView" : 10,
            "componentType" : 5126,
            "count" : 1892,
            "type" : "VEC3"
        },
        {
            "bufferView" : 11,
            "componentType" : 5126,
            "count" : 1892,
            "type" : "VEC2"
        },
        {
            "bufferView" : 12,
            "componentType" : 5123,
            "count" : 4992,
            "type" : "SCALAR"
        },
        {
            "bufferView" : 13,
            "componentType" : 5126,
            "count" : 4664,
            "max" : [
                0.8017967343330383,
                0.8955014944076538,
                0.40060245990753174
            ],
            "min" : [
                -0.8116557002067566,
                -0.04738755524158478,
                -1.0326675176620483
            ],
            "type" : "VEC3"
        },
        {
            "bufferView" : 14,
            "componentType" : 5126,
            "count" : 4664,
            "type" : "VEC3"
        },
        {
            "bufferView" : 15,
            "componentType" : 5126,
            "count" : 4664,
            "type" : "VEC2"
        },
        {
            "bufferView" : 16,
            "componentType" : 5123,
            "count" : 27984,
            "type" : "SCALAR"
        },
        {
            "bufferView" : 17,
            "componentType" : 5126,
            "count" : 1785,
            "max" : [
                0.7119784355163574,
                0.703786313533783,
                0.5776225328445435
            ],
            "min" : [
                -0.7213840484619141,
                -0.8208204507827759,
                -0.9389863610267639
            ],
            "type" : "VEC3"
        },
        {
            "bufferView" : 18,
            "componentType" : 5126,
            "count" : 1785,
            "type" : "VEC3"
        },
        {
            "bufferView" : 19,
            "componentType" : 5126,
            "count" : 1785,
            "type" : "VEC2"
        },
        {
            "bufferView" : 20,
            "componentType" : 5123,
            "count" : 7392,
            "type" : "SCALAR"
        }
    ],
    "bufferViews" : [
        {
            "buffer" : 0,
            "byteLength" : 9024,
            "byteOffset" : 0
        },
        {
            "buffer" : 0,
            "byteLength" : 9024,
            "byteOffset" : 9024
        },
        {
            "buffer" : 0,
            "byteLength" : 6016,
            "byteOffset" : 18048
        },
        {
            "buffer" : 0,
            "byteLength" : 3360,
            "byteOffset" : 24064
        },
        {
            "buffer" : 0,
            "byteLength" : 11997,
            "byteOffset" : 27424
        },
        {
            "buffer" : 0,
            "byteLength" : 9024,
            "byteOffset" : 39424
        },
        {
            "buffer" : 0,
            "byteLength" : 9024,
            "byteOffset" : 48448
        },
        {
            "buffer" : 0,
            "byteLength" : 6016,
            "byteOffset" : 57472
        },
        {
            "buffer" : 0,
            "byteLength" : 3360,
            "byteOffset" : 63488
        },
        {
            "buffer" : 0,
            "byteLength" : 22704,
            "byteOffset" : 66848
        },
        {
            "buffer" : 0,
            "byteLength" : 22704,
            "byteOffset" : 89552
        },
        {
            "buffer" : 0,
            "byteLength" : 15136,
            "byteOffset" : 112256
        },
        {
            "buffer" : 0,
            "byteLength" : 9984,
            "byteOffset" : 127392
        },
        {
            "buffer" : 0,
            "byteLength" : 55968,
            "byteOffset" : 137376
        },
        {
            "buffer" : 0,
            "byteLength" : 55968,
            "byteOffset" : 193344
        },
        {
            "buffer" : 0,
            "byteLength" : 37312,
            "byteOffset" : 249312
        },
        {
            "buffer" : 0,
            "byteLength" : 55968,
            "byteOffset" : 286624
        },
        {
            "buffer" : 0,
            "byteLength" : 21420,
            "byteOffset" : 342592
        },
        {
            "buffer" : 0,
            "byteLength" : 21420,
            "byteOffset" : 364012
        },
        {
            "buffer" : 0,
            "byteLength" : 14280,
            "byteOffset" : 385432
        },
        {
            "buffer" : 0,
            "byteLength" : 14784,
            "byteOffset" : 399712
        }
    ],
    "samplers" : [
        {
            "magFilter" : 9729,
            "minFilter" : 9987
        }
    ],
    "buffers" : [
        {
            "byteLength" : 414496,
            "uri" : "data:application/octet-stream;base64,"
        }
    ]
}
