{
    "asset" : {
        "copyright" : "Jeremy Edelblut",
        "generator" : "Khronos glTF Blender I/O v1.7.33",
        "version" : "2.0"
    },
    "scene" : 1,
    "scenes" : [
        {
            "name" : "FBX_Temp",
            "nodes" : [
                0
            ]
        },
        {
            "name" : "Scene",
            "nodes" : [
                1,
                2,
                3,
                4,
                5,
                6,
                7,
                8
            ]
        }
    ],
    "nodes" : [
        {
            "mesh" : 0,
            "name" : "3moji.064",
            "rotation" : [
                0,
                -0.7071068286895752,
                0,
                0.7071068286895752
            ]
        },
        {
            "mesh" : 1,
            "name" : "Cube.6156"
        },
        {
            "mesh" : 2,
            "name" : "Cube.6157"
        },
        {
            "mesh" : 3,
            "name" : "Cube.6158"
        },
        {
            "mesh" : 4,
            "name" : "Circle.1832"
        },
        {
            "mesh" : 5,
            "name" : "Circle.1833"
        },
        {
            "mesh" : 6,
            "name" : "Circle.1834"
        },
        {
            "mesh" : 7,
            "name" : "Cube.6159"
        },
        {
            "mesh" : 8,
            "name" : "3moji.org.188"
        }
    ],
    "materials" : [
        {
            "doubleSided" : true,
            "name" : "color",
            "pbrMetallicRoughness" : {
                "baseColorTexture" : {
                    "index" : 0
                },
                "metallicFactor" : 0,
                "roughnessFactor" : 0.5
            }
        }
    ],
    "meshes" : [
        {
            "name" : "Cube.417",
            "primitives" : [
                {
                    "attributes" : {
                        "POSITION" : 0,
                        "NORMAL" : 1,
                        "TEXCOORD_0" : 2
                    },
                    "indices" : 3,
                    "material" : 0
                }
            ]
        },
        {
            "name" : "Cube.7205",
            "primitives" : [
                {
                    "attributes" : {
                        "POSITION" : 4,
                        "NORMAL" : 5,
                        "TEXCOORD_0" : 6
                    },
                    "indices" : 7,
                    "material" : 0
                }
            ]
        },
        {
            "name" : "Cube.7206",
            "primitives" : [
                {
                    "attributes" : {
                        "POSITION" : 8,
                        "NORMAL" : 9,
                        "TEXCOORD_0" : 10
                    },
                    "indices" : 11,
                    "material" : 0
                }
            ]
        },
        {
            "name" : "Cube.7207",
            "primitives" : [
                {
                    "attributes" : {
                        "POSITION" : 12,
                        "NORMAL" : 13,
                        "TEXCOORD_0" : 14
                    },
                    "indices" : 15,
                    "material" : 0
                }
            ]
        },
        {
            "name" : "Circle.2041",
            "primitives" : [
                {
                    "attributes" : {
                        "POSITION" : 16,
                        "NORMAL" : 17,
                        "TEXCOORD_0" : 18
                    },
                    "indices" : 19,
                    "material" : 0
                }
            ]
        },
        {
            "name" : "Circle.2042",
            "primitives" : [
                {
                    "attributes" : {
                        "POSITION" : 20,
                        "NORMAL" : 21,
                        "TEXCOORD_0" : 22
                    },
                    "indices" : 23,
                    "material" : 0
                }
            ]
        },
        {
            "name" : "Circle.2043",
            "primitives" : [
                {
                    "attributes" : {
                        "POSITION" : 24,
                        "NORMAL" : 25,
                        "TEXCOORD_0" : 26
                    },
                    "indices" : 27,
                    "material" : 0
                }
            ]
        },
        {
            "name" : "Cube.7208",
            "primitives" : [
                {
                    "attributes" : {
                        "POSITION" : 28,
                        "NORMAL" : 29,
                        "TEXCOORD_0" : 30
                    },
                    "indices" : 31,
                    "material" : 0
                }
            ]
        },
        {
            "name" : "Cube.644",
            "primitives" : [
                {
                    "attributes" : {
                        "POSITION" : 32,
                        "NORMAL" : 33,
                        "TEXCOORD_0" : 34
                    },
                    "indices" : 35,
                    "material" : 0
                }
            ]
        }
    ],
    "textures" : [
        {
            "sampler" : 0,
            "source" : 0
        }
    ],
    "images" : [
        {
            "bufferView" : 4,
            "mimeType" : "image/png",
            "name" : "tex"
        }
    ],
    "accessors" : [
        {
            "bufferView" : 0,
            "componentType" : 5126,
            "count" : 752,
            "max" : [
                -0.8264395594596863,
                0.05719918757677078,
                0.13795676827430725
            ],
            "min" : [
                -0.8543609976768494,
                -0.014034310355782509,
                -0.12436223030090332
            ],
            "type" : "VEC3"
        },
        {
            "bufferView" : 1,
            "componentType" : 5126,
            "count" : 752,
            "type" : "VEC3"
        },
        {
            "bufferView" : 2,
            "componentType" : 5126,
            "count" : 752,
            "type" : "VEC2"
        },
        {
            "bufferView" : 3,
            "componentType" : 5123,
            "count" : 1680,
            "type" : "SCALAR"
        },
        {
            "bufferView" : 5,
            "componentType" : 5126,
            "count" : 366,
            "max" : [
                0.7996538281440735,
                0.660613477230072,
                0.6834362745285034
            ],
            "min" : [
                -0.7992809414863586,
                -0.6590527296066284,
                -0.1755397468805313
            ],
            "type" : "VEC3"
        },
        {
            "bufferView" : 6,
            "componentType" : 5126,
            "count" : 366,
            "type" : "VEC3"
        },
        {
            "bufferView" : 7,
            "componentType" : 5126,
            "count" : 366,
            "type" : "VEC2"
        },
        {
            "bufferView" : 8,
            "componentType" : 5123,
            "count" : 2028,
            "type" : "SCALAR"
        },
        {
            "bufferView" : 9,
            "componentType" : 5126,
            "count" : 108,
            "max" : [
                0.13244670629501343,
                -0.08820906281471252,
                0.72201007604599
            ],
            "min" : [
                -0.13207389414310455,
                -0.2844609320163727,
                0.494075208902359
            ],
            "type" : "VEC3"
        },
        {
            "bufferView" : 10,
            "componentType" : 5126,
            "count" : 108,
            "type" : "VEC3"
        },
        {
            "bufferView" : 11,
            "componentType" : 5126,
            "count" : 108,
            "type" : "VEC2"
        },
        {
            "bufferView" : 12,
            "componentType" : 5123,
            "count" : 636,
            "type" : "SCALAR"
        },
        {
            "bufferView" : 13,
            "componentType" : 5126,
            "count" : 200,
            "max" : [
                1.1490894556045532,
                0.7027996778488159,
                0.29594388604164124
            ],
            "min" : [
                -1.1490894556045532,
                -0.3500601649284363,
                -0.077008455991745
            ],
            "type" : "VEC3"
        },
        {
            "bufferView" : 14,
            "componentType" : 5126,
            "count" : 200,
            "type" : "VEC3"
        },
        {
            "bufferView" : 15,
            "componentType" : 5126,
            "count" : 200,
            "type" : "VEC2"
        },
        {
            "bufferView" : 16,
            "componentType" : 5123,
            "count" : 576,
            "type" : "SCALAR"
        },
        {
            "bufferView" : 17,
            "componentType" : 5126,
            "count" : 724,
            "max" : [
                0.32743462920188904,
                0.21835830807685852,
                0.6647207140922546
            ],
            "min" : [
                -0.32743462920188904,
                -0.023246699944138527,
                0.6153029799461365
            ],
            "type" : "VEC3"
        },
        {
            "bufferView" : 18,
            "componentType" : 5126,
            "count" : 724,
            "type" : "VEC3"
        },
        {
            "bufferView" : 19,
            "componentType" : 5126,
            "count" : 724,
            "type" : "VEC2"
        },
        {
            "bufferView" : 20,
            "componentType" : 5123,
            "count" : 2880,
            "type" : "SCALAR"
        },
        {
            "bufferView" : 21,
            "componentType" : 5126,
            "count" : 310,
            "max" : [
                0.2981928288936615,
                -0.33632922172546387,
                0.6894372701644897
            ],
            "min" : [
                -0.29782000184059143,
                -0.4972185492515564,
                0.6528762578964233
            ],
            "type" : "VEC3"
        },
        {
            "bufferView" : 22,
            "componentType" : 5126,
            "count" : 310,
            "type" : "VEC3"
        },
        {
            "bufferView" : 23,
            "componentType" : 5126,
            "count" : 310,
            "type" : "VEC2"
        },
        {
            "bufferView" : 24,
            "componentType" : 5123,
            "count" : 876,
            "type" : "SCALAR"
        },
        {
            "bufferView" : 25,
            "componentType" : 5126,
            "count" : 672,
            "max" : [
                0.37729889154434204,
                -0.1023353785276413,
                0.6847929358482361
            ],
            "min" : [
                -0.37729889154434204,
                -0.2807703912258148,
                0.6525783538818359
            ],
            "type" : "VEC3"
        },
        {
            "bufferView" : 26,
            "componentType" : 5126,
            "count" : 672,
            "type" : "VEC3"
        },
        {
            "bufferView" : 27,
            "componentType" : 5126,
            "count" : 672,
            "type" : "VEC2"
        },
        {
            "bufferView" : 28,
            "componentType" : 5123,
            "count" : 2520,
            "type" : "SCALAR"
        },
        {
            "bufferView" : 29,
            "componentType" : 5126,
            "count" : 120,
            "max" : [
                0.08997084200382233,
                -0.40266352891921997,
                0.6948416829109192
            ],
            "min" : [
                -0.0895979106426239,
                -0.6786081194877625,
                0.6617498397827148
            ],
            "type" : "VEC3"
        },
        {
            "bufferView" : 30,
            "componentType" : 5126,
            "count" : 120,
            "type" : "VEC3"
        },
        {
            "bufferView" : 31,
            "componentType" : 5126,
            "count" : 120,
            "type" : "VEC2"
        },
        {
            "bufferView" : 32,
            "componentType" : 5123,
            "count" : 216,
            "type" : "SCALAR"
        },
        {
            "bufferView" : 33,
            "componentType" : 5126,
            "count" : 752,
            "max" : [
                0.10558294504880905,
                0.006460621953010559,
                -0.16799916326999664
            ],
            "min" : [
                -0.12294521927833557,
                -0.055066194385290146,
                -0.1761314868927002
            ],
            "type" : "VEC3"
        },
        {
            "bufferView" : 34,
            "componentType" : 5126,
            "count" : 752,
            "type" : "VEC3"
        },
        {
            "bufferView" : 35,
            "componentType" : 5126,
            "count" : 752,
            "type" : "VEC2"
        },
        {
            "bufferView" : 36,
            "componentType" : 5123,
            "count" : 1680,
            "type" : "SCALAR"
        }
    ],
    "bufferViews" : [
        {
            "buffer" : 0,
            "byteLength" : 9024,
            "byteOffset" : 0
        },
        {
            "buffer" : 0,
            "byteLength" : 9024,
            "byteOffset" : 9024
        },
        {
            "buffer" : 0,
            "byteLength" : 6016,
            "byteOffset" : 18048
        },
        {
            "buffer" : 0,
            "byteLength" : 3360,
            "byteOffset" : 24064
        },
        {
            "buffer" : 0,
            "byteLength" : 11997,
            "byteOffset" : 27424
        },
        {
            "buffer" : 0,
            "byteLength" : 4392,
            "byteOffset" : 39424
        },
        {
            "buffer" : 0,
            "byteLength" : 4392,
            "byteOffset" : 43816
        },
        {
            "buffer" : 0,
            "byteLength" : 2928,
            "byteOffset" : 48208
        },
        {
            "buffer" : 0,
            "byteLength" : 4056,
            "byteOffset" : 51136
        },
        {
            "buffer" : 0,
            "byteLength" : 1296,
            "byteOffset" : 55192
        },
        {
            "buffer" : 0,
            "byteLength" : 1296,
            "byteOffset" : 56488
        },
        {
            "buffer" : 0,
            "byteLength" : 864,
            "byteOffset" : 57784
        },
        {
            "buffer" : 0,
            "byteLength" : 1272,
            "byteOffset" : 58648
        },
        {
            "buffer" : 0,
            "byteLength" : 2400,
            "byteOffset" : 59920
        },
        {
            "buffer" : 0,
            "byteLength" : 2400,
            "byteOffset" : 62320
        },
        {
            "buffer" : 0,
            "byteLength" : 1600,
            "byteOffset" : 64720
        },
        {
            "buffer" : 0,
            "byteLength" : 1152,
            "byteOffset" : 66320
        },
        {
            "buffer" : 0,
            "byteLength" : 8688,
            "byteOffset" : 67472
        },
        {
            "buffer" : 0,
            "byteLength" : 8688,
            "byteOffset" : 76160
        },
        {
            "buffer" : 0,
            "byteLength" : 5792,
            "byteOffset" : 84848
        },
        {
            "buffer" : 0,
            "byteLength" : 5760,
            "byteOffset" : 90640
        },
        {
            "buffer" : 0,
            "byteLength" : 3720,
            "byteOffset" : 96400
        },
        {
            "buffer" : 0,
            "byteLength" : 3720,
            "byteOffset" : 100120
        },
        {
            "buffer" : 0,
            "byteLength" : 2480,
            "byteOffset" : 103840
        },
        {
            "buffer" : 0,
            "byteLength" : 1752,
            "byteOffset" : 106320
        },
        {
            "buffer" : 0,
            "byteLength" : 8064,
            "byteOffset" : 108072
        },
        {
            "buffer" : 0,
            "byteLength" : 8064,
            "byteOffset" : 116136
        },
        {
            "buffer" : 0,
            "byteLength" : 5376,
            "byteOffset" : 124200
        },
        {
            "buffer" : 0,
            "byteLength" : 5040,
            "byteOffset" : 129576
        },
        {
            "buffer" : 0,
            "byteLength" : 1440,
            "byteOffset" : 134616
        },
        {
            "buffer" : 0,
            "byteLength" : 1440,
            "byteOffset" : 136056
        },
        {
            "buffer" : 0,
            "byteLength" : 960,
            "byteOffset" : 137496
        },
        {
            "buffer" : 0,
            "byteLength" : 432,
            "byteOffset" : 138456
        },
        {
            "buffer" : 0,
            "byteLength" : 9024,
            "byteOffset" : 138888
        },
        {
            "buffer" : 0,
            "byteLength" : 9024,
            "byteOffset" : 147912
        },
        {
            "buffer" : 0,
            "byteLength" : 6016,
            "byteOffset" : 156936
        },
        {
            "buffer" : 0,
            "byteLength" : 3360,
            "byteOffset" : 162952
        }
    ],
    "samplers" : [
        {
            "magFilter" : 9729,
            "minFilter" : 9987
        }
    ],
    "buffers" : [
        {
            "byteLength" : 166312,
            "uri" : "data:application/octet-stream;base64,"
        }
    ]
}
