{
    "asset" : {
        "copyright" : "Jeremy Edelblut",
        "generator" : "Khronos glTF Blender I/O v1.7.33",
        "version" : "2.0"
    },
    "scene" : 0,
    "scenes" : [
        {
            "name" : "Scene",
            "nodes" : [
                0
            ]
        }
    ],
    "nodes" : [
        {
            "mesh" : 0,
            "name" : "Circle.2553"
        }
    ],
    "materials" : [
        {
            "doubleSided" : true,
            "emissiveFactor" : [
                0.20000000298023224,
                0.20000000298023224,
                0.20000000298023224
            ],
            "emissiveTexture" : {
                "index" : 0
            },
            "name" : "color",
            "pbrMetallicRoughness" : {
                "baseColorTexture" : {
                    "index" : 1
                },
                "metallicFactor" : 0,
                "roughnessFactor" : 0.5
            }
        },
        {
            "alphaMode" : "BLEND",
            "doubleSided" : true,
            "emissiveFactor" : [
                0.05000000074505806,
                0.05000000074505806,
                0.05000000074505806
            ],
            "name" : "transparent",
            "pbrMetallicRoughness" : {
                "baseColorFactor" : [
                    0.9072647094726562,
                    0.9472811222076416,
                    1,
                    0.10000000149011612
                ],
                "metallicFactor" : 0,
                "roughnessFactor" : 0.05000000447034836
            }
        }
    ],
    "meshes" : [
        {
            "name" : "Circle.3198",
            "primitives" : [
                {
                    "attributes" : {
                        "POSITION" : 0,
                        "NORMAL" : 1,
                        "TEXCOORD_0" : 2
                    },
                    "indices" : 3,
                    "material" : 0
                },
                {
                    "attributes" : {
                        "POSITION" : 4,
                        "NORMAL" : 5,
                        "TEXCOORD_0" : 6
                    },
                    "indices" : 7,
                    "material" : 1
                }
            ]
        }
    ],
    "textures" : [
        {
            "sampler" : 0,
            "source" : 0
        },
        {
            "sampler" : 0,
            "source" : 0
        }
    ],
    "images" : [
        {
            "bufferView" : 4,
            "mimeType" : "image/png",
            "name" : "tex"
        }
    ],
    "accessors" : [
        {
            "bufferView" : 0,
            "componentType" : 5126,
            "count" : 1032,
            "max" : [
                1.100000023841858,
                1.100000023841858,
                4.8082526404868986e-08
            ],
            "min" : [
                -1.100000023841858,
                -1.100000023841858,
                -0.024242490530014038
            ],
            "type" : "VEC3"
        },
        {
            "bufferView" : 1,
            "componentType" : 5126,
            "count" : 1032,
            "type" : "VEC3"
        },
        {
            "bufferView" : 2,
            "componentType" : 5126,
            "count" : 1032,
            "type" : "VEC2"
        },
        {
            "bufferView" : 3,
            "componentType" : 5123,
            "count" : 1944,
            "type" : "SCALAR"
        },
        {
            "bufferView" : 5,
            "componentType" : 5126,
            "count" : 384,
            "max" : [
                0.3866731822490692,
                0.3866731822490692,
                1.6902022892395507e-08
            ],
            "min" : [
                -0.3866731822490692,
                -0.3866731822490692,
                -0.022000016644597054
            ],
            "type" : "VEC3"
        },
        {
            "bufferView" : 6,
            "componentType" : 5126,
            "count" : 384,
            "type" : "VEC3"
        },
        {
            "bufferView" : 7,
            "componentType" : 5126,
            "count" : 384,
            "type" : "VEC2"
        },
        {
            "bufferView" : 8,
            "componentType" : 5123,
            "count" : 576,
            "type" : "SCALAR"
        }
    ],
    "bufferViews" : [
        {
            "buffer" : 0,
            "byteLength" : 12384,
            "byteOffset" : 0
        },
        {
            "buffer" : 0,
            "byteLength" : 12384,
            "byteOffset" : 12384
        },
        {
            "buffer" : 0,
            "byteLength" : 8256,
            "byteOffset" : 24768
        },
        {
            "buffer" : 0,
            "byteLength" : 3888,
            "byteOffset" : 33024
        },
        {
            "buffer" : 0,
            "byteLength" : 11997,
            "byteOffset" : 36912
        },
        {
            "buffer" : 0,
            "byteLength" : 4608,
            "byteOffset" : 48912
        },
        {
            "buffer" : 0,
            "byteLength" : 4608,
            "byteOffset" : 53520
        },
        {
            "buffer" : 0,
            "byteLength" : 3072,
            "byteOffset" : 58128
        },
        {
            "buffer" : 0,
            "byteLength" : 1152,
            "byteOffset" : 61200
        }
    ],
    "samplers" : [
        {
            "magFilter" : 9729,
            "minFilter" : 9987
        }
    ],
    "buffers" : [
        {
            "byteLength" : 62352,
            "uri" : "data:application/octet-stream;base64,"
        }
    ]
}
