{
    "asset" : {
        "copyright" : "Jeremy Edelblut",
        "generator" : "Khronos glTF Blender I/O v1.7.33",
        "version" : "2.0"
    },
    "scene" : 0,
    "scenes" : [
        {
            "name" : "Scene",
            "nodes" : [
                0
            ]
        }
    ],
    "nodes" : [
        {
            "mesh" : 0,
            "name" : "flag_vatican_city"
        }
    ],
    "materials" : [
        {
            "doubleSided" : true,
            "name" : "color",
            "pbrMetallicRoughness" : {
                "baseColorTexture" : {
                    "index" : 0
                },
                "metallicFactor" : 0,
                "roughnessFactor" : 0.5
            }
        },
        {
            "doubleSided" : true,
            "name" : "color.064",
            "pbrMetallicRoughness" : {
                "baseColorTexture" : {
                    "index" : 1
                },
                "metallicFactor" : 0,
                "roughnessFactor" : 0.5
            }
        }
    ],
    "meshes" : [
        {
            "name" : "Plane.628",
            "primitives" : [
                {
                    "attributes" : {
                        "POSITION" : 0,
                        "NORMAL" : 1,
                        "TEXCOORD_0" : 2
                    },
                    "indices" : 3,
                    "material" : 0
                },
                {
                    "attributes" : {
                        "POSITION" : 4,
                        "NORMAL" : 5,
                        "TEXCOORD_0" : 6
                    },
                    "indices" : 7,
                    "material" : 1
                }
            ]
        }
    ],
    "textures" : [
        {
            "sampler" : 0,
            "source" : 0
        },
        {
            "sampler" : 0,
            "source" : 0
        }
    ],
    "images" : [
        {
            "bufferView" : 4,
            "mimeType" : "image/png",
            "name" : "tex"
        }
    ],
    "accessors" : [
        {
            "bufferView" : 0,
            "componentType" : 5126,
            "count" : 8363,
            "max" : [
                0.4644052982330322,
                0.7757099270820618,
                0.16157391667366028
            ],
            "min" : [
                -1.0895172357559204,
                -0.8024955987930298,
                -0.171031653881073
            ],
            "type" : "VEC3"
        },
        {
            "bufferView" : 1,
            "componentType" : 5126,
            "count" : 8363,
            "type" : "VEC3"
        },
        {
            "bufferView" : 2,
            "componentType" : 5126,
            "count" : 8363,
            "type" : "VEC2"
        },
        {
            "bufferView" : 3,
            "componentType" : 5123,
            "count" : 24564,
            "type" : "SCALAR"
        },
        {
            "bufferView" : 5,
            "componentType" : 5126,
            "count" : 648,
            "max" : [
                -0.9406864047050476,
                -0.6562423706054688,
                0.0742403119802475
            ],
            "min" : [
                -1.0870933532714844,
                -0.7064183950424194,
                0.017222469672560692
            ],
            "type" : "VEC3"
        },
        {
            "bufferView" : 6,
            "componentType" : 5126,
            "count" : 648,
            "type" : "VEC3"
        },
        {
            "bufferView" : 7,
            "componentType" : 5126,
            "count" : 648,
            "type" : "VEC2"
        },
        {
            "bufferView" : 8,
            "componentType" : 5123,
            "count" : 1368,
            "type" : "SCALAR"
        }
    ],
    "bufferViews" : [
        {
            "buffer" : 0,
            "byteLength" : 100356,
            "byteOffset" : 0
        },
        {
            "buffer" : 0,
            "byteLength" : 100356,
            "byteOffset" : 100356
        },
        {
            "buffer" : 0,
            "byteLength" : 66904,
            "byteOffset" : 200712
        },
        {
            "buffer" : 0,
            "byteLength" : 49128,
            "byteOffset" : 267616
        },
        {
            "buffer" : 0,
            "byteLength" : 11997,
            "byteOffset" : 316744
        },
        {
            "buffer" : 0,
            "byteLength" : 7776,
            "byteOffset" : 328744
        },
        {
            "buffer" : 0,
            "byteLength" : 7776,
            "byteOffset" : 336520
        },
        {
            "buffer" : 0,
            "byteLength" : 5184,
            "byteOffset" : 344296
        },
        {
            "buffer" : 0,
            "byteLength" : 2736,
            "byteOffset" : 349480
        }
    ],
    "samplers" : [
        {
            "magFilter" : 9729,
            "minFilter" : 9987
        }
    ],
    "buffers" : [
        {
            "byteLength" : 352216,
            "uri" : "data:application/octet-stream;base64,"
        }
    ]
}
