{
    "asset" : {
        "copyright" : "Jeremy Edelblut",
        "generator" : "Khronos glTF Blender I/O v1.7.33",
        "version" : "2.0"
    },
    "scene" : 1,
    "scenes" : [
        {
            "name" : "FBX_Temp",
            "nodes" : [
                0
            ]
        },
        {
            "name" : "Scene",
            "nodes" : [
                1,
                2,
                3,
                4,
                5,
                6,
                7,
                8,
                9
            ]
        }
    ],
    "nodes" : [
        {
            "mesh" : 0,
            "name" : "3moji.064",
            "rotation" : [
                0,
                -0.7071068286895752,
                0,
                0.7071068286895752
            ]
        },
        {
            "mesh" : 1,
            "name" : "Circle.1860"
        },
        {
            "mesh" : 2,
            "name" : "Cube.6201"
        },
        {
            "mesh" : 3,
            "name" : "Circle.1862"
        },
        {
            "mesh" : 4,
            "name" : "Cube.6202"
        },
        {
            "mesh" : 5,
            "name" : "Circle.1864"
        },
        {
            "mesh" : 6,
            "name" : "Cube.6268"
        },
        {
            "mesh" : 7,
            "name" : "Cube.6269"
        },
        {
            "mesh" : 8,
            "name" : "Cube.6270"
        },
        {
            "mesh" : 9,
            "name" : "3moji.org.198"
        }
    ],
    "materials" : [
        {
            "doubleSided" : true,
            "name" : "color",
            "pbrMetallicRoughness" : {
                "baseColorTexture" : {
                    "index" : 0
                },
                "metallicFactor" : 0,
                "roughnessFactor" : 0.5
            }
        }
    ],
    "meshes" : [
        {
            "name" : "Cube.417",
            "primitives" : [
                {
                    "attributes" : {
                        "POSITION" : 0,
                        "NORMAL" : 1,
                        "TEXCOORD_0" : 2
                    },
                    "indices" : 3,
                    "material" : 0
                }
            ]
        },
        {
            "name" : "Circle.2073",
            "primitives" : [
                {
                    "attributes" : {
                        "POSITION" : 4,
                        "NORMAL" : 5,
                        "TEXCOORD_0" : 6
                    },
                    "indices" : 7,
                    "material" : 0
                }
            ]
        },
        {
            "name" : "Cube.7253",
            "primitives" : [
                {
                    "attributes" : {
                        "POSITION" : 8,
                        "NORMAL" : 9,
                        "TEXCOORD_0" : 10
                    },
                    "indices" : 11,
                    "material" : 0
                }
            ]
        },
        {
            "name" : "Circle.2075",
            "primitives" : [
                {
                    "attributes" : {
                        "POSITION" : 12,
                        "NORMAL" : 13,
                        "TEXCOORD_0" : 14
                    },
                    "indices" : 15,
                    "material" : 0
                }
            ]
        },
        {
            "name" : "Cube.7254",
            "primitives" : [
                {
                    "attributes" : {
                        "POSITION" : 16,
                        "NORMAL" : 17,
                        "TEXCOORD_0" : 18
                    },
                    "indices" : 19,
                    "material" : 0
                }
            ]
        },
        {
            "name" : "Circle.2078",
            "primitives" : [
                {
                    "attributes" : {
                        "POSITION" : 20,
                        "NORMAL" : 21,
                        "TEXCOORD_0" : 22
                    },
                    "indices" : 23,
                    "material" : 0
                }
            ]
        },
        {
            "name" : "Cube.7328",
            "primitives" : [
                {
                    "attributes" : {
                        "POSITION" : 24,
                        "NORMAL" : 25,
                        "TEXCOORD_0" : 26
                    },
                    "indices" : 27,
                    "material" : 0
                }
            ]
        },
        {
            "name" : "Cube.7329",
            "primitives" : [
                {
                    "attributes" : {
                        "POSITION" : 28,
                        "NORMAL" : 29,
                        "TEXCOORD_0" : 30
                    },
                    "indices" : 31,
                    "material" : 0
                }
            ]
        },
        {
            "name" : "Cube.7330",
            "primitives" : [
                {
                    "attributes" : {
                        "POSITION" : 32,
                        "NORMAL" : 33,
                        "TEXCOORD_0" : 34
                    },
                    "indices" : 35,
                    "material" : 0
                }
            ]
        },
        {
            "name" : "Cube.655",
            "primitives" : [
                {
                    "attributes" : {
                        "POSITION" : 36,
                        "NORMAL" : 37,
                        "TEXCOORD_0" : 38
                    },
                    "indices" : 39,
                    "material" : 0
                }
            ]
        }
    ],
    "textures" : [
        {
            "sampler" : 0,
            "source" : 0
        }
    ],
    "images" : [
        {
            "bufferView" : 4,
            "mimeType" : "image/png",
            "name" : "tex"
        }
    ],
    "accessors" : [
        {
            "bufferView" : 0,
            "componentType" : 5126,
            "count" : 752,
            "max" : [
                -0.8264395594596863,
                0.05719918757677078,
                0.13795676827430725
            ],
            "min" : [
                -0.8543609976768494,
                -0.014034310355782509,
                -0.12436223030090332
            ],
            "type" : "VEC3"
        },
        {
            "bufferView" : 1,
            "componentType" : 5126,
            "count" : 752,
            "type" : "VEC3"
        },
        {
            "bufferView" : 2,
            "componentType" : 5126,
            "count" : 752,
            "type" : "VEC2"
        },
        {
            "bufferView" : 3,
            "componentType" : 5123,
            "count" : 1680,
            "type" : "SCALAR"
        },
        {
            "bufferView" : 5,
            "componentType" : 5126,
            "count" : 644,
            "max" : [
                0.34936773777008057,
                0.3248949348926544,
                0.6325944662094116
            ],
            "min" : [
                -0.34936773777008057,
                0.09757988154888153,
                0.5169548392295837
            ],
            "type" : "VEC3"
        },
        {
            "bufferView" : 6,
            "componentType" : 5126,
            "count" : 644,
            "type" : "VEC3"
        },
        {
            "bufferView" : 7,
            "componentType" : 5126,
            "count" : 644,
            "type" : "VEC2"
        },
        {
            "bufferView" : 8,
            "componentType" : 5123,
            "count" : 2880,
            "type" : "SCALAR"
        },
        {
            "bufferView" : 9,
            "componentType" : 5126,
            "count" : 740,
            "max" : [
                0.6788773536682129,
                0.773169994354248,
                0.20581313967704773
            ],
            "min" : [
                -0.6788773536682129,
                0.19348761439323425,
                -0.03333784639835358
            ],
            "type" : "VEC3"
        },
        {
            "bufferView" : 10,
            "componentType" : 5126,
            "count" : 740,
            "type" : "VEC3"
        },
        {
            "bufferView" : 11,
            "componentType" : 5126,
            "count" : 740,
            "type" : "VEC2"
        },
        {
            "bufferView" : 12,
            "componentType" : 5123,
            "count" : 3504,
            "type" : "SCALAR"
        },
        {
            "bufferView" : 13,
            "componentType" : 5126,
            "count" : 2028,
            "max" : [
                0.43829426169395447,
                0.0158035047352314,
                0.6298218369483948
            ],
            "min" : [
                -0.43829426169395447,
                -0.12115824967622757,
                0.524974524974823
            ],
            "type" : "VEC3"
        },
        {
            "bufferView" : 14,
            "componentType" : 5126,
            "count" : 2028,
            "type" : "VEC3"
        },
        {
            "bufferView" : 15,
            "componentType" : 5126,
            "count" : 2028,
            "type" : "VEC2"
        },
        {
            "bufferView" : 16,
            "componentType" : 5123,
            "count" : 8640,
            "type" : "SCALAR"
        },
        {
            "bufferView" : 17,
            "componentType" : 5126,
            "count" : 241,
            "max" : [
                0.7357262969017029,
                0.681674063205719,
                0.6791238188743591
            ],
            "min" : [
                -0.7357262969017029,
                -0.5768341422080994,
                -0.12751001119613647
            ],
            "type" : "VEC3"
        },
        {
            "bufferView" : 18,
            "componentType" : 5126,
            "count" : 241,
            "type" : "VEC3"
        },
        {
            "bufferView" : 19,
            "componentType" : 5126,
            "count" : 241,
            "type" : "VEC2"
        },
        {
            "bufferView" : 20,
            "componentType" : 5123,
            "count" : 1344,
            "type" : "SCALAR"
        },
        {
            "bufferView" : 21,
            "componentType" : 5126,
            "count" : 344,
            "max" : [
                1.222038745880127,
                1.046444296836853,
                0.19973495602607727
            ],
            "min" : [
                -1.3044443130493164,
                -1.0310770273208618,
                -0.3924882411956787
            ],
            "type" : "VEC3"
        },
        {
            "bufferView" : 22,
            "componentType" : 5126,
            "count" : 344,
            "type" : "VEC3"
        },
        {
            "bufferView" : 23,
            "componentType" : 5126,
            "count" : 344,
            "type" : "VEC2"
        },
        {
            "bufferView" : 24,
            "componentType" : 5123,
            "count" : 924,
            "type" : "SCALAR"
        },
        {
            "bufferView" : 25,
            "componentType" : 5126,
            "count" : 209,
            "max" : [
                0.26118963956832886,
                0.14375051856040955,
                0.8758490085601807
            ],
            "min" : [
                -0.26118963956832886,
                -0.2568640410900116,
                0.5495045185089111
            ],
            "type" : "VEC3"
        },
        {
            "bufferView" : 26,
            "componentType" : 5126,
            "count" : 209,
            "type" : "VEC3"
        },
        {
            "bufferView" : 27,
            "componentType" : 5126,
            "count" : 209,
            "type" : "VEC2"
        },
        {
            "bufferView" : 28,
            "componentType" : 5123,
            "count" : 1152,
            "type" : "SCALAR"
        },
        {
            "bufferView" : 29,
            "componentType" : 5126,
            "count" : 79,
            "max" : [
                0.13488665223121643,
                -0.19729861617088318,
                0.7609595656394958
            ],
            "min" : [
                -0.1348867118358612,
                -0.3076913058757782,
                0.5930221676826477
            ],
            "type" : "VEC3"
        },
        {
            "bufferView" : 30,
            "componentType" : 5126,
            "count" : 79,
            "type" : "VEC3"
        },
        {
            "bufferView" : 31,
            "componentType" : 5126,
            "count" : 79,
            "type" : "VEC2"
        },
        {
            "bufferView" : 32,
            "componentType" : 5123,
            "count" : 384,
            "type" : "SCALAR"
        },
        {
            "bufferView" : 33,
            "componentType" : 5126,
            "count" : 386,
            "max" : [
                0.10969036817550659,
                0.07718382775783539,
                0.8882778286933899
            ],
            "min" : [
                -0.10969050228595734,
                -0.09683971107006073,
                0.7819024324417114
            ],
            "type" : "VEC3"
        },
        {
            "bufferView" : 34,
            "componentType" : 5126,
            "count" : 386,
            "type" : "VEC3"
        },
        {
            "bufferView" : 35,
            "componentType" : 5126,
            "count" : 386,
            "type" : "VEC2"
        },
        {
            "bufferView" : 36,
            "componentType" : 5123,
            "count" : 2304,
            "type" : "SCALAR"
        },
        {
            "bufferView" : 37,
            "componentType" : 5126,
            "count" : 752,
            "max" : [
                0.10233466327190399,
                0.07122665643692017,
                -0.2383134961128235
            ],
            "min" : [
                -0.1191864013671875,
                0.011225806549191475,
                -0.258111834526062
            ],
            "type" : "VEC3"
        },
        {
            "bufferView" : 38,
            "componentType" : 5126,
            "count" : 752,
            "type" : "VEC3"
        },
        {
            "bufferView" : 39,
            "componentType" : 5126,
            "count" : 752,
            "type" : "VEC2"
        },
        {
            "bufferView" : 40,
            "componentType" : 5123,
            "count" : 1680,
            "type" : "SCALAR"
        }
    ],
    "bufferViews" : [
        {
            "buffer" : 0,
            "byteLength" : 9024,
            "byteOffset" : 0
        },
        {
            "buffer" : 0,
            "byteLength" : 9024,
            "byteOffset" : 9024
        },
        {
            "buffer" : 0,
            "byteLength" : 6016,
            "byteOffset" : 18048
        },
        {
            "buffer" : 0,
            "byteLength" : 3360,
            "byteOffset" : 24064
        },
        {
            "buffer" : 0,
            "byteLength" : 11997,
            "byteOffset" : 27424
        },
        {
            "buffer" : 0,
            "byteLength" : 7728,
            "byteOffset" : 39424
        },
        {
            "buffer" : 0,
            "byteLength" : 7728,
            "byteOffset" : 47152
        },
        {
            "buffer" : 0,
            "byteLength" : 5152,
            "byteOffset" : 54880
        },
        {
            "buffer" : 0,
            "byteLength" : 5760,
            "byteOffset" : 60032
        },
        {
            "buffer" : 0,
            "byteLength" : 8880,
            "byteOffset" : 65792
        },
        {
            "buffer" : 0,
            "byteLength" : 8880,
            "byteOffset" : 74672
        },
        {
            "buffer" : 0,
            "byteLength" : 5920,
            "byteOffset" : 83552
        },
        {
            "buffer" : 0,
            "byteLength" : 7008,
            "byteOffset" : 89472
        },
        {
            "buffer" : 0,
            "byteLength" : 24336,
            "byteOffset" : 96480
        },
        {
            "buffer" : 0,
            "byteLength" : 24336,
            "byteOffset" : 120816
        },
        {
            "buffer" : 0,
            "byteLength" : 16224,
            "byteOffset" : 145152
        },
        {
            "buffer" : 0,
            "byteLength" : 17280,
            "byteOffset" : 161376
        },
        {
            "buffer" : 0,
            "byteLength" : 2892,
            "byteOffset" : 178656
        },
        {
            "buffer" : 0,
            "byteLength" : 2892,
            "byteOffset" : 181548
        },
        {
            "buffer" : 0,
            "byteLength" : 1928,
            "byteOffset" : 184440
        },
        {
            "buffer" : 0,
            "byteLength" : 2688,
            "byteOffset" : 186368
        },
        {
            "buffer" : 0,
            "byteLength" : 4128,
            "byteOffset" : 189056
        },
        {
            "buffer" : 0,
            "byteLength" : 4128,
            "byteOffset" : 193184
        },
        {
            "buffer" : 0,
            "byteLength" : 2752,
            "byteOffset" : 197312
        },
        {
            "buffer" : 0,
            "byteLength" : 1848,
            "byteOffset" : 200064
        },
        {
            "buffer" : 0,
            "byteLength" : 2508,
            "byteOffset" : 201912
        },
        {
            "buffer" : 0,
            "byteLength" : 2508,
            "byteOffset" : 204420
        },
        {
            "buffer" : 0,
            "byteLength" : 1672,
            "byteOffset" : 206928
        },
        {
            "buffer" : 0,
            "byteLength" : 2304,
            "byteOffset" : 208600
        },
        {
            "buffer" : 0,
            "byteLength" : 948,
            "byteOffset" : 210904
        },
        {
            "buffer" : 0,
            "byteLength" : 948,
            "byteOffset" : 211852
        },
        {
            "buffer" : 0,
            "byteLength" : 632,
            "byteOffset" : 212800
        },
        {
            "buffer" : 0,
            "byteLength" : 768,
            "byteOffset" : 213432
        },
        {
            "buffer" : 0,
            "byteLength" : 4632,
            "byteOffset" : 214200
        },
        {
            "buffer" : 0,
            "byteLength" : 4632,
            "byteOffset" : 218832
        },
        {
            "buffer" : 0,
            "byteLength" : 3088,
            "byteOffset" : 223464
        },
        {
            "buffer" : 0,
            "byteLength" : 4608,
            "byteOffset" : 226552
        },
        {
            "buffer" : 0,
            "byteLength" : 9024,
            "byteOffset" : 231160
        },
        {
            "buffer" : 0,
            "byteLength" : 9024,
            "byteOffset" : 240184
        },
        {
            "buffer" : 0,
            "byteLength" : 6016,
            "byteOffset" : 249208
        },
        {
            "buffer" : 0,
            "byteLength" : 3360,
            "byteOffset" : 255224
        }
    ],
    "samplers" : [
        {
            "magFilter" : 9729,
            "minFilter" : 9987
        }
    ],
    "buffers" : [
        {
            "byteLength" : 258584,
            "uri" : "data:application/octet-stream;base64,"
        }
    ]
}
