{
    "asset" : {
        "copyright" : "Jeremy Edelblut",
        "generator" : "Khronos glTF Blender I/O v1.7.33",
        "version" : "2.0"
    },
    "scene" : 0,
    "scenes" : [
        {
            "name" : "Scene",
            "nodes" : [
                0,
                1,
                2,
                3,
                4,
                5,
                6
            ]
        }
    ],
    "nodes" : [
        {
            "mesh" : 0,
            "name" : "Circle.367"
        },
        {
            "mesh" : 1,
            "name" : "Circle.368"
        },
        {
            "mesh" : 2,
            "name" : "Roundcube.028"
        },
        {
            "mesh" : 3,
            "name" : "Circle.369"
        },
        {
            "mesh" : 4,
            "name" : "Cube.389"
        },
        {
            "mesh" : 5,
            "name" : "Circle.370"
        },
        {
            "mesh" : 6,
            "name" : "ears.024"
        }
    ],
    "materials" : [
        {
            "doubleSided" : true,
            "emissiveFactor" : [
                0.20000000298023224,
                0.20000000298023224,
                0.20000000298023224
            ],
            "emissiveTexture" : {
                "index" : 0
            },
            "name" : "color",
            "pbrMetallicRoughness" : {
                "baseColorTexture" : {
                    "index" : 1
                },
                "metallicFactor" : 0,
                "roughnessFactor" : 0.5
            }
        },
        {
            "doubleSided" : true,
            "emissiveFactor" : [
                0.20000000298023224,
                0.20000000298023224,
                0.20000000298023224
            ],
            "emissiveTexture" : {
                "index" : 2
            },
            "name" : "skin_tone_one",
            "pbrMetallicRoughness" : {
                "baseColorTexture" : {
                    "index" : 3
                },
                "metallicFactor" : 0,
                "roughnessFactor" : 0.5
            }
        }
    ],
    "meshes" : [
        {
            "name" : "Circle.398",
            "primitives" : [
                {
                    "attributes" : {
                        "POSITION" : 0,
                        "NORMAL" : 1,
                        "TEXCOORD_0" : 2
                    },
                    "indices" : 3,
                    "material" : 0
                }
            ]
        },
        {
            "name" : "Circle.399",
            "primitives" : [
                {
                    "attributes" : {
                        "POSITION" : 4,
                        "NORMAL" : 5,
                        "TEXCOORD_0" : 6
                    },
                    "indices" : 7,
                    "material" : 1
                }
            ]
        },
        {
            "name" : "Roundcube.029",
            "primitives" : [
                {
                    "attributes" : {
                        "POSITION" : 8,
                        "NORMAL" : 9,
                        "TEXCOORD_0" : 10
                    },
                    "indices" : 11,
                    "material" : 0
                },
                {
                    "attributes" : {
                        "POSITION" : 12,
                        "NORMAL" : 13,
                        "TEXCOORD_0" : 14
                    },
                    "indices" : 15,
                    "material" : 1
                }
            ]
        },
        {
            "name" : "Circle.400",
            "primitives" : [
                {
                    "attributes" : {
                        "POSITION" : 16,
                        "NORMAL" : 17,
                        "TEXCOORD_0" : 18
                    },
                    "indices" : 19,
                    "material" : 0
                }
            ]
        },
        {
            "name" : "Cube.470",
            "primitives" : [
                {
                    "attributes" : {
                        "POSITION" : 20,
                        "NORMAL" : 21,
                        "TEXCOORD_0" : 22
                    },
                    "indices" : 23,
                    "material" : 0
                }
            ]
        },
        {
            "name" : "Circle.401",
            "primitives" : [
                {
                    "attributes" : {
                        "POSITION" : 24,
                        "NORMAL" : 25,
                        "TEXCOORD_0" : 26
                    },
                    "indices" : 27,
                    "material" : 0
                }
            ]
        },
        {
            "name" : "Cylinder.275",
            "primitives" : [
                {
                    "attributes" : {
                        "POSITION" : 28,
                        "NORMAL" : 29,
                        "TEXCOORD_0" : 30
                    },
                    "indices" : 31,
                    "material" : 1
                }
            ]
        }
    ],
    "textures" : [
        {
            "sampler" : 0,
            "source" : 0
        },
        {
            "sampler" : 0,
            "source" : 0
        },
        {
            "sampler" : 0,
            "source" : 0
        },
        {
            "sampler" : 0,
            "source" : 0
        }
    ],
    "images" : [
        {
            "bufferView" : 4,
            "mimeType" : "image/png",
            "name" : "tex"
        }
    ],
    "accessors" : [
        {
            "bufferView" : 0,
            "componentType" : 5126,
            "count" : 452,
            "max" : [
                0.3486279845237732,
                0.14658872783184052,
                0.5699412822723389
            ],
            "min" : [
                -0.3486279845237732,
                -0.0976829081773758,
                0.4864935278892517
            ],
            "type" : "VEC3"
        },
        {
            "bufferView" : 1,
            "componentType" : 5126,
            "count" : 452,
            "type" : "VEC3"
        },
        {
            "bufferView" : 2,
            "componentType" : 5126,
            "count" : 452,
            "type" : "VEC2"
        },
        {
            "bufferView" : 3,
            "componentType" : 5123,
            "count" : 1920,
            "type" : "SCALAR"
        },
        {
            "bufferView" : 5,
            "componentType" : 5126,
            "count" : 142,
            "max" : [
                0.06850441545248032,
                -0.10941692441701889,
                0.5844484567642212
            ],
            "min" : [
                -0.06649326533079147,
                -0.1864621490240097,
                0.5657142996788025
            ],
            "type" : "VEC3"
        },
        {
            "bufferView" : 6,
            "componentType" : 5126,
            "count" : 142,
            "type" : "VEC3"
        },
        {
            "bufferView" : 7,
            "componentType" : 5126,
            "count" : 142,
            "type" : "VEC2"
        },
        {
            "bufferView" : 8,
            "componentType" : 5123,
            "count" : 528,
            "type" : "SCALAR"
        },
        {
            "bufferView" : 9,
            "componentType" : 5126,
            "count" : 491,
            "max" : [
                0.7119854092597961,
                0.7037864923477173,
                0.4926007390022278
            ],
            "min" : [
                -0.7119317650794983,
                -0.42757448554039,
                -0.9389863610267639
            ],
            "type" : "VEC3"
        },
        {
            "bufferView" : 10,
            "componentType" : 5126,
            "count" : 491,
            "type" : "VEC3"
        },
        {
            "bufferView" : 11,
            "componentType" : 5126,
            "count" : 491,
            "type" : "VEC2"
        },
        {
            "bufferView" : 12,
            "componentType" : 5123,
            "count" : 2469,
            "type" : "SCALAR"
        },
        {
            "bufferView" : 13,
            "componentType" : 5126,
            "count" : 1572,
            "max" : [
                0.7167080640792847,
                0.6220785975456238,
                0.5776224732398987
            ],
            "min" : [
                -0.7166544198989868,
                -0.8208202719688416,
                -0.8452763557434082
            ],
            "type" : "VEC3"
        },
        {
            "bufferView" : 14,
            "componentType" : 5126,
            "count" : 1572,
            "type" : "VEC3"
        },
        {
            "bufferView" : 15,
            "componentType" : 5126,
            "count" : 1572,
            "type" : "VEC2"
        },
        {
            "bufferView" : 16,
            "componentType" : 5123,
            "count" : 5655,
            "type" : "SCALAR"
        },
        {
            "bufferView" : 17,
            "componentType" : 5126,
            "count" : 340,
            "max" : [
                0.4164709448814392,
                0.29601895809173584,
                0.5606446266174316
            ],
            "min" : [
                -0.4164709448814392,
                0.15473726391792297,
                0.40419337153434753
            ],
            "type" : "VEC3"
        },
        {
            "bufferView" : 18,
            "componentType" : 5126,
            "count" : 340,
            "type" : "VEC3"
        },
        {
            "bufferView" : 19,
            "componentType" : 5126,
            "count" : 340,
            "type" : "VEC2"
        },
        {
            "bufferView" : 20,
            "componentType" : 5123,
            "count" : 1152,
            "type" : "SCALAR"
        },
        {
            "bufferView" : 21,
            "componentType" : 5126,
            "count" : 1310,
            "max" : [
                0.7708356976509094,
                0.904824435710907,
                0.7736537456512451
            ],
            "min" : [
                -0.7971862554550171,
                -0.15139345824718475,
                -0.9953100681304932
            ],
            "type" : "VEC3"
        },
        {
            "bufferView" : 22,
            "componentType" : 5126,
            "count" : 1310,
            "type" : "VEC3"
        },
        {
            "bufferView" : 23,
            "componentType" : 5126,
            "count" : 1310,
            "type" : "VEC2"
        },
        {
            "bufferView" : 24,
            "componentType" : 5123,
            "count" : 3132,
            "type" : "SCALAR"
        },
        {
            "bufferView" : 25,
            "componentType" : 5126,
            "count" : 340,
            "max" : [
                0.3111787736415863,
                -0.1867823302745819,
                0.5789592862129211
            ],
            "min" : [
                -0.3111787736415863,
                -0.32289332151412964,
                0.47731783986091614
            ],
            "type" : "VEC3"
        },
        {
            "bufferView" : 26,
            "componentType" : 5126,
            "count" : 340,
            "type" : "VEC3"
        },
        {
            "bufferView" : 27,
            "componentType" : 5126,
            "count" : 340,
            "type" : "VEC2"
        },
        {
            "bufferView" : 28,
            "componentType" : 5123,
            "count" : 1152,
            "type" : "SCALAR"
        },
        {
            "bufferView" : 29,
            "componentType" : 5126,
            "count" : 1181,
            "max" : [
                0.8778747320175171,
                0.21737711131572723,
                -0.10627720504999161
            ],
            "min" : [
                -0.8778746724128723,
                -0.22943444550037384,
                -0.36960697174072266
            ],
            "type" : "VEC3"
        },
        {
            "bufferView" : 30,
            "componentType" : 5126,
            "count" : 1181,
            "type" : "VEC3"
        },
        {
            "bufferView" : 31,
            "componentType" : 5126,
            "count" : 1181,
            "type" : "VEC2"
        },
        {
            "bufferView" : 32,
            "componentType" : 5123,
            "count" : 4992,
            "type" : "SCALAR"
        }
    ],
    "bufferViews" : [
        {
            "buffer" : 0,
            "byteLength" : 5424,
            "byteOffset" : 0
        },
        {
            "buffer" : 0,
            "byteLength" : 5424,
            "byteOffset" : 5424
        },
        {
            "buffer" : 0,
            "byteLength" : 3616,
            "byteOffset" : 10848
        },
        {
            "buffer" : 0,
            "byteLength" : 3840,
            "byteOffset" : 14464
        },
        {
            "buffer" : 0,
            "byteLength" : 11997,
            "byteOffset" : 18304
        },
        {
            "buffer" : 0,
            "byteLength" : 1704,
            "byteOffset" : 30304
        },
        {
            "buffer" : 0,
            "byteLength" : 1704,
            "byteOffset" : 32008
        },
        {
            "buffer" : 0,
            "byteLength" : 1136,
            "byteOffset" : 33712
        },
        {
            "buffer" : 0,
            "byteLength" : 1056,
            "byteOffset" : 34848
        },
        {
            "buffer" : 0,
            "byteLength" : 5892,
            "byteOffset" : 35904
        },
        {
            "buffer" : 0,
            "byteLength" : 5892,
            "byteOffset" : 41796
        },
        {
            "buffer" : 0,
            "byteLength" : 3928,
            "byteOffset" : 47688
        },
        {
            "buffer" : 0,
            "byteLength" : 4938,
            "byteOffset" : 51616
        },
        {
            "buffer" : 0,
            "byteLength" : 18864,
            "byteOffset" : 56556
        },
        {
            "buffer" : 0,
            "byteLength" : 18864,
            "byteOffset" : 75420
        },
        {
            "buffer" : 0,
            "byteLength" : 12576,
            "byteOffset" : 94284
        },
        {
            "buffer" : 0,
            "byteLength" : 11310,
            "byteOffset" : 106860
        },
        {
            "buffer" : 0,
            "byteLength" : 4080,
            "byteOffset" : 118172
        },
        {
            "buffer" : 0,
            "byteLength" : 4080,
            "byteOffset" : 122252
        },
        {
            "buffer" : 0,
            "byteLength" : 2720,
            "byteOffset" : 126332
        },
        {
            "buffer" : 0,
            "byteLength" : 2304,
            "byteOffset" : 129052
        },
        {
            "buffer" : 0,
            "byteLength" : 15720,
            "byteOffset" : 131356
        },
        {
            "buffer" : 0,
            "byteLength" : 15720,
            "byteOffset" : 147076
        },
        {
            "buffer" : 0,
            "byteLength" : 10480,
            "byteOffset" : 162796
        },
        {
            "buffer" : 0,
            "byteLength" : 6264,
            "byteOffset" : 173276
        },
        {
            "buffer" : 0,
            "byteLength" : 4080,
            "byteOffset" : 179540
        },
        {
            "buffer" : 0,
            "byteLength" : 4080,
            "byteOffset" : 183620
        },
        {
            "buffer" : 0,
            "byteLength" : 2720,
            "byteOffset" : 187700
        },
        {
            "buffer" : 0,
            "byteLength" : 2304,
            "byteOffset" : 190420
        },
        {
            "buffer" : 0,
            "byteLength" : 14172,
            "byteOffset" : 192724
        },
        {
            "buffer" : 0,
            "byteLength" : 14172,
            "byteOffset" : 206896
        },
        {
            "buffer" : 0,
            "byteLength" : 9448,
            "byteOffset" : 221068
        },
        {
            "buffer" : 0,
            "byteLength" : 9984,
            "byteOffset" : 230516
        }
    ],
    "samplers" : [
        {
            "magFilter" : 9729,
            "minFilter" : 9987
        }
    ],
    "buffers" : [
        {
            "byteLength" : 240500,
            "uri" : "data:application/octet-stream;base64,"
        }
    ]
}
