{
    "asset" : {
        "copyright" : "Jeremy Edelblut",
        "generator" : "Khronos glTF Blender I/O v1.7.33",
        "version" : "2.0"
    },
    "scene" : 0,
    "scenes" : [
        {
            "name" : "Scene",
            "nodes" : [
                0,
                1,
                2,
                3,
                4,
                5,
                6,
                7,
                8,
                9,
                10
            ]
        }
    ],
    "nodes" : [
        {
            "mesh" : 0,
            "name" : "Circle.956"
        },
        {
            "mesh" : 1,
            "name" : "Circle.957"
        },
        {
            "mesh" : 2,
            "name" : "Cylinder.175"
        },
        {
            "mesh" : 3,
            "name" : "Roundcube.198"
        },
        {
            "mesh" : 4,
            "name" : "Circle.959"
        },
        {
            "mesh" : 5,
            "name" : "Cube.2350"
        },
        {
            "mesh" : 6,
            "name" : "Sphere.156"
        },
        {
            "mesh" : 7,
            "name" : "Circle.960"
        },
        {
            "mesh" : 8,
            "name" : "Roundcube.199"
        },
        {
            "mesh" : 9,
            "name" : "Sphere.157"
        },
        {
            "mesh" : 10,
            "name" : "Circle.961"
        }
    ],
    "materials" : [
        {
            "doubleSided" : true,
            "emissiveFactor" : [
                0.20000000298023224,
                0.20000000298023224,
                0.20000000298023224
            ],
            "emissiveTexture" : {
                "index" : 0
            },
            "name" : "color",
            "pbrMetallicRoughness" : {
                "baseColorTexture" : {
                    "index" : 1
                },
                "metallicFactor" : 0,
                "roughnessFactor" : 0.5
            }
        },
        {
            "doubleSided" : true,
            "emissiveFactor" : [
                0.20000000298023224,
                0.20000000298023224,
                0.20000000298023224
            ],
            "emissiveTexture" : {
                "index" : 2
            },
            "name" : "skin_tone_one",
            "pbrMetallicRoughness" : {
                "baseColorTexture" : {
                    "index" : 3
                },
                "metallicFactor" : 0,
                "roughnessFactor" : 0.5
            }
        }
    ],
    "meshes" : [
        {
            "name" : "Circle.1040",
            "primitives" : [
                {
                    "attributes" : {
                        "POSITION" : 0,
                        "NORMAL" : 1,
                        "TEXCOORD_0" : 2
                    },
                    "indices" : 3,
                    "material" : 0
                }
            ]
        },
        {
            "name" : "Circle.1041",
            "primitives" : [
                {
                    "attributes" : {
                        "POSITION" : 4,
                        "NORMAL" : 5,
                        "TEXCOORD_0" : 6
                    },
                    "indices" : 7,
                    "material" : 1
                }
            ]
        },
        {
            "name" : "Cylinder.161",
            "primitives" : [
                {
                    "attributes" : {
                        "POSITION" : 8,
                        "NORMAL" : 9,
                        "TEXCOORD_0" : 10
                    },
                    "indices" : 11,
                    "material" : 1
                }
            ]
        },
        {
            "name" : "Roundcube.198",
            "primitives" : [
                {
                    "attributes" : {
                        "POSITION" : 12,
                        "NORMAL" : 13,
                        "TEXCOORD_0" : 14
                    },
                    "indices" : 15,
                    "material" : 0
                },
                {
                    "attributes" : {
                        "POSITION" : 16,
                        "NORMAL" : 17,
                        "TEXCOORD_0" : 18
                    },
                    "indices" : 19,
                    "material" : 1
                }
            ]
        },
        {
            "name" : "Circle.1042",
            "primitives" : [
                {
                    "attributes" : {
                        "POSITION" : 20,
                        "NORMAL" : 21,
                        "TEXCOORD_0" : 22
                    },
                    "indices" : 23,
                    "material" : 1
                }
            ]
        },
        {
            "name" : "Cube.2809",
            "primitives" : [
                {
                    "attributes" : {
                        "POSITION" : 24,
                        "NORMAL" : 25,
                        "TEXCOORD_0" : 26
                    },
                    "indices" : 27,
                    "material" : 1
                }
            ]
        },
        {
            "name" : "Sphere.156",
            "primitives" : [
                {
                    "attributes" : {
                        "POSITION" : 28,
                        "NORMAL" : 29,
                        "TEXCOORD_0" : 30
                    },
                    "indices" : 31,
                    "material" : 0
                }
            ]
        },
        {
            "name" : "Circle.1043",
            "primitives" : [
                {
                    "attributes" : {
                        "POSITION" : 32,
                        "NORMAL" : 33,
                        "TEXCOORD_0" : 34
                    },
                    "indices" : 35,
                    "material" : 1
                }
            ]
        },
        {
            "name" : "Roundcube.199",
            "primitives" : [
                {
                    "attributes" : {
                        "POSITION" : 36,
                        "NORMAL" : 37,
                        "TEXCOORD_0" : 38
                    },
                    "indices" : 39,
                    "material" : 0
                }
            ]
        },
        {
            "name" : "Sphere.157",
            "primitives" : [
                {
                    "attributes" : {
                        "POSITION" : 40,
                        "NORMAL" : 41,
                        "TEXCOORD_0" : 42
                    },
                    "indices" : 43,
                    "material" : 0
                }
            ]
        },
        {
            "name" : "Circle.1044",
            "primitives" : [
                {
                    "attributes" : {
                        "POSITION" : 44,
                        "NORMAL" : 45,
                        "TEXCOORD_0" : 46
                    },
                    "indices" : 47,
                    "material" : 0
                }
            ]
        }
    ],
    "textures" : [
        {
            "sampler" : 0,
            "source" : 0
        },
        {
            "sampler" : 0,
            "source" : 0
        },
        {
            "sampler" : 0,
            "source" : 0
        },
        {
            "sampler" : 0,
            "source" : 0
        }
    ],
    "images" : [
        {
            "bufferView" : 4,
            "mimeType" : "image/png",
            "name" : "tex"
        }
    ],
    "accessors" : [
        {
            "bufferView" : 0,
            "componentType" : 5126,
            "count" : 452,
            "max" : [
                0.3528972268104553,
                0.3174445927143097,
                0.5797497034072876
            ],
            "min" : [
                -0.3528972268104553,
                0.07105375081300735,
                0.4864819645881653
            ],
            "type" : "VEC3"
        },
        {
            "bufferView" : 1,
            "componentType" : 5126,
            "count" : 452,
            "type" : "VEC3"
        },
        {
            "bufferView" : 2,
            "componentType" : 5126,
            "count" : 452,
            "type" : "VEC2"
        },
        {
            "bufferView" : 3,
            "componentType" : 5123,
            "count" : 1920,
            "type" : "SCALAR"
        },
        {
            "bufferView" : 5,
            "componentType" : 5126,
            "count" : 142,
            "max" : [
                0.0685044378042221,
                0.05974981188774109,
                0.5844468474388123
            ],
            "min" : [
                -0.06649401038885117,
                -0.017295416444540024,
                0.5657127499580383
            ],
            "type" : "VEC3"
        },
        {
            "bufferView" : 6,
            "componentType" : 5126,
            "count" : 142,
            "type" : "VEC3"
        },
        {
            "bufferView" : 7,
            "componentType" : 5126,
            "count" : 142,
            "type" : "VEC2"
        },
        {
            "bufferView" : 8,
            "componentType" : 5123,
            "count" : 528,
            "type" : "SCALAR"
        },
        {
            "bufferView" : 9,
            "componentType" : 5126,
            "count" : 1135,
            "max" : [
                0.8778747320175171,
                0.3865436911582947,
                -0.10627720504999161
            ],
            "min" : [
                -0.8778746724128723,
                -0.0602678619325161,
                -0.36960697174072266
            ],
            "type" : "VEC3"
        },
        {
            "bufferView" : 10,
            "componentType" : 5126,
            "count" : 1135,
            "type" : "VEC3"
        },
        {
            "bufferView" : 11,
            "componentType" : 5126,
            "count" : 1135,
            "type" : "VEC2"
        },
        {
            "bufferView" : 12,
            "componentType" : 5123,
            "count" : 4992,
            "type" : "SCALAR"
        },
        {
            "bufferView" : 13,
            "componentType" : 5126,
            "count" : 837,
            "max" : [
                0.18255001306533813,
                -0.13748568296432495,
                0.4926007390022278
            ],
            "min" : [
                -0.1703968197107315,
                -1.4007298946380615,
                -0.5252619385719299
            ],
            "type" : "VEC3"
        },
        {
            "bufferView" : 14,
            "componentType" : 5126,
            "count" : 837,
            "type" : "VEC3"
        },
        {
            "bufferView" : 15,
            "componentType" : 5126,
            "count" : 837,
            "type" : "VEC2"
        },
        {
            "bufferView" : 16,
            "componentType" : 5123,
            "count" : 2064,
            "type" : "SCALAR"
        },
        {
            "bufferView" : 17,
            "componentType" : 5126,
            "count" : 1173,
            "max" : [
                0.7166812419891357,
                0.8729530572891235,
                0.5776224732398987
            ],
            "min" : [
                -0.7166812419891357,
                -0.8074673414230347,
                -0.9389863610267639
            ],
            "type" : "VEC3"
        },
        {
            "bufferView" : 18,
            "componentType" : 5126,
            "count" : 1173,
            "type" : "VEC3"
        },
        {
            "bufferView" : 19,
            "componentType" : 5126,
            "count" : 1173,
            "type" : "VEC2"
        },
        {
            "bufferView" : 20,
            "componentType" : 5123,
            "count" : 5916,
            "type" : "SCALAR"
        },
        {
            "bufferView" : 21,
            "componentType" : 5126,
            "count" : 316,
            "max" : [
                0.4164271950721741,
                0.461235374212265,
                0.5365055203437805
            ],
            "min" : [
                -0.4164271950721741,
                0.3117583692073822,
                0.4130065143108368
            ],
            "type" : "VEC3"
        },
        {
            "bufferView" : 22,
            "componentType" : 5126,
            "count" : 316,
            "type" : "VEC3"
        },
        {
            "bufferView" : 23,
            "componentType" : 5126,
            "count" : 316,
            "type" : "VEC2"
        },
        {
            "bufferView" : 24,
            "componentType" : 5123,
            "count" : 1152,
            "type" : "SCALAR"
        },
        {
            "bufferView" : 25,
            "componentType" : 5126,
            "count" : 1310,
            "max" : [
                0.7708356380462646,
                1.073990821838379,
                0.7736537456512451
            ],
            "min" : [
                -0.7971862554550171,
                0.01777304708957672,
                -0.9953101873397827
            ],
            "type" : "VEC3"
        },
        {
            "bufferView" : 26,
            "componentType" : 5126,
            "count" : 1310,
            "type" : "VEC3"
        },
        {
            "bufferView" : 27,
            "componentType" : 5126,
            "count" : 1310,
            "type" : "VEC2"
        },
        {
            "bufferView" : 28,
            "componentType" : 5123,
            "count" : 3132,
            "type" : "SCALAR"
        },
        {
            "bufferView" : 29,
            "componentType" : 5126,
            "count" : 445,
            "max" : [
                0.7500002384185791,
                -0.626502275466919,
                0.05096202343702316
            ],
            "min" : [
                -0.7500002384185791,
                -1.3991906642913818,
                -0.9490382075309753
            ],
            "type" : "VEC3"
        },
        {
            "bufferView" : 30,
            "componentType" : 5126,
            "count" : 445,
            "type" : "VEC3"
        },
        {
            "bufferView" : 31,
            "componentType" : 5126,
            "count" : 445,
            "type" : "VEC2"
        },
        {
            "bufferView" : 32,
            "componentType" : 5123,
            "count" : 2418,
            "type" : "SCALAR"
        },
        {
            "bufferView" : 33,
            "componentType" : 5126,
            "count" : 316,
            "max" : [
                0.31112346053123474,
                -0.012977729551494122,
                0.5797182321548462
            ],
            "min" : [
                -0.31112346053123474,
                -0.1483524590730667,
                0.4792191684246063
            ],
            "type" : "VEC3"
        },
        {
            "bufferView" : 34,
            "componentType" : 5126,
            "count" : 316,
            "type" : "VEC3"
        },
        {
            "bufferView" : 35,
            "componentType" : 5126,
            "count" : 316,
            "type" : "VEC2"
        },
        {
            "bufferView" : 36,
            "componentType" : 5123,
            "count" : 1152,
            "type" : "SCALAR"
        },
        {
            "bufferView" : 37,
            "componentType" : 5126,
            "count" : 1690,
            "max" : [
                0.5431245565414429,
                0.39983803033828735,
                0.5875575542449951
            ],
            "min" : [
                -0.5431246757507324,
                -0.04632524028420448,
                0.3408990800380707
            ],
            "type" : "VEC3"
        },
        {
            "bufferView" : 38,
            "componentType" : 5126,
            "count" : 1690,
            "type" : "VEC3"
        },
        {
            "bufferView" : 39,
            "componentType" : 5126,
            "count" : 1690,
            "type" : "VEC2"
        },
        {
            "bufferView" : 40,
            "componentType" : 5123,
            "count" : 8016,
            "type" : "SCALAR"
        },
        {
            "bufferView" : 41,
            "componentType" : 5126,
            "count" : 750,
            "max" : [
                0.8912023305892944,
                -0.6255175471305847,
                -0.11421287804841995
            ],
            "min" : [
                -0.8912023305892944,
                -1.400565505027771,
                -1.2922003269195557
            ],
            "type" : "VEC3"
        },
        {
            "bufferView" : 42,
            "componentType" : 5126,
            "count" : 750,
            "type" : "VEC3"
        },
        {
            "bufferView" : 43,
            "componentType" : 5126,
            "count" : 750,
            "type" : "VEC2"
        },
        {
            "bufferView" : 44,
            "componentType" : 5123,
            "count" : 3216,
            "type" : "SCALAR"
        },
        {
            "bufferView" : 45,
            "componentType" : 5126,
            "count" : 64,
            "max" : [
                0.24694740772247314,
                -1.053052544593811,
                0.06962348520755768
            ],
            "min" : [
                -0.24694739282131195,
                -1.399999976158142,
                -0.0589492991566658
            ],
            "type" : "VEC3"
        },
        {
            "bufferView" : 46,
            "componentType" : 5126,
            "count" : 64,
            "type" : "VEC3"
        },
        {
            "bufferView" : 47,
            "componentType" : 5126,
            "count" : 64,
            "type" : "VEC2"
        },
        {
            "bufferView" : 48,
            "componentType" : 5123,
            "count" : 177,
            "type" : "SCALAR"
        }
    ],
    "bufferViews" : [
        {
            "buffer" : 0,
            "byteLength" : 5424,
            "byteOffset" : 0
        },
        {
            "buffer" : 0,
            "byteLength" : 5424,
            "byteOffset" : 5424
        },
        {
            "buffer" : 0,
            "byteLength" : 3616,
            "byteOffset" : 10848
        },
        {
            "buffer" : 0,
            "byteLength" : 3840,
            "byteOffset" : 14464
        },
        {
            "buffer" : 0,
            "byteLength" : 11997,
            "byteOffset" : 18304
        },
        {
            "buffer" : 0,
            "byteLength" : 1704,
            "byteOffset" : 30304
        },
        {
            "buffer" : 0,
            "byteLength" : 1704,
            "byteOffset" : 32008
        },
        {
            "buffer" : 0,
            "byteLength" : 1136,
            "byteOffset" : 33712
        },
        {
            "buffer" : 0,
            "byteLength" : 1056,
            "byteOffset" : 34848
        },
        {
            "buffer" : 0,
            "byteLength" : 13620,
            "byteOffset" : 35904
        },
        {
            "buffer" : 0,
            "byteLength" : 13620,
            "byteOffset" : 49524
        },
        {
            "buffer" : 0,
            "byteLength" : 9080,
            "byteOffset" : 63144
        },
        {
            "buffer" : 0,
            "byteLength" : 9984,
            "byteOffset" : 72224
        },
        {
            "buffer" : 0,
            "byteLength" : 10044,
            "byteOffset" : 82208
        },
        {
            "buffer" : 0,
            "byteLength" : 10044,
            "byteOffset" : 92252
        },
        {
            "buffer" : 0,
            "byteLength" : 6696,
            "byteOffset" : 102296
        },
        {
            "buffer" : 0,
            "byteLength" : 4128,
            "byteOffset" : 108992
        },
        {
            "buffer" : 0,
            "byteLength" : 14076,
            "byteOffset" : 113120
        },
        {
            "buffer" : 0,
            "byteLength" : 14076,
            "byteOffset" : 127196
        },
        {
            "buffer" : 0,
            "byteLength" : 9384,
            "byteOffset" : 141272
        },
        {
            "buffer" : 0,
            "byteLength" : 11832,
            "byteOffset" : 150656
        },
        {
            "buffer" : 0,
            "byteLength" : 3792,
            "byteOffset" : 162488
        },
        {
            "buffer" : 0,
            "byteLength" : 3792,
            "byteOffset" : 166280
        },
        {
            "buffer" : 0,
            "byteLength" : 2528,
            "byteOffset" : 170072
        },
        {
            "buffer" : 0,
            "byteLength" : 2304,
            "byteOffset" : 172600
        },
        {
            "buffer" : 0,
            "byteLength" : 15720,
            "byteOffset" : 174904
        },
        {
            "buffer" : 0,
            "byteLength" : 15720,
            "byteOffset" : 190624
        },
        {
            "buffer" : 0,
            "byteLength" : 10480,
            "byteOffset" : 206344
        },
        {
            "buffer" : 0,
            "byteLength" : 6264,
            "byteOffset" : 216824
        },
        {
            "buffer" : 0,
            "byteLength" : 5340,
            "byteOffset" : 223088
        },
        {
            "buffer" : 0,
            "byteLength" : 5340,
            "byteOffset" : 228428
        },
        {
            "buffer" : 0,
            "byteLength" : 3560,
            "byteOffset" : 233768
        },
        {
            "buffer" : 0,
            "byteLength" : 4836,
            "byteOffset" : 237328
        },
        {
            "buffer" : 0,
            "byteLength" : 3792,
            "byteOffset" : 242164
        },
        {
            "buffer" : 0,
            "byteLength" : 3792,
            "byteOffset" : 245956
        },
        {
            "buffer" : 0,
            "byteLength" : 2528,
            "byteOffset" : 249748
        },
        {
            "buffer" : 0,
            "byteLength" : 2304,
            "byteOffset" : 252276
        },
        {
            "buffer" : 0,
            "byteLength" : 20280,
            "byteOffset" : 254580
        },
        {
            "buffer" : 0,
            "byteLength" : 20280,
            "byteOffset" : 274860
        },
        {
            "buffer" : 0,
            "byteLength" : 13520,
            "byteOffset" : 295140
        },
        {
            "buffer" : 0,
            "byteLength" : 16032,
            "byteOffset" : 308660
        },
        {
            "buffer" : 0,
            "byteLength" : 9000,
            "byteOffset" : 324692
        },
        {
            "buffer" : 0,
            "byteLength" : 9000,
            "byteOffset" : 333692
        },
        {
            "buffer" : 0,
            "byteLength" : 6000,
            "byteOffset" : 342692
        },
        {
            "buffer" : 0,
            "byteLength" : 6432,
            "byteOffset" : 348692
        },
        {
            "buffer" : 0,
            "byteLength" : 768,
            "byteOffset" : 355124
        },
        {
            "buffer" : 0,
            "byteLength" : 768,
            "byteOffset" : 355892
        },
        {
            "buffer" : 0,
            "byteLength" : 512,
            "byteOffset" : 356660
        },
        {
            "buffer" : 0,
            "byteLength" : 354,
            "byteOffset" : 357172
        }
    ],
    "samplers" : [
        {
            "magFilter" : 9729,
            "minFilter" : 9987
        }
    ],
    "buffers" : [
        {
            "byteLength" : 357528,
            "uri" : "data:application/octet-stream;base64,"
        }
    ]
}
