{
    "asset" : {
        "copyright" : "Jeremy Edelblut",
        "generator" : "Khronos glTF Blender I/O v1.7.33",
        "version" : "2.0"
    },
    "scene" : 1,
    "scenes" : [
        {
            "name" : "FBX_Temp",
            "nodes" : [
                0
            ]
        },
        {
            "name" : "Scene",
            "nodes" : [
                1,
                2,
                3,
                4,
                5,
                6
            ]
        }
    ],
    "nodes" : [
        {
            "mesh" : 0,
            "name" : "3moji.064",
            "rotation" : [
                0,
                -0.7071068286895752,
                0,
                0.7071068286895752
            ]
        },
        {
            "mesh" : 1,
            "name" : "Circle.1914"
        },
        {
            "mesh" : 2,
            "name" : "Cube.6242"
        },
        {
            "mesh" : 3,
            "name" : "Cube.6243"
        },
        {
            "mesh" : 4,
            "name" : "Cylinder.359"
        },
        {
            "mesh" : 5,
            "name" : "Sphere.379"
        },
        {
            "mesh" : 6,
            "name" : "3moji.org.227"
        }
    ],
    "materials" : [
        {
            "doubleSided" : true,
            "name" : "color",
            "pbrMetallicRoughness" : {
                "baseColorTexture" : {
                    "index" : 0
                },
                "metallicFactor" : 0,
                "roughnessFactor" : 0.5
            }
        }
    ],
    "meshes" : [
        {
            "name" : "Cube.417",
            "primitives" : [
                {
                    "attributes" : {
                        "POSITION" : 0,
                        "NORMAL" : 1,
                        "TEXCOORD_0" : 2
                    },
                    "indices" : 3,
                    "material" : 0
                }
            ]
        },
        {
            "name" : "Circle.2130",
            "primitives" : [
                {
                    "attributes" : {
                        "POSITION" : 4,
                        "NORMAL" : 5,
                        "TEXCOORD_0" : 6
                    },
                    "indices" : 7,
                    "material" : 0
                }
            ]
        },
        {
            "name" : "Cube.7301",
            "primitives" : [
                {
                    "attributes" : {
                        "POSITION" : 8,
                        "NORMAL" : 9,
                        "TEXCOORD_0" : 10
                    },
                    "indices" : 11,
                    "material" : 0
                }
            ]
        },
        {
            "name" : "Cube.7302",
            "primitives" : [
                {
                    "attributes" : {
                        "POSITION" : 12,
                        "NORMAL" : 13,
                        "TEXCOORD_0" : 14
                    },
                    "indices" : 15,
                    "material" : 0
                }
            ]
        },
        {
            "name" : "Cylinder.334",
            "primitives" : [
                {
                    "attributes" : {
                        "POSITION" : 16,
                        "NORMAL" : 17,
                        "TEXCOORD_0" : 18
                    },
                    "indices" : 19,
                    "material" : 0
                }
            ]
        },
        {
            "name" : "Sphere.377",
            "primitives" : [
                {
                    "attributes" : {
                        "POSITION" : 20,
                        "NORMAL" : 21,
                        "TEXCOORD_0" : 22
                    },
                    "indices" : 23,
                    "material" : 0
                }
            ]
        },
        {
            "name" : "Cube.689",
            "primitives" : [
                {
                    "attributes" : {
                        "POSITION" : 24,
                        "NORMAL" : 25,
                        "TEXCOORD_0" : 26
                    },
                    "indices" : 27,
                    "material" : 0
                }
            ]
        }
    ],
    "textures" : [
        {
            "sampler" : 0,
            "source" : 0
        }
    ],
    "images" : [
        {
            "bufferView" : 4,
            "mimeType" : "image/png",
            "name" : "tex"
        }
    ],
    "accessors" : [
        {
            "bufferView" : 0,
            "componentType" : 5126,
            "count" : 752,
            "max" : [
                -0.8264395594596863,
                0.05719918757677078,
                0.13795676827430725
            ],
            "min" : [
                -0.8543609976768494,
                -0.014034310355782509,
                -0.12436223030090332
            ],
            "type" : "VEC3"
        },
        {
            "bufferView" : 1,
            "componentType" : 5126,
            "count" : 752,
            "type" : "VEC3"
        },
        {
            "bufferView" : 2,
            "componentType" : 5126,
            "count" : 752,
            "type" : "VEC2"
        },
        {
            "bufferView" : 3,
            "componentType" : 5123,
            "count" : 1680,
            "type" : "SCALAR"
        },
        {
            "bufferView" : 5,
            "componentType" : 5126,
            "count" : 224,
            "max" : [
                0.4103047549724579,
                0.19534999132156372,
                0.6906721591949463
            ],
            "min" : [
                -0.4103047549724579,
                -0.1676284223794937,
                0.5301567316055298
            ],
            "type" : "VEC3"
        },
        {
            "bufferView" : 6,
            "componentType" : 5126,
            "count" : 224,
            "type" : "VEC3"
        },
        {
            "bufferView" : 7,
            "componentType" : 5126,
            "count" : 224,
            "type" : "VEC2"
        },
        {
            "bufferView" : 8,
            "componentType" : 5123,
            "count" : 840,
            "type" : "SCALAR"
        },
        {
            "bufferView" : 9,
            "componentType" : 5126,
            "count" : 386,
            "max" : [
                0.150715634226799,
                -0.5582642555236816,
                0.7757718563079834
            ],
            "min" : [
                -0.1507154405117035,
                -0.7998310923576355,
                0.5839322209358215
            ],
            "type" : "VEC3"
        },
        {
            "bufferView" : 10,
            "componentType" : 5126,
            "count" : 386,
            "type" : "VEC3"
        },
        {
            "bufferView" : 11,
            "componentType" : 5126,
            "count" : 386,
            "type" : "VEC2"
        },
        {
            "bufferView" : 12,
            "componentType" : 5123,
            "count" : 2304,
            "type" : "SCALAR"
        },
        {
            "bufferView" : 13,
            "componentType" : 5126,
            "count" : 624,
            "max" : [
                0.5872896909713745,
                -0.5500556230545044,
                0.7027411460876465
            ],
            "min" : [
                -0.5872896909713745,
                -0.8607492446899414,
                0.5464405417442322
            ],
            "type" : "VEC3"
        },
        {
            "bufferView" : 14,
            "componentType" : 5126,
            "count" : 624,
            "type" : "VEC3"
        },
        {
            "bufferView" : 15,
            "componentType" : 5126,
            "count" : 624,
            "type" : "VEC2"
        },
        {
            "bufferView" : 16,
            "componentType" : 5123,
            "count" : 936,
            "type" : "SCALAR"
        },
        {
            "bufferView" : 17,
            "componentType" : 5126,
            "count" : 514,
            "max" : [
                1.1434897184371948,
                0.98263019323349,
                0.004048197530210018
            ],
            "min" : [
                -1.1434897184371948,
                -0.060040540993213654,
                -0.18308395147323608
            ],
            "type" : "VEC3"
        },
        {
            "bufferView" : 18,
            "componentType" : 5126,
            "count" : 514,
            "type" : "VEC3"
        },
        {
            "bufferView" : 19,
            "componentType" : 5126,
            "count" : 514,
            "type" : "VEC2"
        },
        {
            "bufferView" : 20,
            "componentType" : 5123,
            "count" : 1524,
            "type" : "SCALAR"
        },
        {
            "bufferView" : 21,
            "componentType" : 5126,
            "count" : 290,
            "max" : [
                0.7123943567276001,
                0.7648558020591736,
                0.7127208113670349
            ],
            "min" : [
                -0.7123939990997314,
                -0.9342373609542847,
                -0.6040905714035034
            ],
            "type" : "VEC3"
        },
        {
            "bufferView" : 22,
            "componentType" : 5126,
            "count" : 290,
            "type" : "VEC3"
        },
        {
            "bufferView" : 23,
            "componentType" : 5126,
            "count" : 290,
            "type" : "VEC2"
        },
        {
            "bufferView" : 24,
            "componentType" : 5123,
            "count" : 1728,
            "type" : "SCALAR"
        },
        {
            "bufferView" : 25,
            "componentType" : 5126,
            "count" : 752,
            "max" : [
                0.07116782665252686,
                0.11049629747867584,
                -0.5822365283966064
            ],
            "min" : [
                -0.08418954908847809,
                0.06831682473421097,
                -0.59413743019104
            ],
            "type" : "VEC3"
        },
        {
            "bufferView" : 26,
            "componentType" : 5126,
            "count" : 752,
            "type" : "VEC3"
        },
        {
            "bufferView" : 27,
            "componentType" : 5126,
            "count" : 752,
            "type" : "VEC2"
        },
        {
            "bufferView" : 28,
            "componentType" : 5123,
            "count" : 1680,
            "type" : "SCALAR"
        }
    ],
    "bufferViews" : [
        {
            "buffer" : 0,
            "byteLength" : 9024,
            "byteOffset" : 0
        },
        {
            "buffer" : 0,
            "byteLength" : 9024,
            "byteOffset" : 9024
        },
        {
            "buffer" : 0,
            "byteLength" : 6016,
            "byteOffset" : 18048
        },
        {
            "buffer" : 0,
            "byteLength" : 3360,
            "byteOffset" : 24064
        },
        {
            "buffer" : 0,
            "byteLength" : 11997,
            "byteOffset" : 27424
        },
        {
            "buffer" : 0,
            "byteLength" : 2688,
            "byteOffset" : 39424
        },
        {
            "buffer" : 0,
            "byteLength" : 2688,
            "byteOffset" : 42112
        },
        {
            "buffer" : 0,
            "byteLength" : 1792,
            "byteOffset" : 44800
        },
        {
            "buffer" : 0,
            "byteLength" : 1680,
            "byteOffset" : 46592
        },
        {
            "buffer" : 0,
            "byteLength" : 4632,
            "byteOffset" : 48272
        },
        {
            "buffer" : 0,
            "byteLength" : 4632,
            "byteOffset" : 52904
        },
        {
            "buffer" : 0,
            "byteLength" : 3088,
            "byteOffset" : 57536
        },
        {
            "buffer" : 0,
            "byteLength" : 4608,
            "byteOffset" : 60624
        },
        {
            "buffer" : 0,
            "byteLength" : 7488,
            "byteOffset" : 65232
        },
        {
            "buffer" : 0,
            "byteLength" : 7488,
            "byteOffset" : 72720
        },
        {
            "buffer" : 0,
            "byteLength" : 4992,
            "byteOffset" : 80208
        },
        {
            "buffer" : 0,
            "byteLength" : 1872,
            "byteOffset" : 85200
        },
        {
            "buffer" : 0,
            "byteLength" : 6168,
            "byteOffset" : 87072
        },
        {
            "buffer" : 0,
            "byteLength" : 6168,
            "byteOffset" : 93240
        },
        {
            "buffer" : 0,
            "byteLength" : 4112,
            "byteOffset" : 99408
        },
        {
            "buffer" : 0,
            "byteLength" : 3048,
            "byteOffset" : 103520
        },
        {
            "buffer" : 0,
            "byteLength" : 3480,
            "byteOffset" : 106568
        },
        {
            "buffer" : 0,
            "byteLength" : 3480,
            "byteOffset" : 110048
        },
        {
            "buffer" : 0,
            "byteLength" : 2320,
            "byteOffset" : 113528
        },
        {
            "buffer" : 0,
            "byteLength" : 3456,
            "byteOffset" : 115848
        },
        {
            "buffer" : 0,
            "byteLength" : 9024,
            "byteOffset" : 119304
        },
        {
            "buffer" : 0,
            "byteLength" : 9024,
            "byteOffset" : 128328
        },
        {
            "buffer" : 0,
            "byteLength" : 6016,
            "byteOffset" : 137352
        },
        {
            "buffer" : 0,
            "byteLength" : 3360,
            "byteOffset" : 143368
        }
    ],
    "samplers" : [
        {
            "magFilter" : 9729,
            "minFilter" : 9987
        }
    ],
    "buffers" : [
        {
            "byteLength" : 146728,
            "uri" : "data:application/octet-stream;base64,"
        }
    ]
}
