{
    "asset" : {
        "copyright" : "Jeremy Edelblut - 3moji 1.0",
        "generator" : "Khronos glTF Blender I/O v1.7.33",
        "version" : "2.0"
    },
    "scene" : 1,
    "scenes" : [
        {
            "name" : "FBX_Temp",
            "nodes" : [
                0
            ]
        },
        {
            "name" : "Scene",
            "nodes" : [
                1,
                2
            ]
        }
    ],
    "nodes" : [
        {
            "mesh" : 0,
            "name" : "3moji.064",
            "rotation" : [
                0,
                -0.7071068286895752,
                0,
                0.7071068286895752
            ]
        },
        {
            "mesh" : 1,
            "name" : "Circle.1915"
        },
        {
            "mesh" : 2,
            "name" : "Plane.138"
        }
    ],
    "materials" : [
        {
            "doubleSided" : true,
            "name" : "color",
            "pbrMetallicRoughness" : {
                "baseColorTexture" : {
                    "index" : 0
                },
                "metallicFactor" : 0,
                "roughnessFactor" : 0.5
            }
        }
    ],
    "meshes" : [
        {
            "name" : "Cube.417",
            "primitives" : [
                {
                    "attributes" : {
                        "POSITION" : 0,
                        "NORMAL" : 1,
                        "TEXCOORD_0" : 2
                    },
                    "indices" : 3,
                    "material" : 0
                }
            ]
        },
        {
            "name" : "Circle.2131",
            "primitives" : [
                {
                    "attributes" : {
                        "POSITION" : 4,
                        "NORMAL" : 5,
                        "TEXCOORD_0" : 6
                    },
                    "indices" : 7,
                    "material" : 0
                }
            ]
        },
        {
            "name" : "Plane.138",
            "primitives" : [
                {
                    "attributes" : {
                        "POSITION" : 8,
                        "NORMAL" : 9,
                        "TEXCOORD_0" : 10
                    },
                    "indices" : 11,
                    "material" : 0
                }
            ]
        }
    ],
    "textures" : [
        {
            "sampler" : 0,
            "source" : 0
        }
    ],
    "images" : [
        {
            "bufferView" : 4,
            "mimeType" : "image/png",
            "name" : "tex"
        }
    ],
    "accessors" : [
        {
            "bufferView" : 0,
            "componentType" : 5126,
            "count" : 752,
            "max" : [
                -0.8264395594596863,
                0.05719918757677078,
                0.13795676827430725
            ],
            "min" : [
                -0.8543609976768494,
                -0.014034310355782509,
                -0.12436223030090332
            ],
            "type" : "VEC3"
        },
        {
            "bufferView" : 1,
            "componentType" : 5126,
            "count" : 752,
            "type" : "VEC3"
        },
        {
            "bufferView" : 2,
            "componentType" : 5126,
            "count" : 752,
            "type" : "VEC2"
        },
        {
            "bufferView" : 3,
            "componentType" : 5123,
            "count" : 1680,
            "type" : "SCALAR"
        },
        {
            "bufferView" : 5,
            "componentType" : 5126,
            "count" : 224,
            "max" : [
                -0.44368210434913635,
                0.24598102271556854,
                0.7893011569976807
            ],
            "min" : [
                -0.7893651127815247,
                0.11169690638780594,
                0.4436185657978058
            ],
            "type" : "VEC3"
        },
        {
            "bufferView" : 6,
            "componentType" : 5126,
            "count" : 224,
            "type" : "VEC3"
        },
        {
            "bufferView" : 7,
            "componentType" : 5126,
            "count" : 224,
            "type" : "VEC2"
        },
        {
            "bufferView" : 8,
            "componentType" : 5123,
            "count" : 840,
            "type" : "SCALAR"
        },
        {
            "bufferView" : 9,
            "componentType" : 5126,
            "count" : 1595,
            "max" : [
                1.3732240200042725,
                0.6333739757537842,
                0.9592576026916504
            ],
            "min" : [
                -0.9593214392662048,
                -0.538571834564209,
                -1.373287558555603
            ],
            "type" : "VEC3"
        },
        {
            "bufferView" : 10,
            "componentType" : 5126,
            "count" : 1595,
            "type" : "VEC3"
        },
        {
            "bufferView" : 11,
            "componentType" : 5126,
            "count" : 1595,
            "type" : "VEC2"
        },
        {
            "bufferView" : 12,
            "componentType" : 5123,
            "count" : 4296,
            "type" : "SCALAR"
        }
    ],
    "bufferViews" : [
        {
            "buffer" : 0,
            "byteLength" : 9024,
            "byteOffset" : 0
        },
        {
            "buffer" : 0,
            "byteLength" : 9024,
            "byteOffset" : 9024
        },
        {
            "buffer" : 0,
            "byteLength" : 6016,
            "byteOffset" : 18048
        },
        {
            "buffer" : 0,
            "byteLength" : 3360,
            "byteOffset" : 24064
        },
        {
            "buffer" : 0,
            "byteLength" : 11997,
            "byteOffset" : 27424
        },
        {
            "buffer" : 0,
            "byteLength" : 2688,
            "byteOffset" : 39424
        },
        {
            "buffer" : 0,
            "byteLength" : 2688,
            "byteOffset" : 42112
        },
        {
            "buffer" : 0,
            "byteLength" : 1792,
            "byteOffset" : 44800
        },
        {
            "buffer" : 0,
            "byteLength" : 1680,
            "byteOffset" : 46592
        },
        {
            "buffer" : 0,
            "byteLength" : 19140,
            "byteOffset" : 48272
        },
        {
            "buffer" : 0,
            "byteLength" : 19140,
            "byteOffset" : 67412
        },
        {
            "buffer" : 0,
            "byteLength" : 12760,
            "byteOffset" : 86552
        },
        {
            "buffer" : 0,
            "byteLength" : 8592,
            "byteOffset" : 99312
        }
    ],
    "samplers" : [
        {
            "magFilter" : 9729,
            "minFilter" : 9987
        }
    ],
    "buffers" : [
        {
            "byteLength" : 107904,
            "uri" : "data:application/octet-stream;base64,"
        }
    ]
}
