{
    "asset" : {
        "copyright" : "Jeremy Edelblut",
        "generator" : "Khronos glTF Blender I/O v1.7.33",
        "version" : "2.0"
    },
    "scene" : 1,
    "scenes" : [
        {
            "name" : "FBX_Temp",
            "nodes" : [
                0
            ]
        },
        {
            "name" : "Scene",
            "nodes" : [
                1,
                2,
                3,
                4,
                5,
                6,
                7,
                8,
                9,
                10
            ]
        }
    ],
    "nodes" : [
        {
            "mesh" : 0,
            "name" : "3moji.064",
            "rotation" : [
                0,
                -0.7071068286895752,
                0,
                0.7071068286895752
            ]
        },
        {
            "mesh" : 1,
            "name" : "Circle.383"
        },
        {
            "mesh" : 2,
            "name" : "Circle.384"
        },
        {
            "mesh" : 3,
            "name" : "Roundcube.031"
        },
        {
            "mesh" : 4,
            "name" : "Circle.385"
        },
        {
            "mesh" : 5,
            "name" : "Circle.386"
        },
        {
            "mesh" : 6,
            "name" : "Circle.387"
        },
        {
            "mesh" : 7,
            "name" : "Circle.388"
        },
        {
            "mesh" : 8,
            "name" : "Roundcube.032"
        },
        {
            "mesh" : 9,
            "name" : "Cube.427"
        },
        {
            "mesh" : 10,
            "name" : "ears.027"
        }
    ],
    "materials" : [
        {
            "doubleSided" : true,
            "name" : "color",
            "pbrMetallicRoughness" : {
                "baseColorTexture" : {
                    "index" : 0
                },
                "metallicFactor" : 0,
                "roughnessFactor" : 0.5
            }
        },
        {
            "doubleSided" : true,
            "name" : "skin_tone_one",
            "pbrMetallicRoughness" : {
                "baseColorTexture" : {
                    "index" : 1
                },
                "metallicFactor" : 0,
                "roughnessFactor" : 0.5
            }
        }
    ],
    "meshes" : [
        {
            "name" : "Cube.417",
            "primitives" : [
                {
                    "attributes" : {
                        "POSITION" : 0,
                        "NORMAL" : 1,
                        "TEXCOORD_0" : 2
                    },
                    "indices" : 3,
                    "material" : 0
                }
            ]
        },
        {
            "name" : "Circle.415",
            "primitives" : [
                {
                    "attributes" : {
                        "POSITION" : 4,
                        "NORMAL" : 5,
                        "TEXCOORD_0" : 6
                    },
                    "indices" : 7,
                    "material" : 0
                }
            ]
        },
        {
            "name" : "Circle.416",
            "primitives" : [
                {
                    "attributes" : {
                        "POSITION" : 8,
                        "NORMAL" : 9,
                        "TEXCOORD_0" : 10
                    },
                    "indices" : 11,
                    "material" : 1
                }
            ]
        },
        {
            "name" : "Roundcube.032",
            "primitives" : [
                {
                    "attributes" : {
                        "POSITION" : 12,
                        "NORMAL" : 13,
                        "TEXCOORD_0" : 14
                    },
                    "indices" : 15,
                    "material" : 0
                },
                {
                    "attributes" : {
                        "POSITION" : 16,
                        "NORMAL" : 17,
                        "TEXCOORD_0" : 18
                    },
                    "indices" : 19,
                    "material" : 1
                }
            ]
        },
        {
            "name" : "Circle.417",
            "primitives" : [
                {
                    "attributes" : {
                        "POSITION" : 20,
                        "NORMAL" : 21,
                        "TEXCOORD_0" : 22
                    },
                    "indices" : 23,
                    "material" : 0
                }
            ]
        },
        {
            "name" : "Circle.418",
            "primitives" : [
                {
                    "attributes" : {
                        "POSITION" : 24,
                        "NORMAL" : 25,
                        "TEXCOORD_0" : 26
                    },
                    "indices" : 27,
                    "material" : 1
                }
            ]
        },
        {
            "name" : "Circle.419",
            "primitives" : [
                {
                    "attributes" : {
                        "POSITION" : 28,
                        "NORMAL" : 29,
                        "TEXCOORD_0" : 30
                    },
                    "indices" : 31,
                    "material" : 1
                }
            ]
        },
        {
            "name" : "Circle.420",
            "primitives" : [
                {
                    "attributes" : {
                        "POSITION" : 32,
                        "NORMAL" : 33,
                        "TEXCOORD_0" : 34
                    },
                    "indices" : 35,
                    "material" : 0
                }
            ]
        },
        {
            "name" : "Roundcube.033",
            "primitives" : [
                {
                    "attributes" : {
                        "POSITION" : 36,
                        "NORMAL" : 37,
                        "TEXCOORD_0" : 38
                    },
                    "indices" : 39,
                    "material" : 0
                }
            ]
        },
        {
            "name" : "Cube.581",
            "primitives" : [
                {
                    "attributes" : {
                        "POSITION" : 40,
                        "NORMAL" : 41,
                        "TEXCOORD_0" : 42
                    },
                    "indices" : 43,
                    "material" : 0
                }
            ]
        },
        {
            "name" : "Cylinder.285",
            "primitives" : [
                {
                    "attributes" : {
                        "POSITION" : 44,
                        "NORMAL" : 45,
                        "TEXCOORD_0" : 46
                    },
                    "indices" : 47,
                    "material" : 1
                }
            ]
        }
    ],
    "textures" : [
        {
            "sampler" : 0,
            "source" : 0
        },
        {
            "sampler" : 0,
            "source" : 0
        }
    ],
    "images" : [
        {
            "bufferView" : 4,
            "mimeType" : "image/png",
            "name" : "tex"
        }
    ],
    "accessors" : [
        {
            "bufferView" : 0,
            "componentType" : 5126,
            "count" : 752,
            "max" : [
                -0.8264395594596863,
                0.05719918757677078,
                0.13795676827430725
            ],
            "min" : [
                -0.8543609976768494,
                -0.014034310355782509,
                -0.12436223030090332
            ],
            "type" : "VEC3"
        },
        {
            "bufferView" : 1,
            "componentType" : 5126,
            "count" : 752,
            "type" : "VEC3"
        },
        {
            "bufferView" : 2,
            "componentType" : 5126,
            "count" : 752,
            "type" : "VEC2"
        },
        {
            "bufferView" : 3,
            "componentType" : 5123,
            "count" : 1680,
            "type" : "SCALAR"
        },
        {
            "bufferView" : 5,
            "componentType" : 5126,
            "count" : 452,
            "max" : [
                0.3486279845237732,
                0.14658872783184052,
                0.5699412822723389
            ],
            "min" : [
                -0.3486279845237732,
                -0.0976829081773758,
                0.4864935278892517
            ],
            "type" : "VEC3"
        },
        {
            "bufferView" : 6,
            "componentType" : 5126,
            "count" : 452,
            "type" : "VEC3"
        },
        {
            "bufferView" : 7,
            "componentType" : 5126,
            "count" : 452,
            "type" : "VEC2"
        },
        {
            "bufferView" : 8,
            "componentType" : 5123,
            "count" : 1920,
            "type" : "SCALAR"
        },
        {
            "bufferView" : 9,
            "componentType" : 5126,
            "count" : 142,
            "max" : [
                0.06850441545248032,
                -0.10941692441701889,
                0.5844484567642212
            ],
            "min" : [
                -0.06649326533079147,
                -0.1864621490240097,
                0.5657142996788025
            ],
            "type" : "VEC3"
        },
        {
            "bufferView" : 10,
            "componentType" : 5126,
            "count" : 142,
            "type" : "VEC3"
        },
        {
            "bufferView" : 11,
            "componentType" : 5126,
            "count" : 142,
            "type" : "VEC2"
        },
        {
            "bufferView" : 12,
            "componentType" : 5123,
            "count" : 528,
            "type" : "SCALAR"
        },
        {
            "bufferView" : 13,
            "componentType" : 5126,
            "count" : 85,
            "max" : [
                0.18257682025432587,
                -0.3066522479057312,
                0.4926007390022278
            ],
            "min" : [
                -0.17037001252174377,
                -0.42757448554039,
                0.45513594150543213
            ],
            "type" : "VEC3"
        },
        {
            "bufferView" : 14,
            "componentType" : 5126,
            "count" : 85,
            "type" : "VEC3"
        },
        {
            "bufferView" : 15,
            "componentType" : 5126,
            "count" : 85,
            "type" : "VEC2"
        },
        {
            "bufferView" : 16,
            "componentType" : 5123,
            "count" : 384,
            "type" : "SCALAR"
        },
        {
            "bufferView" : 17,
            "componentType" : 5126,
            "count" : 1898,
            "max" : [
                0.7167080640792847,
                0.7037864923477173,
                0.5776224732398987
            ],
            "min" : [
                -0.7166544198989868,
                -0.8208202719688416,
                -0.9389863610267639
            ],
            "type" : "VEC3"
        },
        {
            "bufferView" : 18,
            "componentType" : 5126,
            "count" : 1898,
            "type" : "VEC3"
        },
        {
            "bufferView" : 19,
            "componentType" : 5126,
            "count" : 1898,
            "type" : "VEC2"
        },
        {
            "bufferView" : 20,
            "componentType" : 5123,
            "count" : 7830,
            "type" : "SCALAR"
        },
        {
            "bufferView" : 21,
            "componentType" : 5126,
            "count" : 324,
            "max" : [
                0.4113503098487854,
                0.29545626044273376,
                0.542488694190979
            ],
            "min" : [
                -0.4113503098487854,
                0.1416415423154831,
                0.410866379737854
            ],
            "type" : "VEC3"
        },
        {
            "bufferView" : 22,
            "componentType" : 5126,
            "count" : 324,
            "type" : "VEC3"
        },
        {
            "bufferView" : 23,
            "componentType" : 5126,
            "count" : 324,
            "type" : "VEC2"
        },
        {
            "bufferView" : 24,
            "componentType" : 5123,
            "count" : 1056,
            "type" : "SCALAR"
        },
        {
            "bufferView" : 25,
            "componentType" : 5126,
            "count" : 416,
            "max" : [
                0.45098963379859924,
                0.09743238985538483,
                0.5695204138755798
            ],
            "min" : [
                -0.45098963379859924,
                -0.2917158305644989,
                0.4185197949409485
            ],
            "type" : "VEC3"
        },
        {
            "bufferView" : 26,
            "componentType" : 5126,
            "count" : 416,
            "type" : "VEC3"
        },
        {
            "bufferView" : 27,
            "componentType" : 5126,
            "count" : 416,
            "type" : "VEC2"
        },
        {
            "bufferView" : 28,
            "componentType" : 5123,
            "count" : 1056,
            "type" : "SCALAR"
        },
        {
            "bufferView" : 29,
            "componentType" : 5126,
            "count" : 124,
            "max" : [
                0.21907199919223785,
                0.4032862186431885,
                0.5016908049583435
            ],
            "min" : [
                -0.23919785022735596,
                0.31430092453956604,
                0.41689199209213257
            ],
            "type" : "VEC3"
        },
        {
            "bufferView" : 30,
            "componentType" : 5126,
            "count" : 124,
            "type" : "VEC3"
        },
        {
            "bufferView" : 31,
            "componentType" : 5126,
            "count" : 124,
            "type" : "VEC2"
        },
        {
            "bufferView" : 32,
            "componentType" : 5123,
            "count" : 336,
            "type" : "SCALAR"
        },
        {
            "bufferView" : 33,
            "componentType" : 5126,
            "count" : 616,
            "max" : [
                0.4591497480869293,
                0.1947454959154129,
                0.5900086760520935
            ],
            "min" : [
                -0.4591497480869293,
                -0.21872253715991974,
                0.5727818608283997
            ],
            "type" : "VEC3"
        },
        {
            "bufferView" : 34,
            "componentType" : 5126,
            "count" : 616,
            "type" : "VEC3"
        },
        {
            "bufferView" : 35,
            "componentType" : 5126,
            "count" : 616,
            "type" : "VEC2"
        },
        {
            "bufferView" : 36,
            "componentType" : 5123,
            "count" : 1770,
            "type" : "SCALAR"
        },
        {
            "bufferView" : 37,
            "componentType" : 5126,
            "count" : 1388,
            "max" : [
                0.8399200439453125,
                0.8643235564231873,
                0.6530172824859619
            ],
            "min" : [
                -0.8399200439453125,
                -0.5873653888702393,
                -1.0585668087005615
            ],
            "type" : "VEC3"
        },
        {
            "bufferView" : 38,
            "componentType" : 5126,
            "count" : 1388,
            "type" : "VEC3"
        },
        {
            "bufferView" : 39,
            "componentType" : 5126,
            "count" : 1388,
            "type" : "VEC2"
        },
        {
            "bufferView" : 40,
            "componentType" : 5123,
            "count" : 7464,
            "type" : "SCALAR"
        },
        {
            "bufferView" : 41,
            "componentType" : 5126,
            "count" : 145,
            "max" : [
                0.37139663100242615,
                1.1334633827209473,
                -0.41853928565979004
            ],
            "min" : [
                -0.37139689922332764,
                0.35943078994750977,
                -1.2039731740951538
            ],
            "type" : "VEC3"
        },
        {
            "bufferView" : 42,
            "componentType" : 5126,
            "count" : 145,
            "type" : "VEC3"
        },
        {
            "bufferView" : 43,
            "componentType" : 5126,
            "count" : 145,
            "type" : "VEC2"
        },
        {
            "bufferView" : 44,
            "componentType" : 5123,
            "count" : 576,
            "type" : "SCALAR"
        },
        {
            "bufferView" : 45,
            "componentType" : 5126,
            "count" : 1181,
            "max" : [
                0.8778747320175171,
                0.21737711131572723,
                -0.10627720504999161
            ],
            "min" : [
                -0.8778746724128723,
                -0.22943444550037384,
                -0.36960697174072266
            ],
            "type" : "VEC3"
        },
        {
            "bufferView" : 46,
            "componentType" : 5126,
            "count" : 1181,
            "type" : "VEC3"
        },
        {
            "bufferView" : 47,
            "componentType" : 5126,
            "count" : 1181,
            "type" : "VEC2"
        },
        {
            "bufferView" : 48,
            "componentType" : 5123,
            "count" : 4992,
            "type" : "SCALAR"
        }
    ],
    "bufferViews" : [
        {
            "buffer" : 0,
            "byteLength" : 9024,
            "byteOffset" : 0
        },
        {
            "buffer" : 0,
            "byteLength" : 9024,
            "byteOffset" : 9024
        },
        {
            "buffer" : 0,
            "byteLength" : 6016,
            "byteOffset" : 18048
        },
        {
            "buffer" : 0,
            "byteLength" : 3360,
            "byteOffset" : 24064
        },
        {
            "buffer" : 0,
            "byteLength" : 11997,
            "byteOffset" : 27424
        },
        {
            "buffer" : 0,
            "byteLength" : 5424,
            "byteOffset" : 39424
        },
        {
            "buffer" : 0,
            "byteLength" : 5424,
            "byteOffset" : 44848
        },
        {
            "buffer" : 0,
            "byteLength" : 3616,
            "byteOffset" : 50272
        },
        {
            "buffer" : 0,
            "byteLength" : 3840,
            "byteOffset" : 53888
        },
        {
            "buffer" : 0,
            "byteLength" : 1704,
            "byteOffset" : 57728
        },
        {
            "buffer" : 0,
            "byteLength" : 1704,
            "byteOffset" : 59432
        },
        {
            "buffer" : 0,
            "byteLength" : 1136,
            "byteOffset" : 61136
        },
        {
            "buffer" : 0,
            "byteLength" : 1056,
            "byteOffset" : 62272
        },
        {
            "buffer" : 0,
            "byteLength" : 1020,
            "byteOffset" : 63328
        },
        {
            "buffer" : 0,
            "byteLength" : 1020,
            "byteOffset" : 64348
        },
        {
            "buffer" : 0,
            "byteLength" : 680,
            "byteOffset" : 65368
        },
        {
            "buffer" : 0,
            "byteLength" : 768,
            "byteOffset" : 66048
        },
        {
            "buffer" : 0,
            "byteLength" : 22776,
            "byteOffset" : 66816
        },
        {
            "buffer" : 0,
            "byteLength" : 22776,
            "byteOffset" : 89592
        },
        {
            "buffer" : 0,
            "byteLength" : 15184,
            "byteOffset" : 112368
        },
        {
            "buffer" : 0,
            "byteLength" : 15660,
            "byteOffset" : 127552
        },
        {
            "buffer" : 0,
            "byteLength" : 3888,
            "byteOffset" : 143212
        },
        {
            "buffer" : 0,
            "byteLength" : 3888,
            "byteOffset" : 147100
        },
        {
            "buffer" : 0,
            "byteLength" : 2592,
            "byteOffset" : 150988
        },
        {
            "buffer" : 0,
            "byteLength" : 2112,
            "byteOffset" : 153580
        },
        {
            "buffer" : 0,
            "byteLength" : 4992,
            "byteOffset" : 155692
        },
        {
            "buffer" : 0,
            "byteLength" : 4992,
            "byteOffset" : 160684
        },
        {
            "buffer" : 0,
            "byteLength" : 3328,
            "byteOffset" : 165676
        },
        {
            "buffer" : 0,
            "byteLength" : 2112,
            "byteOffset" : 169004
        },
        {
            "buffer" : 0,
            "byteLength" : 1488,
            "byteOffset" : 171116
        },
        {
            "buffer" : 0,
            "byteLength" : 1488,
            "byteOffset" : 172604
        },
        {
            "buffer" : 0,
            "byteLength" : 992,
            "byteOffset" : 174092
        },
        {
            "buffer" : 0,
            "byteLength" : 672,
            "byteOffset" : 175084
        },
        {
            "buffer" : 0,
            "byteLength" : 7392,
            "byteOffset" : 175756
        },
        {
            "buffer" : 0,
            "byteLength" : 7392,
            "byteOffset" : 183148
        },
        {
            "buffer" : 0,
            "byteLength" : 4928,
            "byteOffset" : 190540
        },
        {
            "buffer" : 0,
            "byteLength" : 3540,
            "byteOffset" : 195468
        },
        {
            "buffer" : 0,
            "byteLength" : 16656,
            "byteOffset" : 199008
        },
        {
            "buffer" : 0,
            "byteLength" : 16656,
            "byteOffset" : 215664
        },
        {
            "buffer" : 0,
            "byteLength" : 11104,
            "byteOffset" : 232320
        },
        {
            "buffer" : 0,
            "byteLength" : 14928,
            "byteOffset" : 243424
        },
        {
            "buffer" : 0,
            "byteLength" : 1740,
            "byteOffset" : 258352
        },
        {
            "buffer" : 0,
            "byteLength" : 1740,
            "byteOffset" : 260092
        },
        {
            "buffer" : 0,
            "byteLength" : 1160,
            "byteOffset" : 261832
        },
        {
            "buffer" : 0,
            "byteLength" : 1152,
            "byteOffset" : 262992
        },
        {
            "buffer" : 0,
            "byteLength" : 14172,
            "byteOffset" : 264144
        },
        {
            "buffer" : 0,
            "byteLength" : 14172,
            "byteOffset" : 278316
        },
        {
            "buffer" : 0,
            "byteLength" : 9448,
            "byteOffset" : 292488
        },
        {
            "buffer" : 0,
            "byteLength" : 9984,
            "byteOffset" : 301936
        }
    ],
    "samplers" : [
        {
            "magFilter" : 9729,
            "minFilter" : 9987
        }
    ],
    "buffers" : [
        {
            "byteLength" : 311920,
            "uri" : "data:application/octet-stream;base64,"
        }
    ]
}
