{
    "asset" : {
        "copyright" : "Jeremy Edelblut",
        "generator" : "Khronos glTF Blender I/O v1.7.33",
        "version" : "2.0"
    },
    "scene" : 0,
    "scenes" : [
        {
            "name" : "Scene",
            "nodes" : [
                0
            ]
        }
    ],
    "nodes" : [
        {
            "mesh" : 0,
            "name" : "hand.017"
        }
    ],
    "materials" : [
        {
            "doubleSided" : true,
            "name" : "skin_tone_one",
            "pbrMetallicRoughness" : {
                "baseColorTexture" : {
                    "index" : 0
                },
                "metallicFactor" : 0,
                "roughnessFactor" : 0.5
            }
        },
        {
            "doubleSided" : true,
            "name" : "color",
            "pbrMetallicRoughness" : {
                "baseColorTexture" : {
                    "index" : 1
                },
                "metallicFactor" : 0,
                "roughnessFactor" : 0.5
            }
        }
    ],
    "meshes" : [
        {
            "name" : "Circle.277",
            "primitives" : [
                {
                    "attributes" : {
                        "POSITION" : 0,
                        "NORMAL" : 1,
                        "TEXCOORD_0" : 2
                    },
                    "indices" : 3,
                    "material" : 0
                },
                {
                    "attributes" : {
                        "POSITION" : 4,
                        "NORMAL" : 5,
                        "TEXCOORD_0" : 6
                    },
                    "indices" : 7,
                    "material" : 1
                }
            ]
        }
    ],
    "textures" : [
        {
            "sampler" : 0,
            "source" : 0
        },
        {
            "sampler" : 0,
            "source" : 0
        }
    ],
    "images" : [
        {
            "bufferView" : 4,
            "mimeType" : "image/png",
            "name" : "tex"
        }
    ],
    "accessors" : [
        {
            "bufferView" : 0,
            "componentType" : 5126,
            "count" : 2470,
            "max" : [
                0.7227921485900879,
                0.47142964601516724,
                1.3453691005706787
            ],
            "min" : [
                -0.7704190015792847,
                -0.7266088724136353,
                -0.4216775894165039
            ],
            "type" : "VEC3"
        },
        {
            "bufferView" : 1,
            "componentType" : 5126,
            "count" : 2470,
            "type" : "VEC3"
        },
        {
            "bufferView" : 2,
            "componentType" : 5126,
            "count" : 2470,
            "type" : "VEC2"
        },
        {
            "bufferView" : 3,
            "componentType" : 5123,
            "count" : 13320,
            "type" : "SCALAR"
        },
        {
            "bufferView" : 5,
            "componentType" : 5126,
            "count" : 752,
            "max" : [
                0.0684303566813469,
                0.1517425775527954,
                -0.4137069582939148
            ],
            "min" : [
                -0.14540386199951172,
                0.09383400529623032,
                -0.4245552122592926
            ],
            "type" : "VEC3"
        },
        {
            "bufferView" : 6,
            "componentType" : 5126,
            "count" : 752,
            "type" : "VEC3"
        },
        {
            "bufferView" : 7,
            "componentType" : 5126,
            "count" : 752,
            "type" : "VEC2"
        },
        {
            "bufferView" : 8,
            "componentType" : 5123,
            "count" : 1680,
            "type" : "SCALAR"
        }
    ],
    "bufferViews" : [
        {
            "buffer" : 0,
            "byteLength" : 29640,
            "byteOffset" : 0
        },
        {
            "buffer" : 0,
            "byteLength" : 29640,
            "byteOffset" : 29640
        },
        {
            "buffer" : 0,
            "byteLength" : 19760,
            "byteOffset" : 59280
        },
        {
            "buffer" : 0,
            "byteLength" : 26640,
            "byteOffset" : 79040
        },
        {
            "buffer" : 0,
            "byteLength" : 11997,
            "byteOffset" : 105680
        },
        {
            "buffer" : 0,
            "byteLength" : 9024,
            "byteOffset" : 117680
        },
        {
            "buffer" : 0,
            "byteLength" : 9024,
            "byteOffset" : 126704
        },
        {
            "buffer" : 0,
            "byteLength" : 6016,
            "byteOffset" : 135728
        },
        {
            "buffer" : 0,
            "byteLength" : 3360,
            "byteOffset" : 141744
        }
    ],
    "samplers" : [
        {
            "magFilter" : 9729,
            "minFilter" : 9987
        }
    ],
    "buffers" : [
        {
            "byteLength" : 145104,
            "uri" : "data:application/octet-stream;base64,"
        }
    ]
}
