{
    "asset" : {
        "copyright" : "Jeremy Edelblut",
        "generator" : "Khronos glTF Blender I/O v1.7.33",
        "version" : "2.0"
    },
    "scene" : 0,
    "scenes" : [
        {
            "name" : "Scene",
            "nodes" : [
                0
            ]
        }
    ],
    "nodes" : [
        {
            "mesh" : 0,
            "name" : "Plane.149",
            "rotation" : [
                -0.2228926569223404,
                -0.6710580587387085,
                -0.2228926569223404,
                0.6710579991340637
            ]
        }
    ],
    "materials" : [
        {
            "doubleSided" : true,
            "name" : "color",
            "pbrMetallicRoughness" : {
                "baseColorTexture" : {
                    "index" : 0
                },
                "metallicFactor" : 0,
                "roughnessFactor" : 0.5
            }
        }
    ],
    "meshes" : [
        {
            "name" : "Plane.151",
            "primitives" : [
                {
                    "attributes" : {
                        "POSITION" : 0,
                        "NORMAL" : 1,
                        "TEXCOORD_0" : 2
                    },
                    "indices" : 3,
                    "material" : 0
                }
            ]
        }
    ],
    "textures" : [
        {
            "sampler" : 0,
            "source" : 0
        }
    ],
    "images" : [
        {
            "bufferView" : 4,
            "mimeType" : "image/png",
            "name" : "tex"
        }
    ],
    "accessors" : [
        {
            "bufferView" : 0,
            "componentType" : 5126,
            "count" : 2484,
            "max" : [
                0.028115754947066307,
                0.6155833005905151,
                1.1056071519851685
            ],
            "min" : [
                -0.02594088390469551,
                -0.6499739289283752,
                -1.103399395942688
            ],
            "type" : "VEC3"
        },
        {
            "bufferView" : 1,
            "componentType" : 5126,
            "count" : 2484,
            "type" : "VEC3"
        },
        {
            "bufferView" : 2,
            "componentType" : 5126,
            "count" : 2484,
            "type" : "VEC2"
        },
        {
            "bufferView" : 3,
            "componentType" : 5123,
            "count" : 8688,
            "type" : "SCALAR"
        }
    ],
    "bufferViews" : [
        {
            "buffer" : 0,
            "byteLength" : 29808,
            "byteOffset" : 0
        },
        {
            "buffer" : 0,
            "byteLength" : 29808,
            "byteOffset" : 29808
        },
        {
            "buffer" : 0,
            "byteLength" : 19872,
            "byteOffset" : 59616
        },
        {
            "buffer" : 0,
            "byteLength" : 17376,
            "byteOffset" : 79488
        },
        {
            "buffer" : 0,
            "byteLength" : 11997,
            "byteOffset" : 96864
        }
    ],
    "samplers" : [
        {
            "magFilter" : 9729,
            "minFilter" : 9987
        }
    ],
    "buffers" : [
        {
            "byteLength" : 108864,
            "uri" : "data:application/octet-stream;base64,"
        }
    ]
}
