{
    "asset" : {
        "copyright" : "Jeremy Edelblut",
        "generator" : "Khronos glTF Blender I/O v1.7.33",
        "version" : "2.0"
    },
    "scene" : 0,
    "scenes" : [
        {
            "name" : "Scene",
            "nodes" : [
                0
            ]
        }
    ],
    "nodes" : [
        {
            "mesh" : 0,
            "name" : "Cube.723"
        }
    ],
    "materials" : [
        {
            "doubleSided" : true,
            "name" : "color",
            "pbrMetallicRoughness" : {
                "baseColorTexture" : {
                    "index" : 0
                },
                "metallicFactor" : 0,
                "roughnessFactor" : 0.5
            }
        }
    ],
    "meshes" : [
        {
            "name" : "Cube.7491",
            "primitives" : [
                {
                    "attributes" : {
                        "POSITION" : 0,
                        "NORMAL" : 1,
                        "TEXCOORD_0" : 2
                    },
                    "indices" : 3,
                    "material" : 0
                },
                {
                    "attributes" : {
                        "POSITION" : 4,
                        "NORMAL" : 5,
                        "TEXCOORD_0" : 6
                    },
                    "indices" : 7
                }
            ]
        }
    ],
    "textures" : [
        {
            "sampler" : 0,
            "source" : 0
        }
    ],
    "images" : [
        {
            "bufferView" : 4,
            "mimeType" : "image/png",
            "name" : "tex"
        }
    ],
    "accessors" : [
        {
            "bufferView" : 0,
            "componentType" : 5126,
            "count" : 7877,
            "max" : [
                1.092755913734436,
                0.4730367064476013,
                0.6553990244865417
            ],
            "min" : [
                -1.2275844812393188,
                -0.2622040808200836,
                -0.6553990244865417
            ],
            "type" : "VEC3"
        },
        {
            "bufferView" : 1,
            "componentType" : 5126,
            "count" : 7877,
            "type" : "VEC3"
        },
        {
            "bufferView" : 2,
            "componentType" : 5126,
            "count" : 7877,
            "type" : "VEC2"
        },
        {
            "bufferView" : 3,
            "componentType" : 5123,
            "count" : 24846,
            "type" : "SCALAR"
        },
        {
            "bufferView" : 5,
            "componentType" : 5126,
            "count" : 971,
            "max" : [
                0.17068162560462952,
                0.39422664046287537,
                0.12217579782009125
            ],
            "min" : [
                -0.08956914395093918,
                0.13260343670845032,
                -0.12378984689712524
            ],
            "type" : "VEC3"
        },
        {
            "bufferView" : 6,
            "componentType" : 5126,
            "count" : 971,
            "type" : "VEC3"
        },
        {
            "bufferView" : 7,
            "componentType" : 5126,
            "count" : 971,
            "type" : "VEC2"
        },
        {
            "bufferView" : 8,
            "componentType" : 5123,
            "count" : 5712,
            "type" : "SCALAR"
        }
    ],
    "bufferViews" : [
        {
            "buffer" : 0,
            "byteLength" : 94524,
            "byteOffset" : 0
        },
        {
            "buffer" : 0,
            "byteLength" : 94524,
            "byteOffset" : 94524
        },
        {
            "buffer" : 0,
            "byteLength" : 63016,
            "byteOffset" : 189048
        },
        {
            "buffer" : 0,
            "byteLength" : 49692,
            "byteOffset" : 252064
        },
        {
            "buffer" : 0,
            "byteLength" : 11997,
            "byteOffset" : 301756
        },
        {
            "buffer" : 0,
            "byteLength" : 11652,
            "byteOffset" : 313756
        },
        {
            "buffer" : 0,
            "byteLength" : 11652,
            "byteOffset" : 325408
        },
        {
            "buffer" : 0,
            "byteLength" : 7768,
            "byteOffset" : 337060
        },
        {
            "buffer" : 0,
            "byteLength" : 11424,
            "byteOffset" : 344828
        }
    ],
    "samplers" : [
        {
            "magFilter" : 9729,
            "minFilter" : 9987
        }
    ],
    "buffers" : [
        {
            "byteLength" : 356252,
            "uri" : "data:application/octet-stream;base64,"
        }
    ]
}
