{
    "asset" : {
        "copyright" : "Jeremy Edelblut",
        "generator" : "Khronos glTF Blender I/O v1.7.33",
        "version" : "2.0"
    },
    "scene" : 0,
    "scenes" : [
        {
            "name" : "Scene",
            "nodes" : [
                0
            ]
        }
    ],
    "nodes" : [
        {
            "mesh" : 0,
            "name" : "Cube.081"
        }
    ],
    "materials" : [
        {
            "doubleSided" : true,
            "name" : "skin_tone_one",
            "pbrMetallicRoughness" : {
                "baseColorTexture" : {
                    "index" : 0
                },
                "metallicFactor" : 0,
                "roughnessFactor" : 0.5
            }
        }
    ],
    "meshes" : [
        {
            "name" : "Cube.212",
            "primitives" : [
                {
                    "attributes" : {
                        "POSITION" : 0,
                        "NORMAL" : 1,
                        "TEXCOORD_0" : 2
                    },
                    "indices" : 3,
                    "material" : 0
                }
            ]
        }
    ],
    "textures" : [
        {
            "sampler" : 0,
            "source" : 0
        }
    ],
    "images" : [
        {
            "bufferView" : 4,
            "mimeType" : "image/png",
            "name" : "tex"
        }
    ],
    "accessors" : [
        {
            "bufferView" : 0,
            "componentType" : 5126,
            "count" : 5481,
            "max" : [
                0.7072522640228271,
                1.200699806213379,
                0.17208364605903625
            ],
            "min" : [
                -1.0042741298675537,
                -1.0665725469589233,
                -0.17208369076251984
            ],
            "type" : "VEC3"
        },
        {
            "bufferView" : 1,
            "componentType" : 5126,
            "count" : 5481,
            "type" : "VEC3"
        },
        {
            "bufferView" : 2,
            "componentType" : 5126,
            "count" : 5481,
            "type" : "VEC2"
        },
        {
            "bufferView" : 3,
            "componentType" : 5123,
            "count" : 28848,
            "type" : "SCALAR"
        }
    ],
    "bufferViews" : [
        {
            "buffer" : 0,
            "byteLength" : 65772,
            "byteOffset" : 0
        },
        {
            "buffer" : 0,
            "byteLength" : 65772,
            "byteOffset" : 65772
        },
        {
            "buffer" : 0,
            "byteLength" : 43848,
            "byteOffset" : 131544
        },
        {
            "buffer" : 0,
            "byteLength" : 57696,
            "byteOffset" : 175392
        },
        {
            "buffer" : 0,
            "byteLength" : 11997,
            "byteOffset" : 233088
        }
    ],
    "samplers" : [
        {
            "magFilter" : 9729,
            "minFilter" : 9987
        }
    ],
    "buffers" : [
        {
            "byteLength" : 245088,
            "uri" : "data:application/octet-stream;base64,"
        }
    ]
}
