{
    "asset" : {
        "copyright" : "Jeremy Edelblut",
        "generator" : "Khronos glTF Blender I/O v1.7.33",
        "version" : "2.0"
    },
    "scene" : 0,
    "scenes" : [
        {
            "name" : "Scene",
            "nodes" : [
                0
            ]
        }
    ],
    "nodes" : [
        {
            "mesh" : 0,
            "name" : "Circle.2419"
        }
    ],
    "materials" : [
        {
            "doubleSided" : true,
            "emissiveFactor" : [
                0.20000000298023224,
                0.20000000298023224,
                0.20000000298023224
            ],
            "emissiveTexture" : {
                "index" : 0
            },
            "name" : "color",
            "pbrMetallicRoughness" : {
                "baseColorTexture" : {
                    "index" : 1
                },
                "metallicFactor" : 0,
                "roughnessFactor" : 0.5
            }
        },
        {
            "alphaMode" : "BLEND",
            "doubleSided" : true,
            "name" : "transparent",
            "pbrMetallicRoughness" : {
                "baseColorFactor" : [
                    0.9072647094726562,
                    0.9472811222076416,
                    1,
                    0.10000000149011612
                ],
                "metallicFactor" : 0,
                "roughnessFactor" : 0.05000000447034836
            }
        }
    ],
    "meshes" : [
        {
            "name" : "Circle.2989",
            "primitives" : [
                {
                    "attributes" : {
                        "POSITION" : 0,
                        "NORMAL" : 1,
                        "TEXCOORD_0" : 2
                    },
                    "indices" : 3,
                    "material" : 0
                },
                {
                    "attributes" : {
                        "POSITION" : 4,
                        "NORMAL" : 5,
                        "TEXCOORD_0" : 6
                    },
                    "indices" : 7,
                    "material" : 1
                }
            ]
        }
    ],
    "textures" : [
        {
            "sampler" : 0,
            "source" : 0
        },
        {
            "sampler" : 0,
            "source" : 0
        }
    ],
    "images" : [
        {
            "bufferView" : 4,
            "mimeType" : "image/png",
            "name" : "tex"
        }
    ],
    "accessors" : [
        {
            "bufferView" : 0,
            "componentType" : 5126,
            "count" : 2472,
            "max" : [
                0.991982638835907,
                1.2102961540222168,
                0.12663482129573822
            ],
            "min" : [
                -0.991982638835907,
                -1.1464040279388428,
                -0.41877275705337524
            ],
            "type" : "VEC3"
        },
        {
            "bufferView" : 1,
            "componentType" : 5126,
            "count" : 2472,
            "type" : "VEC3"
        },
        {
            "bufferView" : 2,
            "componentType" : 5126,
            "count" : 2472,
            "type" : "VEC2"
        },
        {
            "bufferView" : 3,
            "componentType" : 5123,
            "count" : 7296,
            "type" : "SCALAR"
        },
        {
            "bufferView" : 5,
            "componentType" : 5126,
            "count" : 32,
            "max" : [
                0.8563432097434998,
                0.7019217014312744,
                0.11221384257078171
            ],
            "min" : [
                -0.8563432097434998,
                -1.010764718055725,
                0.11221377551555634
            ],
            "type" : "VEC3"
        },
        {
            "bufferView" : 6,
            "componentType" : 5126,
            "count" : 32,
            "type" : "VEC3"
        },
        {
            "bufferView" : 7,
            "componentType" : 5126,
            "count" : 32,
            "type" : "VEC2"
        },
        {
            "bufferView" : 8,
            "componentType" : 5123,
            "count" : 90,
            "type" : "SCALAR"
        }
    ],
    "bufferViews" : [
        {
            "buffer" : 0,
            "byteLength" : 29664,
            "byteOffset" : 0
        },
        {
            "buffer" : 0,
            "byteLength" : 29664,
            "byteOffset" : 29664
        },
        {
            "buffer" : 0,
            "byteLength" : 19776,
            "byteOffset" : 59328
        },
        {
            "buffer" : 0,
            "byteLength" : 14592,
            "byteOffset" : 79104
        },
        {
            "buffer" : 0,
            "byteLength" : 11997,
            "byteOffset" : 93696
        },
        {
            "buffer" : 0,
            "byteLength" : 384,
            "byteOffset" : 105696
        },
        {
            "buffer" : 0,
            "byteLength" : 384,
            "byteOffset" : 106080
        },
        {
            "buffer" : 0,
            "byteLength" : 256,
            "byteOffset" : 106464
        },
        {
            "buffer" : 0,
            "byteLength" : 180,
            "byteOffset" : 106720
        }
    ],
    "samplers" : [
        {
            "magFilter" : 9729,
            "minFilter" : 9987
        }
    ],
    "buffers" : [
        {
            "byteLength" : 106900,
            "uri" : "data:application/octet-stream;base64,"
        }
    ]
}
