{
    "asset" : {
        "copyright" : "Jeremy Edelblut",
        "generator" : "Khronos glTF Blender I/O v1.7.33",
        "version" : "2.0"
    },
    "scene" : 0,
    "scenes" : [
        {
            "name" : "Scene",
            "nodes" : [
                0,
                1,
                2,
                3,
                4,
                5,
                6,
                7,
                8,
                9
            ]
        }
    ],
    "nodes" : [
        {
            "mesh" : 0,
            "name" : "Circle.958"
        },
        {
            "mesh" : 1,
            "name" : "Circle.962"
        },
        {
            "mesh" : 2,
            "name" : "Roundcube.200"
        },
        {
            "mesh" : 3,
            "name" : "Circle.963"
        },
        {
            "mesh" : 4,
            "name" : "Cube.2372"
        },
        {
            "mesh" : 5,
            "name" : "Roundcube.201"
        },
        {
            "mesh" : 6,
            "name" : "Sphere.159"
        },
        {
            "mesh" : 7,
            "name" : "Circle.964"
        },
        {
            "mesh" : 8,
            "name" : "Cylinder.143"
        },
        {
            "mesh" : 9,
            "name" : "Sphere.130"
        }
    ],
    "materials" : [
        {
            "doubleSided" : true,
            "emissiveFactor" : [
                0.20000000298023224,
                0.20000000298023224,
                0.20000000298023224
            ],
            "emissiveTexture" : {
                "index" : 0
            },
            "name" : "color",
            "pbrMetallicRoughness" : {
                "baseColorTexture" : {
                    "index" : 1
                },
                "metallicFactor" : 0,
                "roughnessFactor" : 0.5
            }
        },
        {
            "doubleSided" : true,
            "name" : "skin_tone_one",
            "pbrMetallicRoughness" : {
                "baseColorTexture" : {
                    "index" : 2
                },
                "metallicFactor" : 0,
                "roughnessFactor" : 0.5
            }
        }
    ],
    "meshes" : [
        {
            "name" : "Circle.031",
            "primitives" : [
                {
                    "attributes" : {
                        "POSITION" : 0,
                        "NORMAL" : 1,
                        "TEXCOORD_0" : 2
                    },
                    "indices" : 3,
                    "material" : 0
                }
            ]
        },
        {
            "name" : "Circle.045",
            "primitives" : [
                {
                    "attributes" : {
                        "POSITION" : 4,
                        "NORMAL" : 5,
                        "TEXCOORD_0" : 6
                    },
                    "indices" : 7,
                    "material" : 1
                }
            ]
        },
        {
            "name" : "Roundcube.344",
            "primitives" : [
                {
                    "attributes" : {
                        "POSITION" : 8,
                        "NORMAL" : 9,
                        "TEXCOORD_0" : 10
                    },
                    "indices" : 11,
                    "material" : 0
                },
                {
                    "attributes" : {
                        "POSITION" : 12,
                        "NORMAL" : 13,
                        "TEXCOORD_0" : 14
                    },
                    "indices" : 15,
                    "material" : 1
                }
            ]
        },
        {
            "name" : "Circle.003",
            "primitives" : [
                {
                    "attributes" : {
                        "POSITION" : 16,
                        "NORMAL" : 17,
                        "TEXCOORD_0" : 18
                    },
                    "indices" : 19,
                    "material" : 0
                }
            ]
        },
        {
            "name" : "Cube.2831",
            "primitives" : [
                {
                    "attributes" : {
                        "POSITION" : 20,
                        "NORMAL" : 21,
                        "TEXCOORD_0" : 22
                    },
                    "indices" : 23,
                    "material" : 1
                }
            ]
        },
        {
            "name" : "Roundcube.201",
            "primitives" : [
                {
                    "attributes" : {
                        "POSITION" : 24,
                        "NORMAL" : 25,
                        "TEXCOORD_0" : 26
                    },
                    "indices" : 27,
                    "material" : 0
                }
            ]
        },
        {
            "name" : "Sphere.159",
            "primitives" : [
                {
                    "attributes" : {
                        "POSITION" : 28,
                        "NORMAL" : 29,
                        "TEXCOORD_0" : 30
                    },
                    "indices" : 31,
                    "material" : 0
                }
            ]
        },
        {
            "name" : "Circle.1048",
            "primitives" : [
                {
                    "attributes" : {
                        "POSITION" : 32,
                        "NORMAL" : 33,
                        "TEXCOORD_0" : 34
                    },
                    "indices" : 35,
                    "material" : 0
                }
            ]
        },
        {
            "name" : "Cylinder.386",
            "primitives" : [
                {
                    "attributes" : {
                        "POSITION" : 36,
                        "NORMAL" : 37,
                        "TEXCOORD_0" : 38
                    },
                    "indices" : 39,
                    "material" : 1
                }
            ]
        },
        {
            "name" : "Sphere.394",
            "primitives" : [
                {
                    "attributes" : {
                        "POSITION" : 40,
                        "NORMAL" : 41,
                        "TEXCOORD_0" : 42
                    },
                    "indices" : 43,
                    "material" : 0
                }
            ]
        }
    ],
    "textures" : [
        {
            "sampler" : 0,
            "source" : 0
        },
        {
            "sampler" : 0,
            "source" : 0
        },
        {
            "sampler" : 0,
            "source" : 0
        }
    ],
    "images" : [
        {
            "bufferView" : 4,
            "mimeType" : "image/png",
            "name" : "tex"
        }
    ],
    "accessors" : [
        {
            "bufferView" : 0,
            "componentType" : 5126,
            "count" : 452,
            "max" : [
                0.3571692109107971,
                0.319148451089859,
                0.5895629525184631
            ],
            "min" : [
                -0.3571692109107971,
                0.07062374800443649,
                0.4864819645881653
            ],
            "type" : "VEC3"
        },
        {
            "bufferView" : 1,
            "componentType" : 5126,
            "count" : 452,
            "type" : "VEC3"
        },
        {
            "bufferView" : 2,
            "componentType" : 5126,
            "count" : 452,
            "type" : "VEC2"
        },
        {
            "bufferView" : 3,
            "componentType" : 5123,
            "count" : 1920,
            "type" : "SCALAR"
        },
        {
            "bufferView" : 5,
            "componentType" : 5126,
            "count" : 142,
            "max" : [
                0.0685044378042221,
                0.05974981188774109,
                0.5844468474388123
            ],
            "min" : [
                -0.06649401038885117,
                -0.017295416444540024,
                0.5657127499580383
            ],
            "type" : "VEC3"
        },
        {
            "bufferView" : 6,
            "componentType" : 5126,
            "count" : 142,
            "type" : "VEC3"
        },
        {
            "bufferView" : 7,
            "componentType" : 5126,
            "count" : 142,
            "type" : "VEC2"
        },
        {
            "bufferView" : 8,
            "componentType" : 5123,
            "count" : 528,
            "type" : "SCALAR"
        },
        {
            "bufferView" : 9,
            "componentType" : 5126,
            "count" : 1218,
            "max" : [
                0.7119585871696472,
                0.8729530572891235,
                0.4926007390022278
            ],
            "min" : [
                -0.7119585871696472,
                -1.4007298946380615,
                -0.9389863610267639
            ],
            "type" : "VEC3"
        },
        {
            "bufferView" : 10,
            "componentType" : 5126,
            "count" : 1218,
            "type" : "VEC3"
        },
        {
            "bufferView" : 11,
            "componentType" : 5126,
            "count" : 1218,
            "type" : "VEC2"
        },
        {
            "bufferView" : 12,
            "componentType" : 5123,
            "count" : 4152,
            "type" : "SCALAR"
        },
        {
            "bufferView" : 13,
            "componentType" : 5126,
            "count" : 792,
            "max" : [
                0.7166812419891357,
                0.79124516248703,
                0.5776224732398987
            ],
            "min" : [
                -0.7166812419891357,
                -0.8074673414230347,
                -0.8452763557434082
            ],
            "type" : "VEC3"
        },
        {
            "bufferView" : 14,
            "componentType" : 5126,
            "count" : 792,
            "type" : "VEC3"
        },
        {
            "bufferView" : 15,
            "componentType" : 5126,
            "count" : 792,
            "type" : "VEC2"
        },
        {
            "bufferView" : 16,
            "componentType" : 5123,
            "count" : 3828,
            "type" : "SCALAR"
        },
        {
            "bufferView" : 17,
            "componentType" : 5126,
            "count" : 320,
            "max" : [
                0.41686490178108215,
                0.46141988039016724,
                0.5363622903823853
            ],
            "min" : [
                -0.41686490178108215,
                0.31168559193611145,
                0.41306060552597046
            ],
            "type" : "VEC3"
        },
        {
            "bufferView" : 18,
            "componentType" : 5126,
            "count" : 320,
            "type" : "VEC3"
        },
        {
            "bufferView" : 19,
            "componentType" : 5126,
            "count" : 320,
            "type" : "VEC2"
        },
        {
            "bufferView" : 20,
            "componentType" : 5123,
            "count" : 1152,
            "type" : "SCALAR"
        },
        {
            "bufferView" : 21,
            "componentType" : 5126,
            "count" : 1310,
            "max" : [
                0.7708356380462646,
                1.073990821838379,
                0.7736537456512451
            ],
            "min" : [
                -0.7971862554550171,
                0.01777304708957672,
                -0.9953101873397827
            ],
            "type" : "VEC3"
        },
        {
            "bufferView" : 22,
            "componentType" : 5126,
            "count" : 1310,
            "type" : "VEC3"
        },
        {
            "bufferView" : 23,
            "componentType" : 5126,
            "count" : 1310,
            "type" : "VEC2"
        },
        {
            "bufferView" : 24,
            "componentType" : 5123,
            "count" : 3132,
            "type" : "SCALAR"
        },
        {
            "bufferView" : 25,
            "componentType" : 5126,
            "count" : 1690,
            "max" : [
                0.5431245565414429,
                0.39983803033828735,
                0.5875575542449951
            ],
            "min" : [
                -0.5431246757507324,
                -0.04632524028420448,
                0.3408990800380707
            ],
            "type" : "VEC3"
        },
        {
            "bufferView" : 26,
            "componentType" : 5126,
            "count" : 1690,
            "type" : "VEC3"
        },
        {
            "bufferView" : 27,
            "componentType" : 5126,
            "count" : 1690,
            "type" : "VEC2"
        },
        {
            "bufferView" : 28,
            "componentType" : 5123,
            "count" : 8016,
            "type" : "SCALAR"
        },
        {
            "bufferView" : 29,
            "componentType" : 5126,
            "count" : 704,
            "max" : [
                0.8912023305892944,
                -0.6208229660987854,
                -0.11421287804841995
            ],
            "min" : [
                -0.8912023305892944,
                -1.4011605978012085,
                -1.2922003269195557
            ],
            "type" : "VEC3"
        },
        {
            "bufferView" : 30,
            "componentType" : 5126,
            "count" : 704,
            "type" : "VEC3"
        },
        {
            "bufferView" : 31,
            "componentType" : 5126,
            "count" : 704,
            "type" : "VEC2"
        },
        {
            "bufferView" : 32,
            "componentType" : 5123,
            "count" : 2982,
            "type" : "SCALAR"
        },
        {
            "bufferView" : 33,
            "componentType" : 5126,
            "count" : 64,
            "max" : [
                0.24694740772247314,
                -1.053052544593811,
                0.06962348520755768
            ],
            "min" : [
                -0.24694739282131195,
                -1.399999976158142,
                -0.0589492991566658
            ],
            "type" : "VEC3"
        },
        {
            "bufferView" : 34,
            "componentType" : 5126,
            "count" : 64,
            "type" : "VEC3"
        },
        {
            "bufferView" : 35,
            "componentType" : 5126,
            "count" : 64,
            "type" : "VEC2"
        },
        {
            "bufferView" : 36,
            "componentType" : 5123,
            "count" : 177,
            "type" : "SCALAR"
        },
        {
            "bufferView" : 37,
            "componentType" : 5126,
            "count" : 1135,
            "max" : [
                0.8778747320175171,
                0.3865436911582947,
                -0.10627720504999161
            ],
            "min" : [
                -0.8778746724128723,
                -0.0602678619325161,
                -0.36960697174072266
            ],
            "type" : "VEC3"
        },
        {
            "bufferView" : 38,
            "componentType" : 5126,
            "count" : 1135,
            "type" : "VEC3"
        },
        {
            "bufferView" : 39,
            "componentType" : 5126,
            "count" : 1135,
            "type" : "VEC2"
        },
        {
            "bufferView" : 40,
            "componentType" : 5123,
            "count" : 4992,
            "type" : "SCALAR"
        },
        {
            "bufferView" : 41,
            "componentType" : 5126,
            "count" : 445,
            "max" : [
                0.7500002384185791,
                -0.626502275466919,
                0.05096202343702316
            ],
            "min" : [
                -0.7500002384185791,
                -1.3991906642913818,
                -0.9490382075309753
            ],
            "type" : "VEC3"
        },
        {
            "bufferView" : 42,
            "componentType" : 5126,
            "count" : 445,
            "type" : "VEC3"
        },
        {
            "bufferView" : 43,
            "componentType" : 5126,
            "count" : 445,
            "type" : "VEC2"
        },
        {
            "bufferView" : 44,
            "componentType" : 5123,
            "count" : 2418,
            "type" : "SCALAR"
        }
    ],
    "bufferViews" : [
        {
            "buffer" : 0,
            "byteLength" : 5424,
            "byteOffset" : 0
        },
        {
            "buffer" : 0,
            "byteLength" : 5424,
            "byteOffset" : 5424
        },
        {
            "buffer" : 0,
            "byteLength" : 3616,
            "byteOffset" : 10848
        },
        {
            "buffer" : 0,
            "byteLength" : 3840,
            "byteOffset" : 14464
        },
        {
            "buffer" : 0,
            "byteLength" : 11997,
            "byteOffset" : 18304
        },
        {
            "buffer" : 0,
            "byteLength" : 1704,
            "byteOffset" : 30304
        },
        {
            "buffer" : 0,
            "byteLength" : 1704,
            "byteOffset" : 32008
        },
        {
            "buffer" : 0,
            "byteLength" : 1136,
            "byteOffset" : 33712
        },
        {
            "buffer" : 0,
            "byteLength" : 1056,
            "byteOffset" : 34848
        },
        {
            "buffer" : 0,
            "byteLength" : 14616,
            "byteOffset" : 35904
        },
        {
            "buffer" : 0,
            "byteLength" : 14616,
            "byteOffset" : 50520
        },
        {
            "buffer" : 0,
            "byteLength" : 9744,
            "byteOffset" : 65136
        },
        {
            "buffer" : 0,
            "byteLength" : 8304,
            "byteOffset" : 74880
        },
        {
            "buffer" : 0,
            "byteLength" : 9504,
            "byteOffset" : 83184
        },
        {
            "buffer" : 0,
            "byteLength" : 9504,
            "byteOffset" : 92688
        },
        {
            "buffer" : 0,
            "byteLength" : 6336,
            "byteOffset" : 102192
        },
        {
            "buffer" : 0,
            "byteLength" : 7656,
            "byteOffset" : 108528
        },
        {
            "buffer" : 0,
            "byteLength" : 3840,
            "byteOffset" : 116184
        },
        {
            "buffer" : 0,
            "byteLength" : 3840,
            "byteOffset" : 120024
        },
        {
            "buffer" : 0,
            "byteLength" : 2560,
            "byteOffset" : 123864
        },
        {
            "buffer" : 0,
            "byteLength" : 2304,
            "byteOffset" : 126424
        },
        {
            "buffer" : 0,
            "byteLength" : 15720,
            "byteOffset" : 128728
        },
        {
            "buffer" : 0,
            "byteLength" : 15720,
            "byteOffset" : 144448
        },
        {
            "buffer" : 0,
            "byteLength" : 10480,
            "byteOffset" : 160168
        },
        {
            "buffer" : 0,
            "byteLength" : 6264,
            "byteOffset" : 170648
        },
        {
            "buffer" : 0,
            "byteLength" : 20280,
            "byteOffset" : 176912
        },
        {
            "buffer" : 0,
            "byteLength" : 20280,
            "byteOffset" : 197192
        },
        {
            "buffer" : 0,
            "byteLength" : 13520,
            "byteOffset" : 217472
        },
        {
            "buffer" : 0,
            "byteLength" : 16032,
            "byteOffset" : 230992
        },
        {
            "buffer" : 0,
            "byteLength" : 8448,
            "byteOffset" : 247024
        },
        {
            "buffer" : 0,
            "byteLength" : 8448,
            "byteOffset" : 255472
        },
        {
            "buffer" : 0,
            "byteLength" : 5632,
            "byteOffset" : 263920
        },
        {
            "buffer" : 0,
            "byteLength" : 5964,
            "byteOffset" : 269552
        },
        {
            "buffer" : 0,
            "byteLength" : 768,
            "byteOffset" : 275516
        },
        {
            "buffer" : 0,
            "byteLength" : 768,
            "byteOffset" : 276284
        },
        {
            "buffer" : 0,
            "byteLength" : 512,
            "byteOffset" : 277052
        },
        {
            "buffer" : 0,
            "byteLength" : 354,
            "byteOffset" : 277564
        },
        {
            "buffer" : 0,
            "byteLength" : 13620,
            "byteOffset" : 277920
        },
        {
            "buffer" : 0,
            "byteLength" : 13620,
            "byteOffset" : 291540
        },
        {
            "buffer" : 0,
            "byteLength" : 9080,
            "byteOffset" : 305160
        },
        {
            "buffer" : 0,
            "byteLength" : 9984,
            "byteOffset" : 314240
        },
        {
            "buffer" : 0,
            "byteLength" : 5340,
            "byteOffset" : 324224
        },
        {
            "buffer" : 0,
            "byteLength" : 5340,
            "byteOffset" : 329564
        },
        {
            "buffer" : 0,
            "byteLength" : 3560,
            "byteOffset" : 334904
        },
        {
            "buffer" : 0,
            "byteLength" : 4836,
            "byteOffset" : 338464
        }
    ],
    "samplers" : [
        {
            "magFilter" : 9729,
            "minFilter" : 9987
        }
    ],
    "buffers" : [
        {
            "byteLength" : 343300,
            "uri" : "data:application/octet-stream;base64,"
        }
    ]
}
