{
    "asset" : {
        "copyright" : "Jeremy Edelblut",
        "generator" : "Khronos glTF Blender I/O v1.7.33",
        "version" : "2.0"
    },
    "scene" : 0,
    "scenes" : [
        {
            "name" : "Scene",
            "nodes" : [
                0,
                1,
                2,
                3,
                4,
                5,
                6,
                7,
                8
            ]
        }
    ],
    "nodes" : [
        {
            "mesh" : 0,
            "name" : "Circle.847"
        },
        {
            "mesh" : 1,
            "name" : "Circle.849"
        },
        {
            "mesh" : 2,
            "name" : "Cylinder.137"
        },
        {
            "mesh" : 3,
            "name" : "Roundcube.166"
        },
        {
            "mesh" : 4,
            "name" : "Circle.850"
        },
        {
            "mesh" : 5,
            "name" : "Cube.2101"
        },
        {
            "mesh" : 6,
            "name" : "Sphere.139"
        },
        {
            "mesh" : 7,
            "name" : "Roundcube.167"
        },
        {
            "mesh" : 8,
            "name" : "Circle.851"
        }
    ],
    "materials" : [
        {
            "doubleSided" : true,
            "name" : "color",
            "pbrMetallicRoughness" : {
                "baseColorTexture" : {
                    "index" : 0
                },
                "metallicFactor" : 0,
                "roughnessFactor" : 0.5
            }
        },
        {
            "doubleSided" : true,
            "name" : "skin_tone_one",
            "pbrMetallicRoughness" : {
                "baseColorTexture" : {
                    "index" : 1
                },
                "metallicFactor" : 0,
                "roughnessFactor" : 0.5
            }
        }
    ],
    "meshes" : [
        {
            "name" : "Circle.915",
            "primitives" : [
                {
                    "attributes" : {
                        "POSITION" : 0,
                        "NORMAL" : 1,
                        "TEXCOORD_0" : 2
                    },
                    "indices" : 3,
                    "material" : 0
                }
            ]
        },
        {
            "name" : "Circle.916",
            "primitives" : [
                {
                    "attributes" : {
                        "POSITION" : 4,
                        "NORMAL" : 5,
                        "TEXCOORD_0" : 6
                    },
                    "indices" : 7,
                    "material" : 1
                }
            ]
        },
        {
            "name" : "Cylinder.137",
            "primitives" : [
                {
                    "attributes" : {
                        "POSITION" : 8,
                        "NORMAL" : 9,
                        "TEXCOORD_0" : 10
                    },
                    "indices" : 11,
                    "material" : 1
                }
            ]
        },
        {
            "name" : "Roundcube.166",
            "primitives" : [
                {
                    "attributes" : {
                        "POSITION" : 12,
                        "NORMAL" : 13,
                        "TEXCOORD_0" : 14
                    },
                    "indices" : 15,
                    "material" : 0
                },
                {
                    "attributes" : {
                        "POSITION" : 16,
                        "NORMAL" : 17,
                        "TEXCOORD_0" : 18
                    },
                    "indices" : 19,
                    "material" : 1
                }
            ]
        },
        {
            "name" : "Circle.917",
            "primitives" : [
                {
                    "attributes" : {
                        "POSITION" : 20,
                        "NORMAL" : 21,
                        "TEXCOORD_0" : 22
                    },
                    "indices" : 23,
                    "material" : 1
                }
            ]
        },
        {
            "name" : "Cube.2512",
            "primitives" : [
                {
                    "attributes" : {
                        "POSITION" : 24,
                        "NORMAL" : 25,
                        "TEXCOORD_0" : 26
                    },
                    "indices" : 27,
                    "material" : 0
                }
            ]
        },
        {
            "name" : "Sphere.131",
            "primitives" : [
                {
                    "attributes" : {
                        "POSITION" : 28,
                        "NORMAL" : 29,
                        "TEXCOORD_0" : 30
                    },
                    "indices" : 31,
                    "material" : 0
                }
            ]
        },
        {
            "name" : "Roundcube.167",
            "primitives" : [
                {
                    "attributes" : {
                        "POSITION" : 32,
                        "NORMAL" : 33,
                        "TEXCOORD_0" : 34
                    },
                    "indices" : 35,
                    "material" : 1
                }
            ]
        },
        {
            "name" : "Circle.919",
            "primitives" : [
                {
                    "attributes" : {
                        "POSITION" : 36,
                        "NORMAL" : 37,
                        "TEXCOORD_0" : 38
                    },
                    "indices" : 39,
                    "material" : 0
                }
            ]
        }
    ],
    "textures" : [
        {
            "sampler" : 0,
            "source" : 0
        },
        {
            "sampler" : 0,
            "source" : 0
        }
    ],
    "images" : [
        {
            "bufferView" : 4,
            "mimeType" : "image/png",
            "name" : "tex"
        }
    ],
    "accessors" : [
        {
            "bufferView" : 0,
            "componentType" : 5126,
            "count" : 1448,
            "max" : [
                0.3479706346988678,
                0.11555574089288712,
                0.569788932800293
            ],
            "min" : [
                -0.3479706346988678,
                -0.1282619684934616,
                0.48670244216918945
            ],
            "type" : "VEC3"
        },
        {
            "bufferView" : 1,
            "componentType" : 5126,
            "count" : 1448,
            "type" : "VEC3"
        },
        {
            "bufferView" : 2,
            "componentType" : 5126,
            "count" : 1448,
            "type" : "VEC2"
        },
        {
            "bufferView" : 3,
            "componentType" : 5123,
            "count" : 6912,
            "type" : "SCALAR"
        },
        {
            "bufferView" : 5,
            "componentType" : 5126,
            "count" : 142,
            "max" : [
                0.0685044378042221,
                -0.14025025069713593,
                0.5844471454620361
            ],
            "min" : [
                -0.06649328768253326,
                -0.21729548275470734,
                0.5657129883766174
            ],
            "type" : "VEC3"
        },
        {
            "bufferView" : 6,
            "componentType" : 5126,
            "count" : 142,
            "type" : "VEC3"
        },
        {
            "bufferView" : 7,
            "componentType" : 5126,
            "count" : 142,
            "type" : "VEC2"
        },
        {
            "bufferView" : 8,
            "componentType" : 5123,
            "count" : 528,
            "type" : "SCALAR"
        },
        {
            "bufferView" : 9,
            "componentType" : 5126,
            "count" : 1135,
            "max" : [
                0.8778747320175171,
                0.18654368817806244,
                -0.10627720504999161
            ],
            "min" : [
                -0.8778746724128723,
                -0.26026782393455505,
                -0.36960697174072266
            ],
            "type" : "VEC3"
        },
        {
            "bufferView" : 10,
            "componentType" : 5126,
            "count" : 1135,
            "type" : "VEC3"
        },
        {
            "bufferView" : 11,
            "componentType" : 5126,
            "count" : 1135,
            "type" : "VEC2"
        },
        {
            "bufferView" : 12,
            "componentType" : 5123,
            "count" : 4992,
            "type" : "SCALAR"
        },
        {
            "bufferView" : 13,
            "componentType" : 5126,
            "count" : 85,
            "max" : [
                0.18255473673343658,
                -0.3374856412410736,
                0.4926007390022278
            ],
            "min" : [
                -0.17039211094379425,
                -0.4584078788757324,
                0.45513594150543213
            ],
            "type" : "VEC3"
        },
        {
            "bufferView" : 14,
            "componentType" : 5126,
            "count" : 85,
            "type" : "VEC3"
        },
        {
            "bufferView" : 15,
            "componentType" : 5126,
            "count" : 85,
            "type" : "VEC2"
        },
        {
            "bufferView" : 16,
            "componentType" : 5123,
            "count" : 384,
            "type" : "SCALAR"
        },
        {
            "bufferView" : 17,
            "componentType" : 5126,
            "count" : 1957,
            "max" : [
                0.716685950756073,
                0.6729530692100525,
                0.5776224732398987
            ],
            "min" : [
                -0.7166765332221985,
                -0.8516536951065063,
                -0.9389863610267639
            ],
            "type" : "VEC3"
        },
        {
            "bufferView" : 18,
            "componentType" : 5126,
            "count" : 1957,
            "type" : "VEC3"
        },
        {
            "bufferView" : 19,
            "componentType" : 5126,
            "count" : 1957,
            "type" : "VEC2"
        },
        {
            "bufferView" : 20,
            "componentType" : 5123,
            "count" : 7740,
            "type" : "SCALAR"
        },
        {
            "bufferView" : 21,
            "componentType" : 5126,
            "count" : 316,
            "max" : [
                0.41637179255485535,
                0.2612089514732361,
                0.5364930033683777
            ],
            "min" : [
                -0.41637179255485535,
                0.11175961792469025,
                0.41300904750823975
            ],
            "type" : "VEC3"
        },
        {
            "bufferView" : 22,
            "componentType" : 5126,
            "count" : 316,
            "type" : "VEC3"
        },
        {
            "bufferView" : 23,
            "componentType" : 5126,
            "count" : 316,
            "type" : "VEC2"
        },
        {
            "bufferView" : 24,
            "componentType" : 5123,
            "count" : 1152,
            "type" : "SCALAR"
        },
        {
            "bufferView" : 25,
            "componentType" : 5126,
            "count" : 78,
            "max" : [
                0.7518092393875122,
                0.6414270401000977,
                -0.01779019832611084
            ],
            "min" : [
                0.0385342538356781,
                0.08959726989269257,
                -0.48099082708358765
            ],
            "type" : "VEC3"
        },
        {
            "bufferView" : 26,
            "componentType" : 5126,
            "count" : 78,
            "type" : "VEC3"
        },
        {
            "bufferView" : 27,
            "componentType" : 5126,
            "count" : 78,
            "type" : "VEC2"
        },
        {
            "bufferView" : 28,
            "componentType" : 5123,
            "count" : 186,
            "type" : "SCALAR"
        },
        {
            "bufferView" : 29,
            "componentType" : 5126,
            "count" : 1858,
            "max" : [
                0.9126068353652954,
                1.0654706954956055,
                0.6025556325912476
            ],
            "min" : [
                -0.8978649973869324,
                -0.06843312829732895,
                -1.1651225090026855
            ],
            "type" : "VEC3"
        },
        {
            "bufferView" : 30,
            "componentType" : 5126,
            "count" : 1858,
            "type" : "VEC3"
        },
        {
            "bufferView" : 31,
            "componentType" : 5126,
            "count" : 1858,
            "type" : "VEC2"
        },
        {
            "bufferView" : 32,
            "componentType" : 5123,
            "count" : 6144,
            "type" : "SCALAR"
        },
        {
            "bufferView" : 33,
            "componentType" : 5126,
            "count" : 1012,
            "max" : [
                0.7970131039619446,
                0.7877492904663086,
                0.613347589969635
            ],
            "min" : [
                -0.7970131039619446,
                0.07867369800806046,
                -1.0156147480010986
            ],
            "type" : "VEC3"
        },
        {
            "bufferView" : 34,
            "componentType" : 5126,
            "count" : 1012,
            "type" : "VEC3"
        },
        {
            "bufferView" : 35,
            "componentType" : 5126,
            "count" : 1012,
            "type" : "VEC2"
        },
        {
            "bufferView" : 36,
            "componentType" : 5123,
            "count" : 5400,
            "type" : "SCALAR"
        },
        {
            "bufferView" : 37,
            "componentType" : 5126,
            "count" : 180,
            "max" : [
                0.38822123408317566,
                0.015485065057873726,
                0.506029486656189
            ],
            "min" : [
                -0.3882199227809906,
                -0.015267704613506794,
                0.4625191390514374
            ],
            "type" : "VEC3"
        },
        {
            "bufferView" : 38,
            "componentType" : 5126,
            "count" : 180,
            "type" : "VEC3"
        },
        {
            "bufferView" : 39,
            "componentType" : 5126,
            "count" : 180,
            "type" : "VEC2"
        },
        {
            "bufferView" : 40,
            "componentType" : 5123,
            "count" : 480,
            "type" : "SCALAR"
        }
    ],
    "bufferViews" : [
        {
            "buffer" : 0,
            "byteLength" : 17376,
            "byteOffset" : 0
        },
        {
            "buffer" : 0,
            "byteLength" : 17376,
            "byteOffset" : 17376
        },
        {
            "buffer" : 0,
            "byteLength" : 11584,
            "byteOffset" : 34752
        },
        {
            "buffer" : 0,
            "byteLength" : 13824,
            "byteOffset" : 46336
        },
        {
            "buffer" : 0,
            "byteLength" : 11997,
            "byteOffset" : 60160
        },
        {
            "buffer" : 0,
            "byteLength" : 1704,
            "byteOffset" : 72160
        },
        {
            "buffer" : 0,
            "byteLength" : 1704,
            "byteOffset" : 73864
        },
        {
            "buffer" : 0,
            "byteLength" : 1136,
            "byteOffset" : 75568
        },
        {
            "buffer" : 0,
            "byteLength" : 1056,
            "byteOffset" : 76704
        },
        {
            "buffer" : 0,
            "byteLength" : 13620,
            "byteOffset" : 77760
        },
        {
            "buffer" : 0,
            "byteLength" : 13620,
            "byteOffset" : 91380
        },
        {
            "buffer" : 0,
            "byteLength" : 9080,
            "byteOffset" : 105000
        },
        {
            "buffer" : 0,
            "byteLength" : 9984,
            "byteOffset" : 114080
        },
        {
            "buffer" : 0,
            "byteLength" : 1020,
            "byteOffset" : 124064
        },
        {
            "buffer" : 0,
            "byteLength" : 1020,
            "byteOffset" : 125084
        },
        {
            "buffer" : 0,
            "byteLength" : 680,
            "byteOffset" : 126104
        },
        {
            "buffer" : 0,
            "byteLength" : 768,
            "byteOffset" : 126784
        },
        {
            "buffer" : 0,
            "byteLength" : 23484,
            "byteOffset" : 127552
        },
        {
            "buffer" : 0,
            "byteLength" : 23484,
            "byteOffset" : 151036
        },
        {
            "buffer" : 0,
            "byteLength" : 15656,
            "byteOffset" : 174520
        },
        {
            "buffer" : 0,
            "byteLength" : 15480,
            "byteOffset" : 190176
        },
        {
            "buffer" : 0,
            "byteLength" : 3792,
            "byteOffset" : 205656
        },
        {
            "buffer" : 0,
            "byteLength" : 3792,
            "byteOffset" : 209448
        },
        {
            "buffer" : 0,
            "byteLength" : 2528,
            "byteOffset" : 213240
        },
        {
            "buffer" : 0,
            "byteLength" : 2304,
            "byteOffset" : 215768
        },
        {
            "buffer" : 0,
            "byteLength" : 936,
            "byteOffset" : 218072
        },
        {
            "buffer" : 0,
            "byteLength" : 936,
            "byteOffset" : 219008
        },
        {
            "buffer" : 0,
            "byteLength" : 624,
            "byteOffset" : 219944
        },
        {
            "buffer" : 0,
            "byteLength" : 372,
            "byteOffset" : 220568
        },
        {
            "buffer" : 0,
            "byteLength" : 22296,
            "byteOffset" : 220940
        },
        {
            "buffer" : 0,
            "byteLength" : 22296,
            "byteOffset" : 243236
        },
        {
            "buffer" : 0,
            "byteLength" : 14864,
            "byteOffset" : 265532
        },
        {
            "buffer" : 0,
            "byteLength" : 12288,
            "byteOffset" : 280396
        },
        {
            "buffer" : 0,
            "byteLength" : 12144,
            "byteOffset" : 292684
        },
        {
            "buffer" : 0,
            "byteLength" : 12144,
            "byteOffset" : 304828
        },
        {
            "buffer" : 0,
            "byteLength" : 8096,
            "byteOffset" : 316972
        },
        {
            "buffer" : 0,
            "byteLength" : 10800,
            "byteOffset" : 325068
        },
        {
            "buffer" : 0,
            "byteLength" : 2160,
            "byteOffset" : 335868
        },
        {
            "buffer" : 0,
            "byteLength" : 2160,
            "byteOffset" : 338028
        },
        {
            "buffer" : 0,
            "byteLength" : 1440,
            "byteOffset" : 340188
        },
        {
            "buffer" : 0,
            "byteLength" : 960,
            "byteOffset" : 341628
        }
    ],
    "samplers" : [
        {
            "magFilter" : 9729,
            "minFilter" : 9987
        }
    ],
    "buffers" : [
        {
            "byteLength" : 342588,
            "uri" : "data:application/octet-stream;base64,"
        }
    ]
}
