{
    "asset" : {
        "copyright" : "Jeremy Edelblut",
        "generator" : "Khronos glTF Blender I/O v1.7.33",
        "version" : "2.0"
    },
    "scene" : 0,
    "scenes" : [
        {
            "name" : "Scene",
            "nodes" : [
                0,
                1,
                2,
                3,
                4,
                5,
                6,
                7
            ]
        }
    ],
    "nodes" : [
        {
            "mesh" : 0,
            "name" : "Circle.005"
        },
        {
            "mesh" : 1,
            "name" : "Circle.006"
        },
        {
            "mesh" : 2,
            "name" : "Roundcube.431"
        },
        {
            "mesh" : 3,
            "name" : "Circle.007"
        },
        {
            "mesh" : 4,
            "name" : "Roundcube.432"
        },
        {
            "mesh" : 5,
            "name" : "Circle.008"
        },
        {
            "mesh" : 6,
            "name" : "Circle.009"
        },
        {
            "mesh" : 7,
            "name" : "ears.010"
        }
    ],
    "materials" : [
        {
            "doubleSided" : true,
            "emissiveFactor" : [
                0.20000000298023224,
                0.20000000298023224,
                0.20000000298023224
            ],
            "emissiveTexture" : {
                "index" : 0
            },
            "name" : "color",
            "pbrMetallicRoughness" : {
                "baseColorTexture" : {
                    "index" : 1
                },
                "metallicFactor" : 0,
                "roughnessFactor" : 0.5
            }
        },
        {
            "doubleSided" : true,
            "name" : "skin_tone_one",
            "pbrMetallicRoughness" : {
                "baseColorTexture" : {
                    "index" : 2
                },
                "metallicFactor" : 0,
                "roughnessFactor" : 0.5
            }
        }
    ],
    "meshes" : [
        {
            "name" : "Circle.006",
            "primitives" : [
                {
                    "attributes" : {
                        "POSITION" : 0,
                        "NORMAL" : 1,
                        "TEXCOORD_0" : 2
                    },
                    "indices" : 3,
                    "material" : 0
                }
            ]
        },
        {
            "name" : "Circle.007",
            "primitives" : [
                {
                    "attributes" : {
                        "POSITION" : 4,
                        "NORMAL" : 5,
                        "TEXCOORD_0" : 6
                    },
                    "indices" : 7,
                    "material" : 1
                }
            ]
        },
        {
            "name" : "Roundcube.346",
            "primitives" : [
                {
                    "attributes" : {
                        "POSITION" : 8,
                        "NORMAL" : 9,
                        "TEXCOORD_0" : 10
                    },
                    "indices" : 11,
                    "material" : 0
                },
                {
                    "attributes" : {
                        "POSITION" : 12,
                        "NORMAL" : 13,
                        "TEXCOORD_0" : 14
                    },
                    "indices" : 15,
                    "material" : 1
                }
            ]
        },
        {
            "name" : "Circle.008",
            "primitives" : [
                {
                    "attributes" : {
                        "POSITION" : 16,
                        "NORMAL" : 17,
                        "TEXCOORD_0" : 18
                    },
                    "indices" : 19,
                    "material" : 1
                }
            ]
        },
        {
            "name" : "Roundcube.347",
            "primitives" : [
                {
                    "attributes" : {
                        "POSITION" : 20,
                        "NORMAL" : 21,
                        "TEXCOORD_0" : 22
                    },
                    "indices" : 23,
                    "material" : 1
                }
            ]
        },
        {
            "name" : "Circle.009",
            "primitives" : [
                {
                    "attributes" : {
                        "POSITION" : 24,
                        "NORMAL" : 25,
                        "TEXCOORD_0" : 26
                    },
                    "indices" : 27,
                    "material" : 0
                }
            ]
        },
        {
            "name" : "Circle.010",
            "primitives" : [
                {
                    "attributes" : {
                        "POSITION" : 28,
                        "NORMAL" : 29,
                        "TEXCOORD_0" : 30
                    },
                    "indices" : 31,
                    "material" : 1
                }
            ]
        },
        {
            "name" : "Cylinder.254",
            "primitives" : [
                {
                    "attributes" : {
                        "POSITION" : 32,
                        "NORMAL" : 33,
                        "TEXCOORD_0" : 34
                    },
                    "indices" : 35,
                    "material" : 1
                }
            ]
        }
    ],
    "textures" : [
        {
            "sampler" : 0,
            "source" : 0
        },
        {
            "sampler" : 0,
            "source" : 0
        },
        {
            "sampler" : 0,
            "source" : 0
        }
    ],
    "images" : [
        {
            "bufferView" : 4,
            "mimeType" : "image/png",
            "name" : "tex"
        }
    ],
    "accessors" : [
        {
            "bufferView" : 0,
            "componentType" : 5126,
            "count" : 452,
            "max" : [
                0.34862571954727173,
                0.14658883213996887,
                0.5699373483657837
            ],
            "min" : [
                -0.34862571954727173,
                -0.09768280386924744,
                0.48648399114608765
            ],
            "type" : "VEC3"
        },
        {
            "bufferView" : 1,
            "componentType" : 5126,
            "count" : 452,
            "type" : "VEC3"
        },
        {
            "bufferView" : 2,
            "componentType" : 5126,
            "count" : 452,
            "type" : "VEC2"
        },
        {
            "bufferView" : 3,
            "componentType" : 5123,
            "count" : 1920,
            "type" : "SCALAR"
        },
        {
            "bufferView" : 5,
            "componentType" : 5126,
            "count" : 142,
            "max" : [
                0.0685044378042221,
                -0.10941676050424576,
                0.5844470858573914
            ],
            "min" : [
                -0.06649328768253326,
                -0.18646198511123657,
                0.5657129883766174
            ],
            "type" : "VEC3"
        },
        {
            "bufferView" : 6,
            "componentType" : 5126,
            "count" : 142,
            "type" : "VEC3"
        },
        {
            "bufferView" : 7,
            "componentType" : 5126,
            "count" : 142,
            "type" : "VEC2"
        },
        {
            "bufferView" : 8,
            "componentType" : 5123,
            "count" : 528,
            "type" : "SCALAR"
        },
        {
            "bufferView" : 9,
            "componentType" : 5126,
            "count" : 85,
            "max" : [
                0.1825547218322754,
                -0.3066522479057312,
                0.4926007390022278
            ],
            "min" : [
                -0.17039212584495544,
                -0.42757448554039,
                0.45513594150543213
            ],
            "type" : "VEC3"
        },
        {
            "bufferView" : 10,
            "componentType" : 5126,
            "count" : 85,
            "type" : "VEC3"
        },
        {
            "bufferView" : 11,
            "componentType" : 5126,
            "count" : 85,
            "type" : "VEC2"
        },
        {
            "bufferView" : 12,
            "componentType" : 5123,
            "count" : 384,
            "type" : "SCALAR"
        },
        {
            "bufferView" : 13,
            "componentType" : 5126,
            "count" : 1892,
            "max" : [
                0.716685950756073,
                0.7037864923477173,
                0.5776224732398987
            ],
            "min" : [
                -0.7166765332221985,
                -0.8208202719688416,
                -0.9389863610267639
            ],
            "type" : "VEC3"
        },
        {
            "bufferView" : 14,
            "componentType" : 5126,
            "count" : 1892,
            "type" : "VEC3"
        },
        {
            "bufferView" : 15,
            "componentType" : 5126,
            "count" : 1892,
            "type" : "VEC2"
        },
        {
            "bufferView" : 16,
            "componentType" : 5123,
            "count" : 7740,
            "type" : "SCALAR"
        },
        {
            "bufferView" : 17,
            "componentType" : 5126,
            "count" : 300,
            "max" : [
                0.448952853679657,
                0.2847556173801422,
                0.5520951151847839
            ],
            "min" : [
                -0.448952853679657,
                0.10351712256669998,
                0.40095093846321106
            ],
            "type" : "VEC3"
        },
        {
            "bufferView" : 18,
            "componentType" : 5126,
            "count" : 300,
            "type" : "VEC3"
        },
        {
            "bufferView" : 19,
            "componentType" : 5126,
            "count" : 300,
            "type" : "VEC2"
        },
        {
            "bufferView" : 20,
            "componentType" : 5123,
            "count" : 1152,
            "type" : "SCALAR"
        },
        {
            "bufferView" : 21,
            "componentType" : 5126,
            "count" : 1566,
            "max" : [
                0.8099209666252136,
                0.834323525428772,
                0.6249545812606812
            ],
            "min" : [
                -0.8099209666252136,
                -0.7035107016563416,
                -1.028566837310791
            ],
            "type" : "VEC3"
        },
        {
            "bufferView" : 22,
            "componentType" : 5126,
            "count" : 1566,
            "type" : "VEC3"
        },
        {
            "bufferView" : 23,
            "componentType" : 5126,
            "count" : 1566,
            "type" : "VEC2"
        },
        {
            "bufferView" : 24,
            "componentType" : 5123,
            "count" : 8508,
            "type" : "SCALAR"
        },
        {
            "bufferView" : 25,
            "componentType" : 5126,
            "count" : 180,
            "max" : [
                0.3882243037223816,
                0.046318210661411285,
                0.5060388445854187
            ],
            "min" : [
                -0.3882243037223816,
                0.015565577894449234,
                0.46253716945648193
            ],
            "type" : "VEC3"
        },
        {
            "bufferView" : 26,
            "componentType" : 5126,
            "count" : 180,
            "type" : "VEC3"
        },
        {
            "bufferView" : 27,
            "componentType" : 5126,
            "count" : 180,
            "type" : "VEC2"
        },
        {
            "bufferView" : 28,
            "componentType" : 5123,
            "count" : 480,
            "type" : "SCALAR"
        },
        {
            "bufferView" : 29,
            "componentType" : 5126,
            "count" : 1228,
            "max" : [
                0.4362960457801819,
                -0.20204801857471466,
                0.5734174251556396
            ],
            "min" : [
                -0.43633967638015747,
                -0.7173859477043152,
                0.19557219743728638
            ],
            "type" : "VEC3"
        },
        {
            "bufferView" : 30,
            "componentType" : 5126,
            "count" : 1228,
            "type" : "VEC3"
        },
        {
            "bufferView" : 31,
            "componentType" : 5126,
            "count" : 1228,
            "type" : "VEC2"
        },
        {
            "bufferView" : 32,
            "componentType" : 5123,
            "count" : 5520,
            "type" : "SCALAR"
        },
        {
            "bufferView" : 33,
            "componentType" : 5126,
            "count" : 1181,
            "max" : [
                0.8778747320175171,
                0.21737711131572723,
                -0.10627720504999161
            ],
            "min" : [
                -0.8778746724128723,
                -0.22943444550037384,
                -0.36960697174072266
            ],
            "type" : "VEC3"
        },
        {
            "bufferView" : 34,
            "componentType" : 5126,
            "count" : 1181,
            "type" : "VEC3"
        },
        {
            "bufferView" : 35,
            "componentType" : 5126,
            "count" : 1181,
            "type" : "VEC2"
        },
        {
            "bufferView" : 36,
            "componentType" : 5123,
            "count" : 4992,
            "type" : "SCALAR"
        }
    ],
    "bufferViews" : [
        {
            "buffer" : 0,
            "byteLength" : 5424,
            "byteOffset" : 0
        },
        {
            "buffer" : 0,
            "byteLength" : 5424,
            "byteOffset" : 5424
        },
        {
            "buffer" : 0,
            "byteLength" : 3616,
            "byteOffset" : 10848
        },
        {
            "buffer" : 0,
            "byteLength" : 3840,
            "byteOffset" : 14464
        },
        {
            "buffer" : 0,
            "byteLength" : 11997,
            "byteOffset" : 18304
        },
        {
            "buffer" : 0,
            "byteLength" : 1704,
            "byteOffset" : 30304
        },
        {
            "buffer" : 0,
            "byteLength" : 1704,
            "byteOffset" : 32008
        },
        {
            "buffer" : 0,
            "byteLength" : 1136,
            "byteOffset" : 33712
        },
        {
            "buffer" : 0,
            "byteLength" : 1056,
            "byteOffset" : 34848
        },
        {
            "buffer" : 0,
            "byteLength" : 1020,
            "byteOffset" : 35904
        },
        {
            "buffer" : 0,
            "byteLength" : 1020,
            "byteOffset" : 36924
        },
        {
            "buffer" : 0,
            "byteLength" : 680,
            "byteOffset" : 37944
        },
        {
            "buffer" : 0,
            "byteLength" : 768,
            "byteOffset" : 38624
        },
        {
            "buffer" : 0,
            "byteLength" : 22704,
            "byteOffset" : 39392
        },
        {
            "buffer" : 0,
            "byteLength" : 22704,
            "byteOffset" : 62096
        },
        {
            "buffer" : 0,
            "byteLength" : 15136,
            "byteOffset" : 84800
        },
        {
            "buffer" : 0,
            "byteLength" : 15480,
            "byteOffset" : 99936
        },
        {
            "buffer" : 0,
            "byteLength" : 3600,
            "byteOffset" : 115416
        },
        {
            "buffer" : 0,
            "byteLength" : 3600,
            "byteOffset" : 119016
        },
        {
            "buffer" : 0,
            "byteLength" : 2400,
            "byteOffset" : 122616
        },
        {
            "buffer" : 0,
            "byteLength" : 2304,
            "byteOffset" : 125016
        },
        {
            "buffer" : 0,
            "byteLength" : 18792,
            "byteOffset" : 127320
        },
        {
            "buffer" : 0,
            "byteLength" : 18792,
            "byteOffset" : 146112
        },
        {
            "buffer" : 0,
            "byteLength" : 12528,
            "byteOffset" : 164904
        },
        {
            "buffer" : 0,
            "byteLength" : 17016,
            "byteOffset" : 177432
        },
        {
            "buffer" : 0,
            "byteLength" : 2160,
            "byteOffset" : 194448
        },
        {
            "buffer" : 0,
            "byteLength" : 2160,
            "byteOffset" : 196608
        },
        {
            "buffer" : 0,
            "byteLength" : 1440,
            "byteOffset" : 198768
        },
        {
            "buffer" : 0,
            "byteLength" : 960,
            "byteOffset" : 200208
        },
        {
            "buffer" : 0,
            "byteLength" : 14736,
            "byteOffset" : 201168
        },
        {
            "buffer" : 0,
            "byteLength" : 14736,
            "byteOffset" : 215904
        },
        {
            "buffer" : 0,
            "byteLength" : 9824,
            "byteOffset" : 230640
        },
        {
            "buffer" : 0,
            "byteLength" : 11040,
            "byteOffset" : 240464
        },
        {
            "buffer" : 0,
            "byteLength" : 14172,
            "byteOffset" : 251504
        },
        {
            "buffer" : 0,
            "byteLength" : 14172,
            "byteOffset" : 265676
        },
        {
            "buffer" : 0,
            "byteLength" : 9448,
            "byteOffset" : 279848
        },
        {
            "buffer" : 0,
            "byteLength" : 9984,
            "byteOffset" : 289296
        }
    ],
    "samplers" : [
        {
            "magFilter" : 9729,
            "minFilter" : 9987
        }
    ],
    "buffers" : [
        {
            "byteLength" : 299280,
            "uri" : "data:application/octet-stream;base64,"
        }
    ]
}
