{
    "asset" : {
        "copyright" : "Jeremy Edelblut",
        "generator" : "Khronos glTF Blender I/O v1.7.33",
        "version" : "2.0"
    },
    "scene" : 0,
    "scenes" : [
        {
            "name" : "Scene",
            "nodes" : [
                0,
                1,
                2,
                3,
                4,
                5,
                6
            ]
        }
    ],
    "nodes" : [
        {
            "mesh" : 0,
            "name" : "Circle.411"
        },
        {
            "mesh" : 1,
            "name" : "Circle.412"
        },
        {
            "mesh" : 2,
            "name" : "Circle.413"
        },
        {
            "mesh" : 3,
            "name" : "Roundcube.040"
        },
        {
            "mesh" : 4,
            "name" : "Roundcube.041"
        },
        {
            "mesh" : 5,
            "name" : "Circle.414"
        },
        {
            "mesh" : 6,
            "name" : "ears.033"
        }
    ],
    "materials" : [
        {
            "doubleSided" : true,
            "emissiveFactor" : [
                0.20000000298023224,
                0.20000000298023224,
                0.20000000298023224
            ],
            "emissiveTexture" : {
                "index" : 0
            },
            "name" : "color",
            "pbrMetallicRoughness" : {
                "baseColorTexture" : {
                    "index" : 1
                },
                "metallicFactor" : 0,
                "roughnessFactor" : 0.5
            }
        },
        {
            "doubleSided" : true,
            "name" : "skin_tone_one",
            "pbrMetallicRoughness" : {
                "baseColorTexture" : {
                    "index" : 2
                },
                "metallicFactor" : 0,
                "roughnessFactor" : 0.5
            }
        }
    ],
    "meshes" : [
        {
            "name" : "Circle.446",
            "primitives" : [
                {
                    "attributes" : {
                        "POSITION" : 0,
                        "NORMAL" : 1,
                        "TEXCOORD_0" : 2
                    },
                    "indices" : 3,
                    "material" : 0
                }
            ]
        },
        {
            "name" : "Circle.447",
            "primitives" : [
                {
                    "attributes" : {
                        "POSITION" : 4,
                        "NORMAL" : 5,
                        "TEXCOORD_0" : 6
                    },
                    "indices" : 7,
                    "material" : 1
                }
            ]
        },
        {
            "name" : "Circle.448",
            "primitives" : [
                {
                    "attributes" : {
                        "POSITION" : 8,
                        "NORMAL" : 9,
                        "TEXCOORD_0" : 10
                    },
                    "indices" : 11,
                    "material" : 1
                }
            ]
        },
        {
            "name" : "Roundcube.042",
            "primitives" : [
                {
                    "attributes" : {
                        "POSITION" : 12,
                        "NORMAL" : 13,
                        "TEXCOORD_0" : 14
                    },
                    "indices" : 15,
                    "material" : 0
                },
                {
                    "attributes" : {
                        "POSITION" : 16,
                        "NORMAL" : 17,
                        "TEXCOORD_0" : 18
                    },
                    "indices" : 19,
                    "material" : 1
                }
            ]
        },
        {
            "name" : "Roundcube.043",
            "primitives" : [
                {
                    "attributes" : {
                        "POSITION" : 20,
                        "NORMAL" : 21,
                        "TEXCOORD_0" : 22
                    },
                    "indices" : 23,
                    "material" : 1
                }
            ]
        },
        {
            "name" : "Circle.449",
            "primitives" : [
                {
                    "attributes" : {
                        "POSITION" : 24,
                        "NORMAL" : 25,
                        "TEXCOORD_0" : 26
                    },
                    "indices" : 27
                }
            ]
        },
        {
            "name" : "Cylinder.291",
            "primitives" : [
                {
                    "attributes" : {
                        "POSITION" : 28,
                        "NORMAL" : 29,
                        "TEXCOORD_0" : 30
                    },
                    "indices" : 31,
                    "material" : 1
                }
            ]
        }
    ],
    "textures" : [
        {
            "sampler" : 0,
            "source" : 0
        },
        {
            "sampler" : 0,
            "source" : 0
        },
        {
            "sampler" : 0,
            "source" : 0
        }
    ],
    "images" : [
        {
            "bufferView" : 4,
            "mimeType" : "image/png",
            "name" : "tex"
        }
    ],
    "accessors" : [
        {
            "bufferView" : 0,
            "componentType" : 5126,
            "count" : 452,
            "max" : [
                0.3486500382423401,
                0.3157529830932617,
                0.5699792504310608
            ],
            "min" : [
                -0.3486500382423401,
                0.07148261368274689,
                0.48658543825149536
            ],
            "type" : "VEC3"
        },
        {
            "bufferView" : 1,
            "componentType" : 5126,
            "count" : 452,
            "type" : "VEC3"
        },
        {
            "bufferView" : 2,
            "componentType" : 5126,
            "count" : 452,
            "type" : "VEC2"
        },
        {
            "bufferView" : 3,
            "componentType" : 5123,
            "count" : 1920,
            "type" : "SCALAR"
        },
        {
            "bufferView" : 5,
            "componentType" : 5126,
            "count" : 142,
            "max" : [
                0.0685042142868042,
                0.05974800884723663,
                0.5844611525535583
            ],
            "min" : [
                -0.06649306416511536,
                -0.017297478392720222,
                0.565726637840271
            ],
            "type" : "VEC3"
        },
        {
            "bufferView" : 6,
            "componentType" : 5126,
            "count" : 142,
            "type" : "VEC3"
        },
        {
            "bufferView" : 7,
            "componentType" : 5126,
            "count" : 142,
            "type" : "VEC2"
        },
        {
            "bufferView" : 8,
            "componentType" : 5123,
            "count" : 528,
            "type" : "SCALAR"
        },
        {
            "bufferView" : 9,
            "componentType" : 5126,
            "count" : 980,
            "max" : [
                0.4187179505825043,
                0.46158358454704285,
                0.5364848971366882
            ],
            "min" : [
                -0.4187179505825043,
                0.311728835105896,
                0.41320720314979553
            ],
            "type" : "VEC3"
        },
        {
            "bufferView" : 10,
            "componentType" : 5126,
            "count" : 980,
            "type" : "VEC3"
        },
        {
            "bufferView" : 11,
            "componentType" : 5126,
            "count" : 980,
            "type" : "VEC2"
        },
        {
            "bufferView" : 12,
            "componentType" : 5123,
            "count" : 4128,
            "type" : "SCALAR"
        },
        {
            "bufferView" : 13,
            "componentType" : 5126,
            "count" : 1179,
            "max" : [
                0.6500002145767212,
                -0.13142742216587067,
                0.5126470923423767
            ],
            "min" : [
                -0.6500002145767212,
                -1.401503562927246,
                -0.8957846760749817
            ],
            "type" : "VEC3"
        },
        {
            "bufferView" : 14,
            "componentType" : 5126,
            "count" : 1179,
            "type" : "VEC3"
        },
        {
            "bufferView" : 15,
            "componentType" : 5126,
            "count" : 1179,
            "type" : "VEC2"
        },
        {
            "bufferView" : 16,
            "componentType" : 5123,
            "count" : 3900,
            "type" : "SCALAR"
        },
        {
            "bufferView" : 17,
            "componentType" : 5126,
            "count" : 1067,
            "max" : [
                0.716921329498291,
                0.8729530572891235,
                0.5776224732398987
            ],
            "min" : [
                -0.7164411544799805,
                -0.8288456797599792,
                -0.9389863610267639
            ],
            "type" : "VEC3"
        },
        {
            "bufferView" : 18,
            "componentType" : 5126,
            "count" : 1067,
            "type" : "VEC3"
        },
        {
            "bufferView" : 19,
            "componentType" : 5126,
            "count" : 1067,
            "type" : "VEC2"
        },
        {
            "bufferView" : 20,
            "componentType" : 5123,
            "count" : 5868,
            "type" : "SCALAR"
        },
        {
            "bufferView" : 21,
            "componentType" : 5126,
            "count" : 1566,
            "max" : [
                0.8099209666252136,
                1.0034900903701782,
                0.6249545812606812
            ],
            "min" : [
                -0.8099209666252136,
                -0.5343442559242249,
                -1.028566837310791
            ],
            "type" : "VEC3"
        },
        {
            "bufferView" : 22,
            "componentType" : 5126,
            "count" : 1566,
            "type" : "VEC3"
        },
        {
            "bufferView" : 23,
            "componentType" : 5126,
            "count" : 1566,
            "type" : "VEC2"
        },
        {
            "bufferView" : 24,
            "componentType" : 5123,
            "count" : 8508,
            "type" : "SCALAR"
        },
        {
            "bufferView" : 25,
            "componentType" : 5126,
            "count" : 180,
            "max" : [
                0.3797263205051422,
                0.2170426845550537,
                0.47412505745887756
            ],
            "min" : [
                -0.3797263205051422,
                0.18521656095981598,
                0.42791688442230225
            ],
            "type" : "VEC3"
        },
        {
            "bufferView" : 26,
            "componentType" : 5126,
            "count" : 180,
            "type" : "VEC3"
        },
        {
            "bufferView" : 27,
            "componentType" : 5126,
            "count" : 180,
            "type" : "VEC2"
        },
        {
            "bufferView" : 28,
            "componentType" : 5123,
            "count" : 480,
            "type" : "SCALAR"
        },
        {
            "bufferView" : 29,
            "componentType" : 5126,
            "count" : 1181,
            "max" : [
                0.8778747320175171,
                0.38884857296943665,
                -0.10627720504999161
            ],
            "min" : [
                -0.8778746724128723,
                -0.05796297267079353,
                -0.36960697174072266
            ],
            "type" : "VEC3"
        },
        {
            "bufferView" : 30,
            "componentType" : 5126,
            "count" : 1181,
            "type" : "VEC3"
        },
        {
            "bufferView" : 31,
            "componentType" : 5126,
            "count" : 1181,
            "type" : "VEC2"
        },
        {
            "bufferView" : 32,
            "componentType" : 5123,
            "count" : 4992,
            "type" : "SCALAR"
        }
    ],
    "bufferViews" : [
        {
            "buffer" : 0,
            "byteLength" : 5424,
            "byteOffset" : 0
        },
        {
            "buffer" : 0,
            "byteLength" : 5424,
            "byteOffset" : 5424
        },
        {
            "buffer" : 0,
            "byteLength" : 3616,
            "byteOffset" : 10848
        },
        {
            "buffer" : 0,
            "byteLength" : 3840,
            "byteOffset" : 14464
        },
        {
            "buffer" : 0,
            "byteLength" : 11997,
            "byteOffset" : 18304
        },
        {
            "buffer" : 0,
            "byteLength" : 1704,
            "byteOffset" : 30304
        },
        {
            "buffer" : 0,
            "byteLength" : 1704,
            "byteOffset" : 32008
        },
        {
            "buffer" : 0,
            "byteLength" : 1136,
            "byteOffset" : 33712
        },
        {
            "buffer" : 0,
            "byteLength" : 1056,
            "byteOffset" : 34848
        },
        {
            "buffer" : 0,
            "byteLength" : 11760,
            "byteOffset" : 35904
        },
        {
            "buffer" : 0,
            "byteLength" : 11760,
            "byteOffset" : 47664
        },
        {
            "buffer" : 0,
            "byteLength" : 7840,
            "byteOffset" : 59424
        },
        {
            "buffer" : 0,
            "byteLength" : 8256,
            "byteOffset" : 67264
        },
        {
            "buffer" : 0,
            "byteLength" : 14148,
            "byteOffset" : 75520
        },
        {
            "buffer" : 0,
            "byteLength" : 14148,
            "byteOffset" : 89668
        },
        {
            "buffer" : 0,
            "byteLength" : 9432,
            "byteOffset" : 103816
        },
        {
            "buffer" : 0,
            "byteLength" : 7800,
            "byteOffset" : 113248
        },
        {
            "buffer" : 0,
            "byteLength" : 12804,
            "byteOffset" : 121048
        },
        {
            "buffer" : 0,
            "byteLength" : 12804,
            "byteOffset" : 133852
        },
        {
            "buffer" : 0,
            "byteLength" : 8536,
            "byteOffset" : 146656
        },
        {
            "buffer" : 0,
            "byteLength" : 11736,
            "byteOffset" : 155192
        },
        {
            "buffer" : 0,
            "byteLength" : 18792,
            "byteOffset" : 166928
        },
        {
            "buffer" : 0,
            "byteLength" : 18792,
            "byteOffset" : 185720
        },
        {
            "buffer" : 0,
            "byteLength" : 12528,
            "byteOffset" : 204512
        },
        {
            "buffer" : 0,
            "byteLength" : 17016,
            "byteOffset" : 217040
        },
        {
            "buffer" : 0,
            "byteLength" : 2160,
            "byteOffset" : 234056
        },
        {
            "buffer" : 0,
            "byteLength" : 2160,
            "byteOffset" : 236216
        },
        {
            "buffer" : 0,
            "byteLength" : 1440,
            "byteOffset" : 238376
        },
        {
            "buffer" : 0,
            "byteLength" : 960,
            "byteOffset" : 239816
        },
        {
            "buffer" : 0,
            "byteLength" : 14172,
            "byteOffset" : 240776
        },
        {
            "buffer" : 0,
            "byteLength" : 14172,
            "byteOffset" : 254948
        },
        {
            "buffer" : 0,
            "byteLength" : 9448,
            "byteOffset" : 269120
        },
        {
            "buffer" : 0,
            "byteLength" : 9984,
            "byteOffset" : 278568
        }
    ],
    "samplers" : [
        {
            "magFilter" : 9729,
            "minFilter" : 9987
        }
    ],
    "buffers" : [
        {
            "byteLength" : 288552,
            "uri" : "data:application/octet-stream;base64,"
        }
    ]
}
