{
    "asset" : {
        "copyright" : "Jeremy Edelblut",
        "generator" : "Khronos glTF Blender I/O v1.7.33",
        "version" : "2.0"
    },
    "scene" : 2,
    "scenes" : [
        {
            "name" : "FBX_Temp",
            "nodes" : [
                0
            ]
        },
        {
            "name" : "FBX_Temp.001",
            "nodes" : [
                1
            ]
        },
        {
            "name" : "Scene",
            "nodes" : [
                2,
                3,
                4,
                5,
                6,
                7,
                8,
                9,
                10
            ]
        }
    ],
    "nodes" : [
        {
            "mesh" : 0,
            "name" : "3moji.064",
            "rotation" : [
                0,
                -0.7071068286895752,
                0,
                0.7071068286895752
            ]
        },
        {
            "mesh" : 1,
            "name" : "3moji.org.002",
            "rotation" : [
                -0.5,
                0.5,
                -0.4999999701976776,
                0.5
            ],
            "scale" : [
                0.010577797889709473,
                0.010577797889709473,
                0.010577797889709473
            ],
            "translation" : [
                0.007795508019626141,
                -0.920851469039917,
                0
            ]
        },
        {
            "mesh" : 2,
            "name" : "Circle.1067"
        },
        {
            "mesh" : 3,
            "name" : "Circle.1068"
        },
        {
            "mesh" : 4,
            "name" : "Cylinder.193"
        },
        {
            "mesh" : 5,
            "name" : "Roundcube.229"
        },
        {
            "mesh" : 6,
            "name" : "Circle.1069"
        },
        {
            "mesh" : 7,
            "name" : "Sphere.180"
        },
        {
            "mesh" : 8,
            "name" : "Roundcube.230"
        },
        {
            "mesh" : 9,
            "name" : "Circle.1070"
        },
        {
            "mesh" : 10,
            "name" : "Cylinder.194"
        }
    ],
    "materials" : [
        {
            "doubleSided" : true,
            "name" : "color",
            "pbrMetallicRoughness" : {
                "baseColorTexture" : {
                    "index" : 0
                },
                "metallicFactor" : 0,
                "roughnessFactor" : 0.5
            }
        },
        {
            "doubleSided" : true,
            "name" : "skin_tone_one",
            "pbrMetallicRoughness" : {
                "baseColorTexture" : {
                    "index" : 1
                },
                "metallicFactor" : 0,
                "roughnessFactor" : 0.5
            }
        }
    ],
    "meshes" : [
        {
            "name" : "Cube.417",
            "primitives" : [
                {
                    "attributes" : {
                        "POSITION" : 0,
                        "NORMAL" : 1,
                        "TEXCOORD_0" : 2
                    },
                    "indices" : 3,
                    "material" : 0
                }
            ]
        },
        {
            "name" : "Cube.056",
            "primitives" : [
                {
                    "attributes" : {
                        "POSITION" : 4,
                        "NORMAL" : 5,
                        "TEXCOORD_0" : 6
                    },
                    "indices" : 7
                }
            ]
        },
        {
            "name" : "Circle.1158",
            "primitives" : [
                {
                    "attributes" : {
                        "POSITION" : 8,
                        "NORMAL" : 9,
                        "TEXCOORD_0" : 10
                    },
                    "indices" : 11,
                    "material" : 0
                }
            ]
        },
        {
            "name" : "Circle.1159",
            "primitives" : [
                {
                    "attributes" : {
                        "POSITION" : 12,
                        "NORMAL" : 13,
                        "TEXCOORD_0" : 14
                    },
                    "indices" : 15,
                    "material" : 1
                }
            ]
        },
        {
            "name" : "Cylinder.193",
            "primitives" : [
                {
                    "attributes" : {
                        "POSITION" : 16,
                        "NORMAL" : 17,
                        "TEXCOORD_0" : 18
                    },
                    "indices" : 19,
                    "material" : 1
                }
            ]
        },
        {
            "name" : "Roundcube.229",
            "primitives" : [
                {
                    "attributes" : {
                        "POSITION" : 20,
                        "NORMAL" : 21,
                        "TEXCOORD_0" : 22
                    },
                    "indices" : 23,
                    "material" : 0
                },
                {
                    "attributes" : {
                        "POSITION" : 24,
                        "NORMAL" : 25,
                        "TEXCOORD_0" : 26
                    },
                    "indices" : 27,
                    "material" : 1
                }
            ]
        },
        {
            "name" : "Circle.1160",
            "primitives" : [
                {
                    "attributes" : {
                        "POSITION" : 28,
                        "NORMAL" : 29,
                        "TEXCOORD_0" : 30
                    },
                    "indices" : 31,
                    "material" : 0
                }
            ]
        },
        {
            "name" : "Sphere.179",
            "primitives" : [
                {
                    "attributes" : {
                        "POSITION" : 32,
                        "NORMAL" : 33,
                        "TEXCOORD_0" : 34
                    },
                    "indices" : 35,
                    "material" : 0
                }
            ]
        },
        {
            "name" : "Roundcube.230",
            "primitives" : [
                {
                    "attributes" : {
                        "POSITION" : 36,
                        "NORMAL" : 37,
                        "TEXCOORD_0" : 38
                    },
                    "indices" : 39,
                    "material" : 0
                }
            ]
        },
        {
            "name" : "Circle.1161",
            "primitives" : [
                {
                    "attributes" : {
                        "POSITION" : 40,
                        "NORMAL" : 41,
                        "TEXCOORD_0" : 42
                    },
                    "indices" : 43,
                    "material" : 0
                }
            ]
        },
        {
            "name" : "Cylinder.194",
            "primitives" : [
                {
                    "attributes" : {
                        "POSITION" : 44,
                        "NORMAL" : 45,
                        "TEXCOORD_0" : 46
                    },
                    "indices" : 47,
                    "material" : 0
                }
            ]
        }
    ],
    "textures" : [
        {
            "sampler" : 0,
            "source" : 0
        },
        {
            "sampler" : 0,
            "source" : 0
        }
    ],
    "images" : [
        {
            "bufferView" : 4,
            "mimeType" : "image/png",
            "name" : "tex"
        }
    ],
    "accessors" : [
        {
            "bufferView" : 0,
            "componentType" : 5126,
            "count" : 752,
            "max" : [
                -0.8264395594596863,
                0.05719918757677078,
                0.13795676827430725
            ],
            "min" : [
                -0.8543609976768494,
                -0.014034310355782509,
                -0.12436223030090332
            ],
            "type" : "VEC3"
        },
        {
            "bufferView" : 1,
            "componentType" : 5126,
            "count" : 752,
            "type" : "VEC3"
        },
        {
            "bufferView" : 2,
            "componentType" : 5126,
            "count" : 752,
            "type" : "VEC2"
        },
        {
            "bufferView" : 3,
            "componentType" : 5123,
            "count" : 1680,
            "type" : "SCALAR"
        },
        {
            "bufferView" : 5,
            "componentType" : 5126,
            "count" : 752,
            "max" : [
                2.8738752007484436e-05,
                7.90000057220459,
                17.240537643432617
            ],
            "min" : [
                -2.0099713802337646,
                -1.8999989032745361,
                -19.159460067749023
            ],
            "type" : "VEC3"
        },
        {
            "bufferView" : 6,
            "componentType" : 5126,
            "count" : 752,
            "type" : "VEC3"
        },
        {
            "bufferView" : 7,
            "componentType" : 5126,
            "count" : 752,
            "type" : "VEC2"
        },
        {
            "bufferView" : 8,
            "componentType" : 5123,
            "count" : 1680,
            "type" : "SCALAR"
        },
        {
            "bufferView" : 9,
            "componentType" : 5126,
            "count" : 1448,
            "max" : [
                0.3479701578617096,
                0.31555572152137756,
                0.5697880983352661
            ],
            "min" : [
                -0.3479701578617096,
                0.07173804193735123,
                0.4867003858089447
            ],
            "type" : "VEC3"
        },
        {
            "bufferView" : 10,
            "componentType" : 5126,
            "count" : 1448,
            "type" : "VEC3"
        },
        {
            "bufferView" : 11,
            "componentType" : 5126,
            "count" : 1448,
            "type" : "VEC2"
        },
        {
            "bufferView" : 12,
            "componentType" : 5123,
            "count" : 6912,
            "type" : "SCALAR"
        },
        {
            "bufferView" : 13,
            "componentType" : 5126,
            "count" : 142,
            "max" : [
                0.0685044378042221,
                0.05974981188774109,
                0.5844468474388123
            ],
            "min" : [
                -0.06649401038885117,
                -0.017295416444540024,
                0.5657127499580383
            ],
            "type" : "VEC3"
        },
        {
            "bufferView" : 14,
            "componentType" : 5126,
            "count" : 142,
            "type" : "VEC3"
        },
        {
            "bufferView" : 15,
            "componentType" : 5126,
            "count" : 142,
            "type" : "VEC2"
        },
        {
            "bufferView" : 16,
            "componentType" : 5123,
            "count" : 528,
            "type" : "SCALAR"
        },
        {
            "bufferView" : 17,
            "componentType" : 5126,
            "count" : 1135,
            "max" : [
                0.9231526851654053,
                0.4814976751804352,
                -0.10627720504999161
            ],
            "min" : [
                -0.9231526851654053,
                -0.0602678619325161,
                -0.36960697174072266
            ],
            "type" : "VEC3"
        },
        {
            "bufferView" : 18,
            "componentType" : 5126,
            "count" : 1135,
            "type" : "VEC3"
        },
        {
            "bufferView" : 19,
            "componentType" : 5126,
            "count" : 1135,
            "type" : "VEC2"
        },
        {
            "bufferView" : 20,
            "componentType" : 5123,
            "count" : 4992,
            "type" : "SCALAR"
        },
        {
            "bufferView" : 21,
            "componentType" : 5126,
            "count" : 1218,
            "max" : [
                0.7119585871696472,
                0.8729530572891235,
                0.4926007390022278
            ],
            "min" : [
                -0.7119585871696472,
                -1.4026883840560913,
                -0.9389863610267639
            ],
            "type" : "VEC3"
        },
        {
            "bufferView" : 22,
            "componentType" : 5126,
            "count" : 1218,
            "type" : "VEC3"
        },
        {
            "bufferView" : 23,
            "componentType" : 5126,
            "count" : 1218,
            "type" : "VEC2"
        },
        {
            "bufferView" : 24,
            "componentType" : 5123,
            "count" : 4152,
            "type" : "SCALAR"
        },
        {
            "bufferView" : 25,
            "componentType" : 5126,
            "count" : 792,
            "max" : [
                0.7166812419891357,
                0.79124516248703,
                0.5776224732398987
            ],
            "min" : [
                -0.7166812419891357,
                -0.8074673414230347,
                -0.8452763557434082
            ],
            "type" : "VEC3"
        },
        {
            "bufferView" : 26,
            "componentType" : 5126,
            "count" : 792,
            "type" : "VEC3"
        },
        {
            "bufferView" : 27,
            "componentType" : 5126,
            "count" : 792,
            "type" : "VEC2"
        },
        {
            "bufferView" : 28,
            "componentType" : 5123,
            "count" : 3828,
            "type" : "SCALAR"
        },
        {
            "bufferView" : 29,
            "componentType" : 5126,
            "count" : 316,
            "max" : [
                0.41688933968544006,
                0.46141335368156433,
                0.5363399386405945
            ],
            "min" : [
                -0.41688933968544006,
                0.3116462230682373,
                0.4130893647670746
            ],
            "type" : "VEC3"
        },
        {
            "bufferView" : 30,
            "componentType" : 5126,
            "count" : 316,
            "type" : "VEC3"
        },
        {
            "bufferView" : 31,
            "componentType" : 5126,
            "count" : 316,
            "type" : "VEC2"
        },
        {
            "bufferView" : 32,
            "componentType" : 5123,
            "count" : 1152,
            "type" : "SCALAR"
        },
        {
            "bufferView" : 33,
            "componentType" : 5126,
            "count" : 589,
            "max" : [
                0.7500002384185791,
                -0.5897574424743652,
                0.05096202343702316
            ],
            "min" : [
                -0.7500002384185791,
                -1.3991906642913818,
                -0.9490382075309753
            ],
            "type" : "VEC3"
        },
        {
            "bufferView" : 34,
            "componentType" : 5126,
            "count" : 589,
            "type" : "VEC3"
        },
        {
            "bufferView" : 35,
            "componentType" : 5126,
            "count" : 589,
            "type" : "VEC2"
        },
        {
            "bufferView" : 36,
            "componentType" : 5123,
            "count" : 2754,
            "type" : "SCALAR"
        },
        {
            "bufferView" : 37,
            "componentType" : 5126,
            "count" : 1530,
            "max" : [
                0.8310954570770264,
                0.9887375831604004,
                0.6228346228599548
            ],
            "min" : [
                -0.8401508927345276,
                -1.0146440267562866,
                -1.0333553552627563
            ],
            "type" : "VEC3"
        },
        {
            "bufferView" : 38,
            "componentType" : 5126,
            "count" : 1530,
            "type" : "VEC3"
        },
        {
            "bufferView" : 39,
            "componentType" : 5126,
            "count" : 1530,
            "type" : "VEC2"
        },
        {
            "bufferView" : 40,
            "componentType" : 5123,
            "count" : 8052,
            "type" : "SCALAR"
        },
        {
            "bufferView" : 41,
            "componentType" : 5126,
            "count" : 268,
            "max" : [
                0.8456418514251709,
                0.7583518028259277,
                0.6070098280906677
            ],
            "min" : [
                -0.8456420302391052,
                0.2881039083003998,
                -1.048494815826416
            ],
            "type" : "VEC3"
        },
        {
            "bufferView" : 42,
            "componentType" : 5126,
            "count" : 268,
            "type" : "VEC3"
        },
        {
            "bufferView" : 43,
            "componentType" : 5126,
            "count" : 268,
            "type" : "VEC2"
        },
        {
            "bufferView" : 44,
            "componentType" : 5123,
            "count" : 768,
            "type" : "SCALAR"
        },
        {
            "bufferView" : 45,
            "componentType" : 5126,
            "count" : 867,
            "max" : [
                0.39394620060920715,
                0.691566526889801,
                0.681697428226471
            ],
            "min" : [
                -0.39394626021385193,
                0.36058270931243896,
                0.49513378739356995
            ],
            "type" : "VEC3"
        },
        {
            "bufferView" : 46,
            "componentType" : 5126,
            "count" : 867,
            "type" : "VEC3"
        },
        {
            "bufferView" : 47,
            "componentType" : 5126,
            "count" : 867,
            "type" : "VEC2"
        },
        {
            "bufferView" : 48,
            "componentType" : 5123,
            "count" : 3438,
            "type" : "SCALAR"
        }
    ],
    "bufferViews" : [
        {
            "buffer" : 0,
            "byteLength" : 9024,
            "byteOffset" : 0
        },
        {
            "buffer" : 0,
            "byteLength" : 9024,
            "byteOffset" : 9024
        },
        {
            "buffer" : 0,
            "byteLength" : 6016,
            "byteOffset" : 18048
        },
        {
            "buffer" : 0,
            "byteLength" : 3360,
            "byteOffset" : 24064
        },
        {
            "buffer" : 0,
            "byteLength" : 11997,
            "byteOffset" : 27424
        },
        {
            "buffer" : 0,
            "byteLength" : 9024,
            "byteOffset" : 39424
        },
        {
            "buffer" : 0,
            "byteLength" : 9024,
            "byteOffset" : 48448
        },
        {
            "buffer" : 0,
            "byteLength" : 6016,
            "byteOffset" : 57472
        },
        {
            "buffer" : 0,
            "byteLength" : 3360,
            "byteOffset" : 63488
        },
        {
            "buffer" : 0,
            "byteLength" : 17376,
            "byteOffset" : 66848
        },
        {
            "buffer" : 0,
            "byteLength" : 17376,
            "byteOffset" : 84224
        },
        {
            "buffer" : 0,
            "byteLength" : 11584,
            "byteOffset" : 101600
        },
        {
            "buffer" : 0,
            "byteLength" : 13824,
            "byteOffset" : 113184
        },
        {
            "buffer" : 0,
            "byteLength" : 1704,
            "byteOffset" : 127008
        },
        {
            "buffer" : 0,
            "byteLength" : 1704,
            "byteOffset" : 128712
        },
        {
            "buffer" : 0,
            "byteLength" : 1136,
            "byteOffset" : 130416
        },
        {
            "buffer" : 0,
            "byteLength" : 1056,
            "byteOffset" : 131552
        },
        {
            "buffer" : 0,
            "byteLength" : 13620,
            "byteOffset" : 132608
        },
        {
            "buffer" : 0,
            "byteLength" : 13620,
            "byteOffset" : 146228
        },
        {
            "buffer" : 0,
            "byteLength" : 9080,
            "byteOffset" : 159848
        },
        {
            "buffer" : 0,
            "byteLength" : 9984,
            "byteOffset" : 168928
        },
        {
            "buffer" : 0,
            "byteLength" : 14616,
            "byteOffset" : 178912
        },
        {
            "buffer" : 0,
            "byteLength" : 14616,
            "byteOffset" : 193528
        },
        {
            "buffer" : 0,
            "byteLength" : 9744,
            "byteOffset" : 208144
        },
        {
            "buffer" : 0,
            "byteLength" : 8304,
            "byteOffset" : 217888
        },
        {
            "buffer" : 0,
            "byteLength" : 9504,
            "byteOffset" : 226192
        },
        {
            "buffer" : 0,
            "byteLength" : 9504,
            "byteOffset" : 235696
        },
        {
            "buffer" : 0,
            "byteLength" : 6336,
            "byteOffset" : 245200
        },
        {
            "buffer" : 0,
            "byteLength" : 7656,
            "byteOffset" : 251536
        },
        {
            "buffer" : 0,
            "byteLength" : 3792,
            "byteOffset" : 259192
        },
        {
            "buffer" : 0,
            "byteLength" : 3792,
            "byteOffset" : 262984
        },
        {
            "buffer" : 0,
            "byteLength" : 2528,
            "byteOffset" : 266776
        },
        {
            "buffer" : 0,
            "byteLength" : 2304,
            "byteOffset" : 269304
        },
        {
            "buffer" : 0,
            "byteLength" : 7068,
            "byteOffset" : 271608
        },
        {
            "buffer" : 0,
            "byteLength" : 7068,
            "byteOffset" : 278676
        },
        {
            "buffer" : 0,
            "byteLength" : 4712,
            "byteOffset" : 285744
        },
        {
            "buffer" : 0,
            "byteLength" : 5508,
            "byteOffset" : 290456
        },
        {
            "buffer" : 0,
            "byteLength" : 18360,
            "byteOffset" : 295964
        },
        {
            "buffer" : 0,
            "byteLength" : 18360,
            "byteOffset" : 314324
        },
        {
            "buffer" : 0,
            "byteLength" : 12240,
            "byteOffset" : 332684
        },
        {
            "buffer" : 0,
            "byteLength" : 16104,
            "byteOffset" : 344924
        },
        {
            "buffer" : 0,
            "byteLength" : 3216,
            "byteOffset" : 361028
        },
        {
            "buffer" : 0,
            "byteLength" : 3216,
            "byteOffset" : 364244
        },
        {
            "buffer" : 0,
            "byteLength" : 2144,
            "byteOffset" : 367460
        },
        {
            "buffer" : 0,
            "byteLength" : 1536,
            "byteOffset" : 369604
        },
        {
            "buffer" : 0,
            "byteLength" : 10404,
            "byteOffset" : 371140
        },
        {
            "buffer" : 0,
            "byteLength" : 10404,
            "byteOffset" : 381544
        },
        {
            "buffer" : 0,
            "byteLength" : 6936,
            "byteOffset" : 391948
        },
        {
            "buffer" : 0,
            "byteLength" : 6876,
            "byteOffset" : 398884
        }
    ],
    "samplers" : [
        {
            "magFilter" : 9729,
            "minFilter" : 9987
        }
    ],
    "buffers" : [
        {
            "byteLength" : 405760,
            "uri" : "data:application/octet-stream;base64,"
        }
    ]
}
