{
    "asset" : {
        "copyright" : "Jeremy Edelblut - 3moji 1.0",
        "generator" : "Khronos glTF Blender I/O v1.7.33",
        "version" : "2.0"
    },
    "scene" : 1,
    "scenes" : [
        {
            "name" : "FBX_Temp",
            "nodes" : [
                0
            ]
        },
        {
            "name" : "Scene",
            "nodes" : [
                1,
                2,
                3,
                4,
                5,
                6,
                7
            ]
        }
    ],
    "nodes" : [
        {
            "mesh" : 0,
            "name" : "3moji.064",
            "rotation" : [
                0,
                -0.7071068286895752,
                0,
                0.7071068286895752
            ]
        },
        {
            "mesh" : 1,
            "name" : "Circle.333"
        },
        {
            "mesh" : 2,
            "name" : "Circle.334"
        },
        {
            "mesh" : 3,
            "name" : "Roundcube.014"
        },
        {
            "mesh" : 4,
            "name" : "Circle.335"
        },
        {
            "mesh" : 5,
            "name" : "Roundcube.017"
        },
        {
            "mesh" : 6,
            "name" : "Circle.358"
        },
        {
            "mesh" : 7,
            "name" : "ears.016"
        }
    ],
    "materials" : [
        {
            "doubleSided" : true,
            "name" : "color",
            "pbrMetallicRoughness" : {
                "baseColorTexture" : {
                    "index" : 0
                },
                "metallicFactor" : 0,
                "roughnessFactor" : 0.5
            }
        },
        {
            "doubleSided" : true,
            "name" : "skin_tone_one",
            "pbrMetallicRoughness" : {
                "baseColorTexture" : {
                    "index" : 1
                },
                "metallicFactor" : 0,
                "roughnessFactor" : 0.5
            }
        }
    ],
    "meshes" : [
        {
            "name" : "Cube.417",
            "primitives" : [
                {
                    "attributes" : {
                        "POSITION" : 0,
                        "NORMAL" : 1,
                        "TEXCOORD_0" : 2
                    },
                    "indices" : 3,
                    "material" : 0
                }
            ]
        },
        {
            "name" : "Circle.368",
            "primitives" : [
                {
                    "attributes" : {
                        "POSITION" : 4,
                        "NORMAL" : 5,
                        "TEXCOORD_0" : 6
                    },
                    "indices" : 7,
                    "material" : 0
                }
            ]
        },
        {
            "name" : "Circle.369",
            "primitives" : [
                {
                    "attributes" : {
                        "POSITION" : 8,
                        "NORMAL" : 9,
                        "TEXCOORD_0" : 10
                    },
                    "indices" : 11,
                    "material" : 1
                }
            ]
        },
        {
            "name" : "Roundcube.017",
            "primitives" : [
                {
                    "attributes" : {
                        "POSITION" : 12,
                        "NORMAL" : 13,
                        "TEXCOORD_0" : 14
                    },
                    "indices" : 15,
                    "material" : 0
                },
                {
                    "attributes" : {
                        "POSITION" : 16,
                        "NORMAL" : 17,
                        "TEXCOORD_0" : 18
                    },
                    "indices" : 19,
                    "material" : 1
                }
            ]
        },
        {
            "name" : "Circle.370",
            "primitives" : [
                {
                    "attributes" : {
                        "POSITION" : 20,
                        "NORMAL" : 21,
                        "TEXCOORD_0" : 22
                    },
                    "indices" : 23,
                    "material" : 0
                }
            ]
        },
        {
            "name" : "Roundcube.018",
            "primitives" : [
                {
                    "attributes" : {
                        "POSITION" : 24,
                        "NORMAL" : 25,
                        "TEXCOORD_0" : 26
                    },
                    "indices" : 27,
                    "material" : 0
                }
            ]
        },
        {
            "name" : "Circle.388",
            "primitives" : [
                {
                    "attributes" : {
                        "POSITION" : 28,
                        "NORMAL" : 29,
                        "TEXCOORD_0" : 30
                    },
                    "indices" : 31,
                    "material" : 0
                }
            ]
        },
        {
            "name" : "Cylinder.262",
            "primitives" : [
                {
                    "attributes" : {
                        "POSITION" : 32,
                        "NORMAL" : 33,
                        "TEXCOORD_0" : 34
                    },
                    "indices" : 35,
                    "material" : 1
                }
            ]
        }
    ],
    "textures" : [
        {
            "sampler" : 0,
            "source" : 0
        },
        {
            "sampler" : 0,
            "source" : 0
        }
    ],
    "images" : [
        {
            "bufferView" : 4,
            "mimeType" : "image/png",
            "name" : "tex"
        }
    ],
    "accessors" : [
        {
            "bufferView" : 0,
            "componentType" : 5126,
            "count" : 752,
            "max" : [
                -0.8264395594596863,
                0.05719918757677078,
                0.13795676827430725
            ],
            "min" : [
                -0.8543609976768494,
                -0.014034310355782509,
                -0.12436223030090332
            ],
            "type" : "VEC3"
        },
        {
            "bufferView" : 1,
            "componentType" : 5126,
            "count" : 752,
            "type" : "VEC3"
        },
        {
            "bufferView" : 2,
            "componentType" : 5126,
            "count" : 752,
            "type" : "VEC2"
        },
        {
            "bufferView" : 3,
            "componentType" : 5123,
            "count" : 1680,
            "type" : "SCALAR"
        },
        {
            "bufferView" : 5,
            "componentType" : 5126,
            "count" : 452,
            "max" : [
                0.3486279845237732,
                0.14658872783184052,
                0.5699412822723389
            ],
            "min" : [
                -0.3486279845237732,
                -0.0976829081773758,
                0.4864935278892517
            ],
            "type" : "VEC3"
        },
        {
            "bufferView" : 6,
            "componentType" : 5126,
            "count" : 452,
            "type" : "VEC3"
        },
        {
            "bufferView" : 7,
            "componentType" : 5126,
            "count" : 452,
            "type" : "VEC2"
        },
        {
            "bufferView" : 8,
            "componentType" : 5123,
            "count" : 1920,
            "type" : "SCALAR"
        },
        {
            "bufferView" : 9,
            "componentType" : 5126,
            "count" : 142,
            "max" : [
                0.06850441545248032,
                -0.10941692441701889,
                0.5844484567642212
            ],
            "min" : [
                -0.06649326533079147,
                -0.1864621490240097,
                0.5657142996788025
            ],
            "type" : "VEC3"
        },
        {
            "bufferView" : 10,
            "componentType" : 5126,
            "count" : 142,
            "type" : "VEC3"
        },
        {
            "bufferView" : 11,
            "componentType" : 5126,
            "count" : 142,
            "type" : "VEC2"
        },
        {
            "bufferView" : 12,
            "componentType" : 5123,
            "count" : 528,
            "type" : "SCALAR"
        },
        {
            "bufferView" : 13,
            "componentType" : 5126,
            "count" : 85,
            "max" : [
                0.18257682025432587,
                -0.3066522479057312,
                0.4926007390022278
            ],
            "min" : [
                -0.17037001252174377,
                -0.42757448554039,
                0.45513594150543213
            ],
            "type" : "VEC3"
        },
        {
            "bufferView" : 14,
            "componentType" : 5126,
            "count" : 85,
            "type" : "VEC3"
        },
        {
            "bufferView" : 15,
            "componentType" : 5126,
            "count" : 85,
            "type" : "VEC2"
        },
        {
            "bufferView" : 16,
            "componentType" : 5123,
            "count" : 384,
            "type" : "SCALAR"
        },
        {
            "bufferView" : 17,
            "componentType" : 5126,
            "count" : 1891,
            "max" : [
                0.7167080640792847,
                0.7037864923477173,
                0.5776224732398987
            ],
            "min" : [
                -0.7166544198989868,
                -0.8208202719688416,
                -0.9389863610267639
            ],
            "type" : "VEC3"
        },
        {
            "bufferView" : 18,
            "componentType" : 5126,
            "count" : 1891,
            "type" : "VEC3"
        },
        {
            "bufferView" : 19,
            "componentType" : 5126,
            "count" : 1891,
            "type" : "VEC2"
        },
        {
            "bufferView" : 20,
            "componentType" : 5123,
            "count" : 7740,
            "type" : "SCALAR"
        },
        {
            "bufferView" : 21,
            "componentType" : 5126,
            "count" : 936,
            "max" : [
                0.45143923163414,
                0.284119576215744,
                0.5512472987174988
            ],
            "min" : [
                -0.45143923163414,
                0.10298173874616623,
                0.3966881036758423
            ],
            "type" : "VEC3"
        },
        {
            "bufferView" : 22,
            "componentType" : 5126,
            "count" : 936,
            "type" : "VEC3"
        },
        {
            "bufferView" : 23,
            "componentType" : 5126,
            "count" : 936,
            "type" : "VEC2"
        },
        {
            "bufferView" : 24,
            "componentType" : 5123,
            "count" : 4128,
            "type" : "SCALAR"
        },
        {
            "bufferView" : 25,
            "componentType" : 5126,
            "count" : 1566,
            "max" : [
                0.8099209666252136,
                0.834323525428772,
                0.6249545812606812
            ],
            "min" : [
                -0.8099209666252136,
                -0.7035107016563416,
                -1.028566837310791
            ],
            "type" : "VEC3"
        },
        {
            "bufferView" : 26,
            "componentType" : 5126,
            "count" : 1566,
            "type" : "VEC3"
        },
        {
            "bufferView" : 27,
            "componentType" : 5126,
            "count" : 1566,
            "type" : "VEC2"
        },
        {
            "bufferView" : 28,
            "componentType" : 5123,
            "count" : 8508,
            "type" : "SCALAR"
        },
        {
            "bufferView" : 29,
            "componentType" : 5126,
            "count" : 180,
            "max" : [
                0.3882243037223816,
                0.046318210661411285,
                0.5060388445854187
            ],
            "min" : [
                -0.3882243037223816,
                0.015565577894449234,
                0.46253716945648193
            ],
            "type" : "VEC3"
        },
        {
            "bufferView" : 30,
            "componentType" : 5126,
            "count" : 180,
            "type" : "VEC3"
        },
        {
            "bufferView" : 31,
            "componentType" : 5126,
            "count" : 180,
            "type" : "VEC2"
        },
        {
            "bufferView" : 32,
            "componentType" : 5123,
            "count" : 480,
            "type" : "SCALAR"
        },
        {
            "bufferView" : 33,
            "componentType" : 5126,
            "count" : 1181,
            "max" : [
                0.8778747320175171,
                0.21737711131572723,
                -0.10627720504999161
            ],
            "min" : [
                -0.8778746724128723,
                -0.22943444550037384,
                -0.36960697174072266
            ],
            "type" : "VEC3"
        },
        {
            "bufferView" : 34,
            "componentType" : 5126,
            "count" : 1181,
            "type" : "VEC3"
        },
        {
            "bufferView" : 35,
            "componentType" : 5126,
            "count" : 1181,
            "type" : "VEC2"
        },
        {
            "bufferView" : 36,
            "componentType" : 5123,
            "count" : 4992,
            "type" : "SCALAR"
        }
    ],
    "bufferViews" : [
        {
            "buffer" : 0,
            "byteLength" : 9024,
            "byteOffset" : 0
        },
        {
            "buffer" : 0,
            "byteLength" : 9024,
            "byteOffset" : 9024
        },
        {
            "buffer" : 0,
            "byteLength" : 6016,
            "byteOffset" : 18048
        },
        {
            "buffer" : 0,
            "byteLength" : 3360,
            "byteOffset" : 24064
        },
        {
            "buffer" : 0,
            "byteLength" : 11997,
            "byteOffset" : 27424
        },
        {
            "buffer" : 0,
            "byteLength" : 5424,
            "byteOffset" : 39424
        },
        {
            "buffer" : 0,
            "byteLength" : 5424,
            "byteOffset" : 44848
        },
        {
            "buffer" : 0,
            "byteLength" : 3616,
            "byteOffset" : 50272
        },
        {
            "buffer" : 0,
            "byteLength" : 3840,
            "byteOffset" : 53888
        },
        {
            "buffer" : 0,
            "byteLength" : 1704,
            "byteOffset" : 57728
        },
        {
            "buffer" : 0,
            "byteLength" : 1704,
            "byteOffset" : 59432
        },
        {
            "buffer" : 0,
            "byteLength" : 1136,
            "byteOffset" : 61136
        },
        {
            "buffer" : 0,
            "byteLength" : 1056,
            "byteOffset" : 62272
        },
        {
            "buffer" : 0,
            "byteLength" : 1020,
            "byteOffset" : 63328
        },
        {
            "buffer" : 0,
            "byteLength" : 1020,
            "byteOffset" : 64348
        },
        {
            "buffer" : 0,
            "byteLength" : 680,
            "byteOffset" : 65368
        },
        {
            "buffer" : 0,
            "byteLength" : 768,
            "byteOffset" : 66048
        },
        {
            "buffer" : 0,
            "byteLength" : 22692,
            "byteOffset" : 66816
        },
        {
            "buffer" : 0,
            "byteLength" : 22692,
            "byteOffset" : 89508
        },
        {
            "buffer" : 0,
            "byteLength" : 15128,
            "byteOffset" : 112200
        },
        {
            "buffer" : 0,
            "byteLength" : 15480,
            "byteOffset" : 127328
        },
        {
            "buffer" : 0,
            "byteLength" : 11232,
            "byteOffset" : 142808
        },
        {
            "buffer" : 0,
            "byteLength" : 11232,
            "byteOffset" : 154040
        },
        {
            "buffer" : 0,
            "byteLength" : 7488,
            "byteOffset" : 165272
        },
        {
            "buffer" : 0,
            "byteLength" : 8256,
            "byteOffset" : 172760
        },
        {
            "buffer" : 0,
            "byteLength" : 18792,
            "byteOffset" : 181016
        },
        {
            "buffer" : 0,
            "byteLength" : 18792,
            "byteOffset" : 199808
        },
        {
            "buffer" : 0,
            "byteLength" : 12528,
            "byteOffset" : 218600
        },
        {
            "buffer" : 0,
            "byteLength" : 17016,
            "byteOffset" : 231128
        },
        {
            "buffer" : 0,
            "byteLength" : 2160,
            "byteOffset" : 248144
        },
        {
            "buffer" : 0,
            "byteLength" : 2160,
            "byteOffset" : 250304
        },
        {
            "buffer" : 0,
            "byteLength" : 1440,
            "byteOffset" : 252464
        },
        {
            "buffer" : 0,
            "byteLength" : 960,
            "byteOffset" : 253904
        },
        {
            "buffer" : 0,
            "byteLength" : 14172,
            "byteOffset" : 254864
        },
        {
            "buffer" : 0,
            "byteLength" : 14172,
            "byteOffset" : 269036
        },
        {
            "buffer" : 0,
            "byteLength" : 9448,
            "byteOffset" : 283208
        },
        {
            "buffer" : 0,
            "byteLength" : 9984,
            "byteOffset" : 292656
        }
    ],
    "samplers" : [
        {
            "magFilter" : 9729,
            "minFilter" : 9987
        }
    ],
    "buffers" : [
        {
            "byteLength" : 302640,
            "uri" : "data:application/octet-stream;base64,"
        }
    ]
}
