{
    "asset" : {
        "copyright" : "Jeremy Edelblut",
        "generator" : "Khronos glTF Blender I/O v1.7.33",
        "version" : "2.0"
    },
    "scene" : 1,
    "scenes" : [
        {
            "name" : "FBX_Temp",
            "nodes" : [
                0
            ]
        },
        {
            "name" : "Scene",
            "nodes" : [
                1,
                2,
                3,
                4,
                5
            ]
        }
    ],
    "nodes" : [
        {
            "mesh" : 0,
            "name" : "3moji.064",
            "rotation" : [
                0,
                -0.7071068286895752,
                0,
                0.7071068286895752
            ]
        },
        {
            "mesh" : 1,
            "name" : "Circle.1882"
        },
        {
            "mesh" : 2,
            "name" : "Cube.6216"
        },
        {
            "mesh" : 3,
            "name" : "Plane.114"
        },
        {
            "mesh" : 4,
            "name" : "3moji.org.203"
        },
        {
            "mesh" : 5,
            "name" : "Cube.778"
        }
    ],
    "materials" : [
        {
            "doubleSided" : true,
            "name" : "color",
            "pbrMetallicRoughness" : {
                "baseColorTexture" : {
                    "index" : 0
                },
                "metallicFactor" : 0,
                "roughnessFactor" : 0.5
            }
        }
    ],
    "meshes" : [
        {
            "name" : "Cube.417",
            "primitives" : [
                {
                    "attributes" : {
                        "POSITION" : 0,
                        "NORMAL" : 1,
                        "TEXCOORD_0" : 2
                    },
                    "indices" : 3,
                    "material" : 0
                }
            ]
        },
        {
            "name" : "Circle.2098",
            "primitives" : [
                {
                    "attributes" : {
                        "POSITION" : 4,
                        "NORMAL" : 5,
                        "TEXCOORD_0" : 6
                    },
                    "indices" : 7,
                    "material" : 0
                }
            ]
        },
        {
            "name" : "Cube.7271",
            "primitives" : [
                {
                    "attributes" : {
                        "POSITION" : 8,
                        "NORMAL" : 9,
                        "TEXCOORD_0" : 10
                    },
                    "indices" : 11,
                    "material" : 0
                }
            ]
        },
        {
            "name" : "Plane.115",
            "primitives" : [
                {
                    "attributes" : {
                        "POSITION" : 12,
                        "NORMAL" : 13,
                        "TEXCOORD_0" : 14
                    },
                    "indices" : 15,
                    "material" : 0
                }
            ]
        },
        {
            "name" : "Cube.662",
            "primitives" : [
                {
                    "attributes" : {
                        "POSITION" : 16,
                        "NORMAL" : 17,
                        "TEXCOORD_0" : 18
                    },
                    "indices" : 19,
                    "material" : 0
                }
            ]
        },
        {
            "name" : "Cube.7660",
            "primitives" : [
                {
                    "attributes" : {
                        "POSITION" : 20,
                        "NORMAL" : 21,
                        "TEXCOORD_0" : 22
                    },
                    "indices" : 23,
                    "material" : 0
                }
            ]
        }
    ],
    "textures" : [
        {
            "sampler" : 0,
            "source" : 0
        }
    ],
    "images" : [
        {
            "bufferView" : 4,
            "mimeType" : "image/png",
            "name" : "tex"
        }
    ],
    "accessors" : [
        {
            "bufferView" : 0,
            "componentType" : 5126,
            "count" : 752,
            "max" : [
                -0.8264395594596863,
                0.05719918757677078,
                0.13795676827430725
            ],
            "min" : [
                -0.8543609976768494,
                -0.014034310355782509,
                -0.12436223030090332
            ],
            "type" : "VEC3"
        },
        {
            "bufferView" : 1,
            "componentType" : 5126,
            "count" : 752,
            "type" : "VEC3"
        },
        {
            "bufferView" : 2,
            "componentType" : 5126,
            "count" : 752,
            "type" : "VEC2"
        },
        {
            "bufferView" : 3,
            "componentType" : 5123,
            "count" : 1680,
            "type" : "SCALAR"
        },
        {
            "bufferView" : 5,
            "componentType" : 5126,
            "count" : 686,
            "max" : [
                0.08187326043844223,
                0.29519015550613403,
                0.378130167722702
            ],
            "min" : [
                -0.3785434365272522,
                0.07273116707801819,
                -0.17645303905010223
            ],
            "type" : "VEC3"
        },
        {
            "bufferView" : 6,
            "componentType" : 5126,
            "count" : 686,
            "type" : "VEC3"
        },
        {
            "bufferView" : 7,
            "componentType" : 5126,
            "count" : 686,
            "type" : "VEC2"
        },
        {
            "bufferView" : 8,
            "componentType" : 5123,
            "count" : 2880,
            "type" : "SCALAR"
        },
        {
            "bufferView" : 9,
            "componentType" : 5126,
            "count" : 232,
            "max" : [
                1.2102535963058472,
                1.092426061630249,
                0.3998556435108185
            ],
            "min" : [
                -0.5296117067337036,
                -0.6836172342300415,
                -0.8772574067115784
            ],
            "type" : "VEC3"
        },
        {
            "bufferView" : 10,
            "componentType" : 5126,
            "count" : 232,
            "type" : "VEC3"
        },
        {
            "bufferView" : 11,
            "componentType" : 5126,
            "count" : 232,
            "type" : "VEC2"
        },
        {
            "bufferView" : 12,
            "componentType" : 5123,
            "count" : 348,
            "type" : "SCALAR"
        },
        {
            "bufferView" : 13,
            "componentType" : 5126,
            "count" : 1294,
            "max" : [
                1.014367699623108,
                0.6970489621162415,
                0.8165123462677002
            ],
            "min" : [
                -1.0368760824203491,
                -1.082021951675415,
                -0.8011080026626587
            ],
            "type" : "VEC3"
        },
        {
            "bufferView" : 14,
            "componentType" : 5126,
            "count" : 1294,
            "type" : "VEC3"
        },
        {
            "bufferView" : 15,
            "componentType" : 5126,
            "count" : 1294,
            "type" : "VEC2"
        },
        {
            "bufferView" : 16,
            "componentType" : 5123,
            "count" : 3858,
            "type" : "SCALAR"
        },
        {
            "bufferView" : 17,
            "componentType" : 5126,
            "count" : 752,
            "max" : [
                0.38425135612487793,
                -0.8724530935287476,
                -0.093620665371418
            ],
            "min" : [
                0.23519009351730347,
                -0.9088789224624634,
                -0.31345492601394653
            ],
            "type" : "VEC3"
        },
        {
            "bufferView" : 18,
            "componentType" : 5126,
            "count" : 752,
            "type" : "VEC3"
        },
        {
            "bufferView" : 19,
            "componentType" : 5126,
            "count" : 752,
            "type" : "VEC2"
        },
        {
            "bufferView" : 20,
            "componentType" : 5123,
            "count" : 1680,
            "type" : "SCALAR"
        },
        {
            "bufferView" : 21,
            "componentType" : 5126,
            "count" : 744,
            "max" : [
                0.2480478584766388,
                0.868570864200592,
                0.29247039556503296
            ],
            "min" : [
                -0.19785362482070923,
                0.5113446116447449,
                -0.3098045587539673
            ],
            "type" : "VEC3"
        },
        {
            "bufferView" : 22,
            "componentType" : 5126,
            "count" : 744,
            "type" : "VEC3"
        },
        {
            "bufferView" : 23,
            "componentType" : 5126,
            "count" : 744,
            "type" : "VEC2"
        },
        {
            "bufferView" : 24,
            "componentType" : 5123,
            "count" : 3504,
            "type" : "SCALAR"
        }
    ],
    "bufferViews" : [
        {
            "buffer" : 0,
            "byteLength" : 9024,
            "byteOffset" : 0
        },
        {
            "buffer" : 0,
            "byteLength" : 9024,
            "byteOffset" : 9024
        },
        {
            "buffer" : 0,
            "byteLength" : 6016,
            "byteOffset" : 18048
        },
        {
            "buffer" : 0,
            "byteLength" : 3360,
            "byteOffset" : 24064
        },
        {
            "buffer" : 0,
            "byteLength" : 11997,
            "byteOffset" : 27424
        },
        {
            "buffer" : 0,
            "byteLength" : 8232,
            "byteOffset" : 39424
        },
        {
            "buffer" : 0,
            "byteLength" : 8232,
            "byteOffset" : 47656
        },
        {
            "buffer" : 0,
            "byteLength" : 5488,
            "byteOffset" : 55888
        },
        {
            "buffer" : 0,
            "byteLength" : 5760,
            "byteOffset" : 61376
        },
        {
            "buffer" : 0,
            "byteLength" : 2784,
            "byteOffset" : 67136
        },
        {
            "buffer" : 0,
            "byteLength" : 2784,
            "byteOffset" : 69920
        },
        {
            "buffer" : 0,
            "byteLength" : 1856,
            "byteOffset" : 72704
        },
        {
            "buffer" : 0,
            "byteLength" : 696,
            "byteOffset" : 74560
        },
        {
            "buffer" : 0,
            "byteLength" : 15528,
            "byteOffset" : 75256
        },
        {
            "buffer" : 0,
            "byteLength" : 15528,
            "byteOffset" : 90784
        },
        {
            "buffer" : 0,
            "byteLength" : 10352,
            "byteOffset" : 106312
        },
        {
            "buffer" : 0,
            "byteLength" : 7716,
            "byteOffset" : 116664
        },
        {
            "buffer" : 0,
            "byteLength" : 9024,
            "byteOffset" : 124380
        },
        {
            "buffer" : 0,
            "byteLength" : 9024,
            "byteOffset" : 133404
        },
        {
            "buffer" : 0,
            "byteLength" : 6016,
            "byteOffset" : 142428
        },
        {
            "buffer" : 0,
            "byteLength" : 3360,
            "byteOffset" : 148444
        },
        {
            "buffer" : 0,
            "byteLength" : 8928,
            "byteOffset" : 151804
        },
        {
            "buffer" : 0,
            "byteLength" : 8928,
            "byteOffset" : 160732
        },
        {
            "buffer" : 0,
            "byteLength" : 5952,
            "byteOffset" : 169660
        },
        {
            "buffer" : 0,
            "byteLength" : 7008,
            "byteOffset" : 175612
        }
    ],
    "samplers" : [
        {
            "magFilter" : 9729,
            "minFilter" : 9987
        }
    ],
    "buffers" : [
        {
            "byteLength" : 182620,
            "uri" : "data:application/octet-stream;base64,"
        }
    ]
}
